<?xml version="1.0" encoding="utf-8" standalone="no"?>
<!DOCTYPE svg PUBLIC "-//W3C//DTD SVG 1.1//EN"
  "http://www.w3.org/Graphics/SVG/1.1/DTD/svg11.dtd">
<svg xmlns:xlink="http://www.w3.org/1999/xlink" width="1008pt" height="576pt" viewBox="0 0 1008 576" xmlns="http://www.w3.org/2000/svg" version="1.1">
 <metadata>
  <rdf:RDF xmlns:dc="http://purl.org/dc/elements/1.1/" xmlns:cc="http://creativecommons.org/ns#" xmlns:rdf="http://www.w3.org/1999/02/22-rdf-syntax-ns#">
   <cc:Work>
    <dc:type rdf:resource="http://purl.org/dc/dcmitype/StillImage"/>
    <dc:date>2025-06-03T10:48:56.367362</dc:date>
    <dc:format>image/svg+xml</dc:format>
    <dc:creator>
     <cc:Agent>
      <dc:title>Matplotlib v3.7.1, https://matplotlib.org/</dc:title>
     </cc:Agent>
    </dc:creator>
   </cc:Work>
  </rdf:RDF>
 </metadata>
 <defs>
  <style type="text/css">*{stroke-linejoin: round; stroke-linecap: butt}</style>
 </defs>
 <g id="figure_1">
  <g id="patch_1">
   <path d="M 0 576 
L 1008 576 
L 1008 0 
L 0 0 
z
" style="fill: #ffffff"/>
  </g>
  <g id="axes_1">
   <g id="patch_2">
    <path d="M 126 270.72 
L 243.310345 270.72 
L 243.310345 69.12 
L 126 69.12 
z
" style="fill: #ffffff"/>
   </g>
   <g id="matplotlib.axis_1">
    <g id="xtick_1">
     <g id="line2d_1">
      <defs>
       <path id="m64ab4b2b24" d="M 0 0 
L 0 3.5 
" style="stroke: #000000; stroke-width: 0.8"/>
      </defs>
      <g>
       <use xlink:href="#m64ab4b2b24" x="131.332288" y="270.72" style="stroke: #000000; stroke-width: 0.8"/>
      </g>
     </g>
    </g>
    <g id="xtick_2">
     <g id="line2d_2">
      <g>
       <use xlink:href="#m64ab4b2b24" x="197.994226" y="270.72" style="stroke: #000000; stroke-width: 0.8"/>
      </g>
     </g>
    </g>
   </g>
   <g id="matplotlib.axis_2">
    <g id="ytick_1">
     <g id="line2d_3">
      <defs>
       <path id="m3c8d80b913" d="M 0 0 
L -3.5 0 
" style="stroke: #000000; stroke-width: 0.8"/>
      </defs>
      <g>
       <use xlink:href="#m3c8d80b913" x="126" y="261.556364" style="stroke: #000000; stroke-width: 0.8"/>
      </g>
     </g>
    </g>
    <g id="ytick_2">
     <g id="line2d_4">
      <g>
       <use xlink:href="#m3c8d80b913" x="126" y="224.75306" style="stroke: #000000; stroke-width: 0.8"/>
      </g>
     </g>
    </g>
    <g id="ytick_3">
     <g id="line2d_5">
      <g>
       <use xlink:href="#m3c8d80b913" x="126" y="187.949756" style="stroke: #000000; stroke-width: 0.8"/>
      </g>
     </g>
    </g>
    <g id="ytick_4">
     <g id="line2d_6">
      <g>
       <use xlink:href="#m3c8d80b913" x="126" y="151.146452" style="stroke: #000000; stroke-width: 0.8"/>
      </g>
     </g>
    </g>
    <g id="ytick_5">
     <g id="line2d_7">
      <g>
       <use xlink:href="#m3c8d80b913" x="126" y="114.343148" style="stroke: #000000; stroke-width: 0.8"/>
      </g>
     </g>
    </g>
    <g id="ytick_6">
     <g id="line2d_8">
      <g>
       <use xlink:href="#m3c8d80b913" x="126" y="77.539844" style="stroke: #000000; stroke-width: 0.8"/>
      </g>
     </g>
    </g>
    <g id="text_1">
     <!-- firing rate -->
     <g transform="translate(110.424688 224.220469) rotate(-90) scale(0.22 -0.22)">
      <defs>
       <path id="DejaVuSans-66" d="M 2375 4863 
L 2375 4384 
L 1825 4384 
Q 1516 4384 1395 4259 
Q 1275 4134 1275 3809 
L 1275 3500 
L 2222 3500 
L 2222 3053 
L 1275 3053 
L 1275 0 
L 697 0 
L 697 3053 
L 147 3053 
L 147 3500 
L 697 3500 
L 697 3744 
Q 697 4328 969 4595 
Q 1241 4863 1831 4863 
L 2375 4863 
z
" transform="scale(0.015625)"/>
       <path id="DejaVuSans-69" d="M 603 3500 
L 1178 3500 
L 1178 0 
L 603 0 
L 603 3500 
z
M 603 4863 
L 1178 4863 
L 1178 4134 
L 603 4134 
L 603 4863 
z
" transform="scale(0.015625)"/>
       <path id="DejaVuSans-72" d="M 2631 2963 
Q 2534 3019 2420 3045 
Q 2306 3072 2169 3072 
Q 1681 3072 1420 2755 
Q 1159 2438 1159 1844 
L 1159 0 
L 581 0 
L 581 3500 
L 1159 3500 
L 1159 2956 
Q 1341 3275 1631 3429 
Q 1922 3584 2338 3584 
Q 2397 3584 2469 3576 
Q 2541 3569 2628 3553 
L 2631 2963 
z
" transform="scale(0.015625)"/>
       <path id="DejaVuSans-6e" d="M 3513 2113 
L 3513 0 
L 2938 0 
L 2938 2094 
Q 2938 2591 2744 2837 
Q 2550 3084 2163 3084 
Q 1697 3084 1428 2787 
Q 1159 2491 1159 1978 
L 1159 0 
L 581 0 
L 581 3500 
L 1159 3500 
L 1159 2956 
Q 1366 3272 1645 3428 
Q 1925 3584 2291 3584 
Q 2894 3584 3203 3211 
Q 3513 2838 3513 2113 
z
" transform="scale(0.015625)"/>
       <path id="DejaVuSans-67" d="M 2906 1791 
Q 2906 2416 2648 2759 
Q 2391 3103 1925 3103 
Q 1463 3103 1205 2759 
Q 947 2416 947 1791 
Q 947 1169 1205 825 
Q 1463 481 1925 481 
Q 2391 481 2648 825 
Q 2906 1169 2906 1791 
z
M 3481 434 
Q 3481 -459 3084 -895 
Q 2688 -1331 1869 -1331 
Q 1566 -1331 1297 -1286 
Q 1028 -1241 775 -1147 
L 775 -588 
Q 1028 -725 1275 -790 
Q 1522 -856 1778 -856 
Q 2344 -856 2625 -561 
Q 2906 -266 2906 331 
L 2906 616 
Q 2728 306 2450 153 
Q 2172 0 1784 0 
Q 1141 0 747 490 
Q 353 981 353 1791 
Q 353 2603 747 3093 
Q 1141 3584 1784 3584 
Q 2172 3584 2450 3431 
Q 2728 3278 2906 2969 
L 2906 3500 
L 3481 3500 
L 3481 434 
z
" transform="scale(0.015625)"/>
       <path id="DejaVuSans-20" transform="scale(0.015625)"/>
       <path id="DejaVuSans-61" d="M 2194 1759 
Q 1497 1759 1228 1600 
Q 959 1441 959 1056 
Q 959 750 1161 570 
Q 1363 391 1709 391 
Q 2188 391 2477 730 
Q 2766 1069 2766 1631 
L 2766 1759 
L 2194 1759 
z
M 3341 1997 
L 3341 0 
L 2766 0 
L 2766 531 
Q 2569 213 2275 61 
Q 1981 -91 1556 -91 
Q 1019 -91 701 211 
Q 384 513 384 1019 
Q 384 1609 779 1909 
Q 1175 2209 1959 2209 
L 2766 2209 
L 2766 2266 
Q 2766 2663 2505 2880 
Q 2244 3097 1772 3097 
Q 1472 3097 1187 3025 
Q 903 2953 641 2809 
L 641 3341 
Q 956 3463 1253 3523 
Q 1550 3584 1831 3584 
Q 2591 3584 2966 3190 
Q 3341 2797 3341 1997 
z
" transform="scale(0.015625)"/>
       <path id="DejaVuSans-74" d="M 1172 4494 
L 1172 3500 
L 2356 3500 
L 2356 3053 
L 1172 3053 
L 1172 1153 
Q 1172 725 1289 603 
Q 1406 481 1766 481 
L 2356 481 
L 2356 0 
L 1766 0 
Q 1100 0 847 248 
Q 594 497 594 1153 
L 594 3053 
L 172 3053 
L 172 3500 
L 594 3500 
L 594 4494 
L 1172 4494 
z
" transform="scale(0.015625)"/>
       <path id="DejaVuSans-65" d="M 3597 1894 
L 3597 1613 
L 953 1613 
Q 991 1019 1311 708 
Q 1631 397 2203 397 
Q 2534 397 2845 478 
Q 3156 559 3463 722 
L 3463 178 
Q 3153 47 2828 -22 
Q 2503 -91 2169 -91 
Q 1331 -91 842 396 
Q 353 884 353 1716 
Q 353 2575 817 3079 
Q 1281 3584 2069 3584 
Q 2775 3584 3186 3129 
Q 3597 2675 3597 1894 
z
M 3022 2063 
Q 3016 2534 2758 2815 
Q 2500 3097 2075 3097 
Q 1594 3097 1305 2825 
Q 1016 2553 972 2059 
L 3022 2063 
z
" transform="scale(0.015625)"/>
      </defs>
      <use xlink:href="#DejaVuSans-66"/>
      <use xlink:href="#DejaVuSans-69" x="35.205078"/>
      <use xlink:href="#DejaVuSans-72" x="62.988281"/>
      <use xlink:href="#DejaVuSans-69" x="104.101562"/>
      <use xlink:href="#DejaVuSans-6e" x="131.884766"/>
      <use xlink:href="#DejaVuSans-67" x="195.263672"/>
      <use xlink:href="#DejaVuSans-20" x="258.740234"/>
      <use xlink:href="#DejaVuSans-72" x="290.527344"/>
      <use xlink:href="#DejaVuSans-61" x="331.640625"/>
      <use xlink:href="#DejaVuSans-74" x="392.919922"/>
      <use xlink:href="#DejaVuSans-65" x="432.128906"/>
     </g>
    </g>
   </g>
   <g id="line2d_9">
    <path d="M 131.332288 261.556364 
L 132.90551 259.370556 
L 134.878703 257.134349 
L 135.665314 256.422609 
L 136.865229 255.159995 
L 138.945082 252.293616 
L 139.878349 250.845352 
L 140.451641 250.101755 
L 142.931466 244.804557 
L 143.664747 242.890133 
L 144.398028 240.959885 
L 145.944585 237.729304 
L 147.47781 236.29743 
L 148.024438 235.177373 
L 149.730983 232.374441 
L 150.264279 231.525636 
L 150.757577 231.078424 
L 151.704177 229.795389 
L 152.464123 229.005481 
L 153.237401 228.137091 
L 153.67737 227.941333 
L 155.503907 225.468183 
L 155.823884 225.35119 
L 156.69049 225.237006 
L 157.717083 224.397175 
L 158.010396 224.333995 
L 158.810339 223.683879 
L 159.623615 223.455335 
L 160.476888 223.216883 
L 161.596808 222.401322 
L 162.290092 222.395953 
L 162.423416 222.454473 
L 162.663399 222.804461 
L 162.996709 223.260742 
L 163.39668 223.407803 
L 164.209956 223.741486 
L 164.569931 224.3715 
L 165.529862 226.158501 
L 165.84984 226.357344 
L 166.4098 226.267862 
L 166.703113 226.127246 
L 166.956428 225.992409 
L 168.289667 225.194053 
L 168.582979 225.28505 
L 169.236266 225.839134 
L 169.64957 226.576472 
L 170.129536 227.157338 
L 170.689496 227.980038 
L 170.969477 228.241697 
L 171.382781 228.272636 
L 171.99607 227.923165 
L 172.929338 227.427327 
L 173.169321 227.593733 
L 173.649286 228.158261 
L 174.16925 228.343476 
L 174.475895 228.459791 
L 174.702545 228.565245 
L 175.582483 229.315897 
L 176.049116 229.489792 
L 176.769065 229.75394 
L 177.848989 229.780547 
L 178.342287 229.480776 
L 178.702261 229.204751 
L 179.048903 228.951517 
L 179.902176 228.635552 
L 181.555392 226.643698 
L 181.902034 226.291321 
L 182.115353 226.146234 
L 182.901963 225.539443 
L 183.355265 225.718344 
L 184.408523 226.287076 
L 185.221799 226.168261 
L 186.035075 226.411207 
L 186.608367 226.029413 
L 188.714884 225.794652 
L 188.994865 225.896333 
L 189.381504 225.521588 
L 189.834805 225.084629 
L 190.181447 225.046388 
L 190.47476 225.282399 
L 190.874731 225.604651 
L 191.354697 225.870198 
L 191.608013 226.004847 
L 192.007984 226.134527 
L 192.341294 226.145284 
L 192.647939 226.234663 
L 194.487808 225.509034 
L 194.701126 225.66357 
L 195.047769 225.959532 
L 195.541067 225.700774 
L 195.767717 225.58824 
L 196.141024 225.506532 
L 196.447669 225.488226 
L 197.367604 225.457698 
L 197.767576 225.488211 
L 198.100885 225.891894 
L 198.620848 226.433136 
L 198.900829 226.393912 
L 199.500786 226.246388 
L 199.874093 226.335927 
L 200.114076 226.386844 
L 200.367391 226.554084 
L 200.860689 227.019006 
L 201.260661 227.362803 
L 201.70063 227.768915 
L 202.100602 228.017048 
L 202.92721 228.33809 
L 203.740485 228.852333 
L 204.233784 229.109952 
L 205.167051 229.801934 
L 205.393701 229.874842 
L 205.78034 229.994246 
L 206.006991 229.886649 
L 206.433627 229.60014 
L 206.860264 229.468148 
L 207.326897 229.465342 
L 207.526883 229.293358 
L 208.486815 228.242831 
L 208.913452 228.464779 
L 209.700062 228.988527 
L 209.926713 228.937384 
L 210.180028 228.646005 
L 210.540003 228.394277 
L 211.059966 228.311752 
L 211.326614 228.446574 
L 212.36654 229.051404 
L 212.859838 229.132396 
L 213.313139 228.688313 
L 213.673114 228.308754 
L 214.033088 228.333884 
L 214.446392 228.444054 
L 215.193006 228.719007 
L 215.752966 229.254119 
L 216.432918 229.255742 
L 216.752895 228.845276 
L 217.046208 228.6309 
L 217.352853 228.417712 
L 217.606168 228.252685 
L 218.392779 227.97917 
L 218.806083 227.84237 
L 219.219387 227.588522 
L 219.659356 227.486399 
L 220.179319 227.084478 
L 220.432634 226.866048 
L 220.805941 226.83757 
L 221.112586 227.019528 
L 222.325833 228.856386 
L 222.765802 229.06207 
L 222.912458 228.944233 
L 223.632407 227.892821 
L 224.005714 227.43042 
L 224.405686 227.239016 
L 225.112302 227.431745 
L 227.512132 229.153249 
L 227.805445 229.158544 
L 228.565391 229.018586 
L 229.085354 228.443958 
L 229.765306 228.496235 
L 230.031953 228.412759 
L 230.351931 228.221537 
L 230.765235 227.948266 
L 231.565178 227.492847 
L 233.045073 227.235184 
L 233.351718 227.186053 
L 233.69836 227.135436 
L 234.364979 227.019207 
L 234.658292 226.858695 
L 235.004934 226.675561 
L 236.204849 227.233966 
L 236.404835 227.253575 
L 236.99146 227.08043 
L 237.418096 226.845629 
L 237.564752 226.926344 
L 237.898062 227.126572 
L 237.978056 227.141807 
L 237.978056 227.141807 
" clip-path="url(#pd7897f8f64)" style="fill: none; stroke: #ff0000; stroke-width: 4; stroke-linecap: square"/>
   </g>
   <g id="line2d_10">
    <path d="M 131.332288 261.556364 
L 134.198752 257.408229 
L 135.02536 256.691791 
L 135.731976 255.948197 
L 137.611843 253.5442 
L 138.665102 251.610478 
L 140.94494 246.68237 
L 142.331508 242.687536 
L 142.891468 240.989558 
L 144.891327 235.38603 
L 147.024509 226.762475 
L 148.171094 222.670772 
L 149.837642 218.498894 
L 151.130884 215.662818 
L 152.397461 211.746081 
L 152.864094 211.226789 
L 153.010751 211.147004 
L 153.224069 210.887355 
L 153.610708 210.143169 
L 154.064009 209.102512 
L 154.650634 207.772173 
L 156.02387 203.257765 
L 156.58383 201.642251 
L 157.210453 200.006877 
L 157.570427 199.402361 
L 157.917069 198.88589 
L 158.183717 198.776251 
L 158.863669 198.61702 
L 159.276973 197.89447 
L 159.703609 197.236426 
L 159.87693 196.950895 
L 160.676873 195.391303 
L 160.890192 195.167578 
L 161.116842 195.000974 
L 161.423487 194.787476 
L 162.036777 194.978695 
L 162.383419 194.543935 
L 162.930047 193.780643 
L 163.703325 193.023545 
L 164.156627 191.539815 
L 165.316544 187.398074 
L 165.676519 186.935715 
L 165.956499 186.816581 
L 166.183149 187.047303 
L 166.476462 187.146327 
L 166.676448 187.038477 
L 167.209743 186.545287 
L 167.516388 186.114947 
L 167.956357 184.464776 
L 168.542982 182.031428 
L 168.742968 181.81262 
L 168.969618 181.683468 
L 169.262931 181.213973 
L 169.582908 180.749081 
L 169.756229 180.488259 
L 170.009545 179.51776 
L 170.556173 177.688618 
L 171.169462 175.804646 
L 171.676093 174.935229 
L 171.876079 174.767017 
L 172.209389 174.920144 
L 172.769349 175.740129 
L 173.155988 175.833548 
L 173.675951 176.249076 
L 173.902602 175.995735 
L 174.235912 175.014512 
L 175.249173 171.525686 
L 175.56915 171.068823 
L 175.84913 170.823341 
L 176.129111 170.488157 
L 176.23577 170.585919 
L 176.702403 171.203182 
L 177.249031 170.710873 
L 177.542344 170.445155 
L 177.822324 170.501482 
L 178.128969 170.490842 
L 178.502276 170.607213 
L 179.328884 170.077013 
L 179.715523 169.726044 
L 180.382142 170.00137 
L 180.528798 170.009595 
L 180.848776 170.498563 
L 181.408736 171.334935 
L 181.635387 171.56356 
L 182.675313 173.03345 
L 183.155279 173.499748 
L 183.435259 173.839438 
L 183.448591 173.829981 
L 183.955222 173.689503 
L 184.208537 173.644735 
L 184.341861 173.443928 
L 184.968484 172.34514 
L 184.995148 172.379196 
L 185.608438 173.134182 
L 185.861753 173.390658 
L 186.488376 174.496212 
L 186.888347 174.75572 
L 187.114998 174.521215 
L 187.394978 174.283793 
L 187.914941 174.167886 
L 188.514899 173.500408 
L 188.714884 173.448228 
L 188.848208 173.556514 
L 189.408169 174.503121 
L 189.86147 174.627589 
L 190.034791 174.666572 
L 190.914728 175.249261 
L 191.288035 175.334914 
L 191.394694 175.250646 
L 191.901325 174.769445 
L 192.461285 174.574898 
L 192.674604 174.59069 
L 192.861257 174.533629 
L 193.581206 173.720028 
L 195.16776 172.380973 
L 195.354413 172.408523 
L 196.074362 172.59735 
L 196.607658 172.444782 
L 196.754314 172.311915 
L 196.967632 172.206255 
L 197.540925 171.884294 
L 197.754243 172.080822 
L 198.367533 172.833682 
L 198.474192 172.887471 
L 198.714175 172.996657 
L 199.500786 172.527218 
L 200.074079 172.207376 
L 200.300729 172.180765 
L 200.647371 171.568249 
L 201.167334 170.854789 
L 201.900616 170.011702 
L 202.567235 169.002401 
L 202.87388 168.78474 
L 203.060533 168.426066 
L 204.300445 165.637972 
L 204.553761 165.577406 
L 204.740414 165.883286 
L 205.287042 166.768359 
L 205.487028 166.809378 
L 205.953662 166.603331 
L 206.180312 166.616757 
L 206.860264 166.491492 
L 207.206906 166.331227 
L 207.646875 166.741226 
L 207.833528 166.825989 
L 208.540145 166.947838 
L 209.726727 168.229031 
L 210.100034 168.606029 
L 210.58 169.510029 
L 210.819983 169.500914 
L 211.433273 168.949931 
L 211.886574 168.398505 
L 212.233216 167.933809 
L 212.726514 167.551363 
L 212.953165 167.505184 
L 213.753108 167.867703 
L 214.15308 167.798196 
L 214.339733 167.667405 
L 214.499722 167.396657 
L 215.206338 165.662721 
L 215.432989 165.590731 
L 215.632975 165.747138 
L 216.059611 165.991671 
L 217.232861 166.863546 
L 217.472844 167.100506 
L 217.926146 167.221305 
L 218.072802 167.285669 
L 218.432776 167.486592 
L 218.61943 167.735016 
L 218.979404 168.156879 
L 219.672688 168.080889 
L 220.005998 168.260329 
L 220.205984 168.538345 
L 220.379305 168.579984 
L 220.779276 168.166883 
L 221.219245 167.309001 
L 221.925862 166.903265 
L 223.339095 168.603031 
L 224.032379 169.186065 
L 224.219032 169.216826 
L 224.432351 169.611886 
L 224.725663 169.986417 
L 225.285623 170.266455 
L 225.552271 169.869882 
L 225.818919 169.276974 
L 226.205558 168.367621 
L 226.418876 168.257356 
L 226.538868 168.370667 
L 226.805516 168.685628 
L 226.952172 168.607655 
L 227.44547 168.336437 
L 227.978766 168.332649 
L 228.258746 168.657158 
L 228.445399 168.711259 
L 228.858703 168.593099 
L 229.138683 168.819867 
L 229.338669 168.765189 
L 230.12528 168.198275 
L 230.498587 167.704592 
L 230.511919 167.716659 
L 230.991885 167.981038 
L 231.138542 168.013946 
L 231.35186 168.022052 
L 231.605175 167.596438 
L 231.91182 167.070831 
L 232.431783 166.858867 
L 232.591772 166.963142 
L 232.845087 167.495958 
L 233.511707 168.980668 
L 233.685028 169.075214 
L 234.231656 169.123535 
L 234.364979 169.148299 
L 234.671624 169.240707 
L 234.898275 169.298097 
L 235.111593 169.657157 
L 235.338244 169.933943 
L 235.631556 169.904014 
L 236.484829 169.740201 
L 237.044789 170.04057 
L 237.538088 169.738628 
L 237.804735 169.563357 
L 237.978056 169.609012 
L 237.978056 169.609012 
" clip-path="url(#pd7897f8f64)" style="fill: none; stroke: #0000ff; stroke-width: 4; stroke-linecap: square"/>
   </g>
   <g id="patch_3">
    <path d="M 126 270.72 
L 126 69.12 
" style="fill: none; stroke: #000000; stroke-width: 3; stroke-linejoin: miter; stroke-linecap: square"/>
   </g>
   <g id="patch_4">
    <path d="M 126 270.72 
L 243.310345 270.72 
" style="fill: none; stroke: #000000; stroke-width: 3; stroke-linejoin: miter; stroke-linecap: square"/>
   </g>
   <g id="text_2">
    <!-- LAL010 -->
    <g transform="translate(139.898922 63.12) scale(0.24 -0.24)">
     <defs>
      <path id="DejaVuSans-4c" d="M 628 4666 
L 1259 4666 
L 1259 531 
L 3531 531 
L 3531 0 
L 628 0 
L 628 4666 
z
" transform="scale(0.015625)"/>
      <path id="DejaVuSans-41" d="M 2188 4044 
L 1331 1722 
L 3047 1722 
L 2188 4044 
z
M 1831 4666 
L 2547 4666 
L 4325 0 
L 3669 0 
L 3244 1197 
L 1141 1197 
L 716 0 
L 50 0 
L 1831 4666 
z
" transform="scale(0.015625)"/>
      <path id="DejaVuSans-30" d="M 2034 4250 
Q 1547 4250 1301 3770 
Q 1056 3291 1056 2328 
Q 1056 1369 1301 889 
Q 1547 409 2034 409 
Q 2525 409 2770 889 
Q 3016 1369 3016 2328 
Q 3016 3291 2770 3770 
Q 2525 4250 2034 4250 
z
M 2034 4750 
Q 2819 4750 3233 4129 
Q 3647 3509 3647 2328 
Q 3647 1150 3233 529 
Q 2819 -91 2034 -91 
Q 1250 -91 836 529 
Q 422 1150 422 2328 
Q 422 3509 836 4129 
Q 1250 4750 2034 4750 
z
" transform="scale(0.015625)"/>
      <path id="DejaVuSans-31" d="M 794 531 
L 1825 531 
L 1825 4091 
L 703 3866 
L 703 4441 
L 1819 4666 
L 2450 4666 
L 2450 531 
L 3481 531 
L 3481 0 
L 794 0 
L 794 531 
z
" transform="scale(0.015625)"/>
     </defs>
     <use xlink:href="#DejaVuSans-4c"/>
     <use xlink:href="#DejaVuSans-41" x="57.962891"/>
     <use xlink:href="#DejaVuSans-4c" x="126.371094"/>
     <use xlink:href="#DejaVuSans-30" x="182.083984"/>
     <use xlink:href="#DejaVuSans-31" x="245.707031"/>
     <use xlink:href="#DejaVuSans-30" x="309.330078"/>
    </g>
   </g>
  </g>
  <g id="axes_2">
   <g id="patch_5">
    <path d="M 266.772414 270.72 
L 384.082759 270.72 
L 384.082759 69.12 
L 266.772414 69.12 
z
" style="fill: #ffffff"/>
   </g>
   <g id="matplotlib.axis_3">
    <g id="xtick_3">
     <g id="line2d_11">
      <g>
       <use xlink:href="#m64ab4b2b24" x="272.104702" y="270.72" style="stroke: #000000; stroke-width: 0.8"/>
      </g>
     </g>
    </g>
    <g id="xtick_4">
     <g id="line2d_12">
      <g>
       <use xlink:href="#m64ab4b2b24" x="338.76664" y="270.72" style="stroke: #000000; stroke-width: 0.8"/>
      </g>
     </g>
    </g>
   </g>
   <g id="matplotlib.axis_4">
    <g id="ytick_7"/>
    <g id="ytick_8"/>
    <g id="ytick_9"/>
    <g id="ytick_10"/>
    <g id="ytick_11"/>
    <g id="ytick_12"/>
   </g>
   <g id="line2d_13">
    <path d="M 272.104702 261.556364 
L 273.117964 260.219216 
L 274.091228 259.298028 
L 275.704447 258.142913 
L 276.704376 257.629091 
L 279.410851 255.935852 
L 280.877413 254.863929 
L 281.597362 254.266589 
L 283.8772 251.92785 
L 284.663811 250.876101 
L 285.330431 250.051923 
L 286.996979 248.290653 
L 287.970243 247.735023 
L 288.383547 247.295868 
L 289.876775 245.794684 
L 290.450067 245.131123 
L 291.130019 244.406899 
L 291.91663 243.649169 
L 292.343266 243.251399 
L 293.303198 242.466208 
L 294.129806 241.791595 
L 294.636437 241.415858 
L 296.742954 239.322224 
L 297.382909 239.030739 
L 297.756216 238.723074 
L 298.702815 238.073744 
L 299.036125 237.781529 
L 299.649415 237.388113 
L 301.209304 236.68573 
L 302.649202 235.79843 
L 303.449145 235.767196 
L 303.80912 235.914762 
L 304.115765 235.941157 
L 305.20902 236.167782 
L 306.48893 237.254594 
L 307.288873 237.254606 
L 309.342061 236.575166 
L 310.035345 236.805319 
L 310.368654 237.09446 
L 311.755223 237.971112 
L 312.208524 237.952476 
L 313.675087 237.436418 
L 314.021729 237.58432 
L 314.488362 237.846593 
L 315.754939 238.249842 
L 316.434891 238.528498 
L 318.634735 238.752091 
L 320.874576 237.969357 
L 323.487724 236.051714 
L 323.874363 235.977878 
L 324.754301 236.120348 
L 325.180937 236.209026 
L 326.180866 236.111086 
L 326.754159 236.209825 
L 328.794014 235.746297 
L 329.193986 235.68225 
L 329.487298 235.667624 
L 329.847273 235.692965 
L 331.100517 235.268732 
L 332.927054 235.938621 
L 333.900318 235.941417 
L 334.793588 235.671329 
L 335.500205 235.61117 
L 335.926841 235.701368 
L 336.206822 235.596021 
L 336.9801 235.321202 
L 338.646648 235.218427 
L 339.739904 235.710098 
L 340.259867 235.699905 
L 340.699836 235.762425 
L 341.126473 235.884164 
L 341.646436 236.159734 
L 342.113069 236.401451 
L 342.913012 236.759578 
L 343.406311 236.847944 
L 343.926274 237.167715 
L 344.366243 237.359621 
L 346.779405 238.11303 
L 347.419359 237.949957 
L 348.499283 237.725463 
L 349.605871 237.254448 
L 350.619132 237.566321 
L 351.032436 237.352512 
L 351.5524 237.260316 
L 352.658988 237.454521 
L 353.045627 237.576282 
L 353.792241 237.594281 
L 354.138883 237.361316 
L 354.51219 237.190541 
L 355.01882 237.232802 
L 356.418721 237.526044 
L 356.752031 237.579661 
L 357.271994 237.582224 
L 358.578568 236.977543 
L 360.685085 236.463108 
L 361.098389 236.200559 
L 361.511693 236.087714 
L 361.871668 236.115452 
L 362.298304 236.479815 
L 363.018253 237.008525 
L 363.61821 237.194535 
L 364.204835 236.795326 
L 364.831458 236.335917 
L 365.164767 236.240938 
L 365.79139 236.329298 
L 368.444535 237.5177 
L 369.484461 237.44571 
L 369.977759 237.294056 
L 370.577717 237.290432 
L 372.924217 236.416735 
L 373.364186 236.258974 
L 373.737493 236.215112 
L 374.084135 236.179835 
L 374.977405 236.104399 
L 375.577362 235.908343 
L 375.964001 235.860783 
L 376.4573 235.917764 
L 377.24391 236.122885 
L 378.377163 235.998005 
L 378.75047 236.096218 
L 378.75047 236.096218 
" clip-path="url(#p39286a1717)" style="fill: none; stroke: #ff0000; stroke-width: 4; stroke-linecap: square"/>
   </g>
   <g id="line2d_14">
    <path d="M 272.104702 261.556364 
L 273.411276 259.776362 
L 274.557862 258.68124 
L 275.597788 258.023486 
L 276.864365 257.288166 
L 279.13087 255.660509 
L 281.357379 253.494364 
L 282.717283 251.824719 
L 284.810468 248.832488 
L 285.623743 247.632299 
L 290.290079 237.963664 
L 291.316673 236.325375 
L 293.663173 231.771263 
L 293.98315 231.370694 
L 294.716431 230.033229 
L 295.729693 227.788162 
L 296.66296 225.114117 
L 298.916134 219.750036 
L 300.56935 217.196299 
L 302.02258 214.362878 
L 302.289228 214.103733 
L 302.795858 213.712479 
L 303.222495 213.014569 
L 303.795787 212.102378 
L 304.64906 210.737885 
L 305.142359 209.204174 
L 306.328941 205.307622 
L 306.902234 204.534224 
L 307.395532 204.083131 
L 308.27547 202.668659 
L 308.702106 201.230092 
L 309.462052 198.375474 
L 310.635302 195.71586 
L 311.501907 192.420922 
L 312.008538 190.698021 
L 312.768484 188.785585 
L 313.008467 188.588059 
L 313.555095 188.518688 
L 313.928402 188.30578 
L 314.568357 188.27132 
L 314.768342 187.949794 
L 315.08832 187.145489 
L 316.141578 183.92616 
L 317.021516 182.56882 
L 317.541479 182.533015 
L 318.754726 181.370975 
L 319.701326 180.93106 
L 320.661258 180.297718 
L 321.074562 180.309708 
L 321.381207 180.261901 
L 321.861173 180.714109 
L 322.234479 180.998921 
L 322.367803 181.085909 
L 324.314332 182.872461 
L 325.167605 182.79578 
L 325.860889 182.14442 
L 326.327522 182.494951 
L 327.354116 183.619723 
L 327.780753 183.756306 
L 328.634025 183.4988 
L 328.834011 183.301381 
L 329.087327 183.131642 
L 329.673952 183.042539 
L 330.16725 183.647746 
L 332.380426 184.532793 
L 332.900389 184.466098 
L 333.12704 184.389523 
L 333.380355 184.328425 
L 333.673668 184.286252 
L 334.486944 183.596709 
L 334.96691 183.079672 
L 336.020168 182.08891 
L 337.166753 181.639019 
L 338.539989 180.961198 
L 339.166612 181.444168 
L 339.953222 181.548667 
L 340.859825 181.139738 
L 341.126473 181.050692 
L 342.806353 178.904211 
L 343.126331 178.444387 
L 343.579632 178.066314 
L 343.859612 177.667228 
L 345.29951 174.864401 
L 345.472831 174.908458 
L 346.246109 175.31294 
L 346.712743 175.092159 
L 347.03272 175.058584 
L 347.726004 174.873136 
L 348.019317 174.782167 
L 348.805928 174.981659 
L 349.405885 175.089958 
L 350.93911 176.485269 
L 351.339081 177.111107 
L 351.672391 177.166497 
L 351.965704 177.126433 
L 352.152357 177.019528 
L 353.378937 176.060947 
L 354.085553 175.962599 
L 354.45886 176.122764 
L 354.872164 176.012791 
L 355.058818 175.941944 
L 355.298801 175.630252 
L 356.058747 174.113566 
L 356.312062 174.036499 
L 357.351988 174.273566 
L 357.925281 174.493934 
L 358.298588 174.733448 
L 359.405176 175.260198 
L 359.805148 175.631114 
L 360.631756 175.800142 
L 361.338372 176.064391 
L 361.538358 175.883382 
L 362.16498 175.033535 
L 362.591617 174.69136 
L 362.791602 174.746726 
L 363.351563 175.292556 
L 364.298162 176.091333 
L 364.698134 176.38495 
L 365.151435 176.688902 
L 365.658066 177.296608 
L 366.218026 177.555058 
L 366.657995 176.998175 
L 366.991304 176.511935 
L 367.217955 176.434042 
L 367.351279 176.544382 
L 367.657924 176.694033 
L 368.151222 176.533862 
L 368.657853 176.559423 
L 368.857839 176.666729 
L 369.191148 176.896463 
L 369.737776 176.891399 
L 370.377731 176.954354 
L 370.591049 176.818676 
L 371.444322 176.206142 
L 371.71097 176.242747 
L 372.204268 176.110973 
L 372.870887 175.224377 
L 373.310856 174.971744 
L 373.524174 175.106455 
L 374.00414 175.842728 
L 374.457441 176.408089 
L 375.017402 176.578832 
L 375.364044 176.705483 
L 375.884007 177.043053 
L 376.12399 177.261354 
L 376.40397 177.281211 
L 376.870604 177.353661 
L 377.537223 177.60246 
L 377.710544 177.634738 
L 378.75047 177.445548 
L 378.75047 177.445548 
" clip-path="url(#p39286a1717)" style="fill: none; stroke: #0000ff; stroke-width: 4; stroke-linecap: square"/>
   </g>
   <g id="patch_6">
    <path d="M 266.772414 270.72 
L 384.082759 270.72 
" style="fill: none; stroke: #000000; stroke-width: 3; stroke-linejoin: miter; stroke-linecap: square"/>
   </g>
   <g id="text_3">
    <!-- LAL014 -->
    <g transform="translate(280.671336 63.12) scale(0.24 -0.24)">
     <defs>
      <path id="DejaVuSans-34" d="M 2419 4116 
L 825 1625 
L 2419 1625 
L 2419 4116 
z
M 2253 4666 
L 3047 4666 
L 3047 1625 
L 3713 1625 
L 3713 1100 
L 3047 1100 
L 3047 0 
L 2419 0 
L 2419 1100 
L 313 1100 
L 313 1709 
L 2253 4666 
z
" transform="scale(0.015625)"/>
     </defs>
     <use xlink:href="#DejaVuSans-4c"/>
     <use xlink:href="#DejaVuSans-41" x="57.962891"/>
     <use xlink:href="#DejaVuSans-4c" x="126.371094"/>
     <use xlink:href="#DejaVuSans-30" x="182.083984"/>
     <use xlink:href="#DejaVuSans-31" x="245.707031"/>
     <use xlink:href="#DejaVuSans-34" x="309.330078"/>
    </g>
   </g>
  </g>
  <g id="axes_3">
   <g id="patch_7">
    <path d="M 407.544828 270.72 
L 524.855172 270.72 
L 524.855172 69.12 
L 407.544828 69.12 
z
" style="fill: #ffffff"/>
   </g>
   <g id="matplotlib.axis_5">
    <g id="xtick_5">
     <g id="line2d_15">
      <g>
       <use xlink:href="#m64ab4b2b24" x="412.877116" y="270.72" style="stroke: #000000; stroke-width: 0.8"/>
      </g>
     </g>
    </g>
    <g id="xtick_6">
     <g id="line2d_16">
      <g>
       <use xlink:href="#m64ab4b2b24" x="479.539054" y="270.72" style="stroke: #000000; stroke-width: 0.8"/>
      </g>
     </g>
    </g>
   </g>
   <g id="matplotlib.axis_6">
    <g id="ytick_13"/>
    <g id="ytick_14"/>
    <g id="ytick_15"/>
    <g id="ytick_16"/>
    <g id="ytick_17"/>
    <g id="ytick_18"/>
   </g>
   <g id="line2d_17">
    <path d="M 412.877116 261.556364 
L 413.703724 260.50006 
L 414.583662 259.7262 
L 415.703582 259.045628 
L 417.09015 258.465393 
L 420.689895 257.158214 
L 421.83648 256.770643 
L 422.609759 256.416904 
L 427.582739 253.90845 
L 431.702447 252.732433 
L 437.168726 251.134775 
L 443.528275 250.373452 
L 444.221559 250.416599 
L 445.034835 250.595563 
L 446.021431 250.882636 
L 447.807971 251.927383 
L 448.821233 252.045182 
L 450.541111 252.135788 
L 451.20773 252.387502 
L 453.180924 253.141729 
L 454.060861 253.140926 
L 455.154117 253.184375 
L 456.913992 253.447882 
L 458.233898 253.665244 
L 459.593802 253.69926 
L 461.753649 253.328949 
L 463.246876 252.785201 
L 464.633444 252.323389 
L 465.620041 252.274007 
L 468.17986 252.280086 
L 470.793008 252.135176 
L 472.166243 251.964316 
L 474.966045 252.124223 
L 480.219006 252.245059 
L 483.005475 252.647212 
L 486.898532 253.563536 
L 488.045117 253.625639 
L 493.324742 253.302636 
L 494.844635 253.367838 
L 495.804567 253.268744 
L 497.191135 253.397716 
L 498.044408 253.443907 
L 500.444237 253.079626 
L 502.057456 252.798733 
L 502.790738 252.813421 
L 504.763931 253.240281 
L 507.057102 252.939928 
L 508.177022 253.154448 
L 509.496929 253.356904 
L 510.390199 253.325689 
L 511.083483 253.292313 
L 512.310062 253.166702 
L 514.669895 252.87623 
L 519.042918 252.676996 
L 519.522884 252.721613 
L 519.522884 252.721613 
" clip-path="url(#p740ac06e47)" style="fill: none; stroke: #ff0000; stroke-width: 4; stroke-linecap: square"/>
   </g>
   <g id="line2d_18">
    <path d="M 412.877116 261.556364 
L 413.797051 260.35909 
L 414.783647 259.454004 
L 415.730247 258.869017 
L 416.770173 258.459246 
L 420.036608 257.118362 
L 422.823077 255.590729 
L 423.809674 254.89128 
L 425.662876 253.476629 
L 426.569478 252.735496 
L 427.636069 251.363857 
L 429.169294 249.158735 
L 431.369138 245.965921 
L 432.822368 243.810573 
L 433.515652 242.399282 
L 434.462251 240.482255 
L 435.315524 238.860048 
L 436.448777 236.148814 
L 437.502036 232.381069 
L 438.315311 228.741558 
L 442.701667 206.833195 
L 443.354954 203.63017 
L 444.381548 198.277248 
L 445.754784 189.53915 
L 446.394738 183.587491 
L 448.194611 166.601146 
L 451.701029 137.896836 
L 453.32758 125.107939 
L 453.954202 121.82507 
L 454.874137 118.628986 
L 455.95406 115.444475 
L 457.527282 109.964318 
L 458.007248 108.914622 
L 458.860521 107.274332 
L 459.500475 106.249448 
L 460.553734 105.095377 
L 461.526998 104.220347 
L 462.313609 103.973455 
L 462.886902 104.190851 
L 463.3802 104.508248 
L 464.60678 105.750377 
L 465.406723 106.491388 
L 465.913354 106.72032 
L 466.993277 106.74991 
L 467.579902 107.10274 
L 468.726487 108.026272 
L 469.726417 108.167529 
L 470.499695 108.119887 
L 471.659613 108.690327 
L 473.046181 109.347252 
L 474.366087 109.362819 
L 475.192695 109.025755 
L 476.659258 108.013933 
L 477.125892 107.761379 
L 477.805843 107.427659 
L 479.445727 106.589435 
L 479.885696 106.591842 
L 481.925551 106.035219 
L 482.738827 105.323223 
L 483.87208 103.983001 
L 485.551961 101.447036 
L 486.098588 100.66984 
L 486.578554 100.34325 
L 488.925055 99.298827 
L 489.924984 99.32807 
L 490.484944 99.514781 
L 491.911509 100.266051 
L 492.431473 100.610091 
L 493.258081 100.721021 
L 494.25801 100.389472 
L 494.857967 100.28358 
L 495.631246 100.259729 
L 496.057882 100.14857 
L 497.644436 99.119844 
L 498.497709 98.996878 
L 499.310984 99.182533 
L 500.390908 99.545446 
L 500.857541 99.681817 
L 501.324175 99.846342 
L 502.577419 100.179525 
L 503.670675 99.946329 
L 504.87059 100.223706 
L 505.790525 100.703252 
L 507.030437 101.449901 
L 507.457073 101.348939 
L 508.11036 101.118569 
L 508.563661 101.065285 
L 509.710247 100.833749 
L 511.310133 100.875233 
L 512.616707 100.623102 
L 513.176668 100.49872 
L 513.856619 100.206153 
L 514.283256 100.162757 
L 514.803219 100.394279 
L 515.803148 100.832679 
L 516.563094 101.166808 
L 517.296375 101.58037 
L 519.096248 102.014433 
L 519.522884 102.02678 
L 519.522884 102.02678 
" clip-path="url(#p740ac06e47)" style="fill: none; stroke: #0000ff; stroke-width: 4; stroke-linecap: square"/>
   </g>
   <g id="patch_8">
    <path d="M 407.544828 270.72 
L 524.855172 270.72 
" style="fill: none; stroke: #000000; stroke-width: 3; stroke-linejoin: miter; stroke-linecap: square"/>
   </g>
   <g id="text_4">
    <!-- LAL018 -->
    <g transform="translate(421.44375 63.12) scale(0.24 -0.24)">
     <defs>
      <path id="DejaVuSans-38" d="M 2034 2216 
Q 1584 2216 1326 1975 
Q 1069 1734 1069 1313 
Q 1069 891 1326 650 
Q 1584 409 2034 409 
Q 2484 409 2743 651 
Q 3003 894 3003 1313 
Q 3003 1734 2745 1975 
Q 2488 2216 2034 2216 
z
M 1403 2484 
Q 997 2584 770 2862 
Q 544 3141 544 3541 
Q 544 4100 942 4425 
Q 1341 4750 2034 4750 
Q 2731 4750 3128 4425 
Q 3525 4100 3525 3541 
Q 3525 3141 3298 2862 
Q 3072 2584 2669 2484 
Q 3125 2378 3379 2068 
Q 3634 1759 3634 1313 
Q 3634 634 3220 271 
Q 2806 -91 2034 -91 
Q 1263 -91 848 271 
Q 434 634 434 1313 
Q 434 1759 690 2068 
Q 947 2378 1403 2484 
z
M 1172 3481 
Q 1172 3119 1398 2916 
Q 1625 2713 2034 2713 
Q 2441 2713 2670 2916 
Q 2900 3119 2900 3481 
Q 2900 3844 2670 4047 
Q 2441 4250 2034 4250 
Q 1625 4250 1398 4047 
Q 1172 3844 1172 3481 
z
" transform="scale(0.015625)"/>
     </defs>
     <use xlink:href="#DejaVuSans-4c"/>
     <use xlink:href="#DejaVuSans-41" x="57.962891"/>
     <use xlink:href="#DejaVuSans-4c" x="126.371094"/>
     <use xlink:href="#DejaVuSans-30" x="182.083984"/>
     <use xlink:href="#DejaVuSans-31" x="245.707031"/>
     <use xlink:href="#DejaVuSans-38" x="309.330078"/>
    </g>
   </g>
  </g>
  <g id="axes_4">
   <g id="patch_9">
    <path d="M 548.317241 270.72 
L 665.627586 270.72 
L 665.627586 69.12 
L 548.317241 69.12 
z
" style="fill: #ffffff"/>
   </g>
   <g id="matplotlib.axis_7">
    <g id="xtick_7">
     <g id="line2d_19">
      <g>
       <use xlink:href="#m64ab4b2b24" x="553.64953" y="270.72" style="stroke: #000000; stroke-width: 0.8"/>
      </g>
     </g>
    </g>
    <g id="xtick_8">
     <g id="line2d_20">
      <g>
       <use xlink:href="#m64ab4b2b24" x="620.311468" y="270.72" style="stroke: #000000; stroke-width: 0.8"/>
      </g>
     </g>
    </g>
   </g>
   <g id="matplotlib.axis_8">
    <g id="ytick_19"/>
    <g id="ytick_20"/>
    <g id="ytick_21"/>
    <g id="ytick_22"/>
    <g id="ytick_23"/>
    <g id="ytick_24"/>
   </g>
   <g id="line2d_21">
    <path d="M 553.64953 261.556364 
L 554.369479 261.041283 
L 555.236084 260.70196 
L 556.422666 260.491369 
L 558.449189 260.388688 
L 563.008866 260.43211 
L 570.341679 260.717942 
L 577.314518 260.955481 
L 589.073684 261.210138 
L 621.631374 261.291337 
L 660.295298 261.308589 
L 660.295298 261.308589 
" clip-path="url(#p9c4b0e31eb)" style="fill: none; stroke: #ff0000; stroke-width: 4; stroke-linecap: square"/>
   </g>
   <g id="line2d_22">
    <path d="M 553.64953 261.556364 
L 554.369479 261.040929 
L 555.236084 260.699275 
L 556.435999 260.48225 
L 558.422525 260.379794 
L 563.448835 260.402939 
L 582.607476 260.600061 
L 587.793774 260.422311 
L 591.966812 260.154144 
L 599.872917 259.69418 
L 603.086023 259.665663 
L 611.618751 259.870216 
L 620.964755 259.877216 
L 639.53677 259.655832 
L 649.842706 259.723952 
L 653.615772 259.704564 
L 660.295298 259.815707 
L 660.295298 259.815707 
" clip-path="url(#p9c4b0e31eb)" style="fill: none; stroke: #0000ff; stroke-width: 4; stroke-linecap: square"/>
   </g>
   <g id="patch_10">
    <path d="M 548.317241 270.72 
L 665.627586 270.72 
" style="fill: none; stroke: #000000; stroke-width: 3; stroke-linejoin: miter; stroke-linecap: square"/>
   </g>
   <g id="text_5">
    <!-- DNa01 -->
    <g transform="translate(566.131164 63.12) scale(0.24 -0.24)">
     <defs>
      <path id="DejaVuSans-44" d="M 1259 4147 
L 1259 519 
L 2022 519 
Q 2988 519 3436 956 
Q 3884 1394 3884 2338 
Q 3884 3275 3436 3711 
Q 2988 4147 2022 4147 
L 1259 4147 
z
M 628 4666 
L 1925 4666 
Q 3281 4666 3915 4102 
Q 4550 3538 4550 2338 
Q 4550 1131 3912 565 
Q 3275 0 1925 0 
L 628 0 
L 628 4666 
z
" transform="scale(0.015625)"/>
      <path id="DejaVuSans-4e" d="M 628 4666 
L 1478 4666 
L 3547 763 
L 3547 4666 
L 4159 4666 
L 4159 0 
L 3309 0 
L 1241 3903 
L 1241 0 
L 628 0 
L 628 4666 
z
" transform="scale(0.015625)"/>
     </defs>
     <use xlink:href="#DejaVuSans-44"/>
     <use xlink:href="#DejaVuSans-4e" x="77.001953"/>
     <use xlink:href="#DejaVuSans-61" x="151.806641"/>
     <use xlink:href="#DejaVuSans-30" x="213.085938"/>
     <use xlink:href="#DejaVuSans-31" x="276.708984"/>
    </g>
   </g>
  </g>
  <g id="axes_5">
   <g id="patch_11">
    <path d="M 689.089655 270.72 
L 806.4 270.72 
L 806.4 69.12 
L 689.089655 69.12 
z
" style="fill: #ffffff"/>
   </g>
   <g id="matplotlib.axis_9">
    <g id="xtick_9">
     <g id="line2d_23">
      <g>
       <use xlink:href="#m64ab4b2b24" x="694.421944" y="270.72" style="stroke: #000000; stroke-width: 0.8"/>
      </g>
     </g>
    </g>
    <g id="xtick_10">
     <g id="line2d_24">
      <g>
       <use xlink:href="#m64ab4b2b24" x="761.083881" y="270.72" style="stroke: #000000; stroke-width: 0.8"/>
      </g>
     </g>
    </g>
   </g>
   <g id="matplotlib.axis_10">
    <g id="ytick_25"/>
    <g id="ytick_26"/>
    <g id="ytick_27"/>
    <g id="ytick_28"/>
    <g id="ytick_29"/>
    <g id="ytick_30"/>
   </g>
   <g id="line2d_25">
    <path d="M 694.421944 261.556364 
L 695.395208 260.808142 
L 696.488464 260.247588 
L 698.235006 259.64018 
L 703.78128 258.090065 
L 705.581152 257.337944 
L 707.327695 256.421527 
L 709.687527 255.245911 
L 710.900775 254.782588 
L 718.286917 250.934756 
L 719.100193 250.495052 
L 722.779932 248.891403 
L 724.126503 248.402595 
L 725.219759 247.97645 
L 725.753054 247.923677 
L 726.579662 248.013826 
L 727.539594 248.212936 
L 729.739438 249.522794 
L 730.566046 249.62531 
L 731.765961 249.59188 
L 732.365919 249.705862 
L 734.512433 250.735868 
L 735.419035 250.833518 
L 736.312305 250.851523 
L 737.605547 251.085502 
L 738.45882 251.323582 
L 740.018709 251.688916 
L 741.165294 251.783654 
L 742.551863 251.596914 
L 743.551792 251.293523 
L 744.738374 250.698686 
L 746.058281 249.996584 
L 747.018212 249.789654 
L 748.191463 249.680294 
L 751.484562 249.44708 
L 753.831063 249.107242 
L 755.577605 249.33264 
L 756.137566 249.363187 
L 761.403859 249.191535 
L 762.070478 249.308665 
L 763.230396 249.411374 
L 763.897015 249.611259 
L 766.496831 250.532639 
L 768.790001 251.339153 
L 769.669939 251.40982 
L 771.256493 251.289097 
L 771.843118 251.154963 
L 775.016226 251.096604 
L 776.002823 251.188526 
L 776.736104 251.052649 
L 777.736033 251.009416 
L 779.202596 251.162757 
L 779.842551 251.134811 
L 784.36223 250.236886 
L 785.30883 250.579111 
L 786.14877 250.764547 
L 786.895384 250.612506 
L 788.121963 250.389587 
L 788.961904 250.472625 
L 792.201674 250.98541 
L 793.761563 250.871751 
L 799.21451 250.001277 
L 800.321098 249.969942 
L 801.067712 249.987237 
L 801.067712 249.987237 
" clip-path="url(#p33487f6750)" style="fill: none; stroke: #ff0000; stroke-width: 4; stroke-linecap: square"/>
   </g>
   <g id="line2d_26">
    <path d="M 694.421944 261.556364 
L 695.515199 260.697291 
L 696.555126 260.124575 
L 697.795038 259.682367 
L 701.261458 258.667088 
L 703.234652 257.886616 
L 705.194513 256.83634 
L 707.874323 254.892124 
L 708.580939 254.065961 
L 710.300817 251.597289 
L 713.087286 246.300051 
L 714.193874 243.843535 
L 715.113809 241.061611 
L 717.833616 231.052707 
L 718.366912 227.874072 
L 719.4735 219.721405 
L 720.566756 208.887549 
L 723.739864 174.206976 
L 724.926446 160.490039 
L 727.592924 131.636263 
L 729.552785 108.895007 
L 730.459387 101.731772 
L 731.87262 92.923873 
L 732.779223 88.874304 
L 733.792484 85.436392 
L 734.60576 83.391297 
L 735.352373 82.053707 
L 736.125652 81.140371 
L 736.925595 80.528345 
L 738.432155 79.67399 
L 739.645402 79.23778 
L 741.551934 78.865994 
L 744.04509 78.661844 
L 746.218269 78.713215 
L 750.617957 78.872564 
L 756.657529 78.983834 
L 764.976938 78.639482 
L 771.01651 78.305265 
L 782.162386 78.29893 
L 794.308191 78.36932 
L 801.067712 78.416704 
L 801.067712 78.416704 
" clip-path="url(#p33487f6750)" style="fill: none; stroke: #0000ff; stroke-width: 4; stroke-linecap: square"/>
   </g>
   <g id="patch_12">
    <path d="M 689.089655 270.72 
L 806.4 270.72 
" style="fill: none; stroke: #000000; stroke-width: 3; stroke-linejoin: miter; stroke-linecap: square"/>
   </g>
   <g id="text_6">
    <!-- DNa02 -->
    <g transform="translate(706.903578 63.12) scale(0.24 -0.24)">
     <defs>
      <path id="DejaVuSans-32" d="M 1228 531 
L 3431 531 
L 3431 0 
L 469 0 
L 469 531 
Q 828 903 1448 1529 
Q 2069 2156 2228 2338 
Q 2531 2678 2651 2914 
Q 2772 3150 2772 3378 
Q 2772 3750 2511 3984 
Q 2250 4219 1831 4219 
Q 1534 4219 1204 4116 
Q 875 4013 500 3803 
L 500 4441 
Q 881 4594 1212 4672 
Q 1544 4750 1819 4750 
Q 2544 4750 2975 4387 
Q 3406 4025 3406 3419 
Q 3406 3131 3298 2873 
Q 3191 2616 2906 2266 
Q 2828 2175 2409 1742 
Q 1991 1309 1228 531 
z
" transform="scale(0.015625)"/>
     </defs>
     <use xlink:href="#DejaVuSans-44"/>
     <use xlink:href="#DejaVuSans-4e" x="77.001953"/>
     <use xlink:href="#DejaVuSans-61" x="151.806641"/>
     <use xlink:href="#DejaVuSans-30" x="213.085938"/>
     <use xlink:href="#DejaVuSans-32" x="276.708984"/>
    </g>
   </g>
  </g>
  <g id="axes_6">
   <g id="patch_13">
    <path d="M 126 512.64 
L 243.310345 512.64 
L 243.310345 311.04 
L 126 311.04 
z
" style="fill: #ffffff"/>
   </g>
   <g id="matplotlib.axis_11">
    <g id="xtick_11">
     <g id="line2d_27">
      <g>
       <use xlink:href="#m64ab4b2b24" x="131.332288" y="512.64" style="stroke: #000000; stroke-width: 0.8"/>
      </g>
     </g>
     <g id="text_7">
      <!-- 0 -->
      <g transform="translate(126.242288 531.7975) scale(0.16 -0.16)">
       <use xlink:href="#DejaVuSans-30"/>
      </g>
     </g>
    </g>
    <g id="xtick_12">
     <g id="line2d_28">
      <g>
       <use xlink:href="#m64ab4b2b24" x="197.994226" y="512.64" style="stroke: #000000; stroke-width: 0.8"/>
      </g>
     </g>
     <g id="text_8">
      <!-- 500 -->
      <g transform="translate(182.724226 531.7975) scale(0.16 -0.16)">
       <defs>
        <path id="DejaVuSans-35" d="M 691 4666 
L 3169 4666 
L 3169 4134 
L 1269 4134 
L 1269 2991 
Q 1406 3038 1543 3061 
Q 1681 3084 1819 3084 
Q 2600 3084 3056 2656 
Q 3513 2228 3513 1497 
Q 3513 744 3044 326 
Q 2575 -91 1722 -91 
Q 1428 -91 1123 -41 
Q 819 9 494 109 
L 494 744 
Q 775 591 1075 516 
Q 1375 441 1709 441 
Q 2250 441 2565 725 
Q 2881 1009 2881 1497 
Q 2881 1984 2565 2268 
Q 2250 2553 1709 2553 
Q 1456 2553 1204 2497 
Q 953 2441 691 2322 
L 691 4666 
z
" transform="scale(0.015625)"/>
       </defs>
       <use xlink:href="#DejaVuSans-35"/>
       <use xlink:href="#DejaVuSans-30" x="63.623047"/>
       <use xlink:href="#DejaVuSans-30" x="127.246094"/>
      </g>
     </g>
    </g>
    <g id="text_9">
     <!-- Time (ms) -->
     <g transform="translate(129.216891 555.841563) scale(0.22 -0.22)">
      <defs>
       <path id="DejaVuSans-54" d="M -19 4666 
L 3928 4666 
L 3928 4134 
L 2272 4134 
L 2272 0 
L 1638 0 
L 1638 4134 
L -19 4134 
L -19 4666 
z
" transform="scale(0.015625)"/>
       <path id="DejaVuSans-6d" d="M 3328 2828 
Q 3544 3216 3844 3400 
Q 4144 3584 4550 3584 
Q 5097 3584 5394 3201 
Q 5691 2819 5691 2113 
L 5691 0 
L 5113 0 
L 5113 2094 
Q 5113 2597 4934 2840 
Q 4756 3084 4391 3084 
Q 3944 3084 3684 2787 
Q 3425 2491 3425 1978 
L 3425 0 
L 2847 0 
L 2847 2094 
Q 2847 2600 2669 2842 
Q 2491 3084 2119 3084 
Q 1678 3084 1418 2786 
Q 1159 2488 1159 1978 
L 1159 0 
L 581 0 
L 581 3500 
L 1159 3500 
L 1159 2956 
Q 1356 3278 1631 3431 
Q 1906 3584 2284 3584 
Q 2666 3584 2933 3390 
Q 3200 3197 3328 2828 
z
" transform="scale(0.015625)"/>
       <path id="DejaVuSans-28" d="M 1984 4856 
Q 1566 4138 1362 3434 
Q 1159 2731 1159 2009 
Q 1159 1288 1364 580 
Q 1569 -128 1984 -844 
L 1484 -844 
Q 1016 -109 783 600 
Q 550 1309 550 2009 
Q 550 2706 781 3412 
Q 1013 4119 1484 4856 
L 1984 4856 
z
" transform="scale(0.015625)"/>
       <path id="DejaVuSans-73" d="M 2834 3397 
L 2834 2853 
Q 2591 2978 2328 3040 
Q 2066 3103 1784 3103 
Q 1356 3103 1142 2972 
Q 928 2841 928 2578 
Q 928 2378 1081 2264 
Q 1234 2150 1697 2047 
L 1894 2003 
Q 2506 1872 2764 1633 
Q 3022 1394 3022 966 
Q 3022 478 2636 193 
Q 2250 -91 1575 -91 
Q 1294 -91 989 -36 
Q 684 19 347 128 
L 347 722 
Q 666 556 975 473 
Q 1284 391 1588 391 
Q 1994 391 2212 530 
Q 2431 669 2431 922 
Q 2431 1156 2273 1281 
Q 2116 1406 1581 1522 
L 1381 1569 
Q 847 1681 609 1914 
Q 372 2147 372 2553 
Q 372 3047 722 3315 
Q 1072 3584 1716 3584 
Q 2034 3584 2315 3537 
Q 2597 3491 2834 3397 
z
" transform="scale(0.015625)"/>
       <path id="DejaVuSans-29" d="M 513 4856 
L 1013 4856 
Q 1481 4119 1714 3412 
Q 1947 2706 1947 2009 
Q 1947 1309 1714 600 
Q 1481 -109 1013 -844 
L 513 -844 
Q 928 -128 1133 580 
Q 1338 1288 1338 2009 
Q 1338 2731 1133 3434 
Q 928 4138 513 4856 
z
" transform="scale(0.015625)"/>
      </defs>
      <use xlink:href="#DejaVuSans-54"/>
      <use xlink:href="#DejaVuSans-69" x="57.958984"/>
      <use xlink:href="#DejaVuSans-6d" x="85.742188"/>
      <use xlink:href="#DejaVuSans-65" x="183.154297"/>
      <use xlink:href="#DejaVuSans-20" x="244.677734"/>
      <use xlink:href="#DejaVuSans-28" x="276.464844"/>
      <use xlink:href="#DejaVuSans-6d" x="315.478516"/>
      <use xlink:href="#DejaVuSans-73" x="412.890625"/>
      <use xlink:href="#DejaVuSans-29" x="464.990234"/>
     </g>
    </g>
   </g>
   <g id="matplotlib.axis_12">
    <g id="ytick_31">
     <g id="line2d_29">
      <g>
       <use xlink:href="#m3c8d80b913" x="126" y="503.476364" style="stroke: #000000; stroke-width: 0.8"/>
      </g>
     </g>
    </g>
    <g id="ytick_32">
     <g id="line2d_30">
      <g>
       <use xlink:href="#m3c8d80b913" x="126" y="466.67306" style="stroke: #000000; stroke-width: 0.8"/>
      </g>
     </g>
    </g>
    <g id="ytick_33">
     <g id="line2d_31">
      <g>
       <use xlink:href="#m3c8d80b913" x="126" y="429.869756" style="stroke: #000000; stroke-width: 0.8"/>
      </g>
     </g>
    </g>
    <g id="ytick_34">
     <g id="line2d_32">
      <g>
       <use xlink:href="#m3c8d80b913" x="126" y="393.066452" style="stroke: #000000; stroke-width: 0.8"/>
      </g>
     </g>
    </g>
    <g id="ytick_35">
     <g id="line2d_33">
      <g>
       <use xlink:href="#m3c8d80b913" x="126" y="356.263148" style="stroke: #000000; stroke-width: 0.8"/>
      </g>
     </g>
    </g>
    <g id="ytick_36">
     <g id="line2d_34">
      <g>
       <use xlink:href="#m3c8d80b913" x="126" y="319.459844" style="stroke: #000000; stroke-width: 0.8"/>
      </g>
     </g>
    </g>
    <g id="text_10">
     <!-- firing rate -->
     <g transform="translate(110.424688 466.140469) rotate(-90) scale(0.22 -0.22)">
      <use xlink:href="#DejaVuSans-66"/>
      <use xlink:href="#DejaVuSans-69" x="35.205078"/>
      <use xlink:href="#DejaVuSans-72" x="62.988281"/>
      <use xlink:href="#DejaVuSans-69" x="104.101562"/>
      <use xlink:href="#DejaVuSans-6e" x="131.884766"/>
      <use xlink:href="#DejaVuSans-67" x="195.263672"/>
      <use xlink:href="#DejaVuSans-20" x="258.740234"/>
      <use xlink:href="#DejaVuSans-72" x="290.527344"/>
      <use xlink:href="#DejaVuSans-61" x="331.640625"/>
      <use xlink:href="#DejaVuSans-74" x="392.919922"/>
      <use xlink:href="#DejaVuSans-65" x="432.128906"/>
     </g>
    </g>
   </g>
   <g id="line2d_35">
    <path d="M 131.332288 503.476364 
L 133.052166 502.03697 
L 135.25201 500.514073 
L 136.185277 499.951942 
L 138.091809 498.436737 
L 139.011744 497.45395 
L 139.851684 496.53159 
L 140.504971 495.884365 
L 142.478164 492.649891 
L 143.584753 490.437982 
L 144.664676 488.051815 
L 146.131239 485.181219 
L 147.224494 483.852506 
L 147.664463 482.766434 
L 148.517736 480.742222 
L 149.677654 478.319674 
L 150.264279 477.071925 
L 150.797574 476.254006 
L 151.797503 474.30509 
L 152.637444 472.444453 
L 153.157407 471.374856 
L 153.917353 470.174207 
L 154.757293 468.308962 
L 155.18393 467.205519 
L 155.703893 466.017314 
L 156.823813 464.13122 
L 158.597021 459.985696 
L 160.290234 457.295497 
L 160.516885 456.868855 
L 161.823459 454.161401 
L 162.103439 453.920844 
L 162.423416 453.70235 
L 162.623402 453.851352 
L 162.996709 454.186044 
L 163.343351 454.075145 
L 163.943308 453.773725 
L 164.156627 453.698195 
L 164.476604 453.980566 
L 165.143223 454.960409 
L 165.316544 455.015959 
L 165.836507 454.983208 
L 167.516388 453.560132 
L 168.076348 452.874866 
L 168.356329 452.477509 
L 168.916289 451.872167 
L 169.142939 451.844856 
L 170.276192 452.76823 
L 170.609502 453.006526 
L 170.82282 453.164915 
L 171.169462 452.932941 
L 171.382781 452.645614 
L 171.99607 451.617861 
L 172.66269 450.701993 
L 172.916005 450.690236 
L 173.142656 450.88674 
L 173.50263 451.64534 
L 173.822608 452.019738 
L 174.409233 452.374371 
L 175.235841 452.508338 
L 175.449159 452.550641 
L 176.249102 452.316706 
L 177.875653 452.941375 
L 178.368952 452.715447 
L 178.568937 452.631071 
L 178.782256 452.397923 
L 179.022239 452.256491 
L 179.768852 451.938533 
L 180.355477 450.903851 
L 181.395404 449.064209 
L 181.555392 448.69268 
L 181.888702 448.202962 
L 182.128685 447.980919 
L 182.901963 447.199167 
L 183.141946 447.319223 
L 183.60858 447.579527 
L 183.901893 447.789833 
L 184.275199 448.102985 
L 184.515182 447.937245 
L 185.11514 447.409573 
L 185.408452 447.388282 
L 185.928415 447.511522 
L 186.168398 447.288198 
L 186.541705 447.162313 
L 186.808353 447.351157 
L 187.035004 447.419958 
L 187.314984 447.462006 
L 187.554967 447.497978 
L 187.941606 447.477254 
L 188.208254 447.553009 
L 188.754882 447.450575 
L 188.9682 447.543666 
L 189.288177 447.203477 
L 189.488163 446.894026 
L 189.741478 446.662753 
L 190.288106 446.653564 
L 191.181376 447.736355 
L 191.87466 448.330714 
L 192.421288 448.491574 
L 192.607942 448.577241 
L 193.301226 448.009694 
L 193.541209 447.813003 
L 193.927848 447.466025 
L 194.367817 446.955174 
L 194.6078 446.873085 
L 194.727791 446.978848 
L 195.021104 447.18252 
L 195.034436 447.169717 
L 195.927706 446.437523 
L 196.647655 446.068689 
L 196.9543 446.016089 
L 197.194283 445.869811 
L 197.700914 445.568501 
L 197.860902 445.682544 
L 198.807502 446.997407 
L 199.087482 446.811194 
L 199.340797 446.713394 
L 199.540783 446.828237 
L 199.754101 446.877743 
L 200.367391 447.1258 
L 200.780695 447.636949 
L 201.327323 448.211624 
L 201.793957 448.736544 
L 202.167263 448.897286 
L 202.473908 448.778598 
L 202.887212 448.925098 
L 203.460505 449.203158 
L 203.833812 448.977972 
L 204.833741 448.583897 
L 205.687014 449.472276 
L 205.980326 449.360156 
L 206.820267 448.765618 
L 207.300233 448.7112 
L 207.500218 448.484586 
L 207.980184 447.771984 
L 208.273497 447.134559 
L 208.51348 446.838031 
L 208.806792 446.917681 
L 209.913381 447.946911 
L 210.153364 447.682258 
L 210.380014 447.559355 
L 210.659994 447.636596 
L 211.619926 448.459382 
L 212.273213 449.117364 
L 212.939833 449.155208 
L 213.193148 448.86617 
L 213.713111 448.150305 
L 213.953094 448.153731 
L 214.953023 448.36133 
L 215.166341 448.394935 
L 215.592978 448.735136 
L 215.806296 448.808838 
L 216.152938 448.733678 
L 216.459583 448.649552 
L 216.672901 448.256896 
L 217.05954 447.825991 
L 217.299523 447.698025 
L 217.592836 447.478017 
L 219.45937 446.5922 
L 219.699353 446.367138 
L 220.9126 445.027648 
L 221.19258 445.094019 
L 221.752541 446.041449 
L 222.072518 446.510526 
L 222.859129 447.11735 
L 223.232436 446.686581 
L 223.859058 445.881853 
L 224.379021 445.699934 
L 224.792325 445.926342 
L 226.752186 448.143003 
L 226.952172 448.294815 
L 227.818777 448.867709 
L 228.378737 448.97985 
L 228.538726 449.006641 
L 228.552058 448.987835 
L 229.085354 448.372892 
L 229.098686 448.383145 
L 229.805303 448.662974 
L 230.031953 448.64398 
L 230.258604 448.506464 
L 232.818422 445.825143 
L 233.671695 445.732754 
L 233.898346 445.728846 
L 234.164994 445.634628 
L 234.87161 445.028091 
L 235.031599 445.003701 
L 235.351576 445.115945 
L 235.631556 445.306767 
L 236.231514 445.886775 
L 236.391502 445.877734 
L 237.298105 445.408069 
L 237.538088 445.363924 
L 237.818068 445.567686 
L 237.978056 445.540933 
L 237.978056 445.540933 
" clip-path="url(#p0aca88cc70)" style="fill: none; stroke: #ff0000; stroke-width: 4; stroke-linecap: square"/>
   </g>
   <g id="line2d_36">
    <path d="M 131.332288 503.476364 
L 134.385405 500.805477 
L 136.505255 499.36777 
L 137.638508 498.367728 
L 138.798425 496.929985 
L 139.958343 495.297461 
L 141.464903 492.641499 
L 142.278179 490.71611 
L 143.144784 488.616523 
L 144.011389 486.603518 
L 144.944656 484.22075 
L 148.451074 471.449762 
L 149.850975 467.588932 
L 151.090887 464.483308 
L 152.850762 458.90314 
L 153.090745 458.545994 
L 153.930685 456.393596 
L 154.890617 453.388919 
L 155.703893 449.959038 
L 156.97047 445.368017 
L 157.503765 443.73749 
L 158.050393 442.478254 
L 159.116984 440.733588 
L 159.756939 439.073738 
L 161.010183 435.88923 
L 161.503481 435.050113 
L 161.956783 434.818548 
L 162.396751 433.979403 
L 162.783391 433.279022 
L 163.183362 432.800279 
L 163.716658 432.153085 
L 164.263286 430.196965 
L 165.396539 426.618355 
L 165.876505 426.408966 
L 166.023161 426.536767 
L 166.529792 427.043056 
L 166.649783 426.995861 
L 167.329735 426.517536 
L 167.543053 426.195511 
L 167.903027 424.866537 
L 168.676306 421.633049 
L 169.942883 419.17837 
L 170.382852 417.700116 
L 171.276122 415.368721 
L 172.009403 414.492695 
L 172.249386 414.674291 
L 172.60936 415.18692 
L 173.155988 415.171726 
L 173.822608 415.668578 
L 174.089255 415.12266 
L 174.555889 413.284559 
L 174.862534 412.165525 
L 175.502488 410.844893 
L 176.062449 410.228486 
L 176.209105 410.264979 
L 176.755733 411.099779 
L 177.582341 410.780428 
L 177.862321 410.921043 
L 178.142301 411.004391 
L 178.488943 411.189742 
L 179.008906 410.875096 
L 179.848847 410.202612 
L 180.302148 410.191425 
L 180.608793 410.003043 
L 182.022026 410.552574 
L 182.208679 410.652489 
L 182.66198 410.847226 
L 183.088617 410.812822 
L 183.475256 411.039662 
L 183.861895 410.762675 
L 184.288532 410.57804 
L 184.608509 409.855312 
L 184.968484 409.246129 
L 184.995148 409.270827 
L 185.315126 409.484525 
L 185.941748 410.161682 
L 186.741691 411.400554 
L 186.981674 411.440663 
L 187.541634 411.177639 
L 187.808282 411.163293 
L 188.0216 410.951464 
L 188.274916 410.70442 
L 188.848208 410.57846 
L 189.368171 411.506929 
L 189.381504 411.500686 
L 189.874802 411.46943 
L 190.074788 411.47453 
L 190.914728 412.061458 
L 191.474689 412.058221 
L 192.114643 411.897104 
L 192.301297 411.908816 
L 192.54128 411.874764 
L 192.861257 411.962068 
L 195.087766 409.301548 
L 195.354413 409.250459 
L 195.941038 409.398765 
L 197.620919 408.042416 
L 197.767576 408.181598 
L 198.40753 408.880279 
L 198.527522 409.045995 
L 198.754172 409.173348 
L 199.327465 408.957402 
L 199.674107 408.689839 
L 200.047414 408.540998 
L 200.274064 408.582311 
L 200.47405 408.3149 
L 201.08734 407.630912 
L 201.313991 407.526365 
L 201.513976 407.51192 
L 201.780624 407.409585 
L 201.953945 407.215355 
L 202.473908 406.588452 
L 202.953874 406.178889 
L 203.420508 405.131426 
L 204.167122 403.142088 
L 204.527096 402.88395 
L 204.66042 402.998914 
L 205.447031 404.150089 
L 206.926926 403.829756 
L 207.300233 403.705165 
L 207.926855 403.938368 
L 208.486815 403.578878 
L 208.660136 403.611578 
L 210.113366 404.991107 
L 210.619997 405.941064 
L 210.846648 405.949358 
L 212.64652 404.86399 
L 212.939833 404.900729 
L 213.513125 405.403055 
L 213.686446 405.366134 
L 214.046421 405.090193 
L 214.353066 404.972613 
L 214.553051 404.574836 
L 215.432989 402.936637 
L 215.646307 403.116523 
L 215.992949 403.304799 
L 216.192935 403.452004 
L 216.49958 403.640754 
L 216.899552 403.784346 
L 217.05954 403.868927 
L 217.792822 404.330231 
L 218.23279 404.313503 
L 218.686092 404.569706 
L 218.952739 404.756407 
L 219.219387 404.535687 
L 219.486035 404.314139 
L 219.939336 404.216971 
L 220.139322 404.308019 
L 220.325975 404.300099 
L 220.672617 403.772165 
L 220.992595 402.776315 
L 221.285907 402.176472 
L 221.699211 401.682048 
L 221.8592 401.724972 
L 222.019189 401.956522 
L 222.579149 403.099273 
L 223.992382 404.883179 
L 224.232365 404.872658 
L 224.805658 405.503062 
L 224.965646 405.581569 
L 225.245626 405.760605 
L 225.405615 405.625186 
L 225.858916 404.847255 
L 226.192226 404.24828 
L 226.392212 404.197038 
L 226.525536 404.354409 
L 226.858845 404.920209 
L 227.738783 405.099154 
L 228.11209 405.45459 
L 228.445399 405.83004 
L 228.912033 405.931343 
L 229.258675 406.116138 
L 230.17861 405.58377 
L 230.498587 405.184854 
L 230.525252 405.204123 
L 230.938556 405.362347 
L 231.405189 405.086729 
L 232.098474 403.728335 
L 232.498445 403.340514 
L 232.645101 403.41417 
L 232.845087 403.728548 
L 233.485042 404.779445 
L 233.658363 404.828797 
L 233.871681 404.80147 
L 234.138329 404.779743 
L 234.378312 404.619153 
L 234.64496 404.584884 
L 235.031599 404.6397 
L 235.498232 404.983903 
L 236.018195 404.872948 
L 236.244846 404.824276 
L 236.431499 404.810407 
L 236.951463 405.208791 
L 237.484758 404.885747 
L 237.751406 404.587374 
L 237.978056 404.568966 
L 237.978056 404.568966 
" clip-path="url(#p0aca88cc70)" style="fill: none; stroke: #0000ff; stroke-width: 4; stroke-linecap: square"/>
   </g>
   <g id="patch_14">
    <path d="M 126 512.64 
L 126 311.04 
" style="fill: none; stroke: #000000; stroke-width: 3; stroke-linejoin: miter; stroke-linecap: square"/>
   </g>
   <g id="patch_15">
    <path d="M 126 512.64 
L 243.310345 512.64 
" style="fill: none; stroke: #000000; stroke-width: 3; stroke-linejoin: miter; stroke-linecap: square"/>
   </g>
   <g id="text_11">
    <!-- LAL040 -->
    <g transform="translate(139.898922 305.04) scale(0.24 -0.24)">
     <use xlink:href="#DejaVuSans-4c"/>
     <use xlink:href="#DejaVuSans-41" x="57.962891"/>
     <use xlink:href="#DejaVuSans-4c" x="126.371094"/>
     <use xlink:href="#DejaVuSans-30" x="182.083984"/>
     <use xlink:href="#DejaVuSans-34" x="245.707031"/>
     <use xlink:href="#DejaVuSans-30" x="309.330078"/>
    </g>
   </g>
  </g>
  <g id="axes_7">
   <g id="patch_16">
    <path d="M 266.772414 512.64 
L 384.082759 512.64 
L 384.082759 311.04 
L 266.772414 311.04 
z
" style="fill: #ffffff"/>
   </g>
   <g id="matplotlib.axis_13">
    <g id="xtick_13">
     <g id="line2d_37">
      <g>
       <use xlink:href="#m64ab4b2b24" x="272.104702" y="512.64" style="stroke: #000000; stroke-width: 0.8"/>
      </g>
     </g>
    </g>
    <g id="xtick_14">
     <g id="line2d_38">
      <g>
       <use xlink:href="#m64ab4b2b24" x="338.76664" y="512.64" style="stroke: #000000; stroke-width: 0.8"/>
      </g>
     </g>
    </g>
   </g>
   <g id="matplotlib.axis_14">
    <g id="ytick_37"/>
    <g id="ytick_38"/>
    <g id="ytick_39"/>
    <g id="ytick_40"/>
    <g id="ytick_41"/>
    <g id="ytick_42"/>
   </g>
   <g id="line2d_39">
    <path d="M 272.104702 503.476364 
L 273.064634 502.737042 
L 274.064563 502.237603 
L 275.691114 501.717966 
L 277.304333 501.40145 
L 286.383689 499.873803 
L 287.716928 500.04159 
L 289.57013 500.216935 
L 301.062648 501.303056 
L 308.822098 501.993517 
L 311.435245 502.253265 
L 313.288447 502.345309 
L 317.408155 502.460251 
L 321.56786 502.38604 
L 328.607361 502.303546 
L 340.753166 502.370697 
L 345.446166 502.54004 
L 348.432621 502.547874 
L 353.418934 502.510899 
L 360.471767 502.476745 
L 367.444606 502.509375 
L 371.37766 502.478569 
L 377.497226 502.465501 
L 378.75047 502.469511 
L 378.75047 502.469511 
" clip-path="url(#pe3e65415b8)" style="fill: none; stroke: #ff0000; stroke-width: 4; stroke-linecap: square"/>
   </g>
   <g id="line2d_40">
    <path d="M 272.104702 503.476364 
L 273.21129 502.60466 
L 274.197887 502.081839 
L 275.411134 501.691736 
L 280.97074 500.334431 
L 286.503681 498.67283 
L 290.290079 497.353554 
L 292.383264 496.87899 
L 293.689838 496.538072 
L 294.569775 496.358512 
L 296.089667 495.784815 
L 299.329438 494.133112 
L 300.129381 493.756295 
L 303.52914 491.539785 
L 304.635728 490.267448 
L 305.182356 489.270488 
L 305.928969 487.292389 
L 307.115552 484.166967 
L 308.382129 481.07378 
L 308.955421 479.157443 
L 309.755365 476.718665 
L 310.608637 473.912428 
L 311.528572 469.54548 
L 312.368513 465.552424 
L 312.981802 463.513661 
L 313.781746 462.117132 
L 314.688348 460.361621 
L 315.221644 458.489086 
L 316.128246 454.966413 
L 316.968186 452.549059 
L 318.101439 450.228897 
L 318.621402 449.223731 
L 319.034706 448.665596 
L 320.274618 447.278664 
L 320.554599 447.074058 
L 320.914573 447.124098 
L 321.487866 447.426772 
L 322.101156 448.515575 
L 322.861102 450.034706 
L 324.221005 452.896832 
L 324.900957 453.46864 
L 325.127607 453.483236 
L 325.727565 453.243812 
L 326.087539 453.535626 
L 327.127466 454.68212 
L 327.620764 455.156492 
L 327.927409 455.171461 
L 328.38071 455.220617 
L 328.754017 455.194357 
L 329.233983 454.989261 
L 329.593957 454.956151 
L 329.900602 455.240389 
L 331.660477 456.54474 
L 332.327097 456.550596 
L 332.887057 456.276231 
L 333.140372 456.136531 
L 333.513679 455.951711 
L 333.886986 455.767463 
L 336.393475 454.745178 
L 336.753449 454.754016 
L 338.606651 454.583421 
L 338.979958 454.794226 
L 339.966555 454.410068 
L 341.246464 453.58857 
L 342.099737 452.130087 
L 344.499567 447.060284 
L 345.179518 445.56155 
L 345.472831 445.334618 
L 346.13945 445.124463 
L 347.259371 444.138067 
L 348.352627 443.991732 
L 348.779263 444.212526 
L 349.09924 444.492223 
L 350.192496 445.788175 
L 350.872448 446.174471 
L 351.579064 446.975993 
L 352.099028 446.965143 
L 352.658988 446.481161 
L 353.125621 445.864689 
L 353.685582 445.276566 
L 354.058888 445.132615 
L 355.152144 445.321329 
L 355.35213 445.075339 
L 356.338727 443.750647 
L 357.405318 443.48172 
L 357.645301 443.581291 
L 358.205261 444.024367 
L 360.671753 446.477774 
L 361.578355 447.543554 
L 362.49829 447.351243 
L 362.911594 447.235763 
L 363.484886 447.217624 
L 363.871526 447.209245 
L 364.351492 447.507335 
L 365.338088 448.64502 
L 365.818054 449.184044 
L 366.124699 449.329415 
L 366.484674 449.068264 
L 366.777986 448.532474 
L 367.164625 448.036933 
L 367.497935 447.883363 
L 367.75125 447.633859 
L 368.231216 447.107407 
L 368.884503 446.646439 
L 369.231146 446.558296 
L 369.617785 446.344154 
L 370.044421 446.469087 
L 370.751038 446.162934 
L 371.390992 445.769035 
L 372.404254 446.03148 
L 372.737563 445.926081 
L 373.310856 446.061733 
L 373.590836 446.425821 
L 374.590765 448.050995 
L 375.537365 448.859152 
L 375.870675 449.308619 
L 376.190652 449.693647 
L 376.710615 449.90908 
L 377.137251 449.918649 
L 377.390567 450.02805 
L 377.843868 450.192095 
L 378.75047 450.335286 
L 378.75047 450.335286 
" clip-path="url(#pe3e65415b8)" style="fill: none; stroke: #0000ff; stroke-width: 4; stroke-linecap: square"/>
   </g>
   <g id="patch_17">
    <path d="M 266.772414 512.64 
L 384.082759 512.64 
" style="fill: none; stroke: #000000; stroke-width: 3; stroke-linejoin: miter; stroke-linecap: square"/>
   </g>
   <g id="text_12">
    <!-- LAL046 -->
    <g transform="translate(280.671336 305.04) scale(0.24 -0.24)">
     <defs>
      <path id="DejaVuSans-36" d="M 2113 2584 
Q 1688 2584 1439 2293 
Q 1191 2003 1191 1497 
Q 1191 994 1439 701 
Q 1688 409 2113 409 
Q 2538 409 2786 701 
Q 3034 994 3034 1497 
Q 3034 2003 2786 2293 
Q 2538 2584 2113 2584 
z
M 3366 4563 
L 3366 3988 
Q 3128 4100 2886 4159 
Q 2644 4219 2406 4219 
Q 1781 4219 1451 3797 
Q 1122 3375 1075 2522 
Q 1259 2794 1537 2939 
Q 1816 3084 2150 3084 
Q 2853 3084 3261 2657 
Q 3669 2231 3669 1497 
Q 3669 778 3244 343 
Q 2819 -91 2113 -91 
Q 1303 -91 875 529 
Q 447 1150 447 2328 
Q 447 3434 972 4092 
Q 1497 4750 2381 4750 
Q 2619 4750 2861 4703 
Q 3103 4656 3366 4563 
z
" transform="scale(0.015625)"/>
     </defs>
     <use xlink:href="#DejaVuSans-4c"/>
     <use xlink:href="#DejaVuSans-41" x="57.962891"/>
     <use xlink:href="#DejaVuSans-4c" x="126.371094"/>
     <use xlink:href="#DejaVuSans-30" x="182.083984"/>
     <use xlink:href="#DejaVuSans-34" x="245.707031"/>
     <use xlink:href="#DejaVuSans-36" x="309.330078"/>
    </g>
   </g>
  </g>
  <g id="axes_8">
   <g id="patch_18">
    <path d="M 407.544828 512.64 
L 524.855172 512.64 
L 524.855172 311.04 
L 407.544828 311.04 
z
" style="fill: #ffffff"/>
   </g>
   <g id="matplotlib.axis_15">
    <g id="xtick_15">
     <g id="line2d_41">
      <g>
       <use xlink:href="#m64ab4b2b24" x="412.877116" y="512.64" style="stroke: #000000; stroke-width: 0.8"/>
      </g>
     </g>
    </g>
    <g id="xtick_16">
     <g id="line2d_42">
      <g>
       <use xlink:href="#m64ab4b2b24" x="479.539054" y="512.64" style="stroke: #000000; stroke-width: 0.8"/>
      </g>
     </g>
    </g>
   </g>
   <g id="matplotlib.axis_16">
    <g id="ytick_43"/>
    <g id="ytick_44"/>
    <g id="ytick_45"/>
    <g id="ytick_46"/>
    <g id="ytick_47"/>
    <g id="ytick_48"/>
   </g>
   <g id="line2d_43">
    <path d="M 412.877116 503.476364 
L 418.076747 502.968234 
L 420.223262 502.583319 
L 422.596427 501.879269 
L 425.089583 500.552823 
L 427.742728 498.667289 
L 428.889313 498.099294 
L 435.942146 491.134833 
L 436.848749 489.885667 
L 437.262053 489.392386 
L 438.275314 488.426502 
L 439.208581 486.834496 
L 439.581888 486.410069 
L 440.488491 485.146718 
L 440.955124 484.635762 
L 442.728332 482.162986 
L 443.22163 481.414607 
L 443.941579 480.932981 
L 444.221559 481.108425 
L 444.501539 481.298432 
L 444.901511 481.15991 
L 445.928105 480.89552 
L 446.381406 481.343189 
L 446.808042 481.636978 
L 447.554656 481.39006 
L 449.687838 479.360726 
L 450.181136 478.780526 
L 450.741097 478.438467 
L 451.234395 478.783074 
L 451.661031 478.847159 
L 452.140997 478.931379 
L 452.367648 479.000247 
L 452.754287 478.631197 
L 454.434168 476.12514 
L 454.687483 476.229619 
L 455.020793 476.735536 
L 455.300773 476.963065 
L 455.847401 477.156138 
L 456.127381 477.057458 
L 456.340699 477.042034 
L 456.767336 477.04594 
L 456.993986 477.02731 
L 457.820594 476.596529 
L 459.393816 476.708799 
L 459.833785 476.39455 
L 460.100433 476.262186 
L 460.353748 475.970909 
L 460.620396 475.824437 
L 461.207021 475.57976 
L 461.36701 475.362377 
L 461.966967 474.309558 
L 462.753578 472.94061 
L 463.193547 472.177735 
L 463.446862 471.915344 
L 463.620183 471.789054 
L 464.460123 471.072 
L 464.83343 471.294036 
L 465.913354 472.043787 
L 466.100007 471.886982 
L 466.406652 471.580244 
L 466.873286 471.442704 
L 467.646564 471.457184 
L 467.966541 471.233266 
L 468.273186 471.430451 
L 468.633161 471.557507 
L 468.833147 471.599412 
L 469.07313 471.674467 
L 469.513098 471.685649 
L 469.753081 471.74848 
L 470.299709 471.664775 
L 470.513027 471.754169 
L 470.886334 471.392919 
L 471.499624 470.87649 
L 471.872931 471.02316 
L 472.606212 471.926061 
L 472.966187 472.329438 
L 473.406155 472.59362 
L 474.37942 472.744966 
L 474.6594 472.588442 
L 475.099369 472.133203 
L 475.526005 471.750151 
L 476.205957 471.292108 
L 476.539267 471.560515 
L 476.792582 471.397475 
L 477.405872 470.77948 
L 477.56586 470.698245 
L 477.965832 470.455988 
L 478.819105 470.078722 
L 479.325736 469.844446 
L 479.525721 470.088462 
L 480.192341 471.059219 
L 480.485653 471.039446 
L 480.978952 470.809705 
L 481.352258 470.928482 
L 481.912219 471.132726 
L 482.325523 471.589158 
L 482.885483 472.095371 
L 483.365449 472.522385 
L 483.658761 472.636316 
L 484.338713 472.442738 
L 484.858676 472.710539 
L 485.245316 472.501242 
L 486.365236 471.833254 
L 487.298503 472.490731 
L 487.551819 472.326687 
L 487.95179 471.942508 
L 488.445089 471.69105 
L 488.711736 471.644222 
L 489.111708 471.219478 
L 489.565009 470.577718 
L 490.218296 469.706995 
L 490.951577 470.504603 
L 491.258222 470.822492 
L 491.538203 470.779284 
L 492.08483 470.471292 
L 492.284816 470.648293 
L 492.498134 470.720085 
L 492.644791 470.78879 
L 493.844706 472.038394 
L 494.044691 472.119885 
L 494.271342 472.160902 
L 494.617984 471.953558 
L 494.911297 471.462547 
L 495.217942 471.090819 
L 495.577916 471.126811 
L 496.017885 471.297924 
L 496.497851 471.288799 
L 496.711169 471.312553 
L 497.177802 471.639857 
L 497.377788 471.637212 
L 497.671101 471.546667 
L 497.964413 471.484656 
L 498.257726 470.96397 
L 498.551038 470.61691 
L 499.604297 470.119693 
L 499.804283 469.992942 
L 500.150925 469.877216 
L 500.417573 469.749328 
L 500.844209 469.535274 
L 501.177519 469.306558 
L 501.564158 468.928479 
L 502.164115 468.145939 
L 502.697411 468.080092 
L 503.204042 468.902635 
L 503.617346 469.542944 
L 504.390624 470.093808 
L 505.110573 469.178457 
L 505.537209 468.742241 
L 505.870519 468.675162 
L 506.550471 469.168888 
L 507.257087 470.161097 
L 508.523664 471.368133 
L 509.590255 471.912959 
L 509.803573 471.829525 
L 510.150216 471.868297 
L 510.603517 471.348745 
L 510.776838 471.485158 
L 511.176809 471.709101 
L 511.790099 471.515079 
L 512.390057 470.859483 
L 512.843358 470.339254 
L 513.483312 469.819026 
L 513.776625 469.54546 
L 513.989943 469.262804 
L 514.403247 468.907099 
L 514.776554 468.860898 
L 514.949875 468.863903 
L 516.083128 468.575723 
L 516.616424 468.193131 
L 517.283043 468.665044 
L 517.776341 469.116433 
L 517.93633 469.113439 
L 518.856265 468.680148 
L 519.042918 468.629315 
L 519.509552 468.863838 
L 519.522884 468.862313 
L 519.522884 468.862313 
" clip-path="url(#pea638fcd9e)" style="fill: none; stroke: #ff0000; stroke-width: 4; stroke-linecap: square"/>
   </g>
   <g id="line2d_44">
    <path d="M 412.877116 503.476364 
L 417.09015 503.04363 
L 419.503313 502.607703 
L 421.956472 501.757822 
L 423.329708 500.99652 
L 424.862932 499.754537 
L 426.529481 498.253147 
L 428.822651 494.498005 
L 429.569265 493.223732 
L 431.555791 490.520484 
L 432.075754 489.812668 
L 433.622311 486.860501 
L 434.00895 486.118328 
L 434.568911 485.581132 
L 435.062209 484.924839 
L 436.435445 482.149316 
L 437.235388 479.768908 
L 437.955337 478.028254 
L 438.821942 475.727389 
L 439.728545 474.20127 
L 440.421829 473.581197 
L 440.795136 472.75691 
L 441.408425 471.45255 
L 443.034977 468.378717 
L 443.514943 468.212484 
L 443.928247 467.516058 
L 444.39488 466.775019 
L 444.821517 466.404191 
L 445.168159 466.148552 
L 445.501468 465.205584 
L 446.834707 461.002907 
L 447.088022 460.83652 
L 447.501326 461.002322 
L 448.154613 461.774887 
L 448.554585 461.636838 
L 448.86123 461.450916 
L 449.114545 461.085893 
L 449.381193 460.168845 
L 450.181136 456.7572 
L 450.554443 456.393801 
L 451.167733 455.426234 
L 451.314389 455.220717 
L 451.714361 453.802889 
L 452.674293 451.151494 
L 452.847614 451.033294 
L 453.220921 450.567546 
L 453.407574 450.474969 
L 453.740884 450.691669 
L 454.340841 451.564703 
L 454.647486 451.580756 
L 454.820807 451.797761 
L 455.220779 452.293306 
L 455.420765 452.187596 
L 455.700745 451.484236 
L 456.087384 449.739038 
L 456.407361 448.465054 
L 457.007319 447.260378 
L 457.540614 446.785864 
L 457.700603 446.765253 
L 457.833927 447.084439 
L 458.220566 447.994745 
L 458.513879 447.936583 
L 459.060506 447.754265 
L 459.460478 448.07499 
L 459.740458 448.295885 
L 460.033771 448.506591 
L 460.487072 448.258306 
L 460.940373 447.836987 
L 461.26035 447.459345 
L 461.806978 447.603569 
L 462.20695 447.400852 
L 462.48693 447.580804 
L 462.620254 447.661748 
L 462.886902 447.808543 
L 463.193547 447.750688 
L 463.620183 447.866111 
L 463.740174 447.952673 
L 464.100149 448.146589 
L 464.633444 447.946762 
L 464.980087 448.175865 
L 465.006751 448.136276 
L 465.433388 447.693072 
L 465.740033 447.567145 
L 465.926686 447.174912 
L 466.513311 445.779529 
L 466.526643 445.79168 
L 466.859953 446.076477 
L 467.499908 446.882216 
L 468.006539 447.871672 
L 468.45984 448.252884 
L 468.633161 448.069323 
L 468.913141 447.774385 
L 469.446436 447.774217 
L 470.24638 446.999192 
L 470.379703 447.10441 
L 471.072988 448.288341 
L 471.312971 448.230644 
L 471.726275 448.147645 
L 472.806198 448.850036 
L 472.992851 448.69403 
L 473.392823 448.372446 
L 473.592809 448.427557 
L 473.912786 448.433701 
L 474.059442 448.432946 
L 474.37942 448.603799 
L 474.392752 448.586942 
L 476.192624 446.040009 
L 476.299284 445.979718 
L 476.592596 445.675977 
L 476.832579 445.550231 
L 477.459201 445.862835 
L 478.059159 445.339367 
L 478.23248 445.225517 
L 478.605787 444.80366 
L 478.79244 444.576929 
L 479.045755 444.297056 
L 479.272406 444.402494 
L 479.565719 445.064994 
L 479.752372 445.23041 
L 479.96569 445.300102 
L 480.325665 445.634663 
L 480.498986 445.631173 
L 481.312261 444.90138 
L 481.498915 444.823026 
L 481.672236 444.947697 
L 481.845557 444.930801 
L 482.285526 444.145595 
L 482.498844 443.894956 
L 483.138798 443.812969 
L 483.352117 443.73984 
L 483.53877 443.469201 
L 483.81875 443.105329 
L 484.165392 442.834958 
L 484.792014 441.823266 
L 485.378639 440.062503 
L 485.725282 439.052202 
L 485.951932 438.921883 
L 486.111921 438.921144 
L 486.49856 439.706872 
L 486.925196 440.66931 
L 487.098517 440.668512 
L 487.231841 440.689362 
L 487.378498 440.625266 
L 487.511822 440.712654 
L 487.685143 440.789312 
L 488.378427 440.552544 
L 488.725069 440.234849 
L 489.138373 440.571882 
L 489.338359 440.695513 
L 489.565009 440.569289 
L 490.151634 440.161951 
L 490.751592 440.734927 
L 491.391546 441.294252 
L 491.52487 441.473191 
L 492.298149 442.873546 
L 492.951436 442.3251 
L 493.404737 441.893651 
L 494.084689 441.39693 
L 494.48466 441.518379 
L 495.031288 442.177952 
L 495.204609 442.179371 
L 495.71124 441.848354 
L 495.897893 441.675337 
L 496.084547 441.220791 
L 496.804496 439.207813 
L 496.951152 439.216475 
L 497.151138 439.461244 
L 497.884419 440.166689 
L 498.05774 440.295194 
L 498.684362 440.706852 
L 498.991007 441.083033 
L 499.217658 441.139377 
L 499.404311 441.078666 
L 499.590965 440.990848 
L 499.604297 441.00274 
L 499.84428 441.084533 
L 500.044266 441.121514 
L 500.45757 441.593585 
L 500.484235 441.573766 
L 500.830877 441.10556 
L 501.030862 440.932914 
L 501.444166 440.774482 
L 501.724147 440.882642 
L 501.844138 440.853909 
L 502.030792 440.526348 
L 502.324104 439.732057 
L 502.80407 438.059328 
L 503.270704 437.384116 
L 503.470689 437.550816 
L 505.230565 441.311403 
L 505.497212 441.397932 
L 505.81719 441.420824 
L 506.177164 441.981081 
L 506.897113 442.200429 
L 507.310417 441.425339 
L 507.750386 440.334974 
L 507.923707 440.300929 
L 508.083695 440.575747 
L 508.39034 441.267463 
L 509.243613 441.549452 
L 509.603588 441.919488 
L 509.95023 442.535513 
L 510.390199 442.573466 
L 510.670179 442.903204 
L 510.936826 442.83709 
L 511.630111 442.444489 
L 511.870094 441.989759 
L 512.043415 441.805437 
L 512.443386 442.089941 
L 512.736699 441.970323 
L 512.883355 441.876449 
L 513.176668 441.052232 
L 513.509977 440.246593 
L 514.096602 439.603424 
L 514.349918 440.013643 
L 515.003205 441.347961 
L 515.163193 441.459296 
L 515.189858 441.427397 
L 515.416509 441.343291 
L 515.669824 441.297057 
L 515.923139 441.035332 
L 516.109793 440.977544 
L 516.496432 440.87389 
L 516.669753 441.192826 
L 516.883071 441.405462 
L 517.136387 441.295228 
L 518.096319 441.146322 
L 518.429628 441.540437 
L 518.442961 441.53046 
L 519.016253 441.07328 
L 519.349563 440.627502 
L 519.522884 440.639738 
L 519.522884 440.639738 
" clip-path="url(#pea638fcd9e)" style="fill: none; stroke: #0000ff; stroke-width: 4; stroke-linecap: square"/>
   </g>
   <g id="patch_19">
    <path d="M 407.544828 512.64 
L 524.855172 512.64 
" style="fill: none; stroke: #000000; stroke-width: 3; stroke-linejoin: miter; stroke-linecap: square"/>
   </g>
   <g id="text_13">
    <!-- LAL121 -->
    <g transform="translate(421.44375 305.04) scale(0.24 -0.24)">
     <use xlink:href="#DejaVuSans-4c"/>
     <use xlink:href="#DejaVuSans-41" x="57.962891"/>
     <use xlink:href="#DejaVuSans-4c" x="126.371094"/>
     <use xlink:href="#DejaVuSans-31" x="182.083984"/>
     <use xlink:href="#DejaVuSans-32" x="245.707031"/>
     <use xlink:href="#DejaVuSans-31" x="309.330078"/>
    </g>
   </g>
  </g>
  <g id="axes_9">
   <g id="patch_20">
    <path d="M 548.317241 512.64 
L 665.627586 512.64 
L 665.627586 311.04 
L 548.317241 311.04 
z
" style="fill: #ffffff"/>
   </g>
   <g id="matplotlib.axis_17">
    <g id="xtick_17">
     <g id="line2d_45">
      <g>
       <use xlink:href="#m64ab4b2b24" x="553.64953" y="512.64" style="stroke: #000000; stroke-width: 0.8"/>
      </g>
     </g>
    </g>
    <g id="xtick_18">
     <g id="line2d_46">
      <g>
       <use xlink:href="#m64ab4b2b24" x="620.311468" y="512.64" style="stroke: #000000; stroke-width: 0.8"/>
      </g>
     </g>
    </g>
   </g>
   <g id="matplotlib.axis_18">
    <g id="ytick_49"/>
    <g id="ytick_50"/>
    <g id="ytick_51"/>
    <g id="ytick_52"/>
    <g id="ytick_53"/>
    <g id="ytick_54"/>
   </g>
   <g id="line2d_47">
    <path d="M 553.64953 503.476364 
L 554.676124 502.678583 
L 555.796044 502.101675 
L 557.702576 501.439165 
L 560.809022 500.559817 
L 563.808809 499.322977 
L 565.808667 498.157976 
L 567.181903 497.014932 
L 568.421815 496.023817 
L 570.288349 494.912463 
L 571.994895 493.499578 
L 573.954756 491.587006 
L 575.394654 490.41927 
L 576.567904 489.3691 
L 577.767819 488.024808 
L 578.634424 487.24147 
L 579.541026 486.610265 
L 580.300972 486.092249 
L 582.087512 484.951267 
L 582.807461 484.537166 
L 584.074038 483.721898 
L 584.940643 483.344064 
L 586.367209 483.512704 
L 586.900504 483.769469 
L 587.673783 484.539982 
L 588.487058 485.149424 
L 589.180343 485.305993 
L 589.753635 485.194065 
L 590.873556 484.919024 
L 591.753493 485.294616 
L 593.953337 486.732989 
L 594.713283 486.699175 
L 595.339906 486.620068 
L 595.833204 486.758353 
L 597.499752 487.445254 
L 598.166372 487.8093 
L 598.979647 488.042354 
L 600.019574 488.122047 
L 600.686193 488.057462 
L 601.246153 487.869535 
L 601.792781 487.7611 
L 602.51273 487.521253 
L 603.899298 486.583711 
L 605.459188 485.329247 
L 606.312461 485.148111 
L 606.912418 485.136412 
L 607.432381 485.09637 
L 608.072336 485.204176 
L 608.472307 485.170883 
L 611.032126 484.361488 
L 611.565421 484.305553 
L 612.95199 483.9223 
L 613.831927 484.190563 
L 615.005177 484.473749 
L 616.271754 484.419583 
L 616.978371 484.319573 
L 617.711652 484.327768 
L 618.804908 483.997559 
L 620.27147 483.8811 
L 620.831431 484.134191 
L 621.351394 484.241959 
L 621.844692 484.34406 
L 622.537976 484.482471 
L 623.151266 484.754162 
L 624.217857 485.282054 
L 626.497695 486.770978 
L 627.844267 487.523366 
L 628.497553 487.66234 
L 630.124105 487.601768 
L 631.297355 487.224485 
L 632.550599 487.16408 
L 633.577193 486.872411 
L 634.23048 486.912837 
L 635.163747 487.088932 
L 635.657046 486.957216 
L 636.297 486.799283 
L 637.710233 486.819044 
L 638.670165 487.110412 
L 639.083469 487.032458 
L 643.403163 485.730335 
L 643.816467 485.911581 
L 645.136373 486.563059 
L 645.536345 486.474654 
L 646.34962 485.999387 
L 646.856251 485.78967 
L 647.562868 485.778508 
L 648.762783 486.19806 
L 649.97603 486.757553 
L 650.922629 486.941331 
L 651.802567 486.807935 
L 652.455854 486.684826 
L 653.749096 486.193692 
L 655.33565 485.697694 
L 657.228849 485.325124 
L 658.002127 485.17675 
L 660.295298 485.348121 
L 660.295298 485.348121 
" clip-path="url(#peeb38397fc)" style="fill: none; stroke: #ff0000; stroke-width: 4; stroke-linecap: square"/>
   </g>
   <g id="line2d_48">
    <path d="M 553.64953 503.476364 
L 554.796115 502.566829 
L 555.876039 501.976266 
L 557.302604 501.471529 
L 560.369053 500.527577 
L 562.355579 499.612736 
L 563.928801 498.670845 
L 564.92873 497.82569 
L 567.115241 495.672239 
L 567.875187 494.459152 
L 569.581733 491.25424 
L 571.714915 486.25566 
L 574.03475 480.014087 
L 575.367989 475.862036 
L 576.274591 473.013834 
L 577.301185 468.989203 
L 578.594427 461.804719 
L 580.8476 449.258967 
L 582.35416 442.409582 
L 584.154032 433.696769 
L 584.887314 430.580379 
L 586.527197 422.52671 
L 587.10049 417.866017 
L 588.353735 407.604098 
L 589.287002 402.829853 
L 590.140275 398.086708 
L 594.553295 367.216838 
L 595.099923 365.501148 
L 595.659883 364.24287 
L 596.579818 362.494991 
L 596.939792 361.127328 
L 598.219701 356.186525 
L 598.819659 354.485789 
L 600.539537 351.236434 
L 602.619389 349.28111 
L 603.032693 349.167336 
L 603.419333 349.352826 
L 604.552585 350.317511 
L 606.312461 352.447524 
L 606.752429 352.629932 
L 607.165733 352.376796 
L 607.512375 352.276469 
L 607.912347 352.440989 
L 608.43231 352.844615 
L 609.458904 353.672207 
L 610.352174 353.659847 
L 611.285441 353.31652 
L 613.51195 355.007519 
L 613.885257 355.263405 
L 614.725197 355.295929 
L 615.965109 354.81165 
L 616.765052 353.867974 
L 618.058294 352.28088 
L 619.351536 351.188802 
L 620.231473 350.600301 
L 620.964755 350.755427 
L 622.05801 350.666617 
L 622.484647 350.509623 
L 622.777959 350.342405 
L 623.191263 349.833968 
L 625.697752 346.061083 
L 627.284306 343.200062 
L 628.017588 342.757601 
L 628.657542 342.465764 
L 629.937451 342.164019 
L 631.084037 342.312116 
L 632.057301 342.887078 
L 632.590596 343.361452 
L 633.230551 344.000488 
L 633.803844 344.176361 
L 634.363804 344.002484 
L 635.910361 343.359448 
L 636.63031 343.264045 
L 636.923622 343.038785 
L 637.47025 342.291345 
L 638.016878 341.712606 
L 638.603503 341.46192 
L 639.363449 341.341348 
L 639.910077 341.458393 
L 641.136657 342.074669 
L 641.523296 342.331014 
L 642.523225 342.992792 
L 642.923197 343.196285 
L 643.243174 343.156108 
L 644.016453 342.675732 
L 644.429757 342.442961 
L 644.89639 342.454925 
L 645.683001 342.73556 
L 646.856251 343.675783 
L 647.736189 344.653723 
L 648.096163 344.705308 
L 649.389405 344.167092 
L 650.469328 344.0528 
L 650.922629 344.092472 
L 651.282604 344.125242 
L 652.175874 344.174971 
L 652.589178 343.951026 
L 653.122473 343.713672 
L 653.935749 343.451918 
L 654.869016 342.70028 
L 655.215658 342.644382 
L 655.575633 342.843392 
L 656.962201 343.889057 
L 659.322034 345.098967 
L 659.921991 345.24426 
L 660.295298 345.286879 
L 660.295298 345.286879 
" clip-path="url(#peeb38397fc)" style="fill: none; stroke: #0000ff; stroke-width: 4; stroke-linecap: square"/>
   </g>
   <g id="patch_21">
    <path d="M 548.317241 512.64 
L 665.627586 512.64 
" style="fill: none; stroke: #000000; stroke-width: 3; stroke-linejoin: miter; stroke-linecap: square"/>
   </g>
   <g id="text_14">
    <!-- DNa03 -->
    <g transform="translate(566.131164 305.04) scale(0.24 -0.24)">
     <defs>
      <path id="DejaVuSans-33" d="M 2597 2516 
Q 3050 2419 3304 2112 
Q 3559 1806 3559 1356 
Q 3559 666 3084 287 
Q 2609 -91 1734 -91 
Q 1441 -91 1130 -33 
Q 819 25 488 141 
L 488 750 
Q 750 597 1062 519 
Q 1375 441 1716 441 
Q 2309 441 2620 675 
Q 2931 909 2931 1356 
Q 2931 1769 2642 2001 
Q 2353 2234 1838 2234 
L 1294 2234 
L 1294 2753 
L 1863 2753 
Q 2328 2753 2575 2939 
Q 2822 3125 2822 3475 
Q 2822 3834 2567 4026 
Q 2313 4219 1838 4219 
Q 1578 4219 1281 4162 
Q 984 4106 628 3988 
L 628 4550 
Q 988 4650 1302 4700 
Q 1616 4750 1894 4750 
Q 2613 4750 3031 4423 
Q 3450 4097 3450 3541 
Q 3450 3153 3228 2886 
Q 3006 2619 2597 2516 
z
" transform="scale(0.015625)"/>
     </defs>
     <use xlink:href="#DejaVuSans-44"/>
     <use xlink:href="#DejaVuSans-4e" x="77.001953"/>
     <use xlink:href="#DejaVuSans-61" x="151.806641"/>
     <use xlink:href="#DejaVuSans-30" x="213.085938"/>
     <use xlink:href="#DejaVuSans-33" x="276.708984"/>
    </g>
   </g>
  </g>
  <g id="axes_10">
   <g id="patch_22">
    <path d="M 689.089655 512.64 
L 806.4 512.64 
L 806.4 311.04 
L 689.089655 311.04 
z
" style="fill: #ffffff"/>
   </g>
   <g id="matplotlib.axis_19">
    <g id="xtick_19">
     <g id="line2d_49">
      <g>
       <use xlink:href="#m64ab4b2b24" x="694.421944" y="512.64" style="stroke: #000000; stroke-width: 0.8"/>
      </g>
     </g>
    </g>
    <g id="xtick_20">
     <g id="line2d_50">
      <g>
       <use xlink:href="#m64ab4b2b24" x="761.083881" y="512.64" style="stroke: #000000; stroke-width: 0.8"/>
      </g>
     </g>
    </g>
   </g>
   <g id="matplotlib.axis_20">
    <g id="ytick_55"/>
    <g id="ytick_56"/>
    <g id="ytick_57"/>
    <g id="ytick_58"/>
    <g id="ytick_59"/>
    <g id="ytick_60"/>
   </g>
   <g id="line2d_51">
    <path d="M 694.421944 503.476364 
L 695.328546 502.788075 
L 696.368472 502.279693 
L 697.941694 501.795862 
L 700.328191 501.324894 
L 704.301243 500.484301 
L 709.794186 498.993379 
L 711.4874 498.563922 
L 713.713908 498.012709 
L 715.327127 497.618471 
L 725.606398 495.375407 
L 728.232878 495.514568 
L 729.219475 495.581021 
L 731.499313 495.445394 
L 732.672563 495.44455 
L 734.60576 495.526715 
L 736.658947 495.473094 
L 737.84553 495.519268 
L 742.738516 495.48537 
L 743.738445 495.29887 
L 745.911624 494.884513 
L 746.858224 494.866636 
L 752.511156 494.750336 
L 753.391094 494.694427 
L 756.230892 494.847943 
L 757.884108 494.745283 
L 758.590725 494.716478 
L 759.497327 494.659097 
L 761.817163 494.715455 
L 764.776953 494.915197 
L 766.083527 494.998335 
L 770.269896 495.124156 
L 774.25628 495.007727 
L 776.37613 495.078505 
L 777.469386 495.033388 
L 780.22919 494.990651 
L 785.2555 494.79397 
L 786.48208 494.827084 
L 787.841983 494.757213 
L 790.121821 494.980282 
L 792.06835 495.033883 
L 795.534771 494.791149 
L 796.86801 494.714695 
L 801.067712 494.664149 
L 801.067712 494.664149 
" clip-path="url(#pddd5abb02d)" style="fill: none; stroke: #ff0000; stroke-width: 4; stroke-linecap: square"/>
   </g>
   <g id="line2d_52">
    <path d="M 694.421944 503.476364 
L 695.40854 502.714006 
L 696.475131 502.166157 
L 697.75504 501.777273 
L 703.567961 500.442309 
L 705.861132 499.695809 
L 708.260962 498.83154 
L 713.073954 496.365868 
L 714.353863 495.703491 
L 715.28713 495.05421 
L 716.127071 494.552899 
L 717.286988 493.771801 
L 718.100264 493.055467 
L 719.660153 491.188769 
L 721.500023 488.23418 
L 722.459955 486.482135 
L 724.139835 482.599206 
L 726.672989 475.712784 
L 727.259614 473.4579 
L 728.006228 469.802208 
L 729.979421 458.481319 
L 731.086009 451.04283 
L 734.872407 421.203419 
L 735.632353 416.720088 
L 736.525623 412.508454 
L 737.365564 409.089743 
L 738.752132 403.262202 
L 739.565408 401.122833 
L 739.992044 400.226746 
L 740.845317 398.579335 
L 741.551934 397.642483 
L 743.565124 395.119353 
L 743.938431 394.924118 
L 745.178343 394.60618 
L 746.324928 394.884256 
L 746.618241 394.976346 
L 747.138204 395.064606 
L 747.484846 395.043034 
L 748.298122 394.821824 
L 749.284718 395.462178 
L 750.071329 396.099136 
L 751.497895 396.27918 
L 751.911199 396.28958 
L 752.897795 396.844866 
L 753.271102 396.918082 
L 754.737665 397.547661 
L 755.630935 397.741512 
L 756.030906 397.815435 
L 756.750855 397.507027 
L 757.550799 396.870704 
L 758.417404 396.288259 
L 759.030694 396.06571 
L 760.950557 394.668937 
L 761.483853 394.674026 
L 762.657103 394.377094 
L 763.243728 394.179465 
L 763.470379 394.084482 
L 764.470308 393.39753 
L 764.976938 393.120284 
L 766.390172 391.546131 
L 767.803405 389.402224 
L 768.67001 389.136313 
L 769.363294 388.783582 
L 770.923183 388.141563 
L 771.989774 387.861109 
L 773.176357 388.252183 
L 773.896306 388.821202 
L 774.736246 388.857606 
L 776.282803 388.906391 
L 777.322729 388.899665 
L 777.656039 388.68143 
L 778.589306 387.875852 
L 780.22919 387.8174 
L 780.655826 387.885066 
L 781.869074 387.973056 
L 782.175718 387.988644 
L 783.055656 387.853424 
L 783.695611 387.792671 
L 784.015588 387.467438 
L 784.388895 387.130227 
L 784.895525 386.890738 
L 785.148841 386.987368 
L 786.922048 388.173151 
L 787.708659 388.562263 
L 788.521935 388.887825 
L 789.10856 388.622607 
L 789.495199 388.566012 
L 789.735182 388.74595 
L 790.081824 388.884148 
L 790.441799 388.925587 
L 791.161748 389.136881 
L 791.575052 389.340551 
L 791.948359 389.390348 
L 792.334998 389.522868 
L 793.134941 389.454123 
L 793.868222 389.291405 
L 794.148202 389.243221 
L 794.548174 389.080551 
L 795.241458 388.455017 
L 795.881413 388.248154 
L 796.681356 388.586334 
L 798.241245 388.632776 
L 798.534558 388.733079 
L 799.681143 388.930345 
L 800.081115 389.100058 
L 800.561081 389.086064 
L 801.014382 389.012811 
L 801.067712 389.020954 
L 801.067712 389.020954 
" clip-path="url(#pddd5abb02d)" style="fill: none; stroke: #0000ff; stroke-width: 4; stroke-linecap: square"/>
   </g>
   <g id="patch_23">
    <path d="M 689.089655 512.64 
L 806.4 512.64 
" style="fill: none; stroke: #000000; stroke-width: 3; stroke-linejoin: miter; stroke-linecap: square"/>
   </g>
   <g id="text_15">
    <!-- DNa04 -->
    <g transform="translate(706.903578 305.04) scale(0.24 -0.24)">
     <use xlink:href="#DejaVuSans-44"/>
     <use xlink:href="#DejaVuSans-4e" x="77.001953"/>
     <use xlink:href="#DejaVuSans-61" x="151.806641"/>
     <use xlink:href="#DejaVuSans-30" x="213.085938"/>
     <use xlink:href="#DejaVuSans-34" x="276.708984"/>
    </g>
   </g>
  </g>
  <g id="text_16">
   <!-- Full model   = 90 -->
   <g transform="translate(359.535312 32.795625) scale(0.28 -0.28)">
    <defs>
     <path id="DejaVuSans-46" d="M 628 4666 
L 3309 4666 
L 3309 4134 
L 1259 4134 
L 1259 2759 
L 3109 2759 
L 3109 2228 
L 1259 2228 
L 1259 0 
L 628 0 
L 628 4666 
z
" transform="scale(0.015625)"/>
     <path id="DejaVuSans-75" d="M 544 1381 
L 544 3500 
L 1119 3500 
L 1119 1403 
Q 1119 906 1312 657 
Q 1506 409 1894 409 
Q 2359 409 2629 706 
Q 2900 1003 2900 1516 
L 2900 3500 
L 3475 3500 
L 3475 0 
L 2900 0 
L 2900 538 
Q 2691 219 2414 64 
Q 2138 -91 1772 -91 
Q 1169 -91 856 284 
Q 544 659 544 1381 
z
M 1991 3584 
L 1991 3584 
z
" transform="scale(0.015625)"/>
     <path id="DejaVuSans-6c" d="M 603 4863 
L 1178 4863 
L 1178 0 
L 603 0 
L 603 4863 
z
" transform="scale(0.015625)"/>
     <path id="DejaVuSans-6f" d="M 1959 3097 
Q 1497 3097 1228 2736 
Q 959 2375 959 1747 
Q 959 1119 1226 758 
Q 1494 397 1959 397 
Q 2419 397 2687 759 
Q 2956 1122 2956 1747 
Q 2956 2369 2687 2733 
Q 2419 3097 1959 3097 
z
M 1959 3584 
Q 2709 3584 3137 3096 
Q 3566 2609 3566 1747 
Q 3566 888 3137 398 
Q 2709 -91 1959 -91 
Q 1206 -91 779 398 
Q 353 888 353 1747 
Q 353 2609 779 3096 
Q 1206 3584 1959 3584 
z
" transform="scale(0.015625)"/>
     <path id="DejaVuSans-64" d="M 2906 2969 
L 2906 4863 
L 3481 4863 
L 3481 0 
L 2906 0 
L 2906 525 
Q 2725 213 2448 61 
Q 2172 -91 1784 -91 
Q 1150 -91 751 415 
Q 353 922 353 1747 
Q 353 2572 751 3078 
Q 1150 3584 1784 3584 
Q 2172 3584 2448 3432 
Q 2725 3281 2906 2969 
z
M 947 1747 
Q 947 1113 1208 752 
Q 1469 391 1925 391 
Q 2381 391 2643 752 
Q 2906 1113 2906 1747 
Q 2906 2381 2643 2742 
Q 2381 3103 1925 3103 
Q 1469 3103 1208 2742 
Q 947 2381 947 1747 
z
" transform="scale(0.015625)"/>
     <path id="DejaVuSans-394" d="M 2188 4044 
L 906 525 
L 3472 525 
L 2188 4044 
z
M 50 0 
L 1831 4666 
L 2547 4666 
L 4325 0 
L 50 0 
z
" transform="scale(0.015625)"/>
     <path id="DejaVuSans-3b8" d="M 2953 2219 
L 963 2219 
Q 1009 1284 1225 888 
Q 1494 400 1959 400 
Q 2428 400 2688 891 
Q 2916 1322 2953 2219 
z
M 2944 2750 
Q 2856 3638 2688 3950 
Q 2419 4444 1959 4444 
Q 1481 4444 1228 3956 
Q 1028 3563 969 2750 
L 2944 2750 
z
M 1959 4913 
Q 2709 4913 3138 4250 
Q 3566 3591 3566 2422 
Q 3566 1256 3138 594 
Q 2709 -72 1959 -72 
Q 1206 -72 781 594 
Q 353 1256 353 2422 
Q 353 3591 781 4250 
Q 1206 4913 1959 4913 
z
" transform="scale(0.015625)"/>
     <path id="DejaVuSans-3d" d="M 678 2906 
L 4684 2906 
L 4684 2381 
L 678 2381 
L 678 2906 
z
M 678 1631 
L 4684 1631 
L 4684 1100 
L 678 1100 
L 678 1631 
z
" transform="scale(0.015625)"/>
     <path id="DejaVuSans-39" d="M 703 97 
L 703 672 
Q 941 559 1184 500 
Q 1428 441 1663 441 
Q 2288 441 2617 861 
Q 2947 1281 2994 2138 
Q 2813 1869 2534 1725 
Q 2256 1581 1919 1581 
Q 1219 1581 811 2004 
Q 403 2428 403 3163 
Q 403 3881 828 4315 
Q 1253 4750 1959 4750 
Q 2769 4750 3195 4129 
Q 3622 3509 3622 2328 
Q 3622 1225 3098 567 
Q 2575 -91 1691 -91 
Q 1453 -91 1209 -44 
Q 966 3 703 97 
z
M 1959 2075 
Q 2384 2075 2632 2365 
Q 2881 2656 2881 3163 
Q 2881 3666 2632 3958 
Q 2384 4250 1959 4250 
Q 1534 4250 1286 3958 
Q 1038 3666 1038 3163 
Q 1038 2656 1286 2365 
Q 1534 2075 1959 2075 
z
" transform="scale(0.015625)"/>
     <path id="DejaVuSans-b0" d="M 1600 4347 
Q 1350 4347 1178 4173 
Q 1006 4000 1006 3750 
Q 1006 3503 1178 3333 
Q 1350 3163 1600 3163 
Q 1850 3163 2022 3333 
Q 2194 3503 2194 3750 
Q 2194 3997 2020 4172 
Q 1847 4347 1600 4347 
z
M 1600 4750 
Q 1800 4750 1984 4673 
Q 2169 4597 2303 4453 
Q 2447 4313 2519 4134 
Q 2591 3956 2591 3750 
Q 2591 3338 2302 3052 
Q 2013 2766 1594 2766 
Q 1172 2766 890 3047 
Q 609 3328 609 3750 
Q 609 4169 896 4459 
Q 1184 4750 1600 4750 
z
" transform="scale(0.015625)"/>
    </defs>
    <use xlink:href="#DejaVuSans-46"/>
    <use xlink:href="#DejaVuSans-75" x="52.019531"/>
    <use xlink:href="#DejaVuSans-6c" x="115.398438"/>
    <use xlink:href="#DejaVuSans-6c" x="143.181641"/>
    <use xlink:href="#DejaVuSans-20" x="170.964844"/>
    <use xlink:href="#DejaVuSans-6d" x="202.751953"/>
    <use xlink:href="#DejaVuSans-6f" x="300.164062"/>
    <use xlink:href="#DejaVuSans-64" x="361.345703"/>
    <use xlink:href="#DejaVuSans-65" x="424.822266"/>
    <use xlink:href="#DejaVuSans-6c" x="486.345703"/>
    <use xlink:href="#DejaVuSans-20" x="514.128906"/>
    <use xlink:href="#DejaVuSans-20" x="545.916016"/>
    <use xlink:href="#DejaVuSans-394" x="577.703125"/>
    <use xlink:href="#DejaVuSans-3b8" x="646.111328"/>
    <use xlink:href="#DejaVuSans-20" x="707.292969"/>
    <use xlink:href="#DejaVuSans-3d" x="739.080078"/>
    <use xlink:href="#DejaVuSans-20" x="822.869141"/>
    <use xlink:href="#DejaVuSans-39" x="854.65625"/>
    <use xlink:href="#DejaVuSans-30" x="918.279297"/>
    <use xlink:href="#DejaVuSans-b0" x="981.902344"/>
   </g>
  </g>
  <g id="legend_1">
   <g id="line2d_53">
    <path d="M 856.5075 273.456563 
L 874.5075 273.456563 
L 892.5075 273.456563 
" style="fill: none; stroke: #ff0000; stroke-width: 4; stroke-linecap: square"/>
   </g>
   <g id="text_17">
    <!-- right side -->
    <g transform="translate(906.9075 279.756563) scale(0.18 -0.18)">
     <defs>
      <path id="DejaVuSans-68" d="M 3513 2113 
L 3513 0 
L 2938 0 
L 2938 2094 
Q 2938 2591 2744 2837 
Q 2550 3084 2163 3084 
Q 1697 3084 1428 2787 
Q 1159 2491 1159 1978 
L 1159 0 
L 581 0 
L 581 4863 
L 1159 4863 
L 1159 2956 
Q 1366 3272 1645 3428 
Q 1925 3584 2291 3584 
Q 2894 3584 3203 3211 
Q 3513 2838 3513 2113 
z
" transform="scale(0.015625)"/>
     </defs>
     <use xlink:href="#DejaVuSans-72"/>
     <use xlink:href="#DejaVuSans-69" x="41.113281"/>
     <use xlink:href="#DejaVuSans-67" x="68.896484"/>
     <use xlink:href="#DejaVuSans-68" x="132.373047"/>
     <use xlink:href="#DejaVuSans-74" x="195.751953"/>
     <use xlink:href="#DejaVuSans-20" x="234.960938"/>
     <use xlink:href="#DejaVuSans-73" x="266.748047"/>
     <use xlink:href="#DejaVuSans-69" x="318.847656"/>
     <use xlink:href="#DejaVuSans-64" x="346.630859"/>
     <use xlink:href="#DejaVuSans-65" x="410.107422"/>
    </g>
   </g>
   <g id="line2d_54">
    <path d="M 856.5075 299.877187 
L 874.5075 299.877187 
L 892.5075 299.877187 
" style="fill: none; stroke: #0000ff; stroke-width: 4; stroke-linecap: square"/>
   </g>
   <g id="text_18">
    <!-- left side -->
    <g transform="translate(906.9075 306.177188) scale(0.18 -0.18)">
     <use xlink:href="#DejaVuSans-6c"/>
     <use xlink:href="#DejaVuSans-65" x="27.783203"/>
     <use xlink:href="#DejaVuSans-66" x="89.306641"/>
     <use xlink:href="#DejaVuSans-74" x="122.761719"/>
     <use xlink:href="#DejaVuSans-20" x="161.970703"/>
     <use xlink:href="#DejaVuSans-73" x="193.757812"/>
     <use xlink:href="#DejaVuSans-69" x="245.857422"/>
     <use xlink:href="#DejaVuSans-64" x="273.640625"/>
     <use xlink:href="#DejaVuSans-65" x="337.117188"/>
    </g>
   </g>
  </g>
 </g>
 <defs>
  <clipPath id="pd7897f8f64">
   <rect x="126" y="69.12" width="117.310345" height="201.6"/>
  </clipPath>
  <clipPath id="p39286a1717">
   <rect x="266.772414" y="69.12" width="117.310345" height="201.6"/>
  </clipPath>
  <clipPath id="p740ac06e47">
   <rect x="407.544828" y="69.12" width="117.310345" height="201.6"/>
  </clipPath>
  <clipPath id="p9c4b0e31eb">
   <rect x="548.317241" y="69.12" width="117.310345" height="201.6"/>
  </clipPath>
  <clipPath id="p33487f6750">
   <rect x="689.089655" y="69.12" width="117.310345" height="201.6"/>
  </clipPath>
  <clipPath id="p0aca88cc70">
   <rect x="126" y="311.04" width="117.310345" height="201.6"/>
  </clipPath>
  <clipPath id="pe3e65415b8">
   <rect x="266.772414" y="311.04" width="117.310345" height="201.6"/>
  </clipPath>
  <clipPath id="pea638fcd9e">
   <rect x="407.544828" y="311.04" width="117.310345" height="201.6"/>
  </clipPath>
  <clipPath id="peeb38397fc">
   <rect x="548.317241" y="311.04" width="117.310345" height="201.6"/>
  </clipPath>
  <clipPath id="pddd5abb02d">
   <rect x="689.089655" y="311.04" width="117.310345" height="201.6"/>
  </clipPath>
 </defs>
</svg>
