<?xml version="1.0" encoding="utf-8" standalone="no"?>
<!DOCTYPE svg PUBLIC "-//W3C//DTD SVG 1.1//EN"
  "http://www.w3.org/Graphics/SVG/1.1/DTD/svg11.dtd">
<svg xmlns:xlink="http://www.w3.org/1999/xlink" width="1008pt" height="576pt" viewBox="0 0 1008 576" xmlns="http://www.w3.org/2000/svg" version="1.1">
 <metadata>
  <rdf:RDF xmlns:dc="http://purl.org/dc/elements/1.1/" xmlns:cc="http://creativecommons.org/ns#" xmlns:rdf="http://www.w3.org/1999/02/22-rdf-syntax-ns#">
   <cc:Work>
    <dc:type rdf:resource="http://purl.org/dc/dcmitype/StillImage"/>
    <dc:date>2025-06-02T23:41:23.361363</dc:date>
    <dc:format>image/svg+xml</dc:format>
    <dc:creator>
     <cc:Agent>
      <dc:title>Matplotlib v3.7.1, https://matplotlib.org/</dc:title>
     </cc:Agent>
    </dc:creator>
   </cc:Work>
  </rdf:RDF>
 </metadata>
 <defs>
  <style type="text/css">*{stroke-linejoin: round; stroke-linecap: butt}</style>
 </defs>
 <g id="figure_1">
  <g id="patch_1">
   <path d="M 0 576 
L 1008 576 
L 1008 0 
L 0 0 
z
" style="fill: #ffffff"/>
  </g>
  <g id="axes_1">
   <g id="patch_2">
    <path d="M 126 270.72 
L 243.310345 270.72 
L 243.310345 69.12 
L 126 69.12 
z
" style="fill: #ffffff"/>
   </g>
   <g id="matplotlib.axis_1">
    <g id="xtick_1">
     <g id="line2d_1">
      <defs>
       <path id="m3d486c7068" d="M 0 0 
L 0 3.5 
" style="stroke: #000000; stroke-width: 0.8"/>
      </defs>
      <g>
       <use xlink:href="#m3d486c7068" x="131.332288" y="270.72" style="stroke: #000000; stroke-width: 0.8"/>
      </g>
     </g>
    </g>
    <g id="xtick_2">
     <g id="line2d_2">
      <g>
       <use xlink:href="#m3d486c7068" x="197.994226" y="270.72" style="stroke: #000000; stroke-width: 0.8"/>
      </g>
     </g>
    </g>
   </g>
   <g id="matplotlib.axis_2">
    <g id="ytick_1">
     <g id="line2d_3">
      <defs>
       <path id="mbe4322b38f" d="M 0 0 
L -3.5 0 
" style="stroke: #000000; stroke-width: 0.8"/>
      </defs>
      <g>
       <use xlink:href="#mbe4322b38f" x="126" y="261.556364" style="stroke: #000000; stroke-width: 0.8"/>
      </g>
     </g>
    </g>
    <g id="ytick_2">
     <g id="line2d_4">
      <g>
       <use xlink:href="#mbe4322b38f" x="126" y="224.735248" style="stroke: #000000; stroke-width: 0.8"/>
      </g>
     </g>
    </g>
    <g id="ytick_3">
     <g id="line2d_5">
      <g>
       <use xlink:href="#mbe4322b38f" x="126" y="187.914132" style="stroke: #000000; stroke-width: 0.8"/>
      </g>
     </g>
    </g>
    <g id="ytick_4">
     <g id="line2d_6">
      <g>
       <use xlink:href="#mbe4322b38f" x="126" y="151.093017" style="stroke: #000000; stroke-width: 0.8"/>
      </g>
     </g>
    </g>
    <g id="ytick_5">
     <g id="line2d_7">
      <g>
       <use xlink:href="#mbe4322b38f" x="126" y="114.271901" style="stroke: #000000; stroke-width: 0.8"/>
      </g>
     </g>
    </g>
    <g id="ytick_6">
     <g id="line2d_8">
      <g>
       <use xlink:href="#mbe4322b38f" x="126" y="77.450786" style="stroke: #000000; stroke-width: 0.8"/>
      </g>
     </g>
    </g>
    <g id="text_1">
     <!-- firing rate -->
     <g transform="translate(110.424688 224.220469) rotate(-90) scale(0.22 -0.22)">
      <defs>
       <path id="DejaVuSans-66" d="M 2375 4863 
L 2375 4384 
L 1825 4384 
Q 1516 4384 1395 4259 
Q 1275 4134 1275 3809 
L 1275 3500 
L 2222 3500 
L 2222 3053 
L 1275 3053 
L 1275 0 
L 697 0 
L 697 3053 
L 147 3053 
L 147 3500 
L 697 3500 
L 697 3744 
Q 697 4328 969 4595 
Q 1241 4863 1831 4863 
L 2375 4863 
z
" transform="scale(0.015625)"/>
       <path id="DejaVuSans-69" d="M 603 3500 
L 1178 3500 
L 1178 0 
L 603 0 
L 603 3500 
z
M 603 4863 
L 1178 4863 
L 1178 4134 
L 603 4134 
L 603 4863 
z
" transform="scale(0.015625)"/>
       <path id="DejaVuSans-72" d="M 2631 2963 
Q 2534 3019 2420 3045 
Q 2306 3072 2169 3072 
Q 1681 3072 1420 2755 
Q 1159 2438 1159 1844 
L 1159 0 
L 581 0 
L 581 3500 
L 1159 3500 
L 1159 2956 
Q 1341 3275 1631 3429 
Q 1922 3584 2338 3584 
Q 2397 3584 2469 3576 
Q 2541 3569 2628 3553 
L 2631 2963 
z
" transform="scale(0.015625)"/>
       <path id="DejaVuSans-6e" d="M 3513 2113 
L 3513 0 
L 2938 0 
L 2938 2094 
Q 2938 2591 2744 2837 
Q 2550 3084 2163 3084 
Q 1697 3084 1428 2787 
Q 1159 2491 1159 1978 
L 1159 0 
L 581 0 
L 581 3500 
L 1159 3500 
L 1159 2956 
Q 1366 3272 1645 3428 
Q 1925 3584 2291 3584 
Q 2894 3584 3203 3211 
Q 3513 2838 3513 2113 
z
" transform="scale(0.015625)"/>
       <path id="DejaVuSans-67" d="M 2906 1791 
Q 2906 2416 2648 2759 
Q 2391 3103 1925 3103 
Q 1463 3103 1205 2759 
Q 947 2416 947 1791 
Q 947 1169 1205 825 
Q 1463 481 1925 481 
Q 2391 481 2648 825 
Q 2906 1169 2906 1791 
z
M 3481 434 
Q 3481 -459 3084 -895 
Q 2688 -1331 1869 -1331 
Q 1566 -1331 1297 -1286 
Q 1028 -1241 775 -1147 
L 775 -588 
Q 1028 -725 1275 -790 
Q 1522 -856 1778 -856 
Q 2344 -856 2625 -561 
Q 2906 -266 2906 331 
L 2906 616 
Q 2728 306 2450 153 
Q 2172 0 1784 0 
Q 1141 0 747 490 
Q 353 981 353 1791 
Q 353 2603 747 3093 
Q 1141 3584 1784 3584 
Q 2172 3584 2450 3431 
Q 2728 3278 2906 2969 
L 2906 3500 
L 3481 3500 
L 3481 434 
z
" transform="scale(0.015625)"/>
       <path id="DejaVuSans-20" transform="scale(0.015625)"/>
       <path id="DejaVuSans-61" d="M 2194 1759 
Q 1497 1759 1228 1600 
Q 959 1441 959 1056 
Q 959 750 1161 570 
Q 1363 391 1709 391 
Q 2188 391 2477 730 
Q 2766 1069 2766 1631 
L 2766 1759 
L 2194 1759 
z
M 3341 1997 
L 3341 0 
L 2766 0 
L 2766 531 
Q 2569 213 2275 61 
Q 1981 -91 1556 -91 
Q 1019 -91 701 211 
Q 384 513 384 1019 
Q 384 1609 779 1909 
Q 1175 2209 1959 2209 
L 2766 2209 
L 2766 2266 
Q 2766 2663 2505 2880 
Q 2244 3097 1772 3097 
Q 1472 3097 1187 3025 
Q 903 2953 641 2809 
L 641 3341 
Q 956 3463 1253 3523 
Q 1550 3584 1831 3584 
Q 2591 3584 2966 3190 
Q 3341 2797 3341 1997 
z
" transform="scale(0.015625)"/>
       <path id="DejaVuSans-74" d="M 1172 4494 
L 1172 3500 
L 2356 3500 
L 2356 3053 
L 1172 3053 
L 1172 1153 
Q 1172 725 1289 603 
Q 1406 481 1766 481 
L 2356 481 
L 2356 0 
L 1766 0 
Q 1100 0 847 248 
Q 594 497 594 1153 
L 594 3053 
L 172 3053 
L 172 3500 
L 594 3500 
L 594 4494 
L 1172 4494 
z
" transform="scale(0.015625)"/>
       <path id="DejaVuSans-65" d="M 3597 1894 
L 3597 1613 
L 953 1613 
Q 991 1019 1311 708 
Q 1631 397 2203 397 
Q 2534 397 2845 478 
Q 3156 559 3463 722 
L 3463 178 
Q 3153 47 2828 -22 
Q 2503 -91 2169 -91 
Q 1331 -91 842 396 
Q 353 884 353 1716 
Q 353 2575 817 3079 
Q 1281 3584 2069 3584 
Q 2775 3584 3186 3129 
Q 3597 2675 3597 1894 
z
M 3022 2063 
Q 3016 2534 2758 2815 
Q 2500 3097 2075 3097 
Q 1594 3097 1305 2825 
Q 1016 2553 972 2059 
L 3022 2063 
z
" transform="scale(0.015625)"/>
      </defs>
      <use xlink:href="#DejaVuSans-66"/>
      <use xlink:href="#DejaVuSans-69" x="35.205078"/>
      <use xlink:href="#DejaVuSans-72" x="62.988281"/>
      <use xlink:href="#DejaVuSans-69" x="104.101562"/>
      <use xlink:href="#DejaVuSans-6e" x="131.884766"/>
      <use xlink:href="#DejaVuSans-67" x="195.263672"/>
      <use xlink:href="#DejaVuSans-20" x="258.740234"/>
      <use xlink:href="#DejaVuSans-72" x="290.527344"/>
      <use xlink:href="#DejaVuSans-61" x="331.640625"/>
      <use xlink:href="#DejaVuSans-74" x="392.919922"/>
      <use xlink:href="#DejaVuSans-65" x="432.128906"/>
     </g>
    </g>
   </g>
   <g id="line2d_9">
    <path d="M 131.332288 261.556364 
L 133.398808 258.622113 
L 135.678647 256.418789 
L 139.265059 251.248582 
L 140.33165 249.260058 
L 142.611488 245.734126 
L 143.584753 244.40473 
L 144.957988 241.793118 
L 146.051244 238.966224 
L 148.357747 234.355874 
L 149.091029 233.427075 
L 149.650989 232.888334 
L 150.170952 232.68604 
L 150.877569 232.667346 
L 151.384199 232.035628 
L 152.197475 230.649084 
L 152.597447 230.424226 
L 152.970753 230.061802 
L 153.330728 229.801631 
L 153.62404 229.587279 
L 155.170597 227.367949 
L 155.863881 227.331503 
L 157.437103 225.671611 
L 157.770413 225.615928 
L 158.490362 225.679241 
L 158.75701 225.57357 
L 158.996993 225.557792 
L 159.330302 225.551038 
L 159.93026 225.382194 
L 160.143578 225.315648 
L 160.730203 225.395811 
L 161.356825 225.719831 
L 161.516814 225.859238 
L 162.250095 226.684723 
L 162.61007 226.784561 
L 162.983376 226.411826 
L 163.316686 226.115081 
L 163.836649 226.275221 
L 164.276618 226.444709 
L 164.716587 226.302531 
L 165.103226 225.971692 
L 165.676519 225.702061 
L 166.103155 225.771221 
L 166.383135 225.764069 
L 166.796439 225.667029 
L 167.3564 225.619054 
L 167.743039 225.701768 
L 168.289667 226.182259 
L 169.062945 226.518042 
L 169.462917 226.80751 
L 169.796226 226.812924 
L 170.102871 226.729911 
L 170.356187 226.920054 
L 170.609502 227.101112 
L 172.009403 226.855022 
L 172.396042 226.246457 
L 172.756017 225.806829 
L 173.302644 225.554596 
L 174.422565 226.52453 
L 174.742542 226.790517 
L 175.089184 227.100111 
L 175.795801 227.764963 
L 176.222437 227.956819 
L 176.84906 228.218617 
L 177.07571 228.161439 
L 177.569008 228.011979 
L 177.902318 227.987225 
L 178.208963 227.780343 
L 178.782256 227.722905 
L 179.048903 227.637443 
L 179.435543 227.618562 
L 179.835514 227.52726 
L 180.128827 227.438831 
L 180.355477 227.444889 
L 180.555463 227.434658 
L 180.915438 227.918865 
L 181.168753 228.133337 
L 182.088688 228.081642 
L 183.181944 227.739505 
L 183.955222 227.945868 
L 184.181873 227.874921 
L 184.341861 227.786229 
L 185.101807 226.92983 
L 185.39512 226.696132 
L 185.741762 226.387781 
L 186.408381 225.513551 
L 186.875015 224.767492 
L 187.861612 223.654448 
L 188.141592 223.444957 
L 188.834876 222.805828 
L 189.221515 222.73747 
L 190.554754 223.708194 
L 190.888064 223.778778 
L 191.741336 223.384317 
L 191.887993 223.501094 
L 192.914587 224.869406 
L 193.541209 225.185796 
L 194.6078 226.188153 
L 194.914445 226.248347 
L 195.327749 226.011593 
L 195.567732 225.976521 
L 195.767717 225.899342 
L 196.0077 225.80245 
L 196.181021 225.913261 
L 197.527593 226.908561 
L 197.834238 227.01957 
L 198.207544 227.076282 
L 198.807502 226.749055 
L 199.034152 226.631318 
L 199.407459 226.37632 
L 199.714104 226.406065 
L 200.2474 226.813517 
L 200.674036 227.189076 
L 201.327323 227.575204 
L 201.527309 227.576698 
L 201.940613 227.939491 
L 202.180596 228.096344 
L 203.127195 228.201558 
L 203.500502 228.272196 
L 203.900474 228.11952 
L 204.433769 228.123889 
L 205.353704 227.387437 
L 205.887 226.546592 
L 206.206977 226.44295 
L 206.660278 226.494031 
L 206.953591 226.526552 
L 207.433557 226.650867 
L 207.660207 226.731439 
L 207.860193 226.876769 
L 209.07344 227.677937 
L 209.473412 227.792207 
L 209.96671 227.926228 
L 210.846648 227.626315 
L 211.286617 227.536099 
L 211.953236 227.522715 
L 212.899835 228.115882 
L 213.126486 228.118067 
L 213.806438 228.378257 
L 213.993091 228.51325 
L 214.233074 228.533205 
L 214.553051 228.436121 
L 214.913026 228.309499 
L 215.086347 228.445593 
L 215.432989 228.668883 
L 215.566313 228.580124 
L 216.072944 228.274988 
L 216.366256 228.099701 
L 216.672901 228.012859 
L 217.766157 228.637346 
L 217.979475 228.543122 
L 218.552768 228.031123 
L 218.992737 227.937225 
L 219.899339 228.142624 
L 220.192651 227.811982 
L 221.565887 226.452919 
L 222.165845 225.147161 
L 222.619146 224.60329 
L 223.325763 224.358138 
L 223.552413 224.244834 
L 223.672405 224.33279 
L 223.92572 224.536104 
L 224.81899 224.927585 
L 225.912246 226.228635 
L 226.60553 227.438732 
L 227.032166 227.938153 
L 227.392141 228.116338 
L 227.938769 228.291009 
L 228.765377 229.342555 
L 229.098686 229.47453 
L 229.471993 229.51202 
L 230.005289 229.544205 
L 230.40526 228.992145 
L 231.125209 227.89608 
L 231.871823 226.883518 
L 232.431783 225.741739 
L 233.325053 225.169984 
L 233.525039 225.369685 
L 233.925011 225.684227 
L 234.191658 225.737342 
L 234.684957 225.836355 
L 234.938272 225.978094 
L 235.124925 226.076952 
L 235.631556 226.394366 
L 235.858207 226.345302 
L 236.258178 226.086819 
L 236.444832 226.071727 
L 237.364767 226.79364 
L 237.978056 228.252644 
L 237.978056 228.252644 
" clip-path="url(#pc39484ea74)" style="fill: none; stroke: #ff0000; stroke-width: 4; stroke-linecap: square"/>
   </g>
   <g id="line2d_10">
    <path d="M 131.332288 261.556364 
L 134.07876 257.588207 
L 138.171803 252.932689 
L 138.691766 251.950164 
L 142.39817 243.124538 
L 143.024792 241.229045 
L 144.064719 238.247745 
L 145.02465 234.657141 
L 145.851258 231.007445 
L 147.531139 224.034998 
L 149.144358 218.283965 
L 149.477668 217.388771 
L 149.82431 216.098123 
L 150.250946 214.909568 
L 150.544259 214.517435 
L 150.877569 214.18124 
L 151.370867 212.928316 
L 151.917495 211.601993 
L 152.290802 210.816732 
L 153.517381 207.314163 
L 153.877356 206.516242 
L 154.370654 205.24478 
L 155.237259 203.766966 
L 155.583901 203.529147 
L 155.757222 203.209232 
L 157.423771 199.698052 
L 157.86374 199.034957 
L 158.210382 198.159225 
L 159.743606 194.019159 
L 160.103581 193.248952 
L 160.476888 192.608451 
L 161.023515 191.689658 
L 161.38349 191.233997 
L 161.783462 191.140294 
L 162.83672 189.204852 
L 163.263357 187.963672 
L 163.716658 186.519004 
L 163.983306 186.35657 
L 164.769916 186.420193 
L 165.329877 187.288387 
L 165.649854 187.834379 
L 165.703184 187.800913 
L 165.876505 187.598965 
L 166.316473 186.989117 
L 166.636451 186.651756 
L 167.129749 185.177074 
L 167.849698 182.442436 
L 168.596312 180.10539 
L 168.942954 179.292253 
L 169.449584 178.424243 
L 169.636238 178.206509 
L 170.022877 177.575092 
L 170.436181 177.618386 
L 170.716161 177.772011 
L 170.996141 177.906087 
L 171.836082 178.443079 
L 172.0494 178.177846 
L 172.396042 177.83511 
L 173.115991 177.428179 
L 173.662619 177.454092 
L 173.982596 177.079016 
L 174.329238 176.621884 
L 174.515892 176.454198 
L 175.462491 175.281493 
L 175.875795 174.979525 
L 176.18244 174.967168 
L 176.409091 174.612037 
L 176.995716 173.689215 
L 177.249031 173.569276 
L 177.768994 172.873994 
L 178.368952 171.965354 
L 178.595602 171.853094 
L 179.155563 171.499755 
L 179.488872 171.482661 
L 179.648861 171.51953 
L 180.008835 171.73047 
L 180.195489 171.703683 
L 181.128756 170.911775 
L 181.302077 170.995382 
L 181.675384 171.641297 
L 181.982029 172.166872 
L 182.128685 172.328245 
L 182.501992 172.732215 
L 182.981958 173.061769 
L 183.168611 173.12637 
L 183.741904 173.349183 
L 184.061881 173.589845 
L 184.328529 173.789759 
L 184.648506 174.127777 
L 184.968484 174.477015 
L 186.101736 174.58316 
L 186.488376 174.548563 
L 186.741691 174.662771 
L 187.354981 175.012358 
L 188.128259 175.735513 
L 188.581561 176.17698 
L 188.754882 176.048968 
L 189.754811 174.827997 
L 190.168115 174.715638 
L 190.354768 174.668417 
L 190.674745 174.556911 
L 191.221373 175.031324 
L 191.554683 175.27011 
L 192.141308 175.112131 
L 192.447953 174.949518 
L 192.861257 174.889695 
L 193.447882 174.743584 
L 193.607871 174.686618 
L 193.821189 174.512998 
L 194.341152 174.131383 
L 194.767788 174.448106 
L 195.301084 174.898808 
L 195.674391 175.449724 
L 195.941038 175.36689 
L 196.594325 174.709057 
L 196.740982 174.630399 
L 197.194283 174.219183 
L 197.687581 173.558666 
L 197.927564 173.183236 
L 198.140882 173.067914 
L 198.354201 173.108264 
L 199.07415 172.907078 
L 199.460789 172.419017 
L 199.887425 171.811133 
L 200.2474 171.447713 
L 200.420721 171.308216 
L 201.034011 170.2953 
L 201.220664 170.107514 
L 201.70063 169.475135 
L 201.953945 169.505672 
L 202.31392 169.463055 
L 202.860548 169.329228 
L 203.100531 169.3142 
L 203.71382 168.914164 
L 203.873809 168.875104 
L 204.073795 168.839628 
L 204.473767 169.01567 
L 204.767079 169.133017 
L 205.033727 169.836049 
L 205.433698 170.787898 
L 205.940329 171.649235 
L 206.140315 171.941055 
L 206.593616 172.645788 
L 207.420224 173.100449 
L 207.820196 172.544471 
L 208.18017 171.7011 
L 208.540145 170.967745 
L 208.79346 170.852623 
L 208.993446 170.801842 
L 209.273426 170.736415 
L 209.473412 170.754056 
L 210.273355 170.085598 
L 210.713324 169.68381 
L 210.993304 169.628132 
L 211.379943 169.394016 
L 211.75325 169.167262 
L 212.459867 168.358477 
L 212.779844 168.301257 
L 213.153151 167.709769 
L 213.379801 167.463957 
L 213.646449 167.436316 
L 213.939762 167.622052 
L 214.446392 167.828877 
L 214.913026 168.805454 
L 215.246336 169.413272 
L 215.539648 169.522822 
L 215.859625 169.066219 
L 216.152938 168.745298 
L 216.446251 168.606034 
L 216.77956 168.717608 
L 216.992878 168.811161 
L 217.419515 168.705686 
L 217.712827 168.304181 
L 218.046137 167.899421 
L 218.752754 167.901877 
L 218.966072 167.66347 
L 219.219387 167.481728 
L 219.632691 167.583522 
L 220.152654 168.215256 
L 220.539294 169.128444 
L 221.472561 171.266615 
L 222.285836 172.322128 
L 222.539152 172.60375 
L 223.325763 172.354153 
L 223.499084 172.308389 
L 223.765731 172.396651 
L 224.25903 172.292818 
L 224.472348 172.260702 
L 224.579007 172.119771 
L 225.458945 170.249567 
L 225.605601 170.115373 
L 225.778922 170.045888 
L 226.352214 170.106798 
L 226.712189 170.061213 
L 226.992169 170.095786 
L 227.205487 169.678637 
L 227.885439 168.348084 
L 228.445399 168.057806 
L 228.658718 168.10856 
L 229.125351 168.1915 
L 229.525323 167.944124 
L 229.818635 167.981989 
L 229.991956 168.152513 
L 230.231939 168.696858 
L 230.658576 169.450645 
L 230.898559 169.48463 
L 231.165206 169.594424 
L 231.445187 169.9281 
L 232.631769 172.581563 
L 232.938414 173.239943 
L 233.111735 173.21815 
L 233.471709 172.725827 
L 234.005005 172.005284 
L 234.204991 171.818614 
L 234.618295 171.542904 
L 234.964937 171.51488 
L 235.084928 171.288902 
L 235.338244 170.911182 
L 235.564894 170.865262 
L 236.311508 171.322618 
L 236.511494 171.147081 
L 236.964795 170.391696 
L 237.338102 169.552222 
L 237.978056 167.873549 
L 237.978056 167.873549 
" clip-path="url(#pc39484ea74)" style="fill: none; stroke: #0000ff; stroke-width: 4; stroke-linecap: square"/>
   </g>
   <g id="patch_3">
    <path d="M 126 270.72 
L 126 69.12 
" style="fill: none; stroke: #000000; stroke-width: 3; stroke-linejoin: miter; stroke-linecap: square"/>
   </g>
   <g id="patch_4">
    <path d="M 126 270.72 
L 243.310345 270.72 
" style="fill: none; stroke: #000000; stroke-width: 3; stroke-linejoin: miter; stroke-linecap: square"/>
   </g>
   <g id="text_2">
    <!-- LAL010 -->
    <g transform="translate(139.898922 63.12) scale(0.24 -0.24)">
     <defs>
      <path id="DejaVuSans-4c" d="M 628 4666 
L 1259 4666 
L 1259 531 
L 3531 531 
L 3531 0 
L 628 0 
L 628 4666 
z
" transform="scale(0.015625)"/>
      <path id="DejaVuSans-41" d="M 2188 4044 
L 1331 1722 
L 3047 1722 
L 2188 4044 
z
M 1831 4666 
L 2547 4666 
L 4325 0 
L 3669 0 
L 3244 1197 
L 1141 1197 
L 716 0 
L 50 0 
L 1831 4666 
z
" transform="scale(0.015625)"/>
      <path id="DejaVuSans-30" d="M 2034 4250 
Q 1547 4250 1301 3770 
Q 1056 3291 1056 2328 
Q 1056 1369 1301 889 
Q 1547 409 2034 409 
Q 2525 409 2770 889 
Q 3016 1369 3016 2328 
Q 3016 3291 2770 3770 
Q 2525 4250 2034 4250 
z
M 2034 4750 
Q 2819 4750 3233 4129 
Q 3647 3509 3647 2328 
Q 3647 1150 3233 529 
Q 2819 -91 2034 -91 
Q 1250 -91 836 529 
Q 422 1150 422 2328 
Q 422 3509 836 4129 
Q 1250 4750 2034 4750 
z
" transform="scale(0.015625)"/>
      <path id="DejaVuSans-31" d="M 794 531 
L 1825 531 
L 1825 4091 
L 703 3866 
L 703 4441 
L 1819 4666 
L 2450 4666 
L 2450 531 
L 3481 531 
L 3481 0 
L 794 0 
L 794 531 
z
" transform="scale(0.015625)"/>
     </defs>
     <use xlink:href="#DejaVuSans-4c"/>
     <use xlink:href="#DejaVuSans-41" x="57.962891"/>
     <use xlink:href="#DejaVuSans-4c" x="126.371094"/>
     <use xlink:href="#DejaVuSans-30" x="182.083984"/>
     <use xlink:href="#DejaVuSans-31" x="245.707031"/>
     <use xlink:href="#DejaVuSans-30" x="309.330078"/>
    </g>
   </g>
  </g>
  <g id="axes_2">
   <g id="patch_5">
    <path d="M 266.772414 270.72 
L 384.082759 270.72 
L 384.082759 69.12 
L 266.772414 69.12 
z
" style="fill: #ffffff"/>
   </g>
   <g id="matplotlib.axis_3">
    <g id="xtick_3">
     <g id="line2d_11">
      <g>
       <use xlink:href="#m3d486c7068" x="272.104702" y="270.72" style="stroke: #000000; stroke-width: 0.8"/>
      </g>
     </g>
    </g>
    <g id="xtick_4">
     <g id="line2d_12">
      <g>
       <use xlink:href="#m3d486c7068" x="338.76664" y="270.72" style="stroke: #000000; stroke-width: 0.8"/>
      </g>
     </g>
    </g>
   </g>
   <g id="matplotlib.axis_4">
    <g id="ytick_7"/>
    <g id="ytick_8"/>
    <g id="ytick_9"/>
    <g id="ytick_10"/>
    <g id="ytick_11"/>
    <g id="ytick_12"/>
   </g>
   <g id="line2d_13">
    <path d="M 272.104702 261.556364 
L 273.237955 260.036252 
L 274.117893 259.172851 
L 275.397802 258.396455 
L 277.104348 257.331139 
L 279.650834 255.535947 
L 283.797206 252.24294 
L 284.54382 251.638991 
L 286.210368 249.851188 
L 287.316956 248.467304 
L 288.463542 247.063483 
L 289.410141 246.021439 
L 290.623389 245.062655 
L 291.130019 244.855462 
L 291.676647 244.696767 
L 292.183278 244.290613 
L 293.129877 243.377507 
L 294.64977 242.260371 
L 295.316389 241.462308 
L 295.876349 240.889909 
L 296.396312 240.725411 
L 296.689625 240.542231 
L 298.689483 239.056631 
L 299.249443 238.850212 
L 301.555946 237.935223 
L 302.58254 238.085625 
L 303.089171 238.312637 
L 303.449145 238.311949 
L 303.795787 238.090566 
L 304.262421 237.872689 
L 304.835714 237.864706 
L 305.382342 237.792617 
L 305.982299 237.456634 
L 306.555592 237.329487 
L 308.608779 237.126058 
L 309.515382 237.29606 
L 309.915353 237.364733 
L 310.355322 237.444078 
L 310.808623 237.339637 
L 311.075271 237.364745 
L 311.475243 237.440942 
L 313.088462 236.979539 
L 313.755081 236.481069 
L 314.048393 236.395394 
L 314.47503 236.515792 
L 316.088249 237.248409 
L 317.008183 237.604491 
L 317.701468 237.790187 
L 318.754726 237.636854 
L 319.034706 237.584094 
L 319.701326 237.50156 
L 321.501198 237.342084 
L 321.981164 237.576946 
L 324.19434 237.4415 
L 325.114275 237.430038 
L 326.940812 236.308265 
L 329.313977 234.133581 
L 329.993929 233.739328 
L 331.380497 233.973739 
L 331.700475 233.961808 
L 332.353762 233.696937 
L 332.673739 233.746393 
L 333.447017 234.285754 
L 333.900318 234.484522 
L 334.30029 234.64201 
L 335.633529 235.433066 
L 337.153421 235.428345 
L 337.620055 235.650953 
L 338.273342 236.005123 
L 339.206609 236.096619 
L 339.513254 236.050269 
L 339.886561 235.947815 
L 340.313197 235.842967 
L 341.019813 236.040513 
L 341.619771 236.295268 
L 343.499638 236.887823 
L 344.006268 237.037234 
L 344.366243 237.046342 
L 344.806212 237.016256 
L 345.352839 236.961594 
L 346.246109 236.529057 
L 346.899396 236.087732 
L 348.525948 236.235127 
L 349.752527 236.75782 
L 350.259158 236.847674 
L 350.819118 236.951266 
L 352.325678 236.787691 
L 352.738982 236.809924 
L 353.725579 237.071973 
L 354.152215 237.143937 
L 354.525522 237.182129 
L 355.458789 237.210549 
L 355.845428 237.254601 
L 356.258732 237.395785 
L 357.645301 237.152641 
L 358.405247 237.442716 
L 359.018537 237.224854 
L 359.76515 236.998237 
L 360.805077 237.001731 
L 361.445031 236.687145 
L 362.351634 236.127742 
L 363.33823 234.967075 
L 364.444818 234.521873 
L 364.751463 234.585163 
L 365.711395 234.734384 
L 367.111296 235.674091 
L 368.004566 236.446658 
L 368.937833 236.851322 
L 369.631117 237.37805 
L 370.8177 237.689701 
L 371.271001 237.405426 
L 372.804225 236.096559 
L 373.310856 235.543849 
L 373.72416 235.295865 
L 374.097467 235.092123 
L 374.364115 235.194349 
L 374.790751 235.278518 
L 375.484035 235.357349 
L 376.297311 235.63249 
L 376.870604 235.572838 
L 377.283908 235.529797 
L 377.710544 235.662593 
L 378.323834 236.144583 
L 378.75047 236.721325 
L 378.75047 236.721325 
" clip-path="url(#pa327661e46)" style="fill: none; stroke: #ff0000; stroke-width: 4; stroke-linecap: square"/>
   </g>
   <g id="line2d_14">
    <path d="M 272.104702 261.556364 
L 273.411276 259.772659 
L 274.477867 258.747861 
L 275.904433 257.750501 
L 277.291001 256.961222 
L 278.890887 256.009171 
L 279.557507 255.414289 
L 283.277243 251.231777 
L 284.023857 250.217906 
L 284.637146 249.321509 
L 285.850394 247.08798 
L 288.316885 241.286908 
L 290.623389 235.978015 
L 291.090022 235.013125 
L 292.516588 232.62876 
L 293.476519 230.780535 
L 295.196397 226.888953 
L 297.649557 222.233541 
L 299.156117 218.903316 
L 299.942727 216.638333 
L 300.982654 213.752329 
L 302.02258 211.339906 
L 302.422551 210.759482 
L 302.675867 210.330383 
L 303.502475 208.535473 
L 304.009106 207.090532 
L 304.595731 205.192458 
L 305.462336 203.888035 
L 305.782313 203.847207 
L 306.555592 203.937941 
L 306.822239 203.462506 
L 307.155549 203.106432 
L 307.395532 202.804667 
L 307.822168 201.802141 
L 310.182001 194.226838 
L 310.675299 193.057428 
L 310.95528 192.572691 
L 311.635231 191.851732 
L 311.915211 191.712548 
L 312.315183 191.597919 
L 312.675158 191.391608 
L 313.768413 190.127536 
L 314.675016 189.493747 
L 315.114984 188.87963 
L 315.381632 188.600382 
L 316.634877 187.043672 
L 317.261499 186.419461 
L 318.034777 185.38924 
L 318.528076 184.688797 
L 319.354684 183.471842 
L 320.101297 182.797391 
L 320.807914 182.614754 
L 320.95457 182.529126 
L 321.994496 181.543971 
L 322.287809 181.684522 
L 323.314403 182.674186 
L 324.074349 183.084025 
L 324.500985 183.237964 
L 324.887625 183.469011 
L 325.434252 183.892255 
L 325.874221 184.206623 
L 326.834153 184.454599 
L 327.714091 184.54279 
L 328.074065 184.718284 
L 328.594028 184.935852 
L 329.407304 185.432255 
L 329.687284 185.17069 
L 330.913864 184.103024 
L 331.127182 184.033939 
L 331.487156 183.889406 
L 332.473753 184.208115 
L 332.820395 184.097632 
L 333.300361 183.847562 
L 334.540273 183.483754 
L 335.180228 183.232355 
L 335.633529 183.407532 
L 335.940174 183.513862 
L 336.153492 183.760608 
L 336.473469 184.078541 
L 336.726785 184.057132 
L 337.660052 183.513238 
L 338.006694 183.295098 
L 338.699978 182.536075 
L 338.939961 182.432942 
L 339.246606 182.376298 
L 339.566583 182.260793 
L 339.753237 182.216571 
L 340.099879 181.897306 
L 341.406453 180.155825 
L 341.966413 179.384546 
L 342.646365 178.684929 
L 342.913012 178.667042 
L 343.379646 178.344198 
L 343.566299 178.303313 
L 343.859612 178.270003 
L 345.072859 177.707584 
L 345.459499 177.727343 
L 345.606155 177.844519 
L 345.886135 178.399399 
L 346.646081 179.594362 
L 346.872732 179.821699 
L 347.792666 181.038217 
L 348.112644 181.270615 
L 348.339294 181.230944 
L 348.81926 180.793428 
L 349.405885 180.029849 
L 350.739124 179.49478 
L 351.632394 178.951128 
L 351.83238 178.857769 
L 352.11236 178.71118 
L 352.485667 178.497304 
L 353.392269 177.565736 
L 353.632252 177.338937 
L 354.218877 176.564511 
L 354.45886 176.484372 
L 354.79217 176.447984 
L 355.058818 176.423058 
L 355.285468 176.53776 
L 355.818764 177.337055 
L 356.178738 177.69382 
L 356.365392 177.677823 
L 357.192 177.201196 
L 358.338585 177.188615 
L 358.578568 176.870465 
L 358.885213 176.67181 
L 359.191858 176.645532 
L 359.645159 176.39524 
L 360.005133 176.098349 
L 360.471767 176.130927 
L 360.818409 176.382752 
L 361.111721 176.762643 
L 362.564952 179.338824 
L 363.018253 179.895708 
L 363.324898 180.241944 
L 364.031514 180.3148 
L 364.351492 180.310358 
L 364.56481 180.34915 
L 365.084773 180.380995 
L 365.271426 180.357156 
L 365.391418 180.210983 
L 366.458009 178.540666 
L 366.844648 178.402641 
L 367.124628 178.352681 
L 367.511268 178.273509 
L 367.80458 178.230896 
L 368.124557 177.718451 
L 368.724515 176.757092 
L 369.31114 176.409303 
L 370.084418 176.300416 
L 370.444393 176.304414 
L 370.751038 176.354952 
L 371.09768 176.921201 
L 371.524316 177.387747 
L 372.030947 177.584267 
L 372.27093 177.853435 
L 373.977475 180.455008 
L 374.350782 180.170405 
L 374.817416 179.943205 
L 375.110728 179.797301 
L 375.337379 179.725314 
L 375.817345 179.680683 
L 376.163987 179.321174 
L 376.390638 179.343857 
L 376.96393 179.612104 
L 377.270575 179.533066 
L 377.777206 178.894512 
L 378.75047 176.932457 
L 378.75047 176.932457 
" clip-path="url(#pa327661e46)" style="fill: none; stroke: #0000ff; stroke-width: 4; stroke-linecap: square"/>
   </g>
   <g id="patch_6">
    <path d="M 266.772414 270.72 
L 384.082759 270.72 
" style="fill: none; stroke: #000000; stroke-width: 3; stroke-linejoin: miter; stroke-linecap: square"/>
   </g>
   <g id="text_3">
    <!-- LAL014 -->
    <g transform="translate(280.671336 63.12) scale(0.24 -0.24)">
     <defs>
      <path id="DejaVuSans-34" d="M 2419 4116 
L 825 1625 
L 2419 1625 
L 2419 4116 
z
M 2253 4666 
L 3047 4666 
L 3047 1625 
L 3713 1625 
L 3713 1100 
L 3047 1100 
L 3047 0 
L 2419 0 
L 2419 1100 
L 313 1100 
L 313 1709 
L 2253 4666 
z
" transform="scale(0.015625)"/>
     </defs>
     <use xlink:href="#DejaVuSans-4c"/>
     <use xlink:href="#DejaVuSans-41" x="57.962891"/>
     <use xlink:href="#DejaVuSans-4c" x="126.371094"/>
     <use xlink:href="#DejaVuSans-30" x="182.083984"/>
     <use xlink:href="#DejaVuSans-31" x="245.707031"/>
     <use xlink:href="#DejaVuSans-34" x="309.330078"/>
    </g>
   </g>
  </g>
  <g id="axes_3">
   <g id="patch_7">
    <path d="M 407.544828 270.72 
L 524.855172 270.72 
L 524.855172 69.12 
L 407.544828 69.12 
z
" style="fill: #ffffff"/>
   </g>
   <g id="matplotlib.axis_5">
    <g id="xtick_5">
     <g id="line2d_15">
      <g>
       <use xlink:href="#m3d486c7068" x="412.877116" y="270.72" style="stroke: #000000; stroke-width: 0.8"/>
      </g>
     </g>
    </g>
    <g id="xtick_6">
     <g id="line2d_16">
      <g>
       <use xlink:href="#m3d486c7068" x="479.539054" y="270.72" style="stroke: #000000; stroke-width: 0.8"/>
      </g>
     </g>
    </g>
   </g>
   <g id="matplotlib.axis_6">
    <g id="ytick_13"/>
    <g id="ytick_14"/>
    <g id="ytick_15"/>
    <g id="ytick_16"/>
    <g id="ytick_17"/>
    <g id="ytick_18"/>
   </g>
   <g id="line2d_17">
    <path d="M 412.877116 261.556364 
L 413.743721 260.441708 
L 414.690321 259.586705 
L 415.530261 259.122213 
L 418.476719 257.935601 
L 421.343182 256.724179 
L 423.942998 255.740082 
L 427.369421 254.467019 
L 428.635998 253.936191 
L 431.022495 253.082564 
L 432.062422 253.017429 
L 432.795703 252.958904 
L 439.488562 251.51655 
L 442.315028 251.652589 
L 445.968102 252.351169 
L 446.51473 252.329452 
L 449.034551 252.12065 
L 449.80783 252.250906 
L 453.180924 252.750316 
L 453.94087 252.624468 
L 454.900802 252.398986 
L 456.447359 252.532285 
L 459.433813 252.996689 
L 460.900376 252.951965 
L 462.54026 252.994669 
L 463.366868 253.057577 
L 466.486646 252.84743 
L 468.046536 252.311915 
L 470.646351 251.155361 
L 471.259641 251.114509 
L 472.92619 251.176102 
L 473.699468 251.245924 
L 475.179363 251.722288 
L 476.939238 252.207164 
L 478.699113 252.443933 
L 479.925693 252.627182 
L 481.832224 252.635591 
L 484.352046 253.018084 
L 486.485228 253.077526 
L 487.245174 252.847435 
L 488.098447 252.638478 
L 489.338359 252.542977 
L 490.991575 252.775275 
L 492.431473 252.822536 
L 493.684717 252.840018 
L 496.057882 253.138575 
L 498.804354 253.134379 
L 499.870945 253.120861 
L 501.057527 253.088688 
L 501.777476 253.015658 
L 503.110715 252.65837 
L 504.510616 251.973035 
L 505.697198 251.7521 
L 506.497141 251.791662 
L 507.683724 252.209826 
L 509.323608 252.879336 
L 511.710105 253.516281 
L 512.523381 253.332962 
L 513.883284 252.756246 
L 515.016537 252.296723 
L 516.76308 252.223522 
L 519.216239 252.544167 
L 519.522884 252.716907 
L 519.522884 252.716907 
" clip-path="url(#p2c4c4fba4e)" style="fill: none; stroke: #ff0000; stroke-width: 4; stroke-linecap: square"/>
   </g>
   <g id="line2d_18">
    <path d="M 412.877116 261.556364 
L 413.810383 260.338461 
L 414.676988 259.547566 
L 415.703582 258.899635 
L 417.450125 258.132535 
L 420.889881 256.73442 
L 424.209645 254.734207 
L 426.209504 253.067163 
L 427.142771 251.942092 
L 428.382683 250.156298 
L 430.062564 247.407441 
L 433.102348 241.399558 
L 434.782229 237.452524 
L 436.1288 233.440159 
L 437.595363 228.736333 
L 439.435232 221.227659 
L 440.20851 217.050382 
L 441.461755 208.218351 
L 443.794923 188.774673 
L 445.021502 177.097739 
L 445.981434 168.121759 
L 446.701383 162.973103 
L 447.421332 159.394627 
L 449.061216 149.908792 
L 451.847685 129.879134 
L 452.594299 126.490763 
L 453.55423 123.453059 
L 454.4475 121.062281 
L 455.34077 119.426434 
L 456.154046 117.669182 
L 458.620538 112.373207 
L 461.047032 107.964441 
L 461.500333 107.55829 
L 462.086958 107.020182 
L 462.993561 106.193535 
L 463.32687 106.174629 
L 464.22014 106.337867 
L 465.7267 106.995502 
L 466.366655 107.493848 
L 467.353252 108.172554 
L 469.193121 109.490951 
L 469.806411 110.224668 
L 470.273044 110.715202 
L 470.779675 110.897812 
L 471.219644 110.853729 
L 472.726204 110.631295 
L 473.379491 110.783464 
L 474.086107 110.707621 
L 474.88605 110.443645 
L 475.699326 109.97429 
L 476.232622 109.776962 
L 476.832579 109.764083 
L 477.525863 109.96785 
L 478.272477 109.722425 
L 478.939096 109.256874 
L 480.205673 108.143608 
L 481.205602 107.341132 
L 482.938813 105.064209 
L 483.5921 104.203003 
L 484.605361 103.263661 
L 485.845273 102.396792 
L 486.511892 102.305605 
L 487.05852 102.685117 
L 488.911722 104.573221 
L 489.311694 104.713529 
L 489.671668 104.662339 
L 491.604864 103.751377 
L 494.697978 101.716736 
L 495.191277 101.326547 
L 496.257868 101.00362 
L 497.537777 101.184596 
L 498.284391 101.106121 
L 498.95101 101.092709 
L 501.684149 100.464873 
L 502.070789 100.706067 
L 502.697411 101.345683 
L 504.897255 104.117547 
L 506.217161 104.849286 
L 506.697127 104.550292 
L 507.257087 104.250662 
L 508.883639 103.285245 
L 510.216878 101.92744 
L 511.68344 101.079957 
L 512.776696 101.421009 
L 513.123338 101.683179 
L 513.976611 102.68053 
L 514.869881 103.978398 
L 515.283185 104.135028 
L 516.216452 104.226475 
L 516.656421 104.188843 
L 517.136387 104.04514 
L 518.21631 104.014326 
L 518.696276 103.671259 
L 519.216239 103.078179 
L 519.522884 102.627331 
L 519.522884 102.627331 
" clip-path="url(#p2c4c4fba4e)" style="fill: none; stroke: #0000ff; stroke-width: 4; stroke-linecap: square"/>
   </g>
   <g id="patch_8">
    <path d="M 407.544828 270.72 
L 524.855172 270.72 
" style="fill: none; stroke: #000000; stroke-width: 3; stroke-linejoin: miter; stroke-linecap: square"/>
   </g>
   <g id="text_4">
    <!-- LAL018 -->
    <g transform="translate(421.44375 63.12) scale(0.24 -0.24)">
     <defs>
      <path id="DejaVuSans-38" d="M 2034 2216 
Q 1584 2216 1326 1975 
Q 1069 1734 1069 1313 
Q 1069 891 1326 650 
Q 1584 409 2034 409 
Q 2484 409 2743 651 
Q 3003 894 3003 1313 
Q 3003 1734 2745 1975 
Q 2488 2216 2034 2216 
z
M 1403 2484 
Q 997 2584 770 2862 
Q 544 3141 544 3541 
Q 544 4100 942 4425 
Q 1341 4750 2034 4750 
Q 2731 4750 3128 4425 
Q 3525 4100 3525 3541 
Q 3525 3141 3298 2862 
Q 3072 2584 2669 2484 
Q 3125 2378 3379 2068 
Q 3634 1759 3634 1313 
Q 3634 634 3220 271 
Q 2806 -91 2034 -91 
Q 1263 -91 848 271 
Q 434 634 434 1313 
Q 434 1759 690 2068 
Q 947 2378 1403 2484 
z
M 1172 3481 
Q 1172 3119 1398 2916 
Q 1625 2713 2034 2713 
Q 2441 2713 2670 2916 
Q 2900 3119 2900 3481 
Q 2900 3844 2670 4047 
Q 2441 4250 2034 4250 
Q 1625 4250 1398 4047 
Q 1172 3844 1172 3481 
z
" transform="scale(0.015625)"/>
     </defs>
     <use xlink:href="#DejaVuSans-4c"/>
     <use xlink:href="#DejaVuSans-41" x="57.962891"/>
     <use xlink:href="#DejaVuSans-4c" x="126.371094"/>
     <use xlink:href="#DejaVuSans-30" x="182.083984"/>
     <use xlink:href="#DejaVuSans-31" x="245.707031"/>
     <use xlink:href="#DejaVuSans-38" x="309.330078"/>
    </g>
   </g>
  </g>
  <g id="axes_4">
   <g id="patch_9">
    <path d="M 548.317241 270.72 
L 665.627586 270.72 
L 665.627586 69.12 
L 548.317241 69.12 
z
" style="fill: #ffffff"/>
   </g>
   <g id="matplotlib.axis_7">
    <g id="xtick_7">
     <g id="line2d_19">
      <g>
       <use xlink:href="#m3d486c7068" x="553.64953" y="270.72" style="stroke: #000000; stroke-width: 0.8"/>
      </g>
     </g>
    </g>
    <g id="xtick_8">
     <g id="line2d_20">
      <g>
       <use xlink:href="#m3d486c7068" x="620.311468" y="270.72" style="stroke: #000000; stroke-width: 0.8"/>
      </g>
     </g>
    </g>
   </g>
   <g id="matplotlib.axis_8">
    <g id="ytick_19"/>
    <g id="ytick_20"/>
    <g id="ytick_21"/>
    <g id="ytick_22"/>
    <g id="ytick_23"/>
    <g id="ytick_24"/>
   </g>
   <g id="line2d_21">
    <path d="M 553.64953 261.556364 
L 554.369479 261.040991 
L 555.236084 260.701168 
L 556.422666 260.489752 
L 558.409192 260.390931 
L 563.062195 260.428056 
L 569.941707 260.696503 
L 578.141126 261.006378 
L 592.980073 261.254728 
L 610.378839 261.268487 
L 660.295298 261.302263 
L 660.295298 261.302263 
" clip-path="url(#pd5e102416e)" style="fill: none; stroke: #ff0000; stroke-width: 4; stroke-linecap: square"/>
   </g>
   <g id="line2d_22">
    <path d="M 553.64953 261.556364 
L 554.369479 261.040757 
L 555.236084 260.699675 
L 556.435999 260.483318 
L 558.422525 260.377834 
L 563.222184 260.410849 
L 581.300902 260.559491 
L 585.767251 260.357671 
L 594.619957 259.943084 
L 608.992271 259.823408 
L 615.965109 260.021288 
L 624.804482 259.781795 
L 628.404227 259.778897 
L 631.164031 259.777179 
L 636.563648 259.69281 
L 643.736472 259.724592 
L 649.242749 259.868943 
L 654.44238 259.768635 
L 657.695482 259.830392 
L 660.295298 259.790212 
L 660.295298 259.790212 
" clip-path="url(#pd5e102416e)" style="fill: none; stroke: #0000ff; stroke-width: 4; stroke-linecap: square"/>
   </g>
   <g id="patch_10">
    <path d="M 548.317241 270.72 
L 665.627586 270.72 
" style="fill: none; stroke: #000000; stroke-width: 3; stroke-linejoin: miter; stroke-linecap: square"/>
   </g>
   <g id="text_5">
    <!-- DNa01 -->
    <g transform="translate(566.131164 63.12) scale(0.24 -0.24)">
     <defs>
      <path id="DejaVuSans-44" d="M 1259 4147 
L 1259 519 
L 2022 519 
Q 2988 519 3436 956 
Q 3884 1394 3884 2338 
Q 3884 3275 3436 3711 
Q 2988 4147 2022 4147 
L 1259 4147 
z
M 628 4666 
L 1925 4666 
Q 3281 4666 3915 4102 
Q 4550 3538 4550 2338 
Q 4550 1131 3912 565 
Q 3275 0 1925 0 
L 628 0 
L 628 4666 
z
" transform="scale(0.015625)"/>
      <path id="DejaVuSans-4e" d="M 628 4666 
L 1478 4666 
L 3547 763 
L 3547 4666 
L 4159 4666 
L 4159 0 
L 3309 0 
L 1241 3903 
L 1241 0 
L 628 0 
L 628 4666 
z
" transform="scale(0.015625)"/>
     </defs>
     <use xlink:href="#DejaVuSans-44"/>
     <use xlink:href="#DejaVuSans-4e" x="77.001953"/>
     <use xlink:href="#DejaVuSans-61" x="151.806641"/>
     <use xlink:href="#DejaVuSans-30" x="213.085938"/>
     <use xlink:href="#DejaVuSans-31" x="276.708984"/>
    </g>
   </g>
  </g>
  <g id="axes_5">
   <g id="patch_11">
    <path d="M 689.089655 270.72 
L 806.4 270.72 
L 806.4 69.12 
L 689.089655 69.12 
z
" style="fill: #ffffff"/>
   </g>
   <g id="matplotlib.axis_9">
    <g id="xtick_9">
     <g id="line2d_23">
      <g>
       <use xlink:href="#m3d486c7068" x="694.421944" y="270.72" style="stroke: #000000; stroke-width: 0.8"/>
      </g>
     </g>
    </g>
    <g id="xtick_10">
     <g id="line2d_24">
      <g>
       <use xlink:href="#m3d486c7068" x="761.083881" y="270.72" style="stroke: #000000; stroke-width: 0.8"/>
      </g>
     </g>
    </g>
   </g>
   <g id="matplotlib.axis_10">
    <g id="ytick_25"/>
    <g id="ytick_26"/>
    <g id="ytick_27"/>
    <g id="ytick_28"/>
    <g id="ytick_29"/>
    <g id="ytick_30"/>
   </g>
   <g id="line2d_25">
    <path d="M 694.421944 261.556364 
L 695.435205 260.768805 
L 696.488464 260.209604 
L 698.195009 259.683576 
L 702.581365 258.335164 
L 707.461019 256.705806 
L 708.247629 256.348829 
L 711.140758 254.753734 
L 712.367337 254.131697 
L 713.447261 253.780571 
L 714.44719 253.527887 
L 720.153452 250.937546 
L 720.900065 250.59583 
L 723.526546 250.029623 
L 724.433148 250.013332 
L 725.139764 250.166354 
L 726.073032 250.288684 
L 726.886307 250.285127 
L 727.79291 250.35061 
L 730.712702 249.940408 
L 731.232666 249.993086 
L 732.53924 250.207189 
L 734.245785 250.428759 
L 735.232382 250.413203 
L 737.192243 250.006599 
L 738.138842 250.14831 
L 740.685328 250.762607 
L 741.658593 250.77547 
L 748.204795 250.597075 
L 749.884676 249.745546 
L 752.671145 247.84235 
L 753.377761 247.720303 
L 755.430949 247.639519 
L 758.830708 249.010464 
L 759.577322 249.165829 
L 761.750501 249.748427 
L 762.577109 249.730801 
L 763.337055 249.818663 
L 765.696887 250.382933 
L 767.616751 250.626784 
L 768.576683 250.467352 
L 769.603277 250.13847 
L 770.843189 250.003887 
L 772.229757 250.217982 
L 773.816311 250.377589 
L 775.509525 250.441968 
L 777.909354 250.757911 
L 783.13565 250.723112 
L 784.92219 250.060155 
L 786.068776 249.257586 
L 787.588668 248.673035 
L 788.281952 248.691943 
L 789.041898 248.941821 
L 790.188483 249.661016 
L 790.988427 250.035522 
L 792.90829 251.010272 
L 793.454918 251.065035 
L 794.69483 250.773794 
L 795.228126 250.441555 
L 796.068066 249.906163 
L 796.708021 249.627817 
L 798.361237 249.380062 
L 799.361166 249.357161 
L 799.921126 249.374301 
L 800.521084 249.532742 
L 801.067712 249.904968 
L 801.067712 249.904968 
" clip-path="url(#pc7f7f8922f)" style="fill: none; stroke: #ff0000; stroke-width: 4; stroke-linecap: square"/>
   </g>
   <g id="line2d_26">
    <path d="M 694.421944 261.556364 
L 695.528532 260.684681 
L 696.621788 260.101043 
L 698.101683 259.568774 
L 700.061544 259.046503 
L 701.94141 258.478011 
L 705.554487 256.707139 
L 707.701002 255.093995 
L 708.594272 254.064288 
L 709.540871 252.682925 
L 710.460806 251.073689 
L 711.834042 248.197963 
L 713.16728 244.539079 
L 715.247133 238.069865 
L 716.087073 234.605379 
L 717.313653 228.168545 
L 718.820213 218.650557 
L 719.860139 210.529641 
L 720.886733 201.165593 
L 721.726673 191.885513 
L 722.806597 176.697568 
L 726.792981 118.025422 
L 727.686251 108.452566 
L 728.392867 102.8934 
L 729.179478 98.477472 
L 730.059415 94.630351 
L 731.779293 88.017937 
L 732.699228 85.333501 
L 733.512504 83.570311 
L 734.312447 82.3806 
L 735.125723 81.561805 
L 736.072322 80.885489 
L 737.298902 80.322441 
L 739.138771 79.716346 
L 742.578527 78.961749 
L 744.831701 78.737423 
L 747.511511 78.759718 
L 754.404355 78.977424 
L 757.697455 78.900816 
L 763.897015 78.65904 
L 767.643416 78.405697 
L 769.616609 78.453104 
L 772.363081 78.514576 
L 775.81617 78.401749 
L 780.149196 78.322792 
L 785.735466 78.413755 
L 788.601929 78.481817 
L 795.908078 78.406964 
L 797.961265 78.478213 
L 801.067712 78.41269 
L 801.067712 78.41269 
" clip-path="url(#pc7f7f8922f)" style="fill: none; stroke: #0000ff; stroke-width: 4; stroke-linecap: square"/>
   </g>
   <g id="patch_12">
    <path d="M 689.089655 270.72 
L 806.4 270.72 
" style="fill: none; stroke: #000000; stroke-width: 3; stroke-linejoin: miter; stroke-linecap: square"/>
   </g>
   <g id="text_6">
    <!-- DNa02 -->
    <g transform="translate(706.903578 63.12) scale(0.24 -0.24)">
     <defs>
      <path id="DejaVuSans-32" d="M 1228 531 
L 3431 531 
L 3431 0 
L 469 0 
L 469 531 
Q 828 903 1448 1529 
Q 2069 2156 2228 2338 
Q 2531 2678 2651 2914 
Q 2772 3150 2772 3378 
Q 2772 3750 2511 3984 
Q 2250 4219 1831 4219 
Q 1534 4219 1204 4116 
Q 875 4013 500 3803 
L 500 4441 
Q 881 4594 1212 4672 
Q 1544 4750 1819 4750 
Q 2544 4750 2975 4387 
Q 3406 4025 3406 3419 
Q 3406 3131 3298 2873 
Q 3191 2616 2906 2266 
Q 2828 2175 2409 1742 
Q 1991 1309 1228 531 
z
" transform="scale(0.015625)"/>
     </defs>
     <use xlink:href="#DejaVuSans-44"/>
     <use xlink:href="#DejaVuSans-4e" x="77.001953"/>
     <use xlink:href="#DejaVuSans-61" x="151.806641"/>
     <use xlink:href="#DejaVuSans-30" x="213.085938"/>
     <use xlink:href="#DejaVuSans-32" x="276.708984"/>
    </g>
   </g>
  </g>
  <g id="axes_6">
   <g id="patch_13">
    <path d="M 126 512.64 
L 243.310345 512.64 
L 243.310345 311.04 
L 126 311.04 
z
" style="fill: #ffffff"/>
   </g>
   <g id="matplotlib.axis_11">
    <g id="xtick_11">
     <g id="line2d_27">
      <g>
       <use xlink:href="#m3d486c7068" x="131.332288" y="512.64" style="stroke: #000000; stroke-width: 0.8"/>
      </g>
     </g>
     <g id="text_7">
      <!-- 0 -->
      <g transform="translate(126.878538 530.277812) scale(0.14 -0.14)">
       <use xlink:href="#DejaVuSans-30"/>
      </g>
     </g>
    </g>
    <g id="xtick_12">
     <g id="line2d_28">
      <g>
       <use xlink:href="#m3d486c7068" x="197.994226" y="512.64" style="stroke: #000000; stroke-width: 0.8"/>
      </g>
     </g>
     <g id="text_8">
      <!-- 500 -->
      <g transform="translate(184.632976 530.277812) scale(0.14 -0.14)">
       <defs>
        <path id="DejaVuSans-35" d="M 691 4666 
L 3169 4666 
L 3169 4134 
L 1269 4134 
L 1269 2991 
Q 1406 3038 1543 3061 
Q 1681 3084 1819 3084 
Q 2600 3084 3056 2656 
Q 3513 2228 3513 1497 
Q 3513 744 3044 326 
Q 2575 -91 1722 -91 
Q 1428 -91 1123 -41 
Q 819 9 494 109 
L 494 744 
Q 775 591 1075 516 
Q 1375 441 1709 441 
Q 2250 441 2565 725 
Q 2881 1009 2881 1497 
Q 2881 1984 2565 2268 
Q 2250 2553 1709 2553 
Q 1456 2553 1204 2497 
Q 953 2441 691 2322 
L 691 4666 
z
" transform="scale(0.015625)"/>
       </defs>
       <use xlink:href="#DejaVuSans-35"/>
       <use xlink:href="#DejaVuSans-30" x="63.623047"/>
       <use xlink:href="#DejaVuSans-30" x="127.246094"/>
      </g>
     </g>
    </g>
    <g id="text_9">
     <!-- Time (ms) -->
     <g transform="translate(129.216891 553.905938) scale(0.22 -0.22)">
      <defs>
       <path id="DejaVuSans-54" d="M -19 4666 
L 3928 4666 
L 3928 4134 
L 2272 4134 
L 2272 0 
L 1638 0 
L 1638 4134 
L -19 4134 
L -19 4666 
z
" transform="scale(0.015625)"/>
       <path id="DejaVuSans-6d" d="M 3328 2828 
Q 3544 3216 3844 3400 
Q 4144 3584 4550 3584 
Q 5097 3584 5394 3201 
Q 5691 2819 5691 2113 
L 5691 0 
L 5113 0 
L 5113 2094 
Q 5113 2597 4934 2840 
Q 4756 3084 4391 3084 
Q 3944 3084 3684 2787 
Q 3425 2491 3425 1978 
L 3425 0 
L 2847 0 
L 2847 2094 
Q 2847 2600 2669 2842 
Q 2491 3084 2119 3084 
Q 1678 3084 1418 2786 
Q 1159 2488 1159 1978 
L 1159 0 
L 581 0 
L 581 3500 
L 1159 3500 
L 1159 2956 
Q 1356 3278 1631 3431 
Q 1906 3584 2284 3584 
Q 2666 3584 2933 3390 
Q 3200 3197 3328 2828 
z
" transform="scale(0.015625)"/>
       <path id="DejaVuSans-28" d="M 1984 4856 
Q 1566 4138 1362 3434 
Q 1159 2731 1159 2009 
Q 1159 1288 1364 580 
Q 1569 -128 1984 -844 
L 1484 -844 
Q 1016 -109 783 600 
Q 550 1309 550 2009 
Q 550 2706 781 3412 
Q 1013 4119 1484 4856 
L 1984 4856 
z
" transform="scale(0.015625)"/>
       <path id="DejaVuSans-73" d="M 2834 3397 
L 2834 2853 
Q 2591 2978 2328 3040 
Q 2066 3103 1784 3103 
Q 1356 3103 1142 2972 
Q 928 2841 928 2578 
Q 928 2378 1081 2264 
Q 1234 2150 1697 2047 
L 1894 2003 
Q 2506 1872 2764 1633 
Q 3022 1394 3022 966 
Q 3022 478 2636 193 
Q 2250 -91 1575 -91 
Q 1294 -91 989 -36 
Q 684 19 347 128 
L 347 722 
Q 666 556 975 473 
Q 1284 391 1588 391 
Q 1994 391 2212 530 
Q 2431 669 2431 922 
Q 2431 1156 2273 1281 
Q 2116 1406 1581 1522 
L 1381 1569 
Q 847 1681 609 1914 
Q 372 2147 372 2553 
Q 372 3047 722 3315 
Q 1072 3584 1716 3584 
Q 2034 3584 2315 3537 
Q 2597 3491 2834 3397 
z
" transform="scale(0.015625)"/>
       <path id="DejaVuSans-29" d="M 513 4856 
L 1013 4856 
Q 1481 4119 1714 3412 
Q 1947 2706 1947 2009 
Q 1947 1309 1714 600 
Q 1481 -109 1013 -844 
L 513 -844 
Q 928 -128 1133 580 
Q 1338 1288 1338 2009 
Q 1338 2731 1133 3434 
Q 928 4138 513 4856 
z
" transform="scale(0.015625)"/>
      </defs>
      <use xlink:href="#DejaVuSans-54"/>
      <use xlink:href="#DejaVuSans-69" x="57.958984"/>
      <use xlink:href="#DejaVuSans-6d" x="85.742188"/>
      <use xlink:href="#DejaVuSans-65" x="183.154297"/>
      <use xlink:href="#DejaVuSans-20" x="244.677734"/>
      <use xlink:href="#DejaVuSans-28" x="276.464844"/>
      <use xlink:href="#DejaVuSans-6d" x="315.478516"/>
      <use xlink:href="#DejaVuSans-73" x="412.890625"/>
      <use xlink:href="#DejaVuSans-29" x="464.990234"/>
     </g>
    </g>
   </g>
   <g id="matplotlib.axis_12">
    <g id="ytick_31">
     <g id="line2d_29">
      <g>
       <use xlink:href="#mbe4322b38f" x="126" y="503.476364" style="stroke: #000000; stroke-width: 0.8"/>
      </g>
     </g>
    </g>
    <g id="ytick_32">
     <g id="line2d_30">
      <g>
       <use xlink:href="#mbe4322b38f" x="126" y="466.655248" style="stroke: #000000; stroke-width: 0.8"/>
      </g>
     </g>
    </g>
    <g id="ytick_33">
     <g id="line2d_31">
      <g>
       <use xlink:href="#mbe4322b38f" x="126" y="429.834132" style="stroke: #000000; stroke-width: 0.8"/>
      </g>
     </g>
    </g>
    <g id="ytick_34">
     <g id="line2d_32">
      <g>
       <use xlink:href="#mbe4322b38f" x="126" y="393.013017" style="stroke: #000000; stroke-width: 0.8"/>
      </g>
     </g>
    </g>
    <g id="ytick_35">
     <g id="line2d_33">
      <g>
       <use xlink:href="#mbe4322b38f" x="126" y="356.191901" style="stroke: #000000; stroke-width: 0.8"/>
      </g>
     </g>
    </g>
    <g id="ytick_36">
     <g id="line2d_34">
      <g>
       <use xlink:href="#mbe4322b38f" x="126" y="319.370786" style="stroke: #000000; stroke-width: 0.8"/>
      </g>
     </g>
    </g>
    <g id="text_10">
     <!-- firing rate -->
     <g transform="translate(110.424688 466.140469) rotate(-90) scale(0.22 -0.22)">
      <use xlink:href="#DejaVuSans-66"/>
      <use xlink:href="#DejaVuSans-69" x="35.205078"/>
      <use xlink:href="#DejaVuSans-72" x="62.988281"/>
      <use xlink:href="#DejaVuSans-69" x="104.101562"/>
      <use xlink:href="#DejaVuSans-6e" x="131.884766"/>
      <use xlink:href="#DejaVuSans-67" x="195.263672"/>
      <use xlink:href="#DejaVuSans-20" x="258.740234"/>
      <use xlink:href="#DejaVuSans-72" x="290.527344"/>
      <use xlink:href="#DejaVuSans-61" x="331.640625"/>
      <use xlink:href="#DejaVuSans-74" x="392.919922"/>
      <use xlink:href="#DejaVuSans-65" x="432.128906"/>
     </g>
    </g>
   </g>
   <g id="line2d_35">
    <path d="M 131.332288 503.476364 
L 133.478803 501.642114 
L 135.718644 500.257656 
L 138.451783 497.773439 
L 139.251727 496.849277 
L 140.438309 495.28087 
L 144.13138 490.687533 
L 144.864662 489.505688 
L 146.25123 486.230072 
L 147.691128 482.879522 
L 148.637727 480.661247 
L 149.610992 478.853723 
L 150.357605 477.941079 
L 150.824239 477.621846 
L 151.304205 476.768886 
L 151.864165 475.149651 
L 152.304134 474.316082 
L 153.037415 473.075458 
L 154.157336 470.676572 
L 155.050606 468.240621 
L 155.503907 467.743339 
L 155.823884 467.387586 
L 156.35718 466.100752 
L 156.783816 465.143455 
L 157.010467 464.66667 
L 157.570427 463.289947 
L 158.023728 462.80988 
L 158.797007 461.625683 
L 159.943592 459.639195 
L 160.43689 458.833667 
L 160.836862 458.42497 
L 161.730132 458.039658 
L 162.490078 458.270577 
L 162.796723 457.860478 
L 163.463342 456.504205 
L 163.916644 456.143386 
L 164.39661 455.934071 
L 164.636593 455.753255 
L 165.076561 455.098713 
L 165.596524 454.786382 
L 165.943166 454.930111 
L 166.236479 455.03672 
L 166.46313 455.085539 
L 166.729777 455.028683 
L 167.30307 454.70567 
L 167.569718 454.488396 
L 167.823033 454.343202 
L 168.369661 454.059094 
L 169.209601 453.265419 
L 169.329593 453.1671 
L 170.209531 451.941162 
L 170.356187 451.993852 
L 170.582837 452.071094 
L 171.342783 451.768498 
L 172.10273 451.660928 
L 172.369377 451.078939 
L 172.995999 449.96735 
L 173.22265 449.809337 
L 173.769278 450.321272 
L 174.182582 450.636886 
L 174.369235 450.765247 
L 174.742542 451.053803 
L 175.022522 451.230455 
L 176.155775 452.216772 
L 176.355761 452.392685 
L 176.662406 452.586714 
L 177.062378 452.510793 
L 177.422352 452.248928 
L 177.649003 452.241119 
L 177.822324 452.210887 
L 178.008977 451.816216 
L 178.262293 451.574774 
L 178.728926 451.211777 
L 179.222224 450.536348 
L 180.568796 449.457399 
L 180.835443 449.759474 
L 181.128756 449.995309 
L 182.048691 449.708535 
L 182.315338 449.636993 
L 183.261938 449.541055 
L 184.208537 450.181558 
L 184.421856 450.13577 
L 185.155137 449.666938 
L 185.355123 449.620559 
L 185.528444 449.569824 
L 185.95508 449.231697 
L 186.368384 448.540346 
L 187.234989 446.754306 
L 189.101524 443.985343 
L 189.341507 443.938972 
L 189.594822 443.943061 
L 189.728146 443.966211 
L 189.954796 444.027519 
L 190.301439 443.816793 
L 190.861399 443.510709 
L 191.674674 442.250078 
L 191.887993 442.260397 
L 193.034578 443.552878 
L 193.487879 443.620781 
L 193.847854 443.97554 
L 194.941109 444.754395 
L 195.581064 444.746731 
L 195.78105 444.784788 
L 195.981036 444.81259 
L 196.527664 445.516702 
L 197.394269 446.843211 
L 198.234209 447.31384 
L 198.74084 447.006297 
L 199.034152 446.943651 
L 199.420792 446.654765 
L 199.700772 446.663891 
L 201.273993 448.077213 
L 201.580638 447.969448 
L 202.273923 448.291568 
L 202.447244 448.299229 
L 202.753889 448.224662 
L 202.993871 448.221319 
L 203.48717 448.386968 
L 203.993801 448.067302 
L 204.353775 448.069734 
L 204.487099 447.981443 
L 204.793744 447.775004 
L 204.980397 447.66828 
L 205.50036 446.943195 
L 205.83367 446.490341 
L 206.11365 446.503749 
L 207.326897 447.681455 
L 207.95352 448.503036 
L 208.393488 449.009518 
L 208.833457 449.427111 
L 209.40675 449.647124 
L 210.073369 449.899025 
L 210.63333 449.553094 
L 211.353278 448.982899 
L 211.953236 448.664902 
L 212.886503 448.912483 
L 213.153151 448.755167 
L 213.53979 448.757334 
L 213.913097 448.755635 
L 214.139747 448.828975 
L 215.006353 448.582184 
L 215.526316 449.382439 
L 216.419586 448.832806 
L 216.632904 448.71268 
L 216.819557 448.85647 
L 217.659498 449.720991 
L 217.939478 449.615319 
L 218.952739 448.572756 
L 219.206055 448.684742 
L 219.419373 448.721688 
L 219.752683 448.606782 
L 220.059328 448.214653 
L 220.325975 447.870531 
L 221.232578 447.337845 
L 221.445896 447.103127 
L 221.819203 446.190155 
L 222.445825 444.877734 
L 222.659143 444.812191 
L 223.245768 444.557301 
L 223.605743 444.143826 
L 223.64574 444.176886 
L 223.939052 444.314238 
L 225.032308 444.108695 
L 225.845584 444.304003 
L 226.312217 444.916493 
L 226.698857 445.727505 
L 227.16549 446.324207 
L 227.458803 446.364269 
L 227.672121 446.272197 
L 227.832109 446.285383 
L 228.032095 446.608571 
L 228.95203 447.954705 
L 229.192013 448.060145 
L 229.498658 448.182548 
L 229.978624 448.44094 
L 230.378596 447.961305 
L 230.68524 447.631065 
L 230.871894 447.410941 
L 231.311863 446.86378 
L 231.591843 446.747686 
L 231.818493 446.365194 
L 232.391786 445.227206 
L 232.565107 445.285964 
L 232.925082 445.386714 
L 233.1384 445.37617 
L 233.338386 445.553992 
L 234.005005 446.440667 
L 234.418309 446.398793 
L 234.64496 446.449561 
L 234.898275 446.640445 
L 235.124925 446.733812 
L 235.53823 446.970652 
L 235.831542 446.862736 
L 236.404835 446.387972 
L 236.844803 446.535754 
L 236.978127 446.646779 
L 237.151448 446.683625 
L 237.284772 446.741033 
L 237.49809 447.187053 
L 237.978056 448.298429 
L 237.978056 448.298429 
" clip-path="url(#p2f7bbae9cc)" style="fill: none; stroke: #ff0000; stroke-width: 4; stroke-linecap: square"/>
   </g>
   <g id="line2d_36">
    <path d="M 131.332288 503.476364 
L 134.278746 500.903521 
L 137.278533 498.779136 
L 138.478448 497.643611 
L 138.985079 496.831783 
L 139.878349 495.357603 
L 142.358173 490.985383 
L 143.064789 489.33718 
L 143.838068 487.670025 
L 144.971321 484.356877 
L 150.290943 464.355342 
L 150.597588 463.890053 
L 150.904233 463.416652 
L 151.317537 462.266133 
L 152.077483 460.062272 
L 152.344131 459.215394 
L 153.557378 455.155963 
L 153.850691 454.341797 
L 154.383986 452.574168 
L 155.437245 450.082332 
L 155.69056 449.59001 
L 156.277186 447.751361 
L 156.823813 446.274116 
L 157.143791 445.178437 
L 157.53043 444.140826 
L 157.917069 443.105011 
L 160.250237 435.403725 
L 161.196837 433.277336 
L 161.463484 432.961817 
L 161.836791 432.679006 
L 163.063371 430.307441 
L 163.943308 427.637901 
L 164.556598 427.594628 
L 164.769916 427.732447 
L 165.316544 428.498629 
L 165.649854 429.023897 
L 165.703184 428.99144 
L 165.889837 428.789511 
L 166.236479 428.336627 
L 166.609786 428.075218 
L 166.956428 427.284312 
L 167.316402 425.856418 
L 168.729635 420.567323 
L 169.756229 418.321295 
L 170.182866 417.685405 
L 170.529508 417.648996 
L 170.756158 417.696841 
L 171.369448 418.097471 
L 171.862747 418.402196 
L 172.196056 417.987014 
L 173.142656 416.882408 
L 173.929267 416.349066 
L 174.329238 415.788323 
L 174.515892 415.612056 
L 175.129182 414.920418 
L 175.275838 414.800478 
L 175.62248 414.589087 
L 175.915792 414.598981 
L 176.169108 414.718406 
L 176.342429 414.573872 
L 177.009048 413.885277 
L 177.182369 413.879684 
L 177.515679 413.615466 
L 177.715665 413.291586 
L 178.608935 411.865488 
L 179.662193 410.725393 
L 179.875511 410.701555 
L 180.155492 410.577884 
L 181.128756 409.240306 
L 181.315409 409.284524 
L 181.662051 409.77603 
L 181.982029 410.301519 
L 182.128685 410.440887 
L 182.488659 410.762255 
L 183.768569 411.38635 
L 185.195134 413.146248 
L 185.408452 413.240119 
L 185.621771 413.276724 
L 185.848421 413.23621 
L 186.048407 413.197754 
L 186.488376 412.950375 
L 186.661697 412.920822 
L 187.154995 412.668954 
L 187.421643 412.611489 
L 187.821614 412.439208 
L 188.208254 412.573939 
L 188.40824 412.673956 
L 188.594893 412.506287 
L 188.821544 412.044011 
L 189.488163 410.508176 
L 189.834805 409.952571 
L 190.061456 409.724561 
L 190.42143 409.34398 
L 190.768072 409.132706 
L 191.528018 409.123085 
L 192.287964 408.226336 
L 192.474618 408.189971 
L 192.701268 408.154697 
L 192.861257 408.14893 
L 193.914516 407.809034 
L 194.194496 407.602373 
L 194.407814 407.717047 
L 195.474405 409.301292 
L 195.767717 409.629182 
L 196.11436 409.414192 
L 196.461002 409.165471 
L 196.780979 409.307537 
L 197.087624 409.276436 
L 197.23428 409.234553 
L 197.554257 409.032858 
L 197.860902 408.964673 
L 198.100885 408.920004 
L 198.514189 409.121537 
L 198.767505 409.142028 
L 198.994155 409.234835 
L 199.234138 409.076198 
L 200.354059 407.870817 
L 200.460718 407.761181 
L 200.914019 407.201829 
L 201.08734 407.159628 
L 201.353988 406.85552 
L 201.820621 406.461854 
L 201.98061 406.508442 
L 203.287184 406.308465 
L 203.980468 405.957534 
L 204.793744 406.259454 
L 205.033727 406.889766 
L 205.393701 407.655208 
L 206.67361 409.290561 
L 206.900261 409.496576 
L 207.300233 409.92285 
L 207.473554 409.89359 
L 207.940187 409.451967 
L 208.700133 408.422992 
L 209.313423 408.777726 
L 209.486744 408.859842 
L 209.74006 408.764236 
L 210.446676 408.37086 
L 211.859909 407.067273 
L 212.406537 406.233965 
L 212.873171 406.012546 
L 213.366469 405.238226 
L 213.699779 405.227007 
L 213.979759 405.343365 
L 214.313069 405.392259 
L 214.48639 405.572504 
L 214.873029 406.327586 
L 215.352995 407.269263 
L 215.552981 407.365524 
L 215.819628 407.079995 
L 216.179603 406.684821 
L 216.566242 406.501757 
L 217.419515 406.699888 
L 217.699495 406.424949 
L 218.032805 406.074921 
L 218.806083 405.941747 
L 219.45937 405.32063 
L 219.619359 405.408073 
L 220.01933 405.73429 
L 220.40597 406.312956 
L 220.739279 406.876013 
L 220.925933 407.274506 
L 221.499225 408.409566 
L 221.80587 408.567443 
L 222.165845 408.624663 
L 222.432493 408.89565 
L 222.552484 408.830328 
L 224.179035 407.223599 
L 224.579007 406.789159 
L 225.445612 404.472423 
L 226.032237 404.104932 
L 226.258888 404.199098 
L 226.738854 404.368921 
L 227.032166 404.54323 
L 227.312146 404.18743 
L 227.938769 403.363344 
L 228.205416 403.340673 
L 228.632053 403.576844 
L 229.085354 404.054502 
L 229.245343 404.021351 
L 229.445328 403.985266 
L 229.938627 404.434891 
L 230.765235 406.081003 
L 231.271865 406.225242 
L 231.525181 406.648941 
L 231.898488 407.259783 
L 232.071809 407.410126 
L 233.071738 409.350241 
L 233.325053 409.111083 
L 234.151661 408.140512 
L 234.5383 407.816751 
L 235.044931 407.70966 
L 235.364908 407.268987 
L 235.631556 407.355741 
L 236.04486 407.690134 
L 236.404835 407.707218 
L 236.71148 407.183474 
L 237.044789 406.435953 
L 237.404764 405.623133 
L 237.951392 404.347348 
L 237.978056 404.309548 
L 237.978056 404.309548 
" clip-path="url(#p2f7bbae9cc)" style="fill: none; stroke: #0000ff; stroke-width: 4; stroke-linecap: square"/>
   </g>
   <g id="patch_14">
    <path d="M 126 512.64 
L 126 311.04 
" style="fill: none; stroke: #000000; stroke-width: 3; stroke-linejoin: miter; stroke-linecap: square"/>
   </g>
   <g id="patch_15">
    <path d="M 126 512.64 
L 243.310345 512.64 
" style="fill: none; stroke: #000000; stroke-width: 3; stroke-linejoin: miter; stroke-linecap: square"/>
   </g>
   <g id="text_11">
    <!-- LAL040 -->
    <g transform="translate(139.898922 305.04) scale(0.24 -0.24)">
     <use xlink:href="#DejaVuSans-4c"/>
     <use xlink:href="#DejaVuSans-41" x="57.962891"/>
     <use xlink:href="#DejaVuSans-4c" x="126.371094"/>
     <use xlink:href="#DejaVuSans-30" x="182.083984"/>
     <use xlink:href="#DejaVuSans-34" x="245.707031"/>
     <use xlink:href="#DejaVuSans-30" x="309.330078"/>
    </g>
   </g>
  </g>
  <g id="axes_7">
   <g id="patch_16">
    <path d="M 266.772414 512.64 
L 384.082759 512.64 
L 384.082759 311.04 
L 266.772414 311.04 
z
" style="fill: #ffffff"/>
   </g>
   <g id="matplotlib.axis_13">
    <g id="xtick_13">
     <g id="line2d_37">
      <g>
       <use xlink:href="#m3d486c7068" x="272.104702" y="512.64" style="stroke: #000000; stroke-width: 0.8"/>
      </g>
     </g>
    </g>
    <g id="xtick_14">
     <g id="line2d_38">
      <g>
       <use xlink:href="#m3d486c7068" x="338.76664" y="512.64" style="stroke: #000000; stroke-width: 0.8"/>
      </g>
     </g>
    </g>
   </g>
   <g id="matplotlib.axis_14">
    <g id="ytick_37"/>
    <g id="ytick_38"/>
    <g id="ytick_39"/>
    <g id="ytick_40"/>
    <g id="ytick_41"/>
    <g id="ytick_42"/>
   </g>
   <g id="line2d_39">
    <path d="M 272.104702 503.476364 
L 273.131296 502.678602 
L 274.10456 502.17713 
L 275.531126 501.784559 
L 282.130658 500.394971 
L 284.397164 500.202445 
L 287.1703 500.038524 
L 289.783448 500.215002 
L 294.489781 500.817457 
L 298.689483 501.192406 
L 304.769052 501.91063 
L 306.355606 501.946987 
L 308.662109 501.993481 
L 312.301851 502.24223 
L 316.554882 502.299465 
L 322.821104 502.411389 
L 326.727494 502.288328 
L 330.793872 502.203819 
L 337.113424 502.392808 
L 361.778341 502.429144 
L 365.698063 502.339286 
L 370.791035 502.564779 
L 373.364186 502.399311 
L 375.45737 502.347171 
L 378.75047 502.454619 
L 378.75047 502.454619 
" clip-path="url(#p6b81e93e04)" style="fill: none; stroke: #ff0000; stroke-width: 4; stroke-linecap: square"/>
   </g>
   <g id="line2d_40">
    <path d="M 272.104702 503.476364 
L 273.224623 502.591459 
L 274.251217 502.065753 
L 275.651117 501.613264 
L 277.384328 501.232958 
L 279.824155 500.690101 
L 281.424041 500.238165 
L 283.103922 499.794102 
L 292.703241 496.135075 
L 293.543181 495.856029 
L 295.956344 494.924193 
L 296.902943 494.583701 
L 297.649557 494.263057 
L 299.036125 493.525707 
L 300.156046 492.420822 
L 301.809262 490.315595 
L 303.302489 487.687453 
L 304.529069 484.577089 
L 305.675654 481.980769 
L 306.302276 481.129133 
L 306.635586 480.593073 
L 307.88883 477.77639 
L 309.715367 471.714212 
L 310.941947 467.950316 
L 312.328515 465.1729 
L 312.928473 464.041987 
L 313.461768 463.296976 
L 313.941734 462.866154 
L 314.448365 462.466432 
L 315.048322 461.507072 
L 316.074916 459.535275 
L 316.968186 457.629641 
L 317.648138 455.849827 
L 318.088107 454.975879 
L 319.714658 452.283084 
L 320.461272 452.002973 
L 320.994567 451.984771 
L 322.234479 451.324558 
L 323.034423 451.774462 
L 324.487653 452.479256 
L 325.794227 453.008417 
L 327.15413 453.961964 
L 327.794085 454.873309 
L 328.420707 456.08089 
L 329.793943 458.639974 
L 330.180582 458.97807 
L 331.90046 459.951439 
L 332.780398 460.87015 
L 333.273696 460.911687 
L 333.620338 460.830071 
L 334.753591 460.223653 
L 335.206892 459.896238 
L 335.606864 459.695725 
L 336.006836 459.532715 
L 336.806779 459.517315 
L 337.966697 458.287726 
L 339.153279 456.279071 
L 340.766498 454.508356 
L 341.339791 453.552479 
L 342.486376 451.219056 
L 343.779618 449.695847 
L 344.232919 449.172198 
L 344.579561 448.89165 
L 345.152854 448.555305 
L 345.686149 448.619632 
L 346.099453 449.224746 
L 346.966058 450.73164 
L 347.512686 451.541397 
L 348.2593 452.046746 
L 348.605942 451.843245 
L 348.899254 451.444347 
L 350.005843 449.935931 
L 350.539138 449.330773 
L 351.272419 448.422638 
L 351.592397 448.250559 
L 352.618991 447.887015 
L 353.632252 447.055156 
L 354.258874 446.343081 
L 354.685511 446.174959 
L 355.258803 446.030917 
L 355.525451 446.235202 
L 356.205403 446.710793 
L 356.498715 446.544019 
L 357.218664 446.205482 
L 357.965278 446.206652 
L 358.431912 445.833502 
L 358.845216 445.368614 
L 360.37844 445.156964 
L 360.778412 445.389918 
L 361.191716 446.012423 
L 362.951591 450.008241 
L 363.471554 451.411496 
L 363.95152 452.268156 
L 365.444747 454.02125 
L 365.871384 453.729242 
L 366.191361 453.612004 
L 367.044634 453.280646 
L 367.417941 452.975149 
L 368.08456 451.936801 
L 368.817841 450.456268 
L 370.831032 447.555615 
L 371.191006 447.705773 
L 372.2176 448.399739 
L 372.870887 449.499128 
L 373.350853 450.816675 
L 373.830819 451.920721 
L 374.190794 452.189433 
L 374.510771 452.171232 
L 375.884007 451.873754 
L 376.217317 451.614336 
L 376.537294 451.60146 
L 377.083922 451.692678 
L 377.403899 451.626304 
L 377.817203 451.239071 
L 378.52382 449.89711 
L 378.75047 449.296038 
L 378.75047 449.296038 
" clip-path="url(#p6b81e93e04)" style="fill: none; stroke: #0000ff; stroke-width: 4; stroke-linecap: square"/>
   </g>
   <g id="patch_17">
    <path d="M 266.772414 512.64 
L 384.082759 512.64 
" style="fill: none; stroke: #000000; stroke-width: 3; stroke-linejoin: miter; stroke-linecap: square"/>
   </g>
   <g id="text_12">
    <!-- LAL046 -->
    <g transform="translate(280.671336 305.04) scale(0.24 -0.24)">
     <defs>
      <path id="DejaVuSans-36" d="M 2113 2584 
Q 1688 2584 1439 2293 
Q 1191 2003 1191 1497 
Q 1191 994 1439 701 
Q 1688 409 2113 409 
Q 2538 409 2786 701 
Q 3034 994 3034 1497 
Q 3034 2003 2786 2293 
Q 2538 2584 2113 2584 
z
M 3366 4563 
L 3366 3988 
Q 3128 4100 2886 4159 
Q 2644 4219 2406 4219 
Q 1781 4219 1451 3797 
Q 1122 3375 1075 2522 
Q 1259 2794 1537 2939 
Q 1816 3084 2150 3084 
Q 2853 3084 3261 2657 
Q 3669 2231 3669 1497 
Q 3669 778 3244 343 
Q 2819 -91 2113 -91 
Q 1303 -91 875 529 
Q 447 1150 447 2328 
Q 447 3434 972 4092 
Q 1497 4750 2381 4750 
Q 2619 4750 2861 4703 
Q 3103 4656 3366 4563 
z
" transform="scale(0.015625)"/>
     </defs>
     <use xlink:href="#DejaVuSans-4c"/>
     <use xlink:href="#DejaVuSans-41" x="57.962891"/>
     <use xlink:href="#DejaVuSans-4c" x="126.371094"/>
     <use xlink:href="#DejaVuSans-30" x="182.083984"/>
     <use xlink:href="#DejaVuSans-34" x="245.707031"/>
     <use xlink:href="#DejaVuSans-36" x="309.330078"/>
    </g>
   </g>
  </g>
  <g id="axes_8">
   <g id="patch_18">
    <path d="M 407.544828 512.64 
L 524.855172 512.64 
L 524.855172 311.04 
L 407.544828 311.04 
z
" style="fill: #ffffff"/>
   </g>
   <g id="matplotlib.axis_15">
    <g id="xtick_15">
     <g id="line2d_41">
      <g>
       <use xlink:href="#m3d486c7068" x="412.877116" y="512.64" style="stroke: #000000; stroke-width: 0.8"/>
      </g>
     </g>
    </g>
    <g id="xtick_16">
     <g id="line2d_42">
      <g>
       <use xlink:href="#m3d486c7068" x="479.539054" y="512.64" style="stroke: #000000; stroke-width: 0.8"/>
      </g>
     </g>
    </g>
   </g>
   <g id="matplotlib.axis_16">
    <g id="ytick_43"/>
    <g id="ytick_44"/>
    <g id="ytick_45"/>
    <g id="ytick_46"/>
    <g id="ytick_47"/>
    <g id="ytick_48"/>
   </g>
   <g id="line2d_43">
    <path d="M 412.877116 503.476364 
L 417.75677 502.993269 
L 420.369918 502.483793 
L 422.743083 501.740827 
L 426.089512 500.463161 
L 426.529481 500.131963 
L 431.569123 495.81728 
L 432.809035 495.170097 
L 433.289001 494.47491 
L 433.822297 493.918058 
L 434.475584 493.402006 
L 434.95555 492.969474 
L 435.288859 492.578816 
L 436.315453 490.926463 
L 436.715425 490.518887 
L 437.488703 490.001533 
L 437.928672 489.318933 
L 438.355309 488.765418 
L 438.608624 488.392679 
L 439.061925 487.687486 
L 439.4219 487.412003 
L 440.061854 486.911466 
L 442.395022 484.269283 
L 442.648337 484.128573 
L 443.088306 483.932683 
L 444.1149 483.959437 
L 444.408213 483.537839 
L 444.914843 482.683316 
L 445.474804 482.258334 
L 446.261414 481.732333 
L 446.634721 481.287784 
L 447.088022 481.006129 
L 447.461329 481.056942 
L 448.087952 481.128026 
L 448.314602 481.020572 
L 448.701241 480.816917 
L 450.207801 479.752664 
L 450.741097 479.250894 
L 450.954415 479.038394 
L 451.301057 478.588805 
L 451.714361 477.90973 
L 451.901014 477.886861 
L 452.114333 477.896748 
L 452.420977 477.621579 
L 452.847614 477.419266 
L 453.087597 477.356428 
L 453.634225 477.157954 
L 454.754145 475.305361 
L 455.140785 475.581632 
L 455.794072 475.893921 
L 456.180711 476.151428 
L 456.367364 476.156526 
L 456.51402 476.207018 
L 457.087313 476.662716 
L 458.153904 477.11483 
L 459.433813 476.425109 
L 459.820453 475.88049 
L 460.180427 475.618076 
L 461.153691 474.51127 
L 461.273683 474.37648 
L 461.686987 473.908046 
L 461.886973 473.814153 
L 462.126956 473.670074 
L 462.740245 474.039442 
L 463.060223 473.887964 
L 463.260209 473.81405 
L 463.593518 473.709525 
L 463.900163 473.611205 
L 464.620112 473.414827 
L 464.806766 473.493859 
L 465.753365 474.067869 
L 465.980016 474.019297 
L 466.6733 473.635125 
L 466.89995 473.579144 
L 467.086604 473.538243 
L 467.633232 473.149109 
L 467.993206 472.477778 
L 468.913141 470.877192 
L 469.833076 469.656479 
L 470.126388 469.316084 
L 470.713013 468.71411 
L 470.939664 468.781496 
L 471.13965 468.776662 
L 471.259641 468.803611 
L 471.526289 468.860126 
L 471.779604 468.724949 
L 472.406226 468.402735 
L 473.20617 467.167936 
L 473.406155 467.155201 
L 473.872789 467.636514 
L 474.32609 468.296775 
L 474.60607 468.419631 
L 474.832721 468.416858 
L 475.206028 468.58394 
L 476.059301 469.283275 
L 476.485937 469.435562 
L 477.112559 469.364672 
L 477.312545 469.412834 
L 477.499198 469.401388 
L 477.752514 469.726156 
L 478.352471 470.413422 
L 479.312403 471.534688 
L 479.63238 471.723798 
L 479.779037 471.643304 
L 480.285667 471.304315 
L 480.57898 471.22206 
L 480.965619 470.919025 
L 481.245599 470.911232 
L 482.712162 472.052268 
L 482.872151 471.988712 
L 483.098801 471.873646 
L 483.938742 472.041853 
L 484.365378 471.890402 
L 484.618693 471.934601 
L 484.965335 472.041404 
L 485.591958 471.588768 
L 485.778611 471.581167 
L 486.351904 471.232331 
L 486.525225 471.115516 
L 487.071853 470.332408 
L 487.405162 469.944679 
L 487.631813 469.966957 
L 488.218438 470.529096 
L 488.485086 470.795175 
L 488.951719 471.348084 
L 489.258364 471.718713 
L 490.471612 472.972015 
L 491.258222 473.367891 
L 491.418211 473.379168 
L 491.964839 473.169075 
L 493.378072 472.064826 
L 494.364669 472.386813 
L 494.657981 472.130443 
L 495.43126 472.027764 
L 495.671243 472.09774 
L 496.32453 471.695944 
L 496.484518 471.697882 
L 496.631175 471.930789 
L 497.017814 472.495843 
L 497.204467 472.380797 
L 497.511112 472.225868 
L 497.684433 472.191637 
L 498.244393 471.867269 
L 498.657697 472.411147 
L 498.95101 472.694784 
L 499.244323 472.756901 
L 499.497638 472.627763 
L 500.40424 471.626428 
L 500.630891 471.657558 
L 501.004198 471.766403 
L 501.404169 471.580428 
L 501.564158 471.346032 
L 501.870803 470.925655 
L 502.710743 470.468792 
L 502.910729 470.362234 
L 503.124047 469.93701 
L 503.897326 468.33941 
L 504.123976 468.190239 
L 504.363959 468.206235 
L 504.59061 468.223844 
L 504.750599 468.161463 
L 505.177235 467.817671 
L 505.2039 467.849248 
L 505.457215 468.034019 
L 506.617133 468.006738 
L 507.470406 468.278171 
L 507.990369 469.032004 
L 508.483667 469.882237 
L 508.630323 469.985399 
L 508.830309 470.089688 
L 509.123622 469.980483 
L 509.363605 469.920774 
L 509.496929 470.05676 
L 509.976895 470.742631 
L 510.643514 471.396756 
L 510.976824 471.437655 
L 511.243471 471.559927 
L 511.496787 471.638645 
L 511.68344 471.460273 
L 511.910091 471.141485 
L 512.216736 470.782374 
L 512.403389 470.580569 
L 512.830025 470.03267 
L 513.096673 469.961765 
L 513.323324 469.647727 
L 514.02994 468.520746 
L 514.936543 469.105649 
L 515.416509 469.954464 
L 516.389773 470.212935 
L 517.109722 470.592475 
L 517.549691 470.350111 
L 517.962995 470.053818 
L 518.242975 470.117762 
L 518.909594 470.527214 
L 519.522884 471.827461 
L 519.522884 471.827461 
" clip-path="url(#pc15a93c580)" style="fill: none; stroke: #ff0000; stroke-width: 4; stroke-linecap: square"/>
   </g>
   <g id="line2d_44">
    <path d="M 412.877116 503.476364 
L 416.463528 503.091594 
L 420.063273 502.526277 
L 421.196526 502.060816 
L 423.409702 501.066114 
L 424.169648 500.469936 
L 426.156174 498.812837 
L 426.782796 497.915746 
L 428.156032 495.690322 
L 430.569194 491.218448 
L 431.075825 490.333889 
L 431.955763 488.767399 
L 432.675712 488.10681 
L 433.968953 485.785914 
L 434.755564 484.078679 
L 436.07547 481.487156 
L 436.342118 480.997294 
L 436.795419 480.212767 
L 437.328715 479.53686 
L 437.835345 478.351422 
L 439.08859 475.697187 
L 439.461897 474.931592 
L 441.928388 468.488549 
L 443.008312 466.829871 
L 443.381619 466.656454 
L 444.594866 464.708881 
L 445.101497 462.773285 
L 445.34148 462.346786 
L 445.554798 462.316945 
L 446.354741 462.730205 
L 446.74138 463.33136 
L 446.914701 463.611492 
L 447.221346 464.038286 
L 447.248011 464.023181 
L 447.434665 463.835639 
L 447.767974 463.42166 
L 448.061287 463.316903 
L 448.314602 462.902681 
L 448.58125 462.189904 
L 449.541182 458.58289 
L 450.941082 454.699201 
L 451.154401 454.460007 
L 451.647699 453.573038 
L 452.074335 453.716104 
L 452.327651 453.862137 
L 452.647628 454.218743 
L 453.367577 454.85359 
L 453.514233 454.70675 
L 454.287512 453.712381 
L 454.567492 453.421365 
L 454.927466 453.257554 
L 455.3941 453.004962 
L 456.647344 451.43983 
L 457.300631 451.163918 
L 457.833927 451.366079 
L 458.513879 450.626913 
L 458.527211 450.643238 
L 458.727197 450.706491 
L 459.020509 450.519908 
L 459.287157 450.107931 
L 460.020438 448.877492 
L 460.353748 448.418951 
L 460.633728 448.058279 
L 461.153691 447.617513 
L 461.713652 447.494177 
L 462.740245 446.006462 
L 463.006893 446.245348 
L 463.926828 447.759186 
L 464.27347 447.961585 
L 464.726771 448.088157 
L 465.16674 448.231176 
L 465.300064 448.425932 
L 465.646706 448.839111 
L 465.846692 449.123949 
L 466.633303 450.317781 
L 467.099936 450.460205 
L 467.539905 450.332706 
L 467.686561 450.211717 
L 467.953209 450.005894 
L 468.099865 450.008747 
L 468.299851 449.884788 
L 468.793149 449.582185 
L 468.96647 449.500912 
L 469.366442 449.246019 
L 469.739749 449.324745 
L 469.953067 449.415994 
L 470.139721 449.180008 
L 470.379703 448.53991 
L 470.952996 446.87534 
L 471.379633 445.998852 
L 471.592951 445.75712 
L 471.806269 445.525606 
L 472.232905 444.984846 
L 472.246238 444.994267 
L 472.486221 445.011313 
L 472.686207 445.000319 
L 472.979519 445.082062 
L 473.259499 444.764624 
L 473.952783 443.778354 
L 474.246096 443.741764 
L 474.392752 443.735138 
L 475.152698 443.611959 
L 475.339352 443.457541 
L 475.872647 443.116155 
L 475.912644 443.189781 
L 476.379278 443.860161 
L 476.752585 444.487582 
L 477.325877 445.59879 
L 477.552528 445.515674 
L 477.9525 445.015562 
L 478.045826 445.082993 
L 478.285809 445.234144 
L 478.752443 445.202397 
L 479.179079 445.022148 
L 479.325736 445.020078 
L 479.619048 444.906033 
L 480.045684 445.257045 
L 480.299 445.303559 
L 480.552315 445.461797 
L 480.85896 445.187666 
L 481.658903 444.043188 
L 481.832224 444.027564 
L 481.992213 443.946683 
L 482.36552 443.367469 
L 482.578838 443.315713 
L 482.738827 443.262928 
L 482.938813 442.970492 
L 483.20546 442.718988 
L 483.405446 442.665295 
L 483.738756 442.843705 
L 484.09873 442.836701 
L 484.392043 442.909544 
L 484.592029 442.967992 
L 484.792014 442.8021 
L 485.218651 442.519214 
L 485.471966 442.436373 
L 485.645287 442.510839 
L 485.805276 442.582958 
L 486.351904 442.917697 
L 487.431827 445.313059 
L 487.578483 445.431159 
L 487.911793 445.971531 
L 488.23177 446.278943 
L 488.391759 446.370697 
L 488.725069 446.810246 
L 488.965052 446.877189 
L 489.378356 446.394348 
L 489.605006 445.954269 
L 490.111637 445.009555 
L 490.284958 445.067085 
L 490.644933 445.307598 
L 490.818254 445.468429 
L 491.044904 445.669385 
L 491.644862 445.507233 
L 491.778186 445.501483 
L 492.271484 445.055855 
L 492.75145 444.62202 
L 493.498064 443.598075 
L 493.991362 442.854299 
L 494.298007 442.875129 
L 494.511325 442.420977 
L 494.911297 441.771991 
L 495.231274 441.805937 
L 495.524586 442.010539 
L 495.817899 442.090682 
L 495.99122 442.266379 
L 496.511183 443.555498 
L 496.924487 444.422396 
L 497.097808 444.482997 
L 497.364456 444.111339 
L 497.711098 443.635395 
L 498.084405 443.397074 
L 499.00434 443.642537 
L 499.177661 443.483929 
L 499.550967 442.928453 
L 500.284249 442.910465 
L 500.564229 442.415143 
L 500.804212 442.202676 
L 501.230848 442.285653 
L 501.870803 443.126892 
L 502.884064 445.43117 
L 503.270704 445.803643 
L 503.404027 445.717111 
L 503.630678 445.605504 
L 503.830664 445.900012 
L 504.03065 445.957298 
L 504.417289 445.375113 
L 504.950584 444.395765 
L 506.09717 443.043073 
L 506.99044 440.029396 
L 507.563732 439.64117 
L 508.630323 440.273826 
L 508.656988 440.226664 
L 509.496929 438.960301 
L 509.763576 439.014735 
L 510.190213 439.437274 
L 510.603517 440.079697 
L 510.763505 440.09875 
L 510.976824 440.067629 
L 511.136812 440.266738 
L 511.40346 440.549582 
L 511.590113 441.045372 
L 512.150074 442.670701 
L 512.336727 442.785921 
L 512.696702 442.862871 
L 512.936685 443.1114 
L 514.056605 445.382618 
L 514.469909 446.362156 
L 514.683227 446.267266 
L 514.856548 446.003233 
L 515.456506 444.851634 
L 515.843145 444.499841 
L 516.14979 444.284328 
L 516.536429 444.258599 
L 517.069725 443.629787 
L 517.163051 443.734149 
L 517.576355 444.182635 
L 518.016324 444.102038 
L 518.669611 442.379408 
L 519.38956 440.377858 
L 519.522884 440.171839 
L 519.522884 440.171839 
" clip-path="url(#pc15a93c580)" style="fill: none; stroke: #0000ff; stroke-width: 4; stroke-linecap: square"/>
   </g>
   <g id="patch_19">
    <path d="M 407.544828 512.64 
L 524.855172 512.64 
" style="fill: none; stroke: #000000; stroke-width: 3; stroke-linejoin: miter; stroke-linecap: square"/>
   </g>
   <g id="text_13">
    <!-- LAL121 -->
    <g transform="translate(421.44375 305.04) scale(0.24 -0.24)">
     <use xlink:href="#DejaVuSans-4c"/>
     <use xlink:href="#DejaVuSans-41" x="57.962891"/>
     <use xlink:href="#DejaVuSans-4c" x="126.371094"/>
     <use xlink:href="#DejaVuSans-31" x="182.083984"/>
     <use xlink:href="#DejaVuSans-32" x="245.707031"/>
     <use xlink:href="#DejaVuSans-31" x="309.330078"/>
    </g>
   </g>
  </g>
  <g id="axes_9">
   <g id="patch_20">
    <path d="M 548.317241 512.64 
L 665.627586 512.64 
L 665.627586 311.04 
L 548.317241 311.04 
z
" style="fill: #ffffff"/>
   </g>
   <g id="matplotlib.axis_17">
    <g id="xtick_17">
     <g id="line2d_45">
      <g>
       <use xlink:href="#m3d486c7068" x="553.64953" y="512.64" style="stroke: #000000; stroke-width: 0.8"/>
      </g>
     </g>
    </g>
    <g id="xtick_18">
     <g id="line2d_46">
      <g>
       <use xlink:href="#m3d486c7068" x="620.311468" y="512.64" style="stroke: #000000; stroke-width: 0.8"/>
      </g>
     </g>
    </g>
   </g>
   <g id="matplotlib.axis_18">
    <g id="ytick_49"/>
    <g id="ytick_50"/>
    <g id="ytick_51"/>
    <g id="ytick_52"/>
    <g id="ytick_53"/>
    <g id="ytick_54"/>
   </g>
   <g id="line2d_47">
    <path d="M 553.64953 503.476364 
L 554.729453 502.628053 
L 555.742715 502.083826 
L 557.409263 501.542868 
L 561.395647 500.229803 
L 565.968656 498.193358 
L 567.715199 497.062479 
L 572.181548 493.234375 
L 572.954827 492.874891 
L 573.794767 492.428012 
L 576.741225 490.194732 
L 577.821148 489.196668 
L 578.581095 488.672415 
L 579.95433 487.615088 
L 583.074109 486.21954 
L 584.167365 486.275817 
L 584.953976 486.512683 
L 585.487271 486.403182 
L 586.020567 486.324126 
L 586.860507 486.243595 
L 587.567124 485.951517 
L 588.500391 485.628621 
L 589.766968 485.322126 
L 590.246934 485.397002 
L 593.193391 486.216436 
L 594.753281 485.827225 
L 595.833204 485.306872 
L 596.579818 485.348879 
L 597.299767 485.643955 
L 598.726332 486.330317 
L 599.406284 486.541344 
L 602.046097 486.794583 
L 603.07269 486.723777 
L 604.259273 487.002639 
L 606.152472 486.900694 
L 606.859088 486.659215 
L 607.805688 486.002437 
L 609.018935 484.967614 
L 611.632083 482.157491 
L 612.138714 482.022767 
L 613.098646 482.14917 
L 613.498617 482.105474 
L 614.165237 482.038474 
L 614.751862 482.257122 
L 616.658393 483.601587 
L 617.245018 483.986037 
L 619.418198 484.401991 
L 620.498121 484.83804 
L 621.204738 484.871033 
L 622.831289 484.883623 
L 623.911212 485.303669 
L 624.911141 485.865936 
L 626.831005 486.320475 
L 627.550954 486.186186 
L 627.990923 485.89808 
L 628.697539 485.418538 
L 629.950784 485.099268 
L 630.444082 485.148182 
L 630.950713 485.367601 
L 631.537338 485.528127 
L 633.323878 485.886262 
L 634.950429 486.183988 
L 635.857031 486.396597 
L 637.083611 486.569639 
L 639.390114 486.546661 
L 640.256719 486.681775 
L 641.003333 486.459754 
L 641.483299 486.416466 
L 642.376569 486.425453 
L 643.749805 485.777207 
L 644.33643 485.100924 
L 645.296362 483.987735 
L 646.40295 483.37266 
L 647.176228 483.392502 
L 648.042834 483.834725 
L 648.776115 484.460959 
L 649.682717 485.293748 
L 650.522658 485.881575 
L 651.909226 486.916275 
L 652.549181 487.093222 
L 653.095809 486.926539 
L 653.682434 486.539708 
L 654.215729 486.036122 
L 655.855613 484.090636 
L 656.695553 483.945973 
L 657.188852 483.993214 
L 658.602085 484.20248 
L 658.922062 484.240288 
L 659.562016 484.479454 
L 659.961988 484.85079 
L 660.295298 485.277489 
L 660.295298 485.277489 
" clip-path="url(#p65b303ec24)" style="fill: none; stroke: #ff0000; stroke-width: 4; stroke-linecap: square"/>
   </g>
   <g id="line2d_48">
    <path d="M 553.64953 503.476364 
L 554.809447 502.553621 
L 555.982698 501.927498 
L 557.609249 501.340318 
L 561.328985 500.147257 
L 564.835403 498.044054 
L 566.555281 496.352861 
L 567.408554 495.192795 
L 568.608469 492.914317 
L 569.67506 490.398267 
L 571.554926 485.327308 
L 575.034679 474.49648 
L 576.247927 469.501721 
L 577.927808 462.241964 
L 578.567762 459.400828 
L 580.967592 447.066949 
L 582.460819 436.147732 
L 583.80739 426.546424 
L 585.500604 415.527518 
L 586.967166 404.542568 
L 587.393803 402.744583 
L 587.847104 401.648028 
L 588.140416 400.983255 
L 589.273669 396.947478 
L 589.766968 394.07385 
L 592.780087 374.54034 
L 593.540033 371.707981 
L 594.126658 370.329243 
L 598.166372 361.676354 
L 601.446139 354.555489 
L 602.272747 353.545812 
L 602.726048 353.05732 
L 603.792639 351.886608 
L 604.165946 351.926617 
L 604.645912 352.146903 
L 606.245799 353.201122 
L 607.059074 353.724055 
L 608.752288 354.927367 
L 609.698887 355.523928 
L 610.672151 356.423547 
L 611.045458 356.692696 
L 611.44543 356.699705 
L 611.77874 356.507558 
L 612.472024 355.978216 
L 612.885328 355.710635 
L 613.218637 355.63041 
L 613.605277 355.64422 
L 614.178569 355.775805 
L 614.498547 355.699487 
L 615.538473 355.177807 
L 616.338416 354.835701 
L 617.005035 354.590177 
L 617.738317 354.611937 
L 618.20495 354.874563 
L 618.418269 354.849448 
L 619.671513 354.146224 
L 620.684774 352.993174 
L 621.871357 351.86592 
L 622.6713 350.644152 
L 623.191263 349.585521 
L 624.217857 347.934078 
L 624.617829 347.511782 
L 625.164457 346.957502 
L 625.884406 346.413112 
L 626.711014 345.873855 
L 627.270974 345.805916 
L 627.604284 346.125998 
L 628.404227 347.169074 
L 629.324162 348.645588 
L 629.857457 349.269789 
L 630.244096 349.397761 
L 630.577406 349.225864 
L 631.284022 348.695124 
L 631.843983 348.333651 
L 634.457131 346.487297 
L 636.376995 344.383947 
L 636.830296 344.171064 
L 637.176938 344.262899 
L 638.110205 344.717087 
L 640.083398 344.496131 
L 641.04333 344.007439 
L 642.256577 343.559478 
L 642.643217 343.74766 
L 643.336501 344.55974 
L 645.589674 348.301157 
L 646.989575 349.066696 
L 647.309552 348.784751 
L 648.736118 347.304081 
L 649.789376 346.334778 
L 650.789305 344.950336 
L 651.375931 344.477582 
L 652.442522 344.026557 
L 652.909155 344.34108 
L 653.349124 344.608697 
L 654.015743 345.137733 
L 654.815687 346.280144 
L 655.5623 347.638813 
L 655.975604 347.898789 
L 656.642224 348.027414 
L 657.175519 348.06245 
L 657.468832 347.967421 
L 657.988795 347.780972 
L 659.108715 347.734518 
L 659.41536 347.46526 
L 659.975321 346.622885 
L 660.295298 346.011895 
L 660.295298 346.011895 
" clip-path="url(#p65b303ec24)" style="fill: none; stroke: #0000ff; stroke-width: 4; stroke-linecap: square"/>
   </g>
   <g id="patch_21">
    <path d="M 548.317241 512.64 
L 665.627586 512.64 
" style="fill: none; stroke: #000000; stroke-width: 3; stroke-linejoin: miter; stroke-linecap: square"/>
   </g>
   <g id="text_14">
    <!-- DNa03 -->
    <g transform="translate(566.131164 305.04) scale(0.24 -0.24)">
     <defs>
      <path id="DejaVuSans-33" d="M 2597 2516 
Q 3050 2419 3304 2112 
Q 3559 1806 3559 1356 
Q 3559 666 3084 287 
Q 2609 -91 1734 -91 
Q 1441 -91 1130 -33 
Q 819 25 488 141 
L 488 750 
Q 750 597 1062 519 
Q 1375 441 1716 441 
Q 2309 441 2620 675 
Q 2931 909 2931 1356 
Q 2931 1769 2642 2001 
Q 2353 2234 1838 2234 
L 1294 2234 
L 1294 2753 
L 1863 2753 
Q 2328 2753 2575 2939 
Q 2822 3125 2822 3475 
Q 2822 3834 2567 4026 
Q 2313 4219 1838 4219 
Q 1578 4219 1281 4162 
Q 984 4106 628 3988 
L 628 4550 
Q 988 4650 1302 4700 
Q 1616 4750 1894 4750 
Q 2613 4750 3031 4423 
Q 3450 4097 3450 3541 
Q 3450 3153 3228 2886 
Q 3006 2619 2597 2516 
z
" transform="scale(0.015625)"/>
     </defs>
     <use xlink:href="#DejaVuSans-44"/>
     <use xlink:href="#DejaVuSans-4e" x="77.001953"/>
     <use xlink:href="#DejaVuSans-61" x="151.806641"/>
     <use xlink:href="#DejaVuSans-30" x="213.085938"/>
     <use xlink:href="#DejaVuSans-33" x="276.708984"/>
    </g>
   </g>
  </g>
  <g id="axes_10">
   <g id="patch_22">
    <path d="M 689.089655 512.64 
L 806.4 512.64 
L 806.4 311.04 
L 689.089655 311.04 
z
" style="fill: #ffffff"/>
   </g>
   <g id="matplotlib.axis_19">
    <g id="xtick_19">
     <g id="line2d_49">
      <g>
       <use xlink:href="#m3d486c7068" x="694.421944" y="512.64" style="stroke: #000000; stroke-width: 0.8"/>
      </g>
     </g>
    </g>
    <g id="xtick_20">
     <g id="line2d_50">
      <g>
       <use xlink:href="#m3d486c7068" x="761.083881" y="512.64" style="stroke: #000000; stroke-width: 0.8"/>
      </g>
     </g>
    </g>
   </g>
   <g id="matplotlib.axis_20">
    <g id="ytick_55"/>
    <g id="ytick_56"/>
    <g id="ytick_57"/>
    <g id="ytick_58"/>
    <g id="ytick_59"/>
    <g id="ytick_60"/>
   </g>
   <g id="line2d_51">
    <path d="M 694.421944 503.476364 
L 695.355211 502.761682 
L 696.381805 502.241271 
L 697.701711 501.87038 
L 705.207845 500.23602 
L 708.394286 499.539768 
L 713.473925 498.171056 
L 714.713837 497.936029 
L 715.740431 497.705572 
L 717.766954 497.19302 
L 718.593562 497.02508 
L 719.580159 496.799435 
L 721.246707 496.448265 
L 725.406412 496.0199 
L 726.179691 495.936395 
L 727.352941 495.848812 
L 731.792626 495.581814 
L 733.65916 495.459323 
L 735.632353 495.321798 
L 736.752274 495.227846 
L 739.058777 495.370521 
L 740.592002 495.409941 
L 741.898576 495.312769 
L 743.845104 495.169249 
L 745.484988 495.16843 
L 749.378045 495.022978 
L 752.804469 494.326514 
L 754.177705 494.208706 
L 755.084307 494.136484 
L 761.923822 494.817645 
L 763.843686 494.884 
L 765.390243 494.960123 
L 768.643345 494.868783 
L 769.469953 494.824768 
L 774.789576 494.977589 
L 776.509454 495.007473 
L 781.669088 495.03654 
L 785.2555 494.658902 
L 786.695398 494.438402 
L 789.641855 494.538644 
L 790.628452 494.691002 
L 791.348401 494.793897 
L 793.361592 495.023031 
L 796.854677 494.715201 
L 798.134586 494.692298 
L 801.067712 494.850044 
L 801.067712 494.850044 
" clip-path="url(#p17448db7a9)" style="fill: none; stroke: #ff0000; stroke-width: 4; stroke-linecap: square"/>
   </g>
   <g id="line2d_52">
    <path d="M 694.421944 503.476364 
L 695.421873 502.701527 
L 696.448466 502.181616 
L 697.648381 501.799821 
L 699.954884 501.311331 
L 702.248055 500.802616 
L 707.954317 499.020788 
L 709.36755 498.283929 
L 711.740715 496.92556 
L 716.447048 493.735535 
L 718.91354 491.311823 
L 719.993463 489.90799 
L 721.300037 487.800613 
L 722.206639 485.801274 
L 723.259898 482.784084 
L 724.379818 478.693177 
L 725.593066 473.437137 
L 726.459671 468.506609 
L 728.179549 458.02028 
L 731.03268 442.08945 
L 732.20593 433.750534 
L 733.539169 424.799091 
L 734.55243 419.865715 
L 736.965592 411.339802 
L 737.952189 408.678248 
L 739.178769 406.149284 
L 739.778726 404.933632 
L 740.592002 403.359255 
L 741.378613 401.514424 
L 742.765181 398.794575 
L 743.231814 398.139762 
L 744.391732 396.348067 
L 744.791704 396.21992 
L 745.258337 396.154727 
L 746.564911 396.05591 
L 746.978215 396.237352 
L 747.444849 396.530689 
L 748.991406 397.612409 
L 751.204582 398.178018 
L 751.857869 398.379317 
L 754.231034 397.313086 
L 754.684335 397.224738 
L 755.60427 396.765315 
L 756.897512 396.395021 
L 757.617461 396.158426 
L 758.177421 396.282901 
L 758.697384 396.628759 
L 758.990696 396.696545 
L 759.297341 396.592951 
L 759.643983 396.567356 
L 759.963961 396.556225 
L 760.483924 396.427382 
L 761.230538 396.211492 
L 761.537183 396.178248 
L 761.977151 396.053842 
L 762.390455 395.800366 
L 764.310319 393.883426 
L 765.176924 392.950716 
L 767.790072 391.07582 
L 768.016723 391.139903 
L 769.949919 392.375453 
L 770.483215 392.839288 
L 770.909851 392.934458 
L 771.29649 392.839574 
L 771.736459 392.757312 
L 772.85638 392.991738 
L 773.602993 392.766999 
L 775.362868 391.489483 
L 775.749508 391.26594 
L 776.002823 391.038063 
L 776.669442 390.40323 
L 777.642707 390.149284 
L 778.255996 390.459686 
L 778.669301 390.573651 
L 779.749224 390.193829 
L 780.815815 390.103501 
L 781.242451 389.962077 
L 781.989065 389.767061 
L 782.469031 389.516434 
L 782.815673 389.482149 
L 783.295639 389.584316 
L 784.202241 390.282741 
L 784.735537 390.760129 
L 786.255429 391.443356 
L 787.721992 391.506249 
L 788.228622 390.912722 
L 788.49527 390.760999 
L 789.575194 390.444645 
L 790.121821 390.41519 
L 790.56179 390.055409 
L 791.201745 389.570409 
L 791.721708 389.420317 
L 792.268336 389.375006 
L 792.734969 389.248228 
L 793.214935 389.371033 
L 793.761563 389.728718 
L 794.681498 390.043665 
L 795.788086 391.211211 
L 796.148061 391.608581 
L 796.5347 391.702996 
L 797.067995 391.747426 
L 797.401305 391.790805 
L 798.001262 391.922383 
L 798.201248 391.8595 
L 798.494561 391.790656 
L 799.001192 391.972276 
L 799.49449 392.048735 
L 799.921126 391.774936 
L 800.321098 391.359233 
L 800.654408 390.948841 
L 801.067712 390.451942 
L 801.067712 390.451942 
" clip-path="url(#p17448db7a9)" style="fill: none; stroke: #0000ff; stroke-width: 4; stroke-linecap: square"/>
   </g>
   <g id="patch_23">
    <path d="M 689.089655 512.64 
L 806.4 512.64 
" style="fill: none; stroke: #000000; stroke-width: 3; stroke-linejoin: miter; stroke-linecap: square"/>
   </g>
   <g id="text_15">
    <!-- DNa04 -->
    <g transform="translate(706.903578 305.04) scale(0.24 -0.24)">
     <use xlink:href="#DejaVuSans-44"/>
     <use xlink:href="#DejaVuSans-4e" x="77.001953"/>
     <use xlink:href="#DejaVuSans-61" x="151.806641"/>
     <use xlink:href="#DejaVuSans-30" x="213.085938"/>
     <use xlink:href="#DejaVuSans-34" x="276.708984"/>
    </g>
   </g>
  </g>
  <g id="text_16">
   <!-- Full model   = 90 -->
   <g transform="translate(359.535312 32.795625) scale(0.28 -0.28)">
    <defs>
     <path id="DejaVuSans-46" d="M 628 4666 
L 3309 4666 
L 3309 4134 
L 1259 4134 
L 1259 2759 
L 3109 2759 
L 3109 2228 
L 1259 2228 
L 1259 0 
L 628 0 
L 628 4666 
z
" transform="scale(0.015625)"/>
     <path id="DejaVuSans-75" d="M 544 1381 
L 544 3500 
L 1119 3500 
L 1119 1403 
Q 1119 906 1312 657 
Q 1506 409 1894 409 
Q 2359 409 2629 706 
Q 2900 1003 2900 1516 
L 2900 3500 
L 3475 3500 
L 3475 0 
L 2900 0 
L 2900 538 
Q 2691 219 2414 64 
Q 2138 -91 1772 -91 
Q 1169 -91 856 284 
Q 544 659 544 1381 
z
M 1991 3584 
L 1991 3584 
z
" transform="scale(0.015625)"/>
     <path id="DejaVuSans-6c" d="M 603 4863 
L 1178 4863 
L 1178 0 
L 603 0 
L 603 4863 
z
" transform="scale(0.015625)"/>
     <path id="DejaVuSans-6f" d="M 1959 3097 
Q 1497 3097 1228 2736 
Q 959 2375 959 1747 
Q 959 1119 1226 758 
Q 1494 397 1959 397 
Q 2419 397 2687 759 
Q 2956 1122 2956 1747 
Q 2956 2369 2687 2733 
Q 2419 3097 1959 3097 
z
M 1959 3584 
Q 2709 3584 3137 3096 
Q 3566 2609 3566 1747 
Q 3566 888 3137 398 
Q 2709 -91 1959 -91 
Q 1206 -91 779 398 
Q 353 888 353 1747 
Q 353 2609 779 3096 
Q 1206 3584 1959 3584 
z
" transform="scale(0.015625)"/>
     <path id="DejaVuSans-64" d="M 2906 2969 
L 2906 4863 
L 3481 4863 
L 3481 0 
L 2906 0 
L 2906 525 
Q 2725 213 2448 61 
Q 2172 -91 1784 -91 
Q 1150 -91 751 415 
Q 353 922 353 1747 
Q 353 2572 751 3078 
Q 1150 3584 1784 3584 
Q 2172 3584 2448 3432 
Q 2725 3281 2906 2969 
z
M 947 1747 
Q 947 1113 1208 752 
Q 1469 391 1925 391 
Q 2381 391 2643 752 
Q 2906 1113 2906 1747 
Q 2906 2381 2643 2742 
Q 2381 3103 1925 3103 
Q 1469 3103 1208 2742 
Q 947 2381 947 1747 
z
" transform="scale(0.015625)"/>
     <path id="DejaVuSans-394" d="M 2188 4044 
L 906 525 
L 3472 525 
L 2188 4044 
z
M 50 0 
L 1831 4666 
L 2547 4666 
L 4325 0 
L 50 0 
z
" transform="scale(0.015625)"/>
     <path id="DejaVuSans-3b8" d="M 2953 2219 
L 963 2219 
Q 1009 1284 1225 888 
Q 1494 400 1959 400 
Q 2428 400 2688 891 
Q 2916 1322 2953 2219 
z
M 2944 2750 
Q 2856 3638 2688 3950 
Q 2419 4444 1959 4444 
Q 1481 4444 1228 3956 
Q 1028 3563 969 2750 
L 2944 2750 
z
M 1959 4913 
Q 2709 4913 3138 4250 
Q 3566 3591 3566 2422 
Q 3566 1256 3138 594 
Q 2709 -72 1959 -72 
Q 1206 -72 781 594 
Q 353 1256 353 2422 
Q 353 3591 781 4250 
Q 1206 4913 1959 4913 
z
" transform="scale(0.015625)"/>
     <path id="DejaVuSans-3d" d="M 678 2906 
L 4684 2906 
L 4684 2381 
L 678 2381 
L 678 2906 
z
M 678 1631 
L 4684 1631 
L 4684 1100 
L 678 1100 
L 678 1631 
z
" transform="scale(0.015625)"/>
     <path id="DejaVuSans-39" d="M 703 97 
L 703 672 
Q 941 559 1184 500 
Q 1428 441 1663 441 
Q 2288 441 2617 861 
Q 2947 1281 2994 2138 
Q 2813 1869 2534 1725 
Q 2256 1581 1919 1581 
Q 1219 1581 811 2004 
Q 403 2428 403 3163 
Q 403 3881 828 4315 
Q 1253 4750 1959 4750 
Q 2769 4750 3195 4129 
Q 3622 3509 3622 2328 
Q 3622 1225 3098 567 
Q 2575 -91 1691 -91 
Q 1453 -91 1209 -44 
Q 966 3 703 97 
z
M 1959 2075 
Q 2384 2075 2632 2365 
Q 2881 2656 2881 3163 
Q 2881 3666 2632 3958 
Q 2384 4250 1959 4250 
Q 1534 4250 1286 3958 
Q 1038 3666 1038 3163 
Q 1038 2656 1286 2365 
Q 1534 2075 1959 2075 
z
" transform="scale(0.015625)"/>
     <path id="DejaVuSans-b0" d="M 1600 4347 
Q 1350 4347 1178 4173 
Q 1006 4000 1006 3750 
Q 1006 3503 1178 3333 
Q 1350 3163 1600 3163 
Q 1850 3163 2022 3333 
Q 2194 3503 2194 3750 
Q 2194 3997 2020 4172 
Q 1847 4347 1600 4347 
z
M 1600 4750 
Q 1800 4750 1984 4673 
Q 2169 4597 2303 4453 
Q 2447 4313 2519 4134 
Q 2591 3956 2591 3750 
Q 2591 3338 2302 3052 
Q 2013 2766 1594 2766 
Q 1172 2766 890 3047 
Q 609 3328 609 3750 
Q 609 4169 896 4459 
Q 1184 4750 1600 4750 
z
" transform="scale(0.015625)"/>
    </defs>
    <use xlink:href="#DejaVuSans-46"/>
    <use xlink:href="#DejaVuSans-75" x="52.019531"/>
    <use xlink:href="#DejaVuSans-6c" x="115.398438"/>
    <use xlink:href="#DejaVuSans-6c" x="143.181641"/>
    <use xlink:href="#DejaVuSans-20" x="170.964844"/>
    <use xlink:href="#DejaVuSans-6d" x="202.751953"/>
    <use xlink:href="#DejaVuSans-6f" x="300.164062"/>
    <use xlink:href="#DejaVuSans-64" x="361.345703"/>
    <use xlink:href="#DejaVuSans-65" x="424.822266"/>
    <use xlink:href="#DejaVuSans-6c" x="486.345703"/>
    <use xlink:href="#DejaVuSans-20" x="514.128906"/>
    <use xlink:href="#DejaVuSans-20" x="545.916016"/>
    <use xlink:href="#DejaVuSans-394" x="577.703125"/>
    <use xlink:href="#DejaVuSans-3b8" x="646.111328"/>
    <use xlink:href="#DejaVuSans-20" x="707.292969"/>
    <use xlink:href="#DejaVuSans-3d" x="739.080078"/>
    <use xlink:href="#DejaVuSans-20" x="822.869141"/>
    <use xlink:href="#DejaVuSans-39" x="854.65625"/>
    <use xlink:href="#DejaVuSans-30" x="918.279297"/>
    <use xlink:href="#DejaVuSans-b0" x="981.902344"/>
   </g>
  </g>
  <g id="legend_1">
   <g id="line2d_53">
    <path d="M 856.5075 273.456563 
L 874.5075 273.456563 
L 892.5075 273.456563 
" style="fill: none; stroke: #ff0000; stroke-width: 4; stroke-linecap: square"/>
   </g>
   <g id="text_17">
    <!-- right side -->
    <g transform="translate(906.9075 279.756563) scale(0.18 -0.18)">
     <defs>
      <path id="DejaVuSans-68" d="M 3513 2113 
L 3513 0 
L 2938 0 
L 2938 2094 
Q 2938 2591 2744 2837 
Q 2550 3084 2163 3084 
Q 1697 3084 1428 2787 
Q 1159 2491 1159 1978 
L 1159 0 
L 581 0 
L 581 4863 
L 1159 4863 
L 1159 2956 
Q 1366 3272 1645 3428 
Q 1925 3584 2291 3584 
Q 2894 3584 3203 3211 
Q 3513 2838 3513 2113 
z
" transform="scale(0.015625)"/>
     </defs>
     <use xlink:href="#DejaVuSans-72"/>
     <use xlink:href="#DejaVuSans-69" x="41.113281"/>
     <use xlink:href="#DejaVuSans-67" x="68.896484"/>
     <use xlink:href="#DejaVuSans-68" x="132.373047"/>
     <use xlink:href="#DejaVuSans-74" x="195.751953"/>
     <use xlink:href="#DejaVuSans-20" x="234.960938"/>
     <use xlink:href="#DejaVuSans-73" x="266.748047"/>
     <use xlink:href="#DejaVuSans-69" x="318.847656"/>
     <use xlink:href="#DejaVuSans-64" x="346.630859"/>
     <use xlink:href="#DejaVuSans-65" x="410.107422"/>
    </g>
   </g>
   <g id="line2d_54">
    <path d="M 856.5075 299.877187 
L 874.5075 299.877187 
L 892.5075 299.877187 
" style="fill: none; stroke: #0000ff; stroke-width: 4; stroke-linecap: square"/>
   </g>
   <g id="text_18">
    <!-- left side -->
    <g transform="translate(906.9075 306.177188) scale(0.18 -0.18)">
     <use xlink:href="#DejaVuSans-6c"/>
     <use xlink:href="#DejaVuSans-65" x="27.783203"/>
     <use xlink:href="#DejaVuSans-66" x="89.306641"/>
     <use xlink:href="#DejaVuSans-74" x="122.761719"/>
     <use xlink:href="#DejaVuSans-20" x="161.970703"/>
     <use xlink:href="#DejaVuSans-73" x="193.757812"/>
     <use xlink:href="#DejaVuSans-69" x="245.857422"/>
     <use xlink:href="#DejaVuSans-64" x="273.640625"/>
     <use xlink:href="#DejaVuSans-65" x="337.117188"/>
    </g>
   </g>
  </g>
 </g>
 <defs>
  <clipPath id="pc39484ea74">
   <rect x="126" y="69.12" width="117.310345" height="201.6"/>
  </clipPath>
  <clipPath id="pa327661e46">
   <rect x="266.772414" y="69.12" width="117.310345" height="201.6"/>
  </clipPath>
  <clipPath id="p2c4c4fba4e">
   <rect x="407.544828" y="69.12" width="117.310345" height="201.6"/>
  </clipPath>
  <clipPath id="pd5e102416e">
   <rect x="548.317241" y="69.12" width="117.310345" height="201.6"/>
  </clipPath>
  <clipPath id="pc7f7f8922f">
   <rect x="689.089655" y="69.12" width="117.310345" height="201.6"/>
  </clipPath>
  <clipPath id="p2f7bbae9cc">
   <rect x="126" y="311.04" width="117.310345" height="201.6"/>
  </clipPath>
  <clipPath id="p6b81e93e04">
   <rect x="266.772414" y="311.04" width="117.310345" height="201.6"/>
  </clipPath>
  <clipPath id="pc15a93c580">
   <rect x="407.544828" y="311.04" width="117.310345" height="201.6"/>
  </clipPath>
  <clipPath id="p65b303ec24">
   <rect x="548.317241" y="311.04" width="117.310345" height="201.6"/>
  </clipPath>
  <clipPath id="p17448db7a9">
   <rect x="689.089655" y="311.04" width="117.310345" height="201.6"/>
  </clipPath>
 </defs>
</svg>
