<?xml version="1.0" encoding="utf-8" standalone="no"?>
<!DOCTYPE svg PUBLIC "-//W3C//DTD SVG 1.1//EN"
  "http://www.w3.org/Graphics/SVG/1.1/DTD/svg11.dtd">
<!-- Created with matplotlib (https://matplotlib.org/) -->
<svg height="720pt" version="1.1" viewBox="0 0 936 720" width="936pt" xmlns="http://www.w3.org/2000/svg" xmlns:xlink="http://www.w3.org/1999/xlink">
 <defs>
  <style type="text/css">
*{stroke-linecap:butt;stroke-linejoin:round;}
  </style>
 </defs>
 <g id="figure_1">
  <g id="patch_1">
   <path d="M 0 720 
L 936 720 
L 936 0 
L 0 0 
z
" style="fill:#ffffff;"/>
  </g>
  <g id="axes_1">
   <g id="patch_2">
    <path d="M 163.48 588.02 
L 891.820285 588.02 
L 891.820285 70.8975 
L 163.48 70.8975 
z
" style="fill:#ffffff;"/>
   </g>
   <g id="matplotlib.axis_1">
    <g id="xtick_1">
     <g id="line2d_1">
      <defs>
       <path d="M 0 0 
L 0 10 
" id="m102b8b2236" style="stroke:#000000;stroke-width:4;"/>
      </defs>
      <g>
       <use style="stroke:#000000;stroke-width:4;" x="196.586377" xlink:href="#m102b8b2236" y="588.02"/>
      </g>
     </g>
     <g id="text_1">
      <!-- 0 -->
      <defs>
       <path d="M 31.78125 66.40625 
Q 24.171875 66.40625 20.328125 58.90625 
Q 16.5 51.421875 16.5 36.375 
Q 16.5 21.390625 20.328125 13.890625 
Q 24.171875 6.390625 31.78125 6.390625 
Q 39.453125 6.390625 43.28125 13.890625 
Q 47.125 21.390625 47.125 36.375 
Q 47.125 51.421875 43.28125 58.90625 
Q 39.453125 66.40625 31.78125 66.40625 
z
M 31.78125 74.21875 
Q 44.046875 74.21875 50.515625 64.515625 
Q 56.984375 54.828125 56.984375 36.375 
Q 56.984375 17.96875 50.515625 8.265625 
Q 44.046875 -1.421875 31.78125 -1.421875 
Q 19.53125 -1.421875 13.0625 8.265625 
Q 6.59375 17.96875 6.59375 36.375 
Q 6.59375 54.828125 13.0625 64.515625 
Q 19.53125 74.21875 31.78125 74.21875 
z
" id="DejaVuSans-48"/>
      </defs>
      <g transform="translate(183.861377 631.91375)scale(0.4 -0.4)">
       <use xlink:href="#DejaVuSans-48"/>
      </g>
     </g>
    </g>
    <g id="xtick_2">
     <g id="line2d_2">
      <g>
       <use style="stroke:#000000;stroke-width:4;" x="362.138954" xlink:href="#m102b8b2236" y="588.02"/>
      </g>
     </g>
     <g id="text_2">
      <!-- 200 -->
      <defs>
       <path d="M 19.1875 8.296875 
L 53.609375 8.296875 
L 53.609375 0 
L 7.328125 0 
L 7.328125 8.296875 
Q 12.9375 14.109375 22.625 23.890625 
Q 32.328125 33.6875 34.8125 36.53125 
Q 39.546875 41.84375 41.421875 45.53125 
Q 43.3125 49.21875 43.3125 52.78125 
Q 43.3125 58.59375 39.234375 62.25 
Q 35.15625 65.921875 28.609375 65.921875 
Q 23.96875 65.921875 18.8125 64.3125 
Q 13.671875 62.703125 7.8125 59.421875 
L 7.8125 69.390625 
Q 13.765625 71.78125 18.9375 73 
Q 24.125 74.21875 28.421875 74.21875 
Q 39.75 74.21875 46.484375 68.546875 
Q 53.21875 62.890625 53.21875 53.421875 
Q 53.21875 48.921875 51.53125 44.890625 
Q 49.859375 40.875 45.40625 35.40625 
Q 44.1875 33.984375 37.640625 27.21875 
Q 31.109375 20.453125 19.1875 8.296875 
z
" id="DejaVuSans-50"/>
      </defs>
      <g transform="translate(323.963954 631.91375)scale(0.4 -0.4)">
       <use xlink:href="#DejaVuSans-50"/>
       <use x="63.623047" xlink:href="#DejaVuSans-48"/>
       <use x="127.246094" xlink:href="#DejaVuSans-48"/>
      </g>
     </g>
    </g>
    <g id="xtick_3">
     <g id="line2d_3">
      <g>
       <use style="stroke:#000000;stroke-width:4;" x="527.691531" xlink:href="#m102b8b2236" y="588.02"/>
      </g>
     </g>
     <g id="text_3">
      <!-- 400 -->
      <defs>
       <path d="M 37.796875 64.3125 
L 12.890625 25.390625 
L 37.796875 25.390625 
z
M 35.203125 72.90625 
L 47.609375 72.90625 
L 47.609375 25.390625 
L 58.015625 25.390625 
L 58.015625 17.1875 
L 47.609375 17.1875 
L 47.609375 0 
L 37.796875 0 
L 37.796875 17.1875 
L 4.890625 17.1875 
L 4.890625 26.703125 
z
" id="DejaVuSans-52"/>
      </defs>
      <g transform="translate(489.516531 631.91375)scale(0.4 -0.4)">
       <use xlink:href="#DejaVuSans-52"/>
       <use x="63.623047" xlink:href="#DejaVuSans-48"/>
       <use x="127.246094" xlink:href="#DejaVuSans-48"/>
      </g>
     </g>
    </g>
    <g id="xtick_4">
     <g id="line2d_4">
      <g>
       <use style="stroke:#000000;stroke-width:4;" x="693.244108" xlink:href="#m102b8b2236" y="588.02"/>
      </g>
     </g>
     <g id="text_4">
      <!-- 600 -->
      <defs>
       <path d="M 33.015625 40.375 
Q 26.375 40.375 22.484375 35.828125 
Q 18.609375 31.296875 18.609375 23.390625 
Q 18.609375 15.53125 22.484375 10.953125 
Q 26.375 6.390625 33.015625 6.390625 
Q 39.65625 6.390625 43.53125 10.953125 
Q 47.40625 15.53125 47.40625 23.390625 
Q 47.40625 31.296875 43.53125 35.828125 
Q 39.65625 40.375 33.015625 40.375 
z
M 52.59375 71.296875 
L 52.59375 62.3125 
Q 48.875 64.0625 45.09375 64.984375 
Q 41.3125 65.921875 37.59375 65.921875 
Q 27.828125 65.921875 22.671875 59.328125 
Q 17.53125 52.734375 16.796875 39.40625 
Q 19.671875 43.65625 24.015625 45.921875 
Q 28.375 48.1875 33.59375 48.1875 
Q 44.578125 48.1875 50.953125 41.515625 
Q 57.328125 34.859375 57.328125 23.390625 
Q 57.328125 12.15625 50.6875 5.359375 
Q 44.046875 -1.421875 33.015625 -1.421875 
Q 20.359375 -1.421875 13.671875 8.265625 
Q 6.984375 17.96875 6.984375 36.375 
Q 6.984375 53.65625 15.1875 63.9375 
Q 23.390625 74.21875 37.203125 74.21875 
Q 40.921875 74.21875 44.703125 73.484375 
Q 48.484375 72.75 52.59375 71.296875 
z
" id="DejaVuSans-54"/>
      </defs>
      <g transform="translate(655.069108 631.91375)scale(0.4 -0.4)">
       <use xlink:href="#DejaVuSans-54"/>
       <use x="63.623047" xlink:href="#DejaVuSans-48"/>
       <use x="127.246094" xlink:href="#DejaVuSans-48"/>
      </g>
     </g>
    </g>
    <g id="xtick_5">
     <g id="line2d_5">
      <g>
       <use style="stroke:#000000;stroke-width:4;" x="858.796685" xlink:href="#m102b8b2236" y="588.02"/>
      </g>
     </g>
     <g id="text_5">
      <!-- 800 -->
      <defs>
       <path d="M 31.78125 34.625 
Q 24.75 34.625 20.71875 30.859375 
Q 16.703125 27.09375 16.703125 20.515625 
Q 16.703125 13.921875 20.71875 10.15625 
Q 24.75 6.390625 31.78125 6.390625 
Q 38.8125 6.390625 42.859375 10.171875 
Q 46.921875 13.96875 46.921875 20.515625 
Q 46.921875 27.09375 42.890625 30.859375 
Q 38.875 34.625 31.78125 34.625 
z
M 21.921875 38.8125 
Q 15.578125 40.375 12.03125 44.71875 
Q 8.5 49.078125 8.5 55.328125 
Q 8.5 64.0625 14.71875 69.140625 
Q 20.953125 74.21875 31.78125 74.21875 
Q 42.671875 74.21875 48.875 69.140625 
Q 55.078125 64.0625 55.078125 55.328125 
Q 55.078125 49.078125 51.53125 44.71875 
Q 48 40.375 41.703125 38.8125 
Q 48.828125 37.15625 52.796875 32.3125 
Q 56.78125 27.484375 56.78125 20.515625 
Q 56.78125 9.90625 50.3125 4.234375 
Q 43.84375 -1.421875 31.78125 -1.421875 
Q 19.734375 -1.421875 13.25 4.234375 
Q 6.78125 9.90625 6.78125 20.515625 
Q 6.78125 27.484375 10.78125 32.3125 
Q 14.796875 37.15625 21.921875 38.8125 
z
M 18.3125 54.390625 
Q 18.3125 48.734375 21.84375 45.5625 
Q 25.390625 42.390625 31.78125 42.390625 
Q 38.140625 42.390625 41.71875 45.5625 
Q 45.3125 48.734375 45.3125 54.390625 
Q 45.3125 60.0625 41.71875 63.234375 
Q 38.140625 66.40625 31.78125 66.40625 
Q 25.390625 66.40625 21.84375 63.234375 
Q 18.3125 60.0625 18.3125 54.390625 
z
" id="DejaVuSans-56"/>
      </defs>
      <g transform="translate(820.621685 631.91375)scale(0.4 -0.4)">
       <use xlink:href="#DejaVuSans-56"/>
       <use x="63.623047" xlink:href="#DejaVuSans-48"/>
       <use x="127.246094" xlink:href="#DejaVuSans-48"/>
      </g>
     </g>
    </g>
    <g id="text_6">
     <!-- Time (ms) -->
     <defs>
      <path d="M -0.296875 72.90625 
L 61.375 72.90625 
L 61.375 64.59375 
L 35.5 64.59375 
L 35.5 0 
L 25.59375 0 
L 25.59375 64.59375 
L -0.296875 64.59375 
z
" id="DejaVuSans-84"/>
      <path d="M 9.421875 54.6875 
L 18.40625 54.6875 
L 18.40625 0 
L 9.421875 0 
z
M 9.421875 75.984375 
L 18.40625 75.984375 
L 18.40625 64.59375 
L 9.421875 64.59375 
z
" id="DejaVuSans-105"/>
      <path d="M 52 44.1875 
Q 55.375 50.25 60.0625 53.125 
Q 64.75 56 71.09375 56 
Q 79.640625 56 84.28125 50.015625 
Q 88.921875 44.046875 88.921875 33.015625 
L 88.921875 0 
L 79.890625 0 
L 79.890625 32.71875 
Q 79.890625 40.578125 77.09375 44.375 
Q 74.3125 48.1875 68.609375 48.1875 
Q 61.625 48.1875 57.5625 43.546875 
Q 53.515625 38.921875 53.515625 30.90625 
L 53.515625 0 
L 44.484375 0 
L 44.484375 32.71875 
Q 44.484375 40.625 41.703125 44.40625 
Q 38.921875 48.1875 33.109375 48.1875 
Q 26.21875 48.1875 22.15625 43.53125 
Q 18.109375 38.875 18.109375 30.90625 
L 18.109375 0 
L 9.078125 0 
L 9.078125 54.6875 
L 18.109375 54.6875 
L 18.109375 46.1875 
Q 21.1875 51.21875 25.484375 53.609375 
Q 29.78125 56 35.6875 56 
Q 41.65625 56 45.828125 52.96875 
Q 50 49.953125 52 44.1875 
z
" id="DejaVuSans-109"/>
      <path d="M 56.203125 29.59375 
L 56.203125 25.203125 
L 14.890625 25.203125 
Q 15.484375 15.921875 20.484375 11.0625 
Q 25.484375 6.203125 34.421875 6.203125 
Q 39.59375 6.203125 44.453125 7.46875 
Q 49.3125 8.734375 54.109375 11.28125 
L 54.109375 2.78125 
Q 49.265625 0.734375 44.1875 -0.34375 
Q 39.109375 -1.421875 33.890625 -1.421875 
Q 20.796875 -1.421875 13.15625 6.1875 
Q 5.515625 13.8125 5.515625 26.8125 
Q 5.515625 40.234375 12.765625 48.109375 
Q 20.015625 56 32.328125 56 
Q 43.359375 56 49.78125 48.890625 
Q 56.203125 41.796875 56.203125 29.59375 
z
M 47.21875 32.234375 
Q 47.125 39.59375 43.09375 43.984375 
Q 39.0625 48.390625 32.421875 48.390625 
Q 24.90625 48.390625 20.390625 44.140625 
Q 15.875 39.890625 15.1875 32.171875 
z
" id="DejaVuSans-101"/>
      <path id="DejaVuSans-32"/>
      <path d="M 31 75.875 
Q 24.46875 64.65625 21.28125 53.65625 
Q 18.109375 42.671875 18.109375 31.390625 
Q 18.109375 20.125 21.3125 9.0625 
Q 24.515625 -2 31 -13.1875 
L 23.1875 -13.1875 
Q 15.875 -1.703125 12.234375 9.375 
Q 8.59375 20.453125 8.59375 31.390625 
Q 8.59375 42.28125 12.203125 53.3125 
Q 15.828125 64.359375 23.1875 75.875 
z
" id="DejaVuSans-40"/>
      <path d="M 44.28125 53.078125 
L 44.28125 44.578125 
Q 40.484375 46.53125 36.375 47.5 
Q 32.28125 48.484375 27.875 48.484375 
Q 21.1875 48.484375 17.84375 46.4375 
Q 14.5 44.390625 14.5 40.28125 
Q 14.5 37.15625 16.890625 35.375 
Q 19.28125 33.59375 26.515625 31.984375 
L 29.59375 31.296875 
Q 39.15625 29.25 43.1875 25.515625 
Q 47.21875 21.78125 47.21875 15.09375 
Q 47.21875 7.46875 41.1875 3.015625 
Q 35.15625 -1.421875 24.609375 -1.421875 
Q 20.21875 -1.421875 15.453125 -0.5625 
Q 10.6875 0.296875 5.421875 2 
L 5.421875 11.28125 
Q 10.40625 8.6875 15.234375 7.390625 
Q 20.0625 6.109375 24.8125 6.109375 
Q 31.15625 6.109375 34.5625 8.28125 
Q 37.984375 10.453125 37.984375 14.40625 
Q 37.984375 18.0625 35.515625 20.015625 
Q 33.0625 21.96875 24.703125 23.78125 
L 21.578125 24.515625 
Q 13.234375 26.265625 9.515625 29.90625 
Q 5.8125 33.546875 5.8125 39.890625 
Q 5.8125 47.609375 11.28125 51.796875 
Q 16.75 56 26.8125 56 
Q 31.78125 56 36.171875 55.265625 
Q 40.578125 54.546875 44.28125 53.078125 
z
" id="DejaVuSans-115"/>
      <path d="M 8.015625 75.875 
L 15.828125 75.875 
Q 23.140625 64.359375 26.78125 53.3125 
Q 30.421875 42.28125 30.421875 31.390625 
Q 30.421875 20.453125 26.78125 9.375 
Q 23.140625 -1.703125 15.828125 -13.1875 
L 8.015625 -13.1875 
Q 14.5 -2 17.703125 9.0625 
Q 20.90625 20.125 20.90625 31.390625 
Q 20.90625 42.671875 17.703125 53.65625 
Q 14.5 64.65625 8.015625 75.875 
z
" id="DejaVuSans-41"/>
     </defs>
     <g transform="translate(413.56108 678.425469)scale(0.45 -0.45)">
      <use xlink:href="#DejaVuSans-84"/>
      <use x="61.037109" xlink:href="#DejaVuSans-105"/>
      <use x="88.820312" xlink:href="#DejaVuSans-109"/>
      <use x="186.232422" xlink:href="#DejaVuSans-101"/>
      <use x="247.755859" xlink:href="#DejaVuSans-32"/>
      <use x="279.542969" xlink:href="#DejaVuSans-40"/>
      <use x="318.556641" xlink:href="#DejaVuSans-109"/>
      <use x="415.96875" xlink:href="#DejaVuSans-115"/>
      <use x="468.068359" xlink:href="#DejaVuSans-41"/>
     </g>
    </g>
   </g>
   <g id="matplotlib.axis_2">
    <g id="ytick_1">
     <g id="line2d_6">
      <defs>
       <path d="M 0 0 
L -10 0 
" id="m74837a102e" style="stroke:#000000;stroke-width:4;"/>
      </defs>
      <g>
       <use style="stroke:#000000;stroke-width:4;" x="163.48" xlink:href="#m74837a102e" y="588.02"/>
      </g>
     </g>
     <g id="text_7">
      <!-- 0.0 -->
      <defs>
       <path d="M 10.6875 12.40625 
L 21 12.40625 
L 21 0 
L 10.6875 0 
z
" id="DejaVuSans-46"/>
      </defs>
      <g transform="translate(86.3675 603.216875)scale(0.4 -0.4)">
       <use xlink:href="#DejaVuSans-48"/>
       <use x="63.623047" xlink:href="#DejaVuSans-46"/>
       <use x="95.410156" xlink:href="#DejaVuSans-48"/>
      </g>
     </g>
    </g>
    <g id="ytick_2">
     <g id="line2d_7">
      <g>
       <use style="stroke:#000000;stroke-width:4;" x="163.48" xlink:href="#m74837a102e" y="484.5955"/>
      </g>
     </g>
     <g id="text_8">
      <!-- 0.2 -->
      <g transform="translate(86.3675 499.792375)scale(0.4 -0.4)">
       <use xlink:href="#DejaVuSans-48"/>
       <use x="63.623047" xlink:href="#DejaVuSans-46"/>
       <use x="95.410156" xlink:href="#DejaVuSans-50"/>
      </g>
     </g>
    </g>
    <g id="ytick_3">
     <g id="line2d_8">
      <g>
       <use style="stroke:#000000;stroke-width:4;" x="163.48" xlink:href="#m74837a102e" y="381.171"/>
      </g>
     </g>
     <g id="text_9">
      <!-- 0.4 -->
      <g transform="translate(86.3675 396.367875)scale(0.4 -0.4)">
       <use xlink:href="#DejaVuSans-48"/>
       <use x="63.623047" xlink:href="#DejaVuSans-46"/>
       <use x="95.410156" xlink:href="#DejaVuSans-52"/>
      </g>
     </g>
    </g>
    <g id="ytick_4">
     <g id="line2d_9">
      <g>
       <use style="stroke:#000000;stroke-width:4;" x="163.48" xlink:href="#m74837a102e" y="277.7465"/>
      </g>
     </g>
     <g id="text_10">
      <!-- 0.6 -->
      <g transform="translate(86.3675 292.943375)scale(0.4 -0.4)">
       <use xlink:href="#DejaVuSans-48"/>
       <use x="63.623047" xlink:href="#DejaVuSans-46"/>
       <use x="95.410156" xlink:href="#DejaVuSans-54"/>
      </g>
     </g>
    </g>
    <g id="ytick_5">
     <g id="line2d_10">
      <g>
       <use style="stroke:#000000;stroke-width:4;" x="163.48" xlink:href="#m74837a102e" y="174.322"/>
      </g>
     </g>
     <g id="text_11">
      <!-- 0.8 -->
      <g transform="translate(86.3675 189.518875)scale(0.4 -0.4)">
       <use xlink:href="#DejaVuSans-48"/>
       <use x="63.623047" xlink:href="#DejaVuSans-46"/>
       <use x="95.410156" xlink:href="#DejaVuSans-56"/>
      </g>
     </g>
    </g>
    <g id="ytick_6">
     <g id="line2d_11">
      <g>
       <use style="stroke:#000000;stroke-width:4;" x="163.48" xlink:href="#m74837a102e" y="70.8975"/>
      </g>
     </g>
     <g id="text_12">
      <!-- 1.0 -->
      <defs>
       <path d="M 12.40625 8.296875 
L 28.515625 8.296875 
L 28.515625 63.921875 
L 10.984375 60.40625 
L 10.984375 69.390625 
L 28.421875 72.90625 
L 38.28125 72.90625 
L 38.28125 8.296875 
L 54.390625 8.296875 
L 54.390625 0 
L 12.40625 0 
z
" id="DejaVuSans-49"/>
      </defs>
      <g transform="translate(86.3675 86.094375)scale(0.4 -0.4)">
       <use xlink:href="#DejaVuSans-49"/>
       <use x="63.623047" xlink:href="#DejaVuSans-46"/>
       <use x="95.410156" xlink:href="#DejaVuSans-48"/>
      </g>
     </g>
    </g>
    <g id="text_13">
     <!-- DNa02 firing rate difference -->
     <defs>
      <path d="M 19.671875 64.796875 
L 19.671875 8.109375 
L 31.59375 8.109375 
Q 46.6875 8.109375 53.6875 14.9375 
Q 60.6875 21.78125 60.6875 36.53125 
Q 60.6875 51.171875 53.6875 57.984375 
Q 46.6875 64.796875 31.59375 64.796875 
z
M 9.8125 72.90625 
L 30.078125 72.90625 
Q 51.265625 72.90625 61.171875 64.09375 
Q 71.09375 55.28125 71.09375 36.53125 
Q 71.09375 17.671875 61.125 8.828125 
Q 51.171875 0 30.078125 0 
L 9.8125 0 
z
" id="DejaVuSans-68"/>
      <path d="M 9.8125 72.90625 
L 23.09375 72.90625 
L 55.421875 11.921875 
L 55.421875 72.90625 
L 64.984375 72.90625 
L 64.984375 0 
L 51.703125 0 
L 19.390625 60.984375 
L 19.390625 0 
L 9.8125 0 
z
" id="DejaVuSans-78"/>
      <path d="M 34.28125 27.484375 
Q 23.390625 27.484375 19.1875 25 
Q 14.984375 22.515625 14.984375 16.5 
Q 14.984375 11.71875 18.140625 8.90625 
Q 21.296875 6.109375 26.703125 6.109375 
Q 34.1875 6.109375 38.703125 11.40625 
Q 43.21875 16.703125 43.21875 25.484375 
L 43.21875 27.484375 
z
M 52.203125 31.203125 
L 52.203125 0 
L 43.21875 0 
L 43.21875 8.296875 
Q 40.140625 3.328125 35.546875 0.953125 
Q 30.953125 -1.421875 24.3125 -1.421875 
Q 15.921875 -1.421875 10.953125 3.296875 
Q 6 8.015625 6 15.921875 
Q 6 25.140625 12.171875 29.828125 
Q 18.359375 34.515625 30.609375 34.515625 
L 43.21875 34.515625 
L 43.21875 35.40625 
Q 43.21875 41.609375 39.140625 45 
Q 35.0625 48.390625 27.6875 48.390625 
Q 23 48.390625 18.546875 47.265625 
Q 14.109375 46.140625 10.015625 43.890625 
L 10.015625 52.203125 
Q 14.9375 54.109375 19.578125 55.046875 
Q 24.21875 56 28.609375 56 
Q 40.484375 56 46.34375 49.84375 
Q 52.203125 43.703125 52.203125 31.203125 
z
" id="DejaVuSans-97"/>
      <path d="M 37.109375 75.984375 
L 37.109375 68.5 
L 28.515625 68.5 
Q 23.6875 68.5 21.796875 66.546875 
Q 19.921875 64.59375 19.921875 59.515625 
L 19.921875 54.6875 
L 34.71875 54.6875 
L 34.71875 47.703125 
L 19.921875 47.703125 
L 19.921875 0 
L 10.890625 0 
L 10.890625 47.703125 
L 2.296875 47.703125 
L 2.296875 54.6875 
L 10.890625 54.6875 
L 10.890625 58.5 
Q 10.890625 67.625 15.140625 71.796875 
Q 19.390625 75.984375 28.609375 75.984375 
z
" id="DejaVuSans-102"/>
      <path d="M 41.109375 46.296875 
Q 39.59375 47.171875 37.8125 47.578125 
Q 36.03125 48 33.890625 48 
Q 26.265625 48 22.1875 43.046875 
Q 18.109375 38.09375 18.109375 28.8125 
L 18.109375 0 
L 9.078125 0 
L 9.078125 54.6875 
L 18.109375 54.6875 
L 18.109375 46.1875 
Q 20.953125 51.171875 25.484375 53.578125 
Q 30.03125 56 36.53125 56 
Q 37.453125 56 38.578125 55.875 
Q 39.703125 55.765625 41.0625 55.515625 
z
" id="DejaVuSans-114"/>
      <path d="M 54.890625 33.015625 
L 54.890625 0 
L 45.90625 0 
L 45.90625 32.71875 
Q 45.90625 40.484375 42.875 44.328125 
Q 39.84375 48.1875 33.796875 48.1875 
Q 26.515625 48.1875 22.3125 43.546875 
Q 18.109375 38.921875 18.109375 30.90625 
L 18.109375 0 
L 9.078125 0 
L 9.078125 54.6875 
L 18.109375 54.6875 
L 18.109375 46.1875 
Q 21.34375 51.125 25.703125 53.5625 
Q 30.078125 56 35.796875 56 
Q 45.21875 56 50.046875 50.171875 
Q 54.890625 44.34375 54.890625 33.015625 
z
" id="DejaVuSans-110"/>
      <path d="M 45.40625 27.984375 
Q 45.40625 37.75 41.375 43.109375 
Q 37.359375 48.484375 30.078125 48.484375 
Q 22.859375 48.484375 18.828125 43.109375 
Q 14.796875 37.75 14.796875 27.984375 
Q 14.796875 18.265625 18.828125 12.890625 
Q 22.859375 7.515625 30.078125 7.515625 
Q 37.359375 7.515625 41.375 12.890625 
Q 45.40625 18.265625 45.40625 27.984375 
z
M 54.390625 6.78125 
Q 54.390625 -7.171875 48.1875 -13.984375 
Q 42 -20.796875 29.203125 -20.796875 
Q 24.46875 -20.796875 20.265625 -20.09375 
Q 16.0625 -19.390625 12.109375 -17.921875 
L 12.109375 -9.1875 
Q 16.0625 -11.328125 19.921875 -12.34375 
Q 23.78125 -13.375 27.78125 -13.375 
Q 36.625 -13.375 41.015625 -8.765625 
Q 45.40625 -4.15625 45.40625 5.171875 
L 45.40625 9.625 
Q 42.625 4.78125 38.28125 2.390625 
Q 33.9375 0 27.875 0 
Q 17.828125 0 11.671875 7.65625 
Q 5.515625 15.328125 5.515625 27.984375 
Q 5.515625 40.671875 11.671875 48.328125 
Q 17.828125 56 27.875 56 
Q 33.9375 56 38.28125 53.609375 
Q 42.625 51.21875 45.40625 46.390625 
L 45.40625 54.6875 
L 54.390625 54.6875 
z
" id="DejaVuSans-103"/>
      <path d="M 18.3125 70.21875 
L 18.3125 54.6875 
L 36.8125 54.6875 
L 36.8125 47.703125 
L 18.3125 47.703125 
L 18.3125 18.015625 
Q 18.3125 11.328125 20.140625 9.421875 
Q 21.96875 7.515625 27.59375 7.515625 
L 36.8125 7.515625 
L 36.8125 0 
L 27.59375 0 
Q 17.1875 0 13.234375 3.875 
Q 9.28125 7.765625 9.28125 18.015625 
L 9.28125 47.703125 
L 2.6875 47.703125 
L 2.6875 54.6875 
L 9.28125 54.6875 
L 9.28125 70.21875 
z
" id="DejaVuSans-116"/>
      <path d="M 45.40625 46.390625 
L 45.40625 75.984375 
L 54.390625 75.984375 
L 54.390625 0 
L 45.40625 0 
L 45.40625 8.203125 
Q 42.578125 3.328125 38.25 0.953125 
Q 33.9375 -1.421875 27.875 -1.421875 
Q 17.96875 -1.421875 11.734375 6.484375 
Q 5.515625 14.40625 5.515625 27.296875 
Q 5.515625 40.1875 11.734375 48.09375 
Q 17.96875 56 27.875 56 
Q 33.9375 56 38.25 53.625 
Q 42.578125 51.265625 45.40625 46.390625 
z
M 14.796875 27.296875 
Q 14.796875 17.390625 18.875 11.75 
Q 22.953125 6.109375 30.078125 6.109375 
Q 37.203125 6.109375 41.296875 11.75 
Q 45.40625 17.390625 45.40625 27.296875 
Q 45.40625 37.203125 41.296875 42.84375 
Q 37.203125 48.484375 30.078125 48.484375 
Q 22.953125 48.484375 18.875 42.84375 
Q 14.796875 37.203125 14.796875 27.296875 
z
" id="DejaVuSans-100"/>
      <path d="M 48.78125 52.59375 
L 48.78125 44.1875 
Q 44.96875 46.296875 41.140625 47.34375 
Q 37.3125 48.390625 33.40625 48.390625 
Q 24.65625 48.390625 19.8125 42.84375 
Q 14.984375 37.3125 14.984375 27.296875 
Q 14.984375 17.28125 19.8125 11.734375 
Q 24.65625 6.203125 33.40625 6.203125 
Q 37.3125 6.203125 41.140625 7.25 
Q 44.96875 8.296875 48.78125 10.40625 
L 48.78125 2.09375 
Q 45.015625 0.34375 40.984375 -0.53125 
Q 36.96875 -1.421875 32.421875 -1.421875 
Q 20.0625 -1.421875 12.78125 6.34375 
Q 5.515625 14.109375 5.515625 27.296875 
Q 5.515625 40.671875 12.859375 48.328125 
Q 20.21875 56 33.015625 56 
Q 37.15625 56 41.109375 55.140625 
Q 45.0625 54.296875 48.78125 52.59375 
z
" id="DejaVuSans-99"/>
     </defs>
     <g transform="translate(73.008906 645.19)rotate(-90)scale(0.45 -0.45)">
      <use xlink:href="#DejaVuSans-68"/>
      <use x="77.001953" xlink:href="#DejaVuSans-78"/>
      <use x="151.806641" xlink:href="#DejaVuSans-97"/>
      <use x="213.085938" xlink:href="#DejaVuSans-48"/>
      <use x="276.708984" xlink:href="#DejaVuSans-50"/>
      <use x="340.332031" xlink:href="#DejaVuSans-32"/>
      <use x="372.119141" xlink:href="#DejaVuSans-102"/>
      <use x="407.324219" xlink:href="#DejaVuSans-105"/>
      <use x="435.107422" xlink:href="#DejaVuSans-114"/>
      <use x="476.220703" xlink:href="#DejaVuSans-105"/>
      <use x="504.003906" xlink:href="#DejaVuSans-110"/>
      <use x="567.382812" xlink:href="#DejaVuSans-103"/>
      <use x="630.859375" xlink:href="#DejaVuSans-32"/>
      <use x="662.646484" xlink:href="#DejaVuSans-114"/>
      <use x="703.759766" xlink:href="#DejaVuSans-97"/>
      <use x="765.039062" xlink:href="#DejaVuSans-116"/>
      <use x="804.248047" xlink:href="#DejaVuSans-101"/>
      <use x="865.771484" xlink:href="#DejaVuSans-32"/>
      <use x="897.558594" xlink:href="#DejaVuSans-100"/>
      <use x="961.035156" xlink:href="#DejaVuSans-105"/>
      <use x="988.818359" xlink:href="#DejaVuSans-102"/>
      <use x="1024.023438" xlink:href="#DejaVuSans-102"/>
      <use x="1059.228516" xlink:href="#DejaVuSans-101"/>
      <use x="1120.751953" xlink:href="#DejaVuSans-114"/>
      <use x="1161.833984" xlink:href="#DejaVuSans-101"/>
      <use x="1223.357422" xlink:href="#DejaVuSans-110"/>
      <use x="1286.736328" xlink:href="#DejaVuSans-99"/>
      <use x="1341.716797" xlink:href="#DejaVuSans-101"/>
     </g>
    </g>
   </g>
   <g id="line2d_12">
    <path clip-path="url(#p0dd4730fda)" d="M 196.586377 588.02 
L 237.312311 587.909842 
L 247.742123 587.677247 
L 257.923606 587.223421 
L 266.697893 586.685706 
L 272.326681 586.138191 
L 277.872692 585.364095 
L 282.59094 584.508025 
L 286.067544 583.609264 
L 289.461372 582.472899 
L 292.772424 581.102439 
L 296.083475 579.476045 
L 298.732317 577.916681 
L 301.381158 576.046954 
L 303.698894 574.151997 
L 305.685525 572.226702 
L 308.25159 569.352268 
L 310.320997 566.666686 
L 312.224852 563.824671 
L 314.294259 560.331769 
L 316.529219 556.113246 
L 318.598626 551.712282 
L 320.833586 546.434945 
L 322.902993 541.022846 
L 325.055176 534.738115 
L 327.124584 528.022737 
L 329.193991 520.497306 
L 331.346174 511.850178 
L 333.66391 501.558778 
L 336.064423 489.894361 
L 338.464935 477.214002 
L 341.527658 459.651939 
L 346.16313 431.675758 
L 350.798602 403.907959 
L 353.364667 389.83593 
L 355.599627 378.799564 
L 357.669034 369.671341 
L 359.572889 362.274697 
L 361.311191 356.38962 
L 362.88394 351.841454 
L 364.291137 348.373197 
L 365.698334 345.497664 
L 366.939978 343.422535 
L 368.098846 341.901486 
L 369.092162 340.925551 
L 370.168254 340.177455 
L 371.161569 339.736243 
L 372.237661 339.529542 
L 373.1482 339.562591 
L 374.058739 339.817543 
L 375.052055 340.323362 
L 376.128146 341.13135 
L 377.287014 342.300018 
L 378.528659 343.910092 
L 380.101408 346.355123 
L 381.83971 349.51683 
L 383.826341 353.632319 
L 386.061301 358.779335 
L 388.875695 365.975118 
L 392.021194 374.715258 
L 395.415022 384.805198 
L 408.82478 425.657649 
L 413.046371 437.521209 
L 417.76462 450.099339 
L 422.648421 462.334313 
L 426.538906 471.463074 
L 430.926049 481.117219 
L 434.237101 487.838297 
L 437.548153 493.997182 
L 440.445323 498.946652 
L 443.590822 503.92873 
L 446.653544 508.385384 
L 449.799043 512.515935 
L 452.696213 515.978559 
L 455.924489 519.46262 
L 458.407777 521.868057 
L 461.304947 524.348255 
L 465.692091 527.797058 
L 471.486431 532.090804 
L 474.63193 534.131196 
L 478.025758 536.138348 
L 481.585138 538.008784 
L 485.475624 539.753145 
L 488.45557 540.887435 
L 492.428832 542.163779 
L 496.319317 543.176009 
L 502.113658 544.446547 
L 508.156327 545.739132 
L 516.185627 547.692408 
L 522.973282 549.602948 
L 528.850399 551.292505 
L 534.810292 552.668595 
L 543.667354 554.382767 
L 551.613878 555.663003 
L 558.153205 556.444486 
L 587.621564 559.330266 
L 592.753694 559.515732 
L 598.796363 559.480435 
L 609.060622 558.992844 
L 614.109976 558.88295 
L 622.0565 558.909715 
L 626.360867 559.157322 
L 635.714587 559.892671 
L 648.462136 560.889413 
L 653.677042 561.123269 
L 663.52742 561.266927 
L 680.744888 561.488656 
L 693.823542 561.81517 
L 701.190631 561.521021 
L 708.971603 561.026522 
L 719.484191 560.35495 
L 726.106294 560.110125 
L 736.784436 560.03907 
L 741.833789 560.187245 
L 756.071311 560.701563 
L 764.597268 560.594636 
L 782.145842 560.335161 
L 788.188511 560.442699 
L 796.135034 560.931881 
L 814.014713 562.322526 
L 819.064066 562.393228 
L 824.278973 562.286262 
L 836.364311 561.732655 
L 846.711347 561.227207 
L 851.264043 561.267867 
L 855.651186 561.496477 
L 858.713909 561.733788 
L 858.713909 561.733788 
" style="fill:none;stroke:#ffa500;stroke-dasharray:29.6,12.8;stroke-dashoffset:0;stroke-width:8;"/>
   </g>
   <g id="line2d_13">
    <path clip-path="url(#p0dd4730fda)" d="M 196.586377 588.02 
L 237.395087 587.909218 
L 244.762177 587.715233 
L 253.784792 587.211974 
L 261.069105 586.578791 
L 267.856761 585.713153 
L 272.409457 584.91483 
L 277.541587 583.810262 
L 282.342612 582.522972 
L 285.405334 581.487619 
L 288.633609 580.1633 
L 291.53078 578.708126 
L 294.262397 577.064192 
L 297.076791 575.125226 
L 299.56008 573.136812 
L 302.208921 570.722937 
L 304.443881 568.407332 
L 306.67884 565.76598 
L 309.079353 562.552721 
L 311.314313 559.154538 
L 313.218167 555.874139 
L 315.122022 552.165257 
L 316.9431 548.188051 
L 319.095284 542.938263 
L 320.999138 537.719275 
L 322.985769 531.579666 
L 324.9724 524.733 
L 326.959031 517.069241 
L 329.028438 508.154875 
L 331.097845 498.222222 
L 333.250029 486.757625 
L 335.319436 474.501278 
L 337.554396 459.882846 
L 340.120461 441.499731 
L 342.60375 422.209663 
L 345.583696 397.326277 
L 350.384721 354.958245 
L 355.268522 312.264443 
L 358.082916 289.685281 
L 360.400652 272.796594 
L 362.552835 258.692591 
L 364.539466 247.100439 
L 366.443321 237.32157 
L 368.098846 229.879692 
L 369.837148 223.109221 
L 371.409898 217.845885 
L 372.899871 213.600006 
L 374.389844 209.991573 
L 375.797041 207.151916 
L 377.121462 204.964205 
L 378.611435 202.916505 
L 379.935856 201.462557 
L 381.1775 200.412781 
L 382.419144 199.685547 
L 383.660789 199.209559 
L 384.902433 198.963117 
L 386.475182 198.933167 
L 387.716827 199.150929 
L 389.041247 199.602898 
L 390.365668 200.278479 
L 391.938418 201.32624 
L 393.925048 202.979572 
L 396.242785 205.210101 
L 398.560521 207.714815 
L 401.374914 211.072661 
L 406.010387 216.988763 
L 410.480306 223.174997 
L 414.453568 229.026636 
L 419.006264 235.965363 
L 426.373354 247.693965 
L 432.167694 256.858245 
L 435.727074 262.215294 
L 441.686967 270.55619 
L 449.302385 280.762199 
L 456.752251 290.279107 
L 461.222171 295.402165 
L 468.589261 303.414508 
L 473.886943 309.059808 
L 476.949666 311.906576 
L 479.598507 314.102501 
L 482.495677 316.133607 
L 488.952228 320.25188 
L 496.567646 325.131816 
L 506.086919 331.627579 
L 519.496678 340.774794 
L 523.056059 342.711401 
L 527.194873 344.755159 
L 533.071989 347.174753 
L 541.101289 349.688272 
L 544.743446 351.107245 
L 547.143959 352.2969 
L 550.289457 354.184829 
L 557.159889 358.622662 
L 562.871453 362.201075 
L 565.271966 363.439337 
L 568.914122 364.962658 
L 581.165013 369.552632 
L 583.896631 370.631753 
L 587.869892 371.948712 
L 593.415904 373.462574 
L 597.803047 374.164751 
L 601.114099 374.422725 
L 604.259598 374.376089 
L 606.825663 374.040988 
L 610.053938 373.427151 
L 619.987092 371.209183 
L 627.105853 369.375446 
L 629.671918 368.853678 
L 631.492997 368.681655 
L 634.638496 368.635843 
L 641.840033 368.904742 
L 644.57165 369.249893 
L 648.048254 370.049994 
L 654.008147 371.509874 
L 657.567527 372.000047 
L 663.113539 372.400724 
L 667.99734 372.685808 
L 672.053378 373.247314 
L 679.58602 374.288442 
L 682.400414 374.467759 
L 686.704781 374.780331 
L 690.264161 375.196264 
L 692.664674 375.682878 
L 697.87958 376.67728 
L 700.528421 376.963942 
L 713.27597 377.653154 
L 720.725836 377.789839 
L 724.450769 377.400011 
L 727.513491 376.82171 
L 731.983411 375.733109 
L 736.618883 374.259237 
L 740.509369 373.054857 
L 742.827105 372.546541 
L 746.386485 371.965331 
L 750.442523 371.839379 
L 754.08468 372.060983 
L 756.899074 372.465975 
L 760.292901 373.062569 
L 763.852282 373.907702 
L 770.14328 375.635132 
L 773.537108 376.770023 
L 777.096488 377.914826 
L 785.374117 380.503141 
L 791.582339 382.898972 
L 795.721153 384.50285 
L 803.171019 387.043241 
L 805.571531 387.654582 
L 810.041451 388.463004 
L 812.441963 388.713656 
L 815.753015 388.84052 
L 819.809053 388.671471 
L 821.712908 388.334579 
L 825.106735 387.471883 
L 832.639378 385.58704 
L 836.033205 385.204417 
L 840.503125 385.038615 
L 843.648624 385.135663 
L 849.442964 385.713855 
L 853.002345 386.29683 
L 856.313396 387.01924 
L 858.713909 387.475224 
L 858.713909 387.475224 
" style="fill:none;stroke:#008000;stroke-dasharray:29.6,12.8;stroke-dashoffset:0;stroke-width:8;"/>
   </g>
   <g id="line2d_14">
    <path clip-path="url(#p0dd4730fda)" d="M 196.586377 588.02 
L 239.050613 587.909293 
L 253.205358 587.522631 
L 261.234658 587.079099 
L 269.595063 586.432403 
L 277.044929 585.664379 
L 281.763177 584.934587 
L 287.143636 583.853855 
L 292.8552 582.393615 
L 297.407896 580.998714 
L 300.967276 579.675635 
L 304.774986 577.952392 
L 309.741563 575.508643 
L 313.218167 573.543387 
L 316.777548 571.304434 
L 320.916362 568.399829 
L 325.386282 564.906235 
L 328.449004 562.262546 
L 333.0017 557.946317 
L 336.974962 553.84168 
L 341.858763 548.531941 
L 345.914801 543.808996 
L 367.188307 517.9741 
L 374.307068 508.852078 
L 383.41246 497.82101 
L 390.613997 489.864898 
L 396.57389 483.826842 
L 414.536344 466.524974 
L 418.509606 462.363319 
L 423.55896 457.070711 
L 427.366669 453.51563 
L 430.263839 451.098719 
L 432.664351 449.385594 
L 435.561522 447.551105 
L 438.127587 446.22049 
L 440.693651 445.209772 
L 452.365108 440.937423 
L 455.510607 439.370116 
L 463.374355 435.294839 
L 467.016511 433.784428 
L 470.741444 432.663673 
L 474.135272 431.902439 
L 477.860205 431.309518 
L 481.667914 431.029128 
L 484.565084 431.048126 
L 490.276648 431.430363 
L 500.04425 431.889948 
L 502.775868 431.736959 
L 505.259157 431.387692 
L 507.990774 430.741908 
L 511.384602 429.686233 
L 516.433955 428.204085 
L 518.668915 427.776054 
L 521.152204 427.511356 
L 523.056059 427.538501 
L 530.174819 427.689071 
L 544.743446 427.186452 
L 549.047813 427.468865 
L 552.938299 428.00105 
L 555.338811 428.555305 
L 558.649863 429.321365 
L 563.202558 430.124222 
L 571.149082 431.233343 
L 574.956791 431.294303 
L 577.688409 431.094742 
L 581.247789 430.59954 
L 584.062183 429.902351 
L 600.617441 425.847348 
L 602.852401 425.532002 
L 605.335689 425.43243 
L 618.166014 425.291611 
L 623.132591 424.873887 
L 626.360867 424.503272 
L 629.837471 423.907057 
L 638.363428 422.381638 
L 643.661111 421.963507 
L 646.80661 421.957054 
L 649.538227 422.280913 
L 653.594266 423.098471 
L 666.42459 426.351567 
L 673.212246 427.634516 
L 687.366991 429.434504 
L 690.595267 429.908678 
L 696.141278 430.324376 
L 699.783435 430.159819 
L 702.763381 429.754514 
L 705.412222 429.184907 
L 708.226616 428.403771 
L 715.262601 426.065831 
L 717.911442 425.725817 
L 721.884704 425.517216 
L 738.522738 425.467137 
L 741.337131 425.343518 
L 747.628129 425.307612 
L 751.021957 425.683884 
L 754.250232 426.279841 
L 760.292901 427.696449 
L 765.425031 428.86078 
L 769.894951 429.734117 
L 776.268725 430.650556 
L 791.665115 431.908819 
L 802.508809 431.94284 
L 804.909321 431.714717 
L 810.207003 430.666566 
L 814.759699 429.827063 
L 818.815737 429.233904 
L 823.699539 428.491867 
L 828.003906 427.661409 
L 835.619324 426.301365 
L 842.572532 425.174577 
L 847.704662 424.283303 
L 850.022398 424.134408 
L 853.002345 424.21517 
L 854.988976 424.505569 
L 857.637817 425.106796 
L 858.713909 425.353216 
L 858.713909 425.353216 
" style="fill:none;stroke:#ffa500;stroke-linecap:square;stroke-width:8;"/>
   </g>
   <g id="line2d_15">
    <path clip-path="url(#p0dd4730fda)" d="M 196.586377 588.02 
L 236.732877 587.910319 
L 247.079913 587.561494 
L 257.344172 586.980148 
L 265.290696 586.266968 
L 271.085036 585.498204 
L 276.631048 584.554362 
L 281.680401 583.427296 
L 286.39865 582.136367 
L 291.116898 580.612387 
L 294.179621 579.360017 
L 297.98733 577.57609 
L 301.050053 575.940604 
L 304.361104 573.961118 
L 307.009945 572.121665 
L 309.989892 569.776968 
L 312.804286 567.291779 
L 316.032561 564.130343 
L 319.095284 560.811771 
L 322.158006 557.169032 
L 325.055176 553.341765 
L 327.86957 549.240288 
L 330.601188 544.883693 
L 333.498358 539.921812 
L 336.395528 534.511061 
L 338.961593 529.192328 
L 341.610434 523.194342 
L 344.093723 517.055887 
L 346.659788 510.124795 
L 349.308629 502.330217 
L 351.791918 494.378617 
L 354.357983 485.397287 
L 357.337929 474.148687 
L 360.731757 460.39018 
L 363.960032 446.382738 
L 367.105531 431.825763 
L 370.996017 412.804406 
L 375.797041 388.07649 
L 381.922487 355.34493 
L 398.312192 267.773146 
L 401.788796 250.984133 
L 405.348176 234.807031 
L 409.404214 217.40662 
L 412.963595 203.044901 
L 416.109094 191.273514 
L 418.757935 182.175019 
L 421.324 174.126643 
L 424.055617 166.321951 
L 426.538906 159.846019 
L 429.187747 153.518866 
L 431.836589 147.773162 
L 434.237101 143.058668 
L 436.803166 138.508707 
L 439.203678 134.695638 
L 441.686967 131.179564 
L 444.170256 128.065535 
L 446.653544 125.296626 
L 449.219609 122.78121 
L 452.116779 120.275832 
L 454.931173 118.128758 
L 457.828343 116.215245 
L 461.056618 114.377556 
L 464.533223 112.666642 
L 467.844274 111.289505 
L 471.73476 109.90427 
L 476.121903 108.598841 
L 480.509046 107.497018 
L 484.316756 106.768728 
L 492.263279 105.527606 
L 506.086919 103.631501 
L 513.619562 102.927668 
L 526.615439 101.97657 
L 538.949106 101.19376 
L 572.30795 99.563503 
L 583.731078 99.475842 
L 597.471942 99.433149 
L 607.984531 99.17772 
L 624.291459 98.906917 
L 635.135153 98.9955 
L 652.849279 98.789994 
L 692.581897 97.912724 
L 706.653867 97.909918 
L 724.036887 98.037252 
L 755.077995 97.884607 
L 778.255356 98.09666 
L 793.072312 97.962757 
L 806.813176 97.983386 
L 840.254796 97.596911 
L 856.313396 97.643686 
L 858.713909 97.641469 
L 858.713909 97.641469 
" style="fill:none;stroke:#008000;stroke-linecap:square;stroke-width:8;"/>
   </g>
   <g id="line2d_16">
    <path clip-path="url(#p0dd4730fda)" d="M 196.586377 588.02 
L 238.057297 587.909523 
L 250.639293 587.616285 
L 258.420264 587.30344 
L 265.952906 586.782404 
L 271.66447 586.128066 
L 276.7966 585.339136 
L 281.763177 584.399753 
L 286.564202 583.320586 
L 290.371912 582.228347 
L 294.262397 580.830183 
L 297.242343 579.494622 
L 301.050053 577.525587 
L 303.616118 575.971369 
L 306.513288 573.962523 
L 309.079353 571.936518 
L 311.645418 569.59552 
L 314.211483 566.934016 
L 316.529219 564.209082 
L 318.764178 561.26187 
L 320.668033 558.40911 
L 323.151322 554.265272 
L 325.137953 550.520423 
L 326.959031 546.659168 
L 329.111215 541.54121 
L 331.511727 535.229524 
L 333.912239 528.30322 
L 336.064423 521.42445 
L 338.299383 513.463327 
L 340.534342 504.673797 
L 342.934855 494.247021 
L 345.252591 483.314756 
L 348.066985 468.807948 
L 350.881378 453.111019 
L 354.937417 429.13106 
L 360.814533 392.955256 
L 364.539466 370.798042 
L 367.271084 355.662672 
L 369.671596 343.635126 
L 371.658227 334.734749 
L 373.479305 327.589579 
L 375.134831 321.954946 
L 376.70758 317.350517 
L 378.114777 313.883591 
L 379.439198 311.172136 
L 380.680842 309.082585 
L 381.83971 307.530089 
L 382.998578 306.340731 
L 383.991894 305.627939 
L 384.985209 305.187532 
L 385.895748 305.00255 
L 386.806288 305.039321 
L 387.716827 305.296421 
L 388.792919 305.857605 
L 389.86901 306.712315 
L 391.027878 307.937273 
L 392.269523 309.591459 
L 393.67672 311.872996 
L 395.083916 314.562146 
L 396.491113 317.741376 
L 398.146639 322.03691 
L 399.967718 327.386036 
L 402.119901 334.480577 
L 404.437637 342.819099 
L 407.252031 353.852343 
L 410.811411 368.823489 
L 425.462814 431.552713 
L 429.767181 448.443323 
L 433.574891 462.584284 
L 437.299824 475.645369 
L 440.776428 487.039599 
L 443.756374 496.047356 
L 446.819097 504.547672 
L 450.130148 513.040867 
L 453.4412 520.894984 
L 456.255594 527.004681 
L 458.904435 532.277257 
L 461.4705 536.949126 
L 464.119341 541.326656 
L 466.685406 545.132534 
L 469.251471 548.550654 
L 471.983089 551.830784 
L 474.549153 554.576176 
L 477.197995 557.090628 
L 479.929612 559.380676 
L 482.992335 561.650199 
L 486.468939 563.920986 
L 490.111096 566.010007 
L 493.918805 567.945473 
L 498.223172 569.86348 
L 502.196434 571.388802 
L 506.500801 572.783804 
L 511.384602 574.112376 
L 516.351179 575.231698 
L 522.890506 576.451448 
L 530.505925 577.62486 
L 538.618001 578.624698 
L 547.143959 579.481488 
L 557.8221 580.310423 
L 570.238543 581.030463 
L 584.227736 581.647137 
L 598.63081 582.074847 
L 613.613318 582.389239 
L 628.926932 582.506732 
L 642.667795 582.645678 
L 684.138716 583.419659 
L 785.456893 583.969468 
L 821.21625 583.861184 
L 858.713909 583.788833 
L 858.713909 583.788833 
" style="fill:none;stroke:#ffa500;stroke-dasharray:8,13.2;stroke-dashoffset:0;stroke-width:8;"/>
   </g>
   <g id="line2d_17">
    <path clip-path="url(#p0dd4730fda)" d="M 196.586377 588.02 
L 235.822337 587.910025 
L 245.589939 587.614209 
L 253.288134 587.213353 
L 261.979645 586.487996 
L 268.270642 585.765739 
L 273.485549 584.954372 
L 278.700455 583.883504 
L 282.673717 582.867093 
L 286.729755 581.61457 
L 290.206359 580.332286 
L 293.269082 578.983394 
L 296.745686 577.225736 
L 299.56008 575.588268 
L 302.291697 573.7315 
L 304.609433 571.904596 
L 307.341051 569.443364 
L 309.741563 566.990247 
L 312.473181 563.819807 
L 314.873693 560.70161 
L 317.108653 557.419185 
L 319.343612 553.726387 
L 321.495796 549.72776 
L 323.730756 545.104062 
L 325.800163 540.345223 
L 327.952346 534.809996 
L 330.021754 528.831469 
L 332.173937 521.89106 
L 334.408897 513.940147 
L 336.561081 505.431937 
L 338.713264 495.97436 
L 340.865448 485.49191 
L 343.26596 472.6183 
L 345.749249 457.931924 
L 348.066985 442.793561 
L 350.467497 425.608598 
L 353.116338 404.979424 
L 356.179061 379.328107 
L 360.64898 339.843678 
L 365.863887 294.14328 
L 368.843833 270.05146 
L 371.327122 251.710072 
L 373.644858 236.151034 
L 375.714265 223.738783 
L 377.700896 213.095393 
L 379.604751 204.090852 
L 381.425829 196.506372 
L 383.164131 190.180808 
L 384.819657 184.917317 
L 386.475182 180.360186 
L 388.047932 176.672364 
L 389.620681 173.54778 
L 391.193431 170.91781 
L 392.76618 168.730874 
L 394.33893 166.932839 
L 395.911679 165.466784 
L 397.318876 164.469531 
L 398.726073 163.726515 
L 400.216046 163.189999 
L 401.623243 162.906659 
L 403.195993 162.811158 
L 404.768742 162.914768 
L 406.507044 163.262406 
L 408.328123 163.85094 
L 410.314754 164.80507 
L 412.218608 166.007217 
L 414.122463 167.433996 
L 416.605752 169.582754 
L 419.668474 172.602346 
L 422.565644 175.774454 
L 426.621682 180.61271 
L 433.161009 188.877719 
L 449.136833 209.357763 
L 454.600068 216.800647 
L 462.794921 228.430347 
L 467.182064 235.088807 
L 472.479746 243.285879 
L 479.846836 255.367569 
L 486.800044 267.376505 
L 491.601069 275.636659 
L 496.981528 284.545142 
L 501.699776 292.155654 
L 505.341933 297.546783 
L 510.556839 304.951883 
L 513.867891 309.240715 
L 518.586139 314.74724 
L 527.443202 324.372901 
L 530.83703 328.199637 
L 533.154766 331.07074 
L 536.962475 336.308126 
L 543.005144 344.784864 
L 547.723393 351.025676 
L 551.282773 355.376312 
L 555.752693 360.551279 
L 561.878138 367.255537 
L 565.437518 370.563626 
L 569.907438 374.290817 
L 573.715147 377.059834 
L 580.33725 381.997395 
L 584.393288 385.494671 
L 589.608195 390.385954 
L 612.45445 412.426323 
L 617.917685 417.278871 
L 622.222052 420.795548 
L 625.284775 423.062721 
L 630.334128 426.410008 
L 632.403536 427.527274 
L 636.54235 429.354597 
L 640.267283 430.765726 
L 649.786556 434.06692 
L 658.064185 437.765259 
L 666.672919 441.66708 
L 671.391168 443.538042 
L 677.930494 446.215836 
L 682.565967 448.418067 
L 686.373676 450.366397 
L 692.995779 453.617078 
L 698.045133 455.867941 
L 703.177262 457.757084 
L 711.537668 460.53951 
L 715.428153 461.461776 
L 720.477507 462.207898 
L 729.169017 463.55752 
L 734.052818 464.506196 
L 742.661552 466.334444 
L 755.077995 469.325437 
L 761.120664 470.839711 
L 763.935058 471.294428 
L 766.501123 471.457529 
L 769.48107 471.456959 
L 773.537108 471.155003 
L 778.089804 470.705424 
L 782.145842 470.385476 
L 793.900075 469.626032 
L 803.833229 468.237945 
L 806.730399 468.05552 
L 810.786437 467.969026 
L 815.090804 468.081722 
L 820.140158 468.347987 
L 828.003906 468.726485 
L 832.391049 469.021835 
L 843.814177 470.013644 
L 847.208004 469.773434 
L 850.519056 469.182978 
L 858.713909 467.436472 
L 858.713909 467.436472 
" style="fill:none;stroke:#008000;stroke-dasharray:8,13.2;stroke-dashoffset:0;stroke-width:8;"/>
   </g>
   <g id="patch_3">
    <path d="M 163.48 588.02 
L 163.48 70.8975 
" style="fill:none;stroke:#000000;stroke-linecap:square;stroke-linejoin:miter;stroke-width:4;"/>
   </g>
   <g id="patch_4">
    <path d="M 163.48 588.02 
L 891.820285 588.02 
" style="fill:none;stroke:#000000;stroke-linecap:square;stroke-linejoin:miter;stroke-width:4;"/>
   </g>
  </g>
 </g>
 <defs>
  <clipPath id="p0dd4730fda">
   <rect height="517.1225" width="728.340285" x="163.48" y="70.8975"/>
  </clipPath>
 </defs>
</svg>
