<?xml version="1.0" encoding="utf-8" standalone="no"?>
<!DOCTYPE svg PUBLIC "-//W3C//DTD SVG 1.1//EN"
  "http://www.w3.org/Graphics/SVG/1.1/DTD/svg11.dtd">
<svg xmlns:xlink="http://www.w3.org/1999/xlink" width="936pt" height="720pt" viewBox="0 0 936 720" xmlns="http://www.w3.org/2000/svg" version="1.1">
 <metadata>
  <rdf:RDF xmlns:dc="http://purl.org/dc/elements/1.1/" xmlns:cc="http://creativecommons.org/ns#" xmlns:rdf="http://www.w3.org/1999/02/22-rdf-syntax-ns#">
   <cc:Work>
    <dc:type rdf:resource="http://purl.org/dc/dcmitype/StillImage"/>
    <dc:date>2025-06-02T23:46:49.106167</dc:date>
    <dc:format>image/svg+xml</dc:format>
    <dc:creator>
     <cc:Agent>
      <dc:title>Matplotlib v3.7.1, https://matplotlib.org/</dc:title>
     </cc:Agent>
    </dc:creator>
   </cc:Work>
  </rdf:RDF>
 </metadata>
 <defs>
  <style type="text/css">*{stroke-linejoin: round; stroke-linecap: butt}</style>
 </defs>
 <g id="figure_1">
  <g id="patch_1">
   <path d="M 0 720 
L 936 720 
L 936 0 
L 0 0 
z
" style="fill: #ffffff"/>
  </g>
  <g id="axes_1">
   <g id="patch_2">
    <path d="M 163.42 588.02 
L 891.850285 588.02 
L 891.850285 47.52 
L 163.42 47.52 
z
" style="fill: #ffffff"/>
   </g>
   <g id="matplotlib.axis_1">
    <g id="xtick_1">
     <g id="line2d_1">
      <defs>
       <path id="ma1fd498f4a" d="M 0 0 
L 0 10 
" style="stroke: #000000; stroke-width: 4"/>
      </defs>
      <g>
       <use xlink:href="#ma1fd498f4a" x="196.530468" y="588.02" style="stroke: #000000; stroke-width: 4"/>
      </g>
     </g>
     <g id="text_1">
      <!-- 0 -->
      <g transform="translate(183.805468 631.91375) scale(0.4 -0.4)">
       <defs>
        <path id="DejaVuSans-30" d="M 2034 4250 
Q 1547 4250 1301 3770 
Q 1056 3291 1056 2328 
Q 1056 1369 1301 889 
Q 1547 409 2034 409 
Q 2525 409 2770 889 
Q 3016 1369 3016 2328 
Q 3016 3291 2770 3770 
Q 2525 4250 2034 4250 
z
M 2034 4750 
Q 2819 4750 3233 4129 
Q 3647 3509 3647 2328 
Q 3647 1150 3233 529 
Q 2819 -91 2034 -91 
Q 1250 -91 836 529 
Q 422 1150 422 2328 
Q 422 3509 836 4129 
Q 1250 4750 2034 4750 
z
" transform="scale(0.015625)"/>
       </defs>
       <use xlink:href="#DejaVuSans-30"/>
      </g>
     </g>
    </g>
    <g id="xtick_2">
     <g id="line2d_2">
      <g>
       <use xlink:href="#ma1fd498f4a" x="362.103502" y="588.02" style="stroke: #000000; stroke-width: 4"/>
      </g>
     </g>
     <g id="text_2">
      <!-- 200 -->
      <g transform="translate(323.928502 631.91375) scale(0.4 -0.4)">
       <defs>
        <path id="DejaVuSans-32" d="M 1228 531 
L 3431 531 
L 3431 0 
L 469 0 
L 469 531 
Q 828 903 1448 1529 
Q 2069 2156 2228 2338 
Q 2531 2678 2651 2914 
Q 2772 3150 2772 3378 
Q 2772 3750 2511 3984 
Q 2250 4219 1831 4219 
Q 1534 4219 1204 4116 
Q 875 4013 500 3803 
L 500 4441 
Q 881 4594 1212 4672 
Q 1544 4750 1819 4750 
Q 2544 4750 2975 4387 
Q 3406 4025 3406 3419 
Q 3406 3131 3298 2873 
Q 3191 2616 2906 2266 
Q 2828 2175 2409 1742 
Q 1991 1309 1228 531 
z
" transform="scale(0.015625)"/>
       </defs>
       <use xlink:href="#DejaVuSans-32"/>
       <use xlink:href="#DejaVuSans-30" x="63.623047"/>
       <use xlink:href="#DejaVuSans-30" x="127.246094"/>
      </g>
     </g>
    </g>
    <g id="xtick_3">
     <g id="line2d_3">
      <g>
       <use xlink:href="#ma1fd498f4a" x="527.676536" y="588.02" style="stroke: #000000; stroke-width: 4"/>
      </g>
     </g>
     <g id="text_3">
      <!-- 400 -->
      <g transform="translate(489.501536 631.91375) scale(0.4 -0.4)">
       <defs>
        <path id="DejaVuSans-34" d="M 2419 4116 
L 825 1625 
L 2419 1625 
L 2419 4116 
z
M 2253 4666 
L 3047 4666 
L 3047 1625 
L 3713 1625 
L 3713 1100 
L 3047 1100 
L 3047 0 
L 2419 0 
L 2419 1100 
L 313 1100 
L 313 1709 
L 2253 4666 
z
" transform="scale(0.015625)"/>
       </defs>
       <use xlink:href="#DejaVuSans-34"/>
       <use xlink:href="#DejaVuSans-30" x="63.623047"/>
       <use xlink:href="#DejaVuSans-30" x="127.246094"/>
      </g>
     </g>
    </g>
    <g id="xtick_4">
     <g id="line2d_4">
      <g>
       <use xlink:href="#ma1fd498f4a" x="693.24957" y="588.02" style="stroke: #000000; stroke-width: 4"/>
      </g>
     </g>
     <g id="text_4">
      <!-- 600 -->
      <g transform="translate(655.07457 631.91375) scale(0.4 -0.4)">
       <defs>
        <path id="DejaVuSans-36" d="M 2113 2584 
Q 1688 2584 1439 2293 
Q 1191 2003 1191 1497 
Q 1191 994 1439 701 
Q 1688 409 2113 409 
Q 2538 409 2786 701 
Q 3034 994 3034 1497 
Q 3034 2003 2786 2293 
Q 2538 2584 2113 2584 
z
M 3366 4563 
L 3366 3988 
Q 3128 4100 2886 4159 
Q 2644 4219 2406 4219 
Q 1781 4219 1451 3797 
Q 1122 3375 1075 2522 
Q 1259 2794 1537 2939 
Q 1816 3084 2150 3084 
Q 2853 3084 3261 2657 
Q 3669 2231 3669 1497 
Q 3669 778 3244 343 
Q 2819 -91 2113 -91 
Q 1303 -91 875 529 
Q 447 1150 447 2328 
Q 447 3434 972 4092 
Q 1497 4750 2381 4750 
Q 2619 4750 2861 4703 
Q 3103 4656 3366 4563 
z
" transform="scale(0.015625)"/>
       </defs>
       <use xlink:href="#DejaVuSans-36"/>
       <use xlink:href="#DejaVuSans-30" x="63.623047"/>
       <use xlink:href="#DejaVuSans-30" x="127.246094"/>
      </g>
     </g>
    </g>
    <g id="xtick_5">
     <g id="line2d_5">
      <g>
       <use xlink:href="#ma1fd498f4a" x="858.822604" y="588.02" style="stroke: #000000; stroke-width: 4"/>
      </g>
     </g>
     <g id="text_5">
      <!-- 800 -->
      <g transform="translate(820.647604 631.91375) scale(0.4 -0.4)">
       <defs>
        <path id="DejaVuSans-38" d="M 2034 2216 
Q 1584 2216 1326 1975 
Q 1069 1734 1069 1313 
Q 1069 891 1326 650 
Q 1584 409 2034 409 
Q 2484 409 2743 651 
Q 3003 894 3003 1313 
Q 3003 1734 2745 1975 
Q 2488 2216 2034 2216 
z
M 1403 2484 
Q 997 2584 770 2862 
Q 544 3141 544 3541 
Q 544 4100 942 4425 
Q 1341 4750 2034 4750 
Q 2731 4750 3128 4425 
Q 3525 4100 3525 3541 
Q 3525 3141 3298 2862 
Q 3072 2584 2669 2484 
Q 3125 2378 3379 2068 
Q 3634 1759 3634 1313 
Q 3634 634 3220 271 
Q 2806 -91 2034 -91 
Q 1263 -91 848 271 
Q 434 634 434 1313 
Q 434 1759 690 2068 
Q 947 2378 1403 2484 
z
M 1172 3481 
Q 1172 3119 1398 2916 
Q 1625 2713 2034 2713 
Q 2441 2713 2670 2916 
Q 2900 3119 2900 3481 
Q 2900 3844 2670 4047 
Q 2441 4250 2034 4250 
Q 1625 4250 1398 4047 
Q 1172 3844 1172 3481 
z
" transform="scale(0.015625)"/>
       </defs>
       <use xlink:href="#DejaVuSans-38"/>
       <use xlink:href="#DejaVuSans-30" x="63.623047"/>
       <use xlink:href="#DejaVuSans-30" x="127.246094"/>
      </g>
     </g>
    </g>
    <g id="text_6">
     <!-- time (ms) -->
     <g transform="translate(418.457408 678.425469) scale(0.45 -0.45)">
      <defs>
       <path id="DejaVuSans-74" d="M 1172 4494 
L 1172 3500 
L 2356 3500 
L 2356 3053 
L 1172 3053 
L 1172 1153 
Q 1172 725 1289 603 
Q 1406 481 1766 481 
L 2356 481 
L 2356 0 
L 1766 0 
Q 1100 0 847 248 
Q 594 497 594 1153 
L 594 3053 
L 172 3053 
L 172 3500 
L 594 3500 
L 594 4494 
L 1172 4494 
z
" transform="scale(0.015625)"/>
       <path id="DejaVuSans-69" d="M 603 3500 
L 1178 3500 
L 1178 0 
L 603 0 
L 603 3500 
z
M 603 4863 
L 1178 4863 
L 1178 4134 
L 603 4134 
L 603 4863 
z
" transform="scale(0.015625)"/>
       <path id="DejaVuSans-6d" d="M 3328 2828 
Q 3544 3216 3844 3400 
Q 4144 3584 4550 3584 
Q 5097 3584 5394 3201 
Q 5691 2819 5691 2113 
L 5691 0 
L 5113 0 
L 5113 2094 
Q 5113 2597 4934 2840 
Q 4756 3084 4391 3084 
Q 3944 3084 3684 2787 
Q 3425 2491 3425 1978 
L 3425 0 
L 2847 0 
L 2847 2094 
Q 2847 2600 2669 2842 
Q 2491 3084 2119 3084 
Q 1678 3084 1418 2786 
Q 1159 2488 1159 1978 
L 1159 0 
L 581 0 
L 581 3500 
L 1159 3500 
L 1159 2956 
Q 1356 3278 1631 3431 
Q 1906 3584 2284 3584 
Q 2666 3584 2933 3390 
Q 3200 3197 3328 2828 
z
" transform="scale(0.015625)"/>
       <path id="DejaVuSans-65" d="M 3597 1894 
L 3597 1613 
L 953 1613 
Q 991 1019 1311 708 
Q 1631 397 2203 397 
Q 2534 397 2845 478 
Q 3156 559 3463 722 
L 3463 178 
Q 3153 47 2828 -22 
Q 2503 -91 2169 -91 
Q 1331 -91 842 396 
Q 353 884 353 1716 
Q 353 2575 817 3079 
Q 1281 3584 2069 3584 
Q 2775 3584 3186 3129 
Q 3597 2675 3597 1894 
z
M 3022 2063 
Q 3016 2534 2758 2815 
Q 2500 3097 2075 3097 
Q 1594 3097 1305 2825 
Q 1016 2553 972 2059 
L 3022 2063 
z
" transform="scale(0.015625)"/>
       <path id="DejaVuSans-20" transform="scale(0.015625)"/>
       <path id="DejaVuSans-28" d="M 1984 4856 
Q 1566 4138 1362 3434 
Q 1159 2731 1159 2009 
Q 1159 1288 1364 580 
Q 1569 -128 1984 -844 
L 1484 -844 
Q 1016 -109 783 600 
Q 550 1309 550 2009 
Q 550 2706 781 3412 
Q 1013 4119 1484 4856 
L 1984 4856 
z
" transform="scale(0.015625)"/>
       <path id="DejaVuSans-73" d="M 2834 3397 
L 2834 2853 
Q 2591 2978 2328 3040 
Q 2066 3103 1784 3103 
Q 1356 3103 1142 2972 
Q 928 2841 928 2578 
Q 928 2378 1081 2264 
Q 1234 2150 1697 2047 
L 1894 2003 
Q 2506 1872 2764 1633 
Q 3022 1394 3022 966 
Q 3022 478 2636 193 
Q 2250 -91 1575 -91 
Q 1294 -91 989 -36 
Q 684 19 347 128 
L 347 722 
Q 666 556 975 473 
Q 1284 391 1588 391 
Q 1994 391 2212 530 
Q 2431 669 2431 922 
Q 2431 1156 2273 1281 
Q 2116 1406 1581 1522 
L 1381 1569 
Q 847 1681 609 1914 
Q 372 2147 372 2553 
Q 372 3047 722 3315 
Q 1072 3584 1716 3584 
Q 2034 3584 2315 3537 
Q 2597 3491 2834 3397 
z
" transform="scale(0.015625)"/>
       <path id="DejaVuSans-29" d="M 513 4856 
L 1013 4856 
Q 1481 4119 1714 3412 
Q 1947 2706 1947 2009 
Q 1947 1309 1714 600 
Q 1481 -109 1013 -844 
L 513 -844 
Q 928 -128 1133 580 
Q 1338 1288 1338 2009 
Q 1338 2731 1133 3434 
Q 928 4138 513 4856 
z
" transform="scale(0.015625)"/>
      </defs>
      <use xlink:href="#DejaVuSans-74"/>
      <use xlink:href="#DejaVuSans-69" x="39.208984"/>
      <use xlink:href="#DejaVuSans-6d" x="66.992188"/>
      <use xlink:href="#DejaVuSans-65" x="164.404297"/>
      <use xlink:href="#DejaVuSans-20" x="225.927734"/>
      <use xlink:href="#DejaVuSans-28" x="257.714844"/>
      <use xlink:href="#DejaVuSans-6d" x="296.728516"/>
      <use xlink:href="#DejaVuSans-73" x="394.140625"/>
      <use xlink:href="#DejaVuSans-29" x="446.240234"/>
     </g>
    </g>
   </g>
   <g id="matplotlib.axis_2">
    <g id="ytick_1">
     <g id="line2d_6">
      <defs>
       <path id="m66dfd596b8" d="M 0 0 
L -10 0 
" style="stroke: #000000; stroke-width: 4"/>
      </defs>
      <g>
       <use xlink:href="#m66dfd596b8" x="163.42" y="588.02" style="stroke: #000000; stroke-width: 4"/>
      </g>
     </g>
     <g id="text_7">
      <!-- 0.0 -->
      <g transform="translate(86.3075 603.216875) scale(0.4 -0.4)">
       <defs>
        <path id="DejaVuSans-2e" d="M 684 794 
L 1344 794 
L 1344 0 
L 684 0 
L 684 794 
z
" transform="scale(0.015625)"/>
       </defs>
       <use xlink:href="#DejaVuSans-30"/>
       <use xlink:href="#DejaVuSans-2e" x="63.623047"/>
       <use xlink:href="#DejaVuSans-30" x="95.410156"/>
      </g>
     </g>
    </g>
    <g id="ytick_2">
     <g id="line2d_7">
      <g>
       <use xlink:href="#m66dfd596b8" x="163.42" y="479.92" style="stroke: #000000; stroke-width: 4"/>
      </g>
     </g>
     <g id="text_8">
      <!-- 0.2 -->
      <g transform="translate(86.3075 495.116875) scale(0.4 -0.4)">
       <use xlink:href="#DejaVuSans-30"/>
       <use xlink:href="#DejaVuSans-2e" x="63.623047"/>
       <use xlink:href="#DejaVuSans-32" x="95.410156"/>
      </g>
     </g>
    </g>
    <g id="ytick_3">
     <g id="line2d_8">
      <g>
       <use xlink:href="#m66dfd596b8" x="163.42" y="371.82" style="stroke: #000000; stroke-width: 4"/>
      </g>
     </g>
     <g id="text_9">
      <!-- 0.4 -->
      <g transform="translate(86.3075 387.016875) scale(0.4 -0.4)">
       <use xlink:href="#DejaVuSans-30"/>
       <use xlink:href="#DejaVuSans-2e" x="63.623047"/>
       <use xlink:href="#DejaVuSans-34" x="95.410156"/>
      </g>
     </g>
    </g>
    <g id="ytick_4">
     <g id="line2d_9">
      <g>
       <use xlink:href="#m66dfd596b8" x="163.42" y="263.72" style="stroke: #000000; stroke-width: 4"/>
      </g>
     </g>
     <g id="text_10">
      <!-- 0.6 -->
      <g transform="translate(86.3075 278.916875) scale(0.4 -0.4)">
       <use xlink:href="#DejaVuSans-30"/>
       <use xlink:href="#DejaVuSans-2e" x="63.623047"/>
       <use xlink:href="#DejaVuSans-36" x="95.410156"/>
      </g>
     </g>
    </g>
    <g id="ytick_5">
     <g id="line2d_10">
      <g>
       <use xlink:href="#m66dfd596b8" x="163.42" y="155.62" style="stroke: #000000; stroke-width: 4"/>
      </g>
     </g>
     <g id="text_11">
      <!-- 0.8 -->
      <g transform="translate(86.3075 170.816875) scale(0.4 -0.4)">
       <use xlink:href="#DejaVuSans-30"/>
       <use xlink:href="#DejaVuSans-2e" x="63.623047"/>
       <use xlink:href="#DejaVuSans-38" x="95.410156"/>
      </g>
     </g>
    </g>
    <g id="ytick_6">
     <g id="line2d_11">
      <g>
       <use xlink:href="#m66dfd596b8" x="163.42" y="47.52" style="stroke: #000000; stroke-width: 4"/>
      </g>
     </g>
     <g id="text_12">
      <!-- 1.0 -->
      <g transform="translate(86.3075 62.716875) scale(0.4 -0.4)">
       <defs>
        <path id="DejaVuSans-31" d="M 794 531 
L 1825 531 
L 1825 4091 
L 703 3866 
L 703 4441 
L 1819 4666 
L 2450 4666 
L 2450 531 
L 3481 531 
L 3481 0 
L 794 0 
L 794 531 
z
" transform="scale(0.015625)"/>
       </defs>
       <use xlink:href="#DejaVuSans-31"/>
       <use xlink:href="#DejaVuSans-2e" x="63.623047"/>
       <use xlink:href="#DejaVuSans-30" x="95.410156"/>
      </g>
     </g>
    </g>
    <g id="text_13">
     <!-- firingrate difference -->
     <g transform="translate(72.948906 542.123125) rotate(-90) scale(0.45 -0.45)">
      <defs>
       <path id="DejaVuSans-66" d="M 2375 4863 
L 2375 4384 
L 1825 4384 
Q 1516 4384 1395 4259 
Q 1275 4134 1275 3809 
L 1275 3500 
L 2222 3500 
L 2222 3053 
L 1275 3053 
L 1275 0 
L 697 0 
L 697 3053 
L 147 3053 
L 147 3500 
L 697 3500 
L 697 3744 
Q 697 4328 969 4595 
Q 1241 4863 1831 4863 
L 2375 4863 
z
" transform="scale(0.015625)"/>
       <path id="DejaVuSans-72" d="M 2631 2963 
Q 2534 3019 2420 3045 
Q 2306 3072 2169 3072 
Q 1681 3072 1420 2755 
Q 1159 2438 1159 1844 
L 1159 0 
L 581 0 
L 581 3500 
L 1159 3500 
L 1159 2956 
Q 1341 3275 1631 3429 
Q 1922 3584 2338 3584 
Q 2397 3584 2469 3576 
Q 2541 3569 2628 3553 
L 2631 2963 
z
" transform="scale(0.015625)"/>
       <path id="DejaVuSans-6e" d="M 3513 2113 
L 3513 0 
L 2938 0 
L 2938 2094 
Q 2938 2591 2744 2837 
Q 2550 3084 2163 3084 
Q 1697 3084 1428 2787 
Q 1159 2491 1159 1978 
L 1159 0 
L 581 0 
L 581 3500 
L 1159 3500 
L 1159 2956 
Q 1366 3272 1645 3428 
Q 1925 3584 2291 3584 
Q 2894 3584 3203 3211 
Q 3513 2838 3513 2113 
z
" transform="scale(0.015625)"/>
       <path id="DejaVuSans-67" d="M 2906 1791 
Q 2906 2416 2648 2759 
Q 2391 3103 1925 3103 
Q 1463 3103 1205 2759 
Q 947 2416 947 1791 
Q 947 1169 1205 825 
Q 1463 481 1925 481 
Q 2391 481 2648 825 
Q 2906 1169 2906 1791 
z
M 3481 434 
Q 3481 -459 3084 -895 
Q 2688 -1331 1869 -1331 
Q 1566 -1331 1297 -1286 
Q 1028 -1241 775 -1147 
L 775 -588 
Q 1028 -725 1275 -790 
Q 1522 -856 1778 -856 
Q 2344 -856 2625 -561 
Q 2906 -266 2906 331 
L 2906 616 
Q 2728 306 2450 153 
Q 2172 0 1784 0 
Q 1141 0 747 490 
Q 353 981 353 1791 
Q 353 2603 747 3093 
Q 1141 3584 1784 3584 
Q 2172 3584 2450 3431 
Q 2728 3278 2906 2969 
L 2906 3500 
L 3481 3500 
L 3481 434 
z
" transform="scale(0.015625)"/>
       <path id="DejaVuSans-61" d="M 2194 1759 
Q 1497 1759 1228 1600 
Q 959 1441 959 1056 
Q 959 750 1161 570 
Q 1363 391 1709 391 
Q 2188 391 2477 730 
Q 2766 1069 2766 1631 
L 2766 1759 
L 2194 1759 
z
M 3341 1997 
L 3341 0 
L 2766 0 
L 2766 531 
Q 2569 213 2275 61 
Q 1981 -91 1556 -91 
Q 1019 -91 701 211 
Q 384 513 384 1019 
Q 384 1609 779 1909 
Q 1175 2209 1959 2209 
L 2766 2209 
L 2766 2266 
Q 2766 2663 2505 2880 
Q 2244 3097 1772 3097 
Q 1472 3097 1187 3025 
Q 903 2953 641 2809 
L 641 3341 
Q 956 3463 1253 3523 
Q 1550 3584 1831 3584 
Q 2591 3584 2966 3190 
Q 3341 2797 3341 1997 
z
" transform="scale(0.015625)"/>
       <path id="DejaVuSans-64" d="M 2906 2969 
L 2906 4863 
L 3481 4863 
L 3481 0 
L 2906 0 
L 2906 525 
Q 2725 213 2448 61 
Q 2172 -91 1784 -91 
Q 1150 -91 751 415 
Q 353 922 353 1747 
Q 353 2572 751 3078 
Q 1150 3584 1784 3584 
Q 2172 3584 2448 3432 
Q 2725 3281 2906 2969 
z
M 947 1747 
Q 947 1113 1208 752 
Q 1469 391 1925 391 
Q 2381 391 2643 752 
Q 2906 1113 2906 1747 
Q 2906 2381 2643 2742 
Q 2381 3103 1925 3103 
Q 1469 3103 1208 2742 
Q 947 2381 947 1747 
z
" transform="scale(0.015625)"/>
       <path id="DejaVuSans-63" d="M 3122 3366 
L 3122 2828 
Q 2878 2963 2633 3030 
Q 2388 3097 2138 3097 
Q 1578 3097 1268 2742 
Q 959 2388 959 1747 
Q 959 1106 1268 751 
Q 1578 397 2138 397 
Q 2388 397 2633 464 
Q 2878 531 3122 666 
L 3122 134 
Q 2881 22 2623 -34 
Q 2366 -91 2075 -91 
Q 1284 -91 818 406 
Q 353 903 353 1747 
Q 353 2603 823 3093 
Q 1294 3584 2113 3584 
Q 2378 3584 2631 3529 
Q 2884 3475 3122 3366 
z
" transform="scale(0.015625)"/>
      </defs>
      <use xlink:href="#DejaVuSans-66"/>
      <use xlink:href="#DejaVuSans-69" x="35.205078"/>
      <use xlink:href="#DejaVuSans-72" x="62.988281"/>
      <use xlink:href="#DejaVuSans-69" x="104.101562"/>
      <use xlink:href="#DejaVuSans-6e" x="131.884766"/>
      <use xlink:href="#DejaVuSans-67" x="195.263672"/>
      <use xlink:href="#DejaVuSans-72" x="258.740234"/>
      <use xlink:href="#DejaVuSans-61" x="299.853516"/>
      <use xlink:href="#DejaVuSans-74" x="361.132812"/>
      <use xlink:href="#DejaVuSans-65" x="400.341797"/>
      <use xlink:href="#DejaVuSans-20" x="461.865234"/>
      <use xlink:href="#DejaVuSans-64" x="493.652344"/>
      <use xlink:href="#DejaVuSans-69" x="557.128906"/>
      <use xlink:href="#DejaVuSans-66" x="584.912109"/>
      <use xlink:href="#DejaVuSans-66" x="620.117188"/>
      <use xlink:href="#DejaVuSans-65" x="655.322266"/>
      <use xlink:href="#DejaVuSans-72" x="716.845703"/>
      <use xlink:href="#DejaVuSans-65" x="755.708984"/>
      <use xlink:href="#DejaVuSans-6e" x="817.232422"/>
      <use xlink:href="#DejaVuSans-63" x="880.611328"/>
      <use xlink:href="#DejaVuSans-65" x="935.591797"/>
     </g>
    </g>
   </g>
   <g id="line2d_12">
    <path d="M 196.530468 588.02 
L 236.847501 587.909707 
L 246.86467 587.690119 
L 256.219546 587.272357 
L 266.485074 586.639372 
L 272.77685 585.990056 
L 278.157973 585.188136 
L 282.711232 584.309743 
L 286.188266 583.357303 
L 289.665299 582.124431 
L 292.562827 580.868358 
L 295.957075 579.136676 
L 298.606243 577.516055 
L 301.089839 575.701969 
L 303.656221 573.525067 
L 305.643097 571.512736 
L 308.209479 568.508358 
L 310.279142 565.701369 
L 312.183232 562.730875 
L 314.252895 559.08007 
L 316.405344 554.84492 
L 318.557794 550.070923 
L 320.79303 544.555014 
L 322.779906 539.137558 
L 324.932356 532.594492 
L 327.002018 525.607354 
L 329.071681 517.773764 
L 331.224131 508.771312 
L 333.459367 498.447706 
L 335.777389 486.762948 
L 338.260985 473.1598 
L 341.324086 454.86713 
L 345.877344 426.197584 
L 351.010108 394.104473 
L 353.57649 379.533951 
L 355.811726 368.135234 
L 357.798603 359.086979 
L 359.619906 351.756699 
L 361.275636 345.918331 
L 362.84858 341.164557 
L 364.255951 337.539511 
L 365.663322 334.533984 
L 366.90512 332.365044 
L 368.064131 330.775234 
L 369.057569 329.755179 
L 370.133794 328.973264 
L 371.127232 328.512107 
L 372.12067 328.303522 
L 373.031322 328.317842 
L 373.941974 328.56509 
L 374.852625 329.020888 
L 375.92885 329.821498 
L 377.087861 330.99502 
L 378.246873 332.512452 
L 379.73703 334.855858 
L 381.309974 337.745163 
L 383.214064 341.734764 
L 385.366513 346.759528 
L 387.601749 352.547856 
L 390.333704 360.175467 
L 393.810738 370.639645 
L 397.618917 382.845675 
L 406.808221 412.223377 
L 411.195906 425.454919 
L 415.418019 437.502569 
L 419.226198 447.861973 
L 423.613884 459.149556 
L 427.090918 467.562673 
L 430.981884 476.46665 
L 434.293345 483.476588 
L 437.604805 489.901066 
L 440.419547 494.919923 
L 443.565434 500.127226 
L 446.628536 504.785351 
L 449.774423 509.102631 
L 452.671951 512.721789 
L 455.900626 516.363354 
L 458.384221 518.877533 
L 461.198963 521.398904 
L 465.503862 524.942278 
L 471.381704 529.502654 
L 474.527592 531.640525 
L 477.921839 533.744291 
L 481.398873 535.664085 
L 484.958693 537.352432 
L 488.187367 538.666249 
L 492.575053 540.140826 
L 496.217659 541.127933 
L 501.764356 542.408496 
L 508.55285 543.926463 
L 515.424131 545.662358 
L 523.371637 547.999122 
L 528.835547 549.632169 
L 534.71339 551.05259 
L 543.405974 552.816561 
L 551.436266 554.17671 
L 558.141974 555.017056 
L 587.448401 558.022869 
L 592.332806 558.219597 
L 598.045075 558.213046 
L 604.502424 557.920064 
L 612.449929 557.592809 
L 621.059727 557.56041 
L 625.778559 557.810669 
L 638.527682 558.86256 
L 651.607952 559.836661 
L 659.389885 560.024384 
L 683.397974 560.401599 
L 690.848761 560.637112 
L 695.236446 560.593919 
L 701.197076 560.323085 
L 708.730649 559.824605 
L 721.314199 559.010143 
L 726.28139 558.84546 
L 735.80184 558.769991 
L 740.355098 558.868629 
L 757.740267 559.455092 
L 770.903323 559.215763 
L 784.397525 559.097012 
L 789.28193 559.249378 
L 796.484357 559.73754 
L 812.131009 561.081215 
L 817.180986 561.226717 
L 823.886694 561.138372 
L 835.311233 560.612129 
L 847.563638 560.007962 
L 852.613615 560.104605 
L 857.166874 560.413306 
L 858.739818 560.545471 
L 858.739818 560.545471 
" clip-path="url(#p16742ba0e5)" style="fill: none; stroke-dasharray: 29.6,12.8; stroke-dashoffset: 0; stroke: #ffa500; stroke-width: 8"/>
   </g>
   <g id="line2d_13">
    <path d="M 196.530468 588.02 
L 236.930288 587.909504 
L 244.71222 587.701456 
L 253.570378 587.187869 
L 260.938378 586.523194 
L 267.561299 585.647359 
L 271.866198 584.875823 
L 277.578468 583.59875 
L 282.545659 582.196151 
L 285.525973 581.12773 
L 288.506288 579.847694 
L 291.32103 578.382623 
L 293.887412 576.789724 
L 296.702153 574.798068 
L 299.185749 572.756129 
L 301.669344 570.4394 
L 304.070153 567.90049 
L 306.305389 565.192349 
L 308.540625 562.13302 
L 310.693075 558.81043 
L 312.762737 555.203387 
L 314.666827 551.419259 
L 316.570917 547.177739 
L 318.723367 541.784218 
L 320.627457 536.444614 
L 322.531547 530.421999 
L 324.518423 523.430852 
L 326.422513 515.946385 
L 328.409389 507.252665 
L 330.396266 497.605208 
L 332.465929 486.468953 
L 334.535591 474.126658 
L 336.688041 459.926776 
L 339.08885 442.511599 
L 341.655232 422.288657 
L 344.55276 397.56819 
L 348.443726 362.194441 
L 355.811726 294.775995 
L 358.460895 272.918299 
L 360.778917 255.584333 
L 362.931367 241.155421 
L 364.835457 229.817266 
L 366.739547 219.824825 
L 368.395277 212.263942 
L 370.051007 205.688036 
L 371.623951 200.319707 
L 373.114108 196.001118 
L 374.604266 192.335338 
L 375.92885 189.623267 
L 377.336221 187.263308 
L 378.826378 185.194125 
L 380.068176 183.821944 
L 381.227187 182.830922 
L 382.468985 182.08912 
L 383.710783 181.608224 
L 384.95258 181.367732 
L 386.525524 181.351285 
L 387.767322 181.5942 
L 389.00912 182.043769 
L 390.333704 182.74989 
L 391.906648 183.845018 
L 393.893524 185.573091 
L 396.211547 187.904456 
L 398.446783 190.424316 
L 401.261524 193.925716 
L 405.40085 199.416368 
L 408.877884 204.36281 
L 412.934423 210.470587 
L 418.977839 220.050067 
L 426.345839 232.308884 
L 432.058109 241.751499 
L 435.452356 247.115379 
L 441.826918 256.440661 
L 450.022783 267.886967 
L 456.480131 276.5085 
L 460.205524 281.020244 
L 464.013704 285.369633 
L 475.107097 297.67967 
L 478.915277 301.18815 
L 481.481659 303.138861 
L 484.213614 304.994549 
L 499.77748 315.499953 
L 518.983952 329.293893 
L 522.792131 331.487098 
L 527.34539 333.833224 
L 532.312581 336.037484 
L 534.961749 336.857047 
L 539.349435 338.310396 
L 543.405974 339.822482 
L 546.386289 341.211138 
L 548.621525 342.540578 
L 551.850199 344.658463 
L 563.771457 352.517254 
L 566.255053 353.754141 
L 568.904221 354.878929 
L 581.073839 359.639818 
L 584.3853 360.987342 
L 589.683637 362.749217 
L 593.740176 363.826529 
L 597.962289 364.51679 
L 600.528671 364.742974 
L 603.591772 364.764562 
L 605.495862 364.566176 
L 609.469615 363.860199 
L 620.314648 361.314652 
L 627.517075 359.384902 
L 630.083457 358.8846 
L 632.318693 358.736068 
L 635.547368 358.738777 
L 642.418649 359.058467 
L 644.819458 359.411034 
L 647.965345 360.173636 
L 654.091547 361.736694 
L 657.734154 362.250963 
L 662.12184 362.616761 
L 667.751323 362.924841 
L 671.14557 363.399113 
L 679.341435 364.599149 
L 682.156177 364.802626 
L 685.715997 365.053753 
L 690.848761 365.687986 
L 698.051188 367.148836 
L 700.534783 367.422754 
L 713.118334 368.136222 
L 720.320761 368.318597 
L 724.294514 367.903936 
L 726.860896 367.419148 
L 731.165795 366.374113 
L 733.814963 365.582168 
L 736.878064 364.506231 
L 739.858379 363.515927 
L 742.673121 362.839261 
L 746.232941 362.211028 
L 748.550963 362.115312 
L 751.614065 362.10387 
L 754.594379 362.358862 
L 759.80993 363.238103 
L 763.949256 364.250538 
L 770.572177 366.170492 
L 788.122919 372.17835 
L 796.40157 375.544725 
L 803.521211 378.063276 
L 805.67366 378.614528 
L 809.23348 379.311919 
L 812.213795 379.681266 
L 814.94575 379.831911 
L 817.926065 379.800534 
L 820.326874 379.587047 
L 822.644896 379.085833 
L 827.446514 377.779519 
L 831.58584 376.638685 
L 834.317795 376.180587 
L 836.966964 375.978972 
L 842.099728 375.882562 
L 844.997256 376.088144 
L 850.957885 376.810267 
L 855.84229 377.813627 
L 858.739818 378.409218 
L 858.739818 378.409218 
" clip-path="url(#p16742ba0e5)" style="fill: none; stroke-dasharray: 29.6,12.8; stroke-dashoffset: 0; stroke: #008000; stroke-width: 8"/>
   </g>
   <g id="line2d_14">
    <path d="M 196.530468 588.02 
L 238.668805 587.910329 
L 251.500715 587.57116 
L 260.441659 587.088308 
L 269.299816 586.383238 
L 276.58503 585.613206 
L 281.138288 584.903645 
L 287.016131 583.685365 
L 291.900535 582.400929 
L 296.619367 580.940771 
L 300.427546 579.512888 
L 303.407861 578.138686 
L 309.120131 575.261208 
L 312.514378 573.297016 
L 316.239771 570.892614 
L 320.296311 567.964096 
L 324.35285 564.702298 
L 327.581524 561.878799 
L 331.141344 558.420207 
L 334.535591 554.91803 
L 341.075726 547.619323 
L 345.628985 542.122799 
L 366.491187 515.707142 
L 377.336221 501.333512 
L 382.717344 494.533317 
L 386.442738 490.196137 
L 392.734513 483.095718 
L 399.605794 475.982401 
L 405.566423 470.070761 
L 410.699187 464.980539 
L 417.239322 458.092068 
L 424.110603 450.566229 
L 427.50485 447.282455 
L 430.485165 444.710942 
L 433.713839 442.369156 
L 435.866288 441.006415 
L 438.267097 439.734328 
L 440.58512 438.785535 
L 444.310513 437.473517 
L 450.767861 435.01214 
L 454.162109 433.373821 
L 458.549794 430.91501 
L 462.68912 428.704472 
L 465.752221 427.303067 
L 467.904671 426.495802 
L 471.381704 425.467921 
L 474.610378 424.751146 
L 478.749704 424.122232 
L 481.812805 423.92792 
L 485.207053 423.985131 
L 488.021794 424.186198 
L 496.300446 424.770254 
L 498.949614 424.851086 
L 501.598783 424.760748 
L 504.330738 424.466948 
L 506.64876 423.980597 
L 508.966783 423.328151 
L 514.099547 421.624262 
L 516.748716 420.89666 
L 518.652805 420.531924 
L 521.136401 420.25526 
L 523.040491 420.283632 
L 530.077345 420.444386 
L 545.144491 419.938254 
L 550.028895 420.342663 
L 553.588716 420.906639 
L 561.950154 422.799586 
L 566.668985 423.605087 
L 569.732087 424.032223 
L 572.546828 424.195675 
L 576.106648 424.141434 
L 580.245974 423.680712 
L 582.48121 423.172445 
L 601.522109 418.34107 
L 603.426199 418.147312 
L 609.883547 417.973441 
L 614.767952 417.997567 
L 619.32121 417.865194 
L 621.804806 417.629295 
L 630.331817 416.386416 
L 637.120311 415.027398 
L 643.494873 414.461215 
L 646.971907 414.462943 
L 649.207143 414.73226 
L 652.684177 415.404376 
L 656.989076 416.599282 
L 667.171817 419.191529 
L 674.870963 420.602427 
L 679.672581 421.212495 
L 693.663503 423.081907 
L 696.229885 423.1941 
L 699.955278 423.006684 
L 702.852806 422.584827 
L 705.419188 422.004466 
L 708.23393 421.188017 
L 715.270784 418.744387 
L 717.837166 418.396163 
L 721.728132 418.170084 
L 737.45757 418.178915 
L 743.500986 417.919432 
L 746.232941 417.88407 
L 749.213256 418.107557 
L 752.276357 418.565046 
L 755.505031 419.263357 
L 761.962379 420.847278 
L 772.972986 423.115657 
L 776.284447 423.536373 
L 791.682739 424.851518 
L 802.444986 424.891692 
L 804.928582 424.648641 
L 810.061346 423.588953 
L 815.276896 422.589166 
L 827.694874 420.480147 
L 833.903863 419.291316 
L 845.328402 417.262489 
L 848.22593 416.8257 
L 850.295593 416.722988 
L 852.779188 416.788592 
L 854.683278 417.051719 
L 857.24966 417.639204 
L 858.739818 417.999556 
L 858.739818 417.999556 
" clip-path="url(#p16742ba0e5)" style="fill: none; stroke: #ffa500; stroke-width: 8; stroke-linecap: square"/>
   </g>
   <g id="line2d_15">
    <path d="M 196.530468 588.02 
L 236.516355 587.909205 
L 246.450737 587.56803 
L 256.716265 586.976324 
L 263.421973 586.385488 
L 268.140805 585.817453 
L 274.598153 584.783313 
L 278.820265 583.901944 
L 283.45631 582.727914 
L 288.340715 581.24085 
L 291.652176 580.047029 
L 295.129209 578.505475 
L 298.854603 576.624077 
L 302.331636 574.599301 
L 305.229164 572.696013 
L 307.878333 570.68418 
L 310.858648 568.144918 
L 313.756176 565.375516 
L 316.73649 562.239131 
L 319.634018 558.886373 
L 322.531547 555.224487 
L 325.511861 551.043318 
L 328.574962 546.283175 
L 331.886423 540.618981 
L 334.866738 535.063015 
L 337.598693 529.470398 
L 340.330648 523.267808 
L 342.979816 516.704191 
L 345.380625 510.190975 
L 347.947007 502.619625 
L 350.596176 494.120908 
L 353.079771 485.397769 
L 355.894513 474.664598 
L 358.792041 462.800321 
L 361.937929 449.097146 
L 365.332176 433.283688 
L 369.057569 414.773326 
L 373.031322 393.859727 
L 378.743592 362.524418 
L 398.363996 252.86432 
L 401.923816 234.937048 
L 405.566423 217.69573 
L 409.622962 199.573213 
L 413.182783 184.636535 
L 416.245884 172.718083 
L 418.895052 163.26098 
L 421.378648 155.15756 
L 424.027816 147.258294 
L 426.511412 140.489605 
L 429.160581 133.876421 
L 431.809749 127.870971 
L 434.210558 122.94335 
L 436.77694 118.187699 
L 439.177749 114.202253 
L 441.578558 110.64247 
L 444.062154 107.37508 
L 446.545749 104.468516 
L 449.112131 101.828768 
L 451.926873 99.271956 
L 454.741614 97.009313 
L 457.639142 94.9919 
L 460.867817 93.05791 
L 464.096491 91.375314 
L 467.325165 89.938371 
L 471.547277 88.34653 
L 475.852176 86.997623 
L 480.405435 85.793286 
L 484.130828 85.042191 
L 492.243907 83.715626 
L 505.903682 81.752594 
L 513.106109 81.041281 
L 522.709345 80.308709 
L 539.680581 79.145084 
L 572.215682 77.483444 
L 583.226289 77.388428 
L 597.962289 77.339192 
L 608.062244 77.076662 
L 624.205615 76.793908 
L 634.222783 76.892778 
L 651.939098 76.695817 
L 697.471682 75.697123 
L 703.597885 75.71476 
L 727.274829 75.853183 
L 754.09766 75.715907 
L 780.258199 75.917138 
L 791.351593 75.795669 
L 808.819548 75.793779 
L 833.986649 75.431285 
L 852.116896 75.45119 
L 858.739818 75.47298 
L 858.739818 75.47298 
" clip-path="url(#p16742ba0e5)" style="fill: none; stroke: #008000; stroke-width: 8; stroke-linecap: square"/>
   </g>
   <g id="line2d_16">
    <path d="M 196.530468 588.02 
L 237.675366 587.909214 
L 248.685973 587.649394 
L 258.537569 587.261733 
L 265.243277 586.790123 
L 270.541614 586.191189 
L 276.502243 585.260917 
L 281.221074 584.338578 
L 286.105479 583.217463 
L 289.830872 582.13349 
L 293.390692 580.851472 
L 296.205434 579.597064 
L 299.434108 577.932443 
L 302.497209 576.133973 
L 305.311951 574.205279 
L 307.961119 572.133621 
L 310.196355 570.14387 
L 312.514378 567.809681 
L 315.08076 564.898403 
L 317.481569 561.807294 
L 319.551232 558.80956 
L 321.620895 555.389972 
L 323.938917 551.158902 
L 326.091367 546.685184 
L 327.995457 542.187241 
L 330.230693 536.341664 
L 332.548715 529.681561 
L 334.866738 522.381156 
L 336.9364 515.12822 
L 339.171636 506.47197 
L 341.324086 497.256033 
L 344.056041 484.43864 
L 346.374063 472.477851 
L 349.188805 456.797658 
L 352.583052 436.409439 
L 357.467457 405.512794 
L 363.759232 365.506828 
L 366.739547 347.923161 
L 369.057569 335.490903 
L 371.210019 325.128374 
L 373.031322 317.426328 
L 374.687052 311.319101 
L 376.259996 306.300251 
L 377.750153 302.285327 
L 379.074738 299.320712 
L 380.399322 296.871466 
L 381.64112 295.056941 
L 382.800131 293.759938 
L 383.793569 292.965006 
L 384.787007 292.460246 
L 385.780446 292.216652 
L 386.691097 292.233735 
L 387.601749 292.482522 
L 388.595187 292.99223 
L 389.588625 293.762775 
L 390.66485 294.876791 
L 391.906648 296.505451 
L 393.231232 298.646693 
L 394.721389 301.492251 
L 396.12876 304.700043 
L 397.701704 308.836375 
L 399.523007 314.268504 
L 401.509884 320.954576 
L 403.993479 330.117778 
L 406.725434 341.166944 
L 409.954109 355.196284 
L 416.080311 383.045028 
L 422.537659 412.047821 
L 427.173704 431.716068 
L 431.726963 449.957152 
L 435.617929 464.612297 
L 439.260536 477.487026 
L 442.323637 487.545273 
L 445.221165 496.295936 
L 448.284266 504.841602 
L 451.430154 513.015623 
L 454.327682 519.98615 
L 457.22521 526.367165 
L 460.039951 532.019767 
L 462.771906 536.987855 
L 465.255502 541.066406 
L 467.821884 544.852301 
L 470.553839 548.475359 
L 473.120221 551.534318 
L 475.686603 554.254741 
L 478.418558 556.818061 
L 481.316086 559.213978 
L 484.296401 561.394192 
L 487.607862 563.555545 
L 491.333255 565.705175 
L 495.058648 567.604559 
L 499.032401 569.395211 
L 503.006154 570.93645 
L 507.14548 572.297974 
L 511.698738 573.568993 
L 516.583143 574.706211 
L 523.28885 576.001496 
L 530.491277 577.154928 
L 538.438783 578.180212 
L 546.634648 579.048657 
L 555.906738 579.826085 
L 567.579637 580.566443 
L 581.653345 581.260808 
L 595.975412 581.732444 
L 614.354019 582.14628 
L 629.255592 582.258328 
L 642.749795 582.404566 
L 683.232401 583.205404 
L 785.804896 583.784299 
L 822.810469 583.673431 
L 858.739818 583.597555 
L 858.739818 583.597555 
" clip-path="url(#p16742ba0e5)" style="fill: none; stroke-dasharray: 8,13.2; stroke-dashoffset: 0; stroke: #ffa500; stroke-width: 8"/>
   </g>
   <g id="line2d_17">
    <path d="M 196.530468 588.02 
L 235.522917 587.909922 
L 245.126153 587.61229 
L 253.239232 587.176887 
L 261.766243 586.435473 
L 267.975232 585.698468 
L 273.190782 584.863404 
L 278.323546 583.774479 
L 282.297299 582.732019 
L 286.602198 581.353962 
L 289.996445 580.054117 
L 292.97676 578.696173 
L 296.371007 576.921358 
L 299.102962 575.296726 
L 301.752131 573.45879 
L 304.070153 571.608424 
L 306.636535 569.255892 
L 309.037344 566.780985 
L 311.355367 564.073141 
L 313.921749 560.751323 
L 316.156985 557.484683 
L 318.392221 553.804982 
L 320.461884 549.982671 
L 322.69712 545.378081 
L 324.849569 540.448382 
L 326.919232 535.158839 
L 328.906108 529.493237 
L 330.892985 523.177314 
L 333.211007 515.009518 
L 335.28067 506.937981 
L 337.350333 498.008693 
L 339.502783 487.728532 
L 341.738018 475.898315 
L 343.973254 462.946769 
L 346.20849 448.785257 
L 348.526513 432.639791 
L 350.927322 414.353191 
L 353.659277 391.765401 
L 357.053524 361.632354 
L 368.31249 259.720893 
L 370.878872 239.582879 
L 373.196895 223.014045 
L 375.349344 209.246997 
L 377.419007 197.462988 
L 379.323097 187.897939 
L 381.144401 179.827727 
L 382.882917 173.088177 
L 384.621434 167.209314 
L 386.277165 162.375048 
L 387.850108 158.453657 
L 389.423052 155.128891 
L 390.995996 152.32854 
L 392.486153 150.108612 
L 393.976311 148.263702 
L 395.549255 146.654328 
L 396.873839 145.599023 
L 398.363996 144.705053 
L 399.854153 144.087745 
L 401.261524 143.739371 
L 402.751682 143.594358 
L 404.407412 143.656193 
L 405.980356 143.931742 
L 407.967232 144.539017 
L 409.622962 145.308882 
L 411.278693 146.297329 
L 413.431142 147.869288 
L 415.749165 149.881846 
L 418.23276 152.332655 
L 420.881929 155.207051 
L 424.193389 159.145931 
L 428.415502 164.554624 
L 443.648221 184.749077 
L 451.844086 196.082125 
L 458.549794 205.819974 
L 464.510423 214.906586 
L 471.630064 226.31244 
L 478.584131 238.162788 
L 483.716895 247.27682 
L 494.975862 267.392808 
L 502.592221 280.229411 
L 506.565974 286.313908 
L 510.125794 291.567611 
L 513.768401 296.533136 
L 518.156086 301.915501 
L 524.199502 308.768183 
L 529.580626 314.966919 
L 532.56094 318.661021 
L 535.624041 322.974947 
L 546.883008 339.202286 
L 550.608401 344.046438 
L 558.47312 353.489691 
L 561.536221 356.936733 
L 565.013255 360.34915 
L 568.407502 363.383549 
L 571.387817 365.785126 
L 579.500896 371.983456 
L 582.72957 374.803729 
L 586.04103 377.937274 
L 595.064761 387.002597 
L 603.922918 396.11058 
L 609.386828 401.544548 
L 618.244986 409.85679 
L 621.887592 412.961601 
L 624.78512 415.240592 
L 629.007233 418.24896 
L 631.739188 419.924902 
L 634.388356 421.208234 
L 638.444896 422.980714 
L 641.094064 423.940876 
L 648.462064 426.535906 
L 652.187458 428.18525 
L 658.727592 431.299844 
L 663.280851 433.501608 
L 669.407053 436.203735 
L 675.036536 438.555478 
L 679.755368 440.664649 
L 682.818469 442.24785 
L 686.792222 444.360264 
L 695.236446 448.63226 
L 698.879053 450.227488 
L 703.929031 452.137592 
L 712.124896 454.943447 
L 714.774064 455.608194 
L 717.919952 456.148968 
L 731.414154 458.372027 
L 735.636267 459.266044 
L 746.646874 461.787419 
L 750.455053 462.675173 
L 753.269795 463.45068 
L 759.230424 465.119967 
L 762.376312 465.78926 
L 764.777121 466.094509 
L 767.757435 466.22575 
L 770.48939 466.131328 
L 775.787728 465.657213 
L 784.397525 464.924628 
L 794.331907 464.207256 
L 804.597435 462.760268 
L 808.985121 462.540148 
L 814.117885 462.623517 
L 831.916986 463.59104 
L 843.258739 464.700309 
L 846.818559 464.483138 
L 849.302155 464.064606 
L 852.944761 463.24567 
L 858.739818 461.985266 
L 858.739818 461.985266 
" clip-path="url(#p16742ba0e5)" style="fill: none; stroke-dasharray: 8,13.2; stroke-dashoffset: 0; stroke: #008000; stroke-width: 8"/>
   </g>
   <g id="patch_3">
    <path d="M 163.42 588.02 
L 163.42 47.52 
" style="fill: none; stroke: #000000; stroke-width: 4; stroke-linejoin: miter; stroke-linecap: square"/>
   </g>
   <g id="patch_4">
    <path d="M 163.42 588.02 
L 891.850285 588.02 
" style="fill: none; stroke: #000000; stroke-width: 4; stroke-linejoin: miter; stroke-linecap: square"/>
   </g>
  </g>
 </g>
 <defs>
  <clipPath id="p16742ba0e5">
   <rect x="163.42" y="47.52" width="728.430285" height="540.5"/>
  </clipPath>
 </defs>
</svg>
