<?xml version="1.0" encoding="utf-8" standalone="no"?>
<!DOCTYPE svg PUBLIC "-//W3C//DTD SVG 1.1//EN"
  "http://www.w3.org/Graphics/SVG/1.1/DTD/svg11.dtd">
<svg xmlns:xlink="http://www.w3.org/1999/xlink" width="1296pt" height="360pt" viewBox="0 0 1296 360" xmlns="http://www.w3.org/2000/svg" version="1.1">
 <metadata>
  <rdf:RDF xmlns:dc="http://purl.org/dc/elements/1.1/" xmlns:cc="http://creativecommons.org/ns#" xmlns:rdf="http://www.w3.org/1999/02/22-rdf-syntax-ns#">
   <cc:Work>
    <dc:type rdf:resource="http://purl.org/dc/dcmitype/StillImage"/>
    <dc:date>2025-06-03T14:47:39.838656</dc:date>
    <dc:format>image/svg+xml</dc:format>
    <dc:creator>
     <cc:Agent>
      <dc:title>Matplotlib v3.7.1, https://matplotlib.org/</dc:title>
     </cc:Agent>
    </dc:creator>
   </cc:Work>
  </rdf:RDF>
 </metadata>
 <defs>
  <style type="text/css">*{stroke-linejoin: round; stroke-linecap: butt}</style>
 </defs>
 <g id="figure_1">
  <g id="patch_1">
   <path d="M 0 360 
L 1296 360 
L 1296 0 
L 0 0 
z
" style="fill: #ffffff"/>
  </g>
  <g id="axes_1">
   <g id="patch_2">
    <path d="M 71.56 261.26 
L 318.27 261.26 
L 318.27 77.28 
L 71.56 77.28 
z
" style="fill: #ffffff"/>
   </g>
   <g id="matplotlib.axis_1">
    <g id="xtick_1">
     <g id="line2d_1">
      <defs>
       <path id="m805fdbd9de" d="M 0 0 
L 0 7 
" style="stroke: #000000; stroke-width: 3"/>
      </defs>
      <g>
       <use xlink:href="#m805fdbd9de" x="82.774091" y="261.26" style="stroke: #000000; stroke-width: 3"/>
      </g>
     </g>
     <g id="text_1">
      <!-- 0 -->
      <g transform="translate(77.684091 283.9175) scale(0.16 -0.16)">
       <defs>
        <path id="DejaVuSans-30" d="M 2034 4250 
Q 1547 4250 1301 3770 
Q 1056 3291 1056 2328 
Q 1056 1369 1301 889 
Q 1547 409 2034 409 
Q 2525 409 2770 889 
Q 3016 1369 3016 2328 
Q 3016 3291 2770 3770 
Q 2525 4250 2034 4250 
z
M 2034 4750 
Q 2819 4750 3233 4129 
Q 3647 3509 3647 2328 
Q 3647 1150 3233 529 
Q 2819 -91 2034 -91 
Q 1250 -91 836 529 
Q 422 1150 422 2328 
Q 422 3509 836 4129 
Q 1250 4750 2034 4750 
z
" transform="scale(0.015625)"/>
       </defs>
       <use xlink:href="#DejaVuSans-30"/>
      </g>
     </g>
    </g>
    <g id="xtick_2">
     <g id="line2d_2">
      <g>
       <use xlink:href="#m805fdbd9de" x="138.851555" y="261.26" style="stroke: #000000; stroke-width: 3"/>
      </g>
     </g>
     <g id="text_2">
      <!-- 200 -->
      <g transform="translate(123.581555 283.9175) scale(0.16 -0.16)">
       <defs>
        <path id="DejaVuSans-32" d="M 1228 531 
L 3431 531 
L 3431 0 
L 469 0 
L 469 531 
Q 828 903 1448 1529 
Q 2069 2156 2228 2338 
Q 2531 2678 2651 2914 
Q 2772 3150 2772 3378 
Q 2772 3750 2511 3984 
Q 2250 4219 1831 4219 
Q 1534 4219 1204 4116 
Q 875 4013 500 3803 
L 500 4441 
Q 881 4594 1212 4672 
Q 1544 4750 1819 4750 
Q 2544 4750 2975 4387 
Q 3406 4025 3406 3419 
Q 3406 3131 3298 2873 
Q 3191 2616 2906 2266 
Q 2828 2175 2409 1742 
Q 1991 1309 1228 531 
z
" transform="scale(0.015625)"/>
       </defs>
       <use xlink:href="#DejaVuSans-32"/>
       <use xlink:href="#DejaVuSans-30" x="63.623047"/>
       <use xlink:href="#DejaVuSans-30" x="127.246094"/>
      </g>
     </g>
    </g>
    <g id="xtick_3">
     <g id="line2d_3">
      <g>
       <use xlink:href="#m805fdbd9de" x="194.929019" y="261.26" style="stroke: #000000; stroke-width: 3"/>
      </g>
     </g>
     <g id="text_3">
      <!-- 400 -->
      <g transform="translate(179.659019 283.9175) scale(0.16 -0.16)">
       <defs>
        <path id="DejaVuSans-34" d="M 2419 4116 
L 825 1625 
L 2419 1625 
L 2419 4116 
z
M 2253 4666 
L 3047 4666 
L 3047 1625 
L 3713 1625 
L 3713 1100 
L 3047 1100 
L 3047 0 
L 2419 0 
L 2419 1100 
L 313 1100 
L 313 1709 
L 2253 4666 
z
" transform="scale(0.015625)"/>
       </defs>
       <use xlink:href="#DejaVuSans-34"/>
       <use xlink:href="#DejaVuSans-30" x="63.623047"/>
       <use xlink:href="#DejaVuSans-30" x="127.246094"/>
      </g>
     </g>
    </g>
    <g id="xtick_4">
     <g id="line2d_4">
      <g>
       <use xlink:href="#m805fdbd9de" x="251.006484" y="261.26" style="stroke: #000000; stroke-width: 3"/>
      </g>
     </g>
     <g id="text_4">
      <!-- 600 -->
      <g transform="translate(235.736484 283.9175) scale(0.16 -0.16)">
       <defs>
        <path id="DejaVuSans-36" d="M 2113 2584 
Q 1688 2584 1439 2293 
Q 1191 2003 1191 1497 
Q 1191 994 1439 701 
Q 1688 409 2113 409 
Q 2538 409 2786 701 
Q 3034 994 3034 1497 
Q 3034 2003 2786 2293 
Q 2538 2584 2113 2584 
z
M 3366 4563 
L 3366 3988 
Q 3128 4100 2886 4159 
Q 2644 4219 2406 4219 
Q 1781 4219 1451 3797 
Q 1122 3375 1075 2522 
Q 1259 2794 1537 2939 
Q 1816 3084 2150 3084 
Q 2853 3084 3261 2657 
Q 3669 2231 3669 1497 
Q 3669 778 3244 343 
Q 2819 -91 2113 -91 
Q 1303 -91 875 529 
Q 447 1150 447 2328 
Q 447 3434 972 4092 
Q 1497 4750 2381 4750 
Q 2619 4750 2861 4703 
Q 3103 4656 3366 4563 
z
" transform="scale(0.015625)"/>
       </defs>
       <use xlink:href="#DejaVuSans-36"/>
       <use xlink:href="#DejaVuSans-30" x="63.623047"/>
       <use xlink:href="#DejaVuSans-30" x="127.246094"/>
      </g>
     </g>
    </g>
    <g id="xtick_5">
     <g id="line2d_5">
      <g>
       <use xlink:href="#m805fdbd9de" x="307.083948" y="261.26" style="stroke: #000000; stroke-width: 3"/>
      </g>
     </g>
     <g id="text_5">
      <!-- 800 -->
      <g transform="translate(291.813948 283.9175) scale(0.16 -0.16)">
       <defs>
        <path id="DejaVuSans-38" d="M 2034 2216 
Q 1584 2216 1326 1975 
Q 1069 1734 1069 1313 
Q 1069 891 1326 650 
Q 1584 409 2034 409 
Q 2484 409 2743 651 
Q 3003 894 3003 1313 
Q 3003 1734 2745 1975 
Q 2488 2216 2034 2216 
z
M 1403 2484 
Q 997 2584 770 2862 
Q 544 3141 544 3541 
Q 544 4100 942 4425 
Q 1341 4750 2034 4750 
Q 2731 4750 3128 4425 
Q 3525 4100 3525 3541 
Q 3525 3141 3298 2862 
Q 3072 2584 2669 2484 
Q 3125 2378 3379 2068 
Q 3634 1759 3634 1313 
Q 3634 634 3220 271 
Q 2806 -91 2034 -91 
Q 1263 -91 848 271 
Q 434 634 434 1313 
Q 434 1759 690 2068 
Q 947 2378 1403 2484 
z
M 1172 3481 
Q 1172 3119 1398 2916 
Q 1625 2713 2034 2713 
Q 2441 2713 2670 2916 
Q 2900 3119 2900 3481 
Q 2900 3844 2670 4047 
Q 2441 4250 2034 4250 
Q 1625 4250 1398 4047 
Q 1172 3844 1172 3481 
z
" transform="scale(0.015625)"/>
       </defs>
       <use xlink:href="#DejaVuSans-38"/>
       <use xlink:href="#DejaVuSans-30" x="63.623047"/>
       <use xlink:href="#DejaVuSans-30" x="127.246094"/>
      </g>
     </g>
    </g>
    <g id="text_6">
     <!-- Time (ms) -->
     <g transform="translate(139.476719 307.961562) scale(0.22 -0.22)">
      <defs>
       <path id="DejaVuSans-54" d="M -19 4666 
L 3928 4666 
L 3928 4134 
L 2272 4134 
L 2272 0 
L 1638 0 
L 1638 4134 
L -19 4134 
L -19 4666 
z
" transform="scale(0.015625)"/>
       <path id="DejaVuSans-69" d="M 603 3500 
L 1178 3500 
L 1178 0 
L 603 0 
L 603 3500 
z
M 603 4863 
L 1178 4863 
L 1178 4134 
L 603 4134 
L 603 4863 
z
" transform="scale(0.015625)"/>
       <path id="DejaVuSans-6d" d="M 3328 2828 
Q 3544 3216 3844 3400 
Q 4144 3584 4550 3584 
Q 5097 3584 5394 3201 
Q 5691 2819 5691 2113 
L 5691 0 
L 5113 0 
L 5113 2094 
Q 5113 2597 4934 2840 
Q 4756 3084 4391 3084 
Q 3944 3084 3684 2787 
Q 3425 2491 3425 1978 
L 3425 0 
L 2847 0 
L 2847 2094 
Q 2847 2600 2669 2842 
Q 2491 3084 2119 3084 
Q 1678 3084 1418 2786 
Q 1159 2488 1159 1978 
L 1159 0 
L 581 0 
L 581 3500 
L 1159 3500 
L 1159 2956 
Q 1356 3278 1631 3431 
Q 1906 3584 2284 3584 
Q 2666 3584 2933 3390 
Q 3200 3197 3328 2828 
z
" transform="scale(0.015625)"/>
       <path id="DejaVuSans-65" d="M 3597 1894 
L 3597 1613 
L 953 1613 
Q 991 1019 1311 708 
Q 1631 397 2203 397 
Q 2534 397 2845 478 
Q 3156 559 3463 722 
L 3463 178 
Q 3153 47 2828 -22 
Q 2503 -91 2169 -91 
Q 1331 -91 842 396 
Q 353 884 353 1716 
Q 353 2575 817 3079 
Q 1281 3584 2069 3584 
Q 2775 3584 3186 3129 
Q 3597 2675 3597 1894 
z
M 3022 2063 
Q 3016 2534 2758 2815 
Q 2500 3097 2075 3097 
Q 1594 3097 1305 2825 
Q 1016 2553 972 2059 
L 3022 2063 
z
" transform="scale(0.015625)"/>
       <path id="DejaVuSans-20" transform="scale(0.015625)"/>
       <path id="DejaVuSans-28" d="M 1984 4856 
Q 1566 4138 1362 3434 
Q 1159 2731 1159 2009 
Q 1159 1288 1364 580 
Q 1569 -128 1984 -844 
L 1484 -844 
Q 1016 -109 783 600 
Q 550 1309 550 2009 
Q 550 2706 781 3412 
Q 1013 4119 1484 4856 
L 1984 4856 
z
" transform="scale(0.015625)"/>
       <path id="DejaVuSans-73" d="M 2834 3397 
L 2834 2853 
Q 2591 2978 2328 3040 
Q 2066 3103 1784 3103 
Q 1356 3103 1142 2972 
Q 928 2841 928 2578 
Q 928 2378 1081 2264 
Q 1234 2150 1697 2047 
L 1894 2003 
Q 2506 1872 2764 1633 
Q 3022 1394 3022 966 
Q 3022 478 2636 193 
Q 2250 -91 1575 -91 
Q 1294 -91 989 -36 
Q 684 19 347 128 
L 347 722 
Q 666 556 975 473 
Q 1284 391 1588 391 
Q 1994 391 2212 530 
Q 2431 669 2431 922 
Q 2431 1156 2273 1281 
Q 2116 1406 1581 1522 
L 1381 1569 
Q 847 1681 609 1914 
Q 372 2147 372 2553 
Q 372 3047 722 3315 
Q 1072 3584 1716 3584 
Q 2034 3584 2315 3537 
Q 2597 3491 2834 3397 
z
" transform="scale(0.015625)"/>
       <path id="DejaVuSans-29" d="M 513 4856 
L 1013 4856 
Q 1481 4119 1714 3412 
Q 1947 2706 1947 2009 
Q 1947 1309 1714 600 
Q 1481 -109 1013 -844 
L 513 -844 
Q 928 -128 1133 580 
Q 1338 1288 1338 2009 
Q 1338 2731 1133 3434 
Q 928 4138 513 4856 
z
" transform="scale(0.015625)"/>
      </defs>
      <use xlink:href="#DejaVuSans-54"/>
      <use xlink:href="#DejaVuSans-69" x="57.958984"/>
      <use xlink:href="#DejaVuSans-6d" x="85.742188"/>
      <use xlink:href="#DejaVuSans-65" x="183.154297"/>
      <use xlink:href="#DejaVuSans-20" x="244.677734"/>
      <use xlink:href="#DejaVuSans-28" x="276.464844"/>
      <use xlink:href="#DejaVuSans-6d" x="315.478516"/>
      <use xlink:href="#DejaVuSans-73" x="412.890625"/>
      <use xlink:href="#DejaVuSans-29" x="464.990234"/>
     </g>
    </g>
   </g>
   <g id="matplotlib.axis_2">
    <g id="ytick_1">
     <g id="line2d_6">
      <defs>
       <path id="m76acea2a5f" d="M 0 0 
L -7 0 
" style="stroke: #000000; stroke-width: 3"/>
      </defs>
      <g>
       <use xlink:href="#m76acea2a5f" x="71.56" y="261.26" style="stroke: #000000; stroke-width: 3"/>
      </g>
     </g>
     <g id="text_7">
      <!-- 0.0 -->
      <g transform="translate(35.615 267.33875) scale(0.16 -0.16)">
       <defs>
        <path id="DejaVuSans-2e" d="M 684 794 
L 1344 794 
L 1344 0 
L 684 0 
L 684 794 
z
" transform="scale(0.015625)"/>
       </defs>
       <use xlink:href="#DejaVuSans-30"/>
       <use xlink:href="#DejaVuSans-2e" x="63.623047"/>
       <use xlink:href="#DejaVuSans-30" x="95.410156"/>
      </g>
     </g>
    </g>
    <g id="ytick_2">
     <g id="line2d_7">
      <g>
       <use xlink:href="#m76acea2a5f" x="71.56" y="224.464" style="stroke: #000000; stroke-width: 3"/>
      </g>
     </g>
     <g id="text_8">
      <!-- 0.2 -->
      <g transform="translate(35.615 230.54275) scale(0.16 -0.16)">
       <use xlink:href="#DejaVuSans-30"/>
       <use xlink:href="#DejaVuSans-2e" x="63.623047"/>
       <use xlink:href="#DejaVuSans-32" x="95.410156"/>
      </g>
     </g>
    </g>
    <g id="ytick_3">
     <g id="line2d_8">
      <g>
       <use xlink:href="#m76acea2a5f" x="71.56" y="187.668" style="stroke: #000000; stroke-width: 3"/>
      </g>
     </g>
     <g id="text_9">
      <!-- 0.4 -->
      <g transform="translate(35.615 193.74675) scale(0.16 -0.16)">
       <use xlink:href="#DejaVuSans-30"/>
       <use xlink:href="#DejaVuSans-2e" x="63.623047"/>
       <use xlink:href="#DejaVuSans-34" x="95.410156"/>
      </g>
     </g>
    </g>
    <g id="ytick_4">
     <g id="line2d_9">
      <g>
       <use xlink:href="#m76acea2a5f" x="71.56" y="150.872" style="stroke: #000000; stroke-width: 3"/>
      </g>
     </g>
     <g id="text_10">
      <!-- 0.6 -->
      <g transform="translate(35.615 156.95075) scale(0.16 -0.16)">
       <use xlink:href="#DejaVuSans-30"/>
       <use xlink:href="#DejaVuSans-2e" x="63.623047"/>
       <use xlink:href="#DejaVuSans-36" x="95.410156"/>
      </g>
     </g>
    </g>
    <g id="ytick_5">
     <g id="line2d_10">
      <g>
       <use xlink:href="#m76acea2a5f" x="71.56" y="114.076" style="stroke: #000000; stroke-width: 3"/>
      </g>
     </g>
     <g id="text_11">
      <!-- 0.8 -->
      <g transform="translate(35.615 120.15475) scale(0.16 -0.16)">
       <use xlink:href="#DejaVuSans-30"/>
       <use xlink:href="#DejaVuSans-2e" x="63.623047"/>
       <use xlink:href="#DejaVuSans-38" x="95.410156"/>
      </g>
     </g>
    </g>
    <g id="ytick_6">
     <g id="line2d_11">
      <g>
       <use xlink:href="#m76acea2a5f" x="71.56" y="77.28" style="stroke: #000000; stroke-width: 3"/>
      </g>
     </g>
     <g id="text_12">
      <!-- 1.0 -->
      <g transform="translate(35.615 83.35875) scale(0.16 -0.16)">
       <defs>
        <path id="DejaVuSans-31" d="M 794 531 
L 1825 531 
L 1825 4091 
L 703 3866 
L 703 4441 
L 1819 4666 
L 2450 4666 
L 2450 531 
L 3481 531 
L 3481 0 
L 794 0 
L 794 531 
z
" transform="scale(0.015625)"/>
       </defs>
       <use xlink:href="#DejaVuSans-31"/>
       <use xlink:href="#DejaVuSans-2e" x="63.623047"/>
       <use xlink:href="#DejaVuSans-30" x="95.410156"/>
      </g>
     </g>
    </g>
    <g id="text_13">
     <!-- Firing rate -->
     <g transform="translate(27.039687 225.227344) rotate(-90) scale(0.22 -0.22)">
      <defs>
       <path id="DejaVuSans-46" d="M 628 4666 
L 3309 4666 
L 3309 4134 
L 1259 4134 
L 1259 2759 
L 3109 2759 
L 3109 2228 
L 1259 2228 
L 1259 0 
L 628 0 
L 628 4666 
z
" transform="scale(0.015625)"/>
       <path id="DejaVuSans-72" d="M 2631 2963 
Q 2534 3019 2420 3045 
Q 2306 3072 2169 3072 
Q 1681 3072 1420 2755 
Q 1159 2438 1159 1844 
L 1159 0 
L 581 0 
L 581 3500 
L 1159 3500 
L 1159 2956 
Q 1341 3275 1631 3429 
Q 1922 3584 2338 3584 
Q 2397 3584 2469 3576 
Q 2541 3569 2628 3553 
L 2631 2963 
z
" transform="scale(0.015625)"/>
       <path id="DejaVuSans-6e" d="M 3513 2113 
L 3513 0 
L 2938 0 
L 2938 2094 
Q 2938 2591 2744 2837 
Q 2550 3084 2163 3084 
Q 1697 3084 1428 2787 
Q 1159 2491 1159 1978 
L 1159 0 
L 581 0 
L 581 3500 
L 1159 3500 
L 1159 2956 
Q 1366 3272 1645 3428 
Q 1925 3584 2291 3584 
Q 2894 3584 3203 3211 
Q 3513 2838 3513 2113 
z
" transform="scale(0.015625)"/>
       <path id="DejaVuSans-67" d="M 2906 1791 
Q 2906 2416 2648 2759 
Q 2391 3103 1925 3103 
Q 1463 3103 1205 2759 
Q 947 2416 947 1791 
Q 947 1169 1205 825 
Q 1463 481 1925 481 
Q 2391 481 2648 825 
Q 2906 1169 2906 1791 
z
M 3481 434 
Q 3481 -459 3084 -895 
Q 2688 -1331 1869 -1331 
Q 1566 -1331 1297 -1286 
Q 1028 -1241 775 -1147 
L 775 -588 
Q 1028 -725 1275 -790 
Q 1522 -856 1778 -856 
Q 2344 -856 2625 -561 
Q 2906 -266 2906 331 
L 2906 616 
Q 2728 306 2450 153 
Q 2172 0 1784 0 
Q 1141 0 747 490 
Q 353 981 353 1791 
Q 353 2603 747 3093 
Q 1141 3584 1784 3584 
Q 2172 3584 2450 3431 
Q 2728 3278 2906 2969 
L 2906 3500 
L 3481 3500 
L 3481 434 
z
" transform="scale(0.015625)"/>
       <path id="DejaVuSans-61" d="M 2194 1759 
Q 1497 1759 1228 1600 
Q 959 1441 959 1056 
Q 959 750 1161 570 
Q 1363 391 1709 391 
Q 2188 391 2477 730 
Q 2766 1069 2766 1631 
L 2766 1759 
L 2194 1759 
z
M 3341 1997 
L 3341 0 
L 2766 0 
L 2766 531 
Q 2569 213 2275 61 
Q 1981 -91 1556 -91 
Q 1019 -91 701 211 
Q 384 513 384 1019 
Q 384 1609 779 1909 
Q 1175 2209 1959 2209 
L 2766 2209 
L 2766 2266 
Q 2766 2663 2505 2880 
Q 2244 3097 1772 3097 
Q 1472 3097 1187 3025 
Q 903 2953 641 2809 
L 641 3341 
Q 956 3463 1253 3523 
Q 1550 3584 1831 3584 
Q 2591 3584 2966 3190 
Q 3341 2797 3341 1997 
z
" transform="scale(0.015625)"/>
       <path id="DejaVuSans-74" d="M 1172 4494 
L 1172 3500 
L 2356 3500 
L 2356 3053 
L 1172 3053 
L 1172 1153 
Q 1172 725 1289 603 
Q 1406 481 1766 481 
L 2356 481 
L 2356 0 
L 1766 0 
Q 1100 0 847 248 
Q 594 497 594 1153 
L 594 3053 
L 172 3053 
L 172 3500 
L 594 3500 
L 594 4494 
L 1172 4494 
z
" transform="scale(0.015625)"/>
      </defs>
      <use xlink:href="#DejaVuSans-46"/>
      <use xlink:href="#DejaVuSans-69" x="50.269531"/>
      <use xlink:href="#DejaVuSans-72" x="78.052734"/>
      <use xlink:href="#DejaVuSans-69" x="119.166016"/>
      <use xlink:href="#DejaVuSans-6e" x="146.949219"/>
      <use xlink:href="#DejaVuSans-67" x="210.328125"/>
      <use xlink:href="#DejaVuSans-20" x="273.804688"/>
      <use xlink:href="#DejaVuSans-72" x="305.591797"/>
      <use xlink:href="#DejaVuSans-61" x="346.705078"/>
      <use xlink:href="#DejaVuSans-74" x="407.984375"/>
      <use xlink:href="#DejaVuSans-65" x="447.193359"/>
     </g>
    </g>
   </g>
   <g id="line2d_12">
    <path d="M 82.774091 261.26 
L 84.56857 260.591017 
L 86.531281 260.120193 
L 89.475348 259.66481 
L 97.718735 258.905891 
L 106.0182 258.199421 
L 113.140038 257.494753 
L 118.523474 257.135533 
L 139.804872 256.171146 
L 146.590245 256.204877 
L 154.300897 256.051005 
L 159.824527 255.845108 
L 173.451351 255.880591 
L 177.65716 256.003507 
L 192.629843 255.551715 
L 195.321562 255.53311 
L 199.078752 255.53279 
L 202.779864 255.600691 
L 209.50916 255.689403 
L 220.191917 255.785603 
L 222.77148 255.798125 
L 235.669297 255.900138 
L 239.061984 255.897537 
L 241.501353 255.870938 
L 248.623191 255.929309 
L 250.782174 255.867029 
L 254.791712 255.80479 
L 273.773934 255.691423 
L 277.418969 255.676301 
L 289.307392 255.872926 
L 294.158092 255.718065 
L 297.466663 255.633967 
L 301.420124 255.510011 
L 306.495134 255.560317 
L 307.055909 255.567515 
L 307.055909 255.567515 
" clip-path="url(#p5fd66be60a)" style="fill: none; stroke: #0000ff; stroke-width: 4; stroke-linecap: square"/>
   </g>
   <g id="line2d_13">
    <path d="M 82.774091 261.26 
L 84.484454 260.626523 
L 86.615397 260.113629 
L 89.783774 259.617736 
L 94.774668 259.187236 
L 122.308703 257.023381 
L 124.187298 256.841689 
L 126.206087 256.671288 
L 130.103471 256.489827 
L 151.076442 255.896567 
L 154.300897 255.917376 
L 158.899249 255.78437 
L 175.329946 255.760396 
L 181.386312 255.595953 
L 193.499044 256.037133 
L 197.929164 256.021782 
L 201.54616 255.988091 
L 205.163157 255.855467 
L 207.322139 255.854498 
L 209.929741 255.940479 
L 223.612642 255.725017 
L 226.893174 255.766843 
L 236.538498 255.628871 
L 240.015301 255.613795 
L 246.408132 255.646608 
L 250.165322 255.619273 
L 252.85704 255.683588 
L 257.988128 255.739127 
L 270.437325 255.74576 
L 272.708462 255.809244 
L 276.577807 255.846199 
L 279.353642 255.752331 
L 285.494124 255.487683 
L 288.886811 255.55351 
L 304.616539 256.027496 
L 307.055909 255.908696 
L 307.055909 255.908696 
" clip-path="url(#p5fd66be60a)" style="fill: none; stroke: #ff0000; stroke-width: 4; stroke-linecap: square"/>
   </g>
   <g id="patch_3">
    <path d="M 71.56 261.26 
L 71.56 77.28 
" style="fill: none; stroke: #000000; stroke-width: 3; stroke-linejoin: miter; stroke-linecap: square"/>
   </g>
   <g id="patch_4">
    <path d="M 71.56 261.26 
L 318.27 261.26 
" style="fill: none; stroke: #000000; stroke-width: 3; stroke-linejoin: miter; stroke-linecap: square"/>
   </g>
   <g id="text_14">
    <!-- DNa02 -->
    <g transform="translate(154.07375 71.28) scale(0.24 -0.24)">
     <defs>
      <path id="DejaVuSans-44" d="M 1259 4147 
L 1259 519 
L 2022 519 
Q 2988 519 3436 956 
Q 3884 1394 3884 2338 
Q 3884 3275 3436 3711 
Q 2988 4147 2022 4147 
L 1259 4147 
z
M 628 4666 
L 1925 4666 
Q 3281 4666 3915 4102 
Q 4550 3538 4550 2338 
Q 4550 1131 3912 565 
Q 3275 0 1925 0 
L 628 0 
L 628 4666 
z
" transform="scale(0.015625)"/>
      <path id="DejaVuSans-4e" d="M 628 4666 
L 1478 4666 
L 3547 763 
L 3547 4666 
L 4159 4666 
L 4159 0 
L 3309 0 
L 1241 3903 
L 1241 0 
L 628 0 
L 628 4666 
z
" transform="scale(0.015625)"/>
     </defs>
     <use xlink:href="#DejaVuSans-44"/>
     <use xlink:href="#DejaVuSans-4e" x="77.001953"/>
     <use xlink:href="#DejaVuSans-61" x="151.806641"/>
     <use xlink:href="#DejaVuSans-30" x="213.085938"/>
     <use xlink:href="#DejaVuSans-32" x="276.708984"/>
    </g>
   </g>
  </g>
  <g id="axes_2">
   <g id="patch_5">
    <path d="M 329.07 261.26 
L 575.78 261.26 
L 575.78 77.28 
L 329.07 77.28 
z
" style="fill: #ffffff"/>
   </g>
   <g id="matplotlib.axis_3">
    <g id="xtick_6">
     <g id="line2d_14">
      <g>
       <use xlink:href="#m805fdbd9de" x="340.284091" y="261.26" style="stroke: #000000; stroke-width: 3"/>
      </g>
     </g>
    </g>
    <g id="xtick_7">
     <g id="line2d_15">
      <g>
       <use xlink:href="#m805fdbd9de" x="396.361555" y="261.26" style="stroke: #000000; stroke-width: 3"/>
      </g>
     </g>
    </g>
    <g id="xtick_8">
     <g id="line2d_16">
      <g>
       <use xlink:href="#m805fdbd9de" x="452.439019" y="261.26" style="stroke: #000000; stroke-width: 3"/>
      </g>
     </g>
    </g>
    <g id="xtick_9">
     <g id="line2d_17">
      <g>
       <use xlink:href="#m805fdbd9de" x="508.516484" y="261.26" style="stroke: #000000; stroke-width: 3"/>
      </g>
     </g>
    </g>
    <g id="xtick_10">
     <g id="line2d_18">
      <g>
       <use xlink:href="#m805fdbd9de" x="564.593948" y="261.26" style="stroke: #000000; stroke-width: 3"/>
      </g>
     </g>
    </g>
   </g>
   <g id="matplotlib.axis_4"/>
   <g id="line2d_19">
    <path d="M 340.284091 261.26 
L 341.770144 260.322373 
L 343.228158 259.677252 
L 345.246946 259.049096 
L 347.574161 258.578617 
L 354.836193 257.553695 
L 360.556094 256.918623 
L 372.556672 255.463714 
L 380.968291 255.159536 
L 391.17439 254.927812 
L 395.296083 254.81626 
L 397.483104 254.952739 
L 401.99734 255.232275 
L 405.894724 255.296867 
L 410.63327 255.261132 
L 414.334382 255.104487 
L 418.764502 255.157439 
L 426.194766 255.233735 
L 429.054717 255.252188 
L 435.671858 255.55524 
L 444.083477 255.359457 
L 446.775195 255.278913 
L 448.8781 255.159311 
L 452.21471 255.033329 
L 476.075671 255.443914 
L 484.627484 255.537452 
L 487.122931 255.641529 
L 494.384963 255.685007 
L 497.048642 255.628206 
L 503.301279 255.601018 
L 506.946315 255.701813 
L 517.236529 255.472081 
L 530.807276 255.387005 
L 534.508388 255.320701 
L 544.041557 255.747671 
L 547.209934 255.702953 
L 551.135356 255.515537 
L 554.920585 255.396161 
L 559.967557 255.191283 
L 564.369638 255.217902 
L 564.565909 255.222529 
L 564.565909 255.222529 
" clip-path="url(#p96c71d6f73)" style="fill: none; stroke: #0000ff; stroke-width: 4; stroke-linecap: square"/>
   </g>
   <g id="line2d_20">
    <path d="M 340.284091 261.26 
L 341.714066 260.362799 
L 343.284235 259.674906 
L 345.190869 259.080967 
L 347.546123 258.555289 
L 350.770577 258.10931 
L 367.95832 256.141527 
L 371.71551 256.001531 
L 380.099091 255.327397 
L 386.267612 254.956868 
L 397.090562 254.944146 
L 401.688914 254.813244 
L 405.305911 254.836074 
L 413.240872 254.925359 
L 416.717675 254.998511 
L 427.905129 255.382846 
L 433.036217 255.207584 
L 435.699896 255.052101 
L 438.784157 255.039338 
L 452.887639 255.74863 
L 456.813062 255.721227 
L 465.813495 255.616148 
L 467.69209 255.628472 
L 473.524146 255.389614 
L 476.328019 255.444496 
L 485.720994 255.444624 
L 488.46879 255.368379 
L 493.151258 255.312281 
L 514.208346 255.435668 
L 517.236529 255.512222 
L 519.788054 255.535779 
L 531.171779 255.528902 
L 536.527177 255.492258 
L 540.200251 255.280726 
L 546.396811 255.273884 
L 561.201261 255.931685 
L 564.565909 255.703385 
L 564.565909 255.703385 
" clip-path="url(#p96c71d6f73)" style="fill: none; stroke: #ff0000; stroke-width: 4; stroke-linecap: square"/>
   </g>
   <g id="patch_6">
    <path d="M 329.07 261.26 
L 575.78 261.26 
" style="fill: none; stroke: #000000; stroke-width: 3; stroke-linejoin: miter; stroke-linecap: square"/>
   </g>
   <g id="text_15">
    <!-- LAL018 -->
    <g transform="translate(407.66875 71.28) scale(0.24 -0.24)">
     <defs>
      <path id="DejaVuSans-4c" d="M 628 4666 
L 1259 4666 
L 1259 531 
L 3531 531 
L 3531 0 
L 628 0 
L 628 4666 
z
" transform="scale(0.015625)"/>
      <path id="DejaVuSans-41" d="M 2188 4044 
L 1331 1722 
L 3047 1722 
L 2188 4044 
z
M 1831 4666 
L 2547 4666 
L 4325 0 
L 3669 0 
L 3244 1197 
L 1141 1197 
L 716 0 
L 50 0 
L 1831 4666 
z
" transform="scale(0.015625)"/>
     </defs>
     <use xlink:href="#DejaVuSans-4c"/>
     <use xlink:href="#DejaVuSans-41" x="57.962891"/>
     <use xlink:href="#DejaVuSans-4c" x="126.371094"/>
     <use xlink:href="#DejaVuSans-30" x="182.083984"/>
     <use xlink:href="#DejaVuSans-31" x="245.707031"/>
     <use xlink:href="#DejaVuSans-38" x="309.330078"/>
    </g>
   </g>
  </g>
  <g id="axes_3">
   <g id="patch_7">
    <path d="M 586.58 261.26 
L 833.29 261.26 
L 833.29 77.28 
L 586.58 77.28 
z
" style="fill: #ffffff"/>
   </g>
   <g id="matplotlib.axis_5">
    <g id="xtick_11">
     <g id="line2d_21">
      <g>
       <use xlink:href="#m805fdbd9de" x="597.794091" y="261.26" style="stroke: #000000; stroke-width: 3"/>
      </g>
     </g>
    </g>
    <g id="xtick_12">
     <g id="line2d_22">
      <g>
       <use xlink:href="#m805fdbd9de" x="653.871555" y="261.26" style="stroke: #000000; stroke-width: 3"/>
      </g>
     </g>
    </g>
    <g id="xtick_13">
     <g id="line2d_23">
      <g>
       <use xlink:href="#m805fdbd9de" x="709.949019" y="261.26" style="stroke: #000000; stroke-width: 3"/>
      </g>
     </g>
    </g>
    <g id="xtick_14">
     <g id="line2d_24">
      <g>
       <use xlink:href="#m805fdbd9de" x="766.026484" y="261.26" style="stroke: #000000; stroke-width: 3"/>
      </g>
     </g>
    </g>
    <g id="xtick_15">
     <g id="line2d_25">
      <g>
       <use xlink:href="#m805fdbd9de" x="822.103948" y="261.26" style="stroke: #000000; stroke-width: 3"/>
      </g>
     </g>
    </g>
   </g>
   <g id="matplotlib.axis_6"/>
   <g id="line2d_26">
    <path d="M 597.794091 261.26 
L 601.411087 259.792792 
L 615.262221 254.764152 
L 616.327693 254.117128 
L 620.673696 251.090648 
L 624.12246 247.435727 
L 625.916939 245.586844 
L 627.206721 244.651194 
L 628.804929 243.359314 
L 630.09471 242.109487 
L 631.664879 240.883556 
L 634.30052 238.585512 
L 635.281876 237.776174 
L 636.655774 236.733198 
L 637.216548 236.232421 
L 640.300809 233.108981 
L 640.889622 232.474104 
L 641.927055 231.277876 
L 643.693495 229.101033 
L 644.815045 228.138151 
L 646.048749 227.206792 
L 646.974027 226.512136 
L 647.478724 226.050854 
L 649.974171 222.84533 
L 651.852766 220.687912 
L 652.66589 219.936486 
L 653.31078 219.369146 
L 653.7594 219.188206 
L 654.824872 218.98115 
L 656.19877 218.661309 
L 656.955816 218.875693 
L 657.404435 218.94758 
L 658.329714 218.738201 
L 659.114798 217.836915 
L 659.815766 217.181125 
L 662.030826 215.856667 
L 662.451407 215.826461 
L 662.815911 215.831287 
L 663.965499 215.729908 
L 664.442157 215.831341 
L 664.918816 215.868634 
L 665.423513 215.69856 
L 667.975037 213.762578 
L 668.311502 213.441765 
L 669.264819 212.363955 
L 671.311647 209.921034 
L 671.90046 209.269792 
L 672.825738 208.282983 
L 673.779055 207.511881 
L 674.816488 206.529312 
L 676.246463 205.97353 
L 676.554889 205.797696 
L 678.517601 204.209511 
L 679.386801 203.84804 
L 679.807382 204.113219 
L 680.536389 204.746735 
L 680.816777 204.776953 
L 681.433629 204.470379 
L 682.162636 204.039064 
L 682.555178 204.088477 
L 683.031837 204.01193 
L 684.826315 202.96949 
L 685.83571 202.902964 
L 689.060164 204.121492 
L 690.546217 204.885459 
L 691.163069 205.422878 
L 691.58365 205.548708 
L 691.976192 205.357491 
L 693.5744 204.106416 
L 694.808104 203.729326 
L 695.312801 203.535886 
L 696.995125 203.286545 
L 697.836287 203.110328 
L 698.817643 203.09685 
L 699.210185 202.784191 
L 699.77096 202.23361 
L 700.247618 201.691101 
L 700.780354 201.132942 
L 701.172896 200.70164 
L 701.845826 200.233961 
L 703.023453 199.656268 
L 704.173041 199.848069 
L 704.761854 199.774764 
L 705.434783 199.390223 
L 706.079674 198.701531 
L 706.864759 197.892205 
L 707.565727 197.470584 
L 708.519044 197.018519 
L 709.444322 197.143143 
L 710.3696 197.399591 
L 710.986452 197.598433 
L 712.528583 197.815499 
L 713.762287 197.372484 
L 714.182868 197.081305 
L 715.136185 196.941284 
L 715.584805 196.714456 
L 716.257734 196.745847 
L 718.080252 197.727831 
L 719.706498 198.44522 
L 720.211195 198.753588 
L 721.164512 198.517291 
L 721.529016 198.488047 
L 722.117829 198.543132 
L 722.370178 198.505155 
L 723.267417 198.190361 
L 724.052502 198.204499 
L 724.52916 198.184269 
L 728.594776 199.282426 
L 729.940635 199.049547 
L 732.632354 197.756173 
L 732.94078 197.722633 
L 733.333322 197.592472 
L 733.697825 197.562438 
L 734.398794 197.617054 
L 734.70722 197.737088 
L 735.744653 198.195844 
L 738.46441 197.700432 
L 739.78223 196.516046 
L 740.146734 196.512447 
L 740.483199 196.614705 
L 741.268283 197.241958 
L 741.801019 197.839383 
L 743.062762 199.042549 
L 744.380582 199.619456 
L 744.717047 199.543423 
L 746.904068 198.434152 
L 748.362082 198.307667 
L 748.782663 198.496834 
L 750.689297 199.525562 
L 751.923001 199.971982 
L 752.932396 200.008273 
L 753.773558 199.417401 
L 754.726875 198.669647 
L 755.764308 198.686068 
L 756.016656 198.700855 
L 756.633508 198.481468 
L 757.278399 198.077523 
L 757.558786 197.993319 
L 758.960723 197.602594 
L 759.521498 197.461532 
L 759.857963 197.591404 
L 761.035589 198.269085 
L 761.484209 198.489456 
L 761.988906 198.5584 
L 762.689874 198.610267 
L 763.474959 199.127697 
L 763.867501 199.247585 
L 764.372198 199.132561 
L 764.680624 198.902955 
L 765.493748 198.305455 
L 766.475103 197.894446 
L 767.512536 197.750409 
L 768.32566 197.567081 
L 768.942512 197.272939 
L 769.363093 197.333915 
L 769.86779 197.426851 
L 770.31641 197.290236 
L 771.522075 196.500585 
L 773.232438 196.548464 
L 773.961445 196.330788 
L 774.9428 196.005608 
L 775.447498 196.283798 
L 775.812001 196.460081 
L 776.709241 196.858795 
L 778.0551 197.810305 
L 779.989772 198.430562 
L 780.971128 198.468507 
L 782.373064 198.357607 
L 782.933839 198.396802 
L 783.606769 198.338096 
L 784.952628 198.801293 
L 785.821828 199.1242 
L 786.214371 198.981808 
L 786.578874 198.737939 
L 788.541585 197.457154 
L 789.242554 197.157216 
L 789.522941 197.069603 
L 790.055677 197.030719 
L 791.289381 196.954876 
L 791.934272 197.261068 
L 792.999744 198.002265 
L 793.588557 198.257404 
L 794.654029 198.334769 
L 795.691462 198.615353 
L 796.084004 198.719514 
L 796.981244 198.327004 
L 797.457902 198.139119 
L 798.242987 198.026964 
L 799.196304 198.242589 
L 801.635673 197.274456 
L 802.140371 197.256585 
L 802.645068 197.392396 
L 803.430152 196.870986 
L 805.084437 195.567594 
L 805.617173 195.163023 
L 805.981677 195.139061 
L 806.850878 194.887783 
L 807.187342 194.750365 
L 808.729473 194.747507 
L 809.598673 195.048997 
L 810.495913 195.177198 
L 811.028649 195.200745 
L 811.309036 195.174676 
L 811.925888 194.830033 
L 812.654895 194.33012 
L 812.963321 194.056025 
L 813.355863 193.746347 
L 814.028793 193.643506 
L 814.729761 193.488246 
L 815.122304 193.464204 
L 815.598962 193.593379 
L 816.103659 193.915437 
L 816.916782 194.777963 
L 817.337363 195.091159 
L 818.7393 196.005459 
L 819.356152 196.224752 
L 819.973004 196.214745 
L 820.645934 196.046384 
L 820.926321 195.996589 
L 821.571212 196.070374 
L 822.075909 196.037691 
L 822.075909 196.037691 
" clip-path="url(#p2d5070fd56)" style="fill: none; stroke: #0000ff; stroke-width: 4; stroke-linecap: square"/>
   </g>
   <g id="line2d_27">
    <path d="M 597.794091 261.26 
L 601.074623 259.939051 
L 607.074911 257.909026 
L 610.888179 256.703513 
L 613.776168 255.529 
L 617.421203 253.559434 
L 619.832534 251.709548 
L 623.25326 248.619585 
L 624.739312 247.646648 
L 628.216115 245.993526 
L 629.421781 244.888181 
L 631.160182 242.850259 
L 632.057422 241.694249 
L 633.627591 240.089146 
L 635.057566 238.753134 
L 635.926767 237.767813 
L 636.627735 237.136128 
L 637.945555 235.913271 
L 638.926911 234.476879 
L 639.964344 232.814707 
L 642.03921 230.32461 
L 642.768217 229.646304 
L 643.721534 228.756722 
L 644.25427 228.283905 
L 645.095432 227.47233 
L 645.712284 227.114375 
L 646.048749 226.957175 
L 646.637562 226.666918 
L 647.394608 226.363176 
L 648.039499 226.003166 
L 648.488119 225.656382 
L 649.413397 224.745999 
L 649.974171 224.155333 
L 650.815333 223.26143 
L 651.235914 222.642405 
L 652.273347 221.447266 
L 653.843516 219.516251 
L 655.161337 217.75241 
L 657.628745 215.35454 
L 658.18952 215.131813 
L 658.694217 215.069525 
L 659.367147 215.060609 
L 659.815766 214.991712 
L 660.348502 214.626744 
L 661.385935 213.672693 
L 661.862594 213.390914 
L 662.563562 213.133897 
L 663.068259 213.033126 
L 664.554312 212.19655 
L 665.002932 212.248269 
L 665.535668 212.402529 
L 666.096442 212.437588 
L 667.274069 212.901476 
L 667.610534 212.824753 
L 668.872277 212.259731 
L 669.23678 211.841629 
L 670.722833 209.857355 
L 671.90046 208.437658 
L 672.853777 207.744049 
L 673.582784 207.112612 
L 674.395907 206.550407 
L 675.461379 206.234182 
L 676.414696 206.089582 
L 677.6484 205.493619 
L 678.265252 205.133054 
L 678.910143 205.046748 
L 680.199925 205.054246 
L 680.620506 205.118475 
L 681.125203 204.996481 
L 682.30283 204.42907 
L 682.863604 204.273897 
L 683.760844 204.325602 
L 684.489851 204.674324 
L 685.246896 204.42336 
L 686.256291 203.562046 
L 687.125491 202.691886 
L 687.574111 202.564939 
L 688.69566 202.359767 
L 689.088203 202.231288 
L 690.069558 202.273177 
L 690.770527 201.776317 
L 691.35934 201.354477 
L 692.957548 200.847193 
L 695.088491 200.111166 
L 696.378273 199.913135 
L 698.677449 201.444582 
L 699.266262 201.390071 
L 699.827037 201.435028 
L 701.032703 201.527468 
L 701.705632 201.685432 
L 702.154252 201.76419 
L 702.63091 201.787123 
L 703.107569 201.978965 
L 703.500111 202.106482 
L 704.677738 201.828916 
L 705.603016 202.140736 
L 706.107713 202.385392 
L 706.892798 202.558291 
L 707.341417 202.625502 
L 708.350812 202.590208 
L 709.05178 202.436905 
L 709.640593 202.074206 
L 710.509794 201.901007 
L 710.734104 201.997283 
L 711.182724 202.115082 
L 712.528583 201.690471 
L 713.089357 201.357064 
L 713.678171 201.196543 
L 714.12679 201.114972 
L 714.491294 200.905156 
L 715.24834 200.499658 
L 715.724998 200.47348 
L 716.482044 200.51122 
L 717.070857 200.415302 
L 717.491438 200.436528 
L 717.799864 200.376227 
L 720.379428 198.646463 
L 720.856086 198.641021 
L 721.248628 198.680209 
L 721.725287 198.626966 
L 722.3141 199.187706 
L 723.379572 200.484843 
L 723.996424 200.964318 
L 724.585238 200.974342 
L 725.482477 200.344547 
L 726.688142 199.638706 
L 727.248917 199.451637 
L 728.370466 198.944901 
L 728.875164 198.83968 
L 729.267706 198.597442 
L 729.940635 198.110753 
L 731.931385 197.606584 
L 734.567026 197.686637 
L 735.632498 197.541146 
L 736.081118 197.613911 
L 736.333466 197.623556 
L 737.258744 197.160275 
L 737.539132 197.093393 
L 738.492449 197.091107 
L 738.772836 197.260725 
L 739.277533 197.569637 
L 739.838308 197.768094 
L 740.23085 197.797894 
L 741.324361 197.294083 
L 742.67022 197.292039 
L 743.343149 197.16359 
L 744.296466 196.859095 
L 745.305861 197.306333 
L 746.511526 197.252042 
L 747.324649 197.21071 
L 747.661114 197.293884 
L 748.390121 197.22825 
L 749.091089 196.958604 
L 749.51167 196.938212 
L 749.96029 196.835037 
L 750.352832 196.754177 
L 750.745375 196.798233 
L 751.390265 196.811262 
L 753.240822 196.739063 
L 753.71748 196.862252 
L 754.250216 196.806222 
L 755.568037 196.715417 
L 756.212927 196.700749 
L 757.082128 196.701956 
L 758.484065 196.890239 
L 758.904646 196.689887 
L 759.185033 196.729348 
L 759.745808 196.817041 
L 760.278544 196.621264 
L 760.699124 196.451855 
L 761.988906 195.903788 
L 762.409487 195.976288 
L 762.802029 196.105166 
L 763.362804 196.014679 
L 763.699269 195.950506 
L 764.063772 196.149164 
L 764.596508 196.308549 
L 765.073167 196.264645 
L 765.521786 196.271686 
L 766.250793 196.653606 
L 767.708808 196.950965 
L 768.073311 197.041855 
L 768.662124 196.925672 
L 769.86779 196.509989 
L 770.596797 196.318692 
L 771.157572 196.450539 
L 771.465998 196.503149 
L 771.718346 196.567836 
L 772.08285 196.675155 
L 772.447353 196.750621 
L 773.036167 196.898627 
L 773.316554 196.812493 
L 774.017522 196.53279 
L 774.438103 196.662868 
L 775.111033 197.104671 
L 775.419459 197.23857 
L 776.765318 197.010301 
L 779.316843 197.223448 
L 780.578586 197.715565 
L 781.36367 198.102821 
L 781.700135 198.380402 
L 782.260909 198.835328 
L 782.849723 198.911958 
L 783.410498 198.704959 
L 784.756357 198.254626 
L 785.373209 198.035184 
L 786.214371 198.135821 
L 786.578874 198.409134 
L 787.616307 199.255489 
L 788.261198 199.459872 
L 789.158438 199.377497 
L 789.887445 199.661538 
L 790.336064 199.567844 
L 791.037033 199.212203 
L 791.597807 198.898358 
L 791.962311 198.992628 
L 792.523085 199.062814 
L 793.672673 198.269839 
L 795.130688 196.835542 
L 795.859695 196.272206 
L 796.39243 195.803811 
L 796.981244 195.426339 
L 797.906522 195.095124 
L 799.364536 193.887204 
L 800.430008 193.483664 
L 801.775867 193.264709 
L 802.196448 193.41397 
L 803.514268 194.026405 
L 804.159159 194.334352 
L 804.747973 194.82713 
L 805.533057 195.59313 
L 806.57049 195.835256 
L 807.271459 195.670524 
L 807.635962 195.743341 
L 808.000466 195.983589 
L 808.393008 196.177128 
L 810.047293 196.461815 
L 810.523951 196.716434 
L 811.112765 196.924994 
L 811.44923 197.056152 
L 811.925888 197.203027 
L 812.907244 197.66659 
L 813.383902 197.794851 
L 815.879349 199.680341 
L 817.028937 200.432904 
L 817.617751 200.76853 
L 818.06637 200.783955 
L 818.795377 200.599955 
L 820.28143 199.243129 
L 821.206708 198.632901 
L 822.075909 198.152192 
L 822.075909 198.152192 
" clip-path="url(#p2d5070fd56)" style="fill: none; stroke: #ff0000; stroke-width: 4; stroke-linecap: square"/>
   </g>
   <g id="patch_8">
    <path d="M 586.58 261.26 
L 833.29 261.26 
" style="fill: none; stroke: #000000; stroke-width: 3; stroke-linejoin: miter; stroke-linecap: square"/>
   </g>
   <g id="text_16">
    <!-- LAL040 -->
    <g transform="translate(665.17875 71.28) scale(0.24 -0.24)">
     <use xlink:href="#DejaVuSans-4c"/>
     <use xlink:href="#DejaVuSans-41" x="57.962891"/>
     <use xlink:href="#DejaVuSans-4c" x="126.371094"/>
     <use xlink:href="#DejaVuSans-30" x="182.083984"/>
     <use xlink:href="#DejaVuSans-34" x="245.707031"/>
     <use xlink:href="#DejaVuSans-30" x="309.330078"/>
    </g>
   </g>
  </g>
  <g id="axes_4">
   <g id="patch_9">
    <path d="M 844.09 261.26 
L 1090.8 261.26 
L 1090.8 77.28 
L 844.09 77.28 
z
" style="fill: #ffffff"/>
   </g>
   <g id="matplotlib.axis_7">
    <g id="xtick_16">
     <g id="line2d_28">
      <g>
       <use xlink:href="#m805fdbd9de" x="855.304091" y="261.26" style="stroke: #000000; stroke-width: 3"/>
      </g>
     </g>
    </g>
    <g id="xtick_17">
     <g id="line2d_29">
      <g>
       <use xlink:href="#m805fdbd9de" x="911.381555" y="261.26" style="stroke: #000000; stroke-width: 3"/>
      </g>
     </g>
    </g>
    <g id="xtick_18">
     <g id="line2d_30">
      <g>
       <use xlink:href="#m805fdbd9de" x="967.459019" y="261.26" style="stroke: #000000; stroke-width: 3"/>
      </g>
     </g>
    </g>
    <g id="xtick_19">
     <g id="line2d_31">
      <g>
       <use xlink:href="#m805fdbd9de" x="1023.536484" y="261.26" style="stroke: #000000; stroke-width: 3"/>
      </g>
     </g>
    </g>
    <g id="xtick_20">
     <g id="line2d_32">
      <g>
       <use xlink:href="#m805fdbd9de" x="1079.613948" y="261.26" style="stroke: #000000; stroke-width: 3"/>
      </g>
     </g>
    </g>
   </g>
   <g id="matplotlib.axis_8"/>
   <g id="line2d_33">
    <path d="M 855.304091 261.26 
L 864.61295 260.811481 
L 871.67871 260.24073 
L 873.66946 259.992534 
L 877.735077 259.223596 
L 880.903453 258.108833 
L 884.912992 256.700872 
L 886.146696 256.294927 
L 888.50195 255.432499 
L 891.446017 254.187029 
L 893.268534 253.460758 
L 895.707904 252.354346 
L 898.960397 250.43611 
L 901.708193 248.505653 
L 903.110129 247.828992 
L 904.764414 247.028938 
L 905.269112 246.61605 
L 907.231823 244.910965 
L 909.194534 243.231437 
L 910.091773 242.678247 
L 910.932935 242.142754 
L 911.437633 242.071624 
L 912.16664 241.976257 
L 913.344266 241.706937 
L 914.381699 241.840613 
L 915.02659 241.913991 
L 915.951868 241.684915 
L 918.026735 240.171322 
L 920.045523 239.527279 
L 920.550221 239.474966 
L 921.139034 239.36631 
L 922.653125 239.513379 
L 923.017629 239.375701 
L 926.129928 237.282623 
L 928.429104 235.023493 
L 930.756319 232.886586 
L 931.1769 232.587403 
L 932.270411 231.620894 
L 932.971379 231.364669 
L 934.008812 230.980034 
L 934.597625 230.46116 
L 935.018206 230.109937 
L 935.691136 229.668722 
L 936.840724 229.120304 
L 937.177189 229.272896 
L 938.326777 230.003464 
L 938.971668 229.698651 
L 939.58852 229.319574 
L 940.065178 229.363808 
L 940.541837 229.294569 
L 942.392393 228.291909 
L 942.981206 228.187154 
L 943.317671 228.236998 
L 946.177622 229.24835 
L 946.598203 229.418293 
L 948.252488 230.308412 
L 949.037572 230.736036 
L 949.430115 230.597104 
L 949.906773 230.133574 
L 950.523625 229.678135 
L 951.140477 229.369787 
L 951.813407 229.23427 
L 952.570453 228.901138 
L 952.962995 228.835503 
L 953.411615 228.810681 
L 954.028467 228.732764 
L 954.449048 228.633487 
L 954.813551 228.612378 
L 956.467836 228.29778 
L 957.252921 227.629152 
L 957.92585 226.909595 
L 958.290354 226.508059 
L 958.682896 226.080421 
L 959.355826 225.620778 
L 960.561491 225.060918 
L 961.739118 225.256471 
L 962.440086 225.085322 
L 963.225171 224.543382 
L 963.982217 223.685597 
L 964.739262 223.030429 
L 966.421586 222.422425 
L 969.898389 223.250639 
L 970.9919 223.003214 
L 971.889139 222.466145 
L 972.449914 222.436133 
L 973.319114 222.048246 
L 973.62754 222.076972 
L 973.85185 222.173635 
L 975.758484 223.18616 
L 977.104343 223.791378 
L 978.05766 224.183111 
L 979.207248 223.918661 
L 979.796061 223.954252 
L 980.27272 223.741782 
L 980.889572 223.609069 
L 981.506424 223.618747 
L 982.319547 223.712895 
L 982.852283 223.833207 
L 983.076593 223.906351 
L 983.609329 224.135552 
L 984.310297 224.237185 
L 985.011266 224.408505 
L 985.936544 224.675426 
L 986.329086 224.681913 
L 987.170248 224.524921 
L 987.759061 224.319466 
L 988.123565 224.160699 
L 989.217075 223.81169 
L 989.497463 223.573995 
L 990.142354 223.157238 
L 990.45078 223.123915 
L 990.843322 222.991105 
L 991.179787 222.967327 
L 991.628406 222.98044 
L 992.329375 223.214602 
L 993.058382 223.631477 
L 995.7501 223.259048 
L 996.254797 222.805589 
L 996.815572 222.155928 
L 997.460463 221.85657 
L 998.049276 222.00966 
L 998.497896 222.363282 
L 1000.460607 224.365974 
L 1001.385885 224.895236 
L 1002.255086 224.937799 
L 1004.273875 223.860233 
L 1006.236586 223.883332 
L 1006.601089 224.138254 
L 1007.778716 224.764251 
L 1008.507723 225.114288 
L 1009.124575 225.357708 
L 1010.498473 225.397892 
L 1011.031209 225.090237 
L 1011.563945 224.585642 
L 1012.152758 224.089013 
L 1012.713533 224.010012 
L 1013.049998 224.056874 
L 1013.835082 224.009525 
L 1015.321135 223.345548 
L 1016.162297 223.168192 
L 1016.807188 222.834382 
L 1017.143653 222.86666 
L 1018.012853 223.278708 
L 1018.994209 223.901448 
L 1019.498906 223.97313 
L 1020.199874 224.027696 
L 1021.62985 224.639728 
L 1022.050431 224.457839 
L 1022.975709 223.72795 
L 1023.788832 223.314746 
L 1025.863698 222.941571 
L 1026.48055 222.655763 
L 1027.013286 222.78454 
L 1027.405829 222.817138 
L 1027.82641 222.679655 
L 1029.032075 221.857663 
L 1030.714399 221.918977 
L 1031.555561 221.641548 
L 1032.228491 221.320252 
L 1032.67711 221.456338 
L 1033.854737 221.961287 
L 1034.219241 222.233908 
L 1035.537061 223.196978 
L 1037.527811 223.847926 
L 1039.210135 223.734492 
L 1039.826987 223.762468 
L 1040.584033 223.770073 
L 1041.08873 223.747711 
L 1041.649505 223.953611 
L 1041.957931 224.04223 
L 1042.434589 224.203526 
L 1043.191635 224.538764 
L 1043.556138 224.458084 
L 1044.649649 223.756702 
L 1045.434733 223.153294 
L 1045.855314 222.898361 
L 1046.724515 222.554769 
L 1047.032941 222.443019 
L 1047.537638 222.411731 
L 1048.575071 222.280379 
L 1049.163885 222.465383 
L 1049.920931 222.980879 
L 1050.201318 223.1644 
L 1050.958364 223.661041 
L 1053.25754 224.060885 
L 1053.594004 224.140394 
L 1054.463205 223.764319 
L 1054.883786 223.569538 
L 1055.24829 223.412433 
L 1055.584754 223.408098 
L 1056.453955 223.683094 
L 1056.734342 223.647697 
L 1058.416666 222.834682 
L 1058.725092 222.741267 
L 1059.818603 222.740709 
L 1060.09899 222.825593 
L 1060.856036 222.310031 
L 1063.295406 220.427479 
L 1063.85618 220.40813 
L 1064.248723 220.238532 
L 1064.809497 220.024327 
L 1065.987124 219.952288 
L 1066.239473 220.025488 
L 1067.080635 220.341854 
L 1068.762958 220.509013 
L 1069.800392 219.833177 
L 1071.062135 218.893287 
L 1071.566832 218.840446 
L 1072.856613 218.690705 
L 1073.894046 219.396074 
L 1074.987557 220.479764 
L 1076.810075 221.56341 
L 1077.651237 221.55625 
L 1078.548476 221.365048 
L 1079.333561 221.419253 
L 1079.585909 221.385778 
L 1079.585909 221.385778 
" clip-path="url(#p5dc8ebd50c)" style="fill: none; stroke: #0000ff; stroke-width: 4; stroke-linecap: square"/>
   </g>
   <g id="line2d_34">
    <path d="M 855.304091 261.26 
L 865.005492 260.797227 
L 870.5852 260.388646 
L 874.370429 259.910176 
L 876.949992 259.385055 
L 882.361467 257.901961 
L 885.333573 257.426131 
L 886.483161 257.056317 
L 888.473911 256.119095 
L 890.072119 255.235498 
L 893.100302 253.813033 
L 894.305967 253.234418 
L 895.820059 252.452046 
L 896.352795 251.980868 
L 897.530421 250.913368 
L 901.09134 248.628688 
L 901.904464 248.18764 
L 903.08209 247.585944 
L 905.801847 246.751433 
L 907.119668 245.838556 
L 907.792597 245.431174 
L 908.493566 244.839273 
L 909.250611 244.146234 
L 912.026446 241.538071 
L 912.951724 240.762737 
L 913.428383 240.350293 
L 914.521893 239.41803 
L 915.138745 239.107343 
L 915.783636 238.920419 
L 916.596759 238.888314 
L 917.409883 238.819496 
L 917.970657 238.49554 
L 918.643587 237.986254 
L 919.148284 237.638092 
L 920.017485 237.347798 
L 920.77453 237.168705 
L 922.008235 236.577884 
L 922.540971 236.629126 
L 923.045668 236.748102 
L 923.634481 236.791252 
L 925.148573 237.095176 
L 926.298161 236.681845 
L 926.774819 236.239016 
L 928.120678 234.673496 
L 929.550654 233.224941 
L 930.391816 232.662057 
L 931.148861 232.080979 
L 931.905907 231.621412 
L 932.999418 231.344315 
L 933.812541 231.269358 
L 935.046245 230.756472 
L 935.887407 230.32103 
L 937.625808 230.25068 
L 938.242661 230.328914 
L 938.719319 230.177017 
L 940.541837 229.545248 
L 941.467115 229.731375 
L 941.971812 229.930822 
L 942.756896 229.691479 
L 943.766291 228.869518 
L 944.635491 228.029685 
L 945.084111 227.910858 
L 946.20566 227.717942 
L 946.598203 227.594939 
L 947.579558 227.637841 
L 948.280527 227.152855 
L 948.86934 226.738723 
L 950.18716 226.315638 
L 950.944206 225.967052 
L 951.252632 225.847299 
L 951.981639 225.740616 
L 953.720041 225.233067 
L 954.280815 225.594447 
L 956.103333 226.831345 
L 958.066044 226.883431 
L 960.056794 227.184443 
L 960.449336 227.25937 
L 960.982072 227.495815 
L 962.692435 227.282098 
L 964.683185 227.991866 
L 966.365509 227.893736 
L 966.730012 227.664762 
L 967.122555 227.466479 
L 968.10391 227.300904 
L 968.888995 227.465077 
L 969.533886 227.381602 
L 970.262893 226.964436 
L 970.9919 226.593227 
L 971.608752 226.524833 
L 971.917178 226.377513 
L 972.646185 225.94803 
L 973.206959 225.882653 
L 973.964005 225.935069 
L 974.833206 225.821388 
L 975.337903 225.775789 
L 977.889428 224.053551 
L 978.366086 224.050405 
L 978.758628 224.091727 
L 979.235287 224.039299 
L 979.8241 224.598242 
L 980.889572 225.874004 
L 981.506424 226.347483 
L 982.095238 226.363159 
L 982.964438 225.761006 
L 984.226181 225.038488 
L 984.730878 224.875558 
L 985.740273 224.365382 
L 986.441241 224.228794 
L 986.861822 223.92496 
L 987.56279 223.477049 
L 989.469424 223.002912 
L 991.067632 223.230032 
L 991.460174 223.189374 
L 991.852716 223.115188 
L 992.497607 223.054417 
L 992.806033 222.992036 
L 993.254653 222.949893 
L 993.843466 223.028583 
L 994.740706 222.568873 
L 995.049132 222.480262 
L 996.002449 222.47999 
L 996.282836 222.653655 
L 996.787533 222.969342 
L 997.348308 223.173476 
L 997.74085 223.204658 
L 998.834361 222.686605 
L 1000.152181 222.684571 
L 1000.684917 222.61539 
L 1001.918621 222.301657 
L 1002.731744 222.677362 
L 1003.432713 222.769618 
L 1003.769177 222.732486 
L 1004.189758 222.597238 
L 1004.582301 222.558648 
L 1005.816005 222.66888 
L 1006.573051 222.337119 
L 1007.077748 222.29043 
L 1007.47029 222.21288 
L 1007.862832 222.129308 
L 1008.227336 222.172925 
L 1009.124575 222.143694 
L 1009.657311 222.058804 
L 1010.498473 222.087562 
L 1010.947093 222.202548 
L 1011.507868 222.236744 
L 1014.395857 222.093626 
L 1014.844477 222.163568 
L 1015.88191 222.348867 
L 1016.610917 222.082756 
L 1017.452079 222.17719 
L 1017.788544 221.997504 
L 1018.181086 221.832331 
L 1018.882054 221.428559 
L 1019.246558 221.277459 
L 1020.031642 221.393528 
L 1020.368107 221.453054 
L 1021.265346 221.31359 
L 1022.386896 221.669825 
L 1023.059825 221.650887 
L 1023.84491 222.039358 
L 1025.218808 222.335954 
L 1025.583311 222.429931 
L 1026.172124 222.310512 
L 1027.349751 221.888577 
L 1028.275029 221.702129 
L 1028.611494 221.781773 
L 1028.947959 221.873397 
L 1029.284424 221.973941 
L 1029.620888 222.050589 
L 1029.957353 222.130839 
L 1030.546167 222.284059 
L 1030.826554 222.194591 
L 1031.527522 221.903153 
L 1031.948103 222.038414 
L 1032.621033 222.491977 
L 1032.929459 222.629647 
L 1034.275318 222.396462 
L 1036.826843 222.616912 
L 1038.088586 223.118587 
L 1038.845631 223.496674 
L 1039.266212 223.85144 
L 1039.826987 224.264364 
L 1040.331684 224.342056 
L 1040.976575 224.101953 
L 1041.957931 223.853638 
L 1043.107519 223.431567 
L 1043.808487 223.592847 
L 1045.631005 224.848023 
L 1045.995508 224.833603 
L 1046.584321 224.769055 
L 1046.864709 224.913478 
L 1047.453522 225.082385 
L 1047.846064 224.987773 
L 1048.518994 224.650517 
L 1049.163885 224.313204 
L 1049.612504 224.474122 
L 1049.977008 224.507056 
L 1050.874247 223.967799 
L 1051.575216 223.153565 
L 1052.556571 222.25163 
L 1054.771631 220.592997 
L 1055.612793 220.164326 
L 1056.538071 219.342385 
L 1058.024124 218.641786 
L 1059.145673 218.42913 
L 1059.930758 218.740956 
L 1060.575649 219.06356 
L 1061.080346 219.278115 
L 1061.977585 219.785648 
L 1062.482283 220.40951 
L 1062.98698 220.87906 
L 1063.85618 221.257015 
L 1064.220684 221.110146 
L 1064.725381 221.000243 
L 1065.230078 221.113266 
L 1066.29555 221.504238 
L 1067.080635 221.618082 
L 1068.762958 222.411795 
L 1069.183539 222.480598 
L 1069.60412 222.707971 
L 1070.27705 223.061444 
L 1071.006057 223.304597 
L 1071.678987 223.841299 
L 1072.436032 224.421963 
L 1073.108962 224.944609 
L 1074.006201 225.466292 
L 1074.538937 225.841622 
L 1075.127751 226.172425 
L 1075.57637 226.189563 
L 1076.305377 226.007652 
L 1077.819469 224.620475 
L 1078.800825 223.991484 
L 1079.445715 223.617541 
L 1079.585909 223.543398 
L 1079.585909 223.543398 
" clip-path="url(#p5dc8ebd50c)" style="fill: none; stroke: #ff0000; stroke-width: 4; stroke-linecap: square"/>
   </g>
   <g id="patch_10">
    <path d="M 844.09 261.26 
L 1090.8 261.26 
" style="fill: none; stroke: #000000; stroke-width: 3; stroke-linejoin: miter; stroke-linecap: square"/>
   </g>
   <g id="text_17">
    <!-- LAL121 -->
    <g transform="translate(922.68875 71.28) scale(0.24 -0.24)">
     <use xlink:href="#DejaVuSans-4c"/>
     <use xlink:href="#DejaVuSans-41" x="57.962891"/>
     <use xlink:href="#DejaVuSans-4c" x="126.371094"/>
     <use xlink:href="#DejaVuSans-31" x="182.083984"/>
     <use xlink:href="#DejaVuSans-32" x="245.707031"/>
     <use xlink:href="#DejaVuSans-31" x="309.330078"/>
    </g>
   </g>
  </g>
  <g id="text_18">
   <!-- without EC output  = 180 -->
   <g transform="translate(444.730937 28.694375) scale(0.28 -0.28)">
    <defs>
     <path id="DejaVuSans-77" d="M 269 3500 
L 844 3500 
L 1563 769 
L 2278 3500 
L 2956 3500 
L 3675 769 
L 4391 3500 
L 4966 3500 
L 4050 0 
L 3372 0 
L 2619 2869 
L 1863 0 
L 1184 0 
L 269 3500 
z
" transform="scale(0.015625)"/>
     <path id="DejaVuSans-68" d="M 3513 2113 
L 3513 0 
L 2938 0 
L 2938 2094 
Q 2938 2591 2744 2837 
Q 2550 3084 2163 3084 
Q 1697 3084 1428 2787 
Q 1159 2491 1159 1978 
L 1159 0 
L 581 0 
L 581 4863 
L 1159 4863 
L 1159 2956 
Q 1366 3272 1645 3428 
Q 1925 3584 2291 3584 
Q 2894 3584 3203 3211 
Q 3513 2838 3513 2113 
z
" transform="scale(0.015625)"/>
     <path id="DejaVuSans-6f" d="M 1959 3097 
Q 1497 3097 1228 2736 
Q 959 2375 959 1747 
Q 959 1119 1226 758 
Q 1494 397 1959 397 
Q 2419 397 2687 759 
Q 2956 1122 2956 1747 
Q 2956 2369 2687 2733 
Q 2419 3097 1959 3097 
z
M 1959 3584 
Q 2709 3584 3137 3096 
Q 3566 2609 3566 1747 
Q 3566 888 3137 398 
Q 2709 -91 1959 -91 
Q 1206 -91 779 398 
Q 353 888 353 1747 
Q 353 2609 779 3096 
Q 1206 3584 1959 3584 
z
" transform="scale(0.015625)"/>
     <path id="DejaVuSans-75" d="M 544 1381 
L 544 3500 
L 1119 3500 
L 1119 1403 
Q 1119 906 1312 657 
Q 1506 409 1894 409 
Q 2359 409 2629 706 
Q 2900 1003 2900 1516 
L 2900 3500 
L 3475 3500 
L 3475 0 
L 2900 0 
L 2900 538 
Q 2691 219 2414 64 
Q 2138 -91 1772 -91 
Q 1169 -91 856 284 
Q 544 659 544 1381 
z
M 1991 3584 
L 1991 3584 
z
" transform="scale(0.015625)"/>
     <path id="DejaVuSans-45" d="M 628 4666 
L 3578 4666 
L 3578 4134 
L 1259 4134 
L 1259 2753 
L 3481 2753 
L 3481 2222 
L 1259 2222 
L 1259 531 
L 3634 531 
L 3634 0 
L 628 0 
L 628 4666 
z
" transform="scale(0.015625)"/>
     <path id="DejaVuSans-43" d="M 4122 4306 
L 4122 3641 
Q 3803 3938 3442 4084 
Q 3081 4231 2675 4231 
Q 1875 4231 1450 3742 
Q 1025 3253 1025 2328 
Q 1025 1406 1450 917 
Q 1875 428 2675 428 
Q 3081 428 3442 575 
Q 3803 722 4122 1019 
L 4122 359 
Q 3791 134 3420 21 
Q 3050 -91 2638 -91 
Q 1578 -91 968 557 
Q 359 1206 359 2328 
Q 359 3453 968 4101 
Q 1578 4750 2638 4750 
Q 3056 4750 3426 4639 
Q 3797 4528 4122 4306 
z
" transform="scale(0.015625)"/>
     <path id="DejaVuSans-70" d="M 1159 525 
L 1159 -1331 
L 581 -1331 
L 581 3500 
L 1159 3500 
L 1159 2969 
Q 1341 3281 1617 3432 
Q 1894 3584 2278 3584 
Q 2916 3584 3314 3078 
Q 3713 2572 3713 1747 
Q 3713 922 3314 415 
Q 2916 -91 2278 -91 
Q 1894 -91 1617 61 
Q 1341 213 1159 525 
z
M 3116 1747 
Q 3116 2381 2855 2742 
Q 2594 3103 2138 3103 
Q 1681 3103 1420 2742 
Q 1159 2381 1159 1747 
Q 1159 1113 1420 752 
Q 1681 391 2138 391 
Q 2594 391 2855 752 
Q 3116 1113 3116 1747 
z
" transform="scale(0.015625)"/>
     <path id="DejaVuSans-394" d="M 2188 4044 
L 906 525 
L 3472 525 
L 2188 4044 
z
M 50 0 
L 1831 4666 
L 2547 4666 
L 4325 0 
L 50 0 
z
" transform="scale(0.015625)"/>
     <path id="DejaVuSans-3b8" d="M 2953 2219 
L 963 2219 
Q 1009 1284 1225 888 
Q 1494 400 1959 400 
Q 2428 400 2688 891 
Q 2916 1322 2953 2219 
z
M 2944 2750 
Q 2856 3638 2688 3950 
Q 2419 4444 1959 4444 
Q 1481 4444 1228 3956 
Q 1028 3563 969 2750 
L 2944 2750 
z
M 1959 4913 
Q 2709 4913 3138 4250 
Q 3566 3591 3566 2422 
Q 3566 1256 3138 594 
Q 2709 -72 1959 -72 
Q 1206 -72 781 594 
Q 353 1256 353 2422 
Q 353 3591 781 4250 
Q 1206 4913 1959 4913 
z
" transform="scale(0.015625)"/>
     <path id="DejaVuSans-3d" d="M 678 2906 
L 4684 2906 
L 4684 2381 
L 678 2381 
L 678 2906 
z
M 678 1631 
L 4684 1631 
L 4684 1100 
L 678 1100 
L 678 1631 
z
" transform="scale(0.015625)"/>
     <path id="DejaVuSans-b0" d="M 1600 4347 
Q 1350 4347 1178 4173 
Q 1006 4000 1006 3750 
Q 1006 3503 1178 3333 
Q 1350 3163 1600 3163 
Q 1850 3163 2022 3333 
Q 2194 3503 2194 3750 
Q 2194 3997 2020 4172 
Q 1847 4347 1600 4347 
z
M 1600 4750 
Q 1800 4750 1984 4673 
Q 2169 4597 2303 4453 
Q 2447 4313 2519 4134 
Q 2591 3956 2591 3750 
Q 2591 3338 2302 3052 
Q 2013 2766 1594 2766 
Q 1172 2766 890 3047 
Q 609 3328 609 3750 
Q 609 4169 896 4459 
Q 1184 4750 1600 4750 
z
" transform="scale(0.015625)"/>
    </defs>
    <use xlink:href="#DejaVuSans-77"/>
    <use xlink:href="#DejaVuSans-69" x="81.787109"/>
    <use xlink:href="#DejaVuSans-74" x="109.570312"/>
    <use xlink:href="#DejaVuSans-68" x="148.779297"/>
    <use xlink:href="#DejaVuSans-6f" x="212.158203"/>
    <use xlink:href="#DejaVuSans-75" x="273.339844"/>
    <use xlink:href="#DejaVuSans-74" x="336.71875"/>
    <use xlink:href="#DejaVuSans-20" x="375.927734"/>
    <use xlink:href="#DejaVuSans-45" x="407.714844"/>
    <use xlink:href="#DejaVuSans-43" x="470.898438"/>
    <use xlink:href="#DejaVuSans-20" x="540.722656"/>
    <use xlink:href="#DejaVuSans-6f" x="572.509766"/>
    <use xlink:href="#DejaVuSans-75" x="633.691406"/>
    <use xlink:href="#DejaVuSans-74" x="697.070312"/>
    <use xlink:href="#DejaVuSans-70" x="736.279297"/>
    <use xlink:href="#DejaVuSans-75" x="799.755859"/>
    <use xlink:href="#DejaVuSans-74" x="863.134766"/>
    <use xlink:href="#DejaVuSans-20" x="902.34375"/>
    <use xlink:href="#DejaVuSans-394" x="934.130859"/>
    <use xlink:href="#DejaVuSans-3b8" x="1002.539062"/>
    <use xlink:href="#DejaVuSans-20" x="1063.720703"/>
    <use xlink:href="#DejaVuSans-3d" x="1095.507812"/>
    <use xlink:href="#DejaVuSans-20" x="1179.296875"/>
    <use xlink:href="#DejaVuSans-31" x="1211.083984"/>
    <use xlink:href="#DejaVuSans-38" x="1274.707031"/>
    <use xlink:href="#DejaVuSans-30" x="1338.330078"/>
    <use xlink:href="#DejaVuSans-b0" x="1401.953125"/>
   </g>
  </g>
  <g id="legend_1">
   <g id="line2d_35">
    <path d="M 1143.84 167.0725 
L 1159.84 167.0725 
L 1175.84 167.0725 
" style="fill: none; stroke: #0000ff; stroke-width: 4; stroke-linecap: square"/>
   </g>
   <g id="text_19">
    <!-- Left side -->
    <g transform="translate(1188.64 172.6725) scale(0.16 -0.16)">
     <defs>
      <path id="DejaVuSans-66" d="M 2375 4863 
L 2375 4384 
L 1825 4384 
Q 1516 4384 1395 4259 
Q 1275 4134 1275 3809 
L 1275 3500 
L 2222 3500 
L 2222 3053 
L 1275 3053 
L 1275 0 
L 697 0 
L 697 3053 
L 147 3053 
L 147 3500 
L 697 3500 
L 697 3744 
Q 697 4328 969 4595 
Q 1241 4863 1831 4863 
L 2375 4863 
z
" transform="scale(0.015625)"/>
      <path id="DejaVuSans-64" d="M 2906 2969 
L 2906 4863 
L 3481 4863 
L 3481 0 
L 2906 0 
L 2906 525 
Q 2725 213 2448 61 
Q 2172 -91 1784 -91 
Q 1150 -91 751 415 
Q 353 922 353 1747 
Q 353 2572 751 3078 
Q 1150 3584 1784 3584 
Q 2172 3584 2448 3432 
Q 2725 3281 2906 2969 
z
M 947 1747 
Q 947 1113 1208 752 
Q 1469 391 1925 391 
Q 2381 391 2643 752 
Q 2906 1113 2906 1747 
Q 2906 2381 2643 2742 
Q 2381 3103 1925 3103 
Q 1469 3103 1208 2742 
Q 947 2381 947 1747 
z
" transform="scale(0.015625)"/>
     </defs>
     <use xlink:href="#DejaVuSans-4c"/>
     <use xlink:href="#DejaVuSans-65" x="53.962891"/>
     <use xlink:href="#DejaVuSans-66" x="115.486328"/>
     <use xlink:href="#DejaVuSans-74" x="148.941406"/>
     <use xlink:href="#DejaVuSans-20" x="188.150391"/>
     <use xlink:href="#DejaVuSans-73" x="219.9375"/>
     <use xlink:href="#DejaVuSans-69" x="272.037109"/>
     <use xlink:href="#DejaVuSans-64" x="299.820312"/>
     <use xlink:href="#DejaVuSans-65" x="363.296875"/>
    </g>
   </g>
   <g id="line2d_36">
    <path d="M 1143.84 190.5575 
L 1159.84 190.5575 
L 1175.84 190.5575 
" style="fill: none; stroke: #ff0000; stroke-width: 4; stroke-linecap: square"/>
   </g>
   <g id="text_20">
    <!-- Right side -->
    <g transform="translate(1188.64 196.1575) scale(0.16 -0.16)">
     <defs>
      <path id="DejaVuSans-52" d="M 2841 2188 
Q 3044 2119 3236 1894 
Q 3428 1669 3622 1275 
L 4263 0 
L 3584 0 
L 2988 1197 
Q 2756 1666 2539 1819 
Q 2322 1972 1947 1972 
L 1259 1972 
L 1259 0 
L 628 0 
L 628 4666 
L 2053 4666 
Q 2853 4666 3247 4331 
Q 3641 3997 3641 3322 
Q 3641 2881 3436 2590 
Q 3231 2300 2841 2188 
z
M 1259 4147 
L 1259 2491 
L 2053 2491 
Q 2509 2491 2742 2702 
Q 2975 2913 2975 3322 
Q 2975 3731 2742 3939 
Q 2509 4147 2053 4147 
L 1259 4147 
z
" transform="scale(0.015625)"/>
     </defs>
     <use xlink:href="#DejaVuSans-52"/>
     <use xlink:href="#DejaVuSans-69" x="69.482422"/>
     <use xlink:href="#DejaVuSans-67" x="97.265625"/>
     <use xlink:href="#DejaVuSans-68" x="160.742188"/>
     <use xlink:href="#DejaVuSans-74" x="224.121094"/>
     <use xlink:href="#DejaVuSans-20" x="263.330078"/>
     <use xlink:href="#DejaVuSans-73" x="295.117188"/>
     <use xlink:href="#DejaVuSans-69" x="347.216797"/>
     <use xlink:href="#DejaVuSans-64" x="375"/>
     <use xlink:href="#DejaVuSans-65" x="438.476562"/>
    </g>
   </g>
  </g>
 </g>
 <defs>
  <clipPath id="p5fd66be60a">
   <rect x="71.56" y="77.28" width="246.71" height="183.98"/>
  </clipPath>
  <clipPath id="p96c71d6f73">
   <rect x="329.07" y="77.28" width="246.71" height="183.98"/>
  </clipPath>
  <clipPath id="p2d5070fd56">
   <rect x="586.58" y="77.28" width="246.71" height="183.98"/>
  </clipPath>
  <clipPath id="p5dc8ebd50c">
   <rect x="844.09" y="77.28" width="246.71" height="183.98"/>
  </clipPath>
 </defs>
</svg>
