<?xml version="1.0" encoding="utf-8" standalone="no"?>
<!DOCTYPE svg PUBLIC "-//W3C//DTD SVG 1.1//EN"
  "http://www.w3.org/Graphics/SVG/1.1/DTD/svg11.dtd">
<svg xmlns:xlink="http://www.w3.org/1999/xlink" width="1296pt" height="360pt" viewBox="0 0 1296 360" xmlns="http://www.w3.org/2000/svg" version="1.1">
 <metadata>
  <rdf:RDF xmlns:dc="http://purl.org/dc/elements/1.1/" xmlns:cc="http://creativecommons.org/ns#" xmlns:rdf="http://www.w3.org/1999/02/22-rdf-syntax-ns#">
   <cc:Work>
    <dc:type rdf:resource="http://purl.org/dc/dcmitype/StillImage"/>
    <dc:date>2025-06-03T14:47:38.159158</dc:date>
    <dc:format>image/svg+xml</dc:format>
    <dc:creator>
     <cc:Agent>
      <dc:title>Matplotlib v3.7.1, https://matplotlib.org/</dc:title>
     </cc:Agent>
    </dc:creator>
   </cc:Work>
  </rdf:RDF>
 </metadata>
 <defs>
  <style type="text/css">*{stroke-linejoin: round; stroke-linecap: butt}</style>
 </defs>
 <g id="figure_1">
  <g id="patch_1">
   <path d="M 0 360 
L 1296 360 
L 1296 0 
L 0 0 
z
" style="fill: #ffffff"/>
  </g>
  <g id="axes_1">
   <g id="patch_2">
    <path d="M 71.56 261.26 
L 318.27 261.26 
L 318.27 77.28 
L 71.56 77.28 
z
" style="fill: #ffffff"/>
   </g>
   <g id="matplotlib.axis_1">
    <g id="xtick_1">
     <g id="line2d_1">
      <defs>
       <path id="m8dcc75beca" d="M 0 0 
L 0 7 
" style="stroke: #000000; stroke-width: 3"/>
      </defs>
      <g>
       <use xlink:href="#m8dcc75beca" x="82.774091" y="261.26" style="stroke: #000000; stroke-width: 3"/>
      </g>
     </g>
     <g id="text_1">
      <!-- 0 -->
      <g transform="translate(77.684091 283.9175) scale(0.16 -0.16)">
       <defs>
        <path id="DejaVuSans-30" d="M 2034 4250 
Q 1547 4250 1301 3770 
Q 1056 3291 1056 2328 
Q 1056 1369 1301 889 
Q 1547 409 2034 409 
Q 2525 409 2770 889 
Q 3016 1369 3016 2328 
Q 3016 3291 2770 3770 
Q 2525 4250 2034 4250 
z
M 2034 4750 
Q 2819 4750 3233 4129 
Q 3647 3509 3647 2328 
Q 3647 1150 3233 529 
Q 2819 -91 2034 -91 
Q 1250 -91 836 529 
Q 422 1150 422 2328 
Q 422 3509 836 4129 
Q 1250 4750 2034 4750 
z
" transform="scale(0.015625)"/>
       </defs>
       <use xlink:href="#DejaVuSans-30"/>
      </g>
     </g>
    </g>
    <g id="xtick_2">
     <g id="line2d_2">
      <g>
       <use xlink:href="#m8dcc75beca" x="138.851555" y="261.26" style="stroke: #000000; stroke-width: 3"/>
      </g>
     </g>
     <g id="text_2">
      <!-- 200 -->
      <g transform="translate(123.581555 283.9175) scale(0.16 -0.16)">
       <defs>
        <path id="DejaVuSans-32" d="M 1228 531 
L 3431 531 
L 3431 0 
L 469 0 
L 469 531 
Q 828 903 1448 1529 
Q 2069 2156 2228 2338 
Q 2531 2678 2651 2914 
Q 2772 3150 2772 3378 
Q 2772 3750 2511 3984 
Q 2250 4219 1831 4219 
Q 1534 4219 1204 4116 
Q 875 4013 500 3803 
L 500 4441 
Q 881 4594 1212 4672 
Q 1544 4750 1819 4750 
Q 2544 4750 2975 4387 
Q 3406 4025 3406 3419 
Q 3406 3131 3298 2873 
Q 3191 2616 2906 2266 
Q 2828 2175 2409 1742 
Q 1991 1309 1228 531 
z
" transform="scale(0.015625)"/>
       </defs>
       <use xlink:href="#DejaVuSans-32"/>
       <use xlink:href="#DejaVuSans-30" x="63.623047"/>
       <use xlink:href="#DejaVuSans-30" x="127.246094"/>
      </g>
     </g>
    </g>
    <g id="xtick_3">
     <g id="line2d_3">
      <g>
       <use xlink:href="#m8dcc75beca" x="194.929019" y="261.26" style="stroke: #000000; stroke-width: 3"/>
      </g>
     </g>
     <g id="text_3">
      <!-- 400 -->
      <g transform="translate(179.659019 283.9175) scale(0.16 -0.16)">
       <defs>
        <path id="DejaVuSans-34" d="M 2419 4116 
L 825 1625 
L 2419 1625 
L 2419 4116 
z
M 2253 4666 
L 3047 4666 
L 3047 1625 
L 3713 1625 
L 3713 1100 
L 3047 1100 
L 3047 0 
L 2419 0 
L 2419 1100 
L 313 1100 
L 313 1709 
L 2253 4666 
z
" transform="scale(0.015625)"/>
       </defs>
       <use xlink:href="#DejaVuSans-34"/>
       <use xlink:href="#DejaVuSans-30" x="63.623047"/>
       <use xlink:href="#DejaVuSans-30" x="127.246094"/>
      </g>
     </g>
    </g>
    <g id="xtick_4">
     <g id="line2d_4">
      <g>
       <use xlink:href="#m8dcc75beca" x="251.006484" y="261.26" style="stroke: #000000; stroke-width: 3"/>
      </g>
     </g>
     <g id="text_4">
      <!-- 600 -->
      <g transform="translate(235.736484 283.9175) scale(0.16 -0.16)">
       <defs>
        <path id="DejaVuSans-36" d="M 2113 2584 
Q 1688 2584 1439 2293 
Q 1191 2003 1191 1497 
Q 1191 994 1439 701 
Q 1688 409 2113 409 
Q 2538 409 2786 701 
Q 3034 994 3034 1497 
Q 3034 2003 2786 2293 
Q 2538 2584 2113 2584 
z
M 3366 4563 
L 3366 3988 
Q 3128 4100 2886 4159 
Q 2644 4219 2406 4219 
Q 1781 4219 1451 3797 
Q 1122 3375 1075 2522 
Q 1259 2794 1537 2939 
Q 1816 3084 2150 3084 
Q 2853 3084 3261 2657 
Q 3669 2231 3669 1497 
Q 3669 778 3244 343 
Q 2819 -91 2113 -91 
Q 1303 -91 875 529 
Q 447 1150 447 2328 
Q 447 3434 972 4092 
Q 1497 4750 2381 4750 
Q 2619 4750 2861 4703 
Q 3103 4656 3366 4563 
z
" transform="scale(0.015625)"/>
       </defs>
       <use xlink:href="#DejaVuSans-36"/>
       <use xlink:href="#DejaVuSans-30" x="63.623047"/>
       <use xlink:href="#DejaVuSans-30" x="127.246094"/>
      </g>
     </g>
    </g>
    <g id="xtick_5">
     <g id="line2d_5">
      <g>
       <use xlink:href="#m8dcc75beca" x="307.083948" y="261.26" style="stroke: #000000; stroke-width: 3"/>
      </g>
     </g>
     <g id="text_5">
      <!-- 800 -->
      <g transform="translate(291.813948 283.9175) scale(0.16 -0.16)">
       <defs>
        <path id="DejaVuSans-38" d="M 2034 2216 
Q 1584 2216 1326 1975 
Q 1069 1734 1069 1313 
Q 1069 891 1326 650 
Q 1584 409 2034 409 
Q 2484 409 2743 651 
Q 3003 894 3003 1313 
Q 3003 1734 2745 1975 
Q 2488 2216 2034 2216 
z
M 1403 2484 
Q 997 2584 770 2862 
Q 544 3141 544 3541 
Q 544 4100 942 4425 
Q 1341 4750 2034 4750 
Q 2731 4750 3128 4425 
Q 3525 4100 3525 3541 
Q 3525 3141 3298 2862 
Q 3072 2584 2669 2484 
Q 3125 2378 3379 2068 
Q 3634 1759 3634 1313 
Q 3634 634 3220 271 
Q 2806 -91 2034 -91 
Q 1263 -91 848 271 
Q 434 634 434 1313 
Q 434 1759 690 2068 
Q 947 2378 1403 2484 
z
M 1172 3481 
Q 1172 3119 1398 2916 
Q 1625 2713 2034 2713 
Q 2441 2713 2670 2916 
Q 2900 3119 2900 3481 
Q 2900 3844 2670 4047 
Q 2441 4250 2034 4250 
Q 1625 4250 1398 4047 
Q 1172 3844 1172 3481 
z
" transform="scale(0.015625)"/>
       </defs>
       <use xlink:href="#DejaVuSans-38"/>
       <use xlink:href="#DejaVuSans-30" x="63.623047"/>
       <use xlink:href="#DejaVuSans-30" x="127.246094"/>
      </g>
     </g>
    </g>
    <g id="text_6">
     <!-- Time (ms) -->
     <g transform="translate(139.476719 307.961562) scale(0.22 -0.22)">
      <defs>
       <path id="DejaVuSans-54" d="M -19 4666 
L 3928 4666 
L 3928 4134 
L 2272 4134 
L 2272 0 
L 1638 0 
L 1638 4134 
L -19 4134 
L -19 4666 
z
" transform="scale(0.015625)"/>
       <path id="DejaVuSans-69" d="M 603 3500 
L 1178 3500 
L 1178 0 
L 603 0 
L 603 3500 
z
M 603 4863 
L 1178 4863 
L 1178 4134 
L 603 4134 
L 603 4863 
z
" transform="scale(0.015625)"/>
       <path id="DejaVuSans-6d" d="M 3328 2828 
Q 3544 3216 3844 3400 
Q 4144 3584 4550 3584 
Q 5097 3584 5394 3201 
Q 5691 2819 5691 2113 
L 5691 0 
L 5113 0 
L 5113 2094 
Q 5113 2597 4934 2840 
Q 4756 3084 4391 3084 
Q 3944 3084 3684 2787 
Q 3425 2491 3425 1978 
L 3425 0 
L 2847 0 
L 2847 2094 
Q 2847 2600 2669 2842 
Q 2491 3084 2119 3084 
Q 1678 3084 1418 2786 
Q 1159 2488 1159 1978 
L 1159 0 
L 581 0 
L 581 3500 
L 1159 3500 
L 1159 2956 
Q 1356 3278 1631 3431 
Q 1906 3584 2284 3584 
Q 2666 3584 2933 3390 
Q 3200 3197 3328 2828 
z
" transform="scale(0.015625)"/>
       <path id="DejaVuSans-65" d="M 3597 1894 
L 3597 1613 
L 953 1613 
Q 991 1019 1311 708 
Q 1631 397 2203 397 
Q 2534 397 2845 478 
Q 3156 559 3463 722 
L 3463 178 
Q 3153 47 2828 -22 
Q 2503 -91 2169 -91 
Q 1331 -91 842 396 
Q 353 884 353 1716 
Q 353 2575 817 3079 
Q 1281 3584 2069 3584 
Q 2775 3584 3186 3129 
Q 3597 2675 3597 1894 
z
M 3022 2063 
Q 3016 2534 2758 2815 
Q 2500 3097 2075 3097 
Q 1594 3097 1305 2825 
Q 1016 2553 972 2059 
L 3022 2063 
z
" transform="scale(0.015625)"/>
       <path id="DejaVuSans-20" transform="scale(0.015625)"/>
       <path id="DejaVuSans-28" d="M 1984 4856 
Q 1566 4138 1362 3434 
Q 1159 2731 1159 2009 
Q 1159 1288 1364 580 
Q 1569 -128 1984 -844 
L 1484 -844 
Q 1016 -109 783 600 
Q 550 1309 550 2009 
Q 550 2706 781 3412 
Q 1013 4119 1484 4856 
L 1984 4856 
z
" transform="scale(0.015625)"/>
       <path id="DejaVuSans-73" d="M 2834 3397 
L 2834 2853 
Q 2591 2978 2328 3040 
Q 2066 3103 1784 3103 
Q 1356 3103 1142 2972 
Q 928 2841 928 2578 
Q 928 2378 1081 2264 
Q 1234 2150 1697 2047 
L 1894 2003 
Q 2506 1872 2764 1633 
Q 3022 1394 3022 966 
Q 3022 478 2636 193 
Q 2250 -91 1575 -91 
Q 1294 -91 989 -36 
Q 684 19 347 128 
L 347 722 
Q 666 556 975 473 
Q 1284 391 1588 391 
Q 1994 391 2212 530 
Q 2431 669 2431 922 
Q 2431 1156 2273 1281 
Q 2116 1406 1581 1522 
L 1381 1569 
Q 847 1681 609 1914 
Q 372 2147 372 2553 
Q 372 3047 722 3315 
Q 1072 3584 1716 3584 
Q 2034 3584 2315 3537 
Q 2597 3491 2834 3397 
z
" transform="scale(0.015625)"/>
       <path id="DejaVuSans-29" d="M 513 4856 
L 1013 4856 
Q 1481 4119 1714 3412 
Q 1947 2706 1947 2009 
Q 1947 1309 1714 600 
Q 1481 -109 1013 -844 
L 513 -844 
Q 928 -128 1133 580 
Q 1338 1288 1338 2009 
Q 1338 2731 1133 3434 
Q 928 4138 513 4856 
z
" transform="scale(0.015625)"/>
      </defs>
      <use xlink:href="#DejaVuSans-54"/>
      <use xlink:href="#DejaVuSans-69" x="57.958984"/>
      <use xlink:href="#DejaVuSans-6d" x="85.742188"/>
      <use xlink:href="#DejaVuSans-65" x="183.154297"/>
      <use xlink:href="#DejaVuSans-20" x="244.677734"/>
      <use xlink:href="#DejaVuSans-28" x="276.464844"/>
      <use xlink:href="#DejaVuSans-6d" x="315.478516"/>
      <use xlink:href="#DejaVuSans-73" x="412.890625"/>
      <use xlink:href="#DejaVuSans-29" x="464.990234"/>
     </g>
    </g>
   </g>
   <g id="matplotlib.axis_2">
    <g id="ytick_1">
     <g id="line2d_6">
      <defs>
       <path id="mb6f22ef8e6" d="M 0 0 
L -7 0 
" style="stroke: #000000; stroke-width: 3"/>
      </defs>
      <g>
       <use xlink:href="#mb6f22ef8e6" x="71.56" y="261.26" style="stroke: #000000; stroke-width: 3"/>
      </g>
     </g>
     <g id="text_7">
      <!-- 0.0 -->
      <g transform="translate(35.615 267.33875) scale(0.16 -0.16)">
       <defs>
        <path id="DejaVuSans-2e" d="M 684 794 
L 1344 794 
L 1344 0 
L 684 0 
L 684 794 
z
" transform="scale(0.015625)"/>
       </defs>
       <use xlink:href="#DejaVuSans-30"/>
       <use xlink:href="#DejaVuSans-2e" x="63.623047"/>
       <use xlink:href="#DejaVuSans-30" x="95.410156"/>
      </g>
     </g>
    </g>
    <g id="ytick_2">
     <g id="line2d_7">
      <g>
       <use xlink:href="#mb6f22ef8e6" x="71.56" y="224.464" style="stroke: #000000; stroke-width: 3"/>
      </g>
     </g>
     <g id="text_8">
      <!-- 0.2 -->
      <g transform="translate(35.615 230.54275) scale(0.16 -0.16)">
       <use xlink:href="#DejaVuSans-30"/>
       <use xlink:href="#DejaVuSans-2e" x="63.623047"/>
       <use xlink:href="#DejaVuSans-32" x="95.410156"/>
      </g>
     </g>
    </g>
    <g id="ytick_3">
     <g id="line2d_8">
      <g>
       <use xlink:href="#mb6f22ef8e6" x="71.56" y="187.668" style="stroke: #000000; stroke-width: 3"/>
      </g>
     </g>
     <g id="text_9">
      <!-- 0.4 -->
      <g transform="translate(35.615 193.74675) scale(0.16 -0.16)">
       <use xlink:href="#DejaVuSans-30"/>
       <use xlink:href="#DejaVuSans-2e" x="63.623047"/>
       <use xlink:href="#DejaVuSans-34" x="95.410156"/>
      </g>
     </g>
    </g>
    <g id="ytick_4">
     <g id="line2d_9">
      <g>
       <use xlink:href="#mb6f22ef8e6" x="71.56" y="150.872" style="stroke: #000000; stroke-width: 3"/>
      </g>
     </g>
     <g id="text_10">
      <!-- 0.6 -->
      <g transform="translate(35.615 156.95075) scale(0.16 -0.16)">
       <use xlink:href="#DejaVuSans-30"/>
       <use xlink:href="#DejaVuSans-2e" x="63.623047"/>
       <use xlink:href="#DejaVuSans-36" x="95.410156"/>
      </g>
     </g>
    </g>
    <g id="ytick_5">
     <g id="line2d_10">
      <g>
       <use xlink:href="#mb6f22ef8e6" x="71.56" y="114.076" style="stroke: #000000; stroke-width: 3"/>
      </g>
     </g>
     <g id="text_11">
      <!-- 0.8 -->
      <g transform="translate(35.615 120.15475) scale(0.16 -0.16)">
       <use xlink:href="#DejaVuSans-30"/>
       <use xlink:href="#DejaVuSans-2e" x="63.623047"/>
       <use xlink:href="#DejaVuSans-38" x="95.410156"/>
      </g>
     </g>
    </g>
    <g id="ytick_6">
     <g id="line2d_11">
      <g>
       <use xlink:href="#mb6f22ef8e6" x="71.56" y="77.28" style="stroke: #000000; stroke-width: 3"/>
      </g>
     </g>
     <g id="text_12">
      <!-- 1.0 -->
      <g transform="translate(35.615 83.35875) scale(0.16 -0.16)">
       <defs>
        <path id="DejaVuSans-31" d="M 794 531 
L 1825 531 
L 1825 4091 
L 703 3866 
L 703 4441 
L 1819 4666 
L 2450 4666 
L 2450 531 
L 3481 531 
L 3481 0 
L 794 0 
L 794 531 
z
" transform="scale(0.015625)"/>
       </defs>
       <use xlink:href="#DejaVuSans-31"/>
       <use xlink:href="#DejaVuSans-2e" x="63.623047"/>
       <use xlink:href="#DejaVuSans-30" x="95.410156"/>
      </g>
     </g>
    </g>
    <g id="text_13">
     <!-- Firing rate -->
     <g transform="translate(27.039687 225.227344) rotate(-90) scale(0.22 -0.22)">
      <defs>
       <path id="DejaVuSans-46" d="M 628 4666 
L 3309 4666 
L 3309 4134 
L 1259 4134 
L 1259 2759 
L 3109 2759 
L 3109 2228 
L 1259 2228 
L 1259 0 
L 628 0 
L 628 4666 
z
" transform="scale(0.015625)"/>
       <path id="DejaVuSans-72" d="M 2631 2963 
Q 2534 3019 2420 3045 
Q 2306 3072 2169 3072 
Q 1681 3072 1420 2755 
Q 1159 2438 1159 1844 
L 1159 0 
L 581 0 
L 581 3500 
L 1159 3500 
L 1159 2956 
Q 1341 3275 1631 3429 
Q 1922 3584 2338 3584 
Q 2397 3584 2469 3576 
Q 2541 3569 2628 3553 
L 2631 2963 
z
" transform="scale(0.015625)"/>
       <path id="DejaVuSans-6e" d="M 3513 2113 
L 3513 0 
L 2938 0 
L 2938 2094 
Q 2938 2591 2744 2837 
Q 2550 3084 2163 3084 
Q 1697 3084 1428 2787 
Q 1159 2491 1159 1978 
L 1159 0 
L 581 0 
L 581 3500 
L 1159 3500 
L 1159 2956 
Q 1366 3272 1645 3428 
Q 1925 3584 2291 3584 
Q 2894 3584 3203 3211 
Q 3513 2838 3513 2113 
z
" transform="scale(0.015625)"/>
       <path id="DejaVuSans-67" d="M 2906 1791 
Q 2906 2416 2648 2759 
Q 2391 3103 1925 3103 
Q 1463 3103 1205 2759 
Q 947 2416 947 1791 
Q 947 1169 1205 825 
Q 1463 481 1925 481 
Q 2391 481 2648 825 
Q 2906 1169 2906 1791 
z
M 3481 434 
Q 3481 -459 3084 -895 
Q 2688 -1331 1869 -1331 
Q 1566 -1331 1297 -1286 
Q 1028 -1241 775 -1147 
L 775 -588 
Q 1028 -725 1275 -790 
Q 1522 -856 1778 -856 
Q 2344 -856 2625 -561 
Q 2906 -266 2906 331 
L 2906 616 
Q 2728 306 2450 153 
Q 2172 0 1784 0 
Q 1141 0 747 490 
Q 353 981 353 1791 
Q 353 2603 747 3093 
Q 1141 3584 1784 3584 
Q 2172 3584 2450 3431 
Q 2728 3278 2906 2969 
L 2906 3500 
L 3481 3500 
L 3481 434 
z
" transform="scale(0.015625)"/>
       <path id="DejaVuSans-61" d="M 2194 1759 
Q 1497 1759 1228 1600 
Q 959 1441 959 1056 
Q 959 750 1161 570 
Q 1363 391 1709 391 
Q 2188 391 2477 730 
Q 2766 1069 2766 1631 
L 2766 1759 
L 2194 1759 
z
M 3341 1997 
L 3341 0 
L 2766 0 
L 2766 531 
Q 2569 213 2275 61 
Q 1981 -91 1556 -91 
Q 1019 -91 701 211 
Q 384 513 384 1019 
Q 384 1609 779 1909 
Q 1175 2209 1959 2209 
L 2766 2209 
L 2766 2266 
Q 2766 2663 2505 2880 
Q 2244 3097 1772 3097 
Q 1472 3097 1187 3025 
Q 903 2953 641 2809 
L 641 3341 
Q 956 3463 1253 3523 
Q 1550 3584 1831 3584 
Q 2591 3584 2966 3190 
Q 3341 2797 3341 1997 
z
" transform="scale(0.015625)"/>
       <path id="DejaVuSans-74" d="M 1172 4494 
L 1172 3500 
L 2356 3500 
L 2356 3053 
L 1172 3053 
L 1172 1153 
Q 1172 725 1289 603 
Q 1406 481 1766 481 
L 2356 481 
L 2356 0 
L 1766 0 
Q 1100 0 847 248 
Q 594 497 594 1153 
L 594 3053 
L 172 3053 
L 172 3500 
L 594 3500 
L 594 4494 
L 1172 4494 
z
" transform="scale(0.015625)"/>
      </defs>
      <use xlink:href="#DejaVuSans-46"/>
      <use xlink:href="#DejaVuSans-69" x="50.269531"/>
      <use xlink:href="#DejaVuSans-72" x="78.052734"/>
      <use xlink:href="#DejaVuSans-69" x="119.166016"/>
      <use xlink:href="#DejaVuSans-6e" x="146.949219"/>
      <use xlink:href="#DejaVuSans-67" x="210.328125"/>
      <use xlink:href="#DejaVuSans-20" x="273.804688"/>
      <use xlink:href="#DejaVuSans-72" x="305.591797"/>
      <use xlink:href="#DejaVuSans-61" x="346.705078"/>
      <use xlink:href="#DejaVuSans-74" x="407.984375"/>
      <use xlink:href="#DejaVuSans-65" x="447.193359"/>
     </g>
    </g>
   </g>
   <g id="line2d_12">
    <path d="M 82.774091 261.26 
L 84.680725 260.541249 
L 86.923823 259.944405 
L 90.456704 259.348762 
L 94.410165 258.876152 
L 97.522464 258.509219 
L 103.466675 257.614429 
L 106.438781 256.883192 
L 112.074566 255.204568 
L 115.607446 253.8798 
L 119.252481 251.922969 
L 121.49558 250.198169 
L 124.607879 247.530259 
L 125.981777 246.502366 
L 126.991171 245.687624 
L 130.075432 242.885232 
L 131.393252 241.620522 
L 134.197126 238.830182 
L 135.010249 237.670472 
L 136.159837 235.741373 
L 137.561773 232.750193 
L 138.767439 229.518157 
L 141.487196 221.466712 
L 142.552668 217.866895 
L 143.814411 212.635726 
L 145.496735 204.122455 
L 146.814555 196.221541 
L 151.188597 166.932765 
L 153.263463 151.772258 
L 157.805738 117.242062 
L 159.039442 110.389505 
L 160.18903 105.297956 
L 161.170386 101.895986 
L 162.263896 98.869869 
L 163.385446 96.453894 
L 164.422879 94.710894 
L 165.712661 93.058671 
L 167.142636 91.510822 
L 169.497889 89.433438 
L 173.367234 86.187309 
L 177.264618 83.492984 
L 178.862826 82.667743 
L 180.825537 81.943935 
L 184.049991 80.994105 
L 187.274445 80.275475 
L 190.947519 79.783179 
L 194.284129 79.616395 
L 197.003886 79.424604 
L 204.041607 78.782878 
L 207.686642 78.759981 
L 225.911818 79.123138 
L 238.501209 78.844036 
L 243.800529 78.780735 
L 250.585903 78.535619 
L 261.324737 78.360715 
L 276.465652 78.450588 
L 284.961388 78.526102 
L 295.924532 78.593681 
L 307.055909 78.666003 
L 307.055909 78.666003 
" clip-path="url(#p0924f4447b)" style="fill: none; stroke: #0000ff; stroke-width: 4; stroke-linecap: square"/>
   </g>
   <g id="line2d_13">
    <path d="M 82.774091 261.26 
L 84.820918 260.481173 
L 87.120094 259.836417 
L 89.559464 259.401621 
L 102.681591 257.591797 
L 108.261298 256.18282 
L 112.467108 254.716744 
L 114.990594 253.639218 
L 120.149721 250.978385 
L 121.860083 249.847329 
L 123.26202 248.770635 
L 124.607879 247.490982 
L 126.178048 245.724005 
L 128.028605 243.708535 
L 129.290347 242.341466 
L 131.365214 239.57085 
L 133.327925 236.547781 
L 134.449474 234.416317 
L 136.271992 230.284148 
L 137.337464 227.413545 
L 138.7394 222.596721 
L 140.225453 216.735766 
L 146.169664 191.498025 
L 148.048259 182.068921 
L 149.59039 173.106805 
L 153.067192 151.385426 
L 155.506562 136.82645 
L 157.693583 125.985079 
L 160.273146 114.393641 
L 162.796632 104.383988 
L 164.478956 98.805681 
L 165.712661 95.494578 
L 166.806171 93.10915 
L 167.983798 91.076216 
L 169.385734 89.087845 
L 170.927865 87.332532 
L 172.329801 86.064138 
L 174.236435 84.642908 
L 176.56365 83.30894 
L 179.00302 82.247583 
L 181.470428 81.45044 
L 184.246262 80.945052 
L 189.265195 80.2287 
L 194.452361 79.331538 
L 197.284273 79.132476 
L 208.724076 78.87747 
L 215.649642 78.795899 
L 222.575209 78.444548 
L 239.230216 78.498139 
L 246.800674 78.54305 
L 262.081783 78.449598 
L 278.652673 78.458447 
L 284.624923 78.385355 
L 295.503951 78.259095 
L 302.205208 78.217516 
L 307.055909 78.294186 
L 307.055909 78.294186 
" clip-path="url(#p0924f4447b)" style="fill: none; stroke: #ff0000; stroke-width: 4; stroke-linecap: square"/>
   </g>
   <g id="patch_3">
    <path d="M 71.56 261.26 
L 71.56 77.28 
" style="fill: none; stroke: #000000; stroke-width: 3; stroke-linejoin: miter; stroke-linecap: square"/>
   </g>
   <g id="patch_4">
    <path d="M 71.56 261.26 
L 318.27 261.26 
" style="fill: none; stroke: #000000; stroke-width: 3; stroke-linejoin: miter; stroke-linecap: square"/>
   </g>
   <g id="text_14">
    <!-- DNa02 -->
    <g transform="translate(154.07375 71.28) scale(0.24 -0.24)">
     <defs>
      <path id="DejaVuSans-44" d="M 1259 4147 
L 1259 519 
L 2022 519 
Q 2988 519 3436 956 
Q 3884 1394 3884 2338 
Q 3884 3275 3436 3711 
Q 2988 4147 2022 4147 
L 1259 4147 
z
M 628 4666 
L 1925 4666 
Q 3281 4666 3915 4102 
Q 4550 3538 4550 2338 
Q 4550 1131 3912 565 
Q 3275 0 1925 0 
L 628 0 
L 628 4666 
z
" transform="scale(0.015625)"/>
      <path id="DejaVuSans-4e" d="M 628 4666 
L 1478 4666 
L 3547 763 
L 3547 4666 
L 4159 4666 
L 4159 0 
L 3309 0 
L 1241 3903 
L 1241 0 
L 628 0 
L 628 4666 
z
" transform="scale(0.015625)"/>
     </defs>
     <use xlink:href="#DejaVuSans-44"/>
     <use xlink:href="#DejaVuSans-4e" x="77.001953"/>
     <use xlink:href="#DejaVuSans-61" x="151.806641"/>
     <use xlink:href="#DejaVuSans-30" x="213.085938"/>
     <use xlink:href="#DejaVuSans-32" x="276.708984"/>
    </g>
   </g>
  </g>
  <g id="axes_2">
   <g id="patch_5">
    <path d="M 329.07 261.26 
L 575.78 261.26 
L 575.78 77.28 
L 329.07 77.28 
z
" style="fill: #ffffff"/>
   </g>
   <g id="matplotlib.axis_3">
    <g id="xtick_6">
     <g id="line2d_14">
      <g>
       <use xlink:href="#m8dcc75beca" x="340.284091" y="261.26" style="stroke: #000000; stroke-width: 3"/>
      </g>
     </g>
    </g>
    <g id="xtick_7">
     <g id="line2d_15">
      <g>
       <use xlink:href="#m8dcc75beca" x="396.361555" y="261.26" style="stroke: #000000; stroke-width: 3"/>
      </g>
     </g>
    </g>
    <g id="xtick_8">
     <g id="line2d_16">
      <g>
       <use xlink:href="#m8dcc75beca" x="452.439019" y="261.26" style="stroke: #000000; stroke-width: 3"/>
      </g>
     </g>
    </g>
    <g id="xtick_9">
     <g id="line2d_17">
      <g>
       <use xlink:href="#m8dcc75beca" x="508.516484" y="261.26" style="stroke: #000000; stroke-width: 3"/>
      </g>
     </g>
    </g>
    <g id="xtick_10">
     <g id="line2d_18">
      <g>
       <use xlink:href="#m8dcc75beca" x="564.593948" y="261.26" style="stroke: #000000; stroke-width: 3"/>
      </g>
     </g>
    </g>
   </g>
   <g id="matplotlib.axis_4"/>
   <g id="line2d_19">
    <path d="M 340.284091 261.26 
L 341.770144 260.321274 
L 343.424429 259.531237 
L 345.106753 258.982936 
L 347.686316 258.37104 
L 350.546267 257.832095 
L 356.238129 256.969345 
L 361.144908 256.023015 
L 363.948781 255.212053 
L 373.734298 251.987416 
L 376.454055 250.734807 
L 377.771876 249.930632 
L 379.958897 248.577929 
L 381.529066 247.599242 
L 382.790809 246.935025 
L 384.725481 246.08448 
L 386.828386 244.958261 
L 392.239862 241.924947 
L 393.781992 240.464325 
L 395.856858 237.875835 
L 397.987802 234.888582 
L 399.614048 232.649072 
L 400.651481 230.767401 
L 401.885185 228.032244 
L 403.455354 224.085953 
L 404.632981 220.613768 
L 408.64252 208.442919 
L 410.240728 202.639918 
L 411.50247 196.954642 
L 413.661453 185.606711 
L 415.315738 176.974787 
L 416.745713 170.907805 
L 418.063534 166.434848 
L 419.129006 163.725567 
L 420.1384 161.615706 
L 421.68053 159.032164 
L 423.643241 156.530737 
L 425.129294 154.441722 
L 426.755541 152.006146 
L 428.32571 148.921596 
L 429.41922 146.750417 
L 432.447403 140.920177 
L 435.61578 134.263714 
L 436.400865 133.162066 
L 438.05515 131.209087 
L 439.064544 129.901755 
L 441.335681 126.687886 
L 442.569386 124.959028 
L 443.999361 123.012982 
L 444.644252 122.310612 
L 446.859312 120.385056 
L 447.588319 120.154314 
L 450.027688 119.714416 
L 452.326864 119.467955 
L 453.420375 118.726011 
L 454.794273 117.114409 
L 458.299114 112.447866 
L 459.084199 111.981467 
L 460.261826 111.557548 
L 463.149815 111.165432 
L 464.243326 111.349856 
L 465.140565 111.612996 
L 466.738773 112.205856 
L 468.925794 113.03538 
L 469.654801 112.966222 
L 471.869861 112.25779 
L 472.711023 112.350374 
L 473.411991 112.677102 
L 474.645695 113.598146 
L 476.440174 115.145837 
L 477.281336 115.739397 
L 478.543079 116.326874 
L 479.496396 116.433553 
L 481.010487 116.147505 
L 482.552618 115.534759 
L 484.459251 114.665123 
L 485.38453 114.578336 
L 486.646273 114.440032 
L 488.861332 113.510278 
L 490.01092 112.893181 
L 492.029709 112.132676 
L 494.244769 112.16203 
L 495.057892 112.29396 
L 497.469223 112.502684 
L 498.674889 112.160724 
L 500.749755 111.413504 
L 504.086364 110.499867 
L 504.927526 109.978283 
L 506.946315 108.842427 
L 508.123941 108.496 
L 509.245491 108.399913 
L 511.376434 108.361279 
L 512.5821 108.145549 
L 515.414012 107.115909 
L 518.498272 106.305097 
L 519.703938 106.30791 
L 520.825487 106.253253 
L 523.797593 105.721979 
L 524.778948 105.612936 
L 526.29304 105.618984 
L 527.106163 105.75452 
L 532.012941 107.342416 
L 533.611149 107.782572 
L 535.657976 108.512738 
L 536.863642 108.888517 
L 538.069307 109.312638 
L 540.060057 109.286745 
L 544.349983 108.335506 
L 548.808142 108.354842 
L 549.621265 108.605921 
L 550.378311 109.130284 
L 551.920441 109.934024 
L 552.873758 110.244738 
L 553.71492 110.328161 
L 555.677631 110.390888 
L 556.827219 110.679713 
L 558.313272 111.053553 
L 559.967557 111.152985 
L 561.790075 111.024557 
L 562.743392 110.92315 
L 563.696708 110.755779 
L 564.565909 110.389152 
L 564.565909 110.389152 
" clip-path="url(#p2cfdfe8779)" style="fill: none; stroke: #0000ff; stroke-width: 4; stroke-linecap: square"/>
   </g>
   <g id="line2d_20">
    <path d="M 340.284091 261.26 
L 341.826221 260.281208 
L 343.732855 259.332914 
L 345.695566 258.680249 
L 347.658277 258.278649 
L 358.677499 256.403261 
L 361.789798 255.481065 
L 363.864665 254.947409 
L 365.575027 254.471069 
L 371.603355 252.31154 
L 378.55696 249.332405 
L 381.501027 247.695682 
L 383.295506 246.323818 
L 385.342333 244.863254 
L 387.164851 243.679328 
L 388.791097 242.357238 
L 391.034196 240.34229 
L 393.557682 237.391094 
L 394.903541 235.567135 
L 397.062523 231.778355 
L 400.118745 226.041654 
L 402.22165 222.460453 
L 403.875935 219.453628 
L 405.782569 215.209846 
L 406.707847 212.689872 
L 408.838791 206.276059 
L 410.128573 202.296532 
L 411.278161 198.510927 
L 412.1754 195.674029 
L 415.540048 186.053101 
L 418.764502 174.774055 
L 422.858157 158.734625 
L 424.288132 154.447888 
L 425.774185 150.962687 
L 427.512587 147.060917 
L 432.587597 137.831499 
L 435.16716 133.891179 
L 436.456942 132.087202 
L 437.718685 130.209895 
L 438.531808 129.167152 
L 440.101977 127.993046 
L 444.391903 125.609027 
L 445.12091 124.879176 
L 446.578924 122.852463 
L 450.364153 117.234686 
L 451.625896 115.762873 
L 452.439019 115.194924 
L 453.448414 114.702106 
L 454.485847 114.585245 
L 455.158776 114.669542 
L 456.672868 115.049931 
L 457.682262 115.102705 
L 458.130882 114.872061 
L 459.364586 113.859022 
L 460.121632 113.365811 
L 461.159065 112.993609 
L 462.000227 112.796088 
L 463.03766 112.621612 
L 464.075093 112.665765 
L 465.448991 112.80894 
L 466.093882 112.912995 
L 467.24347 112.748788 
L 468.000516 112.709768 
L 469.262259 112.700621 
L 470.271653 112.65981 
L 470.944583 112.537855 
L 472.31848 111.830448 
L 473.271797 110.985314 
L 477.19722 107.039864 
L 478.150537 106.559476 
L 478.935621 106.433852 
L 479.496396 106.525945 
L 481.683417 107.002077 
L 484.094748 107.366607 
L 485.076104 107.568252 
L 486.758427 107.669299 
L 487.627628 107.79152 
L 489.954843 108.229965 
L 491.412857 108.184438 
L 492.590484 108.060117 
L 493.263413 107.979891 
L 496.824332 108.185078 
L 497.609417 108.578479 
L 498.983315 109.317484 
L 500.160941 109.497167 
L 500.946026 109.391859 
L 503.301279 108.834721 
L 504.310674 108.687137 
L 505.656533 108.387068 
L 508.852948 107.430158 
L 510.787621 107.024017 
L 511.628783 106.975662 
L 514.320501 107.270778 
L 515.414012 107.349163 
L 516.311251 107.505964 
L 517.068297 107.668516 
L 520.348829 108.162858 
L 521.330184 108.280912 
L 523.573283 108.759236 
L 524.386406 108.95458 
L 525.760304 109.373541 
L 527.723015 109.453837 
L 530.358656 109.344017 
L 531.311973 109.288855 
L 533.470955 108.715555 
L 534.760737 107.915616 
L 535.517783 107.491169 
L 537.648726 106.554907 
L 538.489888 106.397523 
L 539.55536 106.40024 
L 542.891969 106.647871 
L 544.237828 106.6312 
L 545.555649 106.478812 
L 549.677342 106.006091 
L 550.658698 105.472684 
L 551.752209 104.95195 
L 552.621409 104.572188 
L 553.686881 104.17204 
L 555.172934 103.88201 
L 556.79918 104.006642 
L 558.593659 104.047965 
L 561.341455 104.00119 
L 562.294772 104.247221 
L 563.360244 104.760573 
L 564.229444 105.377893 
L 564.565909 105.656109 
L 564.565909 105.656109 
" clip-path="url(#p2cfdfe8779)" style="fill: none; stroke: #ff0000; stroke-width: 4; stroke-linecap: square"/>
   </g>
   <g id="patch_6">
    <path d="M 329.07 261.26 
L 575.78 261.26 
" style="fill: none; stroke: #000000; stroke-width: 3; stroke-linejoin: miter; stroke-linecap: square"/>
   </g>
   <g id="text_15">
    <!-- LAL018 -->
    <g transform="translate(407.66875 71.28) scale(0.24 -0.24)">
     <defs>
      <path id="DejaVuSans-4c" d="M 628 4666 
L 1259 4666 
L 1259 531 
L 3531 531 
L 3531 0 
L 628 0 
L 628 4666 
z
" transform="scale(0.015625)"/>
      <path id="DejaVuSans-41" d="M 2188 4044 
L 1331 1722 
L 3047 1722 
L 2188 4044 
z
M 1831 4666 
L 2547 4666 
L 4325 0 
L 3669 0 
L 3244 1197 
L 1141 1197 
L 716 0 
L 50 0 
L 1831 4666 
z
" transform="scale(0.015625)"/>
     </defs>
     <use xlink:href="#DejaVuSans-4c"/>
     <use xlink:href="#DejaVuSans-41" x="57.962891"/>
     <use xlink:href="#DejaVuSans-4c" x="126.371094"/>
     <use xlink:href="#DejaVuSans-30" x="182.083984"/>
     <use xlink:href="#DejaVuSans-31" x="245.707031"/>
     <use xlink:href="#DejaVuSans-38" x="309.330078"/>
    </g>
   </g>
  </g>
  <g id="axes_3">
   <g id="patch_7">
    <path d="M 586.58 261.26 
L 833.29 261.26 
L 833.29 77.28 
L 586.58 77.28 
z
" style="fill: #ffffff"/>
   </g>
   <g id="matplotlib.axis_5">
    <g id="xtick_11">
     <g id="line2d_21">
      <g>
       <use xlink:href="#m8dcc75beca" x="597.794091" y="261.26" style="stroke: #000000; stroke-width: 3"/>
      </g>
     </g>
    </g>
    <g id="xtick_12">
     <g id="line2d_22">
      <g>
       <use xlink:href="#m8dcc75beca" x="653.871555" y="261.26" style="stroke: #000000; stroke-width: 3"/>
      </g>
     </g>
    </g>
    <g id="xtick_13">
     <g id="line2d_23">
      <g>
       <use xlink:href="#m8dcc75beca" x="709.949019" y="261.26" style="stroke: #000000; stroke-width: 3"/>
      </g>
     </g>
    </g>
    <g id="xtick_14">
     <g id="line2d_24">
      <g>
       <use xlink:href="#m8dcc75beca" x="766.026484" y="261.26" style="stroke: #000000; stroke-width: 3"/>
      </g>
     </g>
    </g>
    <g id="xtick_15">
     <g id="line2d_25">
      <g>
       <use xlink:href="#m8dcc75beca" x="822.103948" y="261.26" style="stroke: #000000; stroke-width: 3"/>
      </g>
     </g>
    </g>
   </g>
   <g id="matplotlib.axis_6"/>
   <g id="line2d_26">
    <path d="M 597.794091 261.26 
L 602.336366 259.386254 
L 609.76663 257.098074 
L 610.719946 256.757399 
L 613.047161 255.817795 
L 614.785563 255.033377 
L 618.094133 253.162216 
L 619.215682 252.244229 
L 623.701879 247.867552 
L 624.935584 246.680439 
L 627.066527 244.813318 
L 629.590013 242.377006 
L 630.038633 241.872772 
L 632.08546 239.234789 
L 632.9827 238.163089 
L 634.440714 236.306721 
L 635.758534 234.213658 
L 636.795967 232.961081 
L 637.637129 232.089621 
L 638.253981 231.455401 
L 639.291414 230.098468 
L 640.244731 229.407204 
L 641.450397 228.861895 
L 642.992527 227.403613 
L 643.889767 226.831496 
L 644.9272 226.18929 
L 645.740323 225.530795 
L 647.366569 224.921846 
L 649.020854 224.041309 
L 649.525552 223.46324 
L 653.366858 217.494867 
L 653.871555 216.782927 
L 655.189376 215.54802 
L 656.451118 214.942129 
L 656.843661 214.735619 
L 657.348358 214.166385 
L 660.460657 210.188918 
L 661.217703 209.321432 
L 662.451407 207.812104 
L 662.871988 207.585025 
L 663.48884 207.459986 
L 665.311358 207.002739 
L 665.675861 206.755067 
L 667.975037 204.558424 
L 668.451696 203.881709 
L 669.180703 202.579151 
L 669.713439 201.638963 
L 670.414407 200.883116 
L 671.339685 200.056 
L 671.872421 199.645178 
L 672.236925 199.648692 
L 672.741622 199.521371 
L 672.965932 199.588302 
L 673.358474 199.696815 
L 673.722977 199.697923 
L 675.909999 200.817017 
L 676.470773 201.072737 
L 677.171742 201.171084 
L 678.994259 201.449394 
L 679.358763 201.594778 
L 680.031692 201.856262 
L 680.648544 201.86432 
L 681.685977 201.522062 
L 683.760844 201.531443 
L 685.891787 199.806887 
L 686.312368 199.535866 
L 687.125491 199.378464 
L 687.770382 199.2808 
L 689.340551 198.658321 
L 690.097597 198.077282 
L 690.574255 197.628629 
L 692.312657 196.438336 
L 693.013625 196.256291 
L 693.406167 196.326067 
L 694.331446 196.973894 
L 694.752027 197.143783 
L 695.733382 197.142647 
L 696.854931 196.96959 
L 697.499822 196.934334 
L 698.088636 196.921837 
L 698.789604 196.789561 
L 699.126069 196.692613 
L 699.630766 196.685224 
L 700.499967 196.587715 
L 701.425245 196.049033 
L 701.789748 195.89174 
L 702.490717 195.95834 
L 702.715026 195.890845 
L 703.331879 195.361112 
L 704.004808 194.862721 
L 704.593622 194.921776 
L 705.659093 195.234568 
L 706.472217 195.301719 
L 706.948875 195.562385 
L 709.752748 196.419143 
L 710.958414 195.606249 
L 711.519188 194.927336 
L 715.080107 191.040535 
L 715.612843 190.95861 
L 716.34185 191.089336 
L 717.435361 191.336753 
L 717.687709 191.356877 
L 720.127079 192.70351 
L 720.940202 193.563085 
L 722.846836 195.650877 
L 723.85623 196.469287 
L 725.258167 197.106315 
L 726.2956 197.08286 
L 726.51991 196.923589 
L 726.996568 196.414249 
L 728.146157 194.693436 
L 729.071435 194.308099 
L 729.688287 194.315086 
L 730.164945 194.486216 
L 730.50141 194.745153 
L 732.099618 196.19147 
L 733.389399 197.132356 
L 734.03429 197.602222 
L 734.342716 197.627593 
L 735.940924 197.550745 
L 737.56717 197.190244 
L 738.01579 197.001726 
L 738.660681 196.681368 
L 741.660825 195.278875 
L 742.109445 195.384896 
L 742.614142 195.723597 
L 743.735692 196.23619 
L 744.016079 196.059737 
L 745.081551 195.385083 
L 745.75448 195.298156 
L 747.128378 194.584847 
L 748.165811 194.190332 
L 748.64247 194.0626 
L 749.371477 193.793813 
L 749.764019 194.01913 
L 750.380871 194.288741 
L 750.829491 194.15792 
L 751.165956 194.104824 
L 751.50242 194.233104 
L 752.904357 195.017176 
L 753.94179 195.435985 
L 754.782952 195.334373 
L 755.736269 195.167937 
L 757.642903 194.123419 
L 757.979367 193.950003 
L 758.708375 193.854236 
L 759.072878 193.762238 
L 761.175783 193.04014 
L 762.157139 192.263564 
L 762.465565 191.981077 
L 763.89554 190.830874 
L 765.21336 190.526222 
L 766.026484 190.742499 
L 766.419026 190.880065 
L 769.531325 191.83767 
L 770.0921 191.596987 
L 770.456603 191.454744 
L 773.288515 191.080131 
L 773.596941 191.038814 
L 774.466142 191.001096 
L 775.39142 191.075924 
L 775.643769 191.123431 
L 777.073744 191.736689 
L 777.999022 191.662905 
L 778.728029 191.238674 
L 779.849579 191.004559 
L 780.466431 190.577431 
L 781.644057 189.955328 
L 782.008561 190.030044 
L 784.616163 191.306168 
L 785.036744 191.611736 
L 785.485364 191.777811 
L 785.877906 192.022257 
L 787.448075 192.812847 
L 787.840617 192.946733 
L 788.289237 193.117069 
L 788.793934 193.294317 
L 789.410786 193.491251 
L 790.812723 193.49461 
L 791.373497 193.758036 
L 791.681923 193.786372 
L 792.214659 193.77231 
L 792.747395 193.821248 
L 793.588557 193.509914 
L 793.840906 193.477898 
L 794.345603 193.722017 
L 795.214804 194.052524 
L 797.626135 193.166854 
L 798.523374 192.564155 
L 799.112187 192.27524 
L 800.345892 192.385267 
L 801.018821 191.94085 
L 801.635673 191.928465 
L 802.981533 192.183653 
L 804.103082 192.465126 
L 805.056399 192.408796 
L 805.70129 192.599794 
L 806.290103 192.522145 
L 806.906955 192.942672 
L 807.383613 193.523131 
L 807.916349 194.164596 
L 808.449085 194.436969 
L 808.813589 194.367389 
L 809.45848 194.355121 
L 809.991216 194.278075 
L 810.55199 194.121047 
L 811.393152 193.571449 
L 811.785694 193.367945 
L 812.31843 193.33299 
L 813.047437 193.564092 
L 814.869955 195.074769 
L 815.767194 195.419734 
L 816.888744 195.261199 
L 817.281286 195.117166 
L 817.757944 194.927998 
L 818.06637 194.835627 
L 818.486951 194.735218 
L 819.131842 194.399225 
L 819.664578 194.154712 
L 820.141237 194.244554 
L 821.038476 194.236593 
L 821.767483 193.918969 
L 822.075909 193.686225 
L 822.075909 193.686225 
" clip-path="url(#p7f64df4f32)" style="fill: none; stroke: #0000ff; stroke-width: 4; stroke-linecap: square"/>
   </g>
   <g id="line2d_27">
    <path d="M 597.794091 261.26 
L 600.710119 259.860011 
L 602.027939 259.285794 
L 604.158883 258.536606 
L 607.018834 257.833529 
L 608.196461 257.501819 
L 614.729485 254.927838 
L 616.243577 253.928786 
L 618.654908 251.880552 
L 620.197038 250.475308 
L 621.0382 249.923577 
L 622.299943 249.030725 
L 623.393453 247.831264 
L 626.33752 244.664383 
L 630.038633 240.62225 
L 632.253693 238.180535 
L 635.057566 235.587814 
L 635.954805 234.453954 
L 636.73989 233.502496 
L 639.207298 230.243584 
L 640.777467 227.95536 
L 642.03921 226.642161 
L 644.057999 225.737298 
L 647.170298 223.103354 
L 648.824583 221.679359 
L 649.721823 220.656504 
L 650.591023 219.5972 
L 651.684534 218.371688 
L 652.357464 217.345791 
L 653.282742 215.667817 
L 653.955671 214.75355 
L 654.937027 213.647559 
L 656.563273 212.495032 
L 657.909133 212.121492 
L 658.554023 211.771918 
L 658.974604 211.619588 
L 659.703611 211.387721 
L 661.105548 210.336456 
L 661.918671 209.365468 
L 662.535523 208.822235 
L 663.012182 208.417516 
L 664.582351 207.205266 
L 665.7039 206.704524 
L 666.881527 205.719598 
L 667.358185 205.71297 
L 667.750728 205.680295 
L 668.171309 205.405217 
L 668.872277 204.620885 
L 669.320897 204.26092 
L 670.947143 204.051094 
L 671.563995 203.881484 
L 671.928499 203.766915 
L 672.769661 203.19884 
L 673.134164 202.864548 
L 673.470629 202.632397 
L 674.031404 202.402999 
L 674.98472 201.957298 
L 675.545495 201.681708 
L 676.695083 200.682965 
L 677.171742 200.252854 
L 678.741911 199.602975 
L 679.779344 199.294969 
L 681.545784 199.663327 
L 682.891643 200.195924 
L 683.452418 200.15697 
L 683.872998 200.052272 
L 684.686122 199.791511 
L 685.16278 199.631729 
L 685.807671 199.325397 
L 686.452562 199.032432 
L 688.247041 198.486587 
L 688.891932 198.174038 
L 689.620939 198.137572 
L 690.125636 197.9602 
L 691.247185 197.472091 
L 693.406167 196.41532 
L 694.219291 196.494502 
L 695.11653 196.24722 
L 695.929653 196.324766 
L 697.079241 197.305533 
L 698.817643 198.222101 
L 699.378417 198.472144 
L 699.883115 198.685642 
L 700.499967 198.663773 
L 702.154252 197.606736 
L 702.827181 196.695126 
L 704.509505 194.249458 
L 706.948875 192.668171 
L 707.28534 192.561712 
L 707.902192 192.449055 
L 708.82747 192.592807 
L 711.575266 194.705681 
L 713.762287 195.594615 
L 714.995991 194.996712 
L 715.416572 194.311826 
L 716.538121 192.151839 
L 717.267128 191.58998 
L 717.827903 191.738719 
L 718.220445 191.990049 
L 720.659815 193.794808 
L 721.529016 194.725232 
L 722.3141 195.317296 
L 722.76272 195.688555 
L 723.379572 196.323051 
L 723.659959 196.372909 
L 725.258167 196.135491 
L 725.790903 196.344751 
L 726.099329 196.360426 
L 727.641459 195.726967 
L 728.174195 195.371839 
L 729.351822 193.926809 
L 731.707075 190.774856 
L 732.548237 190.165254 
L 734.791336 189.854098 
L 735.127801 190.05574 
L 735.884847 190.506396 
L 736.585815 191.267287 
L 736.894241 191.744386 
L 737.258744 192.203556 
L 738.043829 192.828054 
L 738.408332 192.954797 
L 739.361649 192.854091 
L 740.539276 192.532675 
L 741.492593 192.566397 
L 742.333755 192.765442 
L 744.857241 192.776162 
L 746.343294 193.292215 
L 747.689153 193.026798 
L 748.053656 192.784335 
L 748.810702 192.302363 
L 750.689297 191.595635 
L 753.49317 192.343727 
L 753.885713 192.712888 
L 755.287649 194.342416 
L 755.876463 194.974187 
L 756.128811 194.99039 
L 756.60547 194.764377 
L 757.586825 194.087237 
L 758.456026 193.126378 
L 759.381304 192.133554 
L 759.661691 192.111895 
L 760.418737 192.172085 
L 761.344015 192.324328 
L 761.708519 192.205718 
L 762.437526 192.028716 
L 762.661836 191.873853 
L 764.316121 190.52249 
L 764.932973 190.257742 
L 765.297477 190.102844 
L 765.858251 189.916414 
L 766.194716 189.886801 
L 767.063917 189.936923 
L 767.288227 189.956011 
L 768.269582 190.247428 
L 768.774279 190.440943 
L 769.783674 191.018424 
L 770.064061 191.138631 
L 771.718346 192.254766 
L 772.559508 192.273565 
L 772.980089 192.229295 
L 773.568903 192.353098 
L 774.269871 192.776061 
L 774.746529 192.883868 
L 775.307304 193.098908 
L 776.148466 193.300833 
L 778.307448 192.896504 
L 778.812145 192.986569 
L 779.541152 193.104041 
L 779.961733 193.179325 
L 780.494469 193.257447 
L 781.559941 192.875972 
L 781.81229 192.997332 
L 782.373064 193.344656 
L 783.634807 193.496077 
L 784.111466 193.495887 
L 785.821828 193.302782 
L 786.242409 193.329226 
L 786.803184 193.367436 
L 787.251804 193.453085 
L 787.504152 193.631091 
L 787.840617 193.840736 
L 788.345314 193.919485 
L 788.990205 193.745877 
L 790.083716 193.459147 
L 791.233304 192.551748 
L 792.63524 191.272708 
L 793.700712 190.918386 
L 794.457758 190.667285 
L 795.354997 190.772783 
L 796.308314 191.244008 
L 797.570057 191.850415 
L 798.60749 191.957033 
L 799.785117 191.696156 
L 800.486085 191.556354 
L 800.990783 191.478153 
L 801.831945 191.090261 
L 802.112332 190.985773 
L 802.617029 190.94903 
L 803.654462 190.860008 
L 804.047004 190.910415 
L 804.439547 190.860594 
L 805.729328 191.123596 
L 807.187342 190.381737 
L 808.645356 189.159145 
L 809.00986 189.05432 
L 809.542596 189.082875 
L 810.075332 188.836051 
L 810.467874 188.688394 
L 811.00061 188.603712 
L 812.570779 188.695256 
L 813.21567 189.224988 
L 813.972716 189.811365 
L 814.954071 190.329549 
L 815.514846 190.531513 
L 815.991504 190.65861 
L 816.440124 190.567405 
L 816.944821 190.524388 
L 817.982254 190.245879 
L 818.430874 190.115824 
L 818.991649 190.318178 
L 819.776733 190.734108 
L 820.169275 191.130131 
L 821.823561 192.958723 
L 822.075909 193.221209 
L 822.075909 193.221209 
" clip-path="url(#p7f64df4f32)" style="fill: none; stroke: #ff0000; stroke-width: 4; stroke-linecap: square"/>
   </g>
   <g id="patch_8">
    <path d="M 586.58 261.26 
L 833.29 261.26 
" style="fill: none; stroke: #000000; stroke-width: 3; stroke-linejoin: miter; stroke-linecap: square"/>
   </g>
   <g id="text_16">
    <!-- LAL040 -->
    <g transform="translate(665.17875 71.28) scale(0.24 -0.24)">
     <use xlink:href="#DejaVuSans-4c"/>
     <use xlink:href="#DejaVuSans-41" x="57.962891"/>
     <use xlink:href="#DejaVuSans-4c" x="126.371094"/>
     <use xlink:href="#DejaVuSans-30" x="182.083984"/>
     <use xlink:href="#DejaVuSans-34" x="245.707031"/>
     <use xlink:href="#DejaVuSans-30" x="309.330078"/>
    </g>
   </g>
  </g>
  <g id="axes_4">
   <g id="patch_9">
    <path d="M 844.09 261.26 
L 1090.8 261.26 
L 1090.8 77.28 
L 844.09 77.28 
z
" style="fill: #ffffff"/>
   </g>
   <g id="matplotlib.axis_7">
    <g id="xtick_16">
     <g id="line2d_28">
      <g>
       <use xlink:href="#m8dcc75beca" x="855.304091" y="261.26" style="stroke: #000000; stroke-width: 3"/>
      </g>
     </g>
    </g>
    <g id="xtick_17">
     <g id="line2d_29">
      <g>
       <use xlink:href="#m8dcc75beca" x="911.381555" y="261.26" style="stroke: #000000; stroke-width: 3"/>
      </g>
     </g>
    </g>
    <g id="xtick_18">
     <g id="line2d_30">
      <g>
       <use xlink:href="#m8dcc75beca" x="967.459019" y="261.26" style="stroke: #000000; stroke-width: 3"/>
      </g>
     </g>
    </g>
    <g id="xtick_19">
     <g id="line2d_31">
      <g>
       <use xlink:href="#m8dcc75beca" x="1023.536484" y="261.26" style="stroke: #000000; stroke-width: 3"/>
      </g>
     </g>
    </g>
    <g id="xtick_20">
     <g id="line2d_32">
      <g>
       <use xlink:href="#m8dcc75beca" x="1079.613948" y="261.26" style="stroke: #000000; stroke-width: 3"/>
      </g>
     </g>
    </g>
   </g>
   <g id="matplotlib.axis_8"/>
   <g id="line2d_33">
    <path d="M 855.304091 261.26 
L 864.276485 260.823426 
L 873.080647 260.13483 
L 876.585489 259.555352 
L 881.576383 258.06093 
L 883.006358 257.669524 
L 884.604566 257.165051 
L 888.782337 255.446174 
L 892.006791 253.76317 
L 893.745193 252.61739 
L 894.390083 252.259817 
L 897.922964 250.652159 
L 898.904319 250.463282 
L 900.278217 249.757019 
L 904.119524 248.636823 
L 904.736376 248.474109 
L 906.867319 247.776787 
L 908.577682 246.335661 
L 909.755309 245.232963 
L 910.316083 244.674481 
L 911.549788 243.529682 
L 912.699376 242.923581 
L 914.774242 242.166775 
L 916.232256 240.837158 
L 917.157534 240.016007 
L 918.166928 239.283492 
L 919.372594 238.209985 
L 919.90533 237.82989 
L 920.410027 237.655612 
L 922.400777 237.444829 
L 922.76528 237.350309 
L 923.241939 237.113909 
L 924.027023 236.578313 
L 924.868185 236.013873 
L 925.485037 235.482846 
L 925.961696 234.95197 
L 926.690703 233.910456 
L 927.1954 233.191878 
L 927.896368 232.605574 
L 928.681453 232.127605 
L 929.270266 231.682949 
L 929.662808 231.687925 
L 930.083389 231.640745 
L 930.391816 231.645708 
L 930.896513 231.787047 
L 931.317094 231.838639 
L 932.326488 232.216166 
L 932.887263 232.380151 
L 933.672347 232.838216 
L 934.120967 232.90354 
L 936.756608 233.060627 
L 937.709925 233.256338 
L 938.046389 233.220236 
L 939.672636 232.790949 
L 940.850263 232.748866 
L 941.214766 232.647909 
L 943.037284 231.299745 
L 943.766291 230.786609 
L 944.411182 230.623468 
L 945.168227 230.538716 
L 947.299171 229.645275 
L 948.953456 228.425937 
L 949.738541 227.893178 
L 950.075005 227.823885 
L 951.0844 227.842058 
L 951.981639 228.363702 
L 952.346143 228.422932 
L 953.327498 228.325257 
L 954.196699 228.124703 
L 954.61728 228.039811 
L 954.981784 228.042376 
L 955.598636 228.004326 
L 956.299604 227.853723 
L 956.692146 227.734571 
L 957.000572 227.715823 
L 957.421153 227.696249 
L 958.37447 227.492806 
L 958.851129 227.208224 
L 959.187593 227.021225 
L 959.860523 227.049958 
L 960.196988 227.039842 
L 960.757762 226.620444 
L 961.402653 226.098422 
L 961.879312 226.065859 
L 962.384009 226.261437 
L 962.944783 226.424262 
L 963.617713 226.344926 
L 964.094372 226.420497 
L 964.683185 226.63812 
L 965.664541 226.806654 
L 967.206671 227.014594 
L 967.487058 226.795564 
L 967.935678 226.499196 
L 968.384298 226.186654 
L 970.571319 223.639649 
L 971.440519 222.877791 
L 972.197565 222.042195 
L 972.646185 221.732353 
L 973.094805 221.727147 
L 974.496741 222.197238 
L 974.889283 222.238549 
L 975.253787 222.27839 
L 977.889428 223.699856 
L 981.226037 226.688338 
L 982.740128 227.271449 
L 983.58129 227.253537 
L 983.945794 227.147648 
L 984.646762 226.363743 
L 985.57204 225.017894 
L 986.273009 224.756761 
L 986.889861 224.694905 
L 987.7871 224.978842 
L 990.562935 226.943729 
L 991.039593 227.212384 
L 991.600368 227.452386 
L 992.385452 227.28715 
L 992.862111 227.199713 
L 993.703273 226.950816 
L 994.095815 226.811426 
L 995.862255 226.192267 
L 999.002593 224.762536 
L 999.423174 224.807735 
L 999.871794 225.055517 
L 1000.628839 225.543295 
L 1001.105498 225.753639 
L 1001.49804 225.582963 
L 1002.507435 224.942248 
L 1003.572906 224.780833 
L 1004.245836 224.416529 
L 1005.086998 224.157391 
L 1005.507579 223.97804 
L 1005.92816 223.922071 
L 1006.404818 223.721438 
L 1006.825399 223.623716 
L 1007.189903 223.808016 
L 1007.6946 224.121048 
L 1008.087142 224.156944 
L 1008.732033 224.00685 
L 1009.152614 224.249256 
L 1009.825544 224.643589 
L 1010.414357 224.868306 
L 1011.45179 225.236823 
L 1012.377068 225.112222 
L 1013.021959 225.009305 
L 1013.302346 224.942321 
L 1015.769755 223.862734 
L 1017.592272 223.60994 
L 1019.246558 222.883506 
L 1019.695177 222.39218 
L 1020.08772 222.08926 
L 1020.480262 221.73077 
L 1020.928882 221.265028 
L 1021.573772 221.020032 
L 1022.246702 220.950941 
L 1022.975709 220.924678 
L 1024.658033 221.457805 
L 1025.471156 221.67225 
L 1026.340357 221.952982 
L 1027.237596 221.945668 
L 1028.134836 221.565909 
L 1028.4713 221.470752 
L 1029.14423 221.366147 
L 1029.676966 221.353679 
L 1030.293818 221.237755 
L 1030.658322 221.242504 
L 1031.527522 221.119573 
L 1033.209846 221.396778 
L 1034.163163 221.914437 
L 1034.780015 222.057476 
L 1035.34079 222.07739 
L 1036.4343 221.58877 
L 1036.88292 221.589117 
L 1037.696043 221.160794 
L 1039.069941 220.443629 
L 1039.630716 220.627472 
L 1041.509311 221.450963 
L 1041.817737 221.651738 
L 1042.63086 222.286798 
L 1044.873959 223.336486 
L 1046.528244 223.901664 
L 1046.83667 223.94876 
L 1048.294684 223.89382 
L 1048.771342 224.097697 
L 1049.135846 224.153785 
L 1049.864853 224.127678 
L 1050.36955 224.078442 
L 1051.463061 223.73238 
L 1051.967758 223.959867 
L 1052.696765 224.178934 
L 1053.173423 223.940109 
L 1053.453811 223.864534 
L 1053.986547 223.735041 
L 1055.388483 222.973755 
L 1056.594149 222.257176 
L 1057.379233 222.47176 
L 1057.771776 222.448814 
L 1058.753131 221.967485 
L 1059.089596 221.964569 
L 1059.482138 222.046849 
L 1061.500927 222.508615 
L 1061.86543 222.427071 
L 1062.398166 222.375233 
L 1063.351483 222.542341 
L 1063.687948 222.458492 
L 1064.360878 222.872748 
L 1064.75342 223.271122 
L 1065.594582 224.15648 
L 1066.043201 224.258474 
L 1066.96848 224.0999 
L 1067.529254 223.976581 
L 1067.977874 223.814395 
L 1068.426494 223.558386 
L 1069.772353 222.899352 
L 1070.613515 223.151157 
L 1072.660342 224.597755 
L 1072.996807 224.673345 
L 1073.445427 224.711523 
L 1074.202473 224.638628 
L 1074.93148 224.347196 
L 1076.333416 223.826165 
L 1076.894191 223.533266 
L 1077.258694 223.454506 
L 1078.46436 223.602436 
L 1079.417677 223.217638 
L 1079.585909 223.089668 
L 1079.585909 223.089668 
" clip-path="url(#pef7781febd)" style="fill: none; stroke: #0000ff; stroke-width: 4; stroke-linecap: square"/>
   </g>
   <g id="line2d_34">
    <path d="M 855.304091 261.26 
L 864.921376 260.800257 
L 869.519728 260.468502 
L 872.940453 260.102217 
L 875.828443 259.503311 
L 878.32389 258.883537 
L 880.146408 258.473888 
L 887.184129 255.780129 
L 888.950569 254.937972 
L 890.296429 254.439062 
L 891.3619 254.040839 
L 893.436767 253.050627 
L 894.165774 252.640292 
L 896.072407 251.531118 
L 896.68926 251.060678 
L 898.343545 249.862206 
L 899.77352 249.224075 
L 901.596038 248.838612 
L 904.035407 247.634642 
L 906.923397 246.33482 
L 909.839425 244.162311 
L 910.680587 243.182893 
L 911.521749 242.46153 
L 913.428383 241.29945 
L 914.241506 241.140873 
L 915.503249 240.924929 
L 916.79303 240.628517 
L 917.269689 240.476787 
L 918.727703 239.674782 
L 919.90533 238.743547 
L 922.597048 237.411596 
L 923.101745 237.250513 
L 923.88683 236.692247 
L 924.391527 236.422423 
L 924.924263 236.437505 
L 925.316805 236.38907 
L 925.849541 236.076668 
L 926.999129 235.28185 
L 927.559904 235.259903 
L 928.036562 235.176157 
L 928.51322 235.063599 
L 929.102034 234.919699 
L 929.494576 234.765808 
L 930.111428 234.371029 
L 930.50397 234.135025 
L 931.120823 233.738594 
L 931.84983 233.38977 
L 932.438643 233.153006 
L 932.999418 232.918167 
L 934.373315 231.819745 
L 934.821935 231.5467 
L 935.775252 231.23531 
L 937.14915 230.781645 
L 939.672636 231.454145 
L 940.065178 231.561179 
L 941.018495 231.522264 
L 941.523192 231.42969 
L 942.22416 231.210917 
L 942.67278 231.087441 
L 943.373748 230.788864 
L 943.934523 230.57302 
L 944.411182 230.520169 
L 944.88784 230.428752 
L 946.766435 229.800159 
L 947.046822 229.758963 
L 947.972101 229.45932 
L 948.364643 229.268551 
L 949.009534 228.924405 
L 950.046967 228.424251 
L 950.551664 228.097934 
L 950.944206 228.00406 
L 951.757329 228.012987 
L 953.103189 227.67913 
L 953.411615 227.750779 
L 953.94435 228.270242 
L 954.39297 228.498068 
L 955.262171 228.95061 
L 955.654713 229.058472 
L 956.439798 229.219703 
L 957.112727 229.442274 
L 957.729579 229.523858 
L 958.009967 229.416094 
L 959.748368 228.215132 
L 961.402653 225.846718 
L 961.963428 225.164763 
L 963.25321 224.293084 
L 965.103766 223.550289 
L 966.029044 223.549059 
L 966.645896 223.981249 
L 968.945072 225.647339 
L 969.561924 225.829783 
L 970.066621 226.028552 
L 971.047977 226.441792 
L 971.384442 226.317085 
L 972.477952 225.709054 
L 972.898533 225.018548 
L 974.132238 222.65779 
L 974.721051 222.201497 
L 975.029477 222.253583 
L 975.61829 222.507006 
L 976.51553 223.067499 
L 978.085699 224.102576 
L 978.982938 224.972583 
L 979.739984 225.486926 
L 980.356836 225.950916 
L 980.833495 226.384346 
L 981.197998 226.435804 
L 982.48778 226.157162 
L 983.777561 226.406167 
L 984.422452 226.171986 
L 984.758917 226.079787 
L 985.628118 225.690291 
L 986.833783 224.344708 
L 988.852572 221.697352 
L 990.22647 220.94009 
L 992.161142 220.900208 
L 992.834072 221.347949 
L 993.675234 222.084528 
L 995.133248 223.770615 
L 996.002449 224.21363 
L 996.338913 224.197132 
L 996.815572 224.156763 
L 997.796928 223.847847 
L 998.750244 223.849935 
L 999.030632 223.866185 
L 999.899832 224.019959 
L 1000.40453 223.953751 
L 1000.909227 223.880955 
L 1001.301769 223.891501 
L 1001.72235 223.973027 
L 1002.535473 224.047555 
L 1003.208403 224.255217 
L 1003.853294 224.400559 
L 1005.227192 224.056534 
L 1005.591695 223.788829 
L 1006.236586 223.360452 
L 1008.087142 222.561662 
L 1010.975132 223.255021 
L 1011.479829 223.702968 
L 1012.965882 225.291886 
L 1013.44254 225.673415 
L 1013.835082 225.578084 
L 1014.199586 225.350968 
L 1016.022103 223.693489 
L 1017.003459 222.773037 
L 1018.125008 222.917329 
L 1018.685783 223.029998 
L 1019.19048 222.905459 
L 1019.751255 222.730732 
L 1020.171836 222.540735 
L 1021.798082 221.16469 
L 1023.816871 220.521546 
L 1024.517839 220.535018 
L 1024.910381 220.581506 
L 1025.863698 220.813593 
L 1026.256241 220.956809 
L 1027.15348 221.518853 
L 1027.517984 221.565258 
L 1028.246991 222.093322 
L 1029.536772 222.661605 
L 1031.022825 222.547667 
L 1031.976142 222.958082 
L 1032.90142 223.226761 
L 1033.546311 223.351668 
L 1033.966892 223.274136 
L 1035.284712 222.974511 
L 1036.181952 222.906642 
L 1036.490378 223.014705 
L 1036.88292 223.080342 
L 1037.303501 223.059932 
L 1037.836237 223.230853 
L 1038.228779 223.105344 
L 1038.87367 222.782062 
L 1039.294251 222.881021 
L 1039.742871 223.187736 
L 1040.780304 223.421001 
L 1041.397156 223.3143 
L 1041.929892 223.312103 
L 1042.462628 223.19164 
L 1042.883209 223.118545 
L 1043.472022 223.078309 
L 1044.060836 223.116111 
L 1044.901997 223.341522 
L 1045.574927 223.701869 
L 1046.107663 223.702032 
L 1046.61236 223.569798 
L 1047.06098 223.550014 
L 1048.014297 223.068135 
L 1049.752698 221.558778 
L 1050.14524 221.353044 
L 1051.126596 221.152451 
L 1051.995797 220.964255 
L 1053.005191 221.22762 
L 1054.182818 221.913435 
L 1055.360445 222.365881 
L 1055.89318 222.445162 
L 1056.201607 222.452812 
L 1058.865286 221.871799 
L 1059.734487 221.484912 
L 1060.491533 221.343614 
L 1061.024268 221.320537 
L 1062.594437 221.556483 
L 1063.127173 221.659569 
L 1063.463638 221.510213 
L 1064.585187 220.97954 
L 1066.211434 219.690127 
L 1066.660054 219.696429 
L 1067.136712 219.722604 
L 1067.389061 219.65283 
L 1067.809642 219.421694 
L 1068.370416 219.373138 
L 1069.772353 219.446844 
L 1070.389205 219.819806 
L 1072.015451 221.117156 
L 1072.772497 221.386013 
L 1073.697775 221.579505 
L 1076.193223 221.225029 
L 1077.174578 221.701462 
L 1077.56712 222.028477 
L 1078.183972 222.583164 
L 1079.249444 223.73857 
L 1079.585909 224.080124 
L 1079.585909 224.080124 
" clip-path="url(#pef7781febd)" style="fill: none; stroke: #ff0000; stroke-width: 4; stroke-linecap: square"/>
   </g>
   <g id="patch_10">
    <path d="M 844.09 261.26 
L 1090.8 261.26 
" style="fill: none; stroke: #000000; stroke-width: 3; stroke-linejoin: miter; stroke-linecap: square"/>
   </g>
   <g id="text_17">
    <!-- LAL121 -->
    <g transform="translate(922.68875 71.28) scale(0.24 -0.24)">
     <use xlink:href="#DejaVuSans-4c"/>
     <use xlink:href="#DejaVuSans-41" x="57.962891"/>
     <use xlink:href="#DejaVuSans-4c" x="126.371094"/>
     <use xlink:href="#DejaVuSans-31" x="182.083984"/>
     <use xlink:href="#DejaVuSans-32" x="245.707031"/>
     <use xlink:href="#DejaVuSans-31" x="309.330078"/>
    </g>
   </g>
  </g>
  <g id="text_18">
   <!-- without LAL121 output  = 180 -->
   <g transform="translate(411.1375 28.694375) scale(0.28 -0.28)">
    <defs>
     <path id="DejaVuSans-77" d="M 269 3500 
L 844 3500 
L 1563 769 
L 2278 3500 
L 2956 3500 
L 3675 769 
L 4391 3500 
L 4966 3500 
L 4050 0 
L 3372 0 
L 2619 2869 
L 1863 0 
L 1184 0 
L 269 3500 
z
" transform="scale(0.015625)"/>
     <path id="DejaVuSans-68" d="M 3513 2113 
L 3513 0 
L 2938 0 
L 2938 2094 
Q 2938 2591 2744 2837 
Q 2550 3084 2163 3084 
Q 1697 3084 1428 2787 
Q 1159 2491 1159 1978 
L 1159 0 
L 581 0 
L 581 4863 
L 1159 4863 
L 1159 2956 
Q 1366 3272 1645 3428 
Q 1925 3584 2291 3584 
Q 2894 3584 3203 3211 
Q 3513 2838 3513 2113 
z
" transform="scale(0.015625)"/>
     <path id="DejaVuSans-6f" d="M 1959 3097 
Q 1497 3097 1228 2736 
Q 959 2375 959 1747 
Q 959 1119 1226 758 
Q 1494 397 1959 397 
Q 2419 397 2687 759 
Q 2956 1122 2956 1747 
Q 2956 2369 2687 2733 
Q 2419 3097 1959 3097 
z
M 1959 3584 
Q 2709 3584 3137 3096 
Q 3566 2609 3566 1747 
Q 3566 888 3137 398 
Q 2709 -91 1959 -91 
Q 1206 -91 779 398 
Q 353 888 353 1747 
Q 353 2609 779 3096 
Q 1206 3584 1959 3584 
z
" transform="scale(0.015625)"/>
     <path id="DejaVuSans-75" d="M 544 1381 
L 544 3500 
L 1119 3500 
L 1119 1403 
Q 1119 906 1312 657 
Q 1506 409 1894 409 
Q 2359 409 2629 706 
Q 2900 1003 2900 1516 
L 2900 3500 
L 3475 3500 
L 3475 0 
L 2900 0 
L 2900 538 
Q 2691 219 2414 64 
Q 2138 -91 1772 -91 
Q 1169 -91 856 284 
Q 544 659 544 1381 
z
M 1991 3584 
L 1991 3584 
z
" transform="scale(0.015625)"/>
     <path id="DejaVuSans-70" d="M 1159 525 
L 1159 -1331 
L 581 -1331 
L 581 3500 
L 1159 3500 
L 1159 2969 
Q 1341 3281 1617 3432 
Q 1894 3584 2278 3584 
Q 2916 3584 3314 3078 
Q 3713 2572 3713 1747 
Q 3713 922 3314 415 
Q 2916 -91 2278 -91 
Q 1894 -91 1617 61 
Q 1341 213 1159 525 
z
M 3116 1747 
Q 3116 2381 2855 2742 
Q 2594 3103 2138 3103 
Q 1681 3103 1420 2742 
Q 1159 2381 1159 1747 
Q 1159 1113 1420 752 
Q 1681 391 2138 391 
Q 2594 391 2855 752 
Q 3116 1113 3116 1747 
z
" transform="scale(0.015625)"/>
     <path id="DejaVuSans-394" d="M 2188 4044 
L 906 525 
L 3472 525 
L 2188 4044 
z
M 50 0 
L 1831 4666 
L 2547 4666 
L 4325 0 
L 50 0 
z
" transform="scale(0.015625)"/>
     <path id="DejaVuSans-3b8" d="M 2953 2219 
L 963 2219 
Q 1009 1284 1225 888 
Q 1494 400 1959 400 
Q 2428 400 2688 891 
Q 2916 1322 2953 2219 
z
M 2944 2750 
Q 2856 3638 2688 3950 
Q 2419 4444 1959 4444 
Q 1481 4444 1228 3956 
Q 1028 3563 969 2750 
L 2944 2750 
z
M 1959 4913 
Q 2709 4913 3138 4250 
Q 3566 3591 3566 2422 
Q 3566 1256 3138 594 
Q 2709 -72 1959 -72 
Q 1206 -72 781 594 
Q 353 1256 353 2422 
Q 353 3591 781 4250 
Q 1206 4913 1959 4913 
z
" transform="scale(0.015625)"/>
     <path id="DejaVuSans-3d" d="M 678 2906 
L 4684 2906 
L 4684 2381 
L 678 2381 
L 678 2906 
z
M 678 1631 
L 4684 1631 
L 4684 1100 
L 678 1100 
L 678 1631 
z
" transform="scale(0.015625)"/>
     <path id="DejaVuSans-b0" d="M 1600 4347 
Q 1350 4347 1178 4173 
Q 1006 4000 1006 3750 
Q 1006 3503 1178 3333 
Q 1350 3163 1600 3163 
Q 1850 3163 2022 3333 
Q 2194 3503 2194 3750 
Q 2194 3997 2020 4172 
Q 1847 4347 1600 4347 
z
M 1600 4750 
Q 1800 4750 1984 4673 
Q 2169 4597 2303 4453 
Q 2447 4313 2519 4134 
Q 2591 3956 2591 3750 
Q 2591 3338 2302 3052 
Q 2013 2766 1594 2766 
Q 1172 2766 890 3047 
Q 609 3328 609 3750 
Q 609 4169 896 4459 
Q 1184 4750 1600 4750 
z
" transform="scale(0.015625)"/>
    </defs>
    <use xlink:href="#DejaVuSans-77"/>
    <use xlink:href="#DejaVuSans-69" x="81.787109"/>
    <use xlink:href="#DejaVuSans-74" x="109.570312"/>
    <use xlink:href="#DejaVuSans-68" x="148.779297"/>
    <use xlink:href="#DejaVuSans-6f" x="212.158203"/>
    <use xlink:href="#DejaVuSans-75" x="273.339844"/>
    <use xlink:href="#DejaVuSans-74" x="336.71875"/>
    <use xlink:href="#DejaVuSans-20" x="375.927734"/>
    <use xlink:href="#DejaVuSans-4c" x="407.714844"/>
    <use xlink:href="#DejaVuSans-41" x="465.677734"/>
    <use xlink:href="#DejaVuSans-4c" x="534.085938"/>
    <use xlink:href="#DejaVuSans-31" x="589.798828"/>
    <use xlink:href="#DejaVuSans-32" x="653.421875"/>
    <use xlink:href="#DejaVuSans-31" x="717.044922"/>
    <use xlink:href="#DejaVuSans-20" x="780.667969"/>
    <use xlink:href="#DejaVuSans-6f" x="812.455078"/>
    <use xlink:href="#DejaVuSans-75" x="873.636719"/>
    <use xlink:href="#DejaVuSans-74" x="937.015625"/>
    <use xlink:href="#DejaVuSans-70" x="976.224609"/>
    <use xlink:href="#DejaVuSans-75" x="1039.701172"/>
    <use xlink:href="#DejaVuSans-74" x="1103.080078"/>
    <use xlink:href="#DejaVuSans-20" x="1142.289062"/>
    <use xlink:href="#DejaVuSans-394" x="1174.076172"/>
    <use xlink:href="#DejaVuSans-3b8" x="1242.484375"/>
    <use xlink:href="#DejaVuSans-20" x="1303.666016"/>
    <use xlink:href="#DejaVuSans-3d" x="1335.453125"/>
    <use xlink:href="#DejaVuSans-20" x="1419.242188"/>
    <use xlink:href="#DejaVuSans-31" x="1451.029297"/>
    <use xlink:href="#DejaVuSans-38" x="1514.652344"/>
    <use xlink:href="#DejaVuSans-30" x="1578.275391"/>
    <use xlink:href="#DejaVuSans-b0" x="1641.898438"/>
   </g>
  </g>
  <g id="legend_1">
   <g id="line2d_35">
    <path d="M 1143.84 167.0725 
L 1159.84 167.0725 
L 1175.84 167.0725 
" style="fill: none; stroke: #0000ff; stroke-width: 4; stroke-linecap: square"/>
   </g>
   <g id="text_19">
    <!-- Left side -->
    <g transform="translate(1188.64 172.6725) scale(0.16 -0.16)">
     <defs>
      <path id="DejaVuSans-66" d="M 2375 4863 
L 2375 4384 
L 1825 4384 
Q 1516 4384 1395 4259 
Q 1275 4134 1275 3809 
L 1275 3500 
L 2222 3500 
L 2222 3053 
L 1275 3053 
L 1275 0 
L 697 0 
L 697 3053 
L 147 3053 
L 147 3500 
L 697 3500 
L 697 3744 
Q 697 4328 969 4595 
Q 1241 4863 1831 4863 
L 2375 4863 
z
" transform="scale(0.015625)"/>
      <path id="DejaVuSans-64" d="M 2906 2969 
L 2906 4863 
L 3481 4863 
L 3481 0 
L 2906 0 
L 2906 525 
Q 2725 213 2448 61 
Q 2172 -91 1784 -91 
Q 1150 -91 751 415 
Q 353 922 353 1747 
Q 353 2572 751 3078 
Q 1150 3584 1784 3584 
Q 2172 3584 2448 3432 
Q 2725 3281 2906 2969 
z
M 947 1747 
Q 947 1113 1208 752 
Q 1469 391 1925 391 
Q 2381 391 2643 752 
Q 2906 1113 2906 1747 
Q 2906 2381 2643 2742 
Q 2381 3103 1925 3103 
Q 1469 3103 1208 2742 
Q 947 2381 947 1747 
z
" transform="scale(0.015625)"/>
     </defs>
     <use xlink:href="#DejaVuSans-4c"/>
     <use xlink:href="#DejaVuSans-65" x="53.962891"/>
     <use xlink:href="#DejaVuSans-66" x="115.486328"/>
     <use xlink:href="#DejaVuSans-74" x="148.941406"/>
     <use xlink:href="#DejaVuSans-20" x="188.150391"/>
     <use xlink:href="#DejaVuSans-73" x="219.9375"/>
     <use xlink:href="#DejaVuSans-69" x="272.037109"/>
     <use xlink:href="#DejaVuSans-64" x="299.820312"/>
     <use xlink:href="#DejaVuSans-65" x="363.296875"/>
    </g>
   </g>
   <g id="line2d_36">
    <path d="M 1143.84 190.5575 
L 1159.84 190.5575 
L 1175.84 190.5575 
" style="fill: none; stroke: #ff0000; stroke-width: 4; stroke-linecap: square"/>
   </g>
   <g id="text_20">
    <!-- Right side -->
    <g transform="translate(1188.64 196.1575) scale(0.16 -0.16)">
     <defs>
      <path id="DejaVuSans-52" d="M 2841 2188 
Q 3044 2119 3236 1894 
Q 3428 1669 3622 1275 
L 4263 0 
L 3584 0 
L 2988 1197 
Q 2756 1666 2539 1819 
Q 2322 1972 1947 1972 
L 1259 1972 
L 1259 0 
L 628 0 
L 628 4666 
L 2053 4666 
Q 2853 4666 3247 4331 
Q 3641 3997 3641 3322 
Q 3641 2881 3436 2590 
Q 3231 2300 2841 2188 
z
M 1259 4147 
L 1259 2491 
L 2053 2491 
Q 2509 2491 2742 2702 
Q 2975 2913 2975 3322 
Q 2975 3731 2742 3939 
Q 2509 4147 2053 4147 
L 1259 4147 
z
" transform="scale(0.015625)"/>
     </defs>
     <use xlink:href="#DejaVuSans-52"/>
     <use xlink:href="#DejaVuSans-69" x="69.482422"/>
     <use xlink:href="#DejaVuSans-67" x="97.265625"/>
     <use xlink:href="#DejaVuSans-68" x="160.742188"/>
     <use xlink:href="#DejaVuSans-74" x="224.121094"/>
     <use xlink:href="#DejaVuSans-20" x="263.330078"/>
     <use xlink:href="#DejaVuSans-73" x="295.117188"/>
     <use xlink:href="#DejaVuSans-69" x="347.216797"/>
     <use xlink:href="#DejaVuSans-64" x="375"/>
     <use xlink:href="#DejaVuSans-65" x="438.476562"/>
    </g>
   </g>
  </g>
 </g>
 <defs>
  <clipPath id="p0924f4447b">
   <rect x="71.56" y="77.28" width="246.71" height="183.98"/>
  </clipPath>
  <clipPath id="p2cfdfe8779">
   <rect x="329.07" y="77.28" width="246.71" height="183.98"/>
  </clipPath>
  <clipPath id="p7f64df4f32">
   <rect x="586.58" y="77.28" width="246.71" height="183.98"/>
  </clipPath>
  <clipPath id="pef7781febd">
   <rect x="844.09" y="77.28" width="246.71" height="183.98"/>
  </clipPath>
 </defs>
</svg>
