<?xml version="1.0" encoding="utf-8" standalone="no"?>
<!DOCTYPE svg PUBLIC "-//W3C//DTD SVG 1.1//EN"
  "http://www.w3.org/Graphics/SVG/1.1/DTD/svg11.dtd">
<svg xmlns:xlink="http://www.w3.org/1999/xlink" width="936pt" height="720pt" viewBox="0 0 936 720" xmlns="http://www.w3.org/2000/svg" version="1.1">
 <metadata>
  <rdf:RDF xmlns:dc="http://purl.org/dc/elements/1.1/" xmlns:cc="http://creativecommons.org/ns#" xmlns:rdf="http://www.w3.org/1999/02/22-rdf-syntax-ns#">
   <cc:Work>
    <dc:type rdf:resource="http://purl.org/dc/dcmitype/StillImage"/>
    <dc:date>2025-09-26T10:51:36.258690</dc:date>
    <dc:format>image/svg+xml</dc:format>
    <dc:creator>
     <cc:Agent>
      <dc:title>Matplotlib v3.7.1, https://matplotlib.org/</dc:title>
     </cc:Agent>
    </dc:creator>
   </cc:Work>
  </rdf:RDF>
 </metadata>
 <defs>
  <style type="text/css">*{stroke-linejoin: round; stroke-linecap: butt}</style>
 </defs>
 <g id="figure_1">
  <g id="patch_1">
   <path d="M 0 720 
L 936 720 
L 936 0 
L 0 0 
z
" style="fill: #ffffff"/>
  </g>
  <g id="axes_1">
   <g id="patch_2">
    <path d="M 163.42 588.02 
L 891.850285 588.02 
L 891.850285 47.52 
L 163.42 47.52 
z
" style="fill: #ffffff"/>
   </g>
   <g id="matplotlib.axis_1">
    <g id="xtick_1">
     <g id="line2d_1">
      <defs>
       <path id="m3448032704" d="M 0 0 
L 0 10 
" style="stroke: #000000; stroke-width: 4"/>
      </defs>
      <g>
       <use xlink:href="#m3448032704" x="196.530468" y="588.02" style="stroke: #000000; stroke-width: 4"/>
      </g>
     </g>
     <g id="text_1">
      <!-- 0 -->
      <g transform="translate(183.805468 631.91375) scale(0.4 -0.4)">
       <defs>
        <path id="DejaVuSans-30" d="M 2034 4250 
Q 1547 4250 1301 3770 
Q 1056 3291 1056 2328 
Q 1056 1369 1301 889 
Q 1547 409 2034 409 
Q 2525 409 2770 889 
Q 3016 1369 3016 2328 
Q 3016 3291 2770 3770 
Q 2525 4250 2034 4250 
z
M 2034 4750 
Q 2819 4750 3233 4129 
Q 3647 3509 3647 2328 
Q 3647 1150 3233 529 
Q 2819 -91 2034 -91 
Q 1250 -91 836 529 
Q 422 1150 422 2328 
Q 422 3509 836 4129 
Q 1250 4750 2034 4750 
z
" transform="scale(0.015625)"/>
       </defs>
       <use xlink:href="#DejaVuSans-30"/>
      </g>
     </g>
    </g>
    <g id="xtick_2">
     <g id="line2d_2">
      <g>
       <use xlink:href="#m3448032704" x="362.103502" y="588.02" style="stroke: #000000; stroke-width: 4"/>
      </g>
     </g>
     <g id="text_2">
      <!-- 200 -->
      <g transform="translate(323.928502 631.91375) scale(0.4 -0.4)">
       <defs>
        <path id="DejaVuSans-32" d="M 1228 531 
L 3431 531 
L 3431 0 
L 469 0 
L 469 531 
Q 828 903 1448 1529 
Q 2069 2156 2228 2338 
Q 2531 2678 2651 2914 
Q 2772 3150 2772 3378 
Q 2772 3750 2511 3984 
Q 2250 4219 1831 4219 
Q 1534 4219 1204 4116 
Q 875 4013 500 3803 
L 500 4441 
Q 881 4594 1212 4672 
Q 1544 4750 1819 4750 
Q 2544 4750 2975 4387 
Q 3406 4025 3406 3419 
Q 3406 3131 3298 2873 
Q 3191 2616 2906 2266 
Q 2828 2175 2409 1742 
Q 1991 1309 1228 531 
z
" transform="scale(0.015625)"/>
       </defs>
       <use xlink:href="#DejaVuSans-32"/>
       <use xlink:href="#DejaVuSans-30" x="63.623047"/>
       <use xlink:href="#DejaVuSans-30" x="127.246094"/>
      </g>
     </g>
    </g>
    <g id="xtick_3">
     <g id="line2d_3">
      <g>
       <use xlink:href="#m3448032704" x="527.676536" y="588.02" style="stroke: #000000; stroke-width: 4"/>
      </g>
     </g>
     <g id="text_3">
      <!-- 400 -->
      <g transform="translate(489.501536 631.91375) scale(0.4 -0.4)">
       <defs>
        <path id="DejaVuSans-34" d="M 2419 4116 
L 825 1625 
L 2419 1625 
L 2419 4116 
z
M 2253 4666 
L 3047 4666 
L 3047 1625 
L 3713 1625 
L 3713 1100 
L 3047 1100 
L 3047 0 
L 2419 0 
L 2419 1100 
L 313 1100 
L 313 1709 
L 2253 4666 
z
" transform="scale(0.015625)"/>
       </defs>
       <use xlink:href="#DejaVuSans-34"/>
       <use xlink:href="#DejaVuSans-30" x="63.623047"/>
       <use xlink:href="#DejaVuSans-30" x="127.246094"/>
      </g>
     </g>
    </g>
    <g id="xtick_4">
     <g id="line2d_4">
      <g>
       <use xlink:href="#m3448032704" x="693.24957" y="588.02" style="stroke: #000000; stroke-width: 4"/>
      </g>
     </g>
     <g id="text_4">
      <!-- 600 -->
      <g transform="translate(655.07457 631.91375) scale(0.4 -0.4)">
       <defs>
        <path id="DejaVuSans-36" d="M 2113 2584 
Q 1688 2584 1439 2293 
Q 1191 2003 1191 1497 
Q 1191 994 1439 701 
Q 1688 409 2113 409 
Q 2538 409 2786 701 
Q 3034 994 3034 1497 
Q 3034 2003 2786 2293 
Q 2538 2584 2113 2584 
z
M 3366 4563 
L 3366 3988 
Q 3128 4100 2886 4159 
Q 2644 4219 2406 4219 
Q 1781 4219 1451 3797 
Q 1122 3375 1075 2522 
Q 1259 2794 1537 2939 
Q 1816 3084 2150 3084 
Q 2853 3084 3261 2657 
Q 3669 2231 3669 1497 
Q 3669 778 3244 343 
Q 2819 -91 2113 -91 
Q 1303 -91 875 529 
Q 447 1150 447 2328 
Q 447 3434 972 4092 
Q 1497 4750 2381 4750 
Q 2619 4750 2861 4703 
Q 3103 4656 3366 4563 
z
" transform="scale(0.015625)"/>
       </defs>
       <use xlink:href="#DejaVuSans-36"/>
       <use xlink:href="#DejaVuSans-30" x="63.623047"/>
       <use xlink:href="#DejaVuSans-30" x="127.246094"/>
      </g>
     </g>
    </g>
    <g id="xtick_5">
     <g id="line2d_5">
      <g>
       <use xlink:href="#m3448032704" x="858.822604" y="588.02" style="stroke: #000000; stroke-width: 4"/>
      </g>
     </g>
     <g id="text_5">
      <!-- 800 -->
      <g transform="translate(820.647604 631.91375) scale(0.4 -0.4)">
       <defs>
        <path id="DejaVuSans-38" d="M 2034 2216 
Q 1584 2216 1326 1975 
Q 1069 1734 1069 1313 
Q 1069 891 1326 650 
Q 1584 409 2034 409 
Q 2484 409 2743 651 
Q 3003 894 3003 1313 
Q 3003 1734 2745 1975 
Q 2488 2216 2034 2216 
z
M 1403 2484 
Q 997 2584 770 2862 
Q 544 3141 544 3541 
Q 544 4100 942 4425 
Q 1341 4750 2034 4750 
Q 2731 4750 3128 4425 
Q 3525 4100 3525 3541 
Q 3525 3141 3298 2862 
Q 3072 2584 2669 2484 
Q 3125 2378 3379 2068 
Q 3634 1759 3634 1313 
Q 3634 634 3220 271 
Q 2806 -91 2034 -91 
Q 1263 -91 848 271 
Q 434 634 434 1313 
Q 434 1759 690 2068 
Q 947 2378 1403 2484 
z
M 1172 3481 
Q 1172 3119 1398 2916 
Q 1625 2713 2034 2713 
Q 2441 2713 2670 2916 
Q 2900 3119 2900 3481 
Q 2900 3844 2670 4047 
Q 2441 4250 2034 4250 
Q 1625 4250 1398 4047 
Q 1172 3844 1172 3481 
z
" transform="scale(0.015625)"/>
       </defs>
       <use xlink:href="#DejaVuSans-38"/>
       <use xlink:href="#DejaVuSans-30" x="63.623047"/>
       <use xlink:href="#DejaVuSans-30" x="127.246094"/>
      </g>
     </g>
    </g>
    <g id="text_6">
     <!-- Time (ms) -->
     <g transform="translate(414.238658 678.425469) scale(0.45 -0.45)">
      <defs>
       <path id="DejaVuSans-54" d="M -19 4666 
L 3928 4666 
L 3928 4134 
L 2272 4134 
L 2272 0 
L 1638 0 
L 1638 4134 
L -19 4134 
L -19 4666 
z
" transform="scale(0.015625)"/>
       <path id="DejaVuSans-69" d="M 603 3500 
L 1178 3500 
L 1178 0 
L 603 0 
L 603 3500 
z
M 603 4863 
L 1178 4863 
L 1178 4134 
L 603 4134 
L 603 4863 
z
" transform="scale(0.015625)"/>
       <path id="DejaVuSans-6d" d="M 3328 2828 
Q 3544 3216 3844 3400 
Q 4144 3584 4550 3584 
Q 5097 3584 5394 3201 
Q 5691 2819 5691 2113 
L 5691 0 
L 5113 0 
L 5113 2094 
Q 5113 2597 4934 2840 
Q 4756 3084 4391 3084 
Q 3944 3084 3684 2787 
Q 3425 2491 3425 1978 
L 3425 0 
L 2847 0 
L 2847 2094 
Q 2847 2600 2669 2842 
Q 2491 3084 2119 3084 
Q 1678 3084 1418 2786 
Q 1159 2488 1159 1978 
L 1159 0 
L 581 0 
L 581 3500 
L 1159 3500 
L 1159 2956 
Q 1356 3278 1631 3431 
Q 1906 3584 2284 3584 
Q 2666 3584 2933 3390 
Q 3200 3197 3328 2828 
z
" transform="scale(0.015625)"/>
       <path id="DejaVuSans-65" d="M 3597 1894 
L 3597 1613 
L 953 1613 
Q 991 1019 1311 708 
Q 1631 397 2203 397 
Q 2534 397 2845 478 
Q 3156 559 3463 722 
L 3463 178 
Q 3153 47 2828 -22 
Q 2503 -91 2169 -91 
Q 1331 -91 842 396 
Q 353 884 353 1716 
Q 353 2575 817 3079 
Q 1281 3584 2069 3584 
Q 2775 3584 3186 3129 
Q 3597 2675 3597 1894 
z
M 3022 2063 
Q 3016 2534 2758 2815 
Q 2500 3097 2075 3097 
Q 1594 3097 1305 2825 
Q 1016 2553 972 2059 
L 3022 2063 
z
" transform="scale(0.015625)"/>
       <path id="DejaVuSans-20" transform="scale(0.015625)"/>
       <path id="DejaVuSans-28" d="M 1984 4856 
Q 1566 4138 1362 3434 
Q 1159 2731 1159 2009 
Q 1159 1288 1364 580 
Q 1569 -128 1984 -844 
L 1484 -844 
Q 1016 -109 783 600 
Q 550 1309 550 2009 
Q 550 2706 781 3412 
Q 1013 4119 1484 4856 
L 1984 4856 
z
" transform="scale(0.015625)"/>
       <path id="DejaVuSans-73" d="M 2834 3397 
L 2834 2853 
Q 2591 2978 2328 3040 
Q 2066 3103 1784 3103 
Q 1356 3103 1142 2972 
Q 928 2841 928 2578 
Q 928 2378 1081 2264 
Q 1234 2150 1697 2047 
L 1894 2003 
Q 2506 1872 2764 1633 
Q 3022 1394 3022 966 
Q 3022 478 2636 193 
Q 2250 -91 1575 -91 
Q 1294 -91 989 -36 
Q 684 19 347 128 
L 347 722 
Q 666 556 975 473 
Q 1284 391 1588 391 
Q 1994 391 2212 530 
Q 2431 669 2431 922 
Q 2431 1156 2273 1281 
Q 2116 1406 1581 1522 
L 1381 1569 
Q 847 1681 609 1914 
Q 372 2147 372 2553 
Q 372 3047 722 3315 
Q 1072 3584 1716 3584 
Q 2034 3584 2315 3537 
Q 2597 3491 2834 3397 
z
" transform="scale(0.015625)"/>
       <path id="DejaVuSans-29" d="M 513 4856 
L 1013 4856 
Q 1481 4119 1714 3412 
Q 1947 2706 1947 2009 
Q 1947 1309 1714 600 
Q 1481 -109 1013 -844 
L 513 -844 
Q 928 -128 1133 580 
Q 1338 1288 1338 2009 
Q 1338 2731 1133 3434 
Q 928 4138 513 4856 
z
" transform="scale(0.015625)"/>
      </defs>
      <use xlink:href="#DejaVuSans-54"/>
      <use xlink:href="#DejaVuSans-69" x="57.958984"/>
      <use xlink:href="#DejaVuSans-6d" x="85.742188"/>
      <use xlink:href="#DejaVuSans-65" x="183.154297"/>
      <use xlink:href="#DejaVuSans-20" x="244.677734"/>
      <use xlink:href="#DejaVuSans-28" x="276.464844"/>
      <use xlink:href="#DejaVuSans-6d" x="315.478516"/>
      <use xlink:href="#DejaVuSans-73" x="412.890625"/>
      <use xlink:href="#DejaVuSans-29" x="464.990234"/>
     </g>
    </g>
   </g>
   <g id="matplotlib.axis_2">
    <g id="ytick_1">
     <g id="line2d_6">
      <defs>
       <path id="m9941ffe1ea" d="M 0 0 
L -10 0 
" style="stroke: #000000; stroke-width: 4"/>
      </defs>
      <g>
       <use xlink:href="#m9941ffe1ea" x="163.42" y="588.02" style="stroke: #000000; stroke-width: 4"/>
      </g>
     </g>
     <g id="text_7">
      <!-- 0.0 -->
      <g transform="translate(86.3075 603.216875) scale(0.4 -0.4)">
       <defs>
        <path id="DejaVuSans-2e" d="M 684 794 
L 1344 794 
L 1344 0 
L 684 0 
L 684 794 
z
" transform="scale(0.015625)"/>
       </defs>
       <use xlink:href="#DejaVuSans-30"/>
       <use xlink:href="#DejaVuSans-2e" x="63.623047"/>
       <use xlink:href="#DejaVuSans-30" x="95.410156"/>
      </g>
     </g>
    </g>
    <g id="ytick_2">
     <g id="line2d_7">
      <g>
       <use xlink:href="#m9941ffe1ea" x="163.42" y="479.92" style="stroke: #000000; stroke-width: 4"/>
      </g>
     </g>
     <g id="text_8">
      <!-- 0.2 -->
      <g transform="translate(86.3075 495.116875) scale(0.4 -0.4)">
       <use xlink:href="#DejaVuSans-30"/>
       <use xlink:href="#DejaVuSans-2e" x="63.623047"/>
       <use xlink:href="#DejaVuSans-32" x="95.410156"/>
      </g>
     </g>
    </g>
    <g id="ytick_3">
     <g id="line2d_8">
      <g>
       <use xlink:href="#m9941ffe1ea" x="163.42" y="371.82" style="stroke: #000000; stroke-width: 4"/>
      </g>
     </g>
     <g id="text_9">
      <!-- 0.4 -->
      <g transform="translate(86.3075 387.016875) scale(0.4 -0.4)">
       <use xlink:href="#DejaVuSans-30"/>
       <use xlink:href="#DejaVuSans-2e" x="63.623047"/>
       <use xlink:href="#DejaVuSans-34" x="95.410156"/>
      </g>
     </g>
    </g>
    <g id="ytick_4">
     <g id="line2d_9">
      <g>
       <use xlink:href="#m9941ffe1ea" x="163.42" y="263.72" style="stroke: #000000; stroke-width: 4"/>
      </g>
     </g>
     <g id="text_10">
      <!-- 0.6 -->
      <g transform="translate(86.3075 278.916875) scale(0.4 -0.4)">
       <use xlink:href="#DejaVuSans-30"/>
       <use xlink:href="#DejaVuSans-2e" x="63.623047"/>
       <use xlink:href="#DejaVuSans-36" x="95.410156"/>
      </g>
     </g>
    </g>
    <g id="ytick_5">
     <g id="line2d_10">
      <g>
       <use xlink:href="#m9941ffe1ea" x="163.42" y="155.62" style="stroke: #000000; stroke-width: 4"/>
      </g>
     </g>
     <g id="text_11">
      <!-- 0.8 -->
      <g transform="translate(86.3075 170.816875) scale(0.4 -0.4)">
       <use xlink:href="#DejaVuSans-30"/>
       <use xlink:href="#DejaVuSans-2e" x="63.623047"/>
       <use xlink:href="#DejaVuSans-38" x="95.410156"/>
      </g>
     </g>
    </g>
    <g id="ytick_6">
     <g id="line2d_11">
      <g>
       <use xlink:href="#m9941ffe1ea" x="163.42" y="47.52" style="stroke: #000000; stroke-width: 4"/>
      </g>
     </g>
     <g id="text_12">
      <!-- 1.0 -->
      <g transform="translate(86.3075 62.716875) scale(0.4 -0.4)">
       <defs>
        <path id="DejaVuSans-31" d="M 794 531 
L 1825 531 
L 1825 4091 
L 703 3866 
L 703 4441 
L 1819 4666 
L 2450 4666 
L 2450 531 
L 3481 531 
L 3481 0 
L 794 0 
L 794 531 
z
" transform="scale(0.015625)"/>
       </defs>
       <use xlink:href="#DejaVuSans-31"/>
       <use xlink:href="#DejaVuSans-2e" x="63.623047"/>
       <use xlink:href="#DejaVuSans-30" x="95.410156"/>
      </g>
     </g>
    </g>
    <g id="text_13">
     <!-- DNa02 firing rate difference -->
     <g transform="translate(72.948906 633.002031) rotate(-90) scale(0.45 -0.45)">
      <defs>
       <path id="DejaVuSans-44" d="M 1259 4147 
L 1259 519 
L 2022 519 
Q 2988 519 3436 956 
Q 3884 1394 3884 2338 
Q 3884 3275 3436 3711 
Q 2988 4147 2022 4147 
L 1259 4147 
z
M 628 4666 
L 1925 4666 
Q 3281 4666 3915 4102 
Q 4550 3538 4550 2338 
Q 4550 1131 3912 565 
Q 3275 0 1925 0 
L 628 0 
L 628 4666 
z
" transform="scale(0.015625)"/>
       <path id="DejaVuSans-4e" d="M 628 4666 
L 1478 4666 
L 3547 763 
L 3547 4666 
L 4159 4666 
L 4159 0 
L 3309 0 
L 1241 3903 
L 1241 0 
L 628 0 
L 628 4666 
z
" transform="scale(0.015625)"/>
       <path id="DejaVuSans-61" d="M 2194 1759 
Q 1497 1759 1228 1600 
Q 959 1441 959 1056 
Q 959 750 1161 570 
Q 1363 391 1709 391 
Q 2188 391 2477 730 
Q 2766 1069 2766 1631 
L 2766 1759 
L 2194 1759 
z
M 3341 1997 
L 3341 0 
L 2766 0 
L 2766 531 
Q 2569 213 2275 61 
Q 1981 -91 1556 -91 
Q 1019 -91 701 211 
Q 384 513 384 1019 
Q 384 1609 779 1909 
Q 1175 2209 1959 2209 
L 2766 2209 
L 2766 2266 
Q 2766 2663 2505 2880 
Q 2244 3097 1772 3097 
Q 1472 3097 1187 3025 
Q 903 2953 641 2809 
L 641 3341 
Q 956 3463 1253 3523 
Q 1550 3584 1831 3584 
Q 2591 3584 2966 3190 
Q 3341 2797 3341 1997 
z
" transform="scale(0.015625)"/>
       <path id="DejaVuSans-66" d="M 2375 4863 
L 2375 4384 
L 1825 4384 
Q 1516 4384 1395 4259 
Q 1275 4134 1275 3809 
L 1275 3500 
L 2222 3500 
L 2222 3053 
L 1275 3053 
L 1275 0 
L 697 0 
L 697 3053 
L 147 3053 
L 147 3500 
L 697 3500 
L 697 3744 
Q 697 4328 969 4595 
Q 1241 4863 1831 4863 
L 2375 4863 
z
" transform="scale(0.015625)"/>
       <path id="DejaVuSans-72" d="M 2631 2963 
Q 2534 3019 2420 3045 
Q 2306 3072 2169 3072 
Q 1681 3072 1420 2755 
Q 1159 2438 1159 1844 
L 1159 0 
L 581 0 
L 581 3500 
L 1159 3500 
L 1159 2956 
Q 1341 3275 1631 3429 
Q 1922 3584 2338 3584 
Q 2397 3584 2469 3576 
Q 2541 3569 2628 3553 
L 2631 2963 
z
" transform="scale(0.015625)"/>
       <path id="DejaVuSans-6e" d="M 3513 2113 
L 3513 0 
L 2938 0 
L 2938 2094 
Q 2938 2591 2744 2837 
Q 2550 3084 2163 3084 
Q 1697 3084 1428 2787 
Q 1159 2491 1159 1978 
L 1159 0 
L 581 0 
L 581 3500 
L 1159 3500 
L 1159 2956 
Q 1366 3272 1645 3428 
Q 1925 3584 2291 3584 
Q 2894 3584 3203 3211 
Q 3513 2838 3513 2113 
z
" transform="scale(0.015625)"/>
       <path id="DejaVuSans-67" d="M 2906 1791 
Q 2906 2416 2648 2759 
Q 2391 3103 1925 3103 
Q 1463 3103 1205 2759 
Q 947 2416 947 1791 
Q 947 1169 1205 825 
Q 1463 481 1925 481 
Q 2391 481 2648 825 
Q 2906 1169 2906 1791 
z
M 3481 434 
Q 3481 -459 3084 -895 
Q 2688 -1331 1869 -1331 
Q 1566 -1331 1297 -1286 
Q 1028 -1241 775 -1147 
L 775 -588 
Q 1028 -725 1275 -790 
Q 1522 -856 1778 -856 
Q 2344 -856 2625 -561 
Q 2906 -266 2906 331 
L 2906 616 
Q 2728 306 2450 153 
Q 2172 0 1784 0 
Q 1141 0 747 490 
Q 353 981 353 1791 
Q 353 2603 747 3093 
Q 1141 3584 1784 3584 
Q 2172 3584 2450 3431 
Q 2728 3278 2906 2969 
L 2906 3500 
L 3481 3500 
L 3481 434 
z
" transform="scale(0.015625)"/>
       <path id="DejaVuSans-74" d="M 1172 4494 
L 1172 3500 
L 2356 3500 
L 2356 3053 
L 1172 3053 
L 1172 1153 
Q 1172 725 1289 603 
Q 1406 481 1766 481 
L 2356 481 
L 2356 0 
L 1766 0 
Q 1100 0 847 248 
Q 594 497 594 1153 
L 594 3053 
L 172 3053 
L 172 3500 
L 594 3500 
L 594 4494 
L 1172 4494 
z
" transform="scale(0.015625)"/>
       <path id="DejaVuSans-64" d="M 2906 2969 
L 2906 4863 
L 3481 4863 
L 3481 0 
L 2906 0 
L 2906 525 
Q 2725 213 2448 61 
Q 2172 -91 1784 -91 
Q 1150 -91 751 415 
Q 353 922 353 1747 
Q 353 2572 751 3078 
Q 1150 3584 1784 3584 
Q 2172 3584 2448 3432 
Q 2725 3281 2906 2969 
z
M 947 1747 
Q 947 1113 1208 752 
Q 1469 391 1925 391 
Q 2381 391 2643 752 
Q 2906 1113 2906 1747 
Q 2906 2381 2643 2742 
Q 2381 3103 1925 3103 
Q 1469 3103 1208 2742 
Q 947 2381 947 1747 
z
" transform="scale(0.015625)"/>
       <path id="DejaVuSans-63" d="M 3122 3366 
L 3122 2828 
Q 2878 2963 2633 3030 
Q 2388 3097 2138 3097 
Q 1578 3097 1268 2742 
Q 959 2388 959 1747 
Q 959 1106 1268 751 
Q 1578 397 2138 397 
Q 2388 397 2633 464 
Q 2878 531 3122 666 
L 3122 134 
Q 2881 22 2623 -34 
Q 2366 -91 2075 -91 
Q 1284 -91 818 406 
Q 353 903 353 1747 
Q 353 2603 823 3093 
Q 1294 3584 2113 3584 
Q 2378 3584 2631 3529 
Q 2884 3475 3122 3366 
z
" transform="scale(0.015625)"/>
      </defs>
      <use xlink:href="#DejaVuSans-44"/>
      <use xlink:href="#DejaVuSans-4e" x="77.001953"/>
      <use xlink:href="#DejaVuSans-61" x="151.806641"/>
      <use xlink:href="#DejaVuSans-30" x="213.085938"/>
      <use xlink:href="#DejaVuSans-32" x="276.708984"/>
      <use xlink:href="#DejaVuSans-20" x="340.332031"/>
      <use xlink:href="#DejaVuSans-66" x="372.119141"/>
      <use xlink:href="#DejaVuSans-69" x="407.324219"/>
      <use xlink:href="#DejaVuSans-72" x="435.107422"/>
      <use xlink:href="#DejaVuSans-69" x="476.220703"/>
      <use xlink:href="#DejaVuSans-6e" x="504.003906"/>
      <use xlink:href="#DejaVuSans-67" x="567.382812"/>
      <use xlink:href="#DejaVuSans-20" x="630.859375"/>
      <use xlink:href="#DejaVuSans-72" x="662.646484"/>
      <use xlink:href="#DejaVuSans-61" x="703.759766"/>
      <use xlink:href="#DejaVuSans-74" x="765.039062"/>
      <use xlink:href="#DejaVuSans-65" x="804.248047"/>
      <use xlink:href="#DejaVuSans-20" x="865.771484"/>
      <use xlink:href="#DejaVuSans-64" x="897.558594"/>
      <use xlink:href="#DejaVuSans-69" x="961.035156"/>
      <use xlink:href="#DejaVuSans-66" x="988.818359"/>
      <use xlink:href="#DejaVuSans-66" x="1024.023438"/>
      <use xlink:href="#DejaVuSans-65" x="1059.228516"/>
      <use xlink:href="#DejaVuSans-72" x="1120.751953"/>
      <use xlink:href="#DejaVuSans-65" x="1159.615234"/>
      <use xlink:href="#DejaVuSans-6e" x="1221.138672"/>
      <use xlink:href="#DejaVuSans-63" x="1284.517578"/>
      <use xlink:href="#DejaVuSans-65" x="1339.498047"/>
     </g>
    </g>
   </g>
   <g id="line2d_12">
    <path d="M 196.530468 588.02 
L 239.165524 587.909037 
L 262.014603 587.565382 
L 278.985839 587.078372 
L 311.438153 586.20104 
L 333.707726 585.594537 
L 352.996985 585.072391 
L 376.094423 584.618325 
L 394.47303 584.338035 
L 407.801659 584.322829 
L 425.60076 584.215026 
L 454.576041 583.927974 
L 465.089929 583.863192 
L 516.748716 583.810238 
L 538.52157 583.712965 
L 561.370648 583.762896 
L 580.991053 583.772 
L 605.081929 583.698365 
L 619.735143 583.750331 
L 628.84166 583.757752 
L 636.954738 583.714192 
L 702.604446 583.669164 
L 724.3773 583.855076 
L 820.078514 583.694989 
L 831.58584 583.674993 
L 858.739818 583.716768 
L 858.739818 583.716768 
" clip-path="url(#p0926a91bef)" style="fill: none; stroke-dasharray: 29.6,12.8; stroke-dashoffset: 0; stroke: #ffa500; stroke-width: 8"/>
   </g>
   <g id="line2d_13">
    <path d="M 196.530468 588.02 
L 236.516355 587.909777 
L 253.735951 587.538692 
L 274.929299 586.804396 
L 288.092355 586.178219 
L 330.230693 583.803192 
L 365.994468 582.126265 
L 426.180266 580.278164 
L 441.412985 580.137082 
L 467.490738 579.924669 
L 509.463502 579.527151 
L 520.308536 579.445384 
L 565.096042 578.913802 
L 582.067278 579.063844 
L 593.740176 578.962593 
L 606.240941 579.129369 
L 615.016311 579.09691 
L 625.199053 579.039559 
L 641.507997 578.927978 
L 664.025929 578.710393 
L 730.917435 578.85209 
L 750.703413 578.777955 
L 759.644357 578.693911 
L 768.585301 578.680799 
L 832.827638 578.821084 
L 854.434919 578.767648 
L 858.739818 578.849355 
L 858.739818 578.849355 
" clip-path="url(#p0926a91bef)" style="fill: none; stroke-dasharray: 29.6,12.8; stroke-dashoffset: 0; stroke: #008000; stroke-width: 8"/>
   </g>
   <g id="line2d_14">
    <path d="M 196.530468 588.02 
L 238.668805 587.910329 
L 251.500715 587.57116 
L 260.441659 587.088308 
L 269.299816 586.383238 
L 276.58503 585.613206 
L 281.138288 584.903645 
L 287.016131 583.685365 
L 291.900535 582.400929 
L 296.619367 580.940771 
L 300.427546 579.512888 
L 303.407861 578.138686 
L 309.120131 575.261208 
L 312.514378 573.297016 
L 316.239771 570.892614 
L 320.296311 567.964096 
L 324.35285 564.702298 
L 327.581524 561.878799 
L 331.141344 558.420207 
L 334.535591 554.91803 
L 341.075726 547.619323 
L 345.628985 542.122799 
L 366.491187 515.707142 
L 377.336221 501.333512 
L 382.717344 494.533317 
L 386.442738 490.196137 
L 392.734513 483.095718 
L 399.605794 475.982401 
L 405.566423 470.070761 
L 410.699187 464.980539 
L 417.239322 458.092068 
L 424.110603 450.566229 
L 427.50485 447.282455 
L 430.485165 444.710942 
L 433.713839 442.369156 
L 435.866288 441.006415 
L 438.267097 439.734328 
L 440.58512 438.785535 
L 444.310513 437.473517 
L 450.767861 435.01214 
L 454.162109 433.373821 
L 458.549794 430.91501 
L 462.68912 428.704472 
L 465.752221 427.303067 
L 467.904671 426.495802 
L 471.381704 425.467921 
L 474.610378 424.751146 
L 478.749704 424.122232 
L 481.812805 423.92792 
L 485.207053 423.985131 
L 488.021794 424.186198 
L 496.300446 424.770254 
L 498.949614 424.851086 
L 501.598783 424.760748 
L 504.330738 424.466948 
L 506.64876 423.980597 
L 508.966783 423.328151 
L 514.099547 421.624262 
L 516.748716 420.89666 
L 518.652805 420.531924 
L 521.136401 420.25526 
L 523.040491 420.283632 
L 530.077345 420.444386 
L 545.144491 419.938254 
L 550.028895 420.342663 
L 553.588716 420.906639 
L 561.950154 422.799586 
L 566.668985 423.605087 
L 569.732087 424.032223 
L 572.546828 424.195675 
L 576.106648 424.141434 
L 580.245974 423.680712 
L 582.48121 423.172445 
L 601.522109 418.34107 
L 603.426199 418.147312 
L 609.883547 417.973441 
L 614.767952 417.997567 
L 619.32121 417.865194 
L 621.804806 417.629295 
L 630.331817 416.386416 
L 637.120311 415.027398 
L 643.494873 414.461215 
L 646.971907 414.462943 
L 649.207143 414.73226 
L 652.684177 415.404376 
L 656.989076 416.599282 
L 667.171817 419.191529 
L 674.870963 420.602427 
L 679.672581 421.212495 
L 693.663503 423.081907 
L 696.229885 423.1941 
L 699.955278 423.006684 
L 702.852806 422.584827 
L 705.419188 422.004466 
L 708.23393 421.188017 
L 715.270784 418.744387 
L 717.837166 418.396163 
L 721.728132 418.170084 
L 737.45757 418.178915 
L 743.500986 417.919432 
L 746.232941 417.88407 
L 749.213256 418.107557 
L 752.276357 418.565046 
L 755.505031 419.263357 
L 761.962379 420.847278 
L 772.972986 423.115657 
L 776.284447 423.536373 
L 791.682739 424.851518 
L 802.444986 424.891692 
L 804.928582 424.648641 
L 810.061346 423.588953 
L 815.276896 422.589166 
L 827.694874 420.480147 
L 833.903863 419.291316 
L 845.328402 417.262489 
L 848.22593 416.8257 
L 850.295593 416.722988 
L 852.779188 416.788592 
L 854.683278 417.051719 
L 857.24966 417.639204 
L 858.739818 417.999556 
L 858.739818 417.999556 
" clip-path="url(#p0926a91bef)" style="fill: none; stroke: #ffa500; stroke-width: 8; stroke-linecap: square"/>
   </g>
   <g id="line2d_15">
    <path d="M 196.530468 588.02 
L 236.516355 587.909205 
L 246.450737 587.56803 
L 256.716265 586.976324 
L 263.421973 586.385488 
L 268.140805 585.817453 
L 274.598153 584.783313 
L 278.820265 583.901944 
L 283.45631 582.727914 
L 288.340715 581.24085 
L 291.652176 580.047029 
L 295.129209 578.505475 
L 298.854603 576.624077 
L 302.331636 574.599301 
L 305.229164 572.696013 
L 307.878333 570.68418 
L 310.858648 568.144918 
L 313.756176 565.375516 
L 316.73649 562.239131 
L 319.634018 558.886373 
L 322.531547 555.224487 
L 325.511861 551.043318 
L 328.574962 546.283175 
L 331.886423 540.618981 
L 334.866738 535.063015 
L 337.598693 529.470398 
L 340.330648 523.267808 
L 342.979816 516.704191 
L 345.380625 510.190975 
L 347.947007 502.619625 
L 350.596176 494.120908 
L 353.079771 485.397769 
L 355.894513 474.664598 
L 358.792041 462.800321 
L 361.937929 449.097146 
L 365.332176 433.283688 
L 369.057569 414.773326 
L 373.031322 393.859727 
L 378.743592 362.524418 
L 398.363996 252.86432 
L 401.923816 234.937048 
L 405.566423 217.69573 
L 409.622962 199.573213 
L 413.182783 184.636535 
L 416.245884 172.718083 
L 418.895052 163.26098 
L 421.378648 155.15756 
L 424.027816 147.258294 
L 426.511412 140.489605 
L 429.160581 133.876421 
L 431.809749 127.870971 
L 434.210558 122.94335 
L 436.77694 118.187699 
L 439.177749 114.202253 
L 441.578558 110.64247 
L 444.062154 107.37508 
L 446.545749 104.468516 
L 449.112131 101.828768 
L 451.926873 99.271956 
L 454.741614 97.009313 
L 457.639142 94.9919 
L 460.867817 93.05791 
L 464.096491 91.375314 
L 467.325165 89.938371 
L 471.547277 88.34653 
L 475.852176 86.997623 
L 480.405435 85.793286 
L 484.130828 85.042191 
L 492.243907 83.715626 
L 505.903682 81.752594 
L 513.106109 81.041281 
L 522.709345 80.308709 
L 539.680581 79.145084 
L 572.215682 77.483444 
L 583.226289 77.388428 
L 597.962289 77.339192 
L 608.062244 77.076662 
L 624.205615 76.793908 
L 634.222783 76.892778 
L 651.939098 76.695817 
L 697.471682 75.697123 
L 703.597885 75.71476 
L 727.274829 75.853183 
L 754.09766 75.715907 
L 780.258199 75.917138 
L 791.351593 75.795669 
L 808.819548 75.793779 
L 833.986649 75.431285 
L 852.116896 75.45119 
L 858.739818 75.47298 
L 858.739818 75.47298 
" clip-path="url(#p0926a91bef)" style="fill: none; stroke: #008000; stroke-width: 8; stroke-linecap: square"/>
   </g>
   <g id="patch_3">
    <path d="M 163.42 588.02 
L 163.42 47.52 
" style="fill: none; stroke: #000000; stroke-width: 4; stroke-linejoin: miter; stroke-linecap: square"/>
   </g>
   <g id="patch_4">
    <path d="M 163.42 588.02 
L 891.850285 588.02 
" style="fill: none; stroke: #000000; stroke-width: 4; stroke-linejoin: miter; stroke-linecap: square"/>
   </g>
  </g>
 </g>
 <defs>
  <clipPath id="p0926a91bef">
   <rect x="163.42" y="47.52" width="728.430285" height="540.5"/>
  </clipPath>
 </defs>
</svg>
