<?xml version="1.0" encoding="utf-8" standalone="no"?>
<!DOCTYPE svg PUBLIC "-//W3C//DTD SVG 1.1//EN"
  "http://www.w3.org/Graphics/SVG/1.1/DTD/svg11.dtd">
<svg xmlns:xlink="http://www.w3.org/1999/xlink" width="1080pt" height="360pt" viewBox="0 0 1080 360" xmlns="http://www.w3.org/2000/svg" version="1.1">
 <metadata>
  <rdf:RDF xmlns:dc="http://purl.org/dc/elements/1.1/" xmlns:cc="http://creativecommons.org/ns#" xmlns:rdf="http://www.w3.org/1999/02/22-rdf-syntax-ns#">
   <cc:Work>
    <dc:type rdf:resource="http://purl.org/dc/dcmitype/StillImage"/>
    <dc:date>2025-09-01T14:18:28.163173</dc:date>
    <dc:format>image/svg+xml</dc:format>
    <dc:creator>
     <cc:Agent>
      <dc:title>Matplotlib v3.7.1, https://matplotlib.org/</dc:title>
     </cc:Agent>
    </dc:creator>
   </cc:Work>
  </rdf:RDF>
 </metadata>
 <defs>
  <style type="text/css">*{stroke-linejoin: round; stroke-linecap: butt}</style>
 </defs>
 <g id="figure_1">
  <g id="patch_1">
   <path d="M 0 360 
L 1080 360 
L 1080 0 
L 0 0 
z
" style="fill: #ffffff"/>
  </g>
  <g id="axes_1">
   <g id="patch_2">
    <path d="M 71.56 261.26 
L 312.87 261.26 
L 312.87 93.12 
L 71.56 93.12 
z
" style="fill: #ffffff"/>
   </g>
   <g id="matplotlib.axis_1">
    <g id="xtick_1">
     <g id="line2d_1">
      <defs>
       <path id="m9f96f5c409" d="M 0 0 
L 0 7 
" style="stroke: #000000; stroke-width: 3"/>
      </defs>
      <g>
       <use xlink:href="#m9f96f5c409" x="82.528636" y="261.26" style="stroke: #000000; stroke-width: 3"/>
      </g>
     </g>
     <g id="text_1">
      <!-- 0 -->
      <g transform="translate(77.438636 283.9175) scale(0.16 -0.16)">
       <defs>
        <path id="DejaVuSans-30" d="M 2034 4250 
Q 1547 4250 1301 3770 
Q 1056 3291 1056 2328 
Q 1056 1369 1301 889 
Q 1547 409 2034 409 
Q 2525 409 2770 889 
Q 3016 1369 3016 2328 
Q 3016 3291 2770 3770 
Q 2525 4250 2034 4250 
z
M 2034 4750 
Q 2819 4750 3233 4129 
Q 3647 3509 3647 2328 
Q 3647 1150 3233 529 
Q 2819 -91 2034 -91 
Q 1250 -91 836 529 
Q 422 1150 422 2328 
Q 422 3509 836 4129 
Q 1250 4750 2034 4750 
z
" transform="scale(0.015625)"/>
       </defs>
       <use xlink:href="#DejaVuSans-30"/>
      </g>
     </g>
    </g>
    <g id="xtick_2">
     <g id="line2d_2">
      <g>
       <use xlink:href="#m9f96f5c409" x="137.378674" y="261.26" style="stroke: #000000; stroke-width: 3"/>
      </g>
     </g>
     <g id="text_2">
      <!-- 200 -->
      <g transform="translate(122.108674 283.9175) scale(0.16 -0.16)">
       <defs>
        <path id="DejaVuSans-32" d="M 1228 531 
L 3431 531 
L 3431 0 
L 469 0 
L 469 531 
Q 828 903 1448 1529 
Q 2069 2156 2228 2338 
Q 2531 2678 2651 2914 
Q 2772 3150 2772 3378 
Q 2772 3750 2511 3984 
Q 2250 4219 1831 4219 
Q 1534 4219 1204 4116 
Q 875 4013 500 3803 
L 500 4441 
Q 881 4594 1212 4672 
Q 1544 4750 1819 4750 
Q 2544 4750 2975 4387 
Q 3406 4025 3406 3419 
Q 3406 3131 3298 2873 
Q 3191 2616 2906 2266 
Q 2828 2175 2409 1742 
Q 1991 1309 1228 531 
z
" transform="scale(0.015625)"/>
       </defs>
       <use xlink:href="#DejaVuSans-32"/>
       <use xlink:href="#DejaVuSans-30" x="63.623047"/>
       <use xlink:href="#DejaVuSans-30" x="127.246094"/>
      </g>
     </g>
    </g>
    <g id="xtick_3">
     <g id="line2d_3">
      <g>
       <use xlink:href="#m9f96f5c409" x="192.228713" y="261.26" style="stroke: #000000; stroke-width: 3"/>
      </g>
     </g>
     <g id="text_3">
      <!-- 400 -->
      <g transform="translate(176.958713 283.9175) scale(0.16 -0.16)">
       <defs>
        <path id="DejaVuSans-34" d="M 2419 4116 
L 825 1625 
L 2419 1625 
L 2419 4116 
z
M 2253 4666 
L 3047 4666 
L 3047 1625 
L 3713 1625 
L 3713 1100 
L 3047 1100 
L 3047 0 
L 2419 0 
L 2419 1100 
L 313 1100 
L 313 1709 
L 2253 4666 
z
" transform="scale(0.015625)"/>
       </defs>
       <use xlink:href="#DejaVuSans-34"/>
       <use xlink:href="#DejaVuSans-30" x="63.623047"/>
       <use xlink:href="#DejaVuSans-30" x="127.246094"/>
      </g>
     </g>
    </g>
    <g id="xtick_4">
     <g id="line2d_4">
      <g>
       <use xlink:href="#m9f96f5c409" x="247.078751" y="261.26" style="stroke: #000000; stroke-width: 3"/>
      </g>
     </g>
     <g id="text_4">
      <!-- 600 -->
      <g transform="translate(231.808751 283.9175) scale(0.16 -0.16)">
       <defs>
        <path id="DejaVuSans-36" d="M 2113 2584 
Q 1688 2584 1439 2293 
Q 1191 2003 1191 1497 
Q 1191 994 1439 701 
Q 1688 409 2113 409 
Q 2538 409 2786 701 
Q 3034 994 3034 1497 
Q 3034 2003 2786 2293 
Q 2538 2584 2113 2584 
z
M 3366 4563 
L 3366 3988 
Q 3128 4100 2886 4159 
Q 2644 4219 2406 4219 
Q 1781 4219 1451 3797 
Q 1122 3375 1075 2522 
Q 1259 2794 1537 2939 
Q 1816 3084 2150 3084 
Q 2853 3084 3261 2657 
Q 3669 2231 3669 1497 
Q 3669 778 3244 343 
Q 2819 -91 2113 -91 
Q 1303 -91 875 529 
Q 447 1150 447 2328 
Q 447 3434 972 4092 
Q 1497 4750 2381 4750 
Q 2619 4750 2861 4703 
Q 3103 4656 3366 4563 
z
" transform="scale(0.015625)"/>
       </defs>
       <use xlink:href="#DejaVuSans-36"/>
       <use xlink:href="#DejaVuSans-30" x="63.623047"/>
       <use xlink:href="#DejaVuSans-30" x="127.246094"/>
      </g>
     </g>
    </g>
    <g id="xtick_5">
     <g id="line2d_5">
      <g>
       <use xlink:href="#m9f96f5c409" x="301.928789" y="261.26" style="stroke: #000000; stroke-width: 3"/>
      </g>
     </g>
     <g id="text_5">
      <!-- 800 -->
      <g transform="translate(286.658789 283.9175) scale(0.16 -0.16)">
       <defs>
        <path id="DejaVuSans-38" d="M 2034 2216 
Q 1584 2216 1326 1975 
Q 1069 1734 1069 1313 
Q 1069 891 1326 650 
Q 1584 409 2034 409 
Q 2484 409 2743 651 
Q 3003 894 3003 1313 
Q 3003 1734 2745 1975 
Q 2488 2216 2034 2216 
z
M 1403 2484 
Q 997 2584 770 2862 
Q 544 3141 544 3541 
Q 544 4100 942 4425 
Q 1341 4750 2034 4750 
Q 2731 4750 3128 4425 
Q 3525 4100 3525 3541 
Q 3525 3141 3298 2862 
Q 3072 2584 2669 2484 
Q 3125 2378 3379 2068 
Q 3634 1759 3634 1313 
Q 3634 634 3220 271 
Q 2806 -91 2034 -91 
Q 1263 -91 848 271 
Q 434 634 434 1313 
Q 434 1759 690 2068 
Q 947 2378 1403 2484 
z
M 1172 3481 
Q 1172 3119 1398 2916 
Q 1625 2713 2034 2713 
Q 2441 2713 2670 2916 
Q 2900 3119 2900 3481 
Q 2900 3844 2670 4047 
Q 2441 4250 2034 4250 
Q 1625 4250 1398 4047 
Q 1172 3844 1172 3481 
z
" transform="scale(0.015625)"/>
       </defs>
       <use xlink:href="#DejaVuSans-38"/>
       <use xlink:href="#DejaVuSans-30" x="63.623047"/>
       <use xlink:href="#DejaVuSans-30" x="127.246094"/>
      </g>
     </g>
    </g>
    <g id="text_6">
     <!-- Time (ms) -->
     <g transform="translate(136.776719 307.961563) scale(0.22 -0.22)">
      <defs>
       <path id="DejaVuSans-54" d="M -19 4666 
L 3928 4666 
L 3928 4134 
L 2272 4134 
L 2272 0 
L 1638 0 
L 1638 4134 
L -19 4134 
L -19 4666 
z
" transform="scale(0.015625)"/>
       <path id="DejaVuSans-69" d="M 603 3500 
L 1178 3500 
L 1178 0 
L 603 0 
L 603 3500 
z
M 603 4863 
L 1178 4863 
L 1178 4134 
L 603 4134 
L 603 4863 
z
" transform="scale(0.015625)"/>
       <path id="DejaVuSans-6d" d="M 3328 2828 
Q 3544 3216 3844 3400 
Q 4144 3584 4550 3584 
Q 5097 3584 5394 3201 
Q 5691 2819 5691 2113 
L 5691 0 
L 5113 0 
L 5113 2094 
Q 5113 2597 4934 2840 
Q 4756 3084 4391 3084 
Q 3944 3084 3684 2787 
Q 3425 2491 3425 1978 
L 3425 0 
L 2847 0 
L 2847 2094 
Q 2847 2600 2669 2842 
Q 2491 3084 2119 3084 
Q 1678 3084 1418 2786 
Q 1159 2488 1159 1978 
L 1159 0 
L 581 0 
L 581 3500 
L 1159 3500 
L 1159 2956 
Q 1356 3278 1631 3431 
Q 1906 3584 2284 3584 
Q 2666 3584 2933 3390 
Q 3200 3197 3328 2828 
z
" transform="scale(0.015625)"/>
       <path id="DejaVuSans-65" d="M 3597 1894 
L 3597 1613 
L 953 1613 
Q 991 1019 1311 708 
Q 1631 397 2203 397 
Q 2534 397 2845 478 
Q 3156 559 3463 722 
L 3463 178 
Q 3153 47 2828 -22 
Q 2503 -91 2169 -91 
Q 1331 -91 842 396 
Q 353 884 353 1716 
Q 353 2575 817 3079 
Q 1281 3584 2069 3584 
Q 2775 3584 3186 3129 
Q 3597 2675 3597 1894 
z
M 3022 2063 
Q 3016 2534 2758 2815 
Q 2500 3097 2075 3097 
Q 1594 3097 1305 2825 
Q 1016 2553 972 2059 
L 3022 2063 
z
" transform="scale(0.015625)"/>
       <path id="DejaVuSans-20" transform="scale(0.015625)"/>
       <path id="DejaVuSans-28" d="M 1984 4856 
Q 1566 4138 1362 3434 
Q 1159 2731 1159 2009 
Q 1159 1288 1364 580 
Q 1569 -128 1984 -844 
L 1484 -844 
Q 1016 -109 783 600 
Q 550 1309 550 2009 
Q 550 2706 781 3412 
Q 1013 4119 1484 4856 
L 1984 4856 
z
" transform="scale(0.015625)"/>
       <path id="DejaVuSans-73" d="M 2834 3397 
L 2834 2853 
Q 2591 2978 2328 3040 
Q 2066 3103 1784 3103 
Q 1356 3103 1142 2972 
Q 928 2841 928 2578 
Q 928 2378 1081 2264 
Q 1234 2150 1697 2047 
L 1894 2003 
Q 2506 1872 2764 1633 
Q 3022 1394 3022 966 
Q 3022 478 2636 193 
Q 2250 -91 1575 -91 
Q 1294 -91 989 -36 
Q 684 19 347 128 
L 347 722 
Q 666 556 975 473 
Q 1284 391 1588 391 
Q 1994 391 2212 530 
Q 2431 669 2431 922 
Q 2431 1156 2273 1281 
Q 2116 1406 1581 1522 
L 1381 1569 
Q 847 1681 609 1914 
Q 372 2147 372 2553 
Q 372 3047 722 3315 
Q 1072 3584 1716 3584 
Q 2034 3584 2315 3537 
Q 2597 3491 2834 3397 
z
" transform="scale(0.015625)"/>
       <path id="DejaVuSans-29" d="M 513 4856 
L 1013 4856 
Q 1481 4119 1714 3412 
Q 1947 2706 1947 2009 
Q 1947 1309 1714 600 
Q 1481 -109 1013 -844 
L 513 -844 
Q 928 -128 1133 580 
Q 1338 1288 1338 2009 
Q 1338 2731 1133 3434 
Q 928 4138 513 4856 
z
" transform="scale(0.015625)"/>
      </defs>
      <use xlink:href="#DejaVuSans-54"/>
      <use xlink:href="#DejaVuSans-69" x="57.958984"/>
      <use xlink:href="#DejaVuSans-6d" x="85.742188"/>
      <use xlink:href="#DejaVuSans-65" x="183.154297"/>
      <use xlink:href="#DejaVuSans-20" x="244.677734"/>
      <use xlink:href="#DejaVuSans-28" x="276.464844"/>
      <use xlink:href="#DejaVuSans-6d" x="315.478516"/>
      <use xlink:href="#DejaVuSans-73" x="412.890625"/>
      <use xlink:href="#DejaVuSans-29" x="464.990234"/>
     </g>
    </g>
   </g>
   <g id="matplotlib.axis_2">
    <g id="ytick_1">
     <g id="line2d_6">
      <defs>
       <path id="mb8c06f1f46" d="M 0 0 
L -7 0 
" style="stroke: #000000; stroke-width: 3"/>
      </defs>
      <g>
       <use xlink:href="#mb8c06f1f46" x="71.56" y="261.26" style="stroke: #000000; stroke-width: 3"/>
      </g>
     </g>
     <g id="text_7">
      <!-- 0.0 -->
      <g transform="translate(35.615 267.33875) scale(0.16 -0.16)">
       <defs>
        <path id="DejaVuSans-2e" d="M 684 794 
L 1344 794 
L 1344 0 
L 684 0 
L 684 794 
z
" transform="scale(0.015625)"/>
       </defs>
       <use xlink:href="#DejaVuSans-30"/>
       <use xlink:href="#DejaVuSans-2e" x="63.623047"/>
       <use xlink:href="#DejaVuSans-30" x="95.410156"/>
      </g>
     </g>
    </g>
    <g id="ytick_2">
     <g id="line2d_7">
      <g>
       <use xlink:href="#mb8c06f1f46" x="71.56" y="227.632" style="stroke: #000000; stroke-width: 3"/>
      </g>
     </g>
     <g id="text_8">
      <!-- 0.2 -->
      <g transform="translate(35.615 233.71075) scale(0.16 -0.16)">
       <use xlink:href="#DejaVuSans-30"/>
       <use xlink:href="#DejaVuSans-2e" x="63.623047"/>
       <use xlink:href="#DejaVuSans-32" x="95.410156"/>
      </g>
     </g>
    </g>
    <g id="ytick_3">
     <g id="line2d_8">
      <g>
       <use xlink:href="#mb8c06f1f46" x="71.56" y="194.004" style="stroke: #000000; stroke-width: 3"/>
      </g>
     </g>
     <g id="text_9">
      <!-- 0.4 -->
      <g transform="translate(35.615 200.08275) scale(0.16 -0.16)">
       <use xlink:href="#DejaVuSans-30"/>
       <use xlink:href="#DejaVuSans-2e" x="63.623047"/>
       <use xlink:href="#DejaVuSans-34" x="95.410156"/>
      </g>
     </g>
    </g>
    <g id="ytick_4">
     <g id="line2d_9">
      <g>
       <use xlink:href="#mb8c06f1f46" x="71.56" y="160.376" style="stroke: #000000; stroke-width: 3"/>
      </g>
     </g>
     <g id="text_10">
      <!-- 0.6 -->
      <g transform="translate(35.615 166.45475) scale(0.16 -0.16)">
       <use xlink:href="#DejaVuSans-30"/>
       <use xlink:href="#DejaVuSans-2e" x="63.623047"/>
       <use xlink:href="#DejaVuSans-36" x="95.410156"/>
      </g>
     </g>
    </g>
    <g id="ytick_5">
     <g id="line2d_10">
      <g>
       <use xlink:href="#mb8c06f1f46" x="71.56" y="126.748" style="stroke: #000000; stroke-width: 3"/>
      </g>
     </g>
     <g id="text_11">
      <!-- 0.8 -->
      <g transform="translate(35.615 132.82675) scale(0.16 -0.16)">
       <use xlink:href="#DejaVuSans-30"/>
       <use xlink:href="#DejaVuSans-2e" x="63.623047"/>
       <use xlink:href="#DejaVuSans-38" x="95.410156"/>
      </g>
     </g>
    </g>
    <g id="ytick_6">
     <g id="line2d_11">
      <g>
       <use xlink:href="#mb8c06f1f46" x="71.56" y="93.12" style="stroke: #000000; stroke-width: 3"/>
      </g>
     </g>
     <g id="text_12">
      <!-- 1.0 -->
      <g transform="translate(35.615 99.19875) scale(0.16 -0.16)">
       <defs>
        <path id="DejaVuSans-31" d="M 794 531 
L 1825 531 
L 1825 4091 
L 703 3866 
L 703 4441 
L 1819 4666 
L 2450 4666 
L 2450 531 
L 3481 531 
L 3481 0 
L 794 0 
L 794 531 
z
" transform="scale(0.015625)"/>
       </defs>
       <use xlink:href="#DejaVuSans-31"/>
       <use xlink:href="#DejaVuSans-2e" x="63.623047"/>
       <use xlink:href="#DejaVuSans-30" x="95.410156"/>
      </g>
     </g>
    </g>
    <g id="text_13">
     <!-- Firing rate -->
     <g transform="translate(27.039687 233.147344) rotate(-90) scale(0.22 -0.22)">
      <defs>
       <path id="DejaVuSans-46" d="M 628 4666 
L 3309 4666 
L 3309 4134 
L 1259 4134 
L 1259 2759 
L 3109 2759 
L 3109 2228 
L 1259 2228 
L 1259 0 
L 628 0 
L 628 4666 
z
" transform="scale(0.015625)"/>
       <path id="DejaVuSans-72" d="M 2631 2963 
Q 2534 3019 2420 3045 
Q 2306 3072 2169 3072 
Q 1681 3072 1420 2755 
Q 1159 2438 1159 1844 
L 1159 0 
L 581 0 
L 581 3500 
L 1159 3500 
L 1159 2956 
Q 1341 3275 1631 3429 
Q 1922 3584 2338 3584 
Q 2397 3584 2469 3576 
Q 2541 3569 2628 3553 
L 2631 2963 
z
" transform="scale(0.015625)"/>
       <path id="DejaVuSans-6e" d="M 3513 2113 
L 3513 0 
L 2938 0 
L 2938 2094 
Q 2938 2591 2744 2837 
Q 2550 3084 2163 3084 
Q 1697 3084 1428 2787 
Q 1159 2491 1159 1978 
L 1159 0 
L 581 0 
L 581 3500 
L 1159 3500 
L 1159 2956 
Q 1366 3272 1645 3428 
Q 1925 3584 2291 3584 
Q 2894 3584 3203 3211 
Q 3513 2838 3513 2113 
z
" transform="scale(0.015625)"/>
       <path id="DejaVuSans-67" d="M 2906 1791 
Q 2906 2416 2648 2759 
Q 2391 3103 1925 3103 
Q 1463 3103 1205 2759 
Q 947 2416 947 1791 
Q 947 1169 1205 825 
Q 1463 481 1925 481 
Q 2391 481 2648 825 
Q 2906 1169 2906 1791 
z
M 3481 434 
Q 3481 -459 3084 -895 
Q 2688 -1331 1869 -1331 
Q 1566 -1331 1297 -1286 
Q 1028 -1241 775 -1147 
L 775 -588 
Q 1028 -725 1275 -790 
Q 1522 -856 1778 -856 
Q 2344 -856 2625 -561 
Q 2906 -266 2906 331 
L 2906 616 
Q 2728 306 2450 153 
Q 2172 0 1784 0 
Q 1141 0 747 490 
Q 353 981 353 1791 
Q 353 2603 747 3093 
Q 1141 3584 1784 3584 
Q 2172 3584 2450 3431 
Q 2728 3278 2906 2969 
L 2906 3500 
L 3481 3500 
L 3481 434 
z
" transform="scale(0.015625)"/>
       <path id="DejaVuSans-61" d="M 2194 1759 
Q 1497 1759 1228 1600 
Q 959 1441 959 1056 
Q 959 750 1161 570 
Q 1363 391 1709 391 
Q 2188 391 2477 730 
Q 2766 1069 2766 1631 
L 2766 1759 
L 2194 1759 
z
M 3341 1997 
L 3341 0 
L 2766 0 
L 2766 531 
Q 2569 213 2275 61 
Q 1981 -91 1556 -91 
Q 1019 -91 701 211 
Q 384 513 384 1019 
Q 384 1609 779 1909 
Q 1175 2209 1959 2209 
L 2766 2209 
L 2766 2266 
Q 2766 2663 2505 2880 
Q 2244 3097 1772 3097 
Q 1472 3097 1187 3025 
Q 903 2953 641 2809 
L 641 3341 
Q 956 3463 1253 3523 
Q 1550 3584 1831 3584 
Q 2591 3584 2966 3190 
Q 3341 2797 3341 1997 
z
" transform="scale(0.015625)"/>
       <path id="DejaVuSans-74" d="M 1172 4494 
L 1172 3500 
L 2356 3500 
L 2356 3053 
L 1172 3053 
L 1172 1153 
Q 1172 725 1289 603 
Q 1406 481 1766 481 
L 2356 481 
L 2356 0 
L 1766 0 
Q 1100 0 847 248 
Q 594 497 594 1153 
L 594 3053 
L 172 3053 
L 172 3500 
L 594 3500 
L 594 4494 
L 1172 4494 
z
" transform="scale(0.015625)"/>
      </defs>
      <use xlink:href="#DejaVuSans-46"/>
      <use xlink:href="#DejaVuSans-69" x="50.269531"/>
      <use xlink:href="#DejaVuSans-72" x="78.052734"/>
      <use xlink:href="#DejaVuSans-69" x="119.166016"/>
      <use xlink:href="#DejaVuSans-6e" x="146.949219"/>
      <use xlink:href="#DejaVuSans-67" x="210.328125"/>
      <use xlink:href="#DejaVuSans-20" x="273.804688"/>
      <use xlink:href="#DejaVuSans-72" x="305.591797"/>
      <use xlink:href="#DejaVuSans-61" x="346.705078"/>
      <use xlink:href="#DejaVuSans-74" x="407.984375"/>
      <use xlink:href="#DejaVuSans-65" x="447.193359"/>
     </g>
    </g>
   </g>
   <g id="line2d_12">
    <path d="M 82.528636 261.26 
L 84.420963 260.601224 
L 86.368139 260.151359 
L 89.905966 259.593864 
L 98.435147 258.430418 
L 104.413802 257.271972 
L 106.169003 256.679601 
L 111.324906 254.571394 
L 114.725609 252.841279 
L 115.904885 251.923841 
L 117.797211 250.156189 
L 118.949062 248.874885 
L 121.828689 245.351818 
L 125.558491 240.465133 
L 126.381242 239.089014 
L 127.450818 236.935418 
L 130.57727 229.92825 
L 131.893671 226.410862 
L 133.456897 221.311502 
L 134.691023 216.737307 
L 136.857599 207.531362 
L 139.462976 196.433228 
L 141.821528 186.864794 
L 143.247629 180.140743 
L 146.867731 160.838437 
L 148.513232 151.195327 
L 151.310584 134.628003 
L 152.59956 128.50836 
L 153.861111 123.620578 
L 154.930687 120.235482 
L 156.192237 116.940307 
L 157.426363 114.276464 
L 159.291265 110.996436 
L 160.552816 109.241783 
L 161.924066 107.640085 
L 164.310043 105.206124 
L 166.120094 103.628771 
L 167.765596 102.411294 
L 169.273972 101.586541 
L 173.469999 99.773962 
L 175.718851 98.838636 
L 177.693452 98.077717 
L 179.860029 97.505512 
L 182.191156 97.122975 
L 184.275457 96.982941 
L 187.319634 97.016048 
L 189.26681 96.96 
L 192.201287 96.601528 
L 197.110366 95.935062 
L 203.52782 95.487039 
L 215.320579 94.689837 
L 228.594288 94.632135 
L 239.344895 95.00453 
L 244.994449 94.856308 
L 248.696827 94.810227 
L 254.894881 94.911655 
L 259.090909 95.02838 
L 262.711011 94.791079 
L 266.879614 94.517027 
L 270.746542 94.524213 
L 274.83287 94.534829 
L 282.621575 94.404809 
L 291.342731 94.531033 
L 294.249783 94.788342 
L 297.952161 95.209903 
L 300.365563 95.236537 
L 301.901364 95.162437 
L 301.901364 95.162437 
" clip-path="url(#p866c60bc72)" style="fill: none; stroke: #0000ff; stroke-width: 4; stroke-linecap: square"/>
   </g>
   <g id="line2d_13">
    <path d="M 82.528636 261.26 
L 84.448388 260.590687 
L 86.587539 260.088555 
L 90.043092 259.520175 
L 95.802346 258.872942 
L 98.654548 258.522601 
L 102.466625 257.947802 
L 108.253304 256.904456 
L 113.354358 256.035063 
L 121.197913 254.853218 
L 123.74844 254.442546 
L 128.575243 253.300133 
L 134.855573 252.986024 
L 140.669677 252.841747 
L 143.000803 252.738101 
L 145.469055 252.839434 
L 147.745332 252.882814 
L 149.363408 252.855591 
L 155.780862 253.054144 
L 159.15414 253.195625 
L 161.238441 253.203408 
L 163.788968 253.164343 
L 166.284645 253.000831 
L 172.098749 253.016946 
L 173.96365 252.997411 
L 178.433928 253.32689 
L 180.024579 253.377427 
L 183.370431 253.413119 
L 189.431361 253.225744 
L 192.365838 253.539094 
L 196.013365 253.963379 
L 198.042817 253.966045 
L 202.951895 253.688645 
L 206.462297 254.075827 
L 208.738574 254.300975 
L 211.151976 254.387042 
L 213.483102 254.435044 
L 215.594829 254.412988 
L 217.18548 254.34673 
L 220.421632 254.204609 
L 223.410959 254.088025 
L 233.640491 253.770111 
L 235.916768 253.584095 
L 244.226549 253.584411 
L 248.641977 253.920625 
L 252.508904 254.17223 
L 255.333681 254.107945 
L 260.105635 253.749501 
L 262.656161 253.993469 
L 266.715064 254.321483 
L 276.258971 254.167937 
L 278.041597 254.386079 
L 281.524574 254.641611 
L 283.992826 254.519756 
L 290.547406 253.901376 
L 293.728708 253.64405 
L 297.01971 253.33428 
L 299.021737 253.424014 
L 301.901364 253.688109 
L 301.901364 253.688109 
" clip-path="url(#p866c60bc72)" style="fill: none; stroke: #ff0000; stroke-width: 4; stroke-linecap: square"/>
   </g>
   <g id="line2d_14">
    <path d="M 82.528636 261.26 
L 84.503238 260.567802 
L 86.998914 259.99023 
L 89.960817 259.55104 
L 98.764248 258.385946 
L 102.5489 257.667044 
L 105.785053 256.886751 
L 108.856655 255.823789 
L 111.544307 254.505021 
L 112.888132 253.644764 
L 115.054709 251.958972 
L 119.086187 248.305028 
L 120.375163 246.910324 
L 121.307613 245.546649 
L 123.062814 242.307588 
L 124.543766 239.14231 
L 126.573217 233.861545 
L 127.533093 230.767531 
L 129.397994 223.780623 
L 132.688996 209.119313 
L 133.785997 202.866533 
L 134.937848 195.118837 
L 136.144549 185.505303 
L 137.488375 172.780599 
L 140.971352 139.240048 
L 142.370028 128.129818 
L 143.576729 120.186493 
L 144.67373 114.388232 
L 145.71588 110.022696 
L 146.785456 106.416548 
L 147.882457 103.479837 
L 148.924607 101.310493 
L 149.939333 99.667559 
L 151.008909 98.335742 
L 152.16076 97.232227 
L 153.449736 96.30115 
L 154.820987 95.576017 
L 156.493913 94.958583 
L 158.386239 94.499658 
L 160.909341 94.143403 
L 164.118068 93.934848 
L 172.729524 93.628136 
L 188.526335 93.492304 
L 301.901364 93.45954 
L 301.901364 93.45954 
" clip-path="url(#p866c60bc72)" style="fill: none; stroke-dasharray: 4,6.6; stroke-dashoffset: 0; stroke: #0000ff; stroke-width: 4"/>
   </g>
   <g id="line2d_15">
    <path d="M 82.528636 261.26 
L 84.558088 260.545593 
L 86.971489 259.946601 
L 89.686566 259.49148 
L 97.557547 258.576037 
L 101.479325 258.074709 
L 113.546333 255.85133 
L 118.318286 254.537419 
L 121.252763 253.405454 
L 123.69359 252.489284 
L 126.161842 251.504999 
L 128.657518 249.949383 
L 133.950547 246.145969 
L 135.897723 244.634026 
L 138.201425 242.903222 
L 140.779377 241.442182 
L 142.726553 240.640401 
L 145.139955 239.589242 
L 150.350708 236.597366 
L 152.736685 234.916932 
L 154.162786 233.921264 
L 155.863137 232.663339 
L 157.481213 230.942049 
L 158.441089 229.669242 
L 160.964191 225.955411 
L 163.569568 221.829025 
L 166.037819 218.682214 
L 166.833145 218.086861 
L 168.698046 216.969464 
L 169.383672 216.150034 
L 171.111448 213.736529 
L 173.442574 209.931824 
L 176.623877 205.744556 
L 177.336927 205.184491 
L 180.518229 202.61467 
L 181.94433 201.325447 
L 183.480131 200.238433 
L 184.083482 199.467281 
L 185.070783 197.741875 
L 187.785859 192.307767 
L 191.378537 186.24611 
L 193.517688 183.251043 
L 194.313014 181.870837 
L 195.98594 178.270286 
L 197.384616 175.382553 
L 198.454192 173.164047 
L 199.414067 171.208473 
L 200.538493 169.251362 
L 201.169269 168.623364 
L 201.882319 167.941068 
L 203.30842 166.340739 
L 204.295721 165.604568 
L 206.380022 164.642503 
L 207.120498 163.833642 
L 207.860973 163.033252 
L 208.656299 162.006346 
L 210.6309 158.96441 
L 212.687777 155.93314 
L 215.539979 151.515306 
L 216.691829 150.749345 
L 217.596855 150.467034 
L 218.611581 150.424101 
L 219.653732 150.518769 
L 220.942707 150.805057 
L 221.518633 150.928205 
L 222.094558 150.809503 
L 223.027009 150.385447 
L 223.767484 149.823481 
L 226.756811 147.069091 
L 230.925414 142.403816 
L 232.982291 141.037168 
L 233.832466 140.666272 
L 234.847192 140.476804 
L 235.916768 140.58574 
L 239.15292 141.105189 
L 240.908121 140.631816 
L 241.950272 139.926179 
L 242.773023 139.398846 
L 243.486073 139.17293 
L 244.089424 139.172717 
L 244.583074 139.332232 
L 246.09145 139.969044 
L 249.108202 141.715116 
L 250.287478 141.659647 
L 250.808553 141.366737 
L 252.015254 140.265668 
L 254.922306 137.038285 
L 255.909607 136.472316 
L 257.582533 135.530587 
L 258.185883 134.996019 
L 259.96851 133.17905 
L 262.765861 130.233681 
L 263.533762 129.70918 
L 264.822738 128.934662 
L 265.727764 128.056912 
L 267.67494 125.772988 
L 269.018766 124.343207 
L 270.472292 123.3304 
L 271.103067 123.138501 
L 272.638868 122.993238 
L 273.516469 123.132946 
L 275.76532 123.648267 
L 276.972021 123.611494 
L 277.739922 123.480105 
L 281.634275 122.444531 
L 282.347325 122.404286 
L 283.005526 122.55047 
L 283.937976 123.067305 
L 285.364077 124.158884 
L 286.461078 125.153195 
L 287.256403 126.108038 
L 288.325979 127.758484 
L 292.631707 134.365341 
L 293.344758 134.930408 
L 294.030383 135.126308 
L 295.072534 135.174216 
L 295.895284 134.951606 
L 296.498635 134.570409 
L 298.144136 133.546002 
L 299.679937 132.909883 
L 301.901364 132.191688 
L 301.901364 132.191688 
" clip-path="url(#p866c60bc72)" style="fill: none; stroke-dasharray: 4,6.6; stroke-dashoffset: 0; stroke: #ff0000; stroke-width: 4"/>
   </g>
   <g id="patch_3">
    <path d="M 71.56 261.26 
L 71.56 93.12 
" style="fill: none; stroke: #000000; stroke-width: 3; stroke-linejoin: miter; stroke-linecap: square"/>
   </g>
   <g id="patch_4">
    <path d="M 71.56 261.26 
L 312.87 261.26 
" style="fill: none; stroke: #000000; stroke-width: 3; stroke-linejoin: miter; stroke-linecap: square"/>
   </g>
   <g id="text_14">
    <!-- DNa02 -->
    <g transform="translate(151.37375 87.12) scale(0.24 -0.24)">
     <defs>
      <path id="DejaVuSans-44" d="M 1259 4147 
L 1259 519 
L 2022 519 
Q 2988 519 3436 956 
Q 3884 1394 3884 2338 
Q 3884 3275 3436 3711 
Q 2988 4147 2022 4147 
L 1259 4147 
z
M 628 4666 
L 1925 4666 
Q 3281 4666 3915 4102 
Q 4550 3538 4550 2338 
Q 4550 1131 3912 565 
Q 3275 0 1925 0 
L 628 0 
L 628 4666 
z
" transform="scale(0.015625)"/>
      <path id="DejaVuSans-4e" d="M 628 4666 
L 1478 4666 
L 3547 763 
L 3547 4666 
L 4159 4666 
L 4159 0 
L 3309 0 
L 1241 3903 
L 1241 0 
L 628 0 
L 628 4666 
z
" transform="scale(0.015625)"/>
     </defs>
     <use xlink:href="#DejaVuSans-44"/>
     <use xlink:href="#DejaVuSans-4e" x="77.001953"/>
     <use xlink:href="#DejaVuSans-61" x="151.806641"/>
     <use xlink:href="#DejaVuSans-30" x="213.085938"/>
     <use xlink:href="#DejaVuSans-32" x="276.708984"/>
    </g>
   </g>
  </g>
  <g id="axes_2">
   <g id="patch_5">
    <path d="M 323.67 261.26 
L 564.98 261.26 
L 564.98 93.12 
L 323.67 93.12 
z
" style="fill: #ffffff"/>
   </g>
   <g id="matplotlib.axis_3">
    <g id="xtick_6">
     <g id="line2d_16">
      <g>
       <use xlink:href="#m9f96f5c409" x="334.638636" y="261.26" style="stroke: #000000; stroke-width: 3"/>
      </g>
     </g>
    </g>
    <g id="xtick_7">
     <g id="line2d_17">
      <g>
       <use xlink:href="#m9f96f5c409" x="389.488674" y="261.26" style="stroke: #000000; stroke-width: 3"/>
      </g>
     </g>
    </g>
    <g id="xtick_8">
     <g id="line2d_18">
      <g>
       <use xlink:href="#m9f96f5c409" x="444.338713" y="261.26" style="stroke: #000000; stroke-width: 3"/>
      </g>
     </g>
    </g>
    <g id="xtick_9">
     <g id="line2d_19">
      <g>
       <use xlink:href="#m9f96f5c409" x="499.188751" y="261.26" style="stroke: #000000; stroke-width: 3"/>
      </g>
     </g>
    </g>
    <g id="xtick_10">
     <g id="line2d_20">
      <g>
       <use xlink:href="#m9f96f5c409" x="554.038789" y="261.26" style="stroke: #000000; stroke-width: 3"/>
      </g>
     </g>
    </g>
   </g>
   <g id="matplotlib.axis_4"/>
   <g id="line2d_21">
    <path d="M 334.638636 261.26 
L 337.490838 259.471372 
L 339.602565 258.487097 
L 343.359792 256.661133 
L 349.640122 252.763808 
L 353.61675 249.481253 
L 354.302375 248.857638 
L 355.838176 247.067124 
L 357.456252 244.490186 
L 359.650254 240.636961 
L 362.063655 237.257143 
L 364.449632 233.922917 
L 366.040283 231.739708 
L 367.027584 230.202948 
L 369.24901 225.417423 
L 371.223612 221.956039 
L 373.225638 219.36432 
L 374.404914 218.181392 
L 378.025016 215.101987 
L 380.548118 211.248927 
L 381.096619 210.882844 
L 382.083919 210.463361 
L 383.18092 209.450468 
L 384.195646 208.293615 
L 385.210371 207.066309 
L 385.978272 206.339674 
L 386.499347 205.810899 
L 387.130123 205.086145 
L 388.281974 204.107548 
L 388.720774 203.978823 
L 389.049874 203.819701 
L 389.598375 203.629408 
L 390.421125 203.46415 
L 391.243876 203.287013 
L 391.737526 203.450138 
L 392.148901 203.384292 
L 392.532852 203.157862 
L 394.068653 202.105633 
L 394.397753 201.702852 
L 395.851279 200.207055 
L 396.372354 199.785222 
L 396.83858 199.470224 
L 397.71618 199.238375 
L 398.04528 199.055316 
L 398.785756 198.590503 
L 399.087431 198.405627 
L 399.608506 197.844562 
L 400.074732 197.218634 
L 400.513532 196.642413 
L 402.241308 194.442184 
L 402.817234 194.40766 
L 403.201184 194.378938 
L 403.886809 194.369274 
L 405.943686 194.428221 
L 406.437336 194.456953 
L 406.793861 194.523194 
L 408.137687 194.391274 
L 409.399238 194.039697 
L 409.810614 193.986499 
L 410.880189 193.408106 
L 411.456115 193.238139 
L 412.41599 193.27683 
L 412.827366 193.261163 
L 413.540416 193.201162 
L 414.226042 193.036011 
L 414.829392 192.81338 
L 415.158492 192.654389 
L 416.886268 191.834672 
L 418.065544 191.516786 
L 418.888295 191.100393 
L 419.68362 191.179812 
L 420.917746 191.437947 
L 421.274271 191.578346 
L 422.069597 191.602925 
L 422.974623 190.946269 
L 423.687673 190.398506 
L 424.153898 189.990411 
L 424.510424 189.791623 
L 424.976649 189.780938 
L 425.63485 189.906254 
L 425.881675 189.796039 
L 428.624177 187.552107 
L 429.090402 187.71151 
L 429.968003 188.055019 
L 430.598778 188.284876 
L 431.256978 188.365554 
L 432.079729 188.372895 
L 432.875055 188.493652 
L 433.862355 188.389948 
L 434.685106 188.710405 
L 435.562706 188.982144 
L 436.083782 189.089482 
L 437.427608 189.496298 
L 438.881134 189.804192 
L 439.758734 189.394837 
L 442.117286 187.58028 
L 442.912612 187.228877 
L 443.132012 187.067092 
L 444.009612 186.182652 
L 444.612963 186.115809 
L 445.984214 185.830146 
L 446.423014 185.647556 
L 446.834389 185.621858 
L 448.233065 185.886533 
L 449.165516 186.023924 
L 449.905991 186.194796 
L 450.454492 186.408922 
L 452.730768 185.76475 
L 453.498669 185.264619 
L 454.047169 185.101443 
L 454.513395 185.065976 
L 455.445845 184.80297 
L 455.857221 184.66157 
L 458.819123 183.416958 
L 459.395048 183.117445 
L 460.245224 183.07299 
L 461.80845 182.830034 
L 462.13755 182.791572 
L 462.8506 182.817523 
L 463.344251 182.519129 
L 464.660652 182.10563 
L 465.291427 182.103583 
L 465.977053 182.457883 
L 466.251303 182.486518 
L 466.964353 182.39535 
L 468.527579 182.946835 
L 468.774404 182.793484 
L 469.487455 182.31023 
L 471.516906 181.501294 
L 471.928282 181.568768 
L 472.586482 181.451087 
L 473.326958 181.18122 
L 473.683483 181.120614 
L 474.533658 181.02212 
L 474.999884 181.310933 
L 476.371135 182.345539 
L 477.27616 183.13779 
L 477.769811 183.377033 
L 478.290886 183.721324 
L 480.238062 184.677972 
L 480.841413 184.754045 
L 481.197938 184.617064 
L 481.554463 184.465975 
L 482.404639 184.561169 
L 483.50164 185.060666 
L 483.803315 185.203769 
L 484.26954 185.289939 
L 484.516365 185.320271 
L 484.955166 185.263285 
L 485.284266 185.373904 
L 485.668216 185.636919 
L 487.094317 186.423528 
L 487.587968 186.390635 
L 488.355868 185.893901 
L 490.193344 183.96921 
L 492.798721 184.353772 
L 494.937873 183.814236 
L 495.678348 183.402003 
L 496.528524 183.183173 
L 497.049599 182.911594 
L 497.323849 182.965342 
L 497.98205 183.224431 
L 498.503125 183.52674 
L 499.654976 184.483018 
L 499.956651 184.547631 
L 501.053652 184.325838 
L 502.699153 184.004192 
L 504.015554 184.457986 
L 505.167405 184.934078 
L 505.990155 185.111388 
L 506.922606 185.581021 
L 507.306556 185.919065 
L 507.992182 186.495399 
L 508.376132 186.554144 
L 508.787507 186.35137 
L 510.515283 184.73364 
L 511.036359 184.233786 
L 512.18821 183.216473 
L 512.57216 182.804593 
L 513.367485 181.915926 
L 514.107961 181.380029 
L 514.464486 181.275004 
L 514.793586 181.003678 
L 515.588912 180.26661 
L 516.631063 179.878407 
L 516.932738 179.915315 
L 517.563513 180.547891 
L 518.578239 181.489579 
L 519.538115 181.959043 
L 520.086615 182.123688 
L 520.525415 182.392081 
L 521.649841 183.297632 
L 522.225767 183.625872 
L 522.691992 183.700102 
L 523.871268 184.162531 
L 524.392343 184.019299 
L 525.407069 182.909985 
L 526.120119 181.948952 
L 527.21712 181.140568 
L 528.149571 180.730777 
L 528.752921 181.030373 
L 529.685372 181.680164 
L 531.193748 182.340913 
L 531.550273 182.272941 
L 533.634574 181.087045 
L 534.3202 181.183593 
L 534.6493 181.397512 
L 535.856001 182.176753 
L 536.459351 182.21109 
L 537.007852 182.204995 
L 537.474077 182.217131 
L 537.803177 182.173285 
L 538.269403 182.216677 
L 538.735628 182.299011 
L 540.353704 182.653711 
L 541.505555 183.258347 
L 543.205906 184.013078 
L 544.851407 185.532314 
L 545.399908 186.541868 
L 546.469483 188.121685 
L 546.826009 188.369477 
L 547.401934 188.475689 
L 547.676184 188.232827 
L 548.19726 187.879836 
L 549.486235 187.363007 
L 553.188613 184.043097 
L 553.874239 183.759824 
L 554.011364 183.755312 
L 554.011364 183.755312 
" clip-path="url(#pe8eaa38fa1)" style="fill: none; stroke: #0000ff; stroke-width: 4; stroke-linecap: square"/>
   </g>
   <g id="line2d_22">
    <path d="M 334.638636 261.26 
L 337.655388 259.360521 
L 347.254145 254.572949 
L 349.119046 253.619838 
L 351.916398 251.71237 
L 358.937203 245.617779 
L 360.500429 244.264254 
L 363.188081 242.279807 
L 364.312507 241.452811 
L 366.479083 240.216661 
L 367.438959 239.772045 
L 368.42626 239.100403 
L 369.989486 237.948249 
L 370.921937 237.550847 
L 371.799537 237.200621 
L 372.649713 236.665248 
L 373.362763 236.435933 
L 374.651739 236.057245 
L 375.36479 235.495404 
L 377.311966 233.607178 
L 378.271842 232.940734 
L 379.204292 232.168917 
L 379.917343 231.972955 
L 380.356143 231.985632 
L 382.056494 232.410765 
L 382.85182 232.481545 
L 383.318045 232.549932 
L 383.701995 232.460429 
L 384.524746 232.183562 
L 387.952873 232.342212 
L 388.638499 232.433755 
L 389.68065 232.381816 
L 390.3937 232.282684 
L 390.99705 232.227852 
L 391.545551 232.126252 
L 392.944227 231.558455 
L 393.766977 231.506226 
L 395.055953 231.614316 
L 396.098104 231.877813 
L 397.00313 232.120339 
L 398.868031 232.39035 
L 399.608506 232.256623 
L 400.787782 231.85928 
L 401.418558 232.062637 
L 402.131608 232.277129 
L 403.612559 232.543349 
L 406.574461 232.508673 
L 407.205237 232.678241 
L 407.836012 232.737044 
L 409.371813 232.723662 
L 411.81264 233.192385 
L 413.677541 232.939833 
L 414.308317 232.978871 
L 415.158492 232.898889 
L 415.679568 232.711973 
L 417.023394 232.192887 
L 417.955844 232.212621 
L 421.219421 233.129867 
L 421.603372 233.163957 
L 422.042172 233.121319 
L 425.004074 232.496488 
L 428.185376 233.254548 
L 429.035552 233.664257 
L 430.379378 234.026665 
L 431.119853 234.144201 
L 432.628229 233.963104 
L 433.368705 234.139076 
L 433.752655 234.154131 
L 434.21888 234.018994 
L 434.767381 233.860457 
L 435.315881 233.696272 
L 436.028932 233.636375 
L 436.577432 233.673117 
L 438.771434 233.428359 
L 439.978134 233.000003 
L 441.32196 233.190673 
L 442.446386 233.637954 
L 443.104587 233.983479 
L 444.119312 234.678966 
L 445.929364 235.507089 
L 446.587564 235.603892 
L 447.300615 235.618302 
L 447.87654 235.701481 
L 448.617015 235.611555 
L 449.823716 235.29776 
L 451.990293 234.101777 
L 453.416394 233.838725 
L 454.102019 234.143629 
L 456.131471 235.128503 
L 456.954221 235.514223 
L 458.078647 236.059226 
L 458.572297 236.306548 
L 459.340198 236.571727 
L 460.437199 236.673085 
L 461.8633 236.62508 
L 462.603775 236.669068 
L 463.207126 236.552702 
L 464.057301 236.368688 
L 464.742927 236.493202 
L 465.949628 236.807146 
L 467.211178 236.587608 
L 467.896804 236.209746 
L 468.527579 236.00598 
L 469.158355 236.107913 
L 469.597155 236.114677 
L 471.544331 235.87052 
L 472.531632 235.732683 
L 473.573783 235.525837 
L 476.45341 235.510442 
L 477.495561 235.27109 
L 478.839386 235.311178 
L 479.716987 235.226989 
L 480.567163 235.287245 
L 481.472188 235.351507 
L 482.706314 235.66597 
L 483.28224 235.528818 
L 485.421391 234.485819 
L 486.436117 234.068889 
L 487.615393 234.011201 
L 489.425444 234.302779 
L 491.729145 234.523673 
L 492.524471 234.178198 
L 493.045546 234.05108 
L 493.511772 234.115956 
L 494.499072 234.309477 
L 495.102423 234.477334 
L 496.144573 234.839671 
L 496.747924 234.94401 
L 498.4757 235.421936 
L 499.408151 235.599142 
L 500.587427 235.782502 
L 502.095803 236.141413 
L 504.810879 236.094439 
L 505.41423 236.012188 
L 505.96273 235.986921 
L 507.279131 235.422327 
L 509.500558 234.057914 
L 510.021633 233.965312 
L 511.228334 234.373355 
L 513.915986 235.704085 
L 514.821011 236.240163 
L 516.685913 236.933792 
L 517.371538 237.129835 
L 517.837764 237.052278 
L 519.812365 236.199792 
L 520.44314 236.005451 
L 521.265891 236.01267 
L 521.896666 236.021071 
L 523.240492 235.698012 
L 524.639168 235.215773 
L 525.160244 235.280219 
L 527.10742 236.08791 
L 527.902746 236.121588 
L 528.506096 236.307888 
L 531.056623 237.548137 
L 531.989073 237.775053 
L 533.223199 237.578039 
L 534.237925 237.453984 
L 534.841275 237.260079 
L 536.459351 236.261608 
L 537.336952 235.946168 
L 538.406528 235.565451 
L 539.366403 235.10869 
L 539.942329 234.84497 
L 540.87478 234.800229 
L 541.670105 234.971702 
L 542.629981 235.100137 
L 544.494882 234.839137 
L 546.469483 233.838524 
L 547.319659 233.419008 
L 547.895584 233.297884 
L 548.444085 233.448116 
L 552.036762 234.482671 
L 552.557838 234.556947 
L 553.106338 234.772264 
L 553.791963 235.274766 
L 554.011364 235.488269 
L 554.011364 235.488269 
" clip-path="url(#pe8eaa38fa1)" style="fill: none; stroke: #ff0000; stroke-width: 4; stroke-linecap: square"/>
   </g>
   <g id="line2d_23">
    <path d="M 334.638636 261.26 
L 338.423289 258.843786 
L 340.041365 258.018969 
L 343.277517 256.506036 
L 345.389244 255.3926 
L 346.56852 254.799987 
L 347.994621 253.863334 
L 353.123099 249.812076 
L 357.538527 244.765012 
L 360.966655 239.47167 
L 362.913831 235.884962 
L 364.257657 233.416476 
L 366.753334 228.188181 
L 368.453685 225.351568 
L 369.02961 224.51243 
L 369.797511 223.484916 
L 370.921937 222.141439 
L 372.320613 220.246764 
L 372.978813 218.880134 
L 374.569464 215.230698 
L 375.47449 213.786378 
L 377.860466 210.485368 
L 378.628367 209.658855 
L 379.286567 208.555019 
L 380.164168 207.106255 
L 380.630393 206.590552 
L 381.672544 205.058517 
L 382.029069 204.67176 
L 383.263195 203.76845 
L 384.442471 203.150873 
L 385.841147 200.837347 
L 386.225097 200.165551 
L 388.665924 195.564658 
L 390.1743 192.59898 
L 393.300752 188.570208 
L 393.931528 187.794705 
L 395.494754 185.514257 
L 396.262654 184.782404 
L 397.33223 184.230688 
L 397.633905 184.00936 
L 399.032581 182.165233 
L 399.992457 180.708188 
L 401.939633 178.703679 
L 403.530284 177.378112 
L 404.49016 176.155199 
L 405.943686 174.034268 
L 406.547036 173.352343 
L 406.958412 172.914701 
L 407.424637 172.578767 
L 408.302237 171.6114 
L 409.015288 170.785381 
L 409.591213 170.434878 
L 410.551089 169.910736 
L 411.044739 169.71842 
L 411.785215 169.561164 
L 412.114315 169.46941 
L 412.635391 169.284397 
L 413.732391 169.291175 
L 414.664842 169.618586 
L 415.926393 169.627922 
L 416.392618 169.200784 
L 417.133094 168.009176 
L 417.763869 167.059482 
L 418.257519 166.383505 
L 419.217395 165.015314 
L 420.122421 164.353283 
L 420.780621 164.193882 
L 421.383972 164.045279 
L 422.700372 162.913638 
L 423.440848 162.905898 
L 424.071623 163.161593 
L 425.7994 163.088988 
L 426.18335 162.897307 
L 426.7867 162.637672 
L 427.033525 162.562553 
L 428.020826 161.844437 
L 430.297103 159.815179 
L 431.229553 159.412094 
L 433.423555 159.560545 
L 433.78008 159.307362 
L 435.453006 158.167003 
L 435.891807 158.167504 
L 436.275757 158.344788 
L 437.016232 158.704561 
L 437.564733 158.964874 
L 438.579459 159.598549 
L 439.731309 159.819523 
L 440.22496 160.027506 
L 440.526635 159.97909 
L 440.93801 159.92862 
L 441.26711 160.198908 
L 442.638361 161.155451 
L 443.241712 161.156586 
L 443.954762 160.841364 
L 444.640388 160.376172 
L 445.188888 160.059649 
L 445.517988 160.039262 
L 446.231039 160.301783 
L 446.916664 160.133159 
L 447.465165 159.630764 
L 448.58959 158.68482 
L 449.330066 158.263495 
L 449.741441 158.23963 
L 450.838442 158.288599 
L 451.359517 158.262301 
L 452.099993 158.376762 
L 452.813043 158.689712 
L 453.169569 158.779552 
L 455.007045 158.983224 
L 455.857221 158.781304 
L 457.118771 157.997867 
L 457.530147 157.907586 
L 458.462597 158.239092 
L 458.873973 158.323381 
L 459.395048 158.12565 
L 460.629174 157.211821 
L 461.177674 156.968109 
L 462.02785 156.874229 
L 462.8506 157.057941 
L 463.261976 157.116937 
L 464.715502 157.325987 
L 465.291427 157.397757 
L 465.702802 157.468887 
L 466.086753 157.536497 
L 466.662678 157.609137 
L 467.540279 157.84031 
L 467.896804 157.893783 
L 468.692129 158.237091 
L 469.62458 157.877894 
L 470.474756 157.472278 
L 471.050681 157.038347 
L 471.324931 156.980471 
L 472.586482 156.975852 
L 473.628633 156.79239 
L 474.231983 156.940509 
L 474.862759 156.809698 
L 475.850059 156.290751 
L 476.45341 156.318824 
L 476.78251 156.380095 
L 477.742386 156.385558 
L 479.936387 156.977661 
L 481.088238 156.827503 
L 481.527038 156.737835 
L 482.486914 156.891794 
L 482.953139 157.014363 
L 483.72104 157.769576 
L 484.10499 158.154741 
L 484.818041 158.425908 
L 485.366541 158.443597 
L 485.887616 158.4614 
L 487.313717 158.96257 
L 487.807368 159.088673 
L 488.301018 159.228963 
L 489.260894 159.123962 
L 489.672269 158.675827 
L 490.138494 158.349193 
L 490.467595 158.074778 
L 492.497046 155.865332 
L 493.072971 155.766921 
L 493.429497 155.976102 
L 493.731172 156.071618 
L 496.775349 155.308977 
L 497.104449 155.172017 
L 497.433549 155.190841 
L 498.9145 155.351402 
L 500.587427 155.231536 
L 500.971377 155.405873 
L 501.327902 155.692286 
L 501.848977 156.34824 
L 502.452328 156.985585 
L 502.863703 157.120037 
L 503.549329 157.084543 
L 504.152679 156.998499 
L 504.92058 156.717218 
L 505.57878 156.361513 
L 506.319256 156.259581 
L 509.363433 154.551939 
L 509.719958 154.680997 
L 510.131333 154.970482 
L 510.515283 155.429438 
L 511.036359 156.055796 
L 511.502584 156.413767 
L 511.859109 156.296351 
L 512.435035 156.018483 
L 512.983535 155.873053 
L 514.711311 155.981559 
L 515.177537 156.066679 
L 516.384238 156.054465 
L 517.069863 156.187936 
L 517.316688 156.322416 
L 517.810339 156.568174 
L 518.112014 156.634445 
L 518.907339 156.699488 
L 520.49799 156.701563 
L 520.964216 156.979244 
L 523.350192 157.395248 
L 523.734143 157.420945 
L 524.035818 157.421031 
L 525.955569 157.555405 
L 527.38167 156.75306 
L 527.847895 156.41435 
L 528.451246 155.93719 
L 529.109446 155.218344 
L 529.603097 155.089245 
L 530.645247 155.454605 
L 530.974348 155.52238 
L 532.345599 155.709775 
L 532.647274 155.565271 
L 532.921524 155.520718 
L 533.7717 155.456892 
L 534.2105 155.196836 
L 535.636601 154.565538 
L 536.047976 154.672515 
L 536.706177 154.764467 
L 537.117552 154.779803 
L 537.720902 154.920224 
L 538.653353 154.86366 
L 539.119578 154.732207 
L 539.668079 154.735922 
L 540.518254 154.942581 
L 541.231305 154.885886 
L 542.438006 154.454412 
L 542.876806 154.436428 
L 543.370456 154.513944 
L 544.083507 154.602347 
L 544.494882 154.806674 
L 545.454758 155.526686 
L 549.486235 159.579139 
L 549.925036 159.580932 
L 550.720361 159.167275 
L 551.652812 158.45972 
L 552.311012 158.109068 
L 553.106338 158.001002 
L 554.011364 157.594744 
L 554.011364 157.594744 
" clip-path="url(#pe8eaa38fa1)" style="fill: none; stroke-dasharray: 4,6.6; stroke-dashoffset: 0; stroke: #0000ff; stroke-width: 4"/>
   </g>
   <g id="line2d_24">
    <path d="M 334.638636 261.26 
L 340.672141 257.329092 
L 345.169844 255.161271 
L 351.642148 251.853822 
L 352.985974 250.772386 
L 357.319127 246.85349 
L 359.266303 244.899597 
L 360.527854 244.151728 
L 361.186055 243.730387 
L 362.831556 242.354459 
L 364.641607 240.389469 
L 365.793458 239.029929 
L 366.890459 237.636108 
L 367.713209 236.669167 
L 370.208886 234.323882 
L 372.923963 230.809029 
L 373.417613 230.212389 
L 375.337365 228.473845 
L 377.695916 226.755601 
L 378.326692 225.831164 
L 379.396267 224.19788 
L 380.986919 222.175739 
L 381.398294 221.64961 
L 381.919369 221.20131 
L 383.34547 220.338216 
L 384.744146 219.150587 
L 387.376948 217.361305 
L 388.062573 216.62614 
L 389.132149 215.912704 
L 389.8452 215.858837 
L 391.381001 215.462178 
L 392.615127 215.262298 
L 393.657277 215.348785 
L 394.480028 215.116694 
L 395.357629 214.875497 
L 396.098104 214.626761 
L 396.866005 214.393574 
L 398.04528 213.743201 
L 398.566356 213.690471 
L 399.114856 213.588719 
L 399.635931 213.554658 
L 399.992457 213.53518 
L 400.513532 213.339362 
L 401.500833 212.676123 
L 402.707534 212.434451 
L 403.283459 212.276457 
L 404.353035 211.97262 
L 405.916261 211.362014 
L 407.616612 210.874572 
L 408.933013 209.849796 
L 409.536363 209.549354 
L 409.975164 209.217818 
L 410.496239 208.809667 
L 410.989889 208.547409 
L 411.620665 208.149956 
L 411.949765 208.018441 
L 413.019341 207.889011 
L 413.567841 207.551484 
L 414.308317 207.313709 
L 417.681594 206.984324 
L 418.449495 207.14568 
L 418.86087 207.280297 
L 419.327095 207.439521 
L 420.341821 207.374878 
L 421.000021 206.868307 
L 421.987322 205.971372 
L 423.194023 205.23084 
L 423.824798 204.892884 
L 424.674974 204.668972 
L 425.936525 204.998165 
L 426.7867 204.808 
L 427.965976 204.994896 
L 430.269678 204.877261 
L 431.092428 204.821409 
L 431.421529 204.807126 
L 431.915179 204.529808 
L 433.094455 204.040762 
L 434.959356 204.30289 
L 435.782107 203.855759 
L 437.455033 202.266952 
L 438.387483 201.987365 
L 438.853709 201.757829 
L 439.127959 201.792412 
L 439.511909 201.87299 
L 440.22496 202.017203 
L 441.705911 202.110411 
L 442.638361 201.944535 
L 443.104587 202.137514 
L 444.064462 202.274297 
L 444.612963 202.157576 
L 445.874514 201.720437 
L 447.300615 200.572599 
L 447.958815 200.10309 
L 448.507315 200.026841 
L 449.083241 199.985049 
L 449.549466 200.039682 
L 449.905991 200.028866 
L 451.441792 199.665401 
L 452.703343 199.938423 
L 453.087294 200.309731 
L 453.608369 200.686387 
L 453.910044 200.655192 
L 454.86992 200.250414 
L 456.570271 200.556023 
L 457.365597 200.77868 
L 458.023797 200.484885 
L 458.901398 199.773765 
L 459.641873 199.321764 
L 460.135523 199.255391 
L 460.711449 198.931808 
L 461.671325 198.187367 
L 462.055275 198.317207 
L 462.603775 198.544089 
L 463.179701 198.5844 
L 464.660652 198.193804 
L 465.318852 198.056617 
L 466.772378 197.852737 
L 467.375729 198.219039 
L 468.390454 199.039215 
L 469.377755 199.398303 
L 470.886131 199.599831 
L 472.586482 199.531538 
L 473.656058 199.451556 
L 475.411259 198.270292 
L 476.23401 197.867173 
L 476.590535 197.862726 
L 477.05676 197.817111 
L 477.413285 197.714398 
L 477.989211 197.655291 
L 478.318311 197.609638 
L 478.949087 197.385124 
L 479.415312 197.44623 
L 480.183212 197.400866 
L 480.594588 197.257466 
L 481.033388 197.17951 
L 481.993264 196.927206 
L 482.624039 197.132755 
L 483.94044 197.609922 
L 484.872891 197.606511 
L 486.820067 198.157053 
L 487.587968 198.353599 
L 488.657543 198.50048 
L 490.851545 198.318592 
L 493.895722 196.642342 
L 494.636197 196.713202 
L 495.157273 197.012426 
L 496.418824 197.935313 
L 496.912474 198.288009 
L 497.241574 198.327877 
L 497.9272 198.460362 
L 498.74995 198.639541 
L 499.0242 198.736312 
L 499.517851 198.794034 
L 500.203476 198.836092 
L 500.669702 198.675601 
L 501.355327 198.125479 
L 501.848977 197.885751 
L 502.150653 197.752829 
L 503.686454 196.445425 
L 504.207529 196.207433 
L 504.646329 195.945092 
L 505.03028 195.905156 
L 505.57878 195.938478 
L 506.154705 196.062114 
L 506.456381 196.300547 
L 507.717932 196.968654 
L 508.595532 197.123097 
L 509.006907 196.915677 
L 509.637683 196.583201 
L 509.884508 196.480232 
L 510.679834 196.023276 
L 511.365459 195.92227 
L 511.557434 195.840724 
L 512.07851 195.596724 
L 513.778861 195.098444 
L 514.272511 195.153345 
L 515.067837 195.29881 
L 516.274537 195.782359 
L 516.877888 195.465669 
L 518.962189 194.246853 
L 519.428415 194.103095 
L 520.799666 194.143944 
L 522.308042 194.821122 
L 522.774267 194.938666 
L 523.926118 195.468748 
L 524.502043 195.572441 
L 525.379644 195.824361 
L 526.065269 195.979343 
L 527.244545 195.909797 
L 527.87532 195.59104 
L 530.370997 194.428756 
L 530.837223 194.520832 
L 531.824523 194.682111 
L 532.702124 194.752925 
L 533.387749 194.645222 
L 533.799125 194.701554 
L 534.128225 194.848842 
L 534.896125 195.335988 
L 535.773726 195.934198 
L 536.596477 196.639165 
L 536.898152 196.637112 
L 537.474077 196.46687 
L 538.351678 196.737124 
L 538.790478 196.964488 
L 539.092153 197.14665 
L 540.92963 198.214527 
L 541.47813 198.230291 
L 542.300881 198.383121 
L 543.343031 198.388546 
L 543.918957 198.258641 
L 544.302907 198.190396 
L 544.933682 197.918094 
L 545.454758 197.536949 
L 546.167808 196.969348 
L 546.551758 196.885471 
L 546.880859 196.842803 
L 547.648759 196.668549 
L 548.41666 196.411219 
L 548.74576 196.279102 
L 549.45881 196.293637 
L 550.308986 196.554266 
L 551.680237 196.763067 
L 553.243463 196.634646 
L 554.011364 196.589488 
L 554.011364 196.589488 
" clip-path="url(#pe8eaa38fa1)" style="fill: none; stroke-dasharray: 4,6.6; stroke-dashoffset: 0; stroke: #ff0000; stroke-width: 4"/>
   </g>
   <g id="patch_6">
    <path d="M 323.67 261.26 
L 564.98 261.26 
" style="fill: none; stroke: #000000; stroke-width: 3; stroke-linejoin: miter; stroke-linecap: square"/>
   </g>
   <g id="text_15">
    <!-- LAL010 -->
    <g transform="translate(399.56875 87.12) scale(0.24 -0.24)">
     <defs>
      <path id="DejaVuSans-4c" d="M 628 4666 
L 1259 4666 
L 1259 531 
L 3531 531 
L 3531 0 
L 628 0 
L 628 4666 
z
" transform="scale(0.015625)"/>
      <path id="DejaVuSans-41" d="M 2188 4044 
L 1331 1722 
L 3047 1722 
L 2188 4044 
z
M 1831 4666 
L 2547 4666 
L 4325 0 
L 3669 0 
L 3244 1197 
L 1141 1197 
L 716 0 
L 50 0 
L 1831 4666 
z
" transform="scale(0.015625)"/>
     </defs>
     <use xlink:href="#DejaVuSans-4c"/>
     <use xlink:href="#DejaVuSans-41" x="57.962891"/>
     <use xlink:href="#DejaVuSans-4c" x="126.371094"/>
     <use xlink:href="#DejaVuSans-30" x="182.083984"/>
     <use xlink:href="#DejaVuSans-31" x="245.707031"/>
     <use xlink:href="#DejaVuSans-30" x="309.330078"/>
    </g>
   </g>
  </g>
  <g id="axes_3">
   <g id="patch_7">
    <path d="M 575.78 261.26 
L 817.09 261.26 
L 817.09 93.12 
L 575.78 93.12 
z
" style="fill: #ffffff"/>
   </g>
   <g id="matplotlib.axis_5">
    <g id="xtick_11">
     <g id="line2d_25">
      <g>
       <use xlink:href="#m9f96f5c409" x="586.748636" y="261.26" style="stroke: #000000; stroke-width: 3"/>
      </g>
     </g>
    </g>
    <g id="xtick_12">
     <g id="line2d_26">
      <g>
       <use xlink:href="#m9f96f5c409" x="641.598674" y="261.26" style="stroke: #000000; stroke-width: 3"/>
      </g>
     </g>
    </g>
    <g id="xtick_13">
     <g id="line2d_27">
      <g>
       <use xlink:href="#m9f96f5c409" x="696.448713" y="261.26" style="stroke: #000000; stroke-width: 3"/>
      </g>
     </g>
    </g>
    <g id="xtick_14">
     <g id="line2d_28">
      <g>
       <use xlink:href="#m9f96f5c409" x="751.298751" y="261.26" style="stroke: #000000; stroke-width: 3"/>
      </g>
     </g>
    </g>
    <g id="xtick_15">
     <g id="line2d_29">
      <g>
       <use xlink:href="#m9f96f5c409" x="806.148789" y="261.26" style="stroke: #000000; stroke-width: 3"/>
      </g>
     </g>
    </g>
   </g>
   <g id="matplotlib.axis_6"/>
   <g id="line2d_30">
    <path d="M 586.748636 261.26 
L 588.586113 260.152175 
L 590.012214 259.526107 
L 591.931965 258.899573 
L 597.691219 257.23618 
L 602.051797 255.826136 
L 605.479924 254.50293 
L 607.04315 253.843862 
L 608.222426 253.153549 
L 609.813077 251.976666 
L 613.405755 249.241874 
L 615.188381 247.917908 
L 618.424533 245.484479 
L 619.027884 244.946868 
L 624.841988 238.457419 
L 626.953714 236.686723 
L 630.491542 233.880843 
L 632.767818 231.283375 
L 633.782544 230.620053 
L 634.605295 229.94839 
L 637.402647 227.200973 
L 640.145148 224.370746 
L 642.256875 222.924581 
L 643.874951 222.256269 
L 644.423451 222.008629 
L 646.260928 220.665336 
L 649.05828 217.882417 
L 650.539231 216.756492 
L 651.773356 215.597206 
L 654.515858 211.934791 
L 655.832259 211.118583 
L 658.574761 210.014722 
L 659.040987 209.892471 
L 660.960738 209.121155 
L 661.481813 208.965335 
L 662.194864 208.673219 
L 663.70324 207.856381 
L 666.445742 206.913724 
L 668.831718 205.443399 
L 670.120694 204.857627 
L 671.217695 204.235577 
L 672.534096 204.016446 
L 674.481272 203.964454 
L 676.126773 202.79474 
L 676.784974 202.380435 
L 677.470599 202.256702 
L 677.96425 202.095185 
L 678.485325 201.583675 
L 679.472626 200.771396 
L 680.103401 200.126012 
L 680.679327 199.649041 
L 681.282677 199.544326 
L 682.708778 199.524787 
L 683.613804 199.442003 
L 683.997754 199.43008 
L 686.657981 199.431681 
L 687.535581 199.658441 
L 688.468032 199.815937 
L 690.168383 200.304569 
L 691.183109 200.480238 
L 691.786459 200.340755 
L 693.48681 199.338067 
L 694.199861 198.86974 
L 695.488837 198.011342 
L 696.284162 197.359046 
L 697.216613 197.125435 
L 697.874813 196.88813 
L 698.697564 196.496189 
L 699.43804 196.408207 
L 699.794565 196.419526 
L 700.48019 196.386423 
L 701.632041 196.408846 
L 702.153116 196.508089 
L 702.564492 196.560745 
L 704.566518 195.995918 
L 706.458844 195.077421 
L 707.007345 194.83379 
L 707.665545 194.645111 
L 708.104346 194.462675 
L 709.996672 193.670457 
L 711.093673 193.074598 
L 711.806723 192.804799 
L 712.574624 192.669482 
L 713.671624 192.406877 
L 714.494375 192.260293 
L 715.042875 192.169627 
L 715.536526 191.914733 
L 716.222151 191.6188 
L 716.880352 191.473408 
L 717.346577 191.42689 
L 718.525853 191.643515 
L 719.046928 191.589282 
L 720.747279 191.990913 
L 723.654331 190.822308 
L 724.367382 190.735913 
L 725.711208 190.219962 
L 726.533958 189.955992 
L 726.945334 189.995024 
L 728.50856 190.628707 
L 731.360762 192.223862 
L 731.909262 192.546837 
L 732.869138 192.901799 
L 733.390213 192.885418 
L 733.938714 192.912465 
L 735.063139 193.228441 
L 735.61164 193.498237 
L 735.968165 193.637938 
L 737.503966 193.89743 
L 739.094617 194.748326 
L 739.780243 194.87066 
L 740.438443 194.718094 
L 741.508019 193.972548 
L 742.221069 193.400726 
L 743.70202 193.379074 
L 744.277946 193.428648 
L 744.963571 193.319396 
L 746.170272 193.057956 
L 746.801047 192.933116 
L 747.678648 192.391895 
L 749.406424 191.722053 
L 750.777675 192.072488 
L 751.984376 192.744986 
L 752.478026 192.748616 
L 755.522204 192.803538 
L 757.52423 193.615797 
L 758.209855 193.816332 
L 760.019907 194.860174 
L 760.486132 195.005998 
L 761.007207 194.889729 
L 761.555708 194.52449 
L 763.118934 193.582125 
L 765.148385 191.881366 
L 766.245386 191.002505 
L 766.766461 190.683898 
L 768.603938 189.242018 
L 769.152438 189.114866 
L 769.755788 189.375288 
L 771.67554 190.055305 
L 772.470865 190.212903 
L 773.019366 190.61897 
L 774.088941 191.223452 
L 774.500317 191.338059 
L 774.993967 191.533381 
L 775.981268 191.928965 
L 776.557193 191.871976 
L 777.242819 191.482135 
L 777.818744 190.851699 
L 778.394669 190.38259 
L 780.122446 189.26055 
L 780.670946 189.246638 
L 781.109746 189.432787 
L 781.987347 189.718128 
L 782.371297 189.842482 
L 783.276323 190.214291 
L 783.797398 190.188855 
L 784.510449 189.919425 
L 785.717149 189.529045 
L 786.238225 189.539075 
L 786.786725 189.721095 
L 787.993426 190.206253 
L 788.596776 190.236743 
L 789.693777 190.234937 
L 790.351978 190.216181 
L 791.202153 190.340661 
L 792.600829 190.549504 
L 794.19148 191.085812 
L 794.959381 191.363852 
L 796.522607 192.516206 
L 797.263082 193.492304 
L 798.661758 195.499629 
L 799.265109 195.97674 
L 799.649059 196.108358 
L 800.41696 196.025586 
L 801.376835 196.049789 
L 801.925336 195.860512 
L 802.857786 195.297534 
L 804.283887 194.264348 
L 805.216338 193.562841 
L 806.011664 193.153353 
L 806.121364 193.126248 
L 806.121364 193.126248 
" clip-path="url(#p6aa5f42034)" style="fill: none; stroke: #0000ff; stroke-width: 4; stroke-linecap: square"/>
   </g>
   <g id="line2d_31">
    <path d="M 586.748636 261.26 
L 588.640963 260.117011 
L 590.204189 259.433615 
L 592.50789 258.600996 
L 595.552067 257.710682 
L 600.269171 256.605759 
L 601.750122 256.167194 
L 607.591651 254.074013 
L 612.966955 251.785425 
L 615.791732 250.648025 
L 616.916157 250.23505 
L 621.605836 248.459524 
L 623.361037 247.888465 
L 624.128937 247.592938 
L 625.253363 247.205668 
L 627.447365 246.504095 
L 631.286867 244.393038 
L 632.246743 244.105268 
L 633.096919 244.076652 
L 633.700269 244.049609 
L 636.168521 243.696771 
L 636.881571 243.57972 
L 638.801322 243.318585 
L 639.678923 243.245538 
L 641.050174 243.148745 
L 643.682976 242.764521 
L 645.191352 242.364328 
L 646.590028 242.177925 
L 648.592054 242.22192 
L 649.99073 242.247217 
L 651.526531 242.142424 
L 653.364008 241.78861 
L 654.461008 241.845527 
L 657.861711 241.717953 
L 658.876436 241.73652 
L 660.494513 241.748427 
L 661.289838 241.745907 
L 664.52599 241.778008 
L 665.540716 241.695621 
L 667.049092 241.629913 
L 667.899268 241.445668 
L 669.462494 241.056842 
L 670.148119 241.059329 
L 674.234447 241.447937 
L 677.168924 241.046506 
L 680.405076 241.277309 
L 681.172977 241.425833 
L 683.531529 241.668778 
L 684.573679 241.627527 
L 685.478705 241.746318 
L 686.027205 241.751396 
L 688.166357 241.535521 
L 688.934257 241.540778 
L 691.539634 241.342877 
L 692.55436 241.247296 
L 693.706211 241.358051 
L 694.501536 241.459252 
L 695.269437 241.630256 
L 697.271463 242.246046 
L 698.752414 242.500903 
L 699.465465 242.539808 
L 700.452765 242.599374 
L 701.878866 242.470194 
L 705.690944 241.544108 
L 707.58327 241.94864 
L 709.228771 242.328839 
L 710.600022 242.707776 
L 712.080973 242.968614 
L 713.616774 243.019288 
L 714.4121 243.066189 
L 715.701076 242.965672 
L 716.578676 242.971184 
L 719.184053 243.16838 
L 721.29578 242.92486 
L 721.89913 242.892814 
L 730.208911 242.208691 
L 734.185539 242.394438 
L 735.008289 242.415851 
L 736.352115 242.118191 
L 738.162166 241.586335 
L 739.094617 241.480653 
L 740.657843 241.576464 
L 744.195671 241.582009 
L 745.210396 241.370848 
L 746.773622 241.47204 
L 750.229175 241.91493 
L 751.682701 242.12499 
L 752.697427 242.274838 
L 754.726878 242.590407 
L 756.97573 242.658193 
L 757.74363 242.657351 
L 758.648656 242.573943 
L 759.773081 242.244603 
L 762.378458 241.537194 
L 765.17581 242.09255 
L 766.409936 242.451528 
L 767.314962 242.652607 
L 768.329687 242.816493 
L 769.125013 243.040776 
L 769.838063 243.072168 
L 771.40129 242.746679 
L 773.019366 242.51012 
L 774.555167 242.479407 
L 776.200668 242.168248 
L 777.023418 242.074745 
L 777.846169 242.259144 
L 778.641495 242.432451 
L 779.38197 242.432895 
L 780.286996 242.45285 
L 780.972621 242.660598 
L 781.877647 242.952045 
L 784.071648 243.481161 
L 785.250924 243.458136 
L 787.307801 243.212885 
L 788.541926 242.801771 
L 790.077728 242.454703 
L 791.558679 242.026816 
L 792.299154 241.858081 
L 793.780105 241.849673 
L 795.096506 241.86458 
L 797.180807 241.627144 
L 799.731334 241.062906 
L 800.36211 241.071991 
L 803.872512 241.542683 
L 805.518013 241.753504 
L 806.121364 242.035455 
L 806.121364 242.035455 
" clip-path="url(#p6aa5f42034)" style="fill: none; stroke: #ff0000; stroke-width: 4; stroke-linecap: square"/>
   </g>
   <g id="line2d_32">
    <path d="M 586.748636 261.26 
L 588.778088 260.025067 
L 590.999514 259.055114 
L 593.577466 258.28089 
L 600.762821 256.197264 
L 604.053823 255.003853 
L 605.863875 254.195113 
L 607.701351 253.261698 
L 609.977627 251.960266 
L 613.92683 248.965399 
L 616.916157 246.0429 
L 618.918184 243.775164 
L 620.728235 241.973486 
L 621.35901 241.354914 
L 622.510861 240.392374 
L 624.403188 238.680786 
L 625.335638 237.456872 
L 627.035989 235.028407 
L 630.217292 231.353823 
L 630.902917 230.599571 
L 633.288894 227.562014 
L 635.208645 225.498038 
L 636.113671 224.913409 
L 636.497621 224.591265 
L 637.786597 222.767946 
L 639.048148 220.887483 
L 640.501674 218.20488 
L 643.491001 212.71526 
L 644.889677 210.412532 
L 648.729179 204.303613 
L 649.305105 203.67814 
L 649.743905 203.1793 
L 651.361981 200.53655 
L 652.376707 198.870559 
L 653.418858 197.354832 
L 654.982084 195.439232 
L 655.859684 194.307749 
L 656.737285 192.985346 
L 659.534637 188.844679 
L 660.851038 186.977704 
L 661.481813 186.23665 
L 663.072464 184.740389 
L 664.63569 183.825922 
L 665.760116 183.424777 
L 667.871843 183.380302 
L 668.365493 183.10005 
L 668.941418 182.391966 
L 670.422369 180.45883 
L 671.601645 178.894084 
L 673.082596 177.833566 
L 673.356846 177.680308 
L 674.179597 176.781731 
L 674.755522 176.287806 
L 675.386298 176.023756 
L 675.770248 176.059335 
L 676.099348 176.047161 
L 678.2385 175.490933 
L 679.335501 175.018101 
L 679.856576 174.68906 
L 680.624477 174.028974 
L 682.215128 172.672078 
L 683.284703 172.026034 
L 683.750929 171.951424 
L 684.326854 171.930155 
L 685.369005 171.781819 
L 686.356306 171.115944 
L 687.014506 170.636053 
L 688.248632 170.313662 
L 689.839283 170.785695 
L 690.524908 171.114887 
L 691.100834 171.21172 
L 691.786459 171.33943 
L 692.49951 171.528288 
L 693.21256 171.545054 
L 694.912911 172.485171 
L 695.708237 172.507759 
L 696.585838 172.161425 
L 697.545713 171.808492 
L 698.999239 171.916348 
L 699.739715 171.396709 
L 701.330366 170.313495 
L 701.769166 170.171392 
L 703.880893 170.012817 
L 704.456818 170.151296 
L 704.923043 170.223896 
L 705.444119 170.297035 
L 707.665545 170.422455 
L 708.707696 169.984518 
L 709.804697 169.662456 
L 711.340498 169.815998 
L 711.861573 169.508232 
L 712.876299 168.917856 
L 714.083 168.562356 
L 714.823475 168.600931 
L 716.002751 168.654441 
L 717.949927 168.692506 
L 720.281054 169.187597 
L 720.856979 169.370434 
L 722.22823 169.0568 
L 722.913856 168.708384 
L 723.489781 168.505686 
L 727.301859 168.078182 
L 727.850359 167.843099 
L 728.45371 167.765643 
L 729.468435 167.721629 
L 729.770111 167.751893 
L 731.470462 168.152343 
L 732.978838 168.209281 
L 733.664463 168.068182 
L 734.651764 168.200862 
L 735.145414 168.329026 
L 735.83104 168.845329 
L 736.26984 169.185517 
L 737.311991 169.559766 
L 738.271867 169.751841 
L 739.039767 170.151279 
L 740.602993 170.523363 
L 741.453169 170.465028 
L 743.619745 168.877223 
L 744.579621 167.889254 
L 745.320096 167.644323 
L 746.060572 167.635806 
L 750.0372 166.604853 
L 752.916827 166.550724 
L 753.520177 166.898438 
L 754.068678 167.480599 
L 754.726878 168.030566 
L 755.220528 168.09774 
L 757.03058 167.900646 
L 757.771055 167.58876 
L 758.429256 167.479048 
L 761.829958 165.963668 
L 762.296183 166.167298 
L 762.707559 166.557126 
L 763.256059 167.048173 
L 763.667434 167.284081 
L 764.270785 167.183911 
L 765.587186 167.125278 
L 769.234713 167.349626 
L 771.154464 167.781049 
L 771.89494 167.721223 
L 772.470865 167.754683 
L 772.909666 167.992189 
L 773.485591 168.123352 
L 774.884267 168.462727 
L 776.255518 168.72338 
L 776.941143 168.821926 
L 777.681619 168.92104 
L 778.66892 168.692445 
L 780.040171 167.986197 
L 780.890346 167.282506 
L 781.411421 166.923681 
L 781.795372 166.845768 
L 782.727822 166.947186 
L 783.413448 166.978011 
L 784.181348 167.016673 
L 785.93655 166.788933 
L 786.4302 166.55764 
L 787.911151 166.044656 
L 788.871027 166.087368 
L 789.254977 166.094323 
L 789.748627 166.172819 
L 790.790778 166.127593 
L 791.394128 166.030914 
L 793.25903 166.092368 
L 795.233631 165.706639 
L 796.796857 165.985873 
L 797.509908 166.40834 
L 798.936009 167.583579 
L 801.788211 170.352172 
L 802.227011 170.40157 
L 802.940061 170.257453 
L 803.488562 170.006725 
L 804.366162 169.660892 
L 805.956814 169.285195 
L 806.121364 169.219549 
L 806.121364 169.219549 
" clip-path="url(#p6aa5f42034)" style="fill: none; stroke-dasharray: 4,6.6; stroke-dashoffset: 0; stroke: #0000ff; stroke-width: 4"/>
   </g>
   <g id="line2d_33">
    <path d="M 586.748636 261.26 
L 588.915213 259.93151 
L 590.917239 258.968756 
L 593.632316 258.028795 
L 602.134072 255.849296 
L 604.684599 255.104218 
L 608.798352 253.4199 
L 612.253904 251.898244 
L 614.557606 251.03913 
L 615.983707 250.3418 
L 618.205133 249.009708 
L 620.70081 247.512872 
L 621.880086 246.890162 
L 623.553012 245.762486 
L 624.951688 244.695566 
L 625.801863 244.08166 
L 627.995865 242.82018 
L 630.299567 241.419537 
L 632.329018 239.678778 
L 634.303619 238.098582 
L 639.432098 235.135271 
L 640.638799 234.180299 
L 641.351849 233.853131 
L 643.216751 233.275397 
L 644.944527 232.891236 
L 645.767277 232.814789 
L 646.809428 232.609466 
L 647.440203 232.456714 
L 649.579355 231.780649 
L 650.31983 231.519962 
L 653.254308 230.80265 
L 653.747958 230.647003 
L 654.762684 230.416023 
L 656.133935 230.093079 
L 656.901835 229.854313 
L 657.752011 229.620254 
L 659.370087 229.297028 
L 660.165412 228.904758 
L 661.262413 228.328337 
L 662.414264 227.693742 
L 664.004915 226.907973 
L 665.732691 226.374489 
L 666.418317 226.159396 
L 669.736744 225.591933 
L 672.314696 225.690312 
L 673.000321 225.396319 
L 674.261872 224.652763 
L 675.331448 224.10241 
L 676.291324 223.664266 
L 676.839824 223.53868 
L 678.046525 223.530545 
L 679.033825 223.341173 
L 680.377651 223.339292 
L 681.310102 223.32021 
L 681.968302 223.296782 
L 682.983028 223.156336 
L 683.888054 223.055733 
L 685.039905 222.647449 
L 685.67068 222.584438 
L 687.590431 222.528239 
L 688.138932 222.202506 
L 689.757008 221.221141 
L 691.786459 220.679398 
L 692.856035 220.662274 
L 693.678786 220.550281 
L 694.830636 220.361 
L 695.598537 220.467832 
L 696.174462 220.441051 
L 697.600563 220.185493 
L 698.094214 220.01452 
L 700.781866 218.717278 
L 701.165816 218.607121 
L 704.319693 218.056358 
L 704.840768 218.139048 
L 706.074894 218.485811 
L 706.952495 218.276726 
L 708.680271 218.435998 
L 709.694997 218.575157 
L 710.243497 218.404892 
L 714.1927 216.808172 
L 714.90575 216.84813 
L 716.139876 216.65606 
L 718.032202 216.047258 
L 718.854953 215.904381 
L 719.403453 216.024369 
L 721.048955 216.711999 
L 721.652305 216.830187 
L 722.694456 216.994792 
L 723.270381 217.050395 
L 725.766058 217.109104 
L 727.960059 216.184123 
L 728.34401 216.08872 
L 728.83766 216.010861 
L 731.607587 215.471181 
L 734.788889 215.072622 
L 736.571515 215.260215 
L 737.202291 215.309459 
L 738.518692 215.558675 
L 740.465868 215.963403 
L 742.138794 216.009972 
L 743.20837 215.86707 
L 746.718772 214.671984 
L 747.952898 215.055518 
L 749.187024 215.588834 
L 750.284025 215.750543 
L 752.670002 216.148328 
L 753.300777 215.947509 
L 753.794427 215.775536 
L 754.617178 215.50565 
L 755.522204 214.935395 
L 756.536929 214.416408 
L 757.167705 214.164138 
L 757.74363 214.046144 
L 758.401831 214.04697 
L 759.526256 214.352392 
L 760.979782 214.43719 
L 763.310909 213.689278 
L 763.722284 213.624552 
L 764.325635 213.456437 
L 766.272811 213.028753 
L 768.082862 213.258688 
L 768.549088 213.251392 
L 769.371838 212.875337 
L 770.770514 212.238096 
L 771.94979 211.8397 
L 772.77254 211.760028 
L 773.458166 211.971276 
L 774.171216 212.147003 
L 774.911692 212.281174 
L 776.008693 212.653083 
L 776.804018 212.792067 
L 779.38197 213.120398 
L 783.002073 212.17001 
L 786.1011 212.175113 
L 786.81415 212.450262 
L 789.117852 213.516708 
L 789.638927 213.529122 
L 790.653653 213.883642 
L 793.47843 215.116017 
L 795.645006 215.514845 
L 796.138657 215.537953 
L 796.851707 215.468541 
L 797.729308 215.102639 
L 798.414933 214.787505 
L 799.895884 214.538292 
L 800.444385 214.393259 
L 800.96546 214.229672 
L 801.623661 214.217578 
L 803.186887 214.359472 
L 804.366162 214.314126 
L 805.435738 214.270081 
L 806.121364 214.205925 
L 806.121364 214.205925 
" clip-path="url(#p6aa5f42034)" style="fill: none; stroke-dasharray: 4,6.6; stroke-dashoffset: 0; stroke: #ff0000; stroke-width: 4"/>
   </g>
   <g id="patch_8">
    <path d="M 575.78 261.26 
L 817.09 261.26 
" style="fill: none; stroke: #000000; stroke-width: 3; stroke-linejoin: miter; stroke-linecap: square"/>
   </g>
   <g id="text_16">
    <!-- LAL014 -->
    <g transform="translate(651.67875 87.12) scale(0.24 -0.24)">
     <use xlink:href="#DejaVuSans-4c"/>
     <use xlink:href="#DejaVuSans-41" x="57.962891"/>
     <use xlink:href="#DejaVuSans-4c" x="126.371094"/>
     <use xlink:href="#DejaVuSans-30" x="182.083984"/>
     <use xlink:href="#DejaVuSans-31" x="245.707031"/>
     <use xlink:href="#DejaVuSans-34" x="309.330078"/>
    </g>
   </g>
  </g>
  <g id="axes_4">
   <g id="patch_9">
    <path d="M 827.89 261.26 
L 1069.2 261.26 
L 1069.2 93.12 
L 827.89 93.12 
z
" style="fill: #ffffff"/>
   </g>
   <g id="matplotlib.axis_7">
    <g id="xtick_16">
     <g id="line2d_34">
      <g>
       <use xlink:href="#m9f96f5c409" x="838.858636" y="261.26" style="stroke: #000000; stroke-width: 3"/>
      </g>
     </g>
    </g>
    <g id="xtick_17">
     <g id="line2d_35">
      <g>
       <use xlink:href="#m9f96f5c409" x="893.708674" y="261.26" style="stroke: #000000; stroke-width: 3"/>
      </g>
     </g>
    </g>
    <g id="xtick_18">
     <g id="line2d_36">
      <g>
       <use xlink:href="#m9f96f5c409" x="948.558713" y="261.26" style="stroke: #000000; stroke-width: 3"/>
      </g>
     </g>
    </g>
    <g id="xtick_19">
     <g id="line2d_37">
      <g>
       <use xlink:href="#m9f96f5c409" x="1003.408751" y="261.26" style="stroke: #000000; stroke-width: 3"/>
      </g>
     </g>
    </g>
    <g id="xtick_20">
     <g id="line2d_38">
      <g>
       <use xlink:href="#m9f96f5c409" x="1058.258789" y="261.26" style="stroke: #000000; stroke-width: 3"/>
      </g>
     </g>
    </g>
   </g>
   <g id="matplotlib.axis_8"/>
   <g id="line2d_39">
    <path d="M 838.858636 261.26 
L 840.339587 260.393202 
L 841.820538 259.774221 
L 843.603165 259.263175 
L 846.921592 258.56911 
L 854.436047 257.199673 
L 860.853502 255.698451 
L 862.636128 254.989266 
L 870.753934 251.461632 
L 871.796084 250.791794 
L 874.675711 248.467867 
L 878.131264 245.456948 
L 881.120591 243.132722 
L 882.464417 242.016693 
L 884.000218 240.249502 
L 885.865119 238.098237 
L 886.989545 236.740867 
L 888.580196 234.477425 
L 889.649772 232.699764 
L 891.596948 229.125224 
L 894.0652 224.254124 
L 896.176926 220.573462 
L 897.795002 217.778838 
L 899.029128 215.14048 
L 900.071279 212.582491 
L 901.853905 207.858473 
L 903.362281 203.52423 
L 904.239882 200.566736 
L 905.391733 196.204031 
L 907.997109 186.045317 
L 909.916861 180.223887 
L 911.260687 176.947844 
L 913.317563 172.567027 
L 915.374439 168.71232 
L 916.30689 167.128021 
L 917.678141 165.122369 
L 919.104242 163.038229 
L 920.064118 161.444725 
L 923.163145 156.64658 
L 924.589246 154.790447 
L 925.466846 154.003633 
L 927.331748 152.195178 
L 929.662874 149.580039 
L 930.3485 148.823936 
L 932.185976 146.104881 
L 933.173277 144.600929 
L 934.270278 143.405527 
L 936.080329 141.843259 
L 938.027505 140.713555 
L 938.987381 140.475228 
L 940.166657 140.406327 
L 941.428208 140.562917 
L 944.33526 141.076897 
L 944.93861 140.902199 
L 945.980761 140.422031 
L 947.269737 139.595875 
L 947.982787 138.797231 
L 948.887813 137.874213 
L 950.560739 136.22095 
L 951.383489 135.497655 
L 953.001566 134.475862 
L 954.153416 134.038992 
L 955.277842 133.773205 
L 957.279869 133.185534 
L 958.431719 132.649192 
L 959.172195 132.261146 
L 962.024397 130.445225 
L 963.944148 128.825274 
L 966.79635 127.00892 
L 967.701376 126.448037 
L 969.292027 125.528226 
L 970.059927 125.282389 
L 972.253929 124.920566 
L 972.939554 124.869325 
L 975.188406 124.218241 
L 975.928882 124.01066 
L 977.025882 123.720678 
L 978.122883 123.412132 
L 979.137609 123.236421 
L 980.152334 123.33491 
L 980.920235 123.557639 
L 983.361062 124.723412 
L 985.939013 125.996029 
L 987.227989 126.53207 
L 990.354442 128.217762 
L 991.835393 129.148795 
L 992.603293 129.317697 
L 993.261494 129.245647 
L 993.892269 128.998366 
L 994.605319 128.792367 
L 999.486973 128.059719 
L 1002.723125 126.994767 
L 1003.984676 127.162769 
L 1005.081677 127.162618 
L 1008.317829 127.152784 
L 1009.497105 127.474287 
L 1011.252306 128.15882 
L 1012.212182 128.881259 
L 1012.925232 129.257543 
L 1013.747983 129.331674 
L 1014.570733 129.256214 
L 1015.393484 128.943898 
L 1016.819585 128.03224 
L 1019.397537 125.560486 
L 1020.686513 124.299142 
L 1021.426988 123.76727 
L 1022.194889 123.535495 
L 1023.56614 123.405728 
L 1024.745415 123.471082 
L 1026.061816 123.965231 
L 1028.749468 125.045638 
L 1029.462519 125.015414 
L 1030.285269 124.672137 
L 1031.848495 123.883992 
L 1032.671246 123.533787 
L 1033.466571 123.408221 
L 1036.702724 122.969833 
L 1038.512775 122.438174 
L 1039.14355 122.469005 
L 1041.392402 122.816155 
L 1043.970354 123.195584 
L 1045.53358 123.757865 
L 1048.248657 125.08308 
L 1049.098832 125.800348 
L 1049.866733 126.855888 
L 1052.060734 129.978719 
L 1053.541685 131.260412 
L 1054.172461 131.486621 
L 1055.159762 131.50955 
L 1056.393887 131.09557 
L 1057.957113 130.125212 
L 1058.231364 129.948915 
L 1058.231364 129.948915 
" clip-path="url(#p06f25925bd)" style="fill: none; stroke: #0000ff; stroke-width: 4; stroke-linecap: square"/>
   </g>
   <g id="line2d_40">
    <path d="M 838.858636 261.26 
L 840.367012 260.377912 
L 841.820538 259.765056 
L 844.34364 259.014934 
L 847.963743 258.291982 
L 860.250151 256.285165 
L 863.897679 255.626213 
L 872.563985 254.572332 
L 875.443612 254.359202 
L 878.295814 254.224048 
L 879.96874 254.048542 
L 884.329318 253.393612 
L 886.166794 253.471755 
L 892.337423 253.794365 
L 894.641125 253.927815 
L 901.38768 254.118781 
L 904.651257 254.283699 
L 906.296758 254.415206 
L 909.121535 254.611849 
L 920.365793 254.90021 
L 922.69692 254.846458 
L 927.852823 254.925091 
L 930.0194 254.915379 
L 934.681653 255.257476 
L 936.903079 255.296749 
L 941.949283 255.220986 
L 946.392136 255.1619 
L 948.640988 255.421603 
L 952.31594 255.732429 
L 954.564792 255.678576 
L 958.98022 255.503402 
L 962.874572 255.862606 
L 965.150849 256.006911 
L 968.469276 256.001799 
L 973.049255 255.90363 
L 989.504266 255.543105 
L 992.603293 255.350984 
L 999.514398 255.441181 
L 1004.149226 255.72478 
L 1011.691106 255.782826 
L 1015.448334 255.481615 
L 1018.053711 255.683184 
L 1022.057764 256.077695 
L 1024.690565 255.973218 
L 1030.394969 255.84667 
L 1037.168949 256.253729 
L 1039.774326 256.161367 
L 1045.53358 255.664578 
L 1050.278108 255.419177 
L 1053.102885 255.206898 
L 1055.955087 255.371187 
L 1058.231364 255.605965 
L 1058.231364 255.605965 
" clip-path="url(#p06f25925bd)" style="fill: none; stroke: #ff0000; stroke-width: 4; stroke-linecap: square"/>
   </g>
   <g id="line2d_41">
    <path d="M 838.858636 261.26 
L 840.421862 260.337488 
L 841.930238 259.704424 
L 843.877415 259.110229 
L 846.510217 258.580714 
L 857.013999 256.644151 
L 859.537101 255.988648 
L 862.499003 255.11364 
L 865.21408 254.054295 
L 868.175982 252.503738 
L 869.629508 251.536245 
L 876.897138 246.228561 
L 877.774738 245.254356 
L 881.230291 240.6973 
L 884.082493 236.085743 
L 886.770145 230.761554 
L 889.485222 224.856611 
L 890.719347 221.14238 
L 891.843773 217.042367 
L 892.666524 213.421353 
L 893.653824 208.275393 
L 896.204351 193.019552 
L 901.360255 160.600552 
L 904.870657 143.448742 
L 906.241908 138.056242 
L 907.750284 133.114571 
L 909.560335 127.858563 
L 910.986436 124.268011 
L 912.302837 121.513139 
L 913.564388 119.212808 
L 914.880789 117.335081 
L 916.30689 115.771014 
L 917.403891 114.811709 
L 918.281491 114.289062 
L 920.283518 113.44995 
L 920.996568 113.011243 
L 922.64207 111.774701 
L 924.260146 110.542979 
L 925.384571 109.935826 
L 927.743123 108.851396 
L 930.3485 108.283376 
L 933.337827 107.333345 
L 935.531828 106.587232 
L 936.930504 106.379881 
L 938.466306 106.10424 
L 940.056957 105.749577 
L 941.126532 105.741276 
L 942.607483 105.893319 
L 948.311887 106.450778 
L 958.130044 105.909233 
L 960.488596 105.834634 
L 962.847147 105.665866 
L 964.190973 105.598263 
L 967.1803 105.43969 
L 970.361603 105.519414 
L 974.420505 105.512885 
L 978.260008 105.178752 
L 983.498187 105.226853 
L 984.924288 105.284844 
L 987.749065 105.420578 
L 989.723666 105.688013 
L 991.807968 105.880409 
L 993.947119 105.945747 
L 995.97657 105.566708 
L 997.210696 105.327036 
L 1001.132474 104.96562 
L 1002.777975 104.806272 
L 1005.493052 104.655161 
L 1006.836878 104.940662 
L 1009.003454 105.21662 
L 1011.362006 105.150671 
L 1014.817559 104.856767 
L 1016.106534 105.021574 
L 1018.958736 105.11719 
L 1020.796213 105.172857 
L 1022.990214 105.385051 
L 1026.637742 105.627358 
L 1031.245145 105.64678 
L 1035.523448 105.234672 
L 1037.744874 105.171809 
L 1039.006425 105.018265 
L 1041.173002 104.799197 
L 1049.043982 104.401379 
L 1050.552358 104.691695 
L 1052.718935 105.396928 
L 1054.062761 105.832943 
L 1055.187187 105.932391 
L 1057.710288 105.849443 
L 1058.231364 105.813661 
L 1058.231364 105.813661 
" clip-path="url(#p06f25925bd)" style="fill: none; stroke-dasharray: 4,6.6; stroke-dashoffset: 0; stroke: #0000ff; stroke-width: 4"/>
   </g>
   <g id="line2d_42">
    <path d="M 838.858636 261.26 
L 840.449287 260.319434 
L 842.204489 259.551212 
L 844.096815 258.947982 
L 846.071416 258.511643 
L 852.132346 257.542099 
L 857.94645 256.660382 
L 865.04953 255.337248 
L 867.600056 254.953332 
L 874.401461 253.572903 
L 877.089113 252.794451 
L 878.432939 252.434711 
L 882.738667 251.416887 
L 887.18152 249.629639 
L 888.333371 249.135047 
L 890.006297 248.481694 
L 894.586275 247.009231 
L 898.343503 246.486617 
L 901.744205 245.988466 
L 903.252581 245.619427 
L 907.174359 244.575444 
L 912.577088 242.734384 
L 915.48414 240.976523 
L 920.804593 237.170176 
L 922.066144 236.571753 
L 923.35512 236.377026 
L 924.808646 236.201135 
L 925.521697 235.850471 
L 928.236773 234.036212 
L 929.361199 233.256647 
L 932.926452 231.428846 
L 933.996027 231.217721 
L 935.339853 230.949738 
L 935.998054 230.79446 
L 938.411455 229.894083 
L 939.289056 229.722185 
L 940.084382 229.411613 
L 941.071682 228.649079 
L 944.061009 225.866147 
L 947.818237 223.19568 
L 950.039664 221.89618 
L 950.917264 221.113533 
L 951.71259 220.285752 
L 953.385516 218.740305 
L 956.429693 216.207667 
L 957.060468 215.879109 
L 958.459144 215.434089 
L 959.501295 214.899903 
L 960.543446 214.592983 
L 962.079247 214.56809 
L 962.710022 214.298679 
L 963.587623 213.685886 
L 964.300673 213.317662 
L 965.013724 212.818609 
L 966.35755 211.698235 
L 967.399701 211.102147 
L 969.045202 209.815797 
L 970.306753 208.644998 
L 971.403753 207.721233 
L 971.897404 207.578332 
L 974.28338 207.413216 
L 977.163007 207.892062 
L 977.738933 208.015364 
L 978.424558 207.855783 
L 979.795809 207.252604 
L 984.211237 204.659079 
L 986.597214 202.922319 
L 987.639365 202.601555 
L 988.21529 202.411512 
L 989.778516 201.839255 
L 990.683542 201.740757 
L 992.054793 201.875556 
L 993.206644 202.039542 
L 993.947119 202.155234 
L 995.236095 202.327554 
L 997.430096 201.96165 
L 998.362547 201.48055 
L 999.048173 201.240584 
L 999.678948 201.208727 
L 1000.419424 201.377097 
L 1001.022774 201.687835 
L 1001.98265 202.100268 
L 1005.246227 203.41897 
L 1006.315803 203.168157 
L 1006.919153 202.797566 
L 1008.345254 201.537394 
L 1009.85363 200.175519 
L 1010.621531 199.707764 
L 1011.800806 199.440139 
L 1013.226907 199.275521 
L 1014.378758 198.706353 
L 1018.574786 195.246563 
L 1019.507237 194.79619 
L 1020.302562 194.65818 
L 1020.659088 194.558375 
L 1021.372138 194.11349 
L 1022.304589 193.21833 
L 1023.209614 192.225979 
L 1024.16949 191.225122 
L 1025.431041 190.243647 
L 1027.131392 189.645384 
L 1028.941443 189.880276 
L 1030.093294 190.245012 
L 1032.150171 190.742995 
L 1034.426447 190.408751 
L 1034.974947 190.271946 
L 1037.498049 189.696578 
L 1038.26595 189.597858 
L 1039.417801 190.095694 
L 1040.158276 190.696056 
L 1041.173002 191.668816 
L 1042.242578 192.350643 
L 1043.229878 193.323155 
L 1044.464004 194.920291 
L 1045.561005 196.286676 
L 1047.837281 198.761893 
L 1049.181107 199.606187 
L 1049.674758 199.654445 
L 1050.470083 199.42053 
L 1052.389835 198.493447 
L 1053.13031 197.808952 
L 1053.843361 197.296579 
L 1054.995211 196.804903 
L 1055.845387 196.662328 
L 1058.231364 196.366472 
L 1058.231364 196.366472 
" clip-path="url(#p06f25925bd)" style="fill: none; stroke-dasharray: 4,6.6; stroke-dashoffset: 0; stroke: #ff0000; stroke-width: 4"/>
   </g>
   <g id="patch_10">
    <path d="M 827.89 261.26 
L 1069.2 261.26 
" style="fill: none; stroke: #000000; stroke-width: 3; stroke-linejoin: miter; stroke-linecap: square"/>
   </g>
   <g id="text_17">
    <!-- LAL018 -->
    <g transform="translate(903.78875 87.12) scale(0.24 -0.24)">
     <use xlink:href="#DejaVuSans-4c"/>
     <use xlink:href="#DejaVuSans-41" x="57.962891"/>
     <use xlink:href="#DejaVuSans-4c" x="126.371094"/>
     <use xlink:href="#DejaVuSans-30" x="182.083984"/>
     <use xlink:href="#DejaVuSans-31" x="245.707031"/>
     <use xlink:href="#DejaVuSans-38" x="309.330078"/>
    </g>
   </g>
  </g>
  <g id="text_18">
   <!--  = 90 -->
   <g transform="translate(471.869531 29.995313) scale(0.3 -0.3)">
    <defs>
     <path id="DejaVuSans-394" d="M 2188 4044 
L 906 525 
L 3472 525 
L 2188 4044 
z
M 50 0 
L 1831 4666 
L 2547 4666 
L 4325 0 
L 50 0 
z
" transform="scale(0.015625)"/>
     <path id="DejaVuSans-3b8" d="M 2953 2219 
L 963 2219 
Q 1009 1284 1225 888 
Q 1494 400 1959 400 
Q 2428 400 2688 891 
Q 2916 1322 2953 2219 
z
M 2944 2750 
Q 2856 3638 2688 3950 
Q 2419 4444 1959 4444 
Q 1481 4444 1228 3956 
Q 1028 3563 969 2750 
L 2944 2750 
z
M 1959 4913 
Q 2709 4913 3138 4250 
Q 3566 3591 3566 2422 
Q 3566 1256 3138 594 
Q 2709 -72 1959 -72 
Q 1206 -72 781 594 
Q 353 1256 353 2422 
Q 353 3591 781 4250 
Q 1206 4913 1959 4913 
z
" transform="scale(0.015625)"/>
     <path id="DejaVuSans-3d" d="M 678 2906 
L 4684 2906 
L 4684 2381 
L 678 2381 
L 678 2906 
z
M 678 1631 
L 4684 1631 
L 4684 1100 
L 678 1100 
L 678 1631 
z
" transform="scale(0.015625)"/>
     <path id="DejaVuSans-39" d="M 703 97 
L 703 672 
Q 941 559 1184 500 
Q 1428 441 1663 441 
Q 2288 441 2617 861 
Q 2947 1281 2994 2138 
Q 2813 1869 2534 1725 
Q 2256 1581 1919 1581 
Q 1219 1581 811 2004 
Q 403 2428 403 3163 
Q 403 3881 828 4315 
Q 1253 4750 1959 4750 
Q 2769 4750 3195 4129 
Q 3622 3509 3622 2328 
Q 3622 1225 3098 567 
Q 2575 -91 1691 -91 
Q 1453 -91 1209 -44 
Q 966 3 703 97 
z
M 1959 2075 
Q 2384 2075 2632 2365 
Q 2881 2656 2881 3163 
Q 2881 3666 2632 3958 
Q 2384 4250 1959 4250 
Q 1534 4250 1286 3958 
Q 1038 3666 1038 3163 
Q 1038 2656 1286 2365 
Q 1534 2075 1959 2075 
z
" transform="scale(0.015625)"/>
     <path id="DejaVuSans-b0" d="M 1600 4347 
Q 1350 4347 1178 4173 
Q 1006 4000 1006 3750 
Q 1006 3503 1178 3333 
Q 1350 3163 1600 3163 
Q 1850 3163 2022 3333 
Q 2194 3503 2194 3750 
Q 2194 3997 2020 4172 
Q 1847 4347 1600 4347 
z
M 1600 4750 
Q 1800 4750 1984 4673 
Q 2169 4597 2303 4453 
Q 2447 4313 2519 4134 
Q 2591 3956 2591 3750 
Q 2591 3338 2302 3052 
Q 2013 2766 1594 2766 
Q 1172 2766 890 3047 
Q 609 3328 609 3750 
Q 609 4169 896 4459 
Q 1184 4750 1600 4750 
z
" transform="scale(0.015625)"/>
    </defs>
    <use xlink:href="#DejaVuSans-394"/>
    <use xlink:href="#DejaVuSans-3b8" x="68.408203"/>
    <use xlink:href="#DejaVuSans-20" x="129.589844"/>
    <use xlink:href="#DejaVuSans-3d" x="161.376953"/>
    <use xlink:href="#DejaVuSans-20" x="245.166016"/>
    <use xlink:href="#DejaVuSans-39" x="276.953125"/>
    <use xlink:href="#DejaVuSans-30" x="340.576172"/>
    <use xlink:href="#DejaVuSans-b0" x="404.199219"/>
   </g>
  </g>
  <g id="legend_1">
   <g id="line2d_43">
    <path d="M 894.5425 143.5875 
L 910.5425 143.5875 
L 926.5425 143.5875 
" style="fill: none; stroke: #0000ff; stroke-width: 4; stroke-linecap: square"/>
   </g>
   <g id="text_19">
    <!-- Full model L -->
    <g transform="translate(939.3425 149.1875) scale(0.16 -0.16)">
     <defs>
      <path id="DejaVuSans-75" d="M 544 1381 
L 544 3500 
L 1119 3500 
L 1119 1403 
Q 1119 906 1312 657 
Q 1506 409 1894 409 
Q 2359 409 2629 706 
Q 2900 1003 2900 1516 
L 2900 3500 
L 3475 3500 
L 3475 0 
L 2900 0 
L 2900 538 
Q 2691 219 2414 64 
Q 2138 -91 1772 -91 
Q 1169 -91 856 284 
Q 544 659 544 1381 
z
M 1991 3584 
L 1991 3584 
z
" transform="scale(0.015625)"/>
      <path id="DejaVuSans-6c" d="M 603 4863 
L 1178 4863 
L 1178 0 
L 603 0 
L 603 4863 
z
" transform="scale(0.015625)"/>
      <path id="DejaVuSans-6f" d="M 1959 3097 
Q 1497 3097 1228 2736 
Q 959 2375 959 1747 
Q 959 1119 1226 758 
Q 1494 397 1959 397 
Q 2419 397 2687 759 
Q 2956 1122 2956 1747 
Q 2956 2369 2687 2733 
Q 2419 3097 1959 3097 
z
M 1959 3584 
Q 2709 3584 3137 3096 
Q 3566 2609 3566 1747 
Q 3566 888 3137 398 
Q 2709 -91 1959 -91 
Q 1206 -91 779 398 
Q 353 888 353 1747 
Q 353 2609 779 3096 
Q 1206 3584 1959 3584 
z
" transform="scale(0.015625)"/>
      <path id="DejaVuSans-64" d="M 2906 2969 
L 2906 4863 
L 3481 4863 
L 3481 0 
L 2906 0 
L 2906 525 
Q 2725 213 2448 61 
Q 2172 -91 1784 -91 
Q 1150 -91 751 415 
Q 353 922 353 1747 
Q 353 2572 751 3078 
Q 1150 3584 1784 3584 
Q 2172 3584 2448 3432 
Q 2725 3281 2906 2969 
z
M 947 1747 
Q 947 1113 1208 752 
Q 1469 391 1925 391 
Q 2381 391 2643 752 
Q 2906 1113 2906 1747 
Q 2906 2381 2643 2742 
Q 2381 3103 1925 3103 
Q 1469 3103 1208 2742 
Q 947 2381 947 1747 
z
" transform="scale(0.015625)"/>
     </defs>
     <use xlink:href="#DejaVuSans-46"/>
     <use xlink:href="#DejaVuSans-75" x="52.019531"/>
     <use xlink:href="#DejaVuSans-6c" x="115.398438"/>
     <use xlink:href="#DejaVuSans-6c" x="143.181641"/>
     <use xlink:href="#DejaVuSans-20" x="170.964844"/>
     <use xlink:href="#DejaVuSans-6d" x="202.751953"/>
     <use xlink:href="#DejaVuSans-6f" x="300.164062"/>
     <use xlink:href="#DejaVuSans-64" x="361.345703"/>
     <use xlink:href="#DejaVuSans-65" x="424.822266"/>
     <use xlink:href="#DejaVuSans-6c" x="486.345703"/>
     <use xlink:href="#DejaVuSans-20" x="514.128906"/>
     <use xlink:href="#DejaVuSans-4c" x="545.916016"/>
    </g>
   </g>
   <g id="line2d_44">
    <path d="M 894.5425 167.0725 
L 910.5425 167.0725 
L 926.5425 167.0725 
" style="fill: none; stroke: #ff0000; stroke-width: 4; stroke-linecap: square"/>
   </g>
   <g id="text_20">
    <!-- Full model R -->
    <g transform="translate(939.3425 172.6725) scale(0.16 -0.16)">
     <defs>
      <path id="DejaVuSans-52" d="M 2841 2188 
Q 3044 2119 3236 1894 
Q 3428 1669 3622 1275 
L 4263 0 
L 3584 0 
L 2988 1197 
Q 2756 1666 2539 1819 
Q 2322 1972 1947 1972 
L 1259 1972 
L 1259 0 
L 628 0 
L 628 4666 
L 2053 4666 
Q 2853 4666 3247 4331 
Q 3641 3997 3641 3322 
Q 3641 2881 3436 2590 
Q 3231 2300 2841 2188 
z
M 1259 4147 
L 1259 2491 
L 2053 2491 
Q 2509 2491 2742 2702 
Q 2975 2913 2975 3322 
Q 2975 3731 2742 3939 
Q 2509 4147 2053 4147 
L 1259 4147 
z
" transform="scale(0.015625)"/>
     </defs>
     <use xlink:href="#DejaVuSans-46"/>
     <use xlink:href="#DejaVuSans-75" x="52.019531"/>
     <use xlink:href="#DejaVuSans-6c" x="115.398438"/>
     <use xlink:href="#DejaVuSans-6c" x="143.181641"/>
     <use xlink:href="#DejaVuSans-20" x="170.964844"/>
     <use xlink:href="#DejaVuSans-6d" x="202.751953"/>
     <use xlink:href="#DejaVuSans-6f" x="300.164062"/>
     <use xlink:href="#DejaVuSans-64" x="361.345703"/>
     <use xlink:href="#DejaVuSans-65" x="424.822266"/>
     <use xlink:href="#DejaVuSans-6c" x="486.345703"/>
     <use xlink:href="#DejaVuSans-20" x="514.128906"/>
     <use xlink:href="#DejaVuSans-52" x="545.916016"/>
    </g>
   </g>
   <g id="line2d_45">
    <path d="M 894.5425 190.5575 
L 910.5425 190.5575 
L 926.5425 190.5575 
" style="fill: none; stroke-dasharray: 4,6.6; stroke-dashoffset: 0; stroke: #0000ff; stroke-width: 4"/>
   </g>
   <g id="text_21">
    <!-- - 121 output L -->
    <g transform="translate(939.3425 196.1575) scale(0.16 -0.16)">
     <defs>
      <path id="DejaVuSans-2d" d="M 313 2009 
L 1997 2009 
L 1997 1497 
L 313 1497 
L 313 2009 
z
" transform="scale(0.015625)"/>
      <path id="DejaVuSans-70" d="M 1159 525 
L 1159 -1331 
L 581 -1331 
L 581 3500 
L 1159 3500 
L 1159 2969 
Q 1341 3281 1617 3432 
Q 1894 3584 2278 3584 
Q 2916 3584 3314 3078 
Q 3713 2572 3713 1747 
Q 3713 922 3314 415 
Q 2916 -91 2278 -91 
Q 1894 -91 1617 61 
Q 1341 213 1159 525 
z
M 3116 1747 
Q 3116 2381 2855 2742 
Q 2594 3103 2138 3103 
Q 1681 3103 1420 2742 
Q 1159 2381 1159 1747 
Q 1159 1113 1420 752 
Q 1681 391 2138 391 
Q 2594 391 2855 752 
Q 3116 1113 3116 1747 
z
" transform="scale(0.015625)"/>
     </defs>
     <use xlink:href="#DejaVuSans-2d"/>
     <use xlink:href="#DejaVuSans-20" x="36.083984"/>
     <use xlink:href="#DejaVuSans-31" x="67.871094"/>
     <use xlink:href="#DejaVuSans-32" x="131.494141"/>
     <use xlink:href="#DejaVuSans-31" x="195.117188"/>
     <use xlink:href="#DejaVuSans-20" x="258.740234"/>
     <use xlink:href="#DejaVuSans-6f" x="290.527344"/>
     <use xlink:href="#DejaVuSans-75" x="351.708984"/>
     <use xlink:href="#DejaVuSans-74" x="415.087891"/>
     <use xlink:href="#DejaVuSans-70" x="454.296875"/>
     <use xlink:href="#DejaVuSans-75" x="517.773438"/>
     <use xlink:href="#DejaVuSans-74" x="581.152344"/>
     <use xlink:href="#DejaVuSans-20" x="620.361328"/>
     <use xlink:href="#DejaVuSans-4c" x="652.148438"/>
    </g>
   </g>
   <g id="line2d_46">
    <path d="M 894.5425 214.0425 
L 910.5425 214.0425 
L 926.5425 214.0425 
" style="fill: none; stroke-dasharray: 4,6.6; stroke-dashoffset: 0; stroke: #ff0000; stroke-width: 4"/>
   </g>
   <g id="text_22">
    <!-- - 121 output R -->
    <g transform="translate(939.3425 219.6425) scale(0.16 -0.16)">
     <use xlink:href="#DejaVuSans-2d"/>
     <use xlink:href="#DejaVuSans-20" x="36.083984"/>
     <use xlink:href="#DejaVuSans-31" x="67.871094"/>
     <use xlink:href="#DejaVuSans-32" x="131.494141"/>
     <use xlink:href="#DejaVuSans-31" x="195.117188"/>
     <use xlink:href="#DejaVuSans-20" x="258.740234"/>
     <use xlink:href="#DejaVuSans-6f" x="290.527344"/>
     <use xlink:href="#DejaVuSans-75" x="351.708984"/>
     <use xlink:href="#DejaVuSans-74" x="415.087891"/>
     <use xlink:href="#DejaVuSans-70" x="454.296875"/>
     <use xlink:href="#DejaVuSans-75" x="517.773438"/>
     <use xlink:href="#DejaVuSans-74" x="581.152344"/>
     <use xlink:href="#DejaVuSans-20" x="620.361328"/>
     <use xlink:href="#DejaVuSans-52" x="652.148438"/>
    </g>
   </g>
  </g>
 </g>
 <defs>
  <clipPath id="p866c60bc72">
   <rect x="71.56" y="93.12" width="241.31" height="168.14"/>
  </clipPath>
  <clipPath id="pe8eaa38fa1">
   <rect x="323.67" y="93.12" width="241.31" height="168.14"/>
  </clipPath>
  <clipPath id="p6aa5f42034">
   <rect x="575.78" y="93.12" width="241.31" height="168.14"/>
  </clipPath>
  <clipPath id="p06f25925bd">
   <rect x="827.89" y="93.12" width="241.31" height="168.14"/>
  </clipPath>
 </defs>
</svg>
