<?xml version="1.0" encoding="utf-8" standalone="no"?>
<!DOCTYPE svg PUBLIC "-//W3C//DTD SVG 1.1//EN"
  "http://www.w3.org/Graphics/SVG/1.1/DTD/svg11.dtd">
<svg xmlns:xlink="http://www.w3.org/1999/xlink" width="1080pt" height="360pt" viewBox="0 0 1080 360" xmlns="http://www.w3.org/2000/svg" version="1.1">
 <metadata>
  <rdf:RDF xmlns:dc="http://purl.org/dc/elements/1.1/" xmlns:cc="http://creativecommons.org/ns#" xmlns:rdf="http://www.w3.org/1999/02/22-rdf-syntax-ns#">
   <cc:Work>
    <dc:type rdf:resource="http://purl.org/dc/dcmitype/StillImage"/>
    <dc:date>2025-04-17T22:42:59.841625</dc:date>
    <dc:format>image/svg+xml</dc:format>
    <dc:creator>
     <cc:Agent>
      <dc:title>Matplotlib v3.7.1, https://matplotlib.org/</dc:title>
     </cc:Agent>
    </dc:creator>
   </cc:Work>
  </rdf:RDF>
 </metadata>
 <defs>
  <style type="text/css">*{stroke-linejoin: round; stroke-linecap: butt}</style>
 </defs>
 <g id="figure_1">
  <g id="patch_1">
   <path d="M 0 360 
L 1080 360 
L 1080 0 
L 0 0 
z
" style="fill: #ffffff"/>
  </g>
  <g id="axes_1">
   <g id="patch_2">
    <path d="M 68.06 264.76 
L 310.245 264.76 
L 310.245 93.12 
L 68.06 93.12 
z
" style="fill: #ffffff"/>
   </g>
   <g id="matplotlib.axis_1">
    <g id="xtick_1">
     <g id="line2d_1">
      <defs>
       <path id="m4d793a04bb" d="M 0 0 
L 0 3.5 
" style="stroke: #000000; stroke-width: 0.8"/>
      </defs>
      <g>
       <use xlink:href="#m4d793a04bb" x="79.068409" y="264.76" style="stroke: #000000; stroke-width: 0.8"/>
      </g>
     </g>
     <g id="text_1">
      <!-- 0 -->
      <g transform="translate(73.978409 283.9175) scale(0.16 -0.16)">
       <defs>
        <path id="DejaVuSans-30" d="M 2034 4250 
Q 1547 4250 1301 3770 
Q 1056 3291 1056 2328 
Q 1056 1369 1301 889 
Q 1547 409 2034 409 
Q 2525 409 2770 889 
Q 3016 1369 3016 2328 
Q 3016 3291 2770 3770 
Q 2525 4250 2034 4250 
z
M 2034 4750 
Q 2819 4750 3233 4129 
Q 3647 3509 3647 2328 
Q 3647 1150 3233 529 
Q 2819 -91 2034 -91 
Q 1250 -91 836 529 
Q 422 1150 422 2328 
Q 422 3509 836 4129 
Q 1250 4750 2034 4750 
z
" transform="scale(0.015625)"/>
       </defs>
       <use xlink:href="#DejaVuSans-30"/>
      </g>
     </g>
    </g>
    <g id="xtick_2">
     <g id="line2d_2">
      <g>
       <use xlink:href="#m4d793a04bb" x="134.117336" y="264.76" style="stroke: #000000; stroke-width: 0.8"/>
      </g>
     </g>
     <g id="text_2">
      <!-- 200 -->
      <g transform="translate(118.847336 283.9175) scale(0.16 -0.16)">
       <defs>
        <path id="DejaVuSans-32" d="M 1228 531 
L 3431 531 
L 3431 0 
L 469 0 
L 469 531 
Q 828 903 1448 1529 
Q 2069 2156 2228 2338 
Q 2531 2678 2651 2914 
Q 2772 3150 2772 3378 
Q 2772 3750 2511 3984 
Q 2250 4219 1831 4219 
Q 1534 4219 1204 4116 
Q 875 4013 500 3803 
L 500 4441 
Q 881 4594 1212 4672 
Q 1544 4750 1819 4750 
Q 2544 4750 2975 4387 
Q 3406 4025 3406 3419 
Q 3406 3131 3298 2873 
Q 3191 2616 2906 2266 
Q 2828 2175 2409 1742 
Q 1991 1309 1228 531 
z
" transform="scale(0.015625)"/>
       </defs>
       <use xlink:href="#DejaVuSans-32"/>
       <use xlink:href="#DejaVuSans-30" x="63.623047"/>
       <use xlink:href="#DejaVuSans-30" x="127.246094"/>
      </g>
     </g>
    </g>
    <g id="xtick_3">
     <g id="line2d_3">
      <g>
       <use xlink:href="#m4d793a04bb" x="189.166262" y="264.76" style="stroke: #000000; stroke-width: 0.8"/>
      </g>
     </g>
     <g id="text_3">
      <!-- 400 -->
      <g transform="translate(173.896262 283.9175) scale(0.16 -0.16)">
       <defs>
        <path id="DejaVuSans-34" d="M 2419 4116 
L 825 1625 
L 2419 1625 
L 2419 4116 
z
M 2253 4666 
L 3047 4666 
L 3047 1625 
L 3713 1625 
L 3713 1100 
L 3047 1100 
L 3047 0 
L 2419 0 
L 2419 1100 
L 313 1100 
L 313 1709 
L 2253 4666 
z
" transform="scale(0.015625)"/>
       </defs>
       <use xlink:href="#DejaVuSans-34"/>
       <use xlink:href="#DejaVuSans-30" x="63.623047"/>
       <use xlink:href="#DejaVuSans-30" x="127.246094"/>
      </g>
     </g>
    </g>
    <g id="xtick_4">
     <g id="line2d_4">
      <g>
       <use xlink:href="#m4d793a04bb" x="244.215189" y="264.76" style="stroke: #000000; stroke-width: 0.8"/>
      </g>
     </g>
     <g id="text_4">
      <!-- 600 -->
      <g transform="translate(228.945189 283.9175) scale(0.16 -0.16)">
       <defs>
        <path id="DejaVuSans-36" d="M 2113 2584 
Q 1688 2584 1439 2293 
Q 1191 2003 1191 1497 
Q 1191 994 1439 701 
Q 1688 409 2113 409 
Q 2538 409 2786 701 
Q 3034 994 3034 1497 
Q 3034 2003 2786 2293 
Q 2538 2584 2113 2584 
z
M 3366 4563 
L 3366 3988 
Q 3128 4100 2886 4159 
Q 2644 4219 2406 4219 
Q 1781 4219 1451 3797 
Q 1122 3375 1075 2522 
Q 1259 2794 1537 2939 
Q 1816 3084 2150 3084 
Q 2853 3084 3261 2657 
Q 3669 2231 3669 1497 
Q 3669 778 3244 343 
Q 2819 -91 2113 -91 
Q 1303 -91 875 529 
Q 447 1150 447 2328 
Q 447 3434 972 4092 
Q 1497 4750 2381 4750 
Q 2619 4750 2861 4703 
Q 3103 4656 3366 4563 
z
" transform="scale(0.015625)"/>
       </defs>
       <use xlink:href="#DejaVuSans-36"/>
       <use xlink:href="#DejaVuSans-30" x="63.623047"/>
       <use xlink:href="#DejaVuSans-30" x="127.246094"/>
      </g>
     </g>
    </g>
    <g id="xtick_5">
     <g id="line2d_5">
      <g>
       <use xlink:href="#m4d793a04bb" x="299.264115" y="264.76" style="stroke: #000000; stroke-width: 0.8"/>
      </g>
     </g>
     <g id="text_5">
      <!-- 800 -->
      <g transform="translate(283.994115 283.9175) scale(0.16 -0.16)">
       <defs>
        <path id="DejaVuSans-38" d="M 2034 2216 
Q 1584 2216 1326 1975 
Q 1069 1734 1069 1313 
Q 1069 891 1326 650 
Q 1584 409 2034 409 
Q 2484 409 2743 651 
Q 3003 894 3003 1313 
Q 3003 1734 2745 1975 
Q 2488 2216 2034 2216 
z
M 1403 2484 
Q 997 2584 770 2862 
Q 544 3141 544 3541 
Q 544 4100 942 4425 
Q 1341 4750 2034 4750 
Q 2731 4750 3128 4425 
Q 3525 4100 3525 3541 
Q 3525 3141 3298 2862 
Q 3072 2584 2669 2484 
Q 3125 2378 3379 2068 
Q 3634 1759 3634 1313 
Q 3634 634 3220 271 
Q 2806 -91 2034 -91 
Q 1263 -91 848 271 
Q 434 634 434 1313 
Q 434 1759 690 2068 
Q 947 2378 1403 2484 
z
M 1172 3481 
Q 1172 3119 1398 2916 
Q 1625 2713 2034 2713 
Q 2441 2713 2670 2916 
Q 2900 3119 2900 3481 
Q 2900 3844 2670 4047 
Q 2441 4250 2034 4250 
Q 1625 4250 1398 4047 
Q 1172 3844 1172 3481 
z
" transform="scale(0.015625)"/>
       </defs>
       <use xlink:href="#DejaVuSans-38"/>
       <use xlink:href="#DejaVuSans-30" x="63.623047"/>
       <use xlink:href="#DejaVuSans-30" x="127.246094"/>
      </g>
     </g>
    </g>
    <g id="text_6">
     <!-- Time (ms) -->
     <g transform="translate(133.714219 307.961563) scale(0.22 -0.22)">
      <defs>
       <path id="DejaVuSans-54" d="M -19 4666 
L 3928 4666 
L 3928 4134 
L 2272 4134 
L 2272 0 
L 1638 0 
L 1638 4134 
L -19 4134 
L -19 4666 
z
" transform="scale(0.015625)"/>
       <path id="DejaVuSans-69" d="M 603 3500 
L 1178 3500 
L 1178 0 
L 603 0 
L 603 3500 
z
M 603 4863 
L 1178 4863 
L 1178 4134 
L 603 4134 
L 603 4863 
z
" transform="scale(0.015625)"/>
       <path id="DejaVuSans-6d" d="M 3328 2828 
Q 3544 3216 3844 3400 
Q 4144 3584 4550 3584 
Q 5097 3584 5394 3201 
Q 5691 2819 5691 2113 
L 5691 0 
L 5113 0 
L 5113 2094 
Q 5113 2597 4934 2840 
Q 4756 3084 4391 3084 
Q 3944 3084 3684 2787 
Q 3425 2491 3425 1978 
L 3425 0 
L 2847 0 
L 2847 2094 
Q 2847 2600 2669 2842 
Q 2491 3084 2119 3084 
Q 1678 3084 1418 2786 
Q 1159 2488 1159 1978 
L 1159 0 
L 581 0 
L 581 3500 
L 1159 3500 
L 1159 2956 
Q 1356 3278 1631 3431 
Q 1906 3584 2284 3584 
Q 2666 3584 2933 3390 
Q 3200 3197 3328 2828 
z
" transform="scale(0.015625)"/>
       <path id="DejaVuSans-65" d="M 3597 1894 
L 3597 1613 
L 953 1613 
Q 991 1019 1311 708 
Q 1631 397 2203 397 
Q 2534 397 2845 478 
Q 3156 559 3463 722 
L 3463 178 
Q 3153 47 2828 -22 
Q 2503 -91 2169 -91 
Q 1331 -91 842 396 
Q 353 884 353 1716 
Q 353 2575 817 3079 
Q 1281 3584 2069 3584 
Q 2775 3584 3186 3129 
Q 3597 2675 3597 1894 
z
M 3022 2063 
Q 3016 2534 2758 2815 
Q 2500 3097 2075 3097 
Q 1594 3097 1305 2825 
Q 1016 2553 972 2059 
L 3022 2063 
z
" transform="scale(0.015625)"/>
       <path id="DejaVuSans-20" transform="scale(0.015625)"/>
       <path id="DejaVuSans-28" d="M 1984 4856 
Q 1566 4138 1362 3434 
Q 1159 2731 1159 2009 
Q 1159 1288 1364 580 
Q 1569 -128 1984 -844 
L 1484 -844 
Q 1016 -109 783 600 
Q 550 1309 550 2009 
Q 550 2706 781 3412 
Q 1013 4119 1484 4856 
L 1984 4856 
z
" transform="scale(0.015625)"/>
       <path id="DejaVuSans-73" d="M 2834 3397 
L 2834 2853 
Q 2591 2978 2328 3040 
Q 2066 3103 1784 3103 
Q 1356 3103 1142 2972 
Q 928 2841 928 2578 
Q 928 2378 1081 2264 
Q 1234 2150 1697 2047 
L 1894 2003 
Q 2506 1872 2764 1633 
Q 3022 1394 3022 966 
Q 3022 478 2636 193 
Q 2250 -91 1575 -91 
Q 1294 -91 989 -36 
Q 684 19 347 128 
L 347 722 
Q 666 556 975 473 
Q 1284 391 1588 391 
Q 1994 391 2212 530 
Q 2431 669 2431 922 
Q 2431 1156 2273 1281 
Q 2116 1406 1581 1522 
L 1381 1569 
Q 847 1681 609 1914 
Q 372 2147 372 2553 
Q 372 3047 722 3315 
Q 1072 3584 1716 3584 
Q 2034 3584 2315 3537 
Q 2597 3491 2834 3397 
z
" transform="scale(0.015625)"/>
       <path id="DejaVuSans-29" d="M 513 4856 
L 1013 4856 
Q 1481 4119 1714 3412 
Q 1947 2706 1947 2009 
Q 1947 1309 1714 600 
Q 1481 -109 1013 -844 
L 513 -844 
Q 928 -128 1133 580 
Q 1338 1288 1338 2009 
Q 1338 2731 1133 3434 
Q 928 4138 513 4856 
z
" transform="scale(0.015625)"/>
      </defs>
      <use xlink:href="#DejaVuSans-54"/>
      <use xlink:href="#DejaVuSans-69" x="57.958984"/>
      <use xlink:href="#DejaVuSans-6d" x="85.742188"/>
      <use xlink:href="#DejaVuSans-65" x="183.154297"/>
      <use xlink:href="#DejaVuSans-20" x="244.677734"/>
      <use xlink:href="#DejaVuSans-28" x="276.464844"/>
      <use xlink:href="#DejaVuSans-6d" x="315.478516"/>
      <use xlink:href="#DejaVuSans-73" x="412.890625"/>
      <use xlink:href="#DejaVuSans-29" x="464.990234"/>
     </g>
    </g>
   </g>
   <g id="matplotlib.axis_2">
    <g id="ytick_1">
     <g id="line2d_6">
      <defs>
       <path id="mcb36250bd8" d="M 0 0 
L -3.5 0 
" style="stroke: #000000; stroke-width: 0.8"/>
      </defs>
      <g>
       <use xlink:href="#mcb36250bd8" x="68.06" y="264.76" style="stroke: #000000; stroke-width: 0.8"/>
      </g>
     </g>
     <g id="text_7">
      <!-- 0.0 -->
      <g transform="translate(35.615 270.83875) scale(0.16 -0.16)">
       <defs>
        <path id="DejaVuSans-2e" d="M 684 794 
L 1344 794 
L 1344 0 
L 684 0 
L 684 794 
z
" transform="scale(0.015625)"/>
       </defs>
       <use xlink:href="#DejaVuSans-30"/>
       <use xlink:href="#DejaVuSans-2e" x="63.623047"/>
       <use xlink:href="#DejaVuSans-30" x="95.410156"/>
      </g>
     </g>
    </g>
    <g id="ytick_2">
     <g id="line2d_7">
      <g>
       <use xlink:href="#mcb36250bd8" x="68.06" y="230.432" style="stroke: #000000; stroke-width: 0.8"/>
      </g>
     </g>
     <g id="text_8">
      <!-- 0.2 -->
      <g transform="translate(35.615 236.51075) scale(0.16 -0.16)">
       <use xlink:href="#DejaVuSans-30"/>
       <use xlink:href="#DejaVuSans-2e" x="63.623047"/>
       <use xlink:href="#DejaVuSans-32" x="95.410156"/>
      </g>
     </g>
    </g>
    <g id="ytick_3">
     <g id="line2d_8">
      <g>
       <use xlink:href="#mcb36250bd8" x="68.06" y="196.104" style="stroke: #000000; stroke-width: 0.8"/>
      </g>
     </g>
     <g id="text_9">
      <!-- 0.4 -->
      <g transform="translate(35.615 202.18275) scale(0.16 -0.16)">
       <use xlink:href="#DejaVuSans-30"/>
       <use xlink:href="#DejaVuSans-2e" x="63.623047"/>
       <use xlink:href="#DejaVuSans-34" x="95.410156"/>
      </g>
     </g>
    </g>
    <g id="ytick_4">
     <g id="line2d_9">
      <g>
       <use xlink:href="#mcb36250bd8" x="68.06" y="161.776" style="stroke: #000000; stroke-width: 0.8"/>
      </g>
     </g>
     <g id="text_10">
      <!-- 0.6 -->
      <g transform="translate(35.615 167.85475) scale(0.16 -0.16)">
       <use xlink:href="#DejaVuSans-30"/>
       <use xlink:href="#DejaVuSans-2e" x="63.623047"/>
       <use xlink:href="#DejaVuSans-36" x="95.410156"/>
      </g>
     </g>
    </g>
    <g id="ytick_5">
     <g id="line2d_10">
      <g>
       <use xlink:href="#mcb36250bd8" x="68.06" y="127.448" style="stroke: #000000; stroke-width: 0.8"/>
      </g>
     </g>
     <g id="text_11">
      <!-- 0.8 -->
      <g transform="translate(35.615 133.52675) scale(0.16 -0.16)">
       <use xlink:href="#DejaVuSans-30"/>
       <use xlink:href="#DejaVuSans-2e" x="63.623047"/>
       <use xlink:href="#DejaVuSans-38" x="95.410156"/>
      </g>
     </g>
    </g>
    <g id="ytick_6">
     <g id="line2d_11">
      <g>
       <use xlink:href="#mcb36250bd8" x="68.06" y="93.12" style="stroke: #000000; stroke-width: 0.8"/>
      </g>
     </g>
     <g id="text_12">
      <!-- 1.0 -->
      <g transform="translate(35.615 99.19875) scale(0.16 -0.16)">
       <defs>
        <path id="DejaVuSans-31" d="M 794 531 
L 1825 531 
L 1825 4091 
L 703 3866 
L 703 4441 
L 1819 4666 
L 2450 4666 
L 2450 531 
L 3481 531 
L 3481 0 
L 794 0 
L 794 531 
z
" transform="scale(0.015625)"/>
       </defs>
       <use xlink:href="#DejaVuSans-31"/>
       <use xlink:href="#DejaVuSans-2e" x="63.623047"/>
       <use xlink:href="#DejaVuSans-30" x="95.410156"/>
      </g>
     </g>
    </g>
    <g id="text_13">
     <!-- Firing rate -->
     <g transform="translate(27.039688 234.897344) rotate(-90) scale(0.22 -0.22)">
      <defs>
       <path id="DejaVuSans-46" d="M 628 4666 
L 3309 4666 
L 3309 4134 
L 1259 4134 
L 1259 2759 
L 3109 2759 
L 3109 2228 
L 1259 2228 
L 1259 0 
L 628 0 
L 628 4666 
z
" transform="scale(0.015625)"/>
       <path id="DejaVuSans-72" d="M 2631 2963 
Q 2534 3019 2420 3045 
Q 2306 3072 2169 3072 
Q 1681 3072 1420 2755 
Q 1159 2438 1159 1844 
L 1159 0 
L 581 0 
L 581 3500 
L 1159 3500 
L 1159 2956 
Q 1341 3275 1631 3429 
Q 1922 3584 2338 3584 
Q 2397 3584 2469 3576 
Q 2541 3569 2628 3553 
L 2631 2963 
z
" transform="scale(0.015625)"/>
       <path id="DejaVuSans-6e" d="M 3513 2113 
L 3513 0 
L 2938 0 
L 2938 2094 
Q 2938 2591 2744 2837 
Q 2550 3084 2163 3084 
Q 1697 3084 1428 2787 
Q 1159 2491 1159 1978 
L 1159 0 
L 581 0 
L 581 3500 
L 1159 3500 
L 1159 2956 
Q 1366 3272 1645 3428 
Q 1925 3584 2291 3584 
Q 2894 3584 3203 3211 
Q 3513 2838 3513 2113 
z
" transform="scale(0.015625)"/>
       <path id="DejaVuSans-67" d="M 2906 1791 
Q 2906 2416 2648 2759 
Q 2391 3103 1925 3103 
Q 1463 3103 1205 2759 
Q 947 2416 947 1791 
Q 947 1169 1205 825 
Q 1463 481 1925 481 
Q 2391 481 2648 825 
Q 2906 1169 2906 1791 
z
M 3481 434 
Q 3481 -459 3084 -895 
Q 2688 -1331 1869 -1331 
Q 1566 -1331 1297 -1286 
Q 1028 -1241 775 -1147 
L 775 -588 
Q 1028 -725 1275 -790 
Q 1522 -856 1778 -856 
Q 2344 -856 2625 -561 
Q 2906 -266 2906 331 
L 2906 616 
Q 2728 306 2450 153 
Q 2172 0 1784 0 
Q 1141 0 747 490 
Q 353 981 353 1791 
Q 353 2603 747 3093 
Q 1141 3584 1784 3584 
Q 2172 3584 2450 3431 
Q 2728 3278 2906 2969 
L 2906 3500 
L 3481 3500 
L 3481 434 
z
" transform="scale(0.015625)"/>
       <path id="DejaVuSans-61" d="M 2194 1759 
Q 1497 1759 1228 1600 
Q 959 1441 959 1056 
Q 959 750 1161 570 
Q 1363 391 1709 391 
Q 2188 391 2477 730 
Q 2766 1069 2766 1631 
L 2766 1759 
L 2194 1759 
z
M 3341 1997 
L 3341 0 
L 2766 0 
L 2766 531 
Q 2569 213 2275 61 
Q 1981 -91 1556 -91 
Q 1019 -91 701 211 
Q 384 513 384 1019 
Q 384 1609 779 1909 
Q 1175 2209 1959 2209 
L 2766 2209 
L 2766 2266 
Q 2766 2663 2505 2880 
Q 2244 3097 1772 3097 
Q 1472 3097 1187 3025 
Q 903 2953 641 2809 
L 641 3341 
Q 956 3463 1253 3523 
Q 1550 3584 1831 3584 
Q 2591 3584 2966 3190 
Q 3341 2797 3341 1997 
z
" transform="scale(0.015625)"/>
       <path id="DejaVuSans-74" d="M 1172 4494 
L 1172 3500 
L 2356 3500 
L 2356 3053 
L 1172 3053 
L 1172 1153 
Q 1172 725 1289 603 
Q 1406 481 1766 481 
L 2356 481 
L 2356 0 
L 1766 0 
Q 1100 0 847 248 
Q 594 497 594 1153 
L 594 3053 
L 172 3053 
L 172 3500 
L 594 3500 
L 594 4494 
L 1172 4494 
z
" transform="scale(0.015625)"/>
      </defs>
      <use xlink:href="#DejaVuSans-46"/>
      <use xlink:href="#DejaVuSans-69" x="50.269531"/>
      <use xlink:href="#DejaVuSans-72" x="78.052734"/>
      <use xlink:href="#DejaVuSans-69" x="119.166016"/>
      <use xlink:href="#DejaVuSans-6e" x="146.949219"/>
      <use xlink:href="#DejaVuSans-67" x="210.328125"/>
      <use xlink:href="#DejaVuSans-20" x="273.804688"/>
      <use xlink:href="#DejaVuSans-72" x="305.591797"/>
      <use xlink:href="#DejaVuSans-61" x="346.705078"/>
      <use xlink:href="#DejaVuSans-74" x="407.984375"/>
      <use xlink:href="#DejaVuSans-65" x="447.193359"/>
     </g>
    </g>
   </g>
   <g id="line2d_12">
    <path d="M 79.068409 264.76 
L 80.967597 264.087443 
L 83.499848 263.469796 
L 87.022979 262.90262 
L 97.537324 261.233168 
L 103.12479 259.605824 
L 107.115837 257.877163 
L 110.83164 255.919411 
L 113.941904 254.341587 
L 115.675945 252.967617 
L 118.345818 250.428865 
L 120.492726 248.201265 
L 123.65804 245.328516 
L 127.071073 242.518448 
L 128.474821 240.884046 
L 129.603324 239.125822 
L 130.731827 237.095866 
L 132.383294 234.136335 
L 134.199909 231.489094 
L 135.768803 229.296794 
L 138.108383 225.318749 
L 141.246172 219.812109 
L 142.209528 218.687063 
L 143.117835 218.0658 
L 143.943569 217.666167 
L 144.576632 217.037944 
L 145.347317 216.206232 
L 146.778589 214.612169 
L 148.01719 213.320658 
L 148.953021 212.848735 
L 149.861329 212.49014 
L 151.182503 212.531797 
L 151.732992 212.732002 
L 153.687229 213.726506 
L 155.035928 214.561505 
L 156.632347 215.254639 
L 159.577464 215.281941 
L 160.210527 215.367865 
L 161.201408 215.145031 
L 161.972093 214.597848 
L 162.715253 213.729597 
L 163.678609 212.158284 
L 165.770468 208.5546 
L 169.981711 202.585468 
L 171.08269 200.433065 
L 172.513962 197.567446 
L 173.147025 196.834607 
L 173.890185 196.278706 
L 176.119667 195.291247 
L 177.605988 194.835178 
L 178.954686 194.135577 
L 180.441007 192.973334 
L 180.881399 192.846696 
L 182.230097 192.485587 
L 183.303552 191.849679 
L 183.854041 191.353306 
L 184.569677 190.464321 
L 185.477984 189.047315 
L 188.368053 183.568731 
L 189.056164 182.791984 
L 189.606654 182.472928 
L 190.212192 182.406427 
L 191.395744 182.595298 
L 192.386624 183.05989 
L 195.964805 185.823756 
L 196.652916 186.218703 
L 198.634678 187.334992 
L 199.157642 187.406178 
L 199.763181 187.499057 
L 202.10276 187.818538 
L 202.84592 187.696239 
L 203.506508 187.240808 
L 204.222144 186.475153 
L 205.075402 185.625155 
L 207.800324 183.659275 
L 208.350813 183.305955 
L 208.791205 183.248573 
L 209.176547 183.397458 
L 209.616938 183.744782 
L 210.029805 184.278869 
L 210.855539 185.789244 
L 214.213524 192.606975 
L 216.002614 196.089629 
L 217.46141 198.348443 
L 218.562389 199.497456 
L 219.222976 200.020597 
L 219.966137 200.283836 
L 220.571675 200.226422 
L 221.397409 199.800358 
L 222.08552 199.302185 
L 222.856205 198.749766 
L 223.654415 197.960093 
L 224.562722 196.588831 
L 225.801323 194.649894 
L 226.544483 194.03473 
L 227.920707 193.128235 
L 228.636343 192.819135 
L 229.186832 192.830304 
L 229.737321 193.062802 
L 231.361264 194.307786 
L 233.040257 195.709508 
L 234.499053 196.387447 
L 235.462409 196.949261 
L 236.343192 197.366699 
L 236.893682 197.348014 
L 237.389122 197.00227 
L 238.132282 196.209442 
L 240.554435 193.667653 
L 242.728868 192.628978 
L 244.270238 191.949858 
L 244.930825 191.041138 
L 245.866657 189.196936 
L 246.527244 187.526393 
L 247.435551 185.248136 
L 248.343858 183.559181 
L 249.197117 182.35454 
L 250.187997 181.407046 
L 251.013731 180.762153 
L 252.059661 179.922564 
L 253.050542 179.205192 
L 253.490933 179.025769 
L 254.316667 178.844976 
L 254.922205 178.785009 
L 256.573673 178.976179 
L 257.316833 178.651361 
L 257.839798 178.209271 
L 259.326119 176.633618 
L 259.986706 176.201452 
L 260.647293 176.019555 
L 262.408859 175.707376 
L 265.051208 176.369162 
L 265.987039 177.404805 
L 267.390787 179.512706 
L 268.188996 181.15915 
L 270.638674 186.467434 
L 276.171091 199.91633 
L 277.21702 201.797292 
L 278.125328 203.060168 
L 279.418977 204.459392 
L 279.914418 204.838768 
L 281.34569 205.413144 
L 282.006277 205.354131 
L 283.3825 204.989985 
L 284.868821 204.947381 
L 285.364261 204.916663 
L 285.887226 204.917736 
L 286.437715 205.123474 
L 289.135113 207.124422 
L 290.759056 208.298501 
L 291.364594 208.750429 
L 292.520622 209.222082 
L 293.401405 209.524735 
L 294.006943 209.528205 
L 294.695054 209.581697 
L 295.658411 209.613468 
L 296.566718 209.634707 
L 297.282354 209.737432 
L 298.520955 210.159128 
L 299.236591 210.367933 
L 299.236591 210.367933 
" clip-path="url(#pa10e7a9f39)" style="fill: none; stroke: #0000ff; stroke-width: 4; stroke-linecap: square"/>
   </g>
   <g id="line2d_13">
    <path d="M 79.068409 264.76 
L 81.105219 264.027339 
L 83.38975 263.45765 
L 86.885357 262.845999 
L 98.996121 261.054995 
L 104.968929 259.79502 
L 107.446131 259.035245 
L 109.950857 258.081908 
L 116.556728 255.442082 
L 119.061454 254.580947 
L 120.355104 254.162894 
L 123.217648 253.254178 
L 125.337032 252.480611 
L 127.043549 252.154209 
L 130.126288 252.023163 
L 139.51213 252.224516 
L 141.081025 252.15576 
L 147.163931 252.25817 
L 150.246671 252.67839 
L 151.898139 252.535858 
L 153.934949 252.311791 
L 155.201075 252.343705 
L 157.072738 252.502696 
L 158.338863 252.77742 
L 159.439842 252.999027 
L 166.678776 254.318088 
L 169.073404 254.747027 
L 171.137739 255.044704 
L 172.679109 255.21968 
L 175.95452 255.421005 
L 186.44134 255.767919 
L 189.02864 255.903565 
L 191.175548 255.726033 
L 193.927994 255.601282 
L 205.873611 256.008491 
L 209.314169 255.958175 
L 214.543817 255.406764 
L 220.516626 255.567586 
L 222.938779 255.809334 
L 225.828847 255.981759 
L 231.774131 255.458386 
L 233.783417 255.290521 
L 235.324787 255.359999 
L 237.444171 255.644811 
L 240.912253 256.104177 
L 242.756392 256.223586 
L 247.903467 256.576599 
L 249.77513 256.662067 
L 252.032136 256.726954 
L 261.803321 256.440145 
L 266.317333 256.045027 
L 270.335904 255.545553 
L 272.152519 255.379061 
L 276.418811 255.271504 
L 277.822558 255.267202 
L 279.639173 255.27058 
L 293.236258 255.318168 
L 295.107921 255.198602 
L 299.236591 255.191573 
L 299.236591 255.191573 
" clip-path="url(#pa10e7a9f39)" style="fill: none; stroke: #ff0000; stroke-width: 4; stroke-linecap: square"/>
   </g>
   <g id="line2d_14">
    <path d="M 79.068409 264.76 
L 80.967597 264.086345 
L 83.472323 263.460177 
L 85.922 263.048674 
L 93.738948 261.854734 
L 99.326414 260.62597 
L 103.344986 259.356454 
L 108.134242 257.290096 
L 109.78571 256.171382 
L 112.951023 253.652255 
L 114.877736 251.606221 
L 116.226435 249.6704 
L 117.602658 247.199469 
L 119.997286 242.143267 
L 121.043216 239.585962 
L 122.144194 236.416839 
L 122.942404 233.534801 
L 123.960809 229.345116 
L 125.474654 221.998805 
L 126.520584 215.80625 
L 127.814234 206.759422 
L 129.27303 194.90992 
L 130.896973 180.020595 
L 135.19079 140.535099 
L 136.401866 132.0734 
L 137.695516 124.61619 
L 139.099264 117.800239 
L 140.337864 112.793726 
L 141.548941 108.824089 
L 142.677444 105.816913 
L 143.860996 103.274319 
L 145.099597 101.122025 
L 146.365722 99.361194 
L 147.576798 98.061347 
L 148.842924 97.022567 
L 150.356769 96.083337 
L 151.925663 95.358522 
L 153.549607 94.854507 
L 155.66899 94.466515 
L 158.393912 94.210191 
L 165.247504 93.875551 
L 177.413316 93.623327 
L 186.166096 93.658656 
L 198.27686 93.65209 
L 238.380003 93.47866 
L 292.355475 93.502515 
L 299.236591 93.475853 
L 299.236591 93.475853 
" clip-path="url(#pa10e7a9f39)" style="fill: none; stroke-dasharray: 4,6.6; stroke-dashoffset: 0; stroke: #0000ff; stroke-width: 4"/>
   </g>
   <g id="line2d_15">
    <path d="M 79.068409 264.76 
L 81.077695 264.039587 
L 83.38975 263.465281 
L 86.087147 263.037438 
L 100.647588 260.874856 
L 103.234888 260.128375 
L 108.409487 258.014924 
L 114.685065 255.102055 
L 116.171386 254.288228 
L 119.144028 252.433435 
L 120.740447 251.101193 
L 122.36439 249.414188 
L 124.070907 247.453231 
L 127.704136 242.860823 
L 129.328079 240.247829 
L 130.484107 237.954289 
L 131.86033 234.742226 
L 134.502678 227.69633 
L 138.576299 215.576868 
L 140.723207 209.147141 
L 143.007737 202.972146 
L 143.916045 200.495196 
L 147.081358 192.361793 
L 149.641133 185.003304 
L 150.439342 182.597932 
L 151.622894 178.425936 
L 153.081691 172.614148 
L 154.485438 166.16815 
L 157.127787 152.6617 
L 160.127953 136.237989 
L 161.861995 127.977677 
L 163.37584 121.932957 
L 164.91721 116.534706 
L 165.96314 113.637252 
L 167.146692 111.046748 
L 168.165097 109.28948 
L 169.458747 107.450668 
L 170.779921 105.850121 
L 173.009402 103.58767 
L 175.321457 101.66266 
L 179.202407 98.81569 
L 180.606154 98.035095 
L 182.285146 97.386938 
L 184.046712 96.892916 
L 187.790039 96.113611 
L 194.203239 95.19481 
L 198.52458 94.860553 
L 201.579795 94.793892 
L 205.543318 94.938646 
L 210.745441 95.486339 
L 218.369718 96.156231 
L 226.792204 95.892769 
L 230.425433 95.534779 
L 234.388955 95.265531 
L 237.691891 95.285142 
L 242.61877 95.4601 
L 248.398907 95.716588 
L 265.904466 95.152206 
L 270.776296 95.168061 
L 280.987872 94.782928 
L 288.034134 94.947469 
L 299.236591 94.860571 
L 299.236591 94.860571 
" clip-path="url(#pa10e7a9f39)" style="fill: none; stroke-dasharray: 4,6.6; stroke-dashoffset: 0; stroke: #ff0000; stroke-width: 4"/>
   </g>
   <g id="patch_3">
    <path d="M 68.06 264.76 
L 68.06 93.12 
" style="fill: none; stroke: #000000; stroke-width: 3; stroke-linejoin: miter; stroke-linecap: square"/>
   </g>
   <g id="patch_4">
    <path d="M 68.06 264.76 
L 310.245 264.76 
" style="fill: none; stroke: #000000; stroke-width: 3; stroke-linejoin: miter; stroke-linecap: square"/>
   </g>
   <g id="text_14">
    <!-- DNa02 -->
    <g transform="translate(148.31125 87.12) scale(0.24 -0.24)">
     <defs>
      <path id="DejaVuSans-44" d="M 1259 4147 
L 1259 519 
L 2022 519 
Q 2988 519 3436 956 
Q 3884 1394 3884 2338 
Q 3884 3275 3436 3711 
Q 2988 4147 2022 4147 
L 1259 4147 
z
M 628 4666 
L 1925 4666 
Q 3281 4666 3915 4102 
Q 4550 3538 4550 2338 
Q 4550 1131 3912 565 
Q 3275 0 1925 0 
L 628 0 
L 628 4666 
z
" transform="scale(0.015625)"/>
      <path id="DejaVuSans-4e" d="M 628 4666 
L 1478 4666 
L 3547 763 
L 3547 4666 
L 4159 4666 
L 4159 0 
L 3309 0 
L 1241 3903 
L 1241 0 
L 628 0 
L 628 4666 
z
" transform="scale(0.015625)"/>
     </defs>
     <use xlink:href="#DejaVuSans-44"/>
     <use xlink:href="#DejaVuSans-4e" x="77.001953"/>
     <use xlink:href="#DejaVuSans-61" x="151.806641"/>
     <use xlink:href="#DejaVuSans-30" x="213.085938"/>
     <use xlink:href="#DejaVuSans-32" x="276.708984"/>
    </g>
   </g>
  </g>
  <g id="axes_2">
   <g id="patch_5">
    <path d="M 321.045 264.76 
L 563.23 264.76 
L 563.23 93.12 
L 321.045 93.12 
z
" style="fill: #ffffff"/>
   </g>
   <g id="matplotlib.axis_3">
    <g id="xtick_6">
     <g id="line2d_16">
      <g>
       <use xlink:href="#m4d793a04bb" x="332.053409" y="264.76" style="stroke: #000000; stroke-width: 0.8"/>
      </g>
     </g>
    </g>
    <g id="xtick_7">
     <g id="line2d_17">
      <g>
       <use xlink:href="#m4d793a04bb" x="387.102336" y="264.76" style="stroke: #000000; stroke-width: 0.8"/>
      </g>
     </g>
    </g>
    <g id="xtick_8">
     <g id="line2d_18">
      <g>
       <use xlink:href="#m4d793a04bb" x="442.151262" y="264.76" style="stroke: #000000; stroke-width: 0.8"/>
      </g>
     </g>
    </g>
    <g id="xtick_9">
     <g id="line2d_19">
      <g>
       <use xlink:href="#m4d793a04bb" x="497.200189" y="264.76" style="stroke: #000000; stroke-width: 0.8"/>
      </g>
     </g>
    </g>
    <g id="xtick_10">
     <g id="line2d_20">
      <g>
       <use xlink:href="#m4d793a04bb" x="552.249115" y="264.76" style="stroke: #000000; stroke-width: 0.8"/>
      </g>
     </g>
    </g>
   </g>
   <g id="matplotlib.axis_4"/>
   <g id="line2d_21">
    <path d="M 332.053409 264.76 
L 336.12703 262.102499 
L 343.943977 257.591916 
L 345.402774 256.457193 
L 346.145934 255.867961 
L 349.614017 253.17504 
L 350.384702 252.182816 
L 352.504085 249.173432 
L 356.35751 243.85271 
L 357.183244 242.552354 
L 359.93569 238.069677 
L 360.871522 236.432214 
L 362.357843 234.305521 
L 363.348724 233.217493 
L 365.137814 231.822298 
L 365.936023 231.201684 
L 366.596611 230.078924 
L 368.220554 227.17182 
L 369.954595 224.532077 
L 370.312413 224.151827 
L 370.835378 223.48011 
L 372.184077 221.684703 
L 372.679517 221.342007 
L 375.899879 219.851594 
L 379.505584 218.617878 
L 380.96438 217.121572 
L 381.652492 216.256316 
L 383.138813 214.407782 
L 384.29484 213.30105 
L 385.010476 213.207481 
L 385.698588 213.232806 
L 386.138979 213.272869 
L 386.63442 213.383108 
L 387.542727 213.375179 
L 388.726279 212.800889 
L 389.524488 212.19034 
L 390.790614 211.528191 
L 391.368627 211.258289 
L 391.726445 210.96989 
L 392.221886 210.712864 
L 392.662277 210.73538 
L 393.79078 210.936202 
L 394.313745 211.01222 
L 395.111954 211.401975 
L 395.882639 211.891803 
L 396.735898 212.373929 
L 396.956094 212.299004 
L 398.469939 211.126208 
L 399.625966 210.77915 
L 400.534274 210.55996 
L 401.00219 210.840786 
L 402.103168 211.573391 
L 403.149098 212.067045 
L 403.78216 212.393332 
L 404.717992 212.84112 
L 405.461153 213.108389 
L 406.699754 213.311632 
L 407.277767 213.437996 
L 409.534773 213.378751 
L 410.635752 212.716371 
L 411.076143 212.684599 
L 412.067024 212.915011 
L 412.562464 213.124464 
L 412.975331 213.230532 
L 413.580869 213.042647 
L 414.351554 212.62167 
L 416.470938 210.495176 
L 417.379245 209.805785 
L 417.929735 209.76587 
L 418.287553 209.94577 
L 418.70042 210.080433 
L 419.663776 210.450044 
L 420.269314 210.384428 
L 420.764754 210.247522 
L 421.315244 210.112636 
L 423.02176 209.870942 
L 424.783326 208.820381 
L 425.416389 208.929818 
L 425.85678 209.349509 
L 426.407269 209.875066 
L 427.067856 210.311889 
L 428.416555 210.398219 
L 428.801898 210.407747 
L 429.242289 210.454591 
L 429.792778 210.34043 
L 431.691966 209.881529 
L 432.847994 209.376616 
L 433.233336 209.410106 
L 433.591154 209.569008 
L 434.499461 210.209234 
L 434.939853 210.268424 
L 435.187573 210.16797 
L 435.572916 210.008088 
L 435.930734 209.878664 
L 436.756467 209.477571 
L 437.88497 208.620778 
L 438.518033 208.121556 
L 439.040998 207.668357 
L 439.619012 207.560855 
L 440.885137 207.649294 
L 441.628297 208.071652 
L 443.30729 209.653843 
L 443.637583 209.751749 
L 444.325695 209.926191 
L 447.023092 210.274637 
L 447.408435 210.273583 
L 448.069022 210.38099 
L 448.564462 210.332448 
L 448.894756 210.287047 
L 449.417721 210.154202 
L 451.839873 210.213901 
L 452.445412 209.932979 
L 452.968376 210.056577 
L 453.491341 210.087368 
L 453.711537 210.161298 
L 454.179453 210.335416 
L 454.647369 210.282423 
L 455.197858 210.188313 
L 455.665774 210.104326 
L 456.106165 209.775379 
L 457.152095 208.911023 
L 457.564962 208.778919 
L 458.115451 208.897049 
L 458.638416 209.127807 
L 459.216429 209.25925 
L 459.739394 209.262114 
L 459.987114 209.240859 
L 461.115617 209.003163 
L 461.50096 209.211956 
L 462.326694 210.196012 
L 464.143308 212.404697 
L 464.693798 212.80333 
L 465.106665 212.793077 
L 465.794776 212.648569 
L 466.235168 212.556035 
L 466.703083 212.512013 
L 468.65732 212.944847 
L 469.152761 212.862519 
L 469.895921 212.900036 
L 470.253739 212.873436 
L 471.547389 212.494571 
L 472.097878 212.39598 
L 472.675892 212.091039 
L 473.666773 211.363003 
L 474.134689 211.076114 
L 474.905374 210.626799 
L 475.62101 210.674345 
L 476.556841 210.415927 
L 477.988113 209.408891 
L 478.456029 209.36605 
L 478.841372 209.568223 
L 479.777204 210.369359 
L 480.602937 210.688624 
L 481.786489 210.859313 
L 483.933397 212.1717 
L 484.676558 212.248382 
L 485.171998 212.268127 
L 485.942683 212.170903 
L 487.263858 211.637344 
L 488.612556 211.834017 
L 489.163046 211.862539 
L 489.493339 211.739297 
L 489.961255 211.331631 
L 491.365003 209.921679 
L 492.576079 209.738753 
L 493.071519 209.789855 
L 493.594484 210.211568 
L 494.227547 210.639716 
L 496.89742 210.743497 
L 497.778203 209.676107 
L 498.466314 208.724998 
L 499.512244 207.588717 
L 499.842537 207.331823 
L 500.145306 207.296444 
L 500.695796 207.542929 
L 502.539935 208.690876 
L 503.888633 209.095954 
L 504.218927 208.972124 
L 504.54922 208.934231 
L 506.475933 209.087697 
L 506.943849 209.354504 
L 508.402645 209.613261 
L 509.145806 209.750419 
L 509.613722 209.469436 
L 510.907372 208.39385 
L 511.292714 208.027791 
L 511.623008 207.977815 
L 512.338644 208.08809 
L 512.944182 208.397505 
L 513.962587 208.921046 
L 514.980992 209.025399 
L 515.448908 209.172797 
L 515.999397 209.344295 
L 516.935229 209.257483 
L 517.540767 209.233256 
L 517.898585 209.437664 
L 518.586697 210.034471 
L 519.605102 210.781531 
L 520.430836 211.045808 
L 521.586863 211.722796 
L 521.944681 211.702015 
L 522.660317 211.949096 
L 524.862274 212.964891 
L 525.385239 212.994341 
L 525.798106 213.008955 
L 526.596316 213.424738 
L 527.174329 213.793416 
L 527.91749 214.14828 
L 528.41293 214.146934 
L 528.935895 214.215124 
L 529.348762 214.159987 
L 530.917656 213.614661 
L 531.605768 213.404454 
L 532.101208 213.326475 
L 532.816844 213.32102 
L 533.587529 212.879216 
L 534.743557 212.624854 
L 535.62434 212.122913 
L 536.11978 212.241894 
L 536.752843 212.419686 
L 537.275807 212.485367 
L 538.129066 212.801423 
L 538.762128 212.760032 
L 539.312618 213.053311 
L 540.275974 214.018868 
L 540.853988 214.22794 
L 542.670602 214.05598 
L 544.349594 214.392483 
L 545.588195 213.974889 
L 546.744223 213.652188 
L 547.129565 213.448211 
L 547.597481 213.461594 
L 548.175495 213.451642 
L 548.891131 213.449748 
L 550.157256 213.667568 
L 550.460025 213.772756 
L 551.450906 214.135206 
L 551.973871 214.186468 
L 552.221591 214.125274 
L 552.221591 214.125274 
" clip-path="url(#p0979594a53)" style="fill: none; stroke: #0000ff; stroke-width: 4; stroke-linecap: square"/>
   </g>
   <g id="line2d_22">
    <path d="M 332.053409 264.76 
L 337.695924 261.028692 
L 339.95293 259.701331 
L 342.925572 258.119549 
L 344.659613 257.046225 
L 347.742353 255.07787 
L 349.586492 253.583235 
L 351.293009 251.740733 
L 352.366463 250.693661 
L 354.595945 248.596306 
L 355.724448 247.708171 
L 357.320866 245.909 
L 359.109957 243.598853 
L 363.734066 237.142261 
L 365.302961 235.13744 
L 365.85345 234.535019 
L 366.596611 233.953515 
L 367.422344 233.496323 
L 368.303127 232.761782 
L 369.101337 232.138365 
L 371.110622 231.118239 
L 372.01893 230.251614 
L 372.624468 229.884824 
L 375.156719 229.193479 
L 375.624634 228.871144 
L 376.477893 228.059352 
L 377.3862 227.570737 
L 378.074312 227.201597 
L 378.459654 227.235766 
L 381.982785 228.073389 
L 382.643373 228.086066 
L 383.7994 228.360436 
L 384.377414 228.559546 
L 384.982952 228.717728 
L 386.249077 228.75277 
L 387.102336 228.481298 
L 388.42351 228.440564 
L 389.71716 229.04428 
L 390.735565 228.94689 
L 391.451201 228.723305 
L 391.836543 228.633227 
L 392.579704 228.42617 
L 393.157718 228.342272 
L 393.653158 228.394173 
L 395.800066 228.519167 
L 396.570751 228.464735 
L 397.038667 228.555574 
L 398.112121 228.771689 
L 398.91033 229.011107 
L 399.598442 229.29369 
L 400.121407 229.489916 
L 401.74535 230.467642 
L 402.185742 230.506274 
L 402.818804 230.21569 
L 403.892258 229.683306 
L 404.607894 229.339708 
L 405.158384 229.011132 
L 405.626299 228.913306 
L 407.11262 228.896186 
L 410.800899 230.626379 
L 411.709206 231.351942 
L 412.149597 231.38071 
L 413.03038 231.411549 
L 413.856114 231.404448 
L 414.351554 231.413249 
L 414.957093 231.584422 
L 418.287553 233.041559 
L 419.030713 233.411822 
L 420.049118 233.821635 
L 420.599607 233.927928 
L 422.77404 233.988235 
L 423.241956 234.063906 
L 423.792445 234.352133 
L 424.508081 234.694503 
L 425.141144 234.727377 
L 427.64587 234.881262 
L 429.655156 234.42352 
L 431.196526 234.459558 
L 432.104833 234.318383 
L 432.875518 234.504755 
L 433.370958 234.568579 
L 434.169168 234.541366 
L 435.187573 234.570369 
L 436.013307 234.651689 
L 438.68318 235.519028 
L 439.343767 235.565411 
L 440.362172 235.785464 
L 441.820969 235.628813 
L 442.701751 235.330383 
L 443.995401 234.640411 
L 444.711037 234.518213 
L 446.665274 234.561388 
L 448.591987 235.340473 
L 450.518699 235.385459 
L 452.665607 235.279284 
L 453.739061 235.597794 
L 454.262026 235.74727 
L 455.307956 235.990029 
L 456.931899 235.938337 
L 457.92278 235.902581 
L 458.335647 235.876771 
L 461.25324 235.801617 
L 462.684512 235.106959 
L 463.29005 234.740871 
L 463.78549 234.589867 
L 464.666273 234.328116 
L 465.216762 234.15437 
L 466.510412 234.120744 
L 467.583866 234.456051 
L 468.877516 234.83947 
L 469.923446 234.525772 
L 470.501459 234.339663 
L 470.969375 234.33313 
L 471.574913 234.634739 
L 472.703416 235.216236 
L 474.877849 236.046005 
L 476.529317 236.204761 
L 477.327526 236.291877 
L 478.703749 236.012381 
L 480.465315 235.197168 
L 480.960755 235.10509 
L 482.061734 234.876257 
L 482.997566 234.43434 
L 483.465482 234.464462 
L 484.07102 234.469001 
L 485.86011 234.084343 
L 487.484053 234.470877 
L 488.309787 234.888803 
L 488.915325 235.258694 
L 490.098877 235.826801 
L 491.007185 236.388911 
L 491.667772 236.833491 
L 492.493506 236.96437 
L 493.484386 236.752529 
L 494.420218 236.500157 
L 495.411099 236.649122 
L 498.356216 237.209897 
L 499.484719 237.258131 
L 500.72332 237.366338 
L 501.576578 237.159993 
L 502.182117 237.271274 
L 503.31062 237.588648 
L 504.384074 237.457103 
L 505.732772 237.00343 
L 506.503457 236.802201 
L 507.714534 236.710607 
L 509.833917 237.229904 
L 510.852323 237.26337 
L 512.366168 237.019257 
L 513.907538 236.271497 
L 514.760796 236.150843 
L 515.696628 235.965516 
L 516.274642 235.791088 
L 516.907705 235.863968 
L 517.788487 235.857928 
L 518.228879 235.69846 
L 519.192235 235.300546 
L 520.375787 235.181149 
L 520.816178 235.061822 
L 521.641912 234.731169 
L 524.091589 234.062729 
L 524.779701 234.149137 
L 527.11928 235.179201 
L 527.807392 234.953971 
L 528.495504 234.480263 
L 529.018468 234.232317 
L 529.926776 234.085338 
L 530.312118 234.244158 
L 531.00023 234.662132 
L 531.49567 234.68069 
L 532.514075 234.680689 
L 535.183948 234.697633 
L 535.954633 234.589078 
L 536.505122 234.688561 
L 538.239164 235.072803 
L 540.055778 234.834084 
L 540.688841 234.953818 
L 541.019134 234.976899 
L 541.789819 234.913959 
L 542.918322 235.235437 
L 543.578909 235.257603 
L 544.267021 235.10115 
L 544.734937 234.938903 
L 545.285426 234.841619 
L 546.468978 234.370877 
L 547.184614 234.219421 
L 548.065397 234.280634 
L 551.671102 234.628437 
L 552.221591 234.561498 
L 552.221591 234.561498 
" clip-path="url(#p0979594a53)" style="fill: none; stroke: #ff0000; stroke-width: 4; stroke-linecap: square"/>
   </g>
   <g id="line2d_23">
    <path d="M 332.053409 264.76 
L 336.87019 261.594438 
L 338.631756 260.703249 
L 340.338273 259.892803 
L 342.760425 258.445833 
L 345.402774 256.404565 
L 347.109291 254.73278 
L 351.348058 250.343607 
L 356.10979 243.538574 
L 358.614516 239.724036 
L 359.577872 238.328009 
L 360.788949 236.242932 
L 363.734066 230.495409 
L 364.339605 229.555609 
L 366.211268 225.871045 
L 367.037002 224.508519 
L 367.697589 223.304555 
L 369.43163 219.307679 
L 370.174791 217.705142 
L 371.165671 215.824069 
L 375.211768 209.948229 
L 375.707208 208.728147 
L 376.367795 207.399607 
L 377.854116 205.034259 
L 378.487179 204.188353 
L 379.202815 202.833879 
L 381.872688 198.161869 
L 382.946142 196.619298 
L 383.661778 195.476973 
L 384.625134 194.092977 
L 385.148099 193.531901 
L 385.726112 192.970436 
L 387.515203 190.530785 
L 387.873021 190.294381 
L 388.478559 190.418317 
L 389.304293 190.607857 
L 390.074978 190.353721 
L 390.955761 189.647811 
L 391.726445 188.590509 
L 392.524655 187.334947 
L 393.680682 186.193514 
L 394.478892 185.403671 
L 395.111954 184.800461 
L 395.965213 184.111625 
L 396.928569 183.051487 
L 400.038833 178.687851 
L 400.341603 178.3322 
L 400.947141 177.686959 
L 402.54356 176.332907 
L 403.974832 173.669278 
L 404.387699 173.06991 
L 405.488677 172.155776 
L 405.956593 172.16747 
L 406.754802 172.614102 
L 407.470438 173.095498 
L 407.855781 172.960318 
L 408.40627 172.739971 
L 408.929235 172.803341 
L 409.727444 172.868537 
L 410.030214 173.031159 
L 410.525654 173.284163 
L 412.700087 172.805048 
L 413.140478 172.370235 
L 415.810351 169.220495 
L 416.525987 168.703463 
L 417.90221 168.356657 
L 418.810517 168.467705 
L 420.379412 167.487403 
L 420.847328 167.114096 
L 421.893257 166.435102 
L 422.333649 166.208016 
L 422.911662 165.950315 
L 423.407103 165.786111 
L 423.985116 165.487295 
L 424.618179 165.375788 
L 427.095381 165.34098 
L 427.976164 164.996756 
L 431.196526 164.135242 
L 431.444246 164.27647 
L 431.884637 164.742539 
L 432.903043 165.769562 
L 433.370958 165.820855 
L 434.196692 165.916565 
L 434.967377 165.948121 
L 435.325195 165.996174 
L 436.068356 166.270758 
L 438.462984 167.883275 
L 439.013473 167.81521 
L 440.141976 167.594452 
L 440.47227 167.570028 
L 442.7568 167.02764 
L 443.885303 167.070272 
L 444.270646 166.971387 
L 445.234002 166.623805 
L 446.417554 166.120692 
L 446.747848 165.956785 
L 447.546057 165.269377 
L 448.206644 165.08476 
L 449.087427 165.348917 
L 450.133357 165.796878 
L 451.096713 165.695157 
L 451.729775 165.078997 
L 453.353719 163.778535 
L 453.986781 163.414683 
L 454.950138 162.543867 
L 455.418054 162.236163 
L 456.106165 162.008508 
L 456.656654 161.679499 
L 457.867731 160.933058 
L 459.409101 159.599956 
L 459.739394 159.567905 
L 460.069688 159.604633 
L 460.647702 159.664876 
L 462.051449 159.720861 
L 462.491841 159.794844 
L 463.29005 160.038247 
L 464.253406 159.880504 
L 465.189238 159.246859 
L 466.097545 158.745004 
L 466.565461 158.792533 
L 467.11595 158.9939 
L 467.528817 159.032921 
L 467.996733 159.04054 
L 469.400481 159.867106 
L 470.281264 160.454632 
L 470.831753 160.747722 
L 471.409767 160.62032 
L 471.850158 160.509153 
L 472.180452 160.367768 
L 472.565794 160.059977 
L 473.556675 159.478505 
L 475.86873 160.023292 
L 476.749513 159.859156 
L 477.547722 160.075896 
L 477.960589 160.047482 
L 478.428505 160.125666 
L 479.914826 161.070604 
L 480.217595 161.236865 
L 481.043329 161.206867 
L 481.566294 160.971343 
L 481.924112 160.73706 
L 482.447076 160.429187 
L 483.327859 160.138589 
L 484.098544 159.663895 
L 484.621509 159.412048 
L 485.0619 159.13295 
L 485.502292 159.133482 
L 485.750012 159.083251 
L 486.328026 158.983518 
L 487.456529 159.158647 
L 489.493339 159.525298 
L 490.456695 159.984921 
L 491.034709 160.076582 
L 491.77787 160.328198 
L 492.27331 160.363646 
L 492.76875 160.285614 
L 494.0624 159.574229 
L 494.695463 159.163064 
L 495.35605 159.128659 
L 496.952469 159.305159 
L 497.558007 159.10058 
L 498.025923 159.151255 
L 499.016803 159.243157 
L 499.787488 159.513286 
L 500.4756 159.701235 
L 501.659152 159.757835 
L 502.182117 159.970107 
L 502.925277 160.222996 
L 503.283095 160.361964 
L 504.521696 161.014042 
L 504.879514 160.963196 
L 505.430003 161.094547 
L 505.650199 161.09505 
L 506.64108 160.601308 
L 508.67789 159.428186 
L 509.393526 159.332838 
L 511.26519 158.752385 
L 511.815679 158.651138 
L 512.25607 158.618243 
L 512.668937 158.424377 
L 514.04516 157.359749 
L 514.540601 157.038732 
L 515.008517 157.142585 
L 515.476432 157.396361 
L 516.081971 157.833197 
L 516.715033 158.187406 
L 517.348096 158.301742 
L 517.760963 158.379076 
L 519.495004 158.410451 
L 520.100542 158.70425 
L 520.540934 158.916805 
L 520.981325 159.050061 
L 521.531814 159.214757 
L 521.807059 159.285275 
L 522.137353 159.330646 
L 522.495171 159.163481 
L 522.908038 159.08852 
L 523.981492 159.175439 
L 524.229212 159.34064 
L 524.944848 160.040915 
L 525.660484 160.882342 
L 526.706413 161.878083 
L 527.009183 161.922033 
L 527.284427 161.815927 
L 527.779868 161.638914 
L 528.495504 161.680258 
L 529.293713 161.855804 
L 529.761629 161.686084 
L 531.633292 161.904999 
L 531.99111 161.691705 
L 532.596649 161.323318 
L 533.202187 161.111823 
L 534.82613 161.236523 
L 535.349095 160.932946 
L 536.477598 160.629796 
L 537.468479 160.924543 
L 537.90887 161.081228 
L 538.459359 160.961997 
L 538.789653 160.920661 
L 539.119946 160.928824 
L 540.853988 160.641482 
L 541.73477 160.838817 
L 542.340309 160.786831 
L 542.918322 161.02233 
L 543.496336 161.072835 
L 544.046825 161.102738 
L 544.624839 160.798923 
L 545.340475 160.517077 
L 547.267188 160.688103 
L 547.927775 160.125514 
L 548.643411 159.375796 
L 549.056278 159.019129 
L 549.634291 158.739399 
L 550.955466 158.386425 
L 552.221591 158.481192 
L 552.221591 158.481192 
" clip-path="url(#p0979594a53)" style="fill: none; stroke-dasharray: 4,6.6; stroke-dashoffset: 0; stroke: #0000ff; stroke-width: 4"/>
   </g>
   <g id="line2d_24">
    <path d="M 332.053409 264.76 
L 336.87019 261.590201 
L 340.007979 260.127737 
L 342.760425 258.635358 
L 345.3202 257.177607 
L 349.228674 254.274138 
L 350.852618 252.777281 
L 353.632588 249.963928 
L 355.944643 246.567469 
L 358.862236 241.033209 
L 364.779996 232.993513 
L 365.495632 232.235526 
L 366.183744 231.313505 
L 367.202149 230.096957 
L 368.082932 229.21862 
L 371.413392 224.98437 
L 372.486846 223.676639 
L 375.184243 219.620993 
L 377.716494 216.806985 
L 378.377081 216.33595 
L 379.478059 215.641742 
L 379.890926 215.093745 
L 381.019429 213.539315 
L 381.569919 212.992749 
L 385.533441 207.842835 
L 386.249077 207.411119 
L 386.63442 207.049665 
L 387.239958 206.607263 
L 388.561132 205.843862 
L 389.139146 205.477186 
L 389.799733 205.241151 
L 390.900712 204.71718 
L 391.919117 204.136974 
L 393.130193 203.714194 
L 393.763256 203.670444 
L 394.286221 203.760754 
L 394.644039 203.686932 
L 396.6258 202.62415 
L 397.809352 202.63506 
L 399.2131 201.958266 
L 401.222385 200.264479 
L 401.580203 200.329235 
L 402.598608 200.557658 
L 402.873853 200.412746 
L 403.837209 199.258602 
L 404.305125 198.721352 
L 406.644705 196.583634 
L 407.608061 195.86992 
L 409.837542 194.246838 
L 410.635752 193.280058 
L 413.057905 191.338043 
L 413.82859 190.766182 
L 415.094715 189.894592 
L 415.480057 189.762219 
L 415.755302 189.592281 
L 417.957259 187.822385 
L 418.342601 187.899499 
L 419.44358 188.646626 
L 419.883971 188.652306 
L 420.379412 188.650341 
L 420.957426 188.801726 
L 421.48039 188.757179 
L 422.52632 188.189047 
L 423.049285 187.827677 
L 423.517201 187.696765 
L 423.930068 187.629823 
L 426.242122 186.111725 
L 426.544892 185.91544 
L 427.866066 185.210763 
L 428.251408 185.065676 
L 429.132191 183.988808 
L 430.23317 182.658723 
L 431.554344 181.581596 
L 432.104833 181.125592 
L 432.545225 180.783509 
L 432.985616 180.860333 
L 433.838874 181.512202 
L 434.224217 181.760751 
L 435.022426 181.872919 
L 435.820636 181.670407 
L 436.316076 181.841803 
L 436.673894 181.916665 
L 437.306957 181.775267 
L 437.609726 181.536827 
L 438.68318 180.702263 
L 440.582368 180.369137 
L 441.270479 180.030471 
L 441.545724 179.873535 
L 443.114618 178.35871 
L 443.527485 178.205521 
L 444.766086 178.074658 
L 445.3441 177.988973 
L 447.9314 176.848362 
L 449.417721 176.803305 
L 449.96821 176.880691 
L 451.371957 176.780349 
L 451.674727 176.714346 
L 452.087593 176.763279 
L 452.555509 176.829258 
L 452.968376 177.047354 
L 454.344599 177.866277 
L 454.84004 178.088499 
L 455.390529 178.211407 
L 455.885969 178.263106 
L 456.684179 178.589379 
L 456.959423 178.559327 
L 457.344766 178.844261 
L 459.051283 180.601025 
L 460.014639 181.443341 
L 461.143142 182.177153 
L 461.445911 182.126485 
L 462.54689 181.633492 
L 464.088259 181.850942 
L 466.207643 183.082368 
L 466.510412 183.070032 
L 467.226048 183.024982 
L 467.776538 182.959776 
L 468.960089 182.81294 
L 469.400481 182.730659 
L 469.785823 182.517059 
L 471.437291 181.230096 
L 471.685011 181.198548 
L 472.125403 181.137523 
L 472.703416 181.074722 
L 473.364004 181.084063 
L 474.464982 181.455464 
L 475.31824 181.562641 
L 476.254072 181.422069 
L 476.777037 181.401357 
L 477.217428 181.348783 
L 477.90554 181.194227 
L 479.171665 180.528282 
L 479.501959 180.360634 
L 480.327693 180.089321 
L 481.648867 179.139128 
L 483.02509 177.871454 
L 483.520531 177.867458 
L 483.8233 177.857356 
L 484.593985 177.656322 
L 484.786656 177.771763 
L 485.144474 178.030463 
L 486.878515 178.877743 
L 487.484053 179.322879 
L 489.741059 180.485892 
L 490.264024 180.312614 
L 490.649367 180.284627 
L 491.144807 180.179595 
L 492.576079 179.954849 
L 492.878848 180.162952 
L 493.594484 180.850622 
L 494.144973 181.054094 
L 494.640414 181.173101 
L 495.190903 181.327882 
L 496.016637 181.56997 
L 497.200189 182.542186 
L 497.805727 182.555652 
L 498.714034 182.426725 
L 499.236999 181.626204 
L 500.007684 180.667165 
L 500.420551 180.4161 
L 502.815179 179.517858 
L 503.228046 179.426572 
L 503.971207 179.514937 
L 505.044661 179.801761 
L 505.732772 179.806931 
L 506.173164 179.874427 
L 507.466814 179.443266 
L 507.742058 179.424568 
L 508.567792 179.792081 
L 508.870561 179.826751 
L 510.21926 179.284681 
L 510.687176 178.71086 
L 511.650532 177.541574 
L 512.090923 177.336358 
L 512.779035 177.214173 
L 513.136853 177.337842 
L 513.632293 177.535685 
L 514.292881 177.955178 
L 515.33881 178.415059 
L 515.779202 178.840992 
L 516.329691 179.246241 
L 516.88018 179.284986 
L 517.953634 179.367957 
L 518.311452 179.617353 
L 518.66927 179.706928 
L 520.45836 179.437248 
L 521.50429 179.760898 
L 522.219926 179.610807 
L 522.687842 179.206633 
L 523.651198 178.174903 
L 524.33931 177.442918 
L 525.632959 176.362791 
L 525.853155 176.353364 
L 526.651365 176.742483 
L 527.174329 176.995847 
L 527.862441 176.716074 
L 528.467979 176.654117 
L 529.348762 176.222945 
L 529.816678 176.160524 
L 530.146971 176.184103 
L 530.780034 176.451719 
L 533.009516 177.886665 
L 534.055445 178.786141 
L 534.688508 178.956772 
L 535.514242 178.818898 
L 536.064731 178.716461 
L 536.560171 178.931108 
L 537.028087 179.101172 
L 537.688674 179.037514 
L 538.624506 178.777806 
L 539.918156 178.630538 
L 541.019134 178.025553 
L 542.257735 177.563467 
L 543.02842 177.600945 
L 543.358714 177.76161 
L 545.037706 178.910856 
L 546.386405 179.12643 
L 546.661649 178.963609 
L 547.569957 178.024574 
L 548.203019 177.507439 
L 549.248949 177.02198 
L 550.845368 176.920423 
L 552.221591 177.24066 
L 552.221591 177.24066 
" clip-path="url(#p0979594a53)" style="fill: none; stroke-dasharray: 4,6.6; stroke-dashoffset: 0; stroke: #ff0000; stroke-width: 4"/>
   </g>
   <g id="patch_6">
    <path d="M 321.045 264.76 
L 563.23 264.76 
" style="fill: none; stroke: #000000; stroke-width: 3; stroke-linejoin: miter; stroke-linecap: square"/>
   </g>
   <g id="text_15">
    <!-- LAL010 -->
    <g transform="translate(397.38125 87.12) scale(0.24 -0.24)">
     <defs>
      <path id="DejaVuSans-4c" d="M 628 4666 
L 1259 4666 
L 1259 531 
L 3531 531 
L 3531 0 
L 628 0 
L 628 4666 
z
" transform="scale(0.015625)"/>
      <path id="DejaVuSans-41" d="M 2188 4044 
L 1331 1722 
L 3047 1722 
L 2188 4044 
z
M 1831 4666 
L 2547 4666 
L 4325 0 
L 3669 0 
L 3244 1197 
L 1141 1197 
L 716 0 
L 50 0 
L 1831 4666 
z
" transform="scale(0.015625)"/>
     </defs>
     <use xlink:href="#DejaVuSans-4c"/>
     <use xlink:href="#DejaVuSans-41" x="57.962891"/>
     <use xlink:href="#DejaVuSans-4c" x="126.371094"/>
     <use xlink:href="#DejaVuSans-30" x="182.083984"/>
     <use xlink:href="#DejaVuSans-31" x="245.707031"/>
     <use xlink:href="#DejaVuSans-30" x="309.330078"/>
    </g>
   </g>
  </g>
  <g id="axes_3">
   <g id="patch_7">
    <path d="M 574.03 264.76 
L 816.215 264.76 
L 816.215 93.12 
L 574.03 93.12 
z
" style="fill: #ffffff"/>
   </g>
   <g id="matplotlib.axis_5">
    <g id="xtick_11">
     <g id="line2d_25">
      <g>
       <use xlink:href="#m4d793a04bb" x="585.038409" y="264.76" style="stroke: #000000; stroke-width: 0.8"/>
      </g>
     </g>
    </g>
    <g id="xtick_12">
     <g id="line2d_26">
      <g>
       <use xlink:href="#m4d793a04bb" x="640.087336" y="264.76" style="stroke: #000000; stroke-width: 0.8"/>
      </g>
     </g>
    </g>
    <g id="xtick_13">
     <g id="line2d_27">
      <g>
       <use xlink:href="#m4d793a04bb" x="695.136262" y="264.76" style="stroke: #000000; stroke-width: 0.8"/>
      </g>
     </g>
    </g>
    <g id="xtick_14">
     <g id="line2d_28">
      <g>
       <use xlink:href="#m4d793a04bb" x="750.185189" y="264.76" style="stroke: #000000; stroke-width: 0.8"/>
      </g>
     </g>
    </g>
    <g id="xtick_15">
     <g id="line2d_29">
      <g>
       <use xlink:href="#m4d793a04bb" x="805.234115" y="264.76" style="stroke: #000000; stroke-width: 0.8"/>
      </g>
     </g>
    </g>
   </g>
   <g id="matplotlib.axis_6"/>
   <g id="line2d_30">
    <path d="M 585.038409 264.76 
L 586.910073 263.610474 
L 589.249652 262.519657 
L 591.754378 261.681251 
L 601.277842 258.470744 
L 603.149506 257.691786 
L 609.09479 253.93816 
L 610.526062 252.804433 
L 613.361082 250.412361 
L 615.342843 248.786378 
L 616.774115 247.863322 
L 619.416464 246.210077 
L 625.939762 239.864963 
L 629.820711 237.763092 
L 631.829997 236.905553 
L 632.545633 236.492721 
L 634.49987 234.866968 
L 637.197267 232.145331 
L 638.105574 231.685478 
L 639.701993 231.231299 
L 640.582776 230.954319 
L 641.546132 230.432985 
L 645.537179 227.753085 
L 647.161123 227.292206 
L 647.986857 227.244716 
L 649.693373 227.461952 
L 650.023667 227.333958 
L 651.785233 226.309976 
L 653.381651 225.610864 
L 653.877092 225.578935 
L 658.611299 226.377607 
L 659.161789 226.350173 
L 660.015047 226.451247 
L 662.574822 226.239984 
L 663.373032 225.926264 
L 664.006094 225.776461 
L 665.189646 225.848874 
L 666.345674 225.872734 
L 667.474177 225.424969 
L 668.712777 224.558217 
L 670.63949 223.135988 
L 671.13493 223.047845 
L 673.089167 222.923741 
L 674.355292 222.509545 
L 676.474676 221.774014 
L 677.685753 221.09657 
L 678.318815 221.007689 
L 678.84178 221.227495 
L 679.557416 221.585164 
L 680.768492 221.883729 
L 681.318982 221.90817 
L 684.346673 221.559797 
L 684.814588 221.384084 
L 685.722896 220.989909 
L 686.328434 220.927799 
L 686.79635 221.041123 
L 687.869804 221.26847 
L 688.310195 221.153661 
L 689.686419 220.802683 
L 691.503033 219.743736 
L 692.16362 219.28013 
L 692.906781 219.100098 
L 693.264599 219.026226 
L 693.870137 218.910624 
L 694.640822 219.04572 
L 695.961996 219.752329 
L 696.567534 219.981531 
L 699.925519 220.389479 
L 700.558581 220.452828 
L 701.109071 220.512095 
L 703.063308 220.439347 
L 704.522104 220.436183 
L 705.980901 220.147798 
L 707.714942 220.198415 
L 709.091165 219.952663 
L 710.494913 219.226676 
L 711.127975 219.224948 
L 711.89866 219.337105 
L 712.917066 219.301106 
L 714.045569 219.044656 
L 714.651107 219.227036 
L 715.284169 219.689875 
L 717.871469 221.651099 
L 718.421958 221.66898 
L 719.440363 221.771652 
L 720.761538 222.116063 
L 721.752418 222.312937 
L 723.9819 222.29671 
L 725.77099 222.009085 
L 726.486626 221.712024 
L 727.725227 221.128911 
L 728.193143 221.122441 
L 729.046401 221.013167 
L 729.624415 220.822154 
L 731.441029 219.937089 
L 731.881421 219.991155 
L 732.652106 220.31074 
L 734.193476 220.456298 
L 734.771489 220.542525 
L 737.606509 221.548266 
L 739.423124 221.450519 
L 740.166284 221.272045 
L 742.698535 221.21547 
L 743.166451 220.887423 
L 743.992185 220.261649 
L 744.928016 219.972331 
L 746.166617 219.900625 
L 747.79056 220.22358 
L 748.478672 220.321093 
L 749.001637 220.394962 
L 749.6347 220.454843 
L 749.964993 220.382622 
L 750.405385 220.107317 
L 752.469719 218.344028 
L 752.910111 218.048188 
L 753.405551 217.993557 
L 754.479005 218.208737 
L 756.102948 218.567171 
L 756.625913 218.636718 
L 759.323311 218.48148 
L 760.204093 218.700814 
L 760.727058 218.753667 
L 762.103281 219.078926 
L 762.598722 218.943243 
L 763.837323 218.34761 
L 764.442861 218.014303 
L 765.433741 218.013644 
L 767.553125 218.409042 
L 771.076256 218.81942 
L 771.846941 219.249931 
L 772.535053 219.572578 
L 773.69108 219.985784 
L 774.461765 220.34847 
L 775.480171 220.523978 
L 776.828869 221.142117 
L 779.36112 221.841317 
L 780.214378 222.366167 
L 781.205259 222.807823 
L 782.581482 222.928789 
L 785.306404 222.746322 
L 785.691746 222.74671 
L 789.187353 221.754268 
L 792.297618 222.030288 
L 793.618792 222.78229 
L 794.114232 222.815546 
L 795.820749 222.939483 
L 797.499741 223.317079 
L 798.875964 223.201544 
L 799.756747 223.044392 
L 800.334761 222.903412 
L 803.004634 222.942234 
L 804.490955 223.334345 
L 805.151542 223.39332 
L 805.206591 223.39137 
L 805.206591 223.39137 
" clip-path="url(#p639707bd3d)" style="fill: none; stroke: #0000ff; stroke-width: 4; stroke-linecap: square"/>
   </g>
   <g id="line2d_31">
    <path d="M 585.038409 264.76 
L 587.267891 263.366405 
L 589.222128 262.447974 
L 592.387441 261.298953 
L 598.580445 259.552489 
L 600.369535 258.972706 
L 602.92931 258.015375 
L 605.901952 256.595333 
L 607.443322 255.919785 
L 609.149839 255.200636 
L 611.902285 253.555254 
L 614.572158 251.650835 
L 616.388773 250.321721 
L 619.003597 248.432087 
L 619.746757 248.051201 
L 621.42575 247.126215 
L 622.141386 246.740098 
L 624.783734 245.3664 
L 625.664517 244.868557 
L 627.095789 244.42311 
L 628.306865 243.953375 
L 628.884879 243.576174 
L 629.490417 243.200874 
L 631.719899 242.317466 
L 632.463059 242.216144 
L 633.233744 242.167553 
L 639.261602 241.713336 
L 640.445154 241.445492 
L 641.711279 241.320313 
L 642.784733 241.376004 
L 644.436201 240.965956 
L 645.289459 240.697364 
L 646.473011 240.398274 
L 650.794352 239.961625 
L 652.858687 240.052142 
L 653.98719 240.230862 
L 655.143217 240.443002 
L 656.051524 240.169135 
L 658.638824 239.359578 
L 660.372865 239.178382 
L 663.290458 239.601651 
L 664.418961 240.087401 
L 664.886877 240.204727 
L 666.400723 240.229793 
L 667.694372 240.251007 
L 670.694539 240.777373 
L 673.557083 241.376517 
L 675.483795 241.359921 
L 676.502201 241.449512 
L 678.373864 241.719284 
L 679.117025 241.782881 
L 680.961164 241.898127 
L 684.869637 241.560863 
L 685.722896 241.578754 
L 687.429413 241.49839 
L 688.502867 241.521049 
L 690.402055 241.80324 
L 691.860851 242.001412 
L 692.466389 242.045582 
L 693.539843 242.115537 
L 695.383982 241.92315 
L 696.677632 241.521132 
L 697.778611 241.351587 
L 698.962163 241.221348 
L 699.732848 241.277838 
L 702.292623 241.699103 
L 703.393601 241.686644 
L 705.320314 241.4903 
L 707.054355 241.6618 
L 708.540676 241.870496 
L 713.880422 241.791729 
L 715.394267 241.468997 
L 716.467721 241.053045 
L 718.752252 240.716261 
L 720.376195 240.814949 
L 721.3946 241.014744 
L 722.082712 241.03732 
L 722.93597 240.877704 
L 723.789229 240.73838 
L 724.339718 240.830661 
L 726.624248 241.52344 
L 727.532556 241.74944 
L 730.918065 241.920705 
L 731.798847 241.78166 
L 732.67963 241.520274 
L 734.331098 241.222947 
L 735.156832 241.062404 
L 736.092664 240.809678 
L 738.101949 240.6053 
L 738.735012 240.531814 
L 740.606676 240.71856 
L 741.625081 240.967357 
L 745.561079 242.176083 
L 746.579484 242.064712 
L 747.570365 241.967447 
L 749.524602 242.358477 
L 750.157664 242.426412 
L 750.900825 242.518481 
L 751.506363 242.563042 
L 752.910111 242.676303 
L 753.4606 242.701292 
L 755.167117 242.604566 
L 756.625913 242.778362 
L 757.947087 242.660425 
L 758.800346 242.457693 
L 760.506863 242.259591 
L 761.16745 242.388499 
L 762.185855 242.519107 
L 764.49791 242.6164 
L 765.571364 242.439025 
L 766.644818 242.108749 
L 767.883419 241.955122 
L 768.956873 241.755371 
L 769.507362 241.69981 
L 771.15883 241.605839 
L 772.424955 241.281363 
L 775.012255 240.762982 
L 776.003135 240.548598 
L 778.039946 240.377028 
L 778.728057 240.593203 
L 780.076756 240.908455 
L 780.874965 240.808625 
L 782.801678 240.315585 
L 783.297118 240.387568 
L 784.150376 240.634617 
L 786.324809 240.684163 
L 789.627745 240.505836 
L 791.031492 240.690927 
L 792.352667 240.553226 
L 793.453645 240.53692 
L 794.582148 240.558492 
L 795.51798 240.721687 
L 796.674007 240.858855 
L 798.408048 240.691063 
L 800.224663 240.344568 
L 801.325642 240.350739 
L 805.206591 240.546424 
L 805.206591 240.546424 
" clip-path="url(#p639707bd3d)" style="fill: none; stroke: #ff0000; stroke-width: 4; stroke-linecap: square"/>
   </g>
   <g id="line2d_32">
    <path d="M 585.038409 264.76 
L 586.937597 263.592928 
L 589.249652 262.479382 
L 591.093791 261.810447 
L 594.038909 261.002566 
L 596.158292 260.298536 
L 598.883214 259.22863 
L 603.17703 257.26938 
L 604.966121 256.234772 
L 609.397559 253.238545 
L 610.88388 252.096362 
L 613.47118 250.083425 
L 614.627207 248.828757 
L 616.306199 247.088276 
L 617.847569 245.638841 
L 621.700994 240.996226 
L 625.636992 235.608822 
L 626.958167 234.078727 
L 628.416963 231.999045 
L 629.738137 229.773787 
L 632.9585 224.85511 
L 636.756876 218.44511 
L 637.500036 217.212425 
L 638.188148 216.16371 
L 638.82121 215.235955 
L 640.91307 212.002822 
L 641.463559 211.677353 
L 642.812258 210.934627 
L 643.858187 209.911039 
L 647.904283 204.405483 
L 649.665849 202.354129 
L 653.18898 196.785749 
L 654.565203 194.98301 
L 655.583608 193.695247 
L 657.620419 189.969125 
L 658.391104 189.005614 
L 658.941593 188.648794 
L 659.712278 188.534728 
L 660.40039 188.630607 
L 660.813257 188.42667 
L 661.556417 188.089076 
L 662.161955 187.918479 
L 662.850067 187.842445 
L 663.813423 187.952246 
L 665.217171 187.719395 
L 665.630038 187.591109 
L 666.2631 187.090689 
L 667.446652 185.797211 
L 668.299911 184.809012 
L 669.676134 183.627032 
L 670.556917 183.185141 
L 670.969783 183.047016 
L 672.070762 182.727325 
L 673.171741 182.082197 
L 674.052523 181.396334 
L 674.71311 180.916791 
L 675.566369 180.34977 
L 677.272886 179.528015 
L 678.071095 179.405893 
L 680.438199 178.985956 
L 683.796183 177.967613 
L 684.429246 177.971147 
L 684.897162 178.290343 
L 685.915567 179.045856 
L 686.521105 179.127909 
L 687.236741 179.273883 
L 687.759706 179.35103 
L 688.365244 179.398145 
L 689.190978 179.726744 
L 690.291957 180.446029 
L 690.787397 180.882345 
L 691.558082 181.301348 
L 692.521438 181.401726 
L 693.980235 181.396373 
L 696.04457 181.094017 
L 697.420793 181.019019 
L 698.521771 180.67303 
L 699.264932 180.41394 
L 699.732848 180.265041 
L 700.723728 179.622501 
L 701.384315 179.440905 
L 702.320147 179.551794 
L 703.008259 179.752838 
L 704.026664 179.696422 
L 704.467055 179.399211 
L 706.28367 178.078716 
L 706.944257 177.709992 
L 709.806801 175.764288 
L 710.715108 175.16105 
L 711.678465 174.188578 
L 712.421625 173.572336 
L 712.806968 173.46806 
L 715.504365 173.246622 
L 716.440197 173.409405 
L 717.513651 173.182575 
L 719.522937 172.232756 
L 721.724894 172.439522 
L 722.082712 172.602701 
L 723.101117 173.195986 
L 724.257144 173.513591 
L 725.385647 173.265968 
L 726.349004 172.731156 
L 726.816919 172.718375 
L 727.477507 172.7818 
L 728.578485 172.978949 
L 730.202428 172.988196 
L 730.505198 172.994879 
L 730.863016 172.981134 
L 731.496078 173.097353 
L 733.615462 174.171269 
L 734.276049 174.079577 
L 734.881587 173.881899 
L 735.487125 173.603956 
L 735.844943 173.535904 
L 736.285335 173.378456 
L 737.248691 172.819235 
L 737.936803 172.376285 
L 738.459767 172.240851 
L 738.790061 172.147741 
L 739.643319 171.963846 
L 742.037948 172.195418 
L 742.643486 172.395354 
L 743.524269 172.740137 
L 743.937136 172.854904 
L 744.928016 173.186479 
L 746.111568 173.137648 
L 746.772155 172.900578 
L 747.29512 172.64685 
L 747.818085 172.417262 
L 748.808966 172.395914 
L 749.909944 172.369895 
L 750.900825 172.201612 
L 751.396265 172.196685 
L 752.689915 172.303864 
L 753.322978 172.460176 
L 754.781774 172.566997 
L 755.635033 172.863892 
L 756.488291 173.131581 
L 757.424123 173.591371 
L 758.249857 173.679237 
L 758.717772 173.785743 
L 759.460933 173.639085 
L 760.093996 173.448889 
L 760.864681 173.061142 
L 761.277548 172.826117 
L 762.075757 172.707259 
L 762.653771 172.474158 
L 763.149211 172.282772 
L 764.057518 172.049964 
L 764.580483 171.943095 
L 766.231951 171.260311 
L 767.663223 170.252225 
L 768.103614 170.311651 
L 768.984397 170.622663 
L 769.920229 170.920266 
L 771.461599 171.015865 
L 772.204759 171.068776 
L 772.94792 171.287865 
L 774.324143 171.825298 
L 774.847108 171.960367 
L 775.204926 172.004516 
L 776.03066 171.912813 
L 777.461932 172.286264 
L 778.094995 172.849892 
L 779.498742 174.2387 
L 780.131805 174.472235 
L 781.535552 174.622395 
L 782.471384 174.839548 
L 782.911776 174.849503 
L 784.948586 175.041308 
L 786.159662 174.580595 
L 786.985396 174.640257 
L 787.756081 174.607972 
L 788.581815 174.227073 
L 789.3525 174.001768 
L 790.205758 174.10518 
L 791.169115 174.247115 
L 791.9398 174.209974 
L 792.407715 174.119068 
L 792.93068 174.025918 
L 793.398596 173.97973 
L 793.97661 173.978178 
L 794.637197 174.072494 
L 795.573029 174.115626 
L 796.123518 174.205963 
L 797.499741 174.137536 
L 798.077755 173.873243 
L 798.60072 173.893767 
L 800.14209 173.927592 
L 800.830201 173.512617 
L 802.646816 172.235048 
L 804.435906 171.687433 
L 805.206591 171.682118 
L 805.206591 171.682118 
" clip-path="url(#p639707bd3d)" style="fill: none; stroke-dasharray: 4,6.6; stroke-dashoffset: 0; stroke: #0000ff; stroke-width: 4"/>
   </g>
   <g id="line2d_33">
    <path d="M 585.038409 264.76 
L 587.185317 263.421305 
L 589.167079 262.479782 
L 590.928644 261.90591 
L 599.020836 259.580484 
L 603.837618 257.747934 
L 606.920357 256.242091 
L 609.645279 254.227384 
L 611.461894 252.552414 
L 622.196435 244.590063 
L 624.508489 242.694468 
L 625.609468 241.737095 
L 630.921689 236.593542 
L 632.986024 235.098416 
L 635.600848 232.466083 
L 636.371533 231.584643 
L 636.922022 230.987515 
L 639.289126 228.658072 
L 642.15167 226.570002 
L 642.894831 226.168338 
L 646.720731 224.255031 
L 647.491416 224.112912 
L 648.592395 223.562476 
L 649.500702 223.080496 
L 651.014548 222.783322 
L 651.812757 222.489634 
L 652.44582 222.091935 
L 653.629372 221.197211 
L 654.289959 220.847833 
L 654.73035 220.830562 
L 655.22579 220.840996 
L 655.858853 220.626647 
L 656.849734 219.750449 
L 657.455272 219.217843 
L 658.418628 218.444169 
L 661.116026 216.25793 
L 662.547298 215.11454 
L 663.317983 214.239235 
L 664.804304 212.852037 
L 669.951378 208.23156 
L 670.694539 207.52518 
L 671.272553 207.251423 
L 674.107572 207.123959 
L 675.236075 206.719396 
L 676.722396 205.979133 
L 677.190312 205.743318 
L 679.915234 204.062444 
L 680.410674 203.824618 
L 681.621751 202.954293 
L 682.585107 201.832407 
L 683.438365 200.950439 
L 684.842113 199.659793 
L 685.722896 198.890808 
L 686.163287 198.87732 
L 688.117524 198.940172 
L 689.025831 198.744413 
L 689.713943 198.795157 
L 690.457103 198.592169 
L 691.998473 197.758289 
L 693.622417 197.407099 
L 694.310528 197.089723 
L 694.668346 196.835478 
L 696.182192 195.4575 
L 697.393268 194.973577 
L 698.521771 194.714212 
L 699.182358 194.353016 
L 699.842945 194.014173 
L 700.283337 193.829383 
L 701.246693 193.418097 
L 702.595392 193.190861 
L 703.393601 193.07043 
L 703.889042 192.986488 
L 704.301909 192.943522 
L 705.320314 192.868888 
L 705.815754 192.929597 
L 706.393768 193.210512 
L 707.054355 193.504899 
L 709.283836 194.229997 
L 709.669179 194.327365 
L 709.999472 194.352092 
L 710.66006 194.796367 
L 712.834492 196.63087 
L 713.770324 197.41856 
L 714.458435 197.705707 
L 715.53189 197.720983 
L 717.403553 198.371477 
L 718.31186 198.890506 
L 719.385314 199.393754 
L 719.990853 199.477389 
L 721.614796 199.530932 
L 722.68825 199.415545 
L 723.679131 198.796952 
L 724.312193 198.438993 
L 726.26643 198.09782 
L 728.550961 198.21604 
L 729.128974 198.112304 
L 730.092331 198.033849 
L 731.000638 197.869991 
L 734.496245 196.367254 
L 736.395433 194.888124 
L 736.890873 194.717142 
L 737.771656 194.38756 
L 738.184523 194.46887 
L 739.423124 194.636626 
L 739.946088 194.88816 
L 740.992018 195.365758 
L 741.542507 195.664265 
L 742.946255 196.202449 
L 743.496744 196.19539 
L 744.239905 196.255798 
L 745.368408 196.182929 
L 745.781275 196.313608 
L 747.350169 197.193671 
L 748.010756 197.372262 
L 749.414504 197.929984 
L 750.653105 198.587882 
L 751.67151 198.690308 
L 752.084377 198.31554 
L 753.075257 197.42084 
L 753.598222 197.197232 
L 756.901158 196.064225 
L 758.08471 196.136966 
L 758.635199 196.10708 
L 759.571031 196.155744 
L 760.149045 196.026263 
L 760.754583 195.898191 
L 762.185855 196.117807 
L 763.011589 195.887672 
L 763.617127 195.419623 
L 764.883252 194.272585 
L 765.433741 194.043741 
L 765.901657 193.912904 
L 766.920062 194.058481 
L 768.131139 194.368815 
L 768.626579 194.61521 
L 769.397264 195.061101 
L 771.40655 195.503963 
L 772.039613 195.60776 
L 773.663556 195.604332 
L 774.076423 195.701335 
L 774.902157 195.829848 
L 775.370073 195.698252 
L 776.140758 195.157299 
L 777.489456 194.027725 
L 778.425288 193.277699 
L 778.920728 193.082826 
L 779.526267 193.129201 
L 780.159329 193.28236 
L 780.90249 193.02746 
L 781.39793 192.968476 
L 782.581482 192.556145 
L 783.462265 192.51793 
L 784.453146 192.779287 
L 785.058684 193.093116 
L 786.820249 194.139154 
L 787.398263 194.394472 
L 787.921228 194.490403 
L 788.554291 194.473999 
L 789.242402 194.512091 
L 790.453479 194.86844 
L 791.169115 194.823724 
L 792.049897 194.761866 
L 792.958205 194.718917 
L 794.279379 194.220151 
L 794.857393 194.015679 
L 795.490455 193.878865 
L 796.481336 194.01224 
L 798.05023 194.776398 
L 799.481503 194.981307 
L 799.921894 194.75188 
L 801.903655 193.540303 
L 802.619291 193.414585 
L 803.279878 193.247439 
L 803.802843 193.169524 
L 805.206591 193.306192 
L 805.206591 193.306192 
" clip-path="url(#p639707bd3d)" style="fill: none; stroke-dasharray: 4,6.6; stroke-dashoffset: 0; stroke: #ff0000; stroke-width: 4"/>
   </g>
   <g id="patch_8">
    <path d="M 574.03 264.76 
L 816.215 264.76 
" style="fill: none; stroke: #000000; stroke-width: 3; stroke-linejoin: miter; stroke-linecap: square"/>
   </g>
   <g id="text_16">
    <!-- LAL014 -->
    <g transform="translate(650.36625 87.12) scale(0.24 -0.24)">
     <use xlink:href="#DejaVuSans-4c"/>
     <use xlink:href="#DejaVuSans-41" x="57.962891"/>
     <use xlink:href="#DejaVuSans-4c" x="126.371094"/>
     <use xlink:href="#DejaVuSans-30" x="182.083984"/>
     <use xlink:href="#DejaVuSans-31" x="245.707031"/>
     <use xlink:href="#DejaVuSans-34" x="309.330078"/>
    </g>
   </g>
  </g>
  <g id="axes_4">
   <g id="patch_9">
    <path d="M 827.015 264.76 
L 1069.2 264.76 
L 1069.2 93.12 
L 827.015 93.12 
z
" style="fill: #ffffff"/>
   </g>
   <g id="matplotlib.axis_7">
    <g id="xtick_16">
     <g id="line2d_34">
      <g>
       <use xlink:href="#m4d793a04bb" x="838.023409" y="264.76" style="stroke: #000000; stroke-width: 0.8"/>
      </g>
     </g>
    </g>
    <g id="xtick_17">
     <g id="line2d_35">
      <g>
       <use xlink:href="#m4d793a04bb" x="893.072336" y="264.76" style="stroke: #000000; stroke-width: 0.8"/>
      </g>
     </g>
    </g>
    <g id="xtick_18">
     <g id="line2d_36">
      <g>
       <use xlink:href="#m4d793a04bb" x="948.121262" y="264.76" style="stroke: #000000; stroke-width: 0.8"/>
      </g>
     </g>
    </g>
    <g id="xtick_19">
     <g id="line2d_37">
      <g>
       <use xlink:href="#m4d793a04bb" x="1003.170189" y="264.76" style="stroke: #000000; stroke-width: 0.8"/>
      </g>
     </g>
    </g>
    <g id="xtick_20">
     <g id="line2d_38">
      <g>
       <use xlink:href="#m4d793a04bb" x="1058.219115" y="264.76" style="stroke: #000000; stroke-width: 0.8"/>
      </g>
     </g>
    </g>
   </g>
   <g id="matplotlib.axis_8"/>
   <g id="line2d_39">
    <path d="M 838.023409 264.76 
L 839.50973 263.874057 
L 841.106149 263.180657 
L 843.032861 262.55954 
L 845.17977 262.069232 
L 856.409751 259.790397 
L 863.428489 257.391459 
L 866.621326 255.962542 
L 869.428822 254.752081 
L 871.32801 254.197977 
L 872.263841 253.894841 
L 873.667589 253.142577 
L 880.218411 249.23755 
L 883.466298 247.957101 
L 885.971024 247.071583 
L 887.870212 245.816843 
L 889.494155 244.367866 
L 891.035525 243.017864 
L 892.329175 242.200094 
L 895.632111 240.319063 
L 896.843187 239.441758 
L 898.907522 237.945497 
L 900.338794 237.271043 
L 901.219577 237.058362 
L 902.705898 237.085764 
L 903.146289 236.981644 
L 906.751994 235.553517 
L 907.605252 235.48875 
L 909.036524 235.508671 
L 910.963237 236.099951 
L 912.064215 236.497277 
L 914.954284 237.534206 
L 915.724969 237.611511 
L 917.871877 237.502081 
L 920.238981 237.470506 
L 921.257386 237.00226 
L 922.358365 236.176916 
L 924.285077 234.677894 
L 928.771565 232.245731 
L 929.652347 231.538797 
L 931.634109 229.862655 
L 932.377269 229.707756 
L 935.817827 229.42276 
L 936.918806 229.293089 
L 938.047309 229.010825 
L 939.340958 228.593589 
L 939.974021 228.602556 
L 940.964902 228.617421 
L 941.763111 228.404029 
L 942.86409 227.953099 
L 943.937544 227.197778 
L 944.735753 226.411331 
L 945.561487 225.624023 
L 947.020284 224.487789 
L 947.73592 224.199362 
L 948.47908 224.161456 
L 949.882828 224.567485 
L 954.919805 226.529764 
L 955.773063 226.707109 
L 956.653846 226.948342 
L 957.7273 227.192393 
L 959.461341 227.273836 
L 960.149453 227.37029 
L 960.920138 227.305353 
L 962.10369 227.025363 
L 963.122095 226.432078 
L 963.975353 226.00227 
L 967.71868 225.202739 
L 968.241645 225.453985 
L 968.874708 225.966709 
L 970.113308 227.361018 
L 971.241811 228.563611 
L 973.003377 230.038777 
L 974.407125 231.206897 
L 975.287907 231.730594 
L 976.71918 232.472993 
L 977.985305 232.859361 
L 978.75599 232.862883 
L 979.471626 232.704223 
L 982.224072 231.474387 
L 982.884659 231.037482 
L 984.838896 229.636375 
L 986.077497 229.478686 
L 988.306979 229.519506 
L 989.215286 229.920979 
L 991.527341 231.014108 
L 992.132879 231.18694 
L 995.545912 231.761962 
L 996.068877 231.581544 
L 997.610247 230.529031 
L 998.848848 229.787787 
L 999.426862 229.629079 
L 1002.757322 229.191317 
L 1003.252762 228.94029 
L 1003.968398 228.305522 
L 1006.638271 225.182021 
L 1007.298858 224.799006 
L 1008.207166 224.446155 
L 1010.078829 223.965531 
L 1010.849514 223.724039 
L 1012.913849 223.467239 
L 1014.455219 223.549749 
L 1015.336002 223.617998 
L 1015.996589 223.419168 
L 1016.794798 222.984831 
L 1017.813203 222.302154 
L 1018.859133 221.988442 
L 1020.290405 222.043494 
L 1021.55653 222.186278 
L 1022.437313 222.379871 
L 1024.116305 222.784184 
L 1024.859466 223.324208 
L 1028.630317 226.873519 
L 1033.915014 232.465111 
L 1035.401335 233.761938 
L 1036.639936 234.467965 
L 1037.768439 234.821332 
L 1039.722676 235.188356 
L 1040.851179 235.171026 
L 1042.117304 234.957294 
L 1045.227569 235.084138 
L 1046.053303 235.480144 
L 1047.016659 235.875085 
L 1049.686532 236.516286 
L 1050.457217 236.694678 
L 1052.961943 236.822062 
L 1053.925299 236.842214 
L 1058.191591 237.140437 
L 1058.191591 237.140437 
" clip-path="url(#pfe9af4310a)" style="fill: none; stroke: #0000ff; stroke-width: 4; stroke-linecap: square"/>
   </g>
   <g id="line2d_40">
    <path d="M 838.023409 264.76 
L 839.619828 263.798605 
L 841.188722 263.099142 
L 843.08791 262.484406 
L 846.033028 261.784092 
L 852.33613 260.734054 
L 856.629946 259.902218 
L 860.813665 259.005479 
L 863.731258 258.394103 
L 868.107647 257.121206 
L 871.465632 255.971655 
L 873.034526 255.551414 
L 876.44756 254.957675 
L 877.851307 254.709982 
L 879.475251 254.510352 
L 881.401963 254.318918 
L 885.833402 253.751128 
L 887.73259 253.929382 
L 889.934547 254.2254 
L 893.182434 254.61589 
L 895.246768 254.842894 
L 896.980809 255.032909 
L 902.182933 255.259883 
L 903.972023 255.35711 
L 906.4217 255.712688 
L 909.036524 256.055299 
L 912.394509 255.886877 
L 913.63311 255.915803 
L 917.266339 256.367099 
L 918.670087 256.567291 
L 922.551036 257.030131 
L 927.092572 257.786427 
L 933.313101 258.321887 
L 945.231194 258.645709 
L 948.313933 258.772618 
L 955.029903 258.694341 
L 964.88366 258.925405 
L 968.626987 258.862858 
L 972.370314 258.512223 
L 974.985138 258.541554 
L 979.196381 258.605255 
L 982.416743 258.836286 
L 984.948994 258.901812 
L 991.252096 258.497477 
L 992.931088 258.471304 
L 996.2065 258.739182 
L 1000.114973 259.065855 
L 1002.537126 259.163329 
L 1009.638438 259.44073 
L 1018.969231 259.32418 
L 1026.235689 258.941009 
L 1028.437646 258.75146 
L 1031.520386 258.6105 
L 1033.942539 258.61988 
L 1036.694985 258.487333 
L 1039.722676 258.525172 
L 1043.355905 258.585394 
L 1045.530338 258.608223 
L 1048.915847 258.622124 
L 1051.393048 258.549512 
L 1054.695984 258.436644 
L 1058.191591 258.416171 
L 1058.191591 258.416171 
" clip-path="url(#pfe9af4310a)" style="fill: none; stroke: #ff0000; stroke-width: 4; stroke-linecap: square"/>
   </g>
   <g id="line2d_41">
    <path d="M 838.023409 264.76 
L 839.50973 263.872817 
L 841.326345 263.083057 
L 843.390679 262.430951 
L 846.225699 261.850038 
L 851.950788 260.664271 
L 857.978645 259.073607 
L 863.951454 256.960627 
L 866.95162 255.731352 
L 870.337129 253.733293 
L 871.82345 252.691063 
L 874.713519 250.226694 
L 876.034693 248.705055 
L 877.74121 246.551647 
L 881.484537 241.251331 
L 883.383725 237.168783 
L 885.172815 232.582177 
L 886.43894 228.49195 
L 887.870212 223.164041 
L 889.136337 217.808402 
L 892.053931 203.553781 
L 895.329342 186.536121 
L 898.659802 171.322745 
L 900.503941 163.016943 
L 902.017786 156.707358 
L 906.449225 139.804106 
L 907.990595 135.257165 
L 911.155908 126.808092 
L 911.981642 125.278594 
L 912.807376 124.190201 
L 914.706564 122.388 
L 915.862591 121.655192 
L 917.541584 121.09798 
L 919.330674 120.473538 
L 920.651848 119.632609 
L 923.018952 118.093493 
L 924.312601 117.543254 
L 925.606251 116.970627 
L 926.514559 116.407435 
L 928.799089 115.072368 
L 930.890948 114.197759 
L 932.129549 113.944539 
L 934.303982 113.558074 
L 935.625156 113.38233 
L 937.579393 113.362689 
L 940.414413 114.080932 
L 943.276957 114.499668 
L 944.543082 114.929485 
L 946.304648 115.250493 
L 950.323219 115.654676 
L 951.369149 115.593187 
L 954.864756 115.111383 
L 957.424531 115.03333 
L 959.378768 114.33641 
L 960.534795 113.790254 
L 962.489032 112.854493 
L 964.966234 111.558119 
L 966.17731 110.952389 
L 967.828778 110.38483 
L 968.984805 110.189686 
L 971.462007 109.718107 
L 972.645559 109.458768 
L 974.654845 109.352027 
L 975.67325 109.488179 
L 978.122927 109.870369 
L 979.223906 109.791972 
L 980.379933 109.795553 
L 982.58189 109.831448 
L 984.618701 109.932962 
L 988.664797 110.514968 
L 989.7933 110.53278 
L 992.160403 110.277428 
L 995.628486 109.920394 
L 998.353408 110.030884 
L 999.399337 109.979509 
L 1004.739083 109.306464 
L 1005.867586 109.390792 
L 1007.629152 109.592816 
L 1009.500815 109.9369 
L 1010.684367 110.18091 
L 1012.418408 110.259022 
L 1017.840728 109.750285 
L 1019.437147 109.646785 
L 1021.171188 109.322937 
L 1023.290571 109.295471 
L 1025.217284 109.240034 
L 1026.565983 109.337544 
L 1030.116638 109.65336 
L 1031.190092 110.077589 
L 1032.951658 110.882591 
L 1035.42886 111.342233 
L 1037.162901 111.587749 
L 1037.988635 111.604449 
L 1044.622031 110.876944 
L 1047.567148 110.839139 
L 1050.704937 110.885749 
L 1051.83344 110.766929 
L 1054.228068 110.564079 
L 1056.595172 110.152641 
L 1058.191591 110.008373 
L 1058.191591 110.008373 
" clip-path="url(#pfe9af4310a)" style="fill: none; stroke-dasharray: 4,6.6; stroke-dashoffset: 0; stroke: #0000ff; stroke-width: 4"/>
   </g>
   <g id="line2d_42">
    <path d="M 838.023409 264.76 
L 839.619828 263.799326 
L 841.353869 263.042301 
L 843.060386 262.516052 
L 845.757783 261.954888 
L 859.685162 259.361606 
L 862.960573 258.231678 
L 865.107481 257.340721 
L 873.062051 254.552891 
L 876.062217 253.559547 
L 879.007335 252.432165 
L 880.576229 251.534262 
L 882.61304 250.32409 
L 887.98031 247.075531 
L 889.356533 245.893611 
L 895.714684 238.891726 
L 899.51306 234.382215 
L 901.907688 232.054669 
L 902.733422 231.188452 
L 905.458344 228.787147 
L 906.449225 227.572495 
L 907.605252 226.184604 
L 908.953951 224.851026 
L 910.109978 223.169375 
L 911.458677 220.944369 
L 912.972523 217.652897 
L 914.045977 214.832346 
L 915.752493 209.94566 
L 917.816828 202.481193 
L 921.58768 189.258709 
L 925.000713 178.589918 
L 926.734754 175.129997 
L 928.716516 171.824361 
L 929.597298 170.356955 
L 930.753326 168.419042 
L 932.680038 164.725228 
L 933.973688 162.371086 
L 934.606751 161.155065 
L 935.625156 158.802859 
L 938.845518 151.362049 
L 939.616203 150.073142 
L 941.790636 147.375214 
L 944.185264 144.648747 
L 945.066047 143.552674 
L 948.534129 140.124125 
L 949.910352 138.563781 
L 950.901233 137.69711 
L 954.424364 135.105775 
L 955.442769 134.583824 
L 956.461175 134.049428 
L 957.23186 133.708979 
L 958.332838 133.407569 
L 958.965901 133.396658 
L 959.709061 133.605978 
L 961.030236 134.12458 
L 963.452388 135.44285 
L 964.470793 136.494144 
L 965.902066 138.329163 
L 967.250764 139.995309 
L 967.911351 140.463133 
L 968.902232 141.039423 
L 970.526175 142.176486 
L 971.599629 143.255992 
L 972.893279 144.533055 
L 973.774062 145.112481 
L 974.792467 145.586917 
L 975.535628 145.757365 
L 976.223739 145.625971 
L 976.774229 145.28289 
L 977.572438 144.870285 
L 978.75599 144.438826 
L 979.829444 144.307815 
L 981.095569 144.358201 
L 983.077331 144.000047 
L 984.12326 143.686721 
L 985.004043 143.226556 
L 986.517889 142.239978 
L 987.866587 141.103827 
L 989.765775 139.445265 
L 990.811705 138.814929 
L 991.554865 138.621274 
L 992.820991 138.445998 
L 994.610081 138.818525 
L 995.793633 139.165676 
L 996.591842 139.17758 
L 997.417576 139.1607 
L 998.380932 139.132488 
L 998.958946 139.290438 
L 1000.858134 140.419397 
L 1003.032566 142.061834 
L 1004.078496 142.805984 
L 1004.739083 143.127252 
L 1005.262048 143.014251 
L 1006.19788 142.558062 
L 1008.48241 141.222417 
L 1010.106354 140.221685 
L 1011.785346 139.502621 
L 1012.941373 139.175925 
L 1013.849681 138.935208 
L 1014.40017 139.022267 
L 1015.280953 139.085921 
L 1016.492029 138.869881 
L 1017.510434 138.151636 
L 1018.391217 137.613155 
L 1019.051804 137.340256 
L 1019.822489 137.249742 
L 1021.06109 137.422743 
L 1021.749202 137.638337 
L 1022.629984 137.912571 
L 1024.088781 138.17036 
L 1025.024613 138.467506 
L 1026.070542 138.505058 
L 1028.602793 138.566598 
L 1029.456051 138.147237 
L 1030.446932 137.393952 
L 1032.538791 135.492766 
L 1033.584721 134.842467 
L 1035.42886 133.767782 
L 1036.612412 133.364813 
L 1037.768439 133.340308 
L 1038.841893 133.743217 
L 1039.915347 134.455031 
L 1040.741081 134.88997 
L 1043.741248 135.94137 
L 1045.723009 136.135599 
L 1047.099232 135.908373 
L 1049.631483 135.430925 
L 1051.172853 135.883529 
L 1052.549076 136.267556 
L 1053.264712 136.080466 
L 1055.604291 135.400783 
L 1058.191591 135.209915 
L 1058.191591 135.209915 
" clip-path="url(#pfe9af4310a)" style="fill: none; stroke-dasharray: 4,6.6; stroke-dashoffset: 0; stroke: #ff0000; stroke-width: 4"/>
   </g>
   <g id="patch_10">
    <path d="M 827.015 264.76 
L 1069.2 264.76 
" style="fill: none; stroke: #000000; stroke-width: 3; stroke-linejoin: miter; stroke-linecap: square"/>
   </g>
   <g id="text_17">
    <!-- LAL018 -->
    <g transform="translate(903.35125 87.12) scale(0.24 -0.24)">
     <use xlink:href="#DejaVuSans-4c"/>
     <use xlink:href="#DejaVuSans-41" x="57.962891"/>
     <use xlink:href="#DejaVuSans-4c" x="126.371094"/>
     <use xlink:href="#DejaVuSans-30" x="182.083984"/>
     <use xlink:href="#DejaVuSans-31" x="245.707031"/>
     <use xlink:href="#DejaVuSans-38" x="309.330078"/>
    </g>
   </g>
  </g>
  <g id="text_18">
   <!--  = 30 -->
   <g transform="translate(471.869531 29.995313) scale(0.3 -0.3)">
    <defs>
     <path id="DejaVuSans-394" d="M 2188 4044 
L 906 525 
L 3472 525 
L 2188 4044 
z
M 50 0 
L 1831 4666 
L 2547 4666 
L 4325 0 
L 50 0 
z
" transform="scale(0.015625)"/>
     <path id="DejaVuSans-3b8" d="M 2953 2219 
L 963 2219 
Q 1009 1284 1225 888 
Q 1494 400 1959 400 
Q 2428 400 2688 891 
Q 2916 1322 2953 2219 
z
M 2944 2750 
Q 2856 3638 2688 3950 
Q 2419 4444 1959 4444 
Q 1481 4444 1228 3956 
Q 1028 3563 969 2750 
L 2944 2750 
z
M 1959 4913 
Q 2709 4913 3138 4250 
Q 3566 3591 3566 2422 
Q 3566 1256 3138 594 
Q 2709 -72 1959 -72 
Q 1206 -72 781 594 
Q 353 1256 353 2422 
Q 353 3591 781 4250 
Q 1206 4913 1959 4913 
z
" transform="scale(0.015625)"/>
     <path id="DejaVuSans-3d" d="M 678 2906 
L 4684 2906 
L 4684 2381 
L 678 2381 
L 678 2906 
z
M 678 1631 
L 4684 1631 
L 4684 1100 
L 678 1100 
L 678 1631 
z
" transform="scale(0.015625)"/>
     <path id="DejaVuSans-33" d="M 2597 2516 
Q 3050 2419 3304 2112 
Q 3559 1806 3559 1356 
Q 3559 666 3084 287 
Q 2609 -91 1734 -91 
Q 1441 -91 1130 -33 
Q 819 25 488 141 
L 488 750 
Q 750 597 1062 519 
Q 1375 441 1716 441 
Q 2309 441 2620 675 
Q 2931 909 2931 1356 
Q 2931 1769 2642 2001 
Q 2353 2234 1838 2234 
L 1294 2234 
L 1294 2753 
L 1863 2753 
Q 2328 2753 2575 2939 
Q 2822 3125 2822 3475 
Q 2822 3834 2567 4026 
Q 2313 4219 1838 4219 
Q 1578 4219 1281 4162 
Q 984 4106 628 3988 
L 628 4550 
Q 988 4650 1302 4700 
Q 1616 4750 1894 4750 
Q 2613 4750 3031 4423 
Q 3450 4097 3450 3541 
Q 3450 3153 3228 2886 
Q 3006 2619 2597 2516 
z
" transform="scale(0.015625)"/>
     <path id="DejaVuSans-b0" d="M 1600 4347 
Q 1350 4347 1178 4173 
Q 1006 4000 1006 3750 
Q 1006 3503 1178 3333 
Q 1350 3163 1600 3163 
Q 1850 3163 2022 3333 
Q 2194 3503 2194 3750 
Q 2194 3997 2020 4172 
Q 1847 4347 1600 4347 
z
M 1600 4750 
Q 1800 4750 1984 4673 
Q 2169 4597 2303 4453 
Q 2447 4313 2519 4134 
Q 2591 3956 2591 3750 
Q 2591 3338 2302 3052 
Q 2013 2766 1594 2766 
Q 1172 2766 890 3047 
Q 609 3328 609 3750 
Q 609 4169 896 4459 
Q 1184 4750 1600 4750 
z
" transform="scale(0.015625)"/>
    </defs>
    <use xlink:href="#DejaVuSans-394"/>
    <use xlink:href="#DejaVuSans-3b8" x="68.408203"/>
    <use xlink:href="#DejaVuSans-20" x="129.589844"/>
    <use xlink:href="#DejaVuSans-3d" x="161.376953"/>
    <use xlink:href="#DejaVuSans-20" x="245.166016"/>
    <use xlink:href="#DejaVuSans-33" x="276.953125"/>
    <use xlink:href="#DejaVuSans-30" x="340.576172"/>
    <use xlink:href="#DejaVuSans-b0" x="404.199219"/>
   </g>
  </g>
  <g id="legend_1">
   <g id="line2d_43">
    <path d="M 894.5425 143.5875 
L 910.5425 143.5875 
L 926.5425 143.5875 
" style="fill: none; stroke: #0000ff; stroke-width: 4; stroke-linecap: square"/>
   </g>
   <g id="text_19">
    <!-- Full model L -->
    <g transform="translate(939.3425 149.1875) scale(0.16 -0.16)">
     <defs>
      <path id="DejaVuSans-75" d="M 544 1381 
L 544 3500 
L 1119 3500 
L 1119 1403 
Q 1119 906 1312 657 
Q 1506 409 1894 409 
Q 2359 409 2629 706 
Q 2900 1003 2900 1516 
L 2900 3500 
L 3475 3500 
L 3475 0 
L 2900 0 
L 2900 538 
Q 2691 219 2414 64 
Q 2138 -91 1772 -91 
Q 1169 -91 856 284 
Q 544 659 544 1381 
z
M 1991 3584 
L 1991 3584 
z
" transform="scale(0.015625)"/>
      <path id="DejaVuSans-6c" d="M 603 4863 
L 1178 4863 
L 1178 0 
L 603 0 
L 603 4863 
z
" transform="scale(0.015625)"/>
      <path id="DejaVuSans-6f" d="M 1959 3097 
Q 1497 3097 1228 2736 
Q 959 2375 959 1747 
Q 959 1119 1226 758 
Q 1494 397 1959 397 
Q 2419 397 2687 759 
Q 2956 1122 2956 1747 
Q 2956 2369 2687 2733 
Q 2419 3097 1959 3097 
z
M 1959 3584 
Q 2709 3584 3137 3096 
Q 3566 2609 3566 1747 
Q 3566 888 3137 398 
Q 2709 -91 1959 -91 
Q 1206 -91 779 398 
Q 353 888 353 1747 
Q 353 2609 779 3096 
Q 1206 3584 1959 3584 
z
" transform="scale(0.015625)"/>
      <path id="DejaVuSans-64" d="M 2906 2969 
L 2906 4863 
L 3481 4863 
L 3481 0 
L 2906 0 
L 2906 525 
Q 2725 213 2448 61 
Q 2172 -91 1784 -91 
Q 1150 -91 751 415 
Q 353 922 353 1747 
Q 353 2572 751 3078 
Q 1150 3584 1784 3584 
Q 2172 3584 2448 3432 
Q 2725 3281 2906 2969 
z
M 947 1747 
Q 947 1113 1208 752 
Q 1469 391 1925 391 
Q 2381 391 2643 752 
Q 2906 1113 2906 1747 
Q 2906 2381 2643 2742 
Q 2381 3103 1925 3103 
Q 1469 3103 1208 2742 
Q 947 2381 947 1747 
z
" transform="scale(0.015625)"/>
     </defs>
     <use xlink:href="#DejaVuSans-46"/>
     <use xlink:href="#DejaVuSans-75" x="52.019531"/>
     <use xlink:href="#DejaVuSans-6c" x="115.398438"/>
     <use xlink:href="#DejaVuSans-6c" x="143.181641"/>
     <use xlink:href="#DejaVuSans-20" x="170.964844"/>
     <use xlink:href="#DejaVuSans-6d" x="202.751953"/>
     <use xlink:href="#DejaVuSans-6f" x="300.164062"/>
     <use xlink:href="#DejaVuSans-64" x="361.345703"/>
     <use xlink:href="#DejaVuSans-65" x="424.822266"/>
     <use xlink:href="#DejaVuSans-6c" x="486.345703"/>
     <use xlink:href="#DejaVuSans-20" x="514.128906"/>
     <use xlink:href="#DejaVuSans-4c" x="545.916016"/>
    </g>
   </g>
   <g id="line2d_44">
    <path d="M 894.5425 167.0725 
L 910.5425 167.0725 
L 926.5425 167.0725 
" style="fill: none; stroke: #ff0000; stroke-width: 4; stroke-linecap: square"/>
   </g>
   <g id="text_20">
    <!-- Full model R -->
    <g transform="translate(939.3425 172.6725) scale(0.16 -0.16)">
     <defs>
      <path id="DejaVuSans-52" d="M 2841 2188 
Q 3044 2119 3236 1894 
Q 3428 1669 3622 1275 
L 4263 0 
L 3584 0 
L 2988 1197 
Q 2756 1666 2539 1819 
Q 2322 1972 1947 1972 
L 1259 1972 
L 1259 0 
L 628 0 
L 628 4666 
L 2053 4666 
Q 2853 4666 3247 4331 
Q 3641 3997 3641 3322 
Q 3641 2881 3436 2590 
Q 3231 2300 2841 2188 
z
M 1259 4147 
L 1259 2491 
L 2053 2491 
Q 2509 2491 2742 2702 
Q 2975 2913 2975 3322 
Q 2975 3731 2742 3939 
Q 2509 4147 2053 4147 
L 1259 4147 
z
" transform="scale(0.015625)"/>
     </defs>
     <use xlink:href="#DejaVuSans-46"/>
     <use xlink:href="#DejaVuSans-75" x="52.019531"/>
     <use xlink:href="#DejaVuSans-6c" x="115.398438"/>
     <use xlink:href="#DejaVuSans-6c" x="143.181641"/>
     <use xlink:href="#DejaVuSans-20" x="170.964844"/>
     <use xlink:href="#DejaVuSans-6d" x="202.751953"/>
     <use xlink:href="#DejaVuSans-6f" x="300.164062"/>
     <use xlink:href="#DejaVuSans-64" x="361.345703"/>
     <use xlink:href="#DejaVuSans-65" x="424.822266"/>
     <use xlink:href="#DejaVuSans-6c" x="486.345703"/>
     <use xlink:href="#DejaVuSans-20" x="514.128906"/>
     <use xlink:href="#DejaVuSans-52" x="545.916016"/>
    </g>
   </g>
   <g id="line2d_45">
    <path d="M 894.5425 190.5575 
L 910.5425 190.5575 
L 926.5425 190.5575 
" style="fill: none; stroke-dasharray: 4,6.6; stroke-dashoffset: 0; stroke: #0000ff; stroke-width: 4"/>
   </g>
   <g id="text_21">
    <!-- - 121 output L -->
    <g transform="translate(939.3425 196.1575) scale(0.16 -0.16)">
     <defs>
      <path id="DejaVuSans-2d" d="M 313 2009 
L 1997 2009 
L 1997 1497 
L 313 1497 
L 313 2009 
z
" transform="scale(0.015625)"/>
      <path id="DejaVuSans-70" d="M 1159 525 
L 1159 -1331 
L 581 -1331 
L 581 3500 
L 1159 3500 
L 1159 2969 
Q 1341 3281 1617 3432 
Q 1894 3584 2278 3584 
Q 2916 3584 3314 3078 
Q 3713 2572 3713 1747 
Q 3713 922 3314 415 
Q 2916 -91 2278 -91 
Q 1894 -91 1617 61 
Q 1341 213 1159 525 
z
M 3116 1747 
Q 3116 2381 2855 2742 
Q 2594 3103 2138 3103 
Q 1681 3103 1420 2742 
Q 1159 2381 1159 1747 
Q 1159 1113 1420 752 
Q 1681 391 2138 391 
Q 2594 391 2855 752 
Q 3116 1113 3116 1747 
z
" transform="scale(0.015625)"/>
     </defs>
     <use xlink:href="#DejaVuSans-2d"/>
     <use xlink:href="#DejaVuSans-20" x="36.083984"/>
     <use xlink:href="#DejaVuSans-31" x="67.871094"/>
     <use xlink:href="#DejaVuSans-32" x="131.494141"/>
     <use xlink:href="#DejaVuSans-31" x="195.117188"/>
     <use xlink:href="#DejaVuSans-20" x="258.740234"/>
     <use xlink:href="#DejaVuSans-6f" x="290.527344"/>
     <use xlink:href="#DejaVuSans-75" x="351.708984"/>
     <use xlink:href="#DejaVuSans-74" x="415.087891"/>
     <use xlink:href="#DejaVuSans-70" x="454.296875"/>
     <use xlink:href="#DejaVuSans-75" x="517.773438"/>
     <use xlink:href="#DejaVuSans-74" x="581.152344"/>
     <use xlink:href="#DejaVuSans-20" x="620.361328"/>
     <use xlink:href="#DejaVuSans-4c" x="652.148438"/>
    </g>
   </g>
   <g id="line2d_46">
    <path d="M 894.5425 214.0425 
L 910.5425 214.0425 
L 926.5425 214.0425 
" style="fill: none; stroke-dasharray: 4,6.6; stroke-dashoffset: 0; stroke: #ff0000; stroke-width: 4"/>
   </g>
   <g id="text_22">
    <!-- - 121 output R -->
    <g transform="translate(939.3425 219.6425) scale(0.16 -0.16)">
     <use xlink:href="#DejaVuSans-2d"/>
     <use xlink:href="#DejaVuSans-20" x="36.083984"/>
     <use xlink:href="#DejaVuSans-31" x="67.871094"/>
     <use xlink:href="#DejaVuSans-32" x="131.494141"/>
     <use xlink:href="#DejaVuSans-31" x="195.117188"/>
     <use xlink:href="#DejaVuSans-20" x="258.740234"/>
     <use xlink:href="#DejaVuSans-6f" x="290.527344"/>
     <use xlink:href="#DejaVuSans-75" x="351.708984"/>
     <use xlink:href="#DejaVuSans-74" x="415.087891"/>
     <use xlink:href="#DejaVuSans-70" x="454.296875"/>
     <use xlink:href="#DejaVuSans-75" x="517.773438"/>
     <use xlink:href="#DejaVuSans-74" x="581.152344"/>
     <use xlink:href="#DejaVuSans-20" x="620.361328"/>
     <use xlink:href="#DejaVuSans-52" x="652.148438"/>
    </g>
   </g>
  </g>
 </g>
 <defs>
  <clipPath id="pa10e7a9f39">
   <rect x="68.06" y="93.12" width="242.185" height="171.64"/>
  </clipPath>
  <clipPath id="p0979594a53">
   <rect x="321.045" y="93.12" width="242.185" height="171.64"/>
  </clipPath>
  <clipPath id="p639707bd3d">
   <rect x="574.03" y="93.12" width="242.185" height="171.64"/>
  </clipPath>
  <clipPath id="pfe9af4310a">
   <rect x="827.015" y="93.12" width="242.185" height="171.64"/>
  </clipPath>
 </defs>
</svg>
