<?xml version="1.0" encoding="utf-8" standalone="no"?>
<!DOCTYPE svg PUBLIC "-//W3C//DTD SVG 1.1//EN"
  "http://www.w3.org/Graphics/SVG/1.1/DTD/svg11.dtd">
<svg xmlns:xlink="http://www.w3.org/1999/xlink" width="1080pt" height="360pt" viewBox="0 0 1080 360" xmlns="http://www.w3.org/2000/svg" version="1.1">
 <metadata>
  <rdf:RDF xmlns:dc="http://purl.org/dc/elements/1.1/" xmlns:cc="http://creativecommons.org/ns#" xmlns:rdf="http://www.w3.org/1999/02/22-rdf-syntax-ns#">
   <cc:Work>
    <dc:type rdf:resource="http://purl.org/dc/dcmitype/StillImage"/>
    <dc:date>2025-09-01T14:19:26.001338</dc:date>
    <dc:format>image/svg+xml</dc:format>
    <dc:creator>
     <cc:Agent>
      <dc:title>Matplotlib v3.7.1, https://matplotlib.org/</dc:title>
     </cc:Agent>
    </dc:creator>
   </cc:Work>
  </rdf:RDF>
 </metadata>
 <defs>
  <style type="text/css">*{stroke-linejoin: round; stroke-linecap: butt}</style>
 </defs>
 <g id="figure_1">
  <g id="patch_1">
   <path d="M 0 360 
L 1080 360 
L 1080 0 
L 0 0 
z
" style="fill: #ffffff"/>
  </g>
  <g id="axes_1">
   <g id="patch_2">
    <path d="M 71.56 261.26 
L 312.87 261.26 
L 312.87 93.12 
L 71.56 93.12 
z
" style="fill: #ffffff"/>
   </g>
   <g id="matplotlib.axis_1">
    <g id="xtick_1">
     <g id="line2d_1">
      <defs>
       <path id="mfcaff2f962" d="M 0 0 
L 0 7 
" style="stroke: #000000; stroke-width: 3"/>
      </defs>
      <g>
       <use xlink:href="#mfcaff2f962" x="82.528636" y="261.26" style="stroke: #000000; stroke-width: 3"/>
      </g>
     </g>
     <g id="text_1">
      <!-- 0 -->
      <g transform="translate(77.438636 283.9175) scale(0.16 -0.16)">
       <defs>
        <path id="DejaVuSans-30" d="M 2034 4250 
Q 1547 4250 1301 3770 
Q 1056 3291 1056 2328 
Q 1056 1369 1301 889 
Q 1547 409 2034 409 
Q 2525 409 2770 889 
Q 3016 1369 3016 2328 
Q 3016 3291 2770 3770 
Q 2525 4250 2034 4250 
z
M 2034 4750 
Q 2819 4750 3233 4129 
Q 3647 3509 3647 2328 
Q 3647 1150 3233 529 
Q 2819 -91 2034 -91 
Q 1250 -91 836 529 
Q 422 1150 422 2328 
Q 422 3509 836 4129 
Q 1250 4750 2034 4750 
z
" transform="scale(0.015625)"/>
       </defs>
       <use xlink:href="#DejaVuSans-30"/>
      </g>
     </g>
    </g>
    <g id="xtick_2">
     <g id="line2d_2">
      <g>
       <use xlink:href="#mfcaff2f962" x="137.378674" y="261.26" style="stroke: #000000; stroke-width: 3"/>
      </g>
     </g>
     <g id="text_2">
      <!-- 200 -->
      <g transform="translate(122.108674 283.9175) scale(0.16 -0.16)">
       <defs>
        <path id="DejaVuSans-32" d="M 1228 531 
L 3431 531 
L 3431 0 
L 469 0 
L 469 531 
Q 828 903 1448 1529 
Q 2069 2156 2228 2338 
Q 2531 2678 2651 2914 
Q 2772 3150 2772 3378 
Q 2772 3750 2511 3984 
Q 2250 4219 1831 4219 
Q 1534 4219 1204 4116 
Q 875 4013 500 3803 
L 500 4441 
Q 881 4594 1212 4672 
Q 1544 4750 1819 4750 
Q 2544 4750 2975 4387 
Q 3406 4025 3406 3419 
Q 3406 3131 3298 2873 
Q 3191 2616 2906 2266 
Q 2828 2175 2409 1742 
Q 1991 1309 1228 531 
z
" transform="scale(0.015625)"/>
       </defs>
       <use xlink:href="#DejaVuSans-32"/>
       <use xlink:href="#DejaVuSans-30" x="63.623047"/>
       <use xlink:href="#DejaVuSans-30" x="127.246094"/>
      </g>
     </g>
    </g>
    <g id="xtick_3">
     <g id="line2d_3">
      <g>
       <use xlink:href="#mfcaff2f962" x="192.228713" y="261.26" style="stroke: #000000; stroke-width: 3"/>
      </g>
     </g>
     <g id="text_3">
      <!-- 400 -->
      <g transform="translate(176.958713 283.9175) scale(0.16 -0.16)">
       <defs>
        <path id="DejaVuSans-34" d="M 2419 4116 
L 825 1625 
L 2419 1625 
L 2419 4116 
z
M 2253 4666 
L 3047 4666 
L 3047 1625 
L 3713 1625 
L 3713 1100 
L 3047 1100 
L 3047 0 
L 2419 0 
L 2419 1100 
L 313 1100 
L 313 1709 
L 2253 4666 
z
" transform="scale(0.015625)"/>
       </defs>
       <use xlink:href="#DejaVuSans-34"/>
       <use xlink:href="#DejaVuSans-30" x="63.623047"/>
       <use xlink:href="#DejaVuSans-30" x="127.246094"/>
      </g>
     </g>
    </g>
    <g id="xtick_4">
     <g id="line2d_4">
      <g>
       <use xlink:href="#mfcaff2f962" x="247.078751" y="261.26" style="stroke: #000000; stroke-width: 3"/>
      </g>
     </g>
     <g id="text_4">
      <!-- 600 -->
      <g transform="translate(231.808751 283.9175) scale(0.16 -0.16)">
       <defs>
        <path id="DejaVuSans-36" d="M 2113 2584 
Q 1688 2584 1439 2293 
Q 1191 2003 1191 1497 
Q 1191 994 1439 701 
Q 1688 409 2113 409 
Q 2538 409 2786 701 
Q 3034 994 3034 1497 
Q 3034 2003 2786 2293 
Q 2538 2584 2113 2584 
z
M 3366 4563 
L 3366 3988 
Q 3128 4100 2886 4159 
Q 2644 4219 2406 4219 
Q 1781 4219 1451 3797 
Q 1122 3375 1075 2522 
Q 1259 2794 1537 2939 
Q 1816 3084 2150 3084 
Q 2853 3084 3261 2657 
Q 3669 2231 3669 1497 
Q 3669 778 3244 343 
Q 2819 -91 2113 -91 
Q 1303 -91 875 529 
Q 447 1150 447 2328 
Q 447 3434 972 4092 
Q 1497 4750 2381 4750 
Q 2619 4750 2861 4703 
Q 3103 4656 3366 4563 
z
" transform="scale(0.015625)"/>
       </defs>
       <use xlink:href="#DejaVuSans-36"/>
       <use xlink:href="#DejaVuSans-30" x="63.623047"/>
       <use xlink:href="#DejaVuSans-30" x="127.246094"/>
      </g>
     </g>
    </g>
    <g id="xtick_5">
     <g id="line2d_5">
      <g>
       <use xlink:href="#mfcaff2f962" x="301.928789" y="261.26" style="stroke: #000000; stroke-width: 3"/>
      </g>
     </g>
     <g id="text_5">
      <!-- 800 -->
      <g transform="translate(286.658789 283.9175) scale(0.16 -0.16)">
       <defs>
        <path id="DejaVuSans-38" d="M 2034 2216 
Q 1584 2216 1326 1975 
Q 1069 1734 1069 1313 
Q 1069 891 1326 650 
Q 1584 409 2034 409 
Q 2484 409 2743 651 
Q 3003 894 3003 1313 
Q 3003 1734 2745 1975 
Q 2488 2216 2034 2216 
z
M 1403 2484 
Q 997 2584 770 2862 
Q 544 3141 544 3541 
Q 544 4100 942 4425 
Q 1341 4750 2034 4750 
Q 2731 4750 3128 4425 
Q 3525 4100 3525 3541 
Q 3525 3141 3298 2862 
Q 3072 2584 2669 2484 
Q 3125 2378 3379 2068 
Q 3634 1759 3634 1313 
Q 3634 634 3220 271 
Q 2806 -91 2034 -91 
Q 1263 -91 848 271 
Q 434 634 434 1313 
Q 434 1759 690 2068 
Q 947 2378 1403 2484 
z
M 1172 3481 
Q 1172 3119 1398 2916 
Q 1625 2713 2034 2713 
Q 2441 2713 2670 2916 
Q 2900 3119 2900 3481 
Q 2900 3844 2670 4047 
Q 2441 4250 2034 4250 
Q 1625 4250 1398 4047 
Q 1172 3844 1172 3481 
z
" transform="scale(0.015625)"/>
       </defs>
       <use xlink:href="#DejaVuSans-38"/>
       <use xlink:href="#DejaVuSans-30" x="63.623047"/>
       <use xlink:href="#DejaVuSans-30" x="127.246094"/>
      </g>
     </g>
    </g>
    <g id="text_6">
     <!-- Time (ms) -->
     <g transform="translate(136.776719 307.961563) scale(0.22 -0.22)">
      <defs>
       <path id="DejaVuSans-54" d="M -19 4666 
L 3928 4666 
L 3928 4134 
L 2272 4134 
L 2272 0 
L 1638 0 
L 1638 4134 
L -19 4134 
L -19 4666 
z
" transform="scale(0.015625)"/>
       <path id="DejaVuSans-69" d="M 603 3500 
L 1178 3500 
L 1178 0 
L 603 0 
L 603 3500 
z
M 603 4863 
L 1178 4863 
L 1178 4134 
L 603 4134 
L 603 4863 
z
" transform="scale(0.015625)"/>
       <path id="DejaVuSans-6d" d="M 3328 2828 
Q 3544 3216 3844 3400 
Q 4144 3584 4550 3584 
Q 5097 3584 5394 3201 
Q 5691 2819 5691 2113 
L 5691 0 
L 5113 0 
L 5113 2094 
Q 5113 2597 4934 2840 
Q 4756 3084 4391 3084 
Q 3944 3084 3684 2787 
Q 3425 2491 3425 1978 
L 3425 0 
L 2847 0 
L 2847 2094 
Q 2847 2600 2669 2842 
Q 2491 3084 2119 3084 
Q 1678 3084 1418 2786 
Q 1159 2488 1159 1978 
L 1159 0 
L 581 0 
L 581 3500 
L 1159 3500 
L 1159 2956 
Q 1356 3278 1631 3431 
Q 1906 3584 2284 3584 
Q 2666 3584 2933 3390 
Q 3200 3197 3328 2828 
z
" transform="scale(0.015625)"/>
       <path id="DejaVuSans-65" d="M 3597 1894 
L 3597 1613 
L 953 1613 
Q 991 1019 1311 708 
Q 1631 397 2203 397 
Q 2534 397 2845 478 
Q 3156 559 3463 722 
L 3463 178 
Q 3153 47 2828 -22 
Q 2503 -91 2169 -91 
Q 1331 -91 842 396 
Q 353 884 353 1716 
Q 353 2575 817 3079 
Q 1281 3584 2069 3584 
Q 2775 3584 3186 3129 
Q 3597 2675 3597 1894 
z
M 3022 2063 
Q 3016 2534 2758 2815 
Q 2500 3097 2075 3097 
Q 1594 3097 1305 2825 
Q 1016 2553 972 2059 
L 3022 2063 
z
" transform="scale(0.015625)"/>
       <path id="DejaVuSans-20" transform="scale(0.015625)"/>
       <path id="DejaVuSans-28" d="M 1984 4856 
Q 1566 4138 1362 3434 
Q 1159 2731 1159 2009 
Q 1159 1288 1364 580 
Q 1569 -128 1984 -844 
L 1484 -844 
Q 1016 -109 783 600 
Q 550 1309 550 2009 
Q 550 2706 781 3412 
Q 1013 4119 1484 4856 
L 1984 4856 
z
" transform="scale(0.015625)"/>
       <path id="DejaVuSans-73" d="M 2834 3397 
L 2834 2853 
Q 2591 2978 2328 3040 
Q 2066 3103 1784 3103 
Q 1356 3103 1142 2972 
Q 928 2841 928 2578 
Q 928 2378 1081 2264 
Q 1234 2150 1697 2047 
L 1894 2003 
Q 2506 1872 2764 1633 
Q 3022 1394 3022 966 
Q 3022 478 2636 193 
Q 2250 -91 1575 -91 
Q 1294 -91 989 -36 
Q 684 19 347 128 
L 347 722 
Q 666 556 975 473 
Q 1284 391 1588 391 
Q 1994 391 2212 530 
Q 2431 669 2431 922 
Q 2431 1156 2273 1281 
Q 2116 1406 1581 1522 
L 1381 1569 
Q 847 1681 609 1914 
Q 372 2147 372 2553 
Q 372 3047 722 3315 
Q 1072 3584 1716 3584 
Q 2034 3584 2315 3537 
Q 2597 3491 2834 3397 
z
" transform="scale(0.015625)"/>
       <path id="DejaVuSans-29" d="M 513 4856 
L 1013 4856 
Q 1481 4119 1714 3412 
Q 1947 2706 1947 2009 
Q 1947 1309 1714 600 
Q 1481 -109 1013 -844 
L 513 -844 
Q 928 -128 1133 580 
Q 1338 1288 1338 2009 
Q 1338 2731 1133 3434 
Q 928 4138 513 4856 
z
" transform="scale(0.015625)"/>
      </defs>
      <use xlink:href="#DejaVuSans-54"/>
      <use xlink:href="#DejaVuSans-69" x="57.958984"/>
      <use xlink:href="#DejaVuSans-6d" x="85.742188"/>
      <use xlink:href="#DejaVuSans-65" x="183.154297"/>
      <use xlink:href="#DejaVuSans-20" x="244.677734"/>
      <use xlink:href="#DejaVuSans-28" x="276.464844"/>
      <use xlink:href="#DejaVuSans-6d" x="315.478516"/>
      <use xlink:href="#DejaVuSans-73" x="412.890625"/>
      <use xlink:href="#DejaVuSans-29" x="464.990234"/>
     </g>
    </g>
   </g>
   <g id="matplotlib.axis_2">
    <g id="ytick_1">
     <g id="line2d_6">
      <defs>
       <path id="md703345fb6" d="M 0 0 
L -7 0 
" style="stroke: #000000; stroke-width: 3"/>
      </defs>
      <g>
       <use xlink:href="#md703345fb6" x="71.56" y="261.26" style="stroke: #000000; stroke-width: 3"/>
      </g>
     </g>
     <g id="text_7">
      <!-- 0.0 -->
      <g transform="translate(35.615 267.33875) scale(0.16 -0.16)">
       <defs>
        <path id="DejaVuSans-2e" d="M 684 794 
L 1344 794 
L 1344 0 
L 684 0 
L 684 794 
z
" transform="scale(0.015625)"/>
       </defs>
       <use xlink:href="#DejaVuSans-30"/>
       <use xlink:href="#DejaVuSans-2e" x="63.623047"/>
       <use xlink:href="#DejaVuSans-30" x="95.410156"/>
      </g>
     </g>
    </g>
    <g id="ytick_2">
     <g id="line2d_7">
      <g>
       <use xlink:href="#md703345fb6" x="71.56" y="227.632" style="stroke: #000000; stroke-width: 3"/>
      </g>
     </g>
     <g id="text_8">
      <!-- 0.2 -->
      <g transform="translate(35.615 233.71075) scale(0.16 -0.16)">
       <use xlink:href="#DejaVuSans-30"/>
       <use xlink:href="#DejaVuSans-2e" x="63.623047"/>
       <use xlink:href="#DejaVuSans-32" x="95.410156"/>
      </g>
     </g>
    </g>
    <g id="ytick_3">
     <g id="line2d_8">
      <g>
       <use xlink:href="#md703345fb6" x="71.56" y="194.004" style="stroke: #000000; stroke-width: 3"/>
      </g>
     </g>
     <g id="text_9">
      <!-- 0.4 -->
      <g transform="translate(35.615 200.08275) scale(0.16 -0.16)">
       <use xlink:href="#DejaVuSans-30"/>
       <use xlink:href="#DejaVuSans-2e" x="63.623047"/>
       <use xlink:href="#DejaVuSans-34" x="95.410156"/>
      </g>
     </g>
    </g>
    <g id="ytick_4">
     <g id="line2d_9">
      <g>
       <use xlink:href="#md703345fb6" x="71.56" y="160.376" style="stroke: #000000; stroke-width: 3"/>
      </g>
     </g>
     <g id="text_10">
      <!-- 0.6 -->
      <g transform="translate(35.615 166.45475) scale(0.16 -0.16)">
       <use xlink:href="#DejaVuSans-30"/>
       <use xlink:href="#DejaVuSans-2e" x="63.623047"/>
       <use xlink:href="#DejaVuSans-36" x="95.410156"/>
      </g>
     </g>
    </g>
    <g id="ytick_5">
     <g id="line2d_10">
      <g>
       <use xlink:href="#md703345fb6" x="71.56" y="126.748" style="stroke: #000000; stroke-width: 3"/>
      </g>
     </g>
     <g id="text_11">
      <!-- 0.8 -->
      <g transform="translate(35.615 132.82675) scale(0.16 -0.16)">
       <use xlink:href="#DejaVuSans-30"/>
       <use xlink:href="#DejaVuSans-2e" x="63.623047"/>
       <use xlink:href="#DejaVuSans-38" x="95.410156"/>
      </g>
     </g>
    </g>
    <g id="ytick_6">
     <g id="line2d_11">
      <g>
       <use xlink:href="#md703345fb6" x="71.56" y="93.12" style="stroke: #000000; stroke-width: 3"/>
      </g>
     </g>
     <g id="text_12">
      <!-- 1.0 -->
      <g transform="translate(35.615 99.19875) scale(0.16 -0.16)">
       <defs>
        <path id="DejaVuSans-31" d="M 794 531 
L 1825 531 
L 1825 4091 
L 703 3866 
L 703 4441 
L 1819 4666 
L 2450 4666 
L 2450 531 
L 3481 531 
L 3481 0 
L 794 0 
L 794 531 
z
" transform="scale(0.015625)"/>
       </defs>
       <use xlink:href="#DejaVuSans-31"/>
       <use xlink:href="#DejaVuSans-2e" x="63.623047"/>
       <use xlink:href="#DejaVuSans-30" x="95.410156"/>
      </g>
     </g>
    </g>
    <g id="text_13">
     <!-- Firing rate -->
     <g transform="translate(27.039687 233.147344) rotate(-90) scale(0.22 -0.22)">
      <defs>
       <path id="DejaVuSans-46" d="M 628 4666 
L 3309 4666 
L 3309 4134 
L 1259 4134 
L 1259 2759 
L 3109 2759 
L 3109 2228 
L 1259 2228 
L 1259 0 
L 628 0 
L 628 4666 
z
" transform="scale(0.015625)"/>
       <path id="DejaVuSans-72" d="M 2631 2963 
Q 2534 3019 2420 3045 
Q 2306 3072 2169 3072 
Q 1681 3072 1420 2755 
Q 1159 2438 1159 1844 
L 1159 0 
L 581 0 
L 581 3500 
L 1159 3500 
L 1159 2956 
Q 1341 3275 1631 3429 
Q 1922 3584 2338 3584 
Q 2397 3584 2469 3576 
Q 2541 3569 2628 3553 
L 2631 2963 
z
" transform="scale(0.015625)"/>
       <path id="DejaVuSans-6e" d="M 3513 2113 
L 3513 0 
L 2938 0 
L 2938 2094 
Q 2938 2591 2744 2837 
Q 2550 3084 2163 3084 
Q 1697 3084 1428 2787 
Q 1159 2491 1159 1978 
L 1159 0 
L 581 0 
L 581 3500 
L 1159 3500 
L 1159 2956 
Q 1366 3272 1645 3428 
Q 1925 3584 2291 3584 
Q 2894 3584 3203 3211 
Q 3513 2838 3513 2113 
z
" transform="scale(0.015625)"/>
       <path id="DejaVuSans-67" d="M 2906 1791 
Q 2906 2416 2648 2759 
Q 2391 3103 1925 3103 
Q 1463 3103 1205 2759 
Q 947 2416 947 1791 
Q 947 1169 1205 825 
Q 1463 481 1925 481 
Q 2391 481 2648 825 
Q 2906 1169 2906 1791 
z
M 3481 434 
Q 3481 -459 3084 -895 
Q 2688 -1331 1869 -1331 
Q 1566 -1331 1297 -1286 
Q 1028 -1241 775 -1147 
L 775 -588 
Q 1028 -725 1275 -790 
Q 1522 -856 1778 -856 
Q 2344 -856 2625 -561 
Q 2906 -266 2906 331 
L 2906 616 
Q 2728 306 2450 153 
Q 2172 0 1784 0 
Q 1141 0 747 490 
Q 353 981 353 1791 
Q 353 2603 747 3093 
Q 1141 3584 1784 3584 
Q 2172 3584 2450 3431 
Q 2728 3278 2906 2969 
L 2906 3500 
L 3481 3500 
L 3481 434 
z
" transform="scale(0.015625)"/>
       <path id="DejaVuSans-61" d="M 2194 1759 
Q 1497 1759 1228 1600 
Q 959 1441 959 1056 
Q 959 750 1161 570 
Q 1363 391 1709 391 
Q 2188 391 2477 730 
Q 2766 1069 2766 1631 
L 2766 1759 
L 2194 1759 
z
M 3341 1997 
L 3341 0 
L 2766 0 
L 2766 531 
Q 2569 213 2275 61 
Q 1981 -91 1556 -91 
Q 1019 -91 701 211 
Q 384 513 384 1019 
Q 384 1609 779 1909 
Q 1175 2209 1959 2209 
L 2766 2209 
L 2766 2266 
Q 2766 2663 2505 2880 
Q 2244 3097 1772 3097 
Q 1472 3097 1187 3025 
Q 903 2953 641 2809 
L 641 3341 
Q 956 3463 1253 3523 
Q 1550 3584 1831 3584 
Q 2591 3584 2966 3190 
Q 3341 2797 3341 1997 
z
" transform="scale(0.015625)"/>
       <path id="DejaVuSans-74" d="M 1172 4494 
L 1172 3500 
L 2356 3500 
L 2356 3053 
L 1172 3053 
L 1172 1153 
Q 1172 725 1289 603 
Q 1406 481 1766 481 
L 2356 481 
L 2356 0 
L 1766 0 
Q 1100 0 847 248 
Q 594 497 594 1153 
L 594 3053 
L 172 3053 
L 172 3500 
L 594 3500 
L 594 4494 
L 1172 4494 
z
" transform="scale(0.015625)"/>
      </defs>
      <use xlink:href="#DejaVuSans-46"/>
      <use xlink:href="#DejaVuSans-69" x="50.269531"/>
      <use xlink:href="#DejaVuSans-72" x="78.052734"/>
      <use xlink:href="#DejaVuSans-69" x="119.166016"/>
      <use xlink:href="#DejaVuSans-6e" x="146.949219"/>
      <use xlink:href="#DejaVuSans-67" x="210.328125"/>
      <use xlink:href="#DejaVuSans-20" x="273.804688"/>
      <use xlink:href="#DejaVuSans-72" x="305.591797"/>
      <use xlink:href="#DejaVuSans-61" x="346.705078"/>
      <use xlink:href="#DejaVuSans-74" x="407.984375"/>
      <use xlink:href="#DejaVuSans-65" x="447.193359"/>
     </g>
    </g>
   </g>
   <g id="line2d_12">
    <path d="M 82.528636 261.26 
L 84.420963 260.601158 
L 86.971489 259.990899 
L 90.673867 259.40923 
L 100.080649 258.001976 
L 102.027825 257.513737 
L 106.909478 256.050059 
L 110.145631 254.694155 
L 117.495536 250.898259 
L 119.141037 249.587487 
L 121.691564 247.191038 
L 123.85814 244.988687 
L 127.752493 241.593948 
L 130.248169 239.590825 
L 132.003371 237.516503 
L 133.292347 235.456048 
L 136.775324 229.579973 
L 139.462976 225.81377 
L 141.327877 222.673298 
L 144.207504 217.620929 
L 145.16738 216.386959 
L 146.09983 215.642581 
L 147.635632 214.657773 
L 150.213583 211.871076 
L 151.173459 210.902768 
L 152.297885 210.344346 
L 153.340036 210.046103 
L 154.519311 210.125849 
L 155.342062 210.503776 
L 156.109962 210.807249 
L 156.713313 211.164571 
L 158.495939 212.215256 
L 159.92204 212.763025 
L 161.019041 212.649174 
L 161.951491 212.671162 
L 162.993642 212.862954 
L 163.542143 212.853364 
L 164.447168 212.611628 
L 165.269919 211.987093 
L 166.092669 210.952202 
L 167.162245 209.111696 
L 168.314096 207.086952 
L 169.932172 204.902347 
L 172.702099 200.983237 
L 173.826525 199.039995 
L 176.020526 194.959251 
L 176.898127 194.237347 
L 178.790453 193.269078 
L 180.710205 192.761052 
L 182.05403 192.075716 
L 183.534981 190.937173 
L 183.973782 190.813117 
L 185.317608 190.459371 
L 187.292209 188.933589 
L 188.22466 187.654737 
L 188.965135 186.243315 
L 191.241412 182.007551 
L 191.927037 181.144067 
L 192.502963 180.711555 
L 193.024038 180.583731 
L 194.038764 180.650441 
L 195.49229 181.269522 
L 199.030117 183.944307 
L 200.127118 184.559251 
L 201.827469 185.46986 
L 202.458245 185.501229 
L 203.856921 185.812694 
L 204.542546 185.944246 
L 206.023497 185.676994 
L 206.846248 185.007845 
L 208.272349 183.615754 
L 210.548625 182.044001 
L 211.371376 181.456278 
L 211.837601 181.417334 
L 212.248976 181.605817 
L 212.715202 182.013239 
L 213.263702 182.829296 
L 214.580103 185.471773 
L 215.512554 187.316564 
L 218.227631 192.687599 
L 219.132656 194.257112 
L 220.558757 196.348654 
L 222.259108 197.882127 
L 222.835034 198.081693 
L 223.328684 198.093988 
L 224.041735 197.835483 
L 224.45311 197.528617 
L 225.22101 197.030114 
L 226.098611 196.339741 
L 226.784236 195.565034 
L 227.661837 194.19774 
L 228.786263 192.523199 
L 229.581588 191.89307 
L 230.568889 191.277937 
L 231.419065 190.828089 
L 231.912715 190.773442 
L 232.570916 190.972637 
L 233.722766 191.746563 
L 235.231142 193.055054 
L 236.191018 193.749896 
L 239.20777 195.234383 
L 239.70142 195.247575 
L 240.085371 195.049504 
L 240.935546 194.197612 
L 243.403798 191.632824 
L 245.350974 190.654817 
L 246.74965 190.242957 
L 247.243301 189.812919 
L 247.791801 189.044378 
L 248.724252 187.237782 
L 249.409877 185.523621 
L 250.342328 183.25477 
L 251.357054 181.44631 
L 252.097529 180.476627 
L 253.35908 179.372805 
L 255.553081 177.711715 
L 256.320982 177.27402 
L 257.143733 177.096914 
L 257.747083 177.03817 
L 259.392584 177.225441 
L 260.13306 176.907246 
L 260.654135 176.474172 
L 262.135086 174.930649 
L 262.793286 174.507295 
L 263.478912 174.322707 
L 265.316388 174.047788 
L 266.468239 174.266517 
L 267.51039 174.43699 
L 267.921765 174.749307 
L 268.717091 175.61014 
L 270.362592 178.112432 
L 273.708444 185.281075 
L 278.425547 196.659861 
L 279.522548 198.876403 
L 280.729249 200.652262 
L 281.634275 201.618496 
L 282.8684 202.660616 
L 284.404201 203.142352 
L 285.034977 202.937298 
L 285.748027 202.737378 
L 288.92933 202.714878 
L 289.450405 203.063924 
L 292.302607 205.092112 
L 293.125358 205.65059 
L 294.222358 206.47082 
L 295.895284 207.105062 
L 296.47121 207.164959 
L 297.34881 207.202765 
L 298.308686 207.239424 
L 299.378262 207.293951 
L 300.968913 207.684632 
L 301.901364 207.977069 
L 301.901364 207.977069 
" clip-path="url(#p1ed1cf0e2f)" style="fill: none; stroke: #0000ff; stroke-width: 4; stroke-linecap: square"/>
   </g>
   <g id="line2d_13">
    <path d="M 82.528636 261.26 
L 84.585513 260.534216 
L 86.889214 259.973097 
L 90.564167 259.352255 
L 101.50675 257.804257 
L 109.81653 255.968667 
L 114.314233 254.304367 
L 120.813963 251.863503 
L 122.130364 251.38525 
L 123.69359 250.87149 
L 126.984592 249.825922 
L 129.836794 248.983388 
L 131.208045 248.845532 
L 134.608748 248.83219 
L 136.473649 248.942622 
L 140.038901 249.042888 
L 142.123203 249.025198 
L 149.144008 248.870849 
L 151.776809 249.302788 
L 152.846385 249.434045 
L 154.738711 249.333115 
L 157.837739 249.072581 
L 160.525391 249.291887 
L 161.732091 249.584957 
L 163.267892 249.841659 
L 168.890021 250.822204 
L 172.016473 251.435039 
L 178.735603 252.116237 
L 182.739656 252.137574 
L 185.153058 252.172449 
L 187.676159 252.288946 
L 190.967162 252.56818 
L 192.886913 252.548222 
L 196.863541 252.282778 
L 201.800044 252.450234 
L 204.323146 252.564583 
L 207.175348 252.677883 
L 211.481076 252.690937 
L 213.702502 252.441983 
L 218.200206 252.125355 
L 219.900557 252.085637 
L 221.408933 252.04638 
L 223.932035 252.323846 
L 226.893937 252.599661 
L 228.703988 252.663319 
L 232.022415 252.4207 
L 233.805041 252.239691 
L 237.809094 252.023618 
L 239.728845 252.245646 
L 241.566322 252.580138 
L 243.403798 252.77027 
L 246.228575 252.96022 
L 248.724252 253.145125 
L 255.909607 253.334098 
L 259.063484 253.303677 
L 262.409336 253.301764 
L 266.413389 252.956994 
L 268.470265 252.786392 
L 274.695745 252.071243 
L 276.725196 252.167338 
L 278.014172 252.09443 
L 280.016198 251.923512 
L 282.4296 251.964627 
L 289.25843 252.028953 
L 292.000932 252.077987 
L 294.743434 252.095379 
L 301.901364 251.886688 
L 301.901364 251.886688 
" clip-path="url(#p1ed1cf0e2f)" style="fill: none; stroke: #ff0000; stroke-width: 4; stroke-linecap: square"/>
   </g>
   <g id="line2d_14">
    <path d="M 82.528636 261.26 
L 84.503238 260.567724 
L 86.998914 259.988584 
L 90.015667 259.535228 
L 97.584972 258.477102 
L 101.259924 257.796994 
L 105.620502 256.654648 
L 108.554979 255.54363 
L 110.419881 254.563643 
L 112.339632 253.3604 
L 113.902858 252.07756 
L 115.98716 250.107219 
L 118.153736 247.907038 
L 120.073487 245.803346 
L 121.033363 244.415941 
L 121.993239 242.622796 
L 124.02269 238.385463 
L 125.009991 235.88029 
L 127.149142 229.793495 
L 128.712368 224.271674 
L 130.494995 217.043657 
L 133.264922 205.019377 
L 134.581322 197.582379 
L 135.952573 188.180354 
L 137.268974 177.162964 
L 141.300452 141.02456 
L 142.836253 129.391661 
L 144.097804 121.436951 
L 145.22223 115.73741 
L 146.428931 110.809614 
L 147.608207 106.933762 
L 148.705207 104.075506 
L 149.774783 101.879592 
L 150.844359 100.170247 
L 152.05106 98.666773 
L 153.25776 97.506187 
L 154.546736 96.559683 
L 155.945412 95.802616 
L 157.563488 95.172199 
L 159.48324 94.682994 
L 161.869216 94.32818 
L 165.900694 94.034209 
L 172.043898 93.745046 
L 185.537008 93.537431 
L 223.356109 93.488082 
L 265.974589 93.477622 
L 292.357457 93.448121 
L 301.901364 93.509455 
L 301.901364 93.509455 
" clip-path="url(#p1ed1cf0e2f)" style="fill: none; stroke-dasharray: 4,6.6; stroke-dashoffset: 0; stroke: #0000ff; stroke-width: 4"/>
   </g>
   <g id="line2d_15">
    <path d="M 82.528636 261.26 
L 84.558088 260.545483 
L 86.998914 259.938927 
L 89.796266 259.466934 
L 101.72615 257.762094 
L 105.867328 256.746968 
L 108.225879 256.114358 
L 111.270056 255.272947 
L 113.957708 254.234884 
L 116.97446 252.774022 
L 118.757087 251.740692 
L 120.320313 250.609396 
L 125.668191 245.929761 
L 126.463517 244.908063 
L 128.300993 242.093262 
L 129.562544 239.63763 
L 131.838821 234.858374 
L 134.389347 228.469685 
L 135.733173 224.53055 
L 140.587402 209.237657 
L 145.469055 195.820043 
L 147.471081 189.61988 
L 148.842332 185.311799 
L 154.958112 163.973867 
L 156.137387 159.55558 
L 158.139414 151.157125 
L 162.472567 132.078464 
L 163.871243 126.860399 
L 165.242494 122.453672 
L 166.36692 119.564061 
L 167.40907 117.475558 
L 170.617798 111.89437 
L 173.332874 107.61111 
L 174.8961 105.695117 
L 176.239926 104.405234 
L 177.419202 103.524467 
L 179.229253 102.481621 
L 182.328281 101.057691 
L 184.440007 100.256862 
L 188.690885 98.495511 
L 191.762487 97.661763 
L 197.439466 96.549125 
L 201.553219 96.045846 
L 215.841654 95.261538 
L 220.339357 95.298779 
L 223.95946 95.26773 
L 235.834493 94.978424 
L 242.471347 94.958794 
L 246.393125 95.015001 
L 250.973103 95.043851 
L 258.871509 94.802818 
L 270.225467 94.495354 
L 274.695745 94.549258 
L 279.275723 94.542973 
L 284.897852 94.610249 
L 288.92933 94.826196 
L 294.112658 95.024511 
L 301.901364 94.804894 
L 301.901364 94.804894 
" clip-path="url(#p1ed1cf0e2f)" style="fill: none; stroke-dasharray: 4,6.6; stroke-dashoffset: 0; stroke: #ff0000; stroke-width: 4"/>
   </g>
   <g id="patch_3">
    <path d="M 71.56 261.26 
L 71.56 93.12 
" style="fill: none; stroke: #000000; stroke-width: 3; stroke-linejoin: miter; stroke-linecap: square"/>
   </g>
   <g id="patch_4">
    <path d="M 71.56 261.26 
L 312.87 261.26 
" style="fill: none; stroke: #000000; stroke-width: 3; stroke-linejoin: miter; stroke-linecap: square"/>
   </g>
   <g id="text_14">
    <!-- DNa02 -->
    <g transform="translate(151.37375 87.12) scale(0.24 -0.24)">
     <defs>
      <path id="DejaVuSans-44" d="M 1259 4147 
L 1259 519 
L 2022 519 
Q 2988 519 3436 956 
Q 3884 1394 3884 2338 
Q 3884 3275 3436 3711 
Q 2988 4147 2022 4147 
L 1259 4147 
z
M 628 4666 
L 1925 4666 
Q 3281 4666 3915 4102 
Q 4550 3538 4550 2338 
Q 4550 1131 3912 565 
Q 3275 0 1925 0 
L 628 0 
L 628 4666 
z
" transform="scale(0.015625)"/>
      <path id="DejaVuSans-4e" d="M 628 4666 
L 1478 4666 
L 3547 763 
L 3547 4666 
L 4159 4666 
L 4159 0 
L 3309 0 
L 1241 3903 
L 1241 0 
L 628 0 
L 628 4666 
z
" transform="scale(0.015625)"/>
     </defs>
     <use xlink:href="#DejaVuSans-44"/>
     <use xlink:href="#DejaVuSans-4e" x="77.001953"/>
     <use xlink:href="#DejaVuSans-61" x="151.806641"/>
     <use xlink:href="#DejaVuSans-30" x="213.085938"/>
     <use xlink:href="#DejaVuSans-32" x="276.708984"/>
    </g>
   </g>
  </g>
  <g id="axes_2">
   <g id="patch_5">
    <path d="M 323.67 261.26 
L 564.98 261.26 
L 564.98 93.12 
L 323.67 93.12 
z
" style="fill: #ffffff"/>
   </g>
   <g id="matplotlib.axis_3">
    <g id="xtick_6">
     <g id="line2d_16">
      <g>
       <use xlink:href="#mfcaff2f962" x="334.638636" y="261.26" style="stroke: #000000; stroke-width: 3"/>
      </g>
     </g>
    </g>
    <g id="xtick_7">
     <g id="line2d_17">
      <g>
       <use xlink:href="#mfcaff2f962" x="389.488674" y="261.26" style="stroke: #000000; stroke-width: 3"/>
      </g>
     </g>
    </g>
    <g id="xtick_8">
     <g id="line2d_18">
      <g>
       <use xlink:href="#mfcaff2f962" x="444.338713" y="261.26" style="stroke: #000000; stroke-width: 3"/>
      </g>
     </g>
    </g>
    <g id="xtick_9">
     <g id="line2d_19">
      <g>
       <use xlink:href="#mfcaff2f962" x="499.188751" y="261.26" style="stroke: #000000; stroke-width: 3"/>
      </g>
     </g>
    </g>
    <g id="xtick_10">
     <g id="line2d_20">
      <g>
       <use xlink:href="#mfcaff2f962" x="554.038789" y="261.26" style="stroke: #000000; stroke-width: 3"/>
      </g>
     </g>
    </g>
   </g>
   <g id="matplotlib.axis_4"/>
   <g id="line2d_21">
    <path d="M 334.638636 261.26 
L 338.697539 258.65669 
L 346.486245 254.238084 
L 347.939771 253.1265 
L 348.680246 252.549283 
L 352.135799 249.911275 
L 352.931124 248.898477 
L 355.097701 245.8827 
L 358.333853 241.723226 
L 361.04893 237.429859 
L 361.734555 236.309424 
L 363.133231 233.84801 
L 364.751307 231.513634 
L 366.725909 229.66654 
L 367.246984 229.260597 
L 367.740634 228.911874 
L 368.398835 228.385989 
L 369.057035 227.286124 
L 370.675111 224.4383 
L 372.402888 221.852385 
L 372.759413 221.47989 
L 373.280488 220.821869 
L 374.624314 219.063074 
L 375.117964 218.727366 
L 378.326692 217.267344 
L 381.919369 216.058786 
L 386.718748 210.842898 
L 387.788323 210.779046 
L 388.199699 210.764187 
L 388.528799 210.82277 
L 389.022449 210.93076 
L 389.9549 210.912358 
L 390.77765 210.592608 
L 391.216451 210.258128 
L 392.011776 209.713642 
L 392.971652 209.267401 
L 393.684702 208.866695 
L 393.986378 208.654715 
L 394.562303 208.317772 
L 395.138228 208.363065 
L 396.235229 208.532194 
L 396.89343 208.673934 
L 397.579055 209.049166 
L 398.758331 209.868731 
L 399.197131 209.929791 
L 399.498806 209.683764 
L 399.910182 209.333976 
L 400.348982 209.056347 
L 401.034607 208.635987 
L 401.555683 208.482764 
L 403.064059 208.249921 
L 403.585134 208.65034 
L 404.298185 209.102264 
L 405.751711 209.820714 
L 406.108236 209.961168 
L 407.068112 210.414062 
L 407.589187 210.651055 
L 408.549063 210.689061 
L 409.097563 210.894503 
L 409.563788 210.985771 
L 411.31899 211.015584 
L 411.785215 210.964592 
L 412.799941 210.349439 
L 413.211316 210.235965 
L 413.485566 210.26554 
L 414.171192 210.427493 
L 414.801967 210.646858 
L 415.213342 210.793486 
L 416.282918 210.449163 
L 416.968544 209.886168 
L 417.681594 209.19577 
L 419.491645 207.466112 
L 419.957871 207.354337 
L 420.424096 207.493524 
L 421.685647 208.014777 
L 422.124447 208.056613 
L 422.864923 207.93215 
L 423.907073 207.720539 
L 424.839524 207.649056 
L 425.96395 207.016669 
L 426.704425 206.5586 
L 427.335201 206.477211 
L 427.664301 206.56828 
L 428.103101 206.979413 
L 428.679027 207.517397 
L 429.282377 207.916212 
L 430.324528 208.032445 
L 432.710504 207.87139 
L 434.191455 207.319332 
L 434.657681 207.095899 
L 435.261031 207.015699 
L 435.727257 207.12629 
L 436.988807 207.86742 
L 437.317908 207.833752 
L 437.811558 207.622925 
L 438.744009 207.276525 
L 439.895859 206.396438 
L 440.82831 205.652317 
L 441.26711 205.322157 
L 441.733336 205.23478 
L 443.022312 205.286053 
L 444.174162 206.032233 
L 445.709963 207.35871 
L 446.669839 207.581415 
L 448.233065 207.911319 
L 448.699291 207.942148 
L 449.576891 207.884644 
L 450.235092 207.98986 
L 450.728742 207.942309 
L 451.057842 207.897833 
L 451.578918 207.767697 
L 453.992319 207.826179 
L 454.59567 207.550985 
L 455.116745 207.672063 
L 455.63782 207.702226 
L 455.857221 207.774649 
L 456.323446 207.945216 
L 456.789671 207.893304 
L 457.338172 207.801112 
L 457.831822 207.7061 
L 458.298047 207.348462 
L 459.559598 206.440398 
L 459.943548 206.411764 
L 460.327499 206.586276 
L 460.903424 206.804616 
L 461.479349 206.859021 
L 461.7536 206.858236 
L 462.13755 206.864553 
L 463.152276 206.617144 
L 463.591076 206.817323 
L 464.468676 207.844146 
L 466.114178 209.870985 
L 467.183753 210.360121 
L 468.692129 210.068219 
L 469.103505 210.203741 
L 470.145655 210.454794 
L 470.803856 210.480012 
L 471.407206 210.410875 
L 472.504207 210.374596 
L 473.299533 210.127378 
L 474.396533 209.859345 
L 475.164434 209.405266 
L 476.974485 208.230657 
L 477.687536 208.277233 
L 478.619986 208.024085 
L 480.046087 207.037585 
L 480.512313 206.995617 
L 480.896263 207.193667 
L 481.828714 207.978467 
L 482.678889 208.292887 
L 483.474215 208.325717 
L 484.132415 208.663561 
L 486.079591 209.767105 
L 486.573242 209.84285 
L 486.984617 209.802507 
L 487.862218 209.805355 
L 489.151194 209.21707 
L 489.891669 209.249666 
L 490.851545 209.447546 
L 491.345195 209.398202 
L 491.975971 208.921116 
L 493.374647 207.539916 
L 494.608772 207.358193 
L 495.102423 207.426093 
L 495.788048 207.99353 
L 496.171998 208.226594 
L 496.446249 208.22089 
L 497.323849 208.245139 
L 497.9272 208.401156 
L 498.64025 208.419909 
L 498.887075 208.344975 
L 499.764676 207.299351 
L 500.450301 206.367637 
L 501.492452 205.254526 
L 501.821552 205.002871 
L 502.150653 204.975166 
L 502.754003 205.267868 
L 503.768729 205.939223 
L 504.646329 206.400029 
L 505.52393 206.73818 
L 506.785481 206.606203 
L 507.196856 206.653658 
L 508.348707 206.658551 
L 508.897207 206.984306 
L 510.350733 207.237786 
L 511.091209 207.372148 
L 511.557434 207.096895 
L 512.84641 206.043241 
L 513.257785 205.670609 
L 513.669161 205.634214 
L 514.299936 205.752445 
L 515.369512 206.371124 
L 515.753462 206.561933 
L 517.179563 206.715092 
L 518.358839 206.984491 
L 519.044464 206.858525 
L 519.428415 206.8622 
L 519.73009 206.996945 
L 520.27859 207.480963 
L 521.622416 208.401676 
L 522.253192 208.588383 
L 523.459892 209.312273 
L 523.898693 209.294275 
L 524.474618 209.486145 
L 526.312094 210.383141 
L 527.025145 210.57696 
L 527.738195 210.587895 
L 528.286696 210.830366 
L 530.069322 211.709266 
L 530.809798 211.745811 
L 531.248598 211.684404 
L 532.208474 211.365967 
L 532.619849 211.235416 
L 534.04595 210.899377 
L 534.457325 210.994816 
L 534.81385 210.765463 
L 535.499476 210.430997 
L 535.883426 210.441998 
L 536.239951 210.36227 
L 536.898152 209.949804 
L 537.446652 209.697911 
L 537.885452 209.771443 
L 538.379103 209.945517 
L 538.763053 209.987865 
L 539.393828 210.188146 
L 539.997179 210.354624 
L 540.655379 210.337914 
L 541.121605 210.578623 
L 542.273455 211.645045 
L 542.657406 211.762555 
L 544.494882 211.589912 
L 546.167808 211.919553 
L 547.429359 211.505533 
L 548.63606 211.135329 
L 549.211985 210.983816 
L 551.515687 211.152255 
L 552.969213 211.573107 
L 553.599988 211.722138 
L 554.011364 211.657793 
L 554.011364 211.657793 
" clip-path="url(#p95461acec3)" style="fill: none; stroke: #0000ff; stroke-width: 4; stroke-linecap: square"/>
   </g>
   <g id="line2d_22">
    <path d="M 334.638636 261.26 
L 340.28819 257.587389 
L 342.646742 256.238836 
L 345.224694 254.887137 
L 347.034745 253.808155 
L 348.104321 253.246188 
L 349.448147 252.385453 
L 353.123099 249.314601 
L 354.631475 247.711976 
L 355.783326 246.5343 
L 356.331826 246.00868 
L 357.977328 244.77196 
L 358.690378 244.069771 
L 360.88438 241.502952 
L 364.038257 237.119476 
L 365.820883 234.707917 
L 367.384109 232.734127 
L 368.947335 231.120291 
L 369.852361 230.652369 
L 370.757386 229.914274 
L 371.552712 229.30357 
L 373.554738 228.304245 
L 374.459764 227.455292 
L 375.063114 227.095982 
L 377.586216 226.418734 
L 378.052441 226.102973 
L 378.930042 225.296742 
L 379.780218 224.848881 
L 380.493268 224.46747 
L 380.877218 224.500942 
L 384.415046 225.317777 
L 385.210371 225.386014 
L 387.568923 225.950591 
L 388.912749 225.85468 
L 389.653225 225.707489 
L 390.1743 225.651978 
L 390.77765 225.670379 
L 392.478002 226.232289 
L 393.081352 226.181727 
L 393.849252 225.943542 
L 394.178353 225.875135 
L 396.015829 225.635728 
L 398.15498 225.758172 
L 398.922881 225.704851 
L 399.389106 225.793837 
L 400.486107 226.010004 
L 401.336283 226.286916 
L 402.021908 226.53665 
L 402.542983 226.757958 
L 404.517585 227.70476 
L 405.14836 227.420101 
L 406.217936 226.898573 
L 406.958412 226.551694 
L 407.973137 226.142097 
L 409.426663 226.127503 
L 413.129041 227.848324 
L 413.979216 228.52032 
L 414.335742 228.57111 
L 416.858843 228.64071 
L 417.709019 228.956964 
L 420.506371 230.151231 
L 421.274271 230.540536 
L 422.919773 231.060501 
L 424.318449 231.099521 
L 424.866949 231.107273 
L 425.662275 231.266045 
L 426.95125 231.821011 
L 428.185376 231.862462 
L 429.501777 232.054218 
L 430.735903 231.779494 
L 431.750629 231.549713 
L 432.820205 231.60832 
L 433.259005 231.595892 
L 434.739956 231.538333 
L 435.507856 231.681626 
L 436.879107 231.636612 
L 438.826284 232.009458 
L 440.11526 232.455629 
L 440.746035 232.643369 
L 441.349385 232.6114 
L 442.528661 232.876976 
L 443.954762 232.736597 
L 445.188888 232.248661 
L 446.203614 231.745887 
L 446.779539 231.638979 
L 448.58959 231.615404 
L 449.192941 231.858563 
L 450.454492 232.376973 
L 452.319393 232.575765 
L 452.785618 232.469068 
L 454.842495 232.391266 
L 455.857221 232.688101 
L 456.981646 232.968522 
L 457.393022 233.085376 
L 458.352897 233.025964 
L 459.477323 233.059714 
L 459.916123 233.025182 
L 460.437199 232.964665 
L 463.01515 232.95694 
L 464.331551 232.571323 
L 466.196453 231.64162 
L 466.882078 231.39429 
L 467.622554 231.262282 
L 469.40518 231.490446 
L 471.105531 231.924353 
L 471.708882 231.778066 
L 472.586482 231.45998 
L 473.052707 231.45358 
L 473.656058 231.749039 
L 474.780484 232.318678 
L 476.974485 233.132392 
L 480.183212 233.230966 
L 480.676863 233.132041 
L 483.364515 232.154509 
L 483.99529 232.028943 
L 484.37924 231.813827 
L 485.147141 231.53611 
L 486.710367 231.433307 
L 487.917068 231.214527 
L 488.547843 231.289723 
L 489.096344 231.445112 
L 489.836819 231.805282 
L 493.264946 233.684758 
L 493.676322 233.902955 
L 494.526497 234.028307 
L 494.910448 233.93319 
L 496.693074 233.595427 
L 498.174025 233.921228 
L 498.996775 234.147409 
L 499.764676 234.193693 
L 500.532577 234.276245 
L 501.739277 234.388306 
L 502.370053 234.492792 
L 503.000828 234.327283 
L 503.631604 234.227454 
L 504.289804 234.394306 
L 505.13998 234.638 
L 506.045005 234.559748 
L 507.196856 234.297872 
L 508.760082 233.812442 
L 509.555408 233.752005 
L 510.350733 234.032072 
L 510.899234 234.131378 
L 511.721984 234.276307 
L 512.270485 234.318208 
L 513.724011 234.203125 
L 514.629036 233.870326 
L 515.506637 233.445101 
L 516.219687 233.262878 
L 517.481238 233.114046 
L 518.413689 232.888461 
L 519.812365 232.925174 
L 520.360865 232.658401 
L 520.827091 232.450615 
L 522.856542 232.092178 
L 523.350192 231.917502 
L 526.092694 231.180122 
L 526.55892 231.242392 
L 527.134845 231.489911 
L 528.094721 232.045891 
L 529.191721 232.266374 
L 529.630522 232.087939 
L 530.261297 231.6687 
L 531.001773 231.330628 
L 531.797098 231.210841 
L 532.181048 231.366423 
L 532.866674 231.775873 
L 533.387749 231.791199 
L 534.073375 231.815617 
L 537.090127 231.797225 
L 538.077428 231.725604 
L 538.763053 231.964763 
L 539.750354 232.200957 
L 540.408554 232.132547 
L 542.13633 231.956644 
L 543.233331 231.999641 
L 543.535006 232.000832 
L 545.564458 232.332322 
L 546.496908 232.070724 
L 547.045409 231.970111 
L 549.321685 231.358444 
L 549.787911 231.395875 
L 550.391261 231.514181 
L 550.939762 231.559116 
L 551.488262 231.55615 
L 553.353163 231.753383 
L 554.011364 231.677291 
L 554.011364 231.677291 
" clip-path="url(#p95461acec3)" style="fill: none; stroke: #ff0000; stroke-width: 4; stroke-linecap: square"/>
   </g>
   <g id="line2d_23">
    <path d="M 334.638636 261.26 
L 338.478139 258.806725 
L 340.17849 257.943262 
L 342.975842 256.609551 
L 345.965169 254.914115 
L 347.199295 254.148967 
L 348.378571 253.197604 
L 350.161197 251.808959 
L 351.175923 250.886468 
L 353.699025 248.221917 
L 354.82345 246.791719 
L 356.030151 245.289062 
L 357.593377 243.211523 
L 360.719829 237.992867 
L 365.628908 227.765537 
L 367.548659 223.873956 
L 370.181461 220.273263 
L 371.881812 218.248515 
L 372.540013 217.174838 
L 373.362763 215.292823 
L 374.377489 212.969729 
L 377.942741 208.098432 
L 378.518667 207.548705 
L 379.286567 206.385908 
L 380.164168 205.040566 
L 380.602968 204.614369 
L 381.425719 203.579491 
L 381.919369 202.941931 
L 382.90667 202.27752 
L 383.61972 202.032854 
L 384.305346 201.830959 
L 384.524746 201.533159 
L 385.210371 200.483398 
L 386.609047 198.36936 
L 387.898023 196.178188 
L 388.693349 194.602286 
L 390.146875 191.950182 
L 394.836553 186.48633 
L 395.851279 185.232495 
L 397.16768 184.52887 
L 397.49678 184.458968 
L 397.77103 184.187164 
L 398.895456 182.881422 
L 400.568382 180.758827 
L 402.433283 179.220604 
L 402.789809 179.000343 
L 404.133635 177.667095 
L 406.163086 174.98822 
L 407.369787 173.867822 
L 408.027987 173.274441 
L 409.179838 172.04516 
L 410.194564 171.563319 
L 410.578514 171.353902 
L 413.375866 170.840353 
L 413.869516 170.986743 
L 414.308317 171.166789 
L 415.432742 171.418518 
L 416.090943 171.249651 
L 416.392618 170.934588 
L 417.105669 169.805562 
L 417.928419 168.633857 
L 418.53177 167.697292 
L 419.052845 166.969857 
L 419.73847 166.433294 
L 420.369246 166.040234 
L 421.493672 165.749903 
L 422.535822 164.796209 
L 423.139173 164.679894 
L 423.687673 164.95276 
L 423.989348 165.028997 
L 425.552574 165.038206 
L 425.936525 164.925452 
L 426.7867 164.541984 
L 427.033525 164.467794 
L 428.020826 163.747555 
L 430.297103 161.70538 
L 431.202128 161.310297 
L 431.695779 161.410845 
L 432.408829 161.555322 
L 433.588105 161.399507 
L 434.438281 160.618806 
L 434.931931 160.296452 
L 435.398156 160.112239 
L 435.782107 160.08774 
L 436.220907 160.240718 
L 436.796832 160.577953 
L 437.592158 160.957523 
L 438.332633 161.508145 
L 438.853709 161.656038 
L 439.621609 161.78633 
L 440.33466 162.070196 
L 440.99286 162.008199 
L 442.473811 163.201466 
L 443.323987 163.198738 
L 444.064462 162.830953 
L 445.517988 162.098826 
L 446.231039 162.373295 
L 446.944089 162.199518 
L 447.355465 161.849487 
L 447.958815 161.251789 
L 449.247791 160.419284 
L 449.576891 160.348517 
L 451.194967 160.395927 
L 452.072568 160.493462 
L 452.785618 160.829076 
L 453.910044 160.989012 
L 454.568245 161.107511 
L 455.665245 160.988879 
L 456.049196 160.763607 
L 457.063921 160.132959 
L 457.667272 160.051665 
L 458.435172 160.350075 
L 458.901398 160.452495 
L 459.395048 160.267971 
L 460.656599 159.351076 
L 461.177674 159.134508 
L 462.02785 159.056731 
L 462.8506 159.25096 
L 463.261976 159.314418 
L 464.688077 159.534217 
L 465.291427 159.606694 
L 465.702802 159.679178 
L 466.059328 159.747435 
L 466.744953 159.856589 
L 467.403154 160.081824 
L 467.896804 160.102909 
L 468.692129 160.444931 
L 469.542305 160.100864 
L 470.913556 159.308414 
L 471.242656 159.129227 
L 472.504207 159.150621 
L 473.710908 158.970726 
L 474.369108 159.064256 
L 474.945034 158.905732 
L 475.630659 158.497657 
L 476.56311 158.531205 
L 476.89221 158.533142 
L 478.044061 158.649719 
L 478.839386 158.965238 
L 479.442737 159.222836 
L 480.896263 159.180814 
L 481.417338 158.957656 
L 482.816014 159.172284 
L 483.28224 159.51134 
L 483.77589 160.108861 
L 484.10499 160.41353 
L 484.818041 160.689217 
L 485.366541 160.706181 
L 485.887616 160.721927 
L 487.286292 161.214916 
L 488.109043 161.442924 
L 488.410718 161.469092 
L 488.684968 161.514018 
L 488.959218 161.574008 
L 489.260894 161.372608 
L 489.672269 160.916995 
L 490.138494 160.583739 
L 490.467595 160.304086 
L 492.469621 158.075086 
L 493.127821 157.989649 
L 493.977997 158.23064 
L 496.446249 157.723453 
L 497.378699 157.364915 
L 497.9272 157.451392 
L 499.161326 157.447096 
L 500.148626 157.26731 
L 500.697127 157.408867 
L 501.355327 157.872223 
L 501.766702 158.393593 
L 502.424903 159.152259 
L 502.891128 159.306853 
L 504.728604 159.088759 
L 505.825605 158.605626 
L 506.346681 158.484948 
L 507.224281 158.021116 
L 508.074457 157.533761 
L 509.445708 156.803806 
L 510.021633 157.118077 
L 510.433008 157.557748 
L 511.173484 158.472468 
L 511.530009 158.680567 
L 511.859109 158.564623 
L 512.435035 158.285598 
L 512.95611 158.14152 
L 514.464486 158.206063 
L 515.150112 158.349709 
L 515.643762 158.263929 
L 516.247112 158.30754 
L 517.371538 158.666754 
L 517.782913 158.861591 
L 518.276564 159.008187 
L 519.40099 158.996974 
L 520.306015 158.94365 
L 520.60769 159.132706 
L 520.991641 159.327946 
L 522.170917 159.495818 
L 523.021092 159.655676 
L 523.514742 159.783011 
L 524.172943 159.769656 
L 524.776293 159.842546 
L 525.352219 159.973422 
L 526.065269 159.843634 
L 527.957596 158.655118 
L 528.615796 158.011015 
L 529.136871 157.502247 
L 529.630522 157.397327 
L 530.645247 157.758298 
L 530.974348 157.82767 
L 532.345599 158.017255 
L 532.647274 157.871426 
L 532.921524 157.829228 
L 533.7717 157.774984 
L 534.2105 157.516065 
L 535.636601 156.879909 
L 536.047976 156.989584 
L 536.706177 157.08671 
L 537.117552 157.101951 
L 537.720902 157.247673 
L 538.625928 157.196327 
L 539.284128 157.043761 
L 541.09418 157.20714 
L 541.91693 156.848254 
L 542.684831 156.640142 
L 543.096206 156.7151 
L 543.535006 156.71706 
L 543.836682 156.734938 
L 544.248057 156.858588 
L 544.851407 157.229432 
L 546.414633 158.692907 
L 549.157135 161.666218 
L 549.650786 161.921868 
L 550.007311 161.855582 
L 550.747786 161.458658 
L 552.448138 160.374048 
L 553.353163 160.162364 
L 554.011364 159.892172 
L 554.011364 159.892172 
" clip-path="url(#p95461acec3)" style="fill: none; stroke-dasharray: 4,6.6; stroke-dashoffset: 0; stroke: #0000ff; stroke-width: 4"/>
   </g>
   <g id="line2d_24">
    <path d="M 334.638636 261.26 
L 340.809266 257.23315 
L 345.745769 254.666666 
L 347.06217 253.848672 
L 349.667547 252.215554 
L 351.614723 250.896413 
L 352.766574 249.732785 
L 353.6716 248.661158 
L 354.686325 247.570141 
L 356.468952 245.449773 
L 357.730502 243.688928 
L 359.430854 241.487455 
L 361.65228 239.402853 
L 363.462331 237.082757 
L 367.027584 231.337475 
L 367.795484 230.196704 
L 368.837635 229.014202 
L 369.852361 227.665256 
L 371.443012 225.151423 
L 372.512588 223.304468 
L 373.911264 221.131206 
L 374.843714 220.069365 
L 375.74874 219.083289 
L 376.982866 217.95462 
L 377.942741 216.744259 
L 380.136743 212.916156 
L 381.864519 210.170165 
L 383.34547 208.941789 
L 384.744146 207.379706 
L 387.404373 204.913635 
L 388.309399 203.720689 
L 388.830474 203.237496 
L 389.296699 203.035333 
L 389.598375 202.990793 
L 391.161601 202.323762 
L 392.752252 201.871301 
L 393.410452 201.913318 
L 394.452603 201.44429 
L 394.918828 201.311877 
L 397.249955 200.012385 
L 398.319531 199.369202 
L 399.142281 199.124815 
L 399.635931 199.034666 
L 399.965032 198.980711 
L 400.568382 198.625061 
L 401.418558 197.830652 
L 401.829933 197.78433 
L 402.104183 197.722149 
L 404.81926 196.280787 
L 405.450036 195.939232 
L 406.656736 195.556621 
L 407.177812 195.421523 
L 407.561762 195.087113 
L 409.070138 193.628764 
L 409.646063 193.202547 
L 411.75779 191.32089 
L 412.08689 191.212504 
L 412.690241 191.163477 
L 413.074191 190.86565 
L 413.732391 190.331836 
L 414.088917 190.157043 
L 417.846144 189.221054 
L 418.367219 189.293856 
L 418.69632 189.322876 
L 419.930446 189.51911 
L 420.396671 189.253386 
L 421.082296 188.531428 
L 421.685647 187.763701 
L 422.645522 187.027367 
L 424.674974 185.761365 
L 425.9091 185.984233 
L 426.8964 185.680595 
L 427.636876 185.761443 
L 428.432201 185.599438 
L 428.816152 185.530074 
L 429.913152 185.491915 
L 431.092428 185.252142 
L 431.421529 185.213668 
L 431.887754 184.899069 
L 432.436254 184.524132 
L 433.752655 184.276889 
L 434.657681 184.545772 
L 435.754682 183.907727 
L 437.592158 182.015312 
L 439.210234 181.478051 
L 439.429634 181.512259 
L 439.841009 181.513657 
L 441.21226 181.778417 
L 441.705911 181.650692 
L 442.638361 181.422846 
L 443.077162 181.602936 
L 443.982187 181.756227 
L 444.448413 181.595106 
L 444.777513 181.498158 
L 445.984214 180.955351 
L 447.794265 179.354209 
L 448.31534 179.13965 
L 448.699291 179.198078 
L 448.918691 179.156677 
L 449.357491 179.089074 
L 449.851141 179.150186 
L 451.002992 178.706811 
L 452.346818 178.777656 
L 452.758193 179.02197 
L 453.718069 179.789511 
L 453.992319 179.680736 
L 454.81507 179.28357 
L 456.323446 179.459074 
L 456.789671 179.695563 
L 457.447872 179.796728 
L 457.886672 179.620638 
L 458.819123 178.830472 
L 459.422473 178.292821 
L 459.724148 178.283417 
L 460.108098 178.209801 
L 460.546899 177.981511 
L 460.903424 177.640284 
L 461.369649 177.168847 
L 461.671325 177.081888 
L 462.02785 177.203237 
L 462.548925 177.45715 
L 463.124851 177.522047 
L 464.139576 177.364845 
L 464.660652 177.105964 
L 465.236577 176.990097 
L 466.552978 176.726097 
L 466.882078 176.804658 
L 467.512854 177.310874 
L 467.951654 177.739955 
L 468.719554 178.193289 
L 470.392481 178.594497 
L 471.791157 178.553899 
L 472.915582 178.526772 
L 473.381808 178.613795 
L 474.012583 178.202664 
L 474.945034 177.458983 
L 475.658084 177.013853 
L 476.151735 176.77435 
L 477.139035 176.719373 
L 477.852086 176.559983 
L 478.373161 176.498652 
L 478.949087 176.30943 
L 479.387887 176.385355 
L 480.292912 176.3361 
L 481.993264 175.876515 
L 482.596614 176.089452 
L 484.10499 176.597258 
L 484.708341 176.583904 
L 485.503666 176.791802 
L 488.849518 177.561498 
L 489.672269 177.553328 
L 490.60472 177.477884 
L 494.032847 175.557035 
L 494.499072 175.58994 
L 495.733198 176.394123 
L 497.022174 177.413869 
L 498.5854 177.69349 
L 499.380726 177.886112 
L 499.737251 177.919007 
L 500.560002 177.809439 
L 501.135927 177.394058 
L 501.547302 177.030144 
L 502.726578 176.25026 
L 503.604179 175.431765 
L 504.97543 174.842255 
L 506.099855 175.01239 
L 506.374106 175.208891 
L 506.730631 175.466784 
L 508.266432 176.209385 
L 508.760082 176.154036 
L 509.637683 175.656529 
L 509.884508 175.550887 
L 510.679834 175.080622 
L 511.365459 174.982481 
L 511.557434 174.899218 
L 512.07851 174.649929 
L 513.724011 174.164531 
L 514.135386 174.175869 
L 514.738736 174.291852 
L 515.040412 174.368389 
L 516.219687 174.919701 
L 516.493938 174.813181 
L 517.042438 174.47717 
L 518.002314 173.80423 
L 519.017039 173.347497 
L 519.34614 173.246295 
L 520.909366 173.398803 
L 521.786966 173.969355 
L 522.472592 174.072246 
L 522.719417 174.169975 
L 523.871268 174.768116 
L 524.502043 174.883127 
L 525.160244 175.065205 
L 526.66862 175.415815 
L 527.299395 175.210255 
L 528.094721 174.786592 
L 528.533521 174.578609 
L 529.027171 174.284881 
L 529.685372 174.009028 
L 530.206447 173.732237 
L 530.480697 173.715207 
L 532.510149 174.067545 
L 533.332899 173.975006 
L 533.71685 174.014422 
L 534.15565 174.217281 
L 535.005825 174.792607 
L 535.938276 175.543131 
L 536.486776 176.07507 
L 536.925577 176.096498 
L 537.419227 175.931414 
L 538.050003 176.033448 
L 539.311553 176.787653 
L 540.92963 177.716034 
L 541.47813 177.711573 
L 542.273455 177.840131 
L 542.657406 177.965076 
L 542.931656 177.979696 
L 543.233331 177.856507 
L 543.891532 177.639437 
L 544.220632 177.587202 
L 545.125657 177.128776 
L 545.564458 176.723492 
L 546.112958 176.263634 
L 546.524333 176.1329 
L 546.908284 176.076311 
L 547.539059 175.915891 
L 548.279535 175.73514 
L 548.80061 175.461231 
L 549.29426 175.427593 
L 549.842761 175.646662 
L 550.473536 175.77726 
L 551.543112 175.942463 
L 552.009337 175.927946 
L 552.859513 175.69033 
L 553.298313 175.791919 
L 554.011364 175.749045 
L 554.011364 175.749045 
" clip-path="url(#p95461acec3)" style="fill: none; stroke-dasharray: 4,6.6; stroke-dashoffset: 0; stroke: #ff0000; stroke-width: 4"/>
   </g>
   <g id="patch_6">
    <path d="M 323.67 261.26 
L 564.98 261.26 
" style="fill: none; stroke: #000000; stroke-width: 3; stroke-linejoin: miter; stroke-linecap: square"/>
   </g>
   <g id="text_15">
    <!-- LAL010 -->
    <g transform="translate(399.56875 87.12) scale(0.24 -0.24)">
     <defs>
      <path id="DejaVuSans-4c" d="M 628 4666 
L 1259 4666 
L 1259 531 
L 3531 531 
L 3531 0 
L 628 0 
L 628 4666 
z
" transform="scale(0.015625)"/>
      <path id="DejaVuSans-41" d="M 2188 4044 
L 1331 1722 
L 3047 1722 
L 2188 4044 
z
M 1831 4666 
L 2547 4666 
L 4325 0 
L 3669 0 
L 3244 1197 
L 1141 1197 
L 716 0 
L 50 0 
L 1831 4666 
z
" transform="scale(0.015625)"/>
     </defs>
     <use xlink:href="#DejaVuSans-4c"/>
     <use xlink:href="#DejaVuSans-41" x="57.962891"/>
     <use xlink:href="#DejaVuSans-4c" x="126.371094"/>
     <use xlink:href="#DejaVuSans-30" x="182.083984"/>
     <use xlink:href="#DejaVuSans-31" x="245.707031"/>
     <use xlink:href="#DejaVuSans-30" x="309.330078"/>
    </g>
   </g>
  </g>
  <g id="axes_3">
   <g id="patch_7">
    <path d="M 575.78 261.26 
L 817.09 261.26 
L 817.09 93.12 
L 575.78 93.12 
z
" style="fill: #ffffff"/>
   </g>
   <g id="matplotlib.axis_5">
    <g id="xtick_11">
     <g id="line2d_25">
      <g>
       <use xlink:href="#mfcaff2f962" x="586.748636" y="261.26" style="stroke: #000000; stroke-width: 3"/>
      </g>
     </g>
    </g>
    <g id="xtick_12">
     <g id="line2d_26">
      <g>
       <use xlink:href="#mfcaff2f962" x="641.598674" y="261.26" style="stroke: #000000; stroke-width: 3"/>
      </g>
     </g>
    </g>
    <g id="xtick_13">
     <g id="line2d_27">
      <g>
       <use xlink:href="#mfcaff2f962" x="696.448713" y="261.26" style="stroke: #000000; stroke-width: 3"/>
      </g>
     </g>
    </g>
    <g id="xtick_14">
     <g id="line2d_28">
      <g>
       <use xlink:href="#mfcaff2f962" x="751.298751" y="261.26" style="stroke: #000000; stroke-width: 3"/>
      </g>
     </g>
    </g>
    <g id="xtick_15">
     <g id="line2d_29">
      <g>
       <use xlink:href="#mfcaff2f962" x="806.148789" y="261.26" style="stroke: #000000; stroke-width: 3"/>
      </g>
     </g>
    </g>
   </g>
   <g id="matplotlib.axis_6"/>
   <g id="line2d_30">
    <path d="M 586.748636 261.26 
L 588.613538 260.133914 
L 590.944664 259.065341 
L 593.467766 258.235271 
L 601.530722 255.586972 
L 604.958849 254.238961 
L 609.346852 251.569207 
L 610.498703 250.842916 
L 615.901432 246.383368 
L 616.696757 245.774518 
L 619.494109 244.096493 
L 620.892785 243.198133 
L 624.430613 239.610218 
L 625.445338 238.666685 
L 627.090839 237.119244 
L 628.07814 236.537713 
L 632.466143 234.301811 
L 634.029369 233.612598 
L 636.470196 231.519169 
L 638.609347 229.390554 
L 639.294973 228.990184 
L 640.309699 228.607489 
L 640.830774 228.501197 
L 642.092325 228.143668 
L 643.0522 227.632965 
L 647.028828 225.007713 
L 648.646904 224.556231 
L 649.469655 224.50971 
L 651.197431 224.721087 
L 651.499106 224.597132 
L 653.281733 223.580167 
L 655.036934 222.872292 
L 655.585434 222.933366 
L 656.76471 223.119177 
L 657.340635 223.187267 
L 659.754037 223.689406 
L 661.262413 223.719713 
L 662.715939 223.655577 
L 664.30659 223.376078 
L 665.513291 223.077048 
L 666.637717 223.145462 
L 667.789568 223.157656 
L 668.859143 222.742643 
L 670.010994 221.962506 
L 672.287271 220.41398 
L 672.780921 220.40127 
L 674.426422 220.291456 
L 676.483299 219.719176 
L 677.031799 219.567697 
L 677.552874 219.323845 
L 678.84185 218.57198 
L 679.692026 218.399865 
L 680.213101 218.615189 
L 680.953577 218.974773 
L 681.995727 219.22264 
L 682.708778 219.279869 
L 683.229853 219.29443 
L 683.641229 219.287686 
L 684.738229 219.160182 
L 685.50613 218.976739 
L 686.603131 218.543585 
L 687.590431 218.32244 
L 688.084082 218.412931 
L 689.126232 218.65275 
L 689.537608 218.581658 
L 690.086108 218.468105 
L 691.073409 218.169334 
L 694.007886 216.556483 
L 695.763087 216.424407 
L 696.366437 216.644312 
L 697.792538 217.384707 
L 700.48019 217.802099 
L 701.412641 217.784778 
L 705.581244 217.87939 
L 706.212019 217.717257 
L 706.733095 217.54208 
L 707.939795 217.551072 
L 708.652846 217.652371 
L 710.051522 217.511815 
L 711.038823 216.993486 
L 711.806723 216.648469 
L 712.492349 216.683437 
L 713.287674 216.769225 
L 714.329825 216.686379 
L 715.042875 216.489938 
L 715.399401 216.486862 
L 715.975326 216.700532 
L 716.688377 217.242247 
L 718.471003 218.708463 
L 719.211478 219.048656 
L 722.036255 219.501863 
L 722.804156 219.68516 
L 724.038282 219.792026 
L 724.559357 219.787069 
L 726.259708 219.574237 
L 726.863059 219.420346 
L 727.877784 218.978819 
L 728.919935 218.518615 
L 729.413585 218.512262 
L 730.373461 218.37793 
L 730.894536 218.169309 
L 732.375487 217.403395 
L 732.896563 217.349096 
L 733.362788 217.552598 
L 733.911289 217.729947 
L 735.44709 217.857038 
L 735.968165 217.954827 
L 739.176892 218.962385 
L 739.972218 219.002042 
L 741.727419 218.648865 
L 743.48262 218.72641 
L 744.140821 218.415298 
L 745.539497 217.523956 
L 746.581647 217.327439 
L 747.514098 217.396339 
L 748.391699 217.67412 
L 749.324149 217.657538 
L 751.271326 217.695463 
L 751.984376 217.123089 
L 753.821852 215.593493 
L 754.342928 215.441852 
L 755.001128 215.533214 
L 758.155005 216.045257 
L 758.813206 215.969721 
L 759.910207 215.930633 
L 760.376432 215.91283 
L 761.171757 216.154257 
L 761.829958 216.200306 
L 763.091509 216.504985 
L 763.475459 216.44848 
L 764.73701 215.908572 
L 765.532335 215.464595 
L 766.382511 215.449979 
L 767.205262 215.649997 
L 768.028012 215.829709 
L 768.686213 215.85973 
L 769.481538 215.964228 
L 770.167164 216.06294 
L 771.94979 216.139828 
L 772.909666 216.695412 
L 773.622716 217.009238 
L 774.527742 217.266191 
L 775.240792 217.677511 
L 775.761868 217.750284 
L 776.447493 217.901698 
L 779.10772 218.88981 
L 779.93047 219.035894 
L 782.371297 220.177837 
L 784.373324 220.201722 
L 787.115825 219.919407 
L 787.856301 219.726867 
L 788.349951 219.659864 
L 789.063002 219.307961 
L 789.501802 219.126862 
L 790.077728 219.123643 
L 791.065028 219.160218 
L 793.286455 219.419631 
L 794.657706 220.157973 
L 795.343331 220.18152 
L 796.138657 220.19419 
L 797.647033 220.566153 
L 798.195533 220.683571 
L 798.853734 220.60287 
L 800.80091 220.355122 
L 801.34941 220.256727 
L 804.201612 220.32996 
L 805.956814 220.743009 
L 806.121364 220.734939 
L 806.121364 220.734939 
" clip-path="url(#p6b7f0c8d0d)" style="fill: none; stroke: #0000ff; stroke-width: 4; stroke-linecap: square"/>
   </g>
   <g id="line2d_31">
    <path d="M 586.748636 261.26 
L 588.970063 259.894823 
L 590.917239 258.99512 
L 594.098541 257.861422 
L 599.912646 256.240969 
L 601.695272 255.711687 
L 605.397649 254.275234 
L 608.140151 252.962185 
L 612.034504 251.200471 
L 614.530181 249.583695 
L 619.027884 246.389015 
L 620.783085 245.137288 
L 621.633261 244.749667 
L 623.031937 243.966143 
L 623.964387 243.490507 
L 625.856714 242.588719 
L 627.255389 241.763537 
L 628.544365 241.371207 
L 629.751066 240.929265 
L 630.436692 240.508144 
L 631.067467 240.128457 
L 633.261469 239.275104 
L 634.001944 239.175847 
L 634.79727 239.126692 
L 641.269574 238.538436 
L 642.531125 238.291792 
L 643.134476 238.288622 
L 644.560576 238.301154 
L 648.811454 237.322299 
L 650.182705 237.129394 
L 651.663656 236.97325 
L 653.391433 236.999984 
L 656.901835 237.376511 
L 661.234988 236.179663 
L 662.002889 236.230411 
L 665.074491 236.740398 
L 666.253767 237.200807 
L 667.789568 237.231912 
L 669.105969 237.250783 
L 672.122721 237.773116 
L 674.947498 238.353341 
L 676.976949 238.339268 
L 677.991675 238.448756 
L 679.445201 238.687069 
L 682.132853 238.879152 
L 684.628529 238.659596 
L 686.05463 238.550218 
L 686.877381 238.534558 
L 687.782406 238.552229 
L 689.043957 238.474812 
L 689.921558 238.501129 
L 690.689459 238.62667 
L 692.88346 239.000833 
L 693.623936 238.983641 
L 695.269437 239.071796 
L 696.613263 238.902874 
L 697.518288 238.658489 
L 699.218639 238.331637 
L 700.013965 238.241695 
L 700.64474 238.215481 
L 701.467491 238.375292 
L 702.427367 238.607714 
L 703.798618 238.699146 
L 704.456818 238.700065 
L 705.389269 238.573982 
L 707.19932 238.521769 
L 709.585297 238.836851 
L 715.536526 238.703297 
L 718.662978 237.895386 
L 719.842254 237.711525 
L 721.13123 237.728616 
L 722.694456 238.01323 
L 723.270381 238.023529 
L 724.367382 237.815599 
L 725.244982 237.745992 
L 726.451683 238.070528 
L 729.44101 238.745876 
L 730.538011 238.863898 
L 731.443037 238.961101 
L 732.485188 238.87105 
L 733.390213 238.617505 
L 734.871164 238.267785 
L 736.48924 237.985345 
L 737.421691 237.793478 
L 738.491267 237.761013 
L 739.670543 237.52312 
L 741.699994 237.686736 
L 742.358194 237.843438 
L 742.961545 238.022846 
L 746.225122 239.076297 
L 746.938173 239.109054 
L 748.830499 238.950254 
L 753.575027 239.552538 
L 754.973703 239.588015 
L 755.906154 239.515618 
L 758.401831 239.686924 
L 759.663381 239.460248 
L 760.897507 239.256195 
L 761.939658 239.2688 
L 764.73701 239.601413 
L 766.327661 239.493037 
L 767.369812 239.163947 
L 768.466812 238.951959 
L 769.892913 238.756139 
L 770.688239 238.678952 
L 771.73039 238.654615 
L 772.27889 238.551312 
L 773.348466 238.280163 
L 774.445467 238.160624 
L 774.966542 238.030335 
L 775.789293 237.831367 
L 778.72377 237.322001 
L 779.409395 237.47663 
L 780.945196 237.889212 
L 781.603397 237.858183 
L 782.480997 237.573393 
L 783.248898 237.373843 
L 784.016798 237.315398 
L 784.483024 237.463003 
L 785.141224 237.62657 
L 787.307801 237.675106 
L 790.598803 237.500415 
L 791.997479 237.681732 
L 793.341305 237.54383 
L 794.383455 237.527854 
L 798.003558 237.815004 
L 799.319959 237.688355 
L 801.267135 237.336392 
L 806.121364 237.540175 
L 806.121364 237.540175 
" clip-path="url(#p6b7f0c8d0d)" style="fill: none; stroke: #ff0000; stroke-width: 4; stroke-linecap: square"/>
   </g>
   <g id="line2d_32">
    <path d="M 586.748636 261.26 
L 588.778088 260.024812 
L 591.026939 259.041611 
L 593.440341 258.298606 
L 597.334694 257.159531 
L 599.967496 256.338186 
L 602.271197 255.459275 
L 604.245799 254.603182 
L 605.918725 253.742413 
L 607.372251 252.931593 
L 609.127452 251.898745 
L 611.074628 250.44026 
L 613.899405 248.028321 
L 616.724182 245.083741 
L 619.878059 241.261806 
L 621.688111 239.526735 
L 624.759713 236.644916 
L 625.664738 235.286472 
L 626.569764 233.943459 
L 628.24269 231.954027 
L 629.312266 230.573715 
L 629.888191 229.969805 
L 630.738367 229.142577 
L 631.643393 227.942806 
L 632.356443 227.055471 
L 633.151769 226.162897 
L 634.769845 224.414467 
L 635.702295 223.767563 
L 636.579896 223.164808 
L 639.404673 219.229406 
L 640.556524 217.173321 
L 642.66825 213.49276 
L 643.353876 212.428545 
L 644.697702 210.38357 
L 649.030855 204.301647 
L 649.99073 203.340783 
L 653.775383 198.020158 
L 656.243635 195.19833 
L 659.589487 190.570356 
L 660.851038 188.885417 
L 661.481813 188.197413 
L 663.072464 186.833959 
L 664.63569 186.041133 
L 665.760116 185.721973 
L 667.899268 185.83432 
L 668.392918 185.573638 
L 669.078544 184.769015 
L 672.067871 181.181137 
L 672.753496 180.715649 
L 673.493972 180.340691 
L 674.974923 178.990235 
L 675.441148 178.853108 
L 675.770248 178.911316 
L 676.126773 178.906924 
L 678.375625 178.360837 
L 679.938851 177.617244 
L 681.748902 176.06387 
L 682.434528 175.557549 
L 683.421828 175.059899 
L 684.025179 175.04648 
L 685.67068 174.768043 
L 686.356306 174.261804 
L 687.014506 173.794195 
L 688.248632 173.494186 
L 689.811858 173.993957 
L 690.524908 174.367218 
L 691.100834 174.486264 
L 691.786459 174.641873 
L 692.49951 174.861494 
L 693.21256 174.902048 
L 694.912911 175.892042 
L 695.708237 175.932551 
L 696.585838 175.600574 
L 697.518288 175.270043 
L 697.929664 175.400624 
L 698.560439 175.501821 
L 699.43804 175.171634 
L 700.397915 174.463335 
L 701.494916 173.813475 
L 702.317667 173.737924 
L 703.826043 173.631891 
L 704.347118 173.717639 
L 704.813343 173.853481 
L 705.416694 173.930083 
L 707.884945 174.018941 
L 708.762546 173.611578 
L 709.612722 173.296934 
L 710.325772 173.434725 
L 711.148523 173.542944 
L 711.888998 173.187158 
L 713.095699 172.546188 
L 713.644199 172.400486 
L 714.604075 172.328619 
L 716.139876 172.403458 
L 717.182027 172.402873 
L 718.992078 172.645023 
L 719.568004 172.780676 
L 719.951954 172.818676 
L 720.281054 172.960425 
L 720.856979 173.146026 
L 722.200805 172.830159 
L 722.996131 172.415312 
L 723.462356 172.254816 
L 724.833607 172.135164 
L 725.464383 171.972304 
L 726.040308 172.053172 
L 726.698509 172.050644 
L 727.137309 171.897112 
L 728.014909 171.529916 
L 730.318611 171.611123 
L 731.635012 171.948628 
L 733.115963 171.971111 
L 733.609613 171.873577 
L 735.50194 172.366959 
L 736.928041 173.284123 
L 737.613666 173.393522 
L 738.025041 173.488442 
L 740.054493 174.278033 
L 741.041793 174.484037 
L 741.370894 174.357151 
L 742.55017 173.623909 
L 743.92142 172.32285 
L 744.552196 171.711898 
L 745.265246 171.445667 
L 746.307397 171.373567 
L 747.349548 171.134988 
L 749.680674 170.370807 
L 751.106775 170.294559 
L 752.313476 170.105817 
L 752.999102 170.280576 
L 753.492752 170.579794 
L 753.986402 171.101096 
L 754.644603 171.706221 
L 755.001128 171.819722 
L 756.372379 171.864045 
L 757.14028 171.611333 
L 757.606505 171.398822 
L 758.621231 171.192731 
L 760.047332 170.536616 
L 761.610558 169.754543 
L 762.268758 169.981201 
L 762.652708 170.323466 
L 763.256059 170.885395 
L 763.667434 171.124134 
L 764.270785 171.025625 
L 765.55976 170.97122 
L 769.399263 171.293711 
L 770.084889 171.543061 
L 772.635415 171.758027 
L 773.183916 171.989091 
L 775.460192 172.583827 
L 775.898993 172.621625 
L 776.639468 172.697149 
L 778.065569 172.860652 
L 779.38197 172.322475 
L 780.890346 171.185598 
L 781.411421 170.818018 
L 781.795372 170.735703 
L 782.727822 170.832519 
L 783.386023 170.852654 
L 783.989373 170.889653 
L 784.674999 170.820137 
L 785.086374 170.738065 
L 786.15595 170.579877 
L 787.14325 170.116017 
L 787.636901 169.961074 
L 787.993426 169.951017 
L 788.706477 170.019088 
L 789.309827 170.021341 
L 789.803477 170.085065 
L 790.790778 170.03142 
L 791.394128 169.922168 
L 793.231605 169.936387 
L 794.986806 169.431387 
L 795.562731 169.455704 
L 796.440332 169.568631 
L 797.455058 170.105861 
L 798.963434 171.375501 
L 801.29456 173.841476 
L 801.952761 174.235315 
L 802.473836 174.212631 
L 803.515987 173.850923 
L 804.750113 173.484464 
L 805.463163 173.339016 
L 806.121364 173.095406 
L 806.121364 173.095406 
" clip-path="url(#p6b7f0c8d0d)" style="fill: none; stroke-dasharray: 4,6.6; stroke-dashoffset: 0; stroke: #0000ff; stroke-width: 4"/>
   </g>
   <g id="line2d_33">
    <path d="M 586.748636 261.26 
L 588.915213 259.931102 
L 590.944664 258.953607 
L 593.796866 257.959415 
L 598.404269 256.66797 
L 605.068549 254.385579 
L 609.483977 251.967343 
L 611.705404 250.583841 
L 614.03653 249.409847 
L 616.504782 247.722889 
L 621.30416 243.745312 
L 622.373736 242.836103 
L 627.74904 237.691653 
L 629.668791 236.182366 
L 630.409267 235.318892 
L 632.082193 233.299207 
L 633.096919 231.98134 
L 633.727694 231.20676 
L 634.68757 230.332096 
L 637.457497 227.809186 
L 638.499647 226.902441 
L 639.432098 226.020425 
L 640.666224 224.546229 
L 641.379274 224.000428 
L 642.66825 223.265061 
L 644.478301 222.198413 
L 645.163927 222.084477 
L 645.712427 221.896579 
L 646.727153 221.446309 
L 647.303078 221.197684 
L 649.579355 219.930694 
L 650.292405 219.488572 
L 653.254308 218.075978 
L 653.720533 217.801552 
L 654.735259 217.339938 
L 655.804834 216.840408 
L 656.54531 216.48574 
L 657.587461 215.86626 
L 659.754037 214.800052 
L 664.14204 211.048857 
L 665.184191 210.500728 
L 666.034366 209.823103 
L 667.871843 208.963856 
L 670.559495 208.053962 
L 671.08057 208.035518 
L 671.62907 208.00154 
L 672.424396 207.787146 
L 673.356846 206.96384 
L 674.015047 206.365039 
L 676.784974 204.304172 
L 678.320775 203.919078 
L 679.1161 203.671925 
L 681.337527 203.351103 
L 681.858602 203.285337 
L 683.147578 202.954705 
L 683.613804 202.87547 
L 684.217154 202.515591 
L 684.985055 202.149505 
L 685.369005 202.039649 
L 686.301455 202.01818 
L 686.795106 202.034832 
L 687.453306 201.80939 
L 687.809832 201.610624 
L 690.003833 199.782455 
L 690.552333 199.484223 
L 691.128259 199.17197 
L 694.172436 198.609873 
L 694.693511 198.429996 
L 695.817937 198.583998 
L 696.229312 198.488215 
L 698.176489 197.846819 
L 699.273489 197.070822 
L 699.93169 196.531823 
L 700.507615 196.239842 
L 702.564492 195.661921 
L 703.195267 195.452845 
L 704.593943 195.352275 
L 705.005318 195.524739 
L 705.745794 195.912603 
L 706.102319 195.851426 
L 707.062195 195.601975 
L 708.488296 195.732743 
L 709.064221 195.904329 
L 709.557872 195.980258 
L 710.106372 195.839097 
L 711.751873 194.933133 
L 712.327799 194.790928 
L 712.931149 194.440882 
L 713.671624 193.86779 
L 714.110425 193.829581 
L 714.79605 193.915576 
L 715.646226 193.819347 
L 716.222151 193.66073 
L 717.017477 193.30849 
L 718.169328 192.944558 
L 718.854953 192.83354 
L 719.348603 192.960671 
L 721.103805 193.912852 
L 721.73458 194.050404 
L 723.681756 194.363887 
L 724.065707 194.378385 
L 724.696482 194.418551 
L 725.820908 194.402359 
L 727.466409 193.59284 
L 728.50856 193.177351 
L 729.49586 192.945489 
L 730.126636 192.828554 
L 730.592861 192.694336 
L 731.470462 192.509233 
L 732.512613 192.372206 
L 733.691888 192.053581 
L 734.350089 191.99446 
L 735.55679 192.291357 
L 735.99559 192.368689 
L 738.299292 192.681951 
L 740.657843 193.267788 
L 743.290645 193.086949 
L 746.279972 191.66886 
L 746.718772 191.692429 
L 747.898048 192.143587 
L 749.022474 192.797516 
L 749.433849 192.860628 
L 750.3663 193.070841 
L 752.724852 193.503488 
L 753.328202 193.244543 
L 753.849277 193.039393 
L 754.452628 192.810849 
L 755.001128 192.419216 
L 755.631904 191.939884 
L 757.14028 191.116283 
L 758.511531 191.068798 
L 759.581106 191.442684 
L 760.732957 191.674473 
L 761.226607 191.492049 
L 761.775108 191.293549 
L 762.104208 191.154288 
L 762.707559 190.898646 
L 763.694859 190.715874 
L 764.29821 190.51799 
L 765.532335 190.171568 
L 766.108261 190.028863 
L 767.287537 190.174171 
L 768.247412 190.436243 
L 768.549088 190.388252 
L 769.289563 190.024276 
L 770.249439 189.495641 
L 771.017339 189.174239 
L 771.78524 188.911357 
L 772.44344 188.81819 
L 773.101641 188.911845 
L 776.913718 190.195322 
L 777.626769 190.448981 
L 778.202694 190.569154 
L 779.573945 190.501651 
L 780.369271 190.284688 
L 780.725796 190.136811 
L 781.356571 189.935448 
L 781.740522 189.782426 
L 782.371297 189.47675 
L 782.755247 189.473296 
L 784.044223 189.519432 
L 785.470324 189.463284 
L 785.8817 189.504419 
L 786.37535 189.695868 
L 787.252951 190.160922 
L 788.816177 191.211742 
L 789.200127 191.198777 
L 789.638927 191.234131 
L 790.626228 191.638829 
L 791.640954 192.208857 
L 793.286455 192.985465 
L 794.575431 193.305727 
L 795.178781 193.451604 
L 796.824282 193.257913 
L 797.893858 192.637163 
L 798.524633 192.326716 
L 799.484509 192.105284 
L 801.541385 191.561198 
L 803.488562 191.735193 
L 804.475862 191.612876 
L 805.051788 191.548745 
L 805.518013 191.575558 
L 806.121364 191.499628 
L 806.121364 191.499628 
" clip-path="url(#p6b7f0c8d0d)" style="fill: none; stroke-dasharray: 4,6.6; stroke-dashoffset: 0; stroke: #ff0000; stroke-width: 4"/>
   </g>
   <g id="patch_8">
    <path d="M 575.78 261.26 
L 817.09 261.26 
" style="fill: none; stroke: #000000; stroke-width: 3; stroke-linejoin: miter; stroke-linecap: square"/>
   </g>
   <g id="text_16">
    <!-- LAL014 -->
    <g transform="translate(651.67875 87.12) scale(0.24 -0.24)">
     <use xlink:href="#DejaVuSans-4c"/>
     <use xlink:href="#DejaVuSans-41" x="57.962891"/>
     <use xlink:href="#DejaVuSans-4c" x="126.371094"/>
     <use xlink:href="#DejaVuSans-30" x="182.083984"/>
     <use xlink:href="#DejaVuSans-31" x="245.707031"/>
     <use xlink:href="#DejaVuSans-34" x="309.330078"/>
    </g>
   </g>
  </g>
  <g id="axes_4">
   <g id="patch_9">
    <path d="M 827.89 261.26 
L 1069.2 261.26 
L 1069.2 93.12 
L 827.89 93.12 
z
" style="fill: #ffffff"/>
   </g>
   <g id="matplotlib.axis_7">
    <g id="xtick_16">
     <g id="line2d_34">
      <g>
       <use xlink:href="#mfcaff2f962" x="838.858636" y="261.26" style="stroke: #000000; stroke-width: 3"/>
      </g>
     </g>
    </g>
    <g id="xtick_17">
     <g id="line2d_35">
      <g>
       <use xlink:href="#mfcaff2f962" x="893.708674" y="261.26" style="stroke: #000000; stroke-width: 3"/>
      </g>
     </g>
    </g>
    <g id="xtick_18">
     <g id="line2d_36">
      <g>
       <use xlink:href="#mfcaff2f962" x="948.558713" y="261.26" style="stroke: #000000; stroke-width: 3"/>
      </g>
     </g>
    </g>
    <g id="xtick_19">
     <g id="line2d_37">
      <g>
       <use xlink:href="#mfcaff2f962" x="1003.408751" y="261.26" style="stroke: #000000; stroke-width: 3"/>
      </g>
     </g>
    </g>
    <g id="xtick_20">
     <g id="line2d_38">
      <g>
       <use xlink:href="#mfcaff2f962" x="1058.258789" y="261.26" style="stroke: #000000; stroke-width: 3"/>
      </g>
     </g>
    </g>
   </g>
   <g id="matplotlib.axis_8"/>
   <g id="line2d_39">
    <path d="M 838.858636 261.26 
L 840.339587 260.392122 
L 841.930238 259.712862 
L 843.877415 259.096826 
L 846.126266 258.598796 
L 856.794599 256.505835 
L 861.895652 254.911497 
L 863.513728 254.300045 
L 866.530481 253.047329 
L 869.355258 251.744253 
L 870.973334 251.204323 
L 873.277035 250.472918 
L 875.525887 249.199275 
L 880.846341 246.07887 
L 883.314592 245.057951 
L 885.673144 244.37691 
L 886.413619 244.053484 
L 888.196246 242.970376 
L 890.637072 240.796981 
L 891.542098 240.055379 
L 893.297299 238.99893 
L 895.299326 237.989974 
L 898.425778 235.712441 
L 899.193678 235.167926 
L 900.784329 234.391409 
L 901.88133 234.12035 
L 903.225156 234.150922 
L 903.773656 234.036504 
L 907.421184 232.634524 
L 909.231235 232.53598 
L 910.245961 232.747986 
L 911.150987 233.013698 
L 914.250014 234.242999 
L 915.97779 234.680518 
L 917.102216 234.581089 
L 918.062091 234.545222 
L 920.530343 234.590857 
L 921.380519 234.297617 
L 922.175844 233.821605 
L 923.13572 233.049791 
L 924.506971 231.945813 
L 929.525749 229.238988 
L 930.650175 228.232552 
L 931.692326 227.308063 
L 932.240826 227.039455 
L 933.200702 226.886731 
L 935.559253 226.700725 
L 937.06763 226.583795 
L 938.521156 226.239805 
L 939.837556 225.826851 
L 940.331207 225.833217 
L 941.537908 225.830794 
L 943.512509 225.076495 
L 944.746635 224.150029 
L 947.845662 221.620913 
L 948.558713 221.477579 
L 949.381463 221.602812 
L 952.15139 222.63268 
L 953.220966 223.134554 
L 955.798918 223.892599 
L 958.459144 224.445861 
L 959.52872 224.526235 
L 961.448471 224.550735 
L 962.326072 224.371476 
L 963.340798 223.825635 
L 964.328098 223.298928 
L 967.23515 222.515141 
L 967.838501 222.458739 
L 968.469276 222.678079 
L 969.100052 223.126611 
L 970.169628 224.296656 
L 972.007104 226.142336 
L 974.859306 228.465196 
L 976.888757 229.576961 
L 978.808509 230.034241 
L 979.658684 229.906158 
L 980.700835 229.442376 
L 981.38646 229.127458 
L 982.620586 228.612039 
L 983.333637 228.1205 
L 985.006563 226.893734 
L 985.609913 226.788538 
L 988.21529 226.620999 
L 989.120316 226.961479 
L 991.451442 228.033308 
L 992.466168 228.382557 
L 995.455495 228.952874 
L 996.08627 228.869959 
L 996.717046 228.512379 
L 999.185298 226.959933 
L 999.706373 226.842779 
L 1001.351874 226.613111 
L 1002.887675 226.433913 
L 1003.299051 226.288085 
L 1003.929826 225.829994 
L 1005.273652 224.357063 
L 1007.001428 222.394076 
L 1008.016154 221.895814 
L 1009.442255 221.538511 
L 1010.210155 221.333015 
L 1011.087756 221.056036 
L 1012.897807 220.799488 
L 1013.638283 220.772889 
L 1014.488458 220.865941 
L 1015.695159 220.922389 
L 1016.57276 220.591734 
L 1017.203535 220.152733 
L 1017.889161 219.715892 
L 1018.766761 219.397268 
L 1019.562087 219.374411 
L 1020.384837 219.410316 
L 1021.975488 219.624188 
L 1024.27919 220.140134 
L 1025.019666 220.669147 
L 1028.776893 224.146082 
L 1034.069922 229.649903 
L 1035.578298 230.929981 
L 1036.757574 231.585666 
L 1037.909425 231.938468 
L 1039.582351 232.270889 
L 1041.035877 232.255065 
L 1042.215153 232.065016 
L 1045.341605 232.198531 
L 1048.303507 233.22983 
L 1051.100859 233.80966 
L 1057.682863 234.160569 
L 1058.231364 234.203642 
L 1058.231364 234.203642 
" clip-path="url(#pf6e64fe294)" style="fill: none; stroke: #0000ff; stroke-width: 4; stroke-linecap: square"/>
   </g>
   <g id="line2d_40">
    <path d="M 838.858636 261.26 
L 840.449287 260.318209 
L 842.039939 259.622608 
L 844.01454 259.001302 
L 847.195842 258.283051 
L 859.619376 256.004039 
L 861.648827 255.608634 
L 864.501029 255.016775 
L 868.175982 253.980754 
L 873.551285 252.278702 
L 876.540613 251.715754 
L 883.945368 250.680239 
L 885.536019 250.496857 
L 887.483195 250.550819 
L 891.185573 251.059036 
L 893.023049 251.288131 
L 895.244476 251.435536 
L 898.014402 251.749242 
L 901.305405 251.917024 
L 905.364308 252.132551 
L 907.887409 252.573965 
L 909.14896 252.733066 
L 911.342962 252.655873 
L 913.427263 252.558334 
L 915.100189 252.659245 
L 917.787841 253.032121 
L 919.186517 253.232232 
L 922.614645 253.608714 
L 928.730424 254.527298 
L 934.434828 254.954322 
L 943.347959 255.086747 
L 950.094514 255.297302 
L 952.974141 255.199649 
L 969.100052 255.469565 
L 973.18638 255.133704 
L 979.686109 255.249284 
L 982.181786 255.41815 
L 986.021289 255.48193 
L 994.056819 255.145957 
L 997.512371 255.511439 
L 999.020748 255.659318 
L 1013.309182 255.953131 
L 1016.024259 255.977814 
L 1019.452387 255.915749 
L 1026.308641 255.561714 
L 1028.146118 255.414258 
L 1031.080595 255.216832 
L 1034.974947 255.155527 
L 1036.784999 255.113694 
L 1039.335526 255.146701 
L 1051.046009 255.195112 
L 1058.231364 255.045531 
L 1058.231364 255.045531 
" clip-path="url(#pf6e64fe294)" style="fill: none; stroke: #ff0000; stroke-width: 4; stroke-linecap: square"/>
   </g>
   <g id="line2d_41">
    <path d="M 838.858636 261.26 
L 840.421862 260.337438 
L 841.930238 259.703769 
L 843.877415 259.106509 
L 846.592492 258.551567 
L 856.026698 256.707441 
L 859.04345 255.897656 
L 862.142478 254.945633 
L 865.186655 253.695125 
L 868.505082 251.82475 
L 871.384709 249.716969 
L 874.209486 247.651014 
L 877.473063 245.139952 
L 879.310539 242.945719 
L 881.861066 239.55067 
L 883.808243 236.695739 
L 889.210971 227.307862 
L 890.472522 224.243022 
L 891.761498 220.410201 
L 892.529399 217.639659 
L 893.544124 213.291446 
L 896.314051 199.098353 
L 898.041827 189.231579 
L 901.250555 171.013586 
L 905.446583 151.310759 
L 906.900109 145.900708 
L 909.505485 137.449064 
L 911.260687 132.534159 
L 912.796488 128.927963 
L 913.920913 126.70579 
L 915.292164 124.562853 
L 916.334315 123.294834 
L 917.349041 122.252345 
L 918.254066 121.632275 
L 921.023993 120.190199 
L 922.450094 118.884777 
L 924.698946 116.728909 
L 926.783247 115.320593 
L 927.852823 114.870196 
L 930.156525 114.25419 
L 932.899027 113.138392 
L 935.230153 112.00421 
L 936.052904 111.764537 
L 938.767981 111.126618 
L 940.221507 110.743568 
L 941.291082 110.783685 
L 942.360658 110.974634 
L 946.830936 111.845047 
L 947.927937 111.942399 
L 949.244338 111.796204 
L 950.094514 111.783898 
L 951.60289 111.768121 
L 954.976167 111.302768 
L 958.212319 111.235003 
L 960.406321 111.128131 
L 962.929422 110.858498 
L 963.998998 110.800605 
L 966.3027 110.602718 
L 973.762305 110.75631 
L 978.753658 110.107559 
L 979.932934 110.020428 
L 981.084785 110.034741 
L 983.196512 110.187866 
L 984.650038 110.324056 
L 986.898889 110.41263 
L 987.77649 110.562935 
L 989.476841 110.917192 
L 990.765817 111.069951 
L 992.575868 111.297172 
L 993.892269 111.285471 
L 995.784595 110.813265 
L 997.155846 110.409102 
L 998.719072 110.327726 
L 1000.282298 110.092988 
L 1003.628151 109.471561 
L 1005.301077 109.326213 
L 1006.096402 109.515863 
L 1007.879029 110.018374 
L 1009.25028 110.232666 
L 1011.773381 110.088868 
L 1014.323908 109.63302 
L 1015.283784 109.843491 
L 1016.106534 109.966684 
L 1018.519936 110.098414 
L 1025.047091 110.80061 
L 1026.445767 110.890867 
L 1030.449819 110.990588 
L 1032.643821 110.597949 
L 1033.932797 110.295335 
L 1038.348225 110.136843 
L 1041.913477 109.609343 
L 1045.670705 109.238636 
L 1048.330932 108.940087 
L 1049.455358 109.069243 
L 1050.716908 109.48085 
L 1052.252709 110.187686 
L 1054.501561 111.197682 
L 1055.625987 111.255098 
L 1058.231364 111.115893 
L 1058.231364 111.115893 
" clip-path="url(#pf6e64fe294)" style="fill: none; stroke-dasharray: 4,6.6; stroke-dashoffset: 0; stroke: #0000ff; stroke-width: 4"/>
   </g>
   <g id="line2d_42">
    <path d="M 838.858636 261.26 
L 840.449287 260.319363 
L 842.231914 259.539647 
L 844.151665 258.927343 
L 846.098841 258.49177 
L 853.531022 257.200218 
L 857.452799 256.457373 
L 862.169903 255.16802 
L 864.007379 254.656989 
L 868.587357 253.518045 
L 873.35931 251.859248 
L 875.224212 251.071985 
L 876.814863 250.22678 
L 878.679764 249.235131 
L 882.491842 247.272246 
L 884.822968 245.26235 
L 887.976845 242.013241 
L 896.368901 232.168544 
L 897.219077 231.366901 
L 898.096677 230.564411 
L 901.77163 226.949332 
L 903.033181 225.397782 
L 906.543583 220.9154 
L 912.577088 211.255484 
L 914.716239 206.271739 
L 917.568441 198.147156 
L 920.804593 188.698463 
L 922.011294 185.915553 
L 922.97117 184.342052 
L 925.274871 181.170144 
L 928.209348 174.681037 
L 929.251499 172.367289 
L 932.103701 167.351208 
L 933.255552 165.930025 
L 936.491704 163.033589 
L 937.83553 161.589239 
L 938.43888 161.184405 
L 939.124506 160.769336 
L 940.139232 159.865562 
L 941.208807 158.292821 
L 943.457659 154.713748 
L 947.352012 150.351608 
L 949.134638 149.020389 
L 950.341339 148.075204 
L 952.974141 145.397805 
L 956.182868 143.080598 
L 956.868493 142.756885 
L 957.526694 142.725985 
L 958.130044 142.637704 
L 960.104646 141.922207 
L 960.680571 141.934827 
L 962.326072 141.991838 
L 963.176248 141.592323 
L 964.547499 140.969638 
L 965.233124 140.530884 
L 965.8639 140.10908 
L 966.494675 139.924569 
L 968.112751 139.400366 
L 969.264602 138.773218 
L 971.678004 137.648264 
L 974.146255 137.944662 
L 978.068033 138.736846 
L 978.643958 138.563133 
L 981.22191 137.664598 
L 982.456036 137.234343 
L 986.981164 135.603031 
L 990.518992 135.316291 
L 991.999943 135.497363 
L 993.179218 135.655312 
L 994.001969 135.765206 
L 995.455495 135.896795 
L 996.360521 135.883539 
L 997.155846 135.793973 
L 998.938472 135.362421 
L 999.678948 135.418181 
L 1000.529124 135.692478 
L 1001.900375 136.306236 
L 1004.780002 137.259497 
L 1005.438202 137.191898 
L 1006.864303 136.589245 
L 1009.74393 134.71846 
L 1010.594106 134.476604 
L 1014.159358 134.577198 
L 1015.777434 133.855085 
L 1016.62761 133.419538 
L 1019.178137 132.589093 
L 1019.973462 132.605701 
L 1021.180163 132.515239 
L 1022.414289 131.947057 
L 1024.992241 130.817514 
L 1025.732716 130.766013 
L 1027.295942 130.78241 
L 1028.941443 131.125028 
L 1031.080595 131.739186 
L 1031.60167 131.790952 
L 1033.356871 131.811194 
L 1034.097347 131.753768 
L 1035.304048 131.616083 
L 1037.909425 131.423933 
L 1038.677325 131.554231 
L 1039.390376 131.879018 
L 1040.542226 132.675815 
L 1041.227852 133.049235 
L 1042.270003 133.447608 
L 1043.367003 134.133475 
L 1047.014531 136.704046 
L 1047.809856 136.975065 
L 1049.181107 137.161105 
L 1049.729608 136.995945 
L 1052.088159 135.645643 
L 1054.391861 134.093968 
L 1055.324312 133.83277 
L 1057.710288 133.617284 
L 1058.231364 133.601244 
L 1058.231364 133.601244 
" clip-path="url(#pf6e64fe294)" style="fill: none; stroke-dasharray: 4,6.6; stroke-dashoffset: 0; stroke: #ff0000; stroke-width: 4"/>
   </g>
   <g id="patch_10">
    <path d="M 827.89 261.26 
L 1069.2 261.26 
" style="fill: none; stroke: #000000; stroke-width: 3; stroke-linejoin: miter; stroke-linecap: square"/>
   </g>
   <g id="text_17">
    <!-- LAL018 -->
    <g transform="translate(903.78875 87.12) scale(0.24 -0.24)">
     <use xlink:href="#DejaVuSans-4c"/>
     <use xlink:href="#DejaVuSans-41" x="57.962891"/>
     <use xlink:href="#DejaVuSans-4c" x="126.371094"/>
     <use xlink:href="#DejaVuSans-30" x="182.083984"/>
     <use xlink:href="#DejaVuSans-31" x="245.707031"/>
     <use xlink:href="#DejaVuSans-38" x="309.330078"/>
    </g>
   </g>
  </g>
  <g id="text_18">
   <!--  = 30 -->
   <g transform="translate(471.869531 29.995313) scale(0.3 -0.3)">
    <defs>
     <path id="DejaVuSans-394" d="M 2188 4044 
L 906 525 
L 3472 525 
L 2188 4044 
z
M 50 0 
L 1831 4666 
L 2547 4666 
L 4325 0 
L 50 0 
z
" transform="scale(0.015625)"/>
     <path id="DejaVuSans-3b8" d="M 2953 2219 
L 963 2219 
Q 1009 1284 1225 888 
Q 1494 400 1959 400 
Q 2428 400 2688 891 
Q 2916 1322 2953 2219 
z
M 2944 2750 
Q 2856 3638 2688 3950 
Q 2419 4444 1959 4444 
Q 1481 4444 1228 3956 
Q 1028 3563 969 2750 
L 2944 2750 
z
M 1959 4913 
Q 2709 4913 3138 4250 
Q 3566 3591 3566 2422 
Q 3566 1256 3138 594 
Q 2709 -72 1959 -72 
Q 1206 -72 781 594 
Q 353 1256 353 2422 
Q 353 3591 781 4250 
Q 1206 4913 1959 4913 
z
" transform="scale(0.015625)"/>
     <path id="DejaVuSans-3d" d="M 678 2906 
L 4684 2906 
L 4684 2381 
L 678 2381 
L 678 2906 
z
M 678 1631 
L 4684 1631 
L 4684 1100 
L 678 1100 
L 678 1631 
z
" transform="scale(0.015625)"/>
     <path id="DejaVuSans-33" d="M 2597 2516 
Q 3050 2419 3304 2112 
Q 3559 1806 3559 1356 
Q 3559 666 3084 287 
Q 2609 -91 1734 -91 
Q 1441 -91 1130 -33 
Q 819 25 488 141 
L 488 750 
Q 750 597 1062 519 
Q 1375 441 1716 441 
Q 2309 441 2620 675 
Q 2931 909 2931 1356 
Q 2931 1769 2642 2001 
Q 2353 2234 1838 2234 
L 1294 2234 
L 1294 2753 
L 1863 2753 
Q 2328 2753 2575 2939 
Q 2822 3125 2822 3475 
Q 2822 3834 2567 4026 
Q 2313 4219 1838 4219 
Q 1578 4219 1281 4162 
Q 984 4106 628 3988 
L 628 4550 
Q 988 4650 1302 4700 
Q 1616 4750 1894 4750 
Q 2613 4750 3031 4423 
Q 3450 4097 3450 3541 
Q 3450 3153 3228 2886 
Q 3006 2619 2597 2516 
z
" transform="scale(0.015625)"/>
     <path id="DejaVuSans-b0" d="M 1600 4347 
Q 1350 4347 1178 4173 
Q 1006 4000 1006 3750 
Q 1006 3503 1178 3333 
Q 1350 3163 1600 3163 
Q 1850 3163 2022 3333 
Q 2194 3503 2194 3750 
Q 2194 3997 2020 4172 
Q 1847 4347 1600 4347 
z
M 1600 4750 
Q 1800 4750 1984 4673 
Q 2169 4597 2303 4453 
Q 2447 4313 2519 4134 
Q 2591 3956 2591 3750 
Q 2591 3338 2302 3052 
Q 2013 2766 1594 2766 
Q 1172 2766 890 3047 
Q 609 3328 609 3750 
Q 609 4169 896 4459 
Q 1184 4750 1600 4750 
z
" transform="scale(0.015625)"/>
    </defs>
    <use xlink:href="#DejaVuSans-394"/>
    <use xlink:href="#DejaVuSans-3b8" x="68.408203"/>
    <use xlink:href="#DejaVuSans-20" x="129.589844"/>
    <use xlink:href="#DejaVuSans-3d" x="161.376953"/>
    <use xlink:href="#DejaVuSans-20" x="245.166016"/>
    <use xlink:href="#DejaVuSans-33" x="276.953125"/>
    <use xlink:href="#DejaVuSans-30" x="340.576172"/>
    <use xlink:href="#DejaVuSans-b0" x="404.199219"/>
   </g>
  </g>
  <g id="legend_1">
   <g id="line2d_43">
    <path d="M 894.5425 143.5875 
L 910.5425 143.5875 
L 926.5425 143.5875 
" style="fill: none; stroke: #0000ff; stroke-width: 4; stroke-linecap: square"/>
   </g>
   <g id="text_19">
    <!-- Full model L -->
    <g transform="translate(939.3425 149.1875) scale(0.16 -0.16)">
     <defs>
      <path id="DejaVuSans-75" d="M 544 1381 
L 544 3500 
L 1119 3500 
L 1119 1403 
Q 1119 906 1312 657 
Q 1506 409 1894 409 
Q 2359 409 2629 706 
Q 2900 1003 2900 1516 
L 2900 3500 
L 3475 3500 
L 3475 0 
L 2900 0 
L 2900 538 
Q 2691 219 2414 64 
Q 2138 -91 1772 -91 
Q 1169 -91 856 284 
Q 544 659 544 1381 
z
M 1991 3584 
L 1991 3584 
z
" transform="scale(0.015625)"/>
      <path id="DejaVuSans-6c" d="M 603 4863 
L 1178 4863 
L 1178 0 
L 603 0 
L 603 4863 
z
" transform="scale(0.015625)"/>
      <path id="DejaVuSans-6f" d="M 1959 3097 
Q 1497 3097 1228 2736 
Q 959 2375 959 1747 
Q 959 1119 1226 758 
Q 1494 397 1959 397 
Q 2419 397 2687 759 
Q 2956 1122 2956 1747 
Q 2956 2369 2687 2733 
Q 2419 3097 1959 3097 
z
M 1959 3584 
Q 2709 3584 3137 3096 
Q 3566 2609 3566 1747 
Q 3566 888 3137 398 
Q 2709 -91 1959 -91 
Q 1206 -91 779 398 
Q 353 888 353 1747 
Q 353 2609 779 3096 
Q 1206 3584 1959 3584 
z
" transform="scale(0.015625)"/>
      <path id="DejaVuSans-64" d="M 2906 2969 
L 2906 4863 
L 3481 4863 
L 3481 0 
L 2906 0 
L 2906 525 
Q 2725 213 2448 61 
Q 2172 -91 1784 -91 
Q 1150 -91 751 415 
Q 353 922 353 1747 
Q 353 2572 751 3078 
Q 1150 3584 1784 3584 
Q 2172 3584 2448 3432 
Q 2725 3281 2906 2969 
z
M 947 1747 
Q 947 1113 1208 752 
Q 1469 391 1925 391 
Q 2381 391 2643 752 
Q 2906 1113 2906 1747 
Q 2906 2381 2643 2742 
Q 2381 3103 1925 3103 
Q 1469 3103 1208 2742 
Q 947 2381 947 1747 
z
" transform="scale(0.015625)"/>
     </defs>
     <use xlink:href="#DejaVuSans-46"/>
     <use xlink:href="#DejaVuSans-75" x="52.019531"/>
     <use xlink:href="#DejaVuSans-6c" x="115.398438"/>
     <use xlink:href="#DejaVuSans-6c" x="143.181641"/>
     <use xlink:href="#DejaVuSans-20" x="170.964844"/>
     <use xlink:href="#DejaVuSans-6d" x="202.751953"/>
     <use xlink:href="#DejaVuSans-6f" x="300.164062"/>
     <use xlink:href="#DejaVuSans-64" x="361.345703"/>
     <use xlink:href="#DejaVuSans-65" x="424.822266"/>
     <use xlink:href="#DejaVuSans-6c" x="486.345703"/>
     <use xlink:href="#DejaVuSans-20" x="514.128906"/>
     <use xlink:href="#DejaVuSans-4c" x="545.916016"/>
    </g>
   </g>
   <g id="line2d_44">
    <path d="M 894.5425 167.0725 
L 910.5425 167.0725 
L 926.5425 167.0725 
" style="fill: none; stroke: #ff0000; stroke-width: 4; stroke-linecap: square"/>
   </g>
   <g id="text_20">
    <!-- Full model R -->
    <g transform="translate(939.3425 172.6725) scale(0.16 -0.16)">
     <defs>
      <path id="DejaVuSans-52" d="M 2841 2188 
Q 3044 2119 3236 1894 
Q 3428 1669 3622 1275 
L 4263 0 
L 3584 0 
L 2988 1197 
Q 2756 1666 2539 1819 
Q 2322 1972 1947 1972 
L 1259 1972 
L 1259 0 
L 628 0 
L 628 4666 
L 2053 4666 
Q 2853 4666 3247 4331 
Q 3641 3997 3641 3322 
Q 3641 2881 3436 2590 
Q 3231 2300 2841 2188 
z
M 1259 4147 
L 1259 2491 
L 2053 2491 
Q 2509 2491 2742 2702 
Q 2975 2913 2975 3322 
Q 2975 3731 2742 3939 
Q 2509 4147 2053 4147 
L 1259 4147 
z
" transform="scale(0.015625)"/>
     </defs>
     <use xlink:href="#DejaVuSans-46"/>
     <use xlink:href="#DejaVuSans-75" x="52.019531"/>
     <use xlink:href="#DejaVuSans-6c" x="115.398438"/>
     <use xlink:href="#DejaVuSans-6c" x="143.181641"/>
     <use xlink:href="#DejaVuSans-20" x="170.964844"/>
     <use xlink:href="#DejaVuSans-6d" x="202.751953"/>
     <use xlink:href="#DejaVuSans-6f" x="300.164062"/>
     <use xlink:href="#DejaVuSans-64" x="361.345703"/>
     <use xlink:href="#DejaVuSans-65" x="424.822266"/>
     <use xlink:href="#DejaVuSans-6c" x="486.345703"/>
     <use xlink:href="#DejaVuSans-20" x="514.128906"/>
     <use xlink:href="#DejaVuSans-52" x="545.916016"/>
    </g>
   </g>
   <g id="line2d_45">
    <path d="M 894.5425 190.5575 
L 910.5425 190.5575 
L 926.5425 190.5575 
" style="fill: none; stroke-dasharray: 4,6.6; stroke-dashoffset: 0; stroke: #0000ff; stroke-width: 4"/>
   </g>
   <g id="text_21">
    <!-- - 121 output L -->
    <g transform="translate(939.3425 196.1575) scale(0.16 -0.16)">
     <defs>
      <path id="DejaVuSans-2d" d="M 313 2009 
L 1997 2009 
L 1997 1497 
L 313 1497 
L 313 2009 
z
" transform="scale(0.015625)"/>
      <path id="DejaVuSans-70" d="M 1159 525 
L 1159 -1331 
L 581 -1331 
L 581 3500 
L 1159 3500 
L 1159 2969 
Q 1341 3281 1617 3432 
Q 1894 3584 2278 3584 
Q 2916 3584 3314 3078 
Q 3713 2572 3713 1747 
Q 3713 922 3314 415 
Q 2916 -91 2278 -91 
Q 1894 -91 1617 61 
Q 1341 213 1159 525 
z
M 3116 1747 
Q 3116 2381 2855 2742 
Q 2594 3103 2138 3103 
Q 1681 3103 1420 2742 
Q 1159 2381 1159 1747 
Q 1159 1113 1420 752 
Q 1681 391 2138 391 
Q 2594 391 2855 752 
Q 3116 1113 3116 1747 
z
" transform="scale(0.015625)"/>
     </defs>
     <use xlink:href="#DejaVuSans-2d"/>
     <use xlink:href="#DejaVuSans-20" x="36.083984"/>
     <use xlink:href="#DejaVuSans-31" x="67.871094"/>
     <use xlink:href="#DejaVuSans-32" x="131.494141"/>
     <use xlink:href="#DejaVuSans-31" x="195.117188"/>
     <use xlink:href="#DejaVuSans-20" x="258.740234"/>
     <use xlink:href="#DejaVuSans-6f" x="290.527344"/>
     <use xlink:href="#DejaVuSans-75" x="351.708984"/>
     <use xlink:href="#DejaVuSans-74" x="415.087891"/>
     <use xlink:href="#DejaVuSans-70" x="454.296875"/>
     <use xlink:href="#DejaVuSans-75" x="517.773438"/>
     <use xlink:href="#DejaVuSans-74" x="581.152344"/>
     <use xlink:href="#DejaVuSans-20" x="620.361328"/>
     <use xlink:href="#DejaVuSans-4c" x="652.148438"/>
    </g>
   </g>
   <g id="line2d_46">
    <path d="M 894.5425 214.0425 
L 910.5425 214.0425 
L 926.5425 214.0425 
" style="fill: none; stroke-dasharray: 4,6.6; stroke-dashoffset: 0; stroke: #ff0000; stroke-width: 4"/>
   </g>
   <g id="text_22">
    <!-- - 121 output R -->
    <g transform="translate(939.3425 219.6425) scale(0.16 -0.16)">
     <use xlink:href="#DejaVuSans-2d"/>
     <use xlink:href="#DejaVuSans-20" x="36.083984"/>
     <use xlink:href="#DejaVuSans-31" x="67.871094"/>
     <use xlink:href="#DejaVuSans-32" x="131.494141"/>
     <use xlink:href="#DejaVuSans-31" x="195.117188"/>
     <use xlink:href="#DejaVuSans-20" x="258.740234"/>
     <use xlink:href="#DejaVuSans-6f" x="290.527344"/>
     <use xlink:href="#DejaVuSans-75" x="351.708984"/>
     <use xlink:href="#DejaVuSans-74" x="415.087891"/>
     <use xlink:href="#DejaVuSans-70" x="454.296875"/>
     <use xlink:href="#DejaVuSans-75" x="517.773438"/>
     <use xlink:href="#DejaVuSans-74" x="581.152344"/>
     <use xlink:href="#DejaVuSans-20" x="620.361328"/>
     <use xlink:href="#DejaVuSans-52" x="652.148438"/>
    </g>
   </g>
  </g>
 </g>
 <defs>
  <clipPath id="p1ed1cf0e2f">
   <rect x="71.56" y="93.12" width="241.31" height="168.14"/>
  </clipPath>
  <clipPath id="p95461acec3">
   <rect x="323.67" y="93.12" width="241.31" height="168.14"/>
  </clipPath>
  <clipPath id="p6b7f0c8d0d">
   <rect x="575.78" y="93.12" width="241.31" height="168.14"/>
  </clipPath>
  <clipPath id="pf6e64fe294">
   <rect x="827.89" y="93.12" width="241.31" height="168.14"/>
  </clipPath>
 </defs>
</svg>
