<?xml version="1.0" encoding="utf-8" standalone="no"?>
<!DOCTYPE svg PUBLIC "-//W3C//DTD SVG 1.1//EN"
  "http://www.w3.org/Graphics/SVG/1.1/DTD/svg11.dtd">
<svg xmlns:xlink="http://www.w3.org/1999/xlink" width="1080pt" height="360pt" viewBox="0 0 1080 360" xmlns="http://www.w3.org/2000/svg" version="1.1">
 <metadata>
  <rdf:RDF xmlns:dc="http://purl.org/dc/elements/1.1/" xmlns:cc="http://creativecommons.org/ns#" xmlns:rdf="http://www.w3.org/1999/02/22-rdf-syntax-ns#">
   <cc:Work>
    <dc:type rdf:resource="http://purl.org/dc/dcmitype/StillImage"/>
    <dc:date>2025-04-17T22:39:35.410175</dc:date>
    <dc:format>image/svg+xml</dc:format>
    <dc:creator>
     <cc:Agent>
      <dc:title>Matplotlib v3.7.1, https://matplotlib.org/</dc:title>
     </cc:Agent>
    </dc:creator>
   </cc:Work>
  </rdf:RDF>
 </metadata>
 <defs>
  <style type="text/css">*{stroke-linejoin: round; stroke-linecap: butt}</style>
 </defs>
 <g id="figure_1">
  <g id="patch_1">
   <path d="M 0 360 
L 1080 360 
L 1080 0 
L 0 0 
z
" style="fill: #ffffff"/>
  </g>
  <g id="axes_1">
   <g id="patch_2">
    <path d="M 68.06 264.76 
L 310.245 264.76 
L 310.245 93.12 
L 68.06 93.12 
z
" style="fill: #ffffff"/>
   </g>
   <g id="matplotlib.axis_1">
    <g id="xtick_1">
     <g id="line2d_1">
      <defs>
       <path id="mf9d47f6d57" d="M 0 0 
L 0 3.5 
" style="stroke: #000000; stroke-width: 0.8"/>
      </defs>
      <g>
       <use xlink:href="#mf9d47f6d57" x="79.068409" y="264.76" style="stroke: #000000; stroke-width: 0.8"/>
      </g>
     </g>
     <g id="text_1">
      <!-- 0 -->
      <g transform="translate(73.978409 283.9175) scale(0.16 -0.16)">
       <defs>
        <path id="DejaVuSans-30" d="M 2034 4250 
Q 1547 4250 1301 3770 
Q 1056 3291 1056 2328 
Q 1056 1369 1301 889 
Q 1547 409 2034 409 
Q 2525 409 2770 889 
Q 3016 1369 3016 2328 
Q 3016 3291 2770 3770 
Q 2525 4250 2034 4250 
z
M 2034 4750 
Q 2819 4750 3233 4129 
Q 3647 3509 3647 2328 
Q 3647 1150 3233 529 
Q 2819 -91 2034 -91 
Q 1250 -91 836 529 
Q 422 1150 422 2328 
Q 422 3509 836 4129 
Q 1250 4750 2034 4750 
z
" transform="scale(0.015625)"/>
       </defs>
       <use xlink:href="#DejaVuSans-30"/>
      </g>
     </g>
    </g>
    <g id="xtick_2">
     <g id="line2d_2">
      <g>
       <use xlink:href="#mf9d47f6d57" x="134.117336" y="264.76" style="stroke: #000000; stroke-width: 0.8"/>
      </g>
     </g>
     <g id="text_2">
      <!-- 200 -->
      <g transform="translate(118.847336 283.9175) scale(0.16 -0.16)">
       <defs>
        <path id="DejaVuSans-32" d="M 1228 531 
L 3431 531 
L 3431 0 
L 469 0 
L 469 531 
Q 828 903 1448 1529 
Q 2069 2156 2228 2338 
Q 2531 2678 2651 2914 
Q 2772 3150 2772 3378 
Q 2772 3750 2511 3984 
Q 2250 4219 1831 4219 
Q 1534 4219 1204 4116 
Q 875 4013 500 3803 
L 500 4441 
Q 881 4594 1212 4672 
Q 1544 4750 1819 4750 
Q 2544 4750 2975 4387 
Q 3406 4025 3406 3419 
Q 3406 3131 3298 2873 
Q 3191 2616 2906 2266 
Q 2828 2175 2409 1742 
Q 1991 1309 1228 531 
z
" transform="scale(0.015625)"/>
       </defs>
       <use xlink:href="#DejaVuSans-32"/>
       <use xlink:href="#DejaVuSans-30" x="63.623047"/>
       <use xlink:href="#DejaVuSans-30" x="127.246094"/>
      </g>
     </g>
    </g>
    <g id="xtick_3">
     <g id="line2d_3">
      <g>
       <use xlink:href="#mf9d47f6d57" x="189.166262" y="264.76" style="stroke: #000000; stroke-width: 0.8"/>
      </g>
     </g>
     <g id="text_3">
      <!-- 400 -->
      <g transform="translate(173.896262 283.9175) scale(0.16 -0.16)">
       <defs>
        <path id="DejaVuSans-34" d="M 2419 4116 
L 825 1625 
L 2419 1625 
L 2419 4116 
z
M 2253 4666 
L 3047 4666 
L 3047 1625 
L 3713 1625 
L 3713 1100 
L 3047 1100 
L 3047 0 
L 2419 0 
L 2419 1100 
L 313 1100 
L 313 1709 
L 2253 4666 
z
" transform="scale(0.015625)"/>
       </defs>
       <use xlink:href="#DejaVuSans-34"/>
       <use xlink:href="#DejaVuSans-30" x="63.623047"/>
       <use xlink:href="#DejaVuSans-30" x="127.246094"/>
      </g>
     </g>
    </g>
    <g id="xtick_4">
     <g id="line2d_4">
      <g>
       <use xlink:href="#mf9d47f6d57" x="244.215189" y="264.76" style="stroke: #000000; stroke-width: 0.8"/>
      </g>
     </g>
     <g id="text_4">
      <!-- 600 -->
      <g transform="translate(228.945189 283.9175) scale(0.16 -0.16)">
       <defs>
        <path id="DejaVuSans-36" d="M 2113 2584 
Q 1688 2584 1439 2293 
Q 1191 2003 1191 1497 
Q 1191 994 1439 701 
Q 1688 409 2113 409 
Q 2538 409 2786 701 
Q 3034 994 3034 1497 
Q 3034 2003 2786 2293 
Q 2538 2584 2113 2584 
z
M 3366 4563 
L 3366 3988 
Q 3128 4100 2886 4159 
Q 2644 4219 2406 4219 
Q 1781 4219 1451 3797 
Q 1122 3375 1075 2522 
Q 1259 2794 1537 2939 
Q 1816 3084 2150 3084 
Q 2853 3084 3261 2657 
Q 3669 2231 3669 1497 
Q 3669 778 3244 343 
Q 2819 -91 2113 -91 
Q 1303 -91 875 529 
Q 447 1150 447 2328 
Q 447 3434 972 4092 
Q 1497 4750 2381 4750 
Q 2619 4750 2861 4703 
Q 3103 4656 3366 4563 
z
" transform="scale(0.015625)"/>
       </defs>
       <use xlink:href="#DejaVuSans-36"/>
       <use xlink:href="#DejaVuSans-30" x="63.623047"/>
       <use xlink:href="#DejaVuSans-30" x="127.246094"/>
      </g>
     </g>
    </g>
    <g id="xtick_5">
     <g id="line2d_5">
      <g>
       <use xlink:href="#mf9d47f6d57" x="299.264115" y="264.76" style="stroke: #000000; stroke-width: 0.8"/>
      </g>
     </g>
     <g id="text_5">
      <!-- 800 -->
      <g transform="translate(283.994115 283.9175) scale(0.16 -0.16)">
       <defs>
        <path id="DejaVuSans-38" d="M 2034 2216 
Q 1584 2216 1326 1975 
Q 1069 1734 1069 1313 
Q 1069 891 1326 650 
Q 1584 409 2034 409 
Q 2484 409 2743 651 
Q 3003 894 3003 1313 
Q 3003 1734 2745 1975 
Q 2488 2216 2034 2216 
z
M 1403 2484 
Q 997 2584 770 2862 
Q 544 3141 544 3541 
Q 544 4100 942 4425 
Q 1341 4750 2034 4750 
Q 2731 4750 3128 4425 
Q 3525 4100 3525 3541 
Q 3525 3141 3298 2862 
Q 3072 2584 2669 2484 
Q 3125 2378 3379 2068 
Q 3634 1759 3634 1313 
Q 3634 634 3220 271 
Q 2806 -91 2034 -91 
Q 1263 -91 848 271 
Q 434 634 434 1313 
Q 434 1759 690 2068 
Q 947 2378 1403 2484 
z
M 1172 3481 
Q 1172 3119 1398 2916 
Q 1625 2713 2034 2713 
Q 2441 2713 2670 2916 
Q 2900 3119 2900 3481 
Q 2900 3844 2670 4047 
Q 2441 4250 2034 4250 
Q 1625 4250 1398 4047 
Q 1172 3844 1172 3481 
z
" transform="scale(0.015625)"/>
       </defs>
       <use xlink:href="#DejaVuSans-38"/>
       <use xlink:href="#DejaVuSans-30" x="63.623047"/>
       <use xlink:href="#DejaVuSans-30" x="127.246094"/>
      </g>
     </g>
    </g>
    <g id="text_6">
     <!-- Time (ms) -->
     <g transform="translate(133.714219 307.961563) scale(0.22 -0.22)">
      <defs>
       <path id="DejaVuSans-54" d="M -19 4666 
L 3928 4666 
L 3928 4134 
L 2272 4134 
L 2272 0 
L 1638 0 
L 1638 4134 
L -19 4134 
L -19 4666 
z
" transform="scale(0.015625)"/>
       <path id="DejaVuSans-69" d="M 603 3500 
L 1178 3500 
L 1178 0 
L 603 0 
L 603 3500 
z
M 603 4863 
L 1178 4863 
L 1178 4134 
L 603 4134 
L 603 4863 
z
" transform="scale(0.015625)"/>
       <path id="DejaVuSans-6d" d="M 3328 2828 
Q 3544 3216 3844 3400 
Q 4144 3584 4550 3584 
Q 5097 3584 5394 3201 
Q 5691 2819 5691 2113 
L 5691 0 
L 5113 0 
L 5113 2094 
Q 5113 2597 4934 2840 
Q 4756 3084 4391 3084 
Q 3944 3084 3684 2787 
Q 3425 2491 3425 1978 
L 3425 0 
L 2847 0 
L 2847 2094 
Q 2847 2600 2669 2842 
Q 2491 3084 2119 3084 
Q 1678 3084 1418 2786 
Q 1159 2488 1159 1978 
L 1159 0 
L 581 0 
L 581 3500 
L 1159 3500 
L 1159 2956 
Q 1356 3278 1631 3431 
Q 1906 3584 2284 3584 
Q 2666 3584 2933 3390 
Q 3200 3197 3328 2828 
z
" transform="scale(0.015625)"/>
       <path id="DejaVuSans-65" d="M 3597 1894 
L 3597 1613 
L 953 1613 
Q 991 1019 1311 708 
Q 1631 397 2203 397 
Q 2534 397 2845 478 
Q 3156 559 3463 722 
L 3463 178 
Q 3153 47 2828 -22 
Q 2503 -91 2169 -91 
Q 1331 -91 842 396 
Q 353 884 353 1716 
Q 353 2575 817 3079 
Q 1281 3584 2069 3584 
Q 2775 3584 3186 3129 
Q 3597 2675 3597 1894 
z
M 3022 2063 
Q 3016 2534 2758 2815 
Q 2500 3097 2075 3097 
Q 1594 3097 1305 2825 
Q 1016 2553 972 2059 
L 3022 2063 
z
" transform="scale(0.015625)"/>
       <path id="DejaVuSans-20" transform="scale(0.015625)"/>
       <path id="DejaVuSans-28" d="M 1984 4856 
Q 1566 4138 1362 3434 
Q 1159 2731 1159 2009 
Q 1159 1288 1364 580 
Q 1569 -128 1984 -844 
L 1484 -844 
Q 1016 -109 783 600 
Q 550 1309 550 2009 
Q 550 2706 781 3412 
Q 1013 4119 1484 4856 
L 1984 4856 
z
" transform="scale(0.015625)"/>
       <path id="DejaVuSans-73" d="M 2834 3397 
L 2834 2853 
Q 2591 2978 2328 3040 
Q 2066 3103 1784 3103 
Q 1356 3103 1142 2972 
Q 928 2841 928 2578 
Q 928 2378 1081 2264 
Q 1234 2150 1697 2047 
L 1894 2003 
Q 2506 1872 2764 1633 
Q 3022 1394 3022 966 
Q 3022 478 2636 193 
Q 2250 -91 1575 -91 
Q 1294 -91 989 -36 
Q 684 19 347 128 
L 347 722 
Q 666 556 975 473 
Q 1284 391 1588 391 
Q 1994 391 2212 530 
Q 2431 669 2431 922 
Q 2431 1156 2273 1281 
Q 2116 1406 1581 1522 
L 1381 1569 
Q 847 1681 609 1914 
Q 372 2147 372 2553 
Q 372 3047 722 3315 
Q 1072 3584 1716 3584 
Q 2034 3584 2315 3537 
Q 2597 3491 2834 3397 
z
" transform="scale(0.015625)"/>
       <path id="DejaVuSans-29" d="M 513 4856 
L 1013 4856 
Q 1481 4119 1714 3412 
Q 1947 2706 1947 2009 
Q 1947 1309 1714 600 
Q 1481 -109 1013 -844 
L 513 -844 
Q 928 -128 1133 580 
Q 1338 1288 1338 2009 
Q 1338 2731 1133 3434 
Q 928 4138 513 4856 
z
" transform="scale(0.015625)"/>
      </defs>
      <use xlink:href="#DejaVuSans-54"/>
      <use xlink:href="#DejaVuSans-69" x="57.958984"/>
      <use xlink:href="#DejaVuSans-6d" x="85.742188"/>
      <use xlink:href="#DejaVuSans-65" x="183.154297"/>
      <use xlink:href="#DejaVuSans-20" x="244.677734"/>
      <use xlink:href="#DejaVuSans-28" x="276.464844"/>
      <use xlink:href="#DejaVuSans-6d" x="315.478516"/>
      <use xlink:href="#DejaVuSans-73" x="412.890625"/>
      <use xlink:href="#DejaVuSans-29" x="464.990234"/>
     </g>
    </g>
   </g>
   <g id="matplotlib.axis_2">
    <g id="ytick_1">
     <g id="line2d_6">
      <defs>
       <path id="me5ba0dc7ba" d="M 0 0 
L -3.5 0 
" style="stroke: #000000; stroke-width: 0.8"/>
      </defs>
      <g>
       <use xlink:href="#me5ba0dc7ba" x="68.06" y="264.76" style="stroke: #000000; stroke-width: 0.8"/>
      </g>
     </g>
     <g id="text_7">
      <!-- 0.0 -->
      <g transform="translate(35.615 270.83875) scale(0.16 -0.16)">
       <defs>
        <path id="DejaVuSans-2e" d="M 684 794 
L 1344 794 
L 1344 0 
L 684 0 
L 684 794 
z
" transform="scale(0.015625)"/>
       </defs>
       <use xlink:href="#DejaVuSans-30"/>
       <use xlink:href="#DejaVuSans-2e" x="63.623047"/>
       <use xlink:href="#DejaVuSans-30" x="95.410156"/>
      </g>
     </g>
    </g>
    <g id="ytick_2">
     <g id="line2d_7">
      <g>
       <use xlink:href="#me5ba0dc7ba" x="68.06" y="230.432" style="stroke: #000000; stroke-width: 0.8"/>
      </g>
     </g>
     <g id="text_8">
      <!-- 0.2 -->
      <g transform="translate(35.615 236.51075) scale(0.16 -0.16)">
       <use xlink:href="#DejaVuSans-30"/>
       <use xlink:href="#DejaVuSans-2e" x="63.623047"/>
       <use xlink:href="#DejaVuSans-32" x="95.410156"/>
      </g>
     </g>
    </g>
    <g id="ytick_3">
     <g id="line2d_8">
      <g>
       <use xlink:href="#me5ba0dc7ba" x="68.06" y="196.104" style="stroke: #000000; stroke-width: 0.8"/>
      </g>
     </g>
     <g id="text_9">
      <!-- 0.4 -->
      <g transform="translate(35.615 202.18275) scale(0.16 -0.16)">
       <use xlink:href="#DejaVuSans-30"/>
       <use xlink:href="#DejaVuSans-2e" x="63.623047"/>
       <use xlink:href="#DejaVuSans-34" x="95.410156"/>
      </g>
     </g>
    </g>
    <g id="ytick_4">
     <g id="line2d_9">
      <g>
       <use xlink:href="#me5ba0dc7ba" x="68.06" y="161.776" style="stroke: #000000; stroke-width: 0.8"/>
      </g>
     </g>
     <g id="text_10">
      <!-- 0.6 -->
      <g transform="translate(35.615 167.85475) scale(0.16 -0.16)">
       <use xlink:href="#DejaVuSans-30"/>
       <use xlink:href="#DejaVuSans-2e" x="63.623047"/>
       <use xlink:href="#DejaVuSans-36" x="95.410156"/>
      </g>
     </g>
    </g>
    <g id="ytick_5">
     <g id="line2d_10">
      <g>
       <use xlink:href="#me5ba0dc7ba" x="68.06" y="127.448" style="stroke: #000000; stroke-width: 0.8"/>
      </g>
     </g>
     <g id="text_11">
      <!-- 0.8 -->
      <g transform="translate(35.615 133.52675) scale(0.16 -0.16)">
       <use xlink:href="#DejaVuSans-30"/>
       <use xlink:href="#DejaVuSans-2e" x="63.623047"/>
       <use xlink:href="#DejaVuSans-38" x="95.410156"/>
      </g>
     </g>
    </g>
    <g id="ytick_6">
     <g id="line2d_11">
      <g>
       <use xlink:href="#me5ba0dc7ba" x="68.06" y="93.12" style="stroke: #000000; stroke-width: 0.8"/>
      </g>
     </g>
     <g id="text_12">
      <!-- 1.0 -->
      <g transform="translate(35.615 99.19875) scale(0.16 -0.16)">
       <defs>
        <path id="DejaVuSans-31" d="M 794 531 
L 1825 531 
L 1825 4091 
L 703 3866 
L 703 4441 
L 1819 4666 
L 2450 4666 
L 2450 531 
L 3481 531 
L 3481 0 
L 794 0 
L 794 531 
z
" transform="scale(0.015625)"/>
       </defs>
       <use xlink:href="#DejaVuSans-31"/>
       <use xlink:href="#DejaVuSans-2e" x="63.623047"/>
       <use xlink:href="#DejaVuSans-30" x="95.410156"/>
      </g>
     </g>
    </g>
    <g id="text_13">
     <!-- Firing rate -->
     <g transform="translate(27.039688 234.897344) rotate(-90) scale(0.22 -0.22)">
      <defs>
       <path id="DejaVuSans-46" d="M 628 4666 
L 3309 4666 
L 3309 4134 
L 1259 4134 
L 1259 2759 
L 3109 2759 
L 3109 2228 
L 1259 2228 
L 1259 0 
L 628 0 
L 628 4666 
z
" transform="scale(0.015625)"/>
       <path id="DejaVuSans-72" d="M 2631 2963 
Q 2534 3019 2420 3045 
Q 2306 3072 2169 3072 
Q 1681 3072 1420 2755 
Q 1159 2438 1159 1844 
L 1159 0 
L 581 0 
L 581 3500 
L 1159 3500 
L 1159 2956 
Q 1341 3275 1631 3429 
Q 1922 3584 2338 3584 
Q 2397 3584 2469 3576 
Q 2541 3569 2628 3553 
L 2631 2963 
z
" transform="scale(0.015625)"/>
       <path id="DejaVuSans-6e" d="M 3513 2113 
L 3513 0 
L 2938 0 
L 2938 2094 
Q 2938 2591 2744 2837 
Q 2550 3084 2163 3084 
Q 1697 3084 1428 2787 
Q 1159 2491 1159 1978 
L 1159 0 
L 581 0 
L 581 3500 
L 1159 3500 
L 1159 2956 
Q 1366 3272 1645 3428 
Q 1925 3584 2291 3584 
Q 2894 3584 3203 3211 
Q 3513 2838 3513 2113 
z
" transform="scale(0.015625)"/>
       <path id="DejaVuSans-67" d="M 2906 1791 
Q 2906 2416 2648 2759 
Q 2391 3103 1925 3103 
Q 1463 3103 1205 2759 
Q 947 2416 947 1791 
Q 947 1169 1205 825 
Q 1463 481 1925 481 
Q 2391 481 2648 825 
Q 2906 1169 2906 1791 
z
M 3481 434 
Q 3481 -459 3084 -895 
Q 2688 -1331 1869 -1331 
Q 1566 -1331 1297 -1286 
Q 1028 -1241 775 -1147 
L 775 -588 
Q 1028 -725 1275 -790 
Q 1522 -856 1778 -856 
Q 2344 -856 2625 -561 
Q 2906 -266 2906 331 
L 2906 616 
Q 2728 306 2450 153 
Q 2172 0 1784 0 
Q 1141 0 747 490 
Q 353 981 353 1791 
Q 353 2603 747 3093 
Q 1141 3584 1784 3584 
Q 2172 3584 2450 3431 
Q 2728 3278 2906 2969 
L 2906 3500 
L 3481 3500 
L 3481 434 
z
" transform="scale(0.015625)"/>
       <path id="DejaVuSans-61" d="M 2194 1759 
Q 1497 1759 1228 1600 
Q 959 1441 959 1056 
Q 959 750 1161 570 
Q 1363 391 1709 391 
Q 2188 391 2477 730 
Q 2766 1069 2766 1631 
L 2766 1759 
L 2194 1759 
z
M 3341 1997 
L 3341 0 
L 2766 0 
L 2766 531 
Q 2569 213 2275 61 
Q 1981 -91 1556 -91 
Q 1019 -91 701 211 
Q 384 513 384 1019 
Q 384 1609 779 1909 
Q 1175 2209 1959 2209 
L 2766 2209 
L 2766 2266 
Q 2766 2663 2505 2880 
Q 2244 3097 1772 3097 
Q 1472 3097 1187 3025 
Q 903 2953 641 2809 
L 641 3341 
Q 956 3463 1253 3523 
Q 1550 3584 1831 3584 
Q 2591 3584 2966 3190 
Q 3341 2797 3341 1997 
z
" transform="scale(0.015625)"/>
       <path id="DejaVuSans-74" d="M 1172 4494 
L 1172 3500 
L 2356 3500 
L 2356 3053 
L 1172 3053 
L 1172 1153 
Q 1172 725 1289 603 
Q 1406 481 1766 481 
L 2356 481 
L 2356 0 
L 1766 0 
Q 1100 0 847 248 
Q 594 497 594 1153 
L 594 3053 
L 172 3053 
L 172 3500 
L 594 3500 
L 594 4494 
L 1172 4494 
z
" transform="scale(0.015625)"/>
      </defs>
      <use xlink:href="#DejaVuSans-46"/>
      <use xlink:href="#DejaVuSans-69" x="50.269531"/>
      <use xlink:href="#DejaVuSans-72" x="78.052734"/>
      <use xlink:href="#DejaVuSans-69" x="119.166016"/>
      <use xlink:href="#DejaVuSans-6e" x="146.949219"/>
      <use xlink:href="#DejaVuSans-67" x="210.328125"/>
      <use xlink:href="#DejaVuSans-20" x="273.804688"/>
      <use xlink:href="#DejaVuSans-72" x="305.591797"/>
      <use xlink:href="#DejaVuSans-61" x="346.705078"/>
      <use xlink:href="#DejaVuSans-74" x="407.984375"/>
      <use xlink:href="#DejaVuSans-65" x="447.193359"/>
     </g>
    </g>
   </g>
   <g id="line2d_12">
    <path d="M 79.068409 264.76 
L 80.967597 264.087511 
L 82.921834 263.628282 
L 86.444965 263.062697 
L 95.390416 261.809186 
L 101.115504 260.665872 
L 102.87707 260.051717 
L 107.831473 257.997487 
L 111.051835 256.372916 
L 112.042716 255.677639 
L 113.473988 254.401552 
L 115.70347 252.019398 
L 117.960476 249.244684 
L 121.290936 244.862752 
L 122.667159 242.876921 
L 123.740613 240.816234 
L 127.098598 233.265153 
L 128.639967 229.100441 
L 130.31896 223.500394 
L 131.585085 218.63592 
L 133.319126 211.123207 
L 139.677277 183.607513 
L 141.0535 176.375216 
L 145.980379 148.075066 
L 147.879567 136.673456 
L 149.200742 130.095595 
L 150.439342 125.053359 
L 151.622894 121.126664 
L 152.861495 117.771655 
L 154.182669 114.824836 
L 155.779088 111.90872 
L 157.045214 110.008668 
L 158.75173 107.942334 
L 161.118834 105.484293 
L 163.045547 103.777558 
L 164.586917 102.622499 
L 166.100762 101.775605 
L 170.449627 99.871583 
L 172.541486 98.982159 
L 174.715919 98.136656 
L 176.725205 97.602779 
L 179.03726 97.212905 
L 181.211692 97.062636 
L 184.817397 97.099035 
L 186.936781 96.975757 
L 189.469031 96.621854 
L 194.313337 95.97233 
L 201.359599 95.466839 
L 212.314336 94.722912 
L 225.305883 94.646204 
L 236.618437 95.04294 
L 241.655414 94.914857 
L 244.985874 94.848252 
L 251.922039 94.942105 
L 256.628722 95.055062 
L 260.399573 94.77802 
L 264.087851 94.546107 
L 267.941276 94.552651 
L 272.124995 94.562617 
L 280.107089 94.432724 
L 289.988371 94.637625 
L 292.383 94.94263 
L 295.300593 95.254984 
L 297.75027 95.278923 
L 299.236591 95.204952 
L 299.236591 95.204952 
" clip-path="url(#p22fcf1ac79)" style="fill: none; stroke: #0000ff; stroke-width: 4; stroke-linecap: square"/>
   </g>
   <g id="line2d_13">
    <path d="M 79.068409 264.76 
L 80.967597 264.084851 
L 83.086981 263.575242 
L 86.47249 263.003049 
L 91.674613 262.392503 
L 96.491394 261.7939 
L 104.66616 260.357133 
L 108.602158 259.658547 
L 120.988167 257.654551 
L 124.64892 256.711788 
L 125.859997 256.611411 
L 131.30984 256.319206 
L 133.098931 256.345413 
L 136.319293 256.278082 
L 139.01669 256.062913 
L 140.447962 256.076543 
L 145.18217 256.166218 
L 146.888687 256.214305 
L 150.576965 256.304203 
L 152.255957 256.37823 
L 160.898638 256.463897 
L 162.990498 256.327907 
L 173.477318 256.483525 
L 176.505009 256.710447 
L 178.294099 256.795306 
L 179.973091 256.764499 
L 181.817231 256.736399 
L 183.881565 256.649774 
L 186.000949 256.542619 
L 187.762515 256.651213 
L 193.65275 257.336994 
L 195.386791 257.286706 
L 197.808944 257.018591 
L 199.240216 256.994413 
L 201.277026 257.14394 
L 208.653582 257.732711 
L 210.690393 257.805104 
L 212.479483 257.784352 
L 214.708964 257.686333 
L 226.70963 257.289492 
L 228.636343 257.313593 
L 231.306216 257.042975 
L 233.37055 256.91727 
L 240.471862 256.869277 
L 249.885228 257.523556 
L 253.518457 257.341863 
L 256.325953 257.052542 
L 258.748105 257.193493 
L 264.39062 257.664685 
L 272.537862 257.486475 
L 274.271903 257.612174 
L 278.042754 257.993116 
L 280.464907 257.962365 
L 287.235925 257.269982 
L 289.190162 257.184883 
L 291.309545 256.950065 
L 294.557432 256.672073 
L 298.796199 256.943346 
L 299.236591 257.030492 
L 299.236591 257.030492 
" clip-path="url(#p22fcf1ac79)" style="fill: none; stroke: #ff0000; stroke-width: 4; stroke-linecap: square"/>
   </g>
   <g id="line2d_14">
    <path d="M 79.068409 264.76 
L 80.912548 264.108781 
L 83.307176 263.520162 
L 86.334867 263.025488 
L 98.142862 261.291758 
L 101.58342 260.487573 
L 103.785377 259.818612 
L 105.684565 259.035057 
L 107.280984 258.203045 
L 109.923332 256.418833 
L 113.584086 253.548783 
L 117.520084 249.991799 
L 118.731161 248.488227 
L 119.887188 246.717643 
L 120.878069 244.782311 
L 122.336865 241.511027 
L 123.602991 238.09832 
L 124.621396 234.92182 
L 125.69485 230.828302 
L 127.126122 224.325484 
L 128.52987 216.939758 
L 130.098764 207.035878 
L 131.337365 197.838547 
L 132.933784 184.178225 
L 134.365056 170.125643 
L 137.2276 141.207746 
L 138.603823 129.778892 
L 139.732326 122.069761 
L 140.860829 115.812418 
L 142.016857 110.602861 
L 143.062786 106.838094 
L 144.108716 103.858647 
L 145.209694 101.397662 
L 146.2281 99.64457 
L 147.274029 98.262894 
L 148.430057 97.089478 
L 149.613608 96.204054 
L 150.962307 95.479943 
L 152.613775 94.851265 
L 154.375341 94.420726 
L 156.742444 94.078251 
L 160.238051 93.812651 
L 165.109881 93.690441 
L 175.624226 93.628176 
L 215.644796 93.472979 
L 299.236591 93.435005 
L 299.236591 93.435005 
" clip-path="url(#p22fcf1ac79)" style="fill: none; stroke-dasharray: 4,6.6; stroke-dashoffset: 0; stroke: #0000ff; stroke-width: 4"/>
   </g>
   <g id="line2d_15">
    <path d="M 79.068409 264.76 
L 81.105219 264.028502 
L 83.499848 263.465605 
L 86.857832 262.921124 
L 100.124624 261.224017 
L 104.66616 260.324252 
L 107.556229 259.796709 
L 109.565514 259.215042 
L 112.152814 258.507504 
L 115.978714 257.351955 
L 117.602658 256.71441 
L 120.767971 255.284935 
L 126.933451 251.940353 
L 128.750065 250.811129 
L 131.30984 249.275481 
L 132.768637 248.160508 
L 134.282482 246.9946 
L 138.135907 244.383177 
L 141.466367 242.809941 
L 142.622395 242.398226 
L 144.851876 241.326108 
L 148.842924 238.994092 
L 149.943902 238.251092 
L 150.879734 237.753033 
L 152.751397 236.332389 
L 154.072572 235.119971 
L 155.228599 233.698375 
L 156.4672 232.157594 
L 160.871114 227.272355 
L 162.577631 224.131462 
L 166.348482 216.614033 
L 168.577964 213.224301 
L 170.256956 210.850595 
L 172.734158 207.928278 
L 174.082856 206.697877 
L 174.495723 206.529413 
L 175.926995 206.176098 
L 176.945401 205.987051 
L 178.156477 205.427552 
L 179.340029 204.210388 
L 181.32179 201.813103 
L 182.257622 200.298369 
L 183.688894 197.557387 
L 184.734824 195.692478 
L 187.267074 191.675567 
L 188.588249 188.831924 
L 189.689227 186.519433 
L 190.349814 185.576637 
L 190.982877 185.136067 
L 193.625225 183.762647 
L 194.64363 182.803238 
L 198.882398 177.902176 
L 200.891684 174.57054 
L 202.433054 171.544121 
L 204.662535 168.176054 
L 205.763514 166.732705 
L 206.47915 165.559883 
L 207.194786 163.983483 
L 208.350813 161.052899 
L 210.525246 155.940907 
L 211.5987 154.03053 
L 214.819062 148.694323 
L 215.699845 147.632361 
L 216.71825 146.733905 
L 217.599033 146.264293 
L 218.066949 146.21665 
L 221.149689 146.527603 
L 221.617604 146.385068 
L 222.08552 145.990069 
L 222.856205 144.948963 
L 223.847086 143.246511 
L 225.581127 139.602096 
L 226.874777 136.963651 
L 227.700511 135.691784 
L 228.278525 135.129428 
L 229.021685 134.655939 
L 229.737321 134.538283 
L 230.700677 134.764656 
L 231.306216 135.086635 
L 232.902634 136.302054 
L 234.41648 138.191746 
L 235.132116 139.464877 
L 236.012899 141.03793 
L 237.361597 143.008765 
L 238.655247 144.48674 
L 240.444337 146.496417 
L 241.159973 147.607697 
L 242.068281 149.121269 
L 244.325287 152.23096 
L 246.99516 155.59524 
L 248.096138 157.20073 
L 249.885228 159.164072 
L 251.123829 160.190061 
L 252.61015 161.47394 
L 256.243379 164.546137 
L 257.97742 165.577797 
L 258.582959 165.415664 
L 259.216021 164.947473 
L 261.252832 162.720505 
L 263.15202 160.17791 
L 263.89518 158.72422 
L 266.895347 151.852584 
L 268.987206 146.360829 
L 270.611149 140.969914 
L 272.372715 135.205431 
L 274.712294 128.471016 
L 275.895846 125.802437 
L 276.831678 124.181427 
L 277.712461 123.14646 
L 279.639173 121.226327 
L 280.987872 119.818231 
L 282.914584 117.913577 
L 286.052373 114.827673 
L 287.346023 113.956175 
L 289.740651 112.665987 
L 290.814105 112.395774 
L 291.667364 112.343833 
L 293.236258 112.52599 
L 293.979418 112.84274 
L 295.355642 113.683866 
L 297.722745 115.794009 
L 299.236591 117.390309 
L 299.236591 117.390309 
" clip-path="url(#p22fcf1ac79)" style="fill: none; stroke-dasharray: 4,6.6; stroke-dashoffset: 0; stroke: #ff0000; stroke-width: 4"/>
   </g>
   <g id="patch_3">
    <path d="M 68.06 264.76 
L 68.06 93.12 
" style="fill: none; stroke: #000000; stroke-width: 3; stroke-linejoin: miter; stroke-linecap: square"/>
   </g>
   <g id="patch_4">
    <path d="M 68.06 264.76 
L 310.245 264.76 
" style="fill: none; stroke: #000000; stroke-width: 3; stroke-linejoin: miter; stroke-linecap: square"/>
   </g>
   <g id="text_14">
    <!-- DNa02 -->
    <g transform="translate(148.31125 87.12) scale(0.24 -0.24)">
     <defs>
      <path id="DejaVuSans-44" d="M 1259 4147 
L 1259 519 
L 2022 519 
Q 2988 519 3436 956 
Q 3884 1394 3884 2338 
Q 3884 3275 3436 3711 
Q 2988 4147 2022 4147 
L 1259 4147 
z
M 628 4666 
L 1925 4666 
Q 3281 4666 3915 4102 
Q 4550 3538 4550 2338 
Q 4550 1131 3912 565 
Q 3275 0 1925 0 
L 628 0 
L 628 4666 
z
" transform="scale(0.015625)"/>
      <path id="DejaVuSans-4e" d="M 628 4666 
L 1478 4666 
L 3547 763 
L 3547 4666 
L 4159 4666 
L 4159 0 
L 3309 0 
L 1241 3903 
L 1241 0 
L 628 0 
L 628 4666 
z
" transform="scale(0.015625)"/>
     </defs>
     <use xlink:href="#DejaVuSans-44"/>
     <use xlink:href="#DejaVuSans-4e" x="77.001953"/>
     <use xlink:href="#DejaVuSans-61" x="151.806641"/>
     <use xlink:href="#DejaVuSans-30" x="213.085938"/>
     <use xlink:href="#DejaVuSans-32" x="276.708984"/>
    </g>
   </g>
  </g>
  <g id="axes_2">
   <g id="patch_5">
    <path d="M 321.045 264.76 
L 563.23 264.76 
L 563.23 93.12 
L 321.045 93.12 
z
" style="fill: #ffffff"/>
   </g>
   <g id="matplotlib.axis_3">
    <g id="xtick_6">
     <g id="line2d_16">
      <g>
       <use xlink:href="#mf9d47f6d57" x="332.053409" y="264.76" style="stroke: #000000; stroke-width: 0.8"/>
      </g>
     </g>
    </g>
    <g id="xtick_7">
     <g id="line2d_17">
      <g>
       <use xlink:href="#mf9d47f6d57" x="387.102336" y="264.76" style="stroke: #000000; stroke-width: 0.8"/>
      </g>
     </g>
    </g>
    <g id="xtick_8">
     <g id="line2d_18">
      <g>
       <use xlink:href="#mf9d47f6d57" x="442.151262" y="264.76" style="stroke: #000000; stroke-width: 0.8"/>
      </g>
     </g>
    </g>
    <g id="xtick_9">
     <g id="line2d_19">
      <g>
       <use xlink:href="#mf9d47f6d57" x="497.200189" y="264.76" style="stroke: #000000; stroke-width: 0.8"/>
      </g>
     </g>
    </g>
    <g id="xtick_10">
     <g id="line2d_20">
      <g>
       <use xlink:href="#mf9d47f6d57" x="552.249115" y="264.76" style="stroke: #000000; stroke-width: 0.8"/>
      </g>
     </g>
    </g>
   </g>
   <g id="matplotlib.axis_4"/>
   <g id="line2d_21">
    <path d="M 332.053409 264.76 
L 334.888429 262.948603 
L 338.301462 261.280182 
L 342.127363 259.298153 
L 346.173459 256.845717 
L 347.439584 255.80014 
L 349.889261 253.708962 
L 351.513205 252.380985 
L 352.999526 250.711234 
L 354.375749 248.682122 
L 355.972168 245.825318 
L 358.284223 242.071239 
L 359.770544 239.983707 
L 360.706375 238.602491 
L 361.669732 237.234302 
L 363.486346 234.747985 
L 364.80752 232.512921 
L 365.495632 230.925517 
L 366.761757 228.224062 
L 368.715994 224.715348 
L 370.284889 222.622012 
L 371.963881 220.784668 
L 375.59711 217.641162 
L 378.129361 213.707897 
L 378.67985 213.334194 
L 379.670731 212.905979 
L 380.771709 211.872002 
L 381.76259 210.728083 
L 383.138813 209.059317 
L 384.322365 207.832253 
L 384.872854 207.283265 
L 385.891259 206.417863 
L 386.331651 206.286459 
L 386.661944 206.124025 
L 387.212434 205.929771 
L 388.038167 205.761072 
L 388.863901 205.580248 
L 389.359342 205.746769 
L 389.772209 205.679552 
L 390.130027 205.467452 
L 391.919117 204.107625 
L 392.524655 203.427794 
L 392.7999 203.201025 
L 394.313745 201.769042 
L 395.08443 201.541896 
L 395.552346 201.354186 
L 397.093716 200.251059 
L 400.066358 196.507189 
L 401.470105 196.461257 
L 401.800399 196.471066 
L 402.295839 196.460831 
L 403.039 196.592495 
L 404.057405 196.542676 
L 404.525321 196.629725 
L 406.396984 196.231353 
L 406.782327 196.118381 
L 407.41539 196.125597 
L 408.488844 195.550929 
L 408.846662 195.408606 
L 409.259529 195.315906 
L 410.580703 195.330868 
L 411.103668 195.273078 
L 411.571584 195.243677 
L 412.149597 194.984248 
L 413.360674 194.367427 
L 413.856114 194.071606 
L 414.406603 193.892591 
L 415.810351 193.546321 
L 416.60856 193.139951 
L 417.40677 193.221023 
L 418.645371 193.484532 
L 419.003189 193.627854 
L 419.801398 193.652944 
L 420.709705 192.982619 
L 421.425341 192.423454 
L 421.893257 192.006865 
L 422.251075 191.803938 
L 422.691467 191.781308 
L 423.297005 191.921963 
L 423.627298 191.808446 
L 426.379745 189.517805 
L 426.847661 189.680525 
L 427.728443 190.031185 
L 428.333982 190.258387 
L 429.049618 190.344994 
L 429.985449 190.386497 
L 430.508414 190.501735 
L 431.719491 190.424916 
L 432.104833 190.530343 
L 432.600273 190.756033 
L 433.288385 190.986522 
L 433.618679 191.019342 
L 435.132524 191.496003 
L 435.435293 191.585263 
L 436.288552 191.787594 
L 436.811516 191.76728 
L 437.499628 191.44233 
L 440.527319 189.240706 
L 441.022759 188.916465 
L 441.848493 188.111374 
L 442.426507 188.051609 
L 443.80273 187.76 
L 444.215597 187.584954 
L 444.600939 187.537353 
L 445.261527 187.731472 
L 446.169834 187.824062 
L 447.793777 188.167135 
L 448.234169 188.3666 
L 450.105832 187.945926 
L 450.381077 187.808186 
L 452.032545 187.027703 
L 452.445412 186.943507 
L 453.243621 186.714381 
L 453.656488 186.598924 
L 454.124404 186.418329 
L 454.895089 186.145473 
L 455.252907 186.026372 
L 455.555676 185.9439 
L 457.069521 185.059493 
L 457.564962 184.964825 
L 458.032878 184.955403 
L 459.794443 184.65934 
L 460.097212 184.678647 
L 460.537604 184.735955 
L 460.950471 184.586976 
L 461.968876 184.038823 
L 462.464316 183.966244 
L 463.317574 183.994559 
L 463.620344 184.149894 
L 464.060735 184.36465 
L 464.996567 184.30021 
L 465.381909 184.556069 
L 465.849825 184.782925 
L 466.262692 184.84356 
L 466.62051 184.709574 
L 467.528817 184.102521 
L 469.565628 183.380883 
L 470.088592 183.398605 
L 470.418886 183.319652 
L 471.437291 182.994051 
L 472.648368 182.951519 
L 473.749346 183.781172 
L 476.226548 185.60728 
L 478.180785 186.583841 
L 478.786323 186.661498 
L 479.144141 186.521666 
L 479.501959 186.367431 
L 480.355217 186.464607 
L 481.456196 186.974502 
L 481.758965 187.120583 
L 482.226881 187.208547 
L 482.474601 187.23951 
L 482.887468 187.18341 
L 483.190237 187.264101 
L 483.988446 187.772601 
L 484.81418 188.338556 
L 485.777537 188.242587 
L 486.328026 187.825081 
L 488.172165 185.860326 
L 490.759464 186.260522 
L 492.02559 186.020488 
L 492.576079 185.976711 
L 492.961421 185.681601 
L 493.759631 185.267094 
L 494.55784 185.036638 
L 495.080805 184.775991 
L 495.35605 184.851998 
L 495.823966 185.07231 
L 496.457028 185.359102 
L 497.915825 186.449468 
L 498.301167 186.38767 
L 498.824132 186.263615 
L 499.897586 186.035664 
L 501.136187 185.948936 
L 501.604103 186.117227 
L 502.347263 186.481643 
L 503.503291 186.922921 
L 503.80606 186.934653 
L 504.356549 187.235447 
L 505.209808 187.717809 
L 506.200688 188.494933 
L 506.613555 188.450701 
L 506.943849 188.197583 
L 507.439289 187.625504 
L 508.099876 187.087032 
L 508.650366 186.537461 
L 509.72382 185.458484 
L 510.742225 184.520898 
L 511.375287 183.812049 
L 512.25607 183.210305 
L 512.613888 183.06153 
L 513.191902 182.428114 
L 513.632293 182.091515 
L 514.925943 181.685783 
L 515.173663 181.854884 
L 515.889299 182.638965 
L 516.577411 183.281556 
L 517.953634 183.873097 
L 518.394026 184.047001 
L 518.724319 184.36776 
L 519.412431 184.971456 
L 520.513409 185.495076 
L 521.036374 185.721023 
L 521.75201 186.043029 
L 522.219926 186.024139 
L 522.660317 185.768268 
L 523.5411 184.733354 
L 524.174163 183.842574 
L 525.247617 183.009366 
L 526.37612 182.592996 
L 526.954134 182.938321 
L 527.642245 183.414358 
L 529.238664 184.195766 
L 529.734104 184.100247 
L 530.504789 183.582059 
L 531.055279 183.28019 
L 531.825964 182.920847 
L 532.624173 183.124393 
L 534.000396 184.030557 
L 534.57841 184.062029 
L 535.349095 184.050452 
L 536.257402 184.02779 
L 537.110661 184.226244 
L 537.578576 184.272042 
L 538.046492 184.292299 
L 538.679555 184.63031 
L 539.174995 184.911651 
L 540.083303 185.273094 
L 540.606267 185.40693 
L 541.542099 186.071767 
L 541.954966 186.431182 
L 542.725651 187.063306 
L 543.055945 187.497376 
L 544.734937 190.180303 
L 545.147804 190.394577 
L 545.725818 190.35759 
L 546.276307 189.911687 
L 546.689174 189.74873 
L 547.294712 189.559528 
L 547.65253 189.350727 
L 551.450906 185.9059 
L 552.221591 185.641975 
L 552.221591 185.641975 
" clip-path="url(#p3c9b3c0717)" style="fill: none; stroke: #0000ff; stroke-width: 4; stroke-linecap: square"/>
   </g>
   <g id="line2d_22">
    <path d="M 332.053409 264.76 
L 335.053576 262.834994 
L 338.081267 261.16967 
L 340.035503 260.165584 
L 342.650327 258.966938 
L 346.11841 257.259955 
L 349.366296 255.036947 
L 354.348224 250.67111 
L 358.889761 246.747811 
L 362.550514 244.087113 
L 364.449702 243.120171 
L 364.835045 242.918227 
L 366.734233 241.451868 
L 367.532442 240.962992 
L 368.44075 240.562683 
L 369.211435 240.300816 
L 370.47756 239.558536 
L 371.413392 239.355947 
L 372.239125 239.015451 
L 372.844664 238.545323 
L 374.964047 236.486918 
L 375.624634 236.072447 
L 376.670564 235.134639 
L 377.13848 234.936588 
L 377.854116 234.863599 
L 378.459654 235.070161 
L 379.010143 235.273194 
L 381.459821 235.278271 
L 382.175457 235.082628 
L 383.359009 235.081708 
L 383.909498 235.036034 
L 387.37758 235.279457 
L 389.249244 234.972563 
L 390.102502 234.599917 
L 391.093383 234.392577 
L 392.387033 234.388065 
L 394.506416 234.999709 
L 395.277101 235.154774 
L 395.937688 235.289253 
L 396.735898 235.270523 
L 397.313912 235.128654 
L 398.359841 234.743864 
L 398.882806 234.871351 
L 399.488344 235.08334 
L 401.99307 235.44788 
L 404.167503 235.385059 
L 405.516202 235.64331 
L 407.057572 235.62965 
L 409.479724 236.113952 
L 411.296339 235.839785 
L 412.28722 235.852732 
L 413.223051 235.710396 
L 414.351554 235.180589 
L 415.590155 235.079814 
L 417.434294 235.694715 
L 419.636251 236.058042 
L 420.379412 235.841665 
L 422.140977 235.365417 
L 423.462152 235.471965 
L 424.673228 235.827133 
L 425.251242 235.886354 
L 425.746682 236.03813 
L 426.517367 236.504992 
L 428.856946 237.084907 
L 430.453365 236.89866 
L 430.893757 236.98924 
L 431.444246 237.102262 
L 431.994735 236.951945 
L 432.545225 236.790109 
L 433.095714 236.622505 
L 433.81135 236.561362 
L 434.334315 236.603162 
L 435.049951 236.602346 
L 436.426174 236.392896 
L 436.921614 236.192506 
L 437.527152 235.9454 
L 438.215264 235.932453 
L 439.068522 236.081423 
L 441.160382 237.110826 
L 442.151262 237.732304 
L 444.270646 238.572694 
L 446.114785 238.640554 
L 447.518533 238.342913 
L 450.105832 236.990292 
L 450.546224 236.825767 
L 451.096713 236.756521 
L 451.50958 236.869059 
L 452.968376 237.596788 
L 453.821635 238.035939 
L 454.702417 238.409305 
L 455.83092 238.990998 
L 457.427339 239.58583 
L 458.996234 239.674892 
L 459.987114 239.657055 
L 460.537604 239.655145 
L 461.556009 239.387172 
L 462.189072 239.367859 
L 464.060735 239.7757 
L 465.519532 239.378925 
L 466.262692 239.00173 
L 466.62051 239.000358 
L 467.583866 239.07914 
L 468.905041 238.893266 
L 470.006019 238.803024 
L 470.584033 238.660888 
L 471.629962 238.493652 
L 474.162213 238.530247 
L 475.841205 238.28575 
L 479.584532 238.366764 
L 480.547889 238.628305 
L 481.015804 238.552447 
L 482.089258 238.083324 
L 484.291216 237.029607 
L 484.924278 236.957184 
L 485.997732 237.032525 
L 486.740893 237.136462 
L 487.126235 237.189022 
L 487.951969 237.281926 
L 488.887801 237.378235 
L 489.741059 237.458888 
L 490.291549 237.204673 
L 490.897087 236.993453 
L 491.557674 237.069965 
L 492.163212 237.224982 
L 493.236666 237.481008 
L 494.365169 237.810947 
L 495.796441 238.177237 
L 496.842371 238.484835 
L 498.631461 238.760881 
L 500.200355 239.118749 
L 502.787655 239.092459 
L 503.31062 238.987549 
L 504.411598 238.856912 
L 505.127234 238.511592 
L 507.852156 236.88787 
L 508.18245 236.926143 
L 509.833917 237.604646 
L 510.7147 238.043674 
L 511.595483 238.442852 
L 512.283595 238.899459 
L 512.999231 239.256875 
L 513.467147 239.338414 
L 514.072685 239.479284 
L 515.614055 240.123505 
L 516.109495 239.973346 
L 517.430669 239.380426 
L 518.806892 238.942913 
L 520.678556 238.86572 
L 521.862108 238.461288 
L 522.385073 238.239226 
L 523.018135 238.18399 
L 523.651198 238.456087 
L 524.779701 239.027512 
L 525.412764 239.04538 
L 525.963253 239.086026 
L 526.816511 239.417542 
L 527.724819 239.992698 
L 529.293713 240.599034 
L 530.119447 240.786191 
L 531.330523 240.589089 
L 533.009516 240.241092 
L 534.495837 239.270799 
L 535.844535 238.788127 
L 538.349261 237.781652 
L 539.642911 237.851115 
L 540.413596 238.069869 
L 542.698127 237.776679 
L 545.808391 236.239176 
L 546.248782 236.238795 
L 546.991943 236.453678 
L 549.992109 237.399008 
L 551.450906 237.790168 
L 551.891297 238.135832 
L 552.221591 238.451805 
L 552.221591 238.451805 
" clip-path="url(#p3c9b3c0717)" style="fill: none; stroke: #ff0000; stroke-width: 4; stroke-linecap: square"/>
   </g>
   <g id="line2d_23">
    <path d="M 332.053409 264.76 
L 335.246247 262.706517 
L 337.365631 261.466723 
L 339.044623 260.657748 
L 340.943811 259.817275 
L 343.586159 258.426951 
L 344.632089 257.767212 
L 348.705709 254.759057 
L 350.522324 252.901187 
L 352.338939 251.018692 
L 355.256532 247.432361 
L 356.550181 245.517352 
L 357.430964 243.985369 
L 359.550348 240.051639 
L 360.293508 238.420928 
L 361.834878 234.963505 
L 365.247912 229.259967 
L 367.39482 226.652139 
L 368.413225 225.675013 
L 369.101337 224.775221 
L 371.358343 221.319083 
L 372.01893 220.171673 
L 372.459321 219.369064 
L 374.743852 214.785367 
L 376.615515 211.963514 
L 377.193529 211.238097 
L 378.322032 209.242305 
L 380.111122 206.267956 
L 384.04712 201.023744 
L 385.148099 199.259031 
L 385.533441 198.678877 
L 386.909664 196.084851 
L 388.588657 192.610465 
L 389.441915 191.285387 
L 389.937355 190.890787 
L 390.818138 190.040239 
L 392.552179 188.237394 
L 392.992571 187.892257 
L 393.873354 186.860739 
L 394.396318 186.025617 
L 395.469772 183.996957 
L 396.157884 183.100202 
L 397.809352 180.60199 
L 398.745184 179.244003 
L 399.598442 178.473214 
L 400.066358 178.09982 
L 400.561798 177.313807 
L 401.415057 176.064671 
L 402.350888 175.079102 
L 403.506916 174.254295 
L 404.112454 173.432364 
L 405.048286 171.77531 
L 405.626299 170.81913 
L 406.231838 170.225755 
L 406.672229 170.026108 
L 407.250243 169.966875 
L 408.378746 169.482223 
L 409.094382 168.926967 
L 409.507249 168.839714 
L 410.553178 168.05983 
L 410.855947 167.820401 
L 412.507415 166.884754 
L 414.434128 166.75948 
L 416.140644 167.554867 
L 416.966378 167.571478 
L 417.929735 166.953424 
L 418.810517 166.738012 
L 419.883971 167.155367 
L 420.517034 167.478496 
L 421.948306 167.579785 
L 422.994236 167.044723 
L 423.764921 166.476833 
L 424.177788 166.476445 
L 424.728277 166.558878 
L 425.966878 166.515594 
L 427.012807 166.268331 
L 427.39815 166.233237 
L 427.838541 166.021281 
L 428.223884 165.891171 
L 428.746849 165.645086 
L 429.572583 165.070367 
L 430.838708 164.724997 
L 431.499295 164.654686 
L 432.187407 164.185299 
L 433.343434 163.326205 
L 433.728776 163.350797 
L 435.627964 163.783686 
L 436.068356 163.968115 
L 437.609726 164.088213 
L 438.050117 164.11531 
L 440.362172 163.946201 
L 441.298004 163.565654 
L 441.931067 163.436319 
L 442.371458 163.064766 
L 443.362339 161.923924 
L 444.490842 160.641358 
L 444.986282 160.457005 
L 445.481722 160.447423 
L 445.867065 160.538344 
L 446.88547 160.462121 
L 447.435959 159.972624 
L 448.041497 159.316827 
L 448.784658 158.427961 
L 449.500294 157.724487 
L 449.995734 157.464503 
L 450.353552 157.426918 
L 451.619678 158.032346 
L 452.00502 157.903086 
L 452.968376 157.472701 
L 453.711537 157.367694 
L 454.04183 157.327995 
L 455.005187 157.470282 
L 455.280431 157.614896 
L 455.610725 157.987757 
L 456.078641 158.502585 
L 457.262193 159.249085 
L 457.812682 159.800783 
L 458.1705 159.96862 
L 458.445744 159.945227 
L 459.078807 159.773286 
L 459.491674 159.775011 
L 459.766919 159.63516 
L 460.620177 159.067403 
L 461.198191 159.167934 
L 463.124903 159.990504 
L 463.592819 159.936713 
L 463.923113 159.982509 
L 464.33598 159.884413 
L 464.666273 159.634007 
L 465.024091 159.523913 
L 465.381909 159.572484 
L 466.730608 159.824705 
L 467.033377 159.773143 
L 467.473768 159.725355 
L 468.960089 159.4146 
L 469.345432 159.205648 
L 469.758299 158.980504 
L 470.528984 158.644848 
L 471.409767 158.526334 
L 472.29055 158.668752 
L 472.978661 158.545169 
L 473.391528 158.270721 
L 473.859444 158.002995 
L 474.32736 157.987503 
L 475.098045 158.503272 
L 475.923779 159.067964 
L 476.721988 159.305393 
L 477.850491 159.908441 
L 478.208309 159.851868 
L 479.832252 159.424382 
L 480.795609 159.380219 
L 482.336979 158.601828 
L 482.722321 158.50891 
L 483.135188 158.437358 
L 483.493006 158.390847 
L 484.043495 158.378178 
L 484.373789 158.302214 
L 484.841705 158.213191 
L 485.337145 158.106509 
L 485.639914 158.04824 
L 487.291382 157.705731 
L 487.951969 157.309794 
L 489.93373 157.185282 
L 491.502625 156.545342 
L 492.548555 156.059807 
L 493.181617 155.622468 
L 493.677058 155.461125 
L 494.55784 155.301336 
L 494.915658 155.282512 
L 495.218427 155.224855 
L 495.879015 154.96188 
L 496.512077 154.595237 
L 498.328692 154.175196 
L 498.714034 154.384693 
L 499.18195 154.597569 
L 500.860942 154.196108 
L 501.438956 154.333406 
L 501.824299 154.343096 
L 502.292215 154.22026 
L 503.668438 154.073902 
L 504.439123 154.019375 
L 504.796941 153.96468 
L 505.182283 153.833523 
L 505.925444 153.462724 
L 507.38424 153.633544 
L 507.907205 154.016371 
L 508.622841 154.60155 
L 509.118281 155.149633 
L 510.604602 157.14594 
L 512.00835 158.194524 
L 512.558839 158.237407 
L 513.329524 157.896706 
L 513.852489 157.211654 
L 514.237832 156.797418 
L 514.733272 156.592893 
L 515.311286 156.749694 
L 515.696628 156.612878 
L 516.797607 155.95492 
L 517.237998 155.894125 
L 518.366501 156.136947 
L 518.751844 156.127887 
L 519.137186 155.747039 
L 519.825298 154.981371 
L 521.063898 154.565923 
L 521.834583 154.557354 
L 522.825464 154.578881 
L 523.403478 154.753111 
L 525.33019 155.398114 
L 526.568791 155.594508 
L 528.16521 156.460069 
L 528.440455 156.431709 
L 529.926776 155.759175 
L 531.110328 155.616201 
L 532.899418 156.256582 
L 533.725152 156.446263 
L 534.220592 156.703495 
L 534.605934 157.03496 
L 536.009682 158.411303 
L 536.395025 158.514929 
L 537.330856 158.686967 
L 537.798772 159.081233 
L 538.431835 159.672666 
L 539.174995 160.146795 
L 539.587862 160.391956 
L 540.248449 160.411309 
L 541.569624 160.157808 
L 541.927442 160.082103 
L 543.303665 159.790849 
L 545.120279 158.859086 
L 546.083636 157.855006 
L 546.441454 157.556051 
L 547.349761 157.099184 
L 547.817677 157.05909 
L 548.230544 157.132311 
L 548.588362 157.20031 
L 548.94618 157.162283 
L 549.221424 157.140812 
L 549.551718 157.124047 
L 550.542599 156.841207 
L 550.98299 156.765748 
L 551.643577 156.418252 
L 552.221591 155.786083 
L 552.221591 155.786083 
" clip-path="url(#p3c9b3c0717)" style="fill: none; stroke-dasharray: 4,6.6; stroke-dashoffset: 0; stroke: #0000ff; stroke-width: 4"/>
   </g>
   <g id="line2d_24">
    <path d="M 332.053409 264.76 
L 336.044456 262.159197 
L 339.512539 260.276155 
L 343.888928 258.301998 
L 346.448703 256.812472 
L 350.439751 254.318772 
L 351.7334 253.26047 
L 352.944477 252.086515 
L 355.559301 249.154136 
L 357.513538 247.577553 
L 359.137481 246.446966 
L 360.348557 245.107476 
L 360.954096 244.323848 
L 361.779829 243.108559 
L 363.238626 241.021984 
L 364.31208 239.964314 
L 367.422344 237.02305 
L 368.330652 236.061276 
L 369.43163 234.986189 
L 371.853783 231.823816 
L 372.431797 231.30467 
L 373.064859 230.634236 
L 375.239292 227.857434 
L 376.257697 227.028942 
L 377.193529 226.486211 
L 378.294507 225.444852 
L 379.918451 223.809766 
L 380.496464 223.250918 
L 381.267149 222.752013 
L 382.092883 222.452149 
L 382.725946 222.183595 
L 385.120574 220.284682 
L 385.671064 219.722835 
L 386.524322 219.000309 
L 387.157385 218.783406 
L 387.762923 218.518517 
L 388.616181 218.205717 
L 389.139146 217.908539 
L 390.625467 217.362103 
L 391.50625 217.563697 
L 391.836543 217.521881 
L 393.267815 217.071331 
L 394.396318 217.230333 
L 394.809185 217.298317 
L 395.249577 217.143747 
L 395.992737 216.734554 
L 396.543227 216.473364 
L 398.084597 215.960957 
L 398.690135 215.589985 
L 399.268148 215.457796 
L 400.506749 215.231648 
L 400.947141 215.23282 
L 401.360008 215.149704 
L 401.717826 214.875073 
L 402.350888 214.48446 
L 402.708706 214.427751 
L 403.589489 214.554476 
L 404.415223 214.207972 
L 408.95676 211.225518 
L 410.250409 211.376249 
L 410.966045 211.438116 
L 411.764255 211.221216 
L 412.617513 210.974334 
L 413.333149 210.6688 
L 415.425008 208.85688 
L 417.048952 208.109486 
L 417.40677 207.947802 
L 418.480224 207.838333 
L 418.920615 207.808891 
L 420.434461 207.993972 
L 422.196026 207.684376 
L 422.553844 207.684573 
L 423.627298 207.673744 
L 424.480557 207.583071 
L 425.058571 207.478157 
L 425.60906 207.214566 
L 426.792612 207.27626 
L 427.370625 207.552606 
L 427.866066 207.791994 
L 428.471604 207.920715 
L 428.911995 207.955573 
L 429.352387 207.975105 
L 430.673561 207.657116 
L 431.141477 207.255497 
L 431.829588 206.695157 
L 432.490176 206.309943 
L 433.095714 206.097536 
L 434.30679 205.9111 
L 434.912328 205.545056 
L 435.765587 205.072345 
L 436.205978 204.958081 
L 437.279432 204.746855 
L 437.664775 204.909239 
L 438.022593 204.98725 
L 439.288718 205.091294 
L 440.031879 204.653183 
L 440.609892 204.129618 
L 441.710871 203.514578 
L 442.26136 203.424378 
L 443.472436 204.166572 
L 444.160548 204.826481 
L 444.766086 204.957253 
L 445.481722 205.00299 
L 445.949638 204.860655 
L 446.362505 204.67088 
L 446.912994 204.3337 
L 448.67456 203.381403 
L 449.417721 203.363668 
L 450.270979 203.085092 
L 450.876517 203.112933 
L 451.289384 202.988636 
L 452.885803 202.39771 
L 453.381243 202.203382 
L 454.619844 201.49113 
L 454.950138 201.634548 
L 455.363005 201.805202 
L 456.38141 201.99549 
L 457.317242 202.091153 
L 458.363171 202.161035 
L 459.161381 201.844818 
L 459.629296 201.411787 
L 460.620177 200.202752 
L 461.115617 199.849305 
L 462.519365 199.799584 
L 463.510246 200.025398 
L 464.721322 200.478267 
L 465.216762 200.436547 
L 465.822301 200.353079 
L 466.813181 199.922607 
L 467.143475 199.829763 
L 467.501293 199.746961 
L 468.189404 199.881633 
L 469.20781 200.279826 
L 470.9969 201.023601 
L 471.437291 201.334616 
L 471.877683 201.387261 
L 472.235501 201.422409 
L 472.620843 201.47531 
L 474.437458 200.560011 
L 475.015471 199.797182 
L 475.62101 198.994962 
L 476.143974 198.526593 
L 476.639415 198.156155 
L 477.272477 197.678005 
L 477.795442 197.483475 
L 478.428505 197.294084 
L 479.281763 197.100535 
L 479.94235 197.261934 
L 480.465315 197.606264 
L 481.070853 198.167756 
L 481.566294 198.592413 
L 483.740726 199.917778 
L 484.07102 200.079265 
L 484.704082 200.292903 
L 485.309621 200.330357 
L 486.795942 200.89846 
L 488.667605 201.970122 
L 488.997899 201.88861 
L 490.759464 201.370877 
L 492.163212 201.246292 
L 492.576079 201.427155 
L 492.988946 201.571978 
L 493.622009 201.826312 
L 493.952302 202.108968 
L 494.667938 202.634871 
L 496.264357 202.321713 
L 496.842371 202.234295 
L 497.970874 202.088098 
L 499.044328 202.165649 
L 499.42967 202.242356 
L 500.695796 202.885003 
L 502.072019 202.810431 
L 502.429837 202.834293 
L 503.090424 202.821373 
L 503.751011 202.701769 
L 504.796941 202.752872 
L 505.540101 202.862974 
L 507.053947 202.949403 
L 507.687009 203.069204 
L 508.017303 203.059374 
L 509.778869 203.353948 
L 510.164211 203.479092 
L 510.934896 203.230983 
L 512.145972 202.20247 
L 512.558839 201.971227 
L 513.769916 201.612516 
L 514.320405 201.329762 
L 514.815845 201.224175 
L 515.531481 201.147272 
L 516.302166 200.609416 
L 517.155425 199.812102 
L 517.733438 199.407489 
L 518.504123 199.374975 
L 518.944515 199.379825 
L 520.485885 198.733508 
L 520.898752 198.538671 
L 522.164877 197.418331 
L 523.871394 195.942752 
L 524.394359 195.776663 
L 525.08247 195.856774 
L 525.935728 195.695736 
L 526.37612 195.484989 
L 527.009183 195.159442 
L 528.000063 195.210562 
L 529.403811 195.584449 
L 529.734104 195.763858 
L 530.587363 196.440152 
L 531.165376 196.454804 
L 532.981991 195.885989 
L 534.055445 195.15078 
L 534.605934 195.059527 
L 535.514242 195.053684 
L 536.697794 194.632067 
L 538.789653 194.28617 
L 539.45024 194.595593 
L 539.94568 194.749977 
L 540.909036 194.825887 
L 541.652197 194.648974 
L 542.28526 194.381829 
L 542.725651 194.499665 
L 545.698293 195.434476 
L 546.193733 195.489271 
L 546.551551 195.746329 
L 547.184614 196.18021 
L 547.790152 196.360648 
L 548.010348 196.421082 
L 548.94618 196.992302 
L 550.184781 197.207359 
L 550.652697 197.37699 
L 551.313284 197.49608 
L 552.221591 197.771382 
L 552.221591 197.771382 
" clip-path="url(#p3c9b3c0717)" style="fill: none; stroke-dasharray: 4,6.6; stroke-dashoffset: 0; stroke: #ff0000; stroke-width: 4"/>
   </g>
   <g id="patch_6">
    <path d="M 321.045 264.76 
L 563.23 264.76 
" style="fill: none; stroke: #000000; stroke-width: 3; stroke-linejoin: miter; stroke-linecap: square"/>
   </g>
   <g id="text_15">
    <!-- LAL010 -->
    <g transform="translate(397.38125 87.12) scale(0.24 -0.24)">
     <defs>
      <path id="DejaVuSans-4c" d="M 628 4666 
L 1259 4666 
L 1259 531 
L 3531 531 
L 3531 0 
L 628 0 
L 628 4666 
z
" transform="scale(0.015625)"/>
      <path id="DejaVuSans-41" d="M 2188 4044 
L 1331 1722 
L 3047 1722 
L 2188 4044 
z
M 1831 4666 
L 2547 4666 
L 4325 0 
L 3669 0 
L 3244 1197 
L 1141 1197 
L 716 0 
L 50 0 
L 1831 4666 
z
" transform="scale(0.015625)"/>
     </defs>
     <use xlink:href="#DejaVuSans-4c"/>
     <use xlink:href="#DejaVuSans-41" x="57.962891"/>
     <use xlink:href="#DejaVuSans-4c" x="126.371094"/>
     <use xlink:href="#DejaVuSans-30" x="182.083984"/>
     <use xlink:href="#DejaVuSans-31" x="245.707031"/>
     <use xlink:href="#DejaVuSans-30" x="309.330078"/>
    </g>
   </g>
  </g>
  <g id="axes_3">
   <g id="patch_7">
    <path d="M 574.03 264.76 
L 816.215 264.76 
L 816.215 93.12 
L 574.03 93.12 
z
" style="fill: #ffffff"/>
   </g>
   <g id="matplotlib.axis_5">
    <g id="xtick_11">
     <g id="line2d_25">
      <g>
       <use xlink:href="#mf9d47f6d57" x="585.038409" y="264.76" style="stroke: #000000; stroke-width: 0.8"/>
      </g>
     </g>
    </g>
    <g id="xtick_12">
     <g id="line2d_26">
      <g>
       <use xlink:href="#mf9d47f6d57" x="640.087336" y="264.76" style="stroke: #000000; stroke-width: 0.8"/>
      </g>
     </g>
    </g>
    <g id="xtick_13">
     <g id="line2d_27">
      <g>
       <use xlink:href="#mf9d47f6d57" x="695.136262" y="264.76" style="stroke: #000000; stroke-width: 0.8"/>
      </g>
     </g>
    </g>
    <g id="xtick_14">
     <g id="line2d_28">
      <g>
       <use xlink:href="#mf9d47f6d57" x="750.185189" y="264.76" style="stroke: #000000; stroke-width: 0.8"/>
      </g>
     </g>
    </g>
    <g id="xtick_15">
     <g id="line2d_29">
      <g>
       <use xlink:href="#mf9d47f6d57" x="805.234115" y="264.76" style="stroke: #000000; stroke-width: 0.8"/>
      </g>
     </g>
    </g>
   </g>
   <g id="matplotlib.axis_6"/>
   <g id="line2d_30">
    <path d="M 585.038409 264.76 
L 586.882548 263.629115 
L 588.31382 262.990014 
L 590.213008 262.359243 
L 595.084838 260.917047 
L 600.39706 259.213025 
L 603.810093 257.87156 
L 605.213841 257.283064 
L 606.479966 256.557479 
L 607.883714 255.533975 
L 610.691209 253.299566 
L 617.434702 248.107294 
L 623.269889 241.482761 
L 625.361748 239.694843 
L 628.499537 237.327037 
L 629.820711 235.712509 
L 631.16941 234.209305 
L 631.885046 233.703384 
L 632.848402 233.007137 
L 635.463226 230.443522 
L 636.701827 229.178929 
L 637.885379 227.875529 
L 638.876259 226.886661 
L 640.11486 225.986898 
L 641.298412 225.299721 
L 641.848901 225.034715 
L 642.509488 224.889889 
L 643.1976 224.503615 
L 644.298579 223.721347 
L 645.757375 222.303916 
L 647.546465 220.498705 
L 649.6108 218.925941 
L 650.271387 218.187363 
L 652.831162 214.597347 
L 653.519274 214.127993 
L 654.014714 213.793711 
L 654.592728 213.48661 
L 657.042405 212.455996 
L 657.868139 212.239966 
L 659.271887 211.682716 
L 659.987523 211.392708 
L 660.785732 211.061045 
L 662.960165 210.033176 
L 664.72173 209.4587 
L 666.153002 208.627218 
L 667.143883 207.934015 
L 668.299911 207.381526 
L 668.767826 207.142714 
L 669.731183 206.570447 
L 671.107406 206.325127 
L 671.740468 206.425038 
L 672.263433 206.440089 
L 672.896496 206.342701 
L 673.502034 205.977176 
L 675.318649 204.686446 
L 675.979236 204.544057 
L 676.55725 204.383006 
L 677.05269 203.900688 
L 677.79585 203.227441 
L 679.639989 201.780401 
L 680.988688 201.727937 
L 681.814422 201.721831 
L 682.832827 201.637812 
L 683.796183 201.621076 
L 684.621917 201.512405 
L 686.30091 201.877962 
L 686.851399 201.958732 
L 689.934139 202.704544 
L 690.925019 202.330438 
L 694.393102 199.973348 
L 694.833493 199.588506 
L 695.521605 199.373396 
L 696.705157 198.975104 
L 697.696037 198.581096 
L 698.219002 198.579657 
L 698.852065 198.543765 
L 701.687084 198.579989 
L 702.375196 198.395495 
L 703.118357 198.214931 
L 703.806468 197.842674 
L 704.962496 197.254449 
L 705.733181 196.951063 
L 706.393768 196.758456 
L 706.834159 196.572223 
L 708.733347 195.763514 
L 709.806801 195.169727 
L 710.577486 194.878863 
L 711.348171 194.737813 
L 713.027163 194.316323 
L 713.742799 194.250539 
L 714.348338 193.938002 
L 715.146547 193.630008 
L 716.109903 193.473245 
L 717.265931 193.699459 
L 717.981567 193.671041 
L 718.394434 193.84951 
L 718.889874 194.023517 
L 719.275217 194.074682 
L 719.688083 193.955107 
L 720.596391 193.536485 
L 722.082712 192.934109 
L 722.495579 192.857437 
L 723.266264 192.726833 
L 725.440696 191.955341 
L 725.963661 192.07653 
L 727.31236 192.658447 
L 730.174904 194.286807 
L 730.697869 194.59905 
L 731.303407 194.853234 
L 732.376861 194.942544 
L 733.230119 195.100623 
L 734.248525 195.468165 
L 734.854063 195.733663 
L 735.239405 195.838059 
L 735.569699 195.841154 
L 736.065139 195.89152 
L 736.725726 196.201143 
L 737.578985 196.737752 
L 738.212047 196.951391 
L 738.624914 196.9887 
L 739.257977 196.849797 
L 740.414004 196.012608 
L 740.992018 195.513815 
L 741.377361 195.454778 
L 743.386646 195.505866 
L 745.065639 195.137545 
L 745.588603 195.055327 
L 746.359288 194.572127 
L 746.744631 194.389765 
L 747.597889 194.035427 
L 748.065805 193.789183 
L 748.396099 193.801936 
L 749.88242 194.293818 
L 750.460433 194.645888 
L 751.176069 194.853397 
L 752.001803 194.814829 
L 752.882586 194.787549 
L 754.479005 194.902309 
L 756.488291 195.712516 
L 756.901158 195.785377 
L 758.387479 196.591626 
L 759.240737 197.101443 
L 759.736178 197.096018 
L 761.277548 196.209685 
L 762.763869 195.090993 
L 764.74563 193.334782 
L 765.130972 193.061624 
L 765.791559 192.640381 
L 766.892538 191.640131 
L 767.883419 191.101627 
L 768.213712 191.144921 
L 770.388145 192.036644 
L 771.764368 192.476822 
L 772.424955 192.901251 
L 775.149877 193.998535 
L 775.535219 193.927596 
L 776.223331 193.52964 
L 776.801345 192.886081 
L 777.351834 192.430326 
L 778.342715 191.740636 
L 779.223498 191.240956 
L 779.801511 191.300014 
L 780.627245 191.618264 
L 782.774153 192.213405 
L 783.352167 192.027981 
L 783.930181 191.810145 
L 785.251355 191.546133 
L 785.77432 191.718293 
L 787.040445 192.223627 
L 787.783606 192.276147 
L 790.095661 192.342781 
L 790.64615 192.364588 
L 791.169115 192.412108 
L 792.490289 192.903796 
L 793.150876 193.109389 
L 793.756414 193.304694 
L 794.389477 193.66215 
L 795.930847 194.960129 
L 798.187853 198.017602 
L 798.683293 198.256658 
L 799.811796 198.179279 
L 800.610006 198.147521 
L 801.353166 197.765423 
L 805.206591 195.207977 
L 805.206591 195.207977 
" clip-path="url(#p43354284f7)" style="fill: none; stroke: #0000ff; stroke-width: 4; stroke-linecap: square"/>
   </g>
   <g id="line2d_31">
    <path d="M 585.038409 264.76 
L 586.937597 263.593218 
L 588.478967 262.907139 
L 590.818546 262.045647 
L 593.846237 261.144242 
L 597.919858 260.15726 
L 599.929144 259.616222 
L 603.782569 258.266302 
L 605.186316 257.744136 
L 606.865308 257.005851 
L 611.627041 254.979276 
L 617.021835 252.918434 
L 618.783401 252.306201 
L 621.012883 251.32512 
L 623.958 250.334354 
L 625.526895 249.886644 
L 626.462726 249.351164 
L 628.196768 248.393957 
L 629.62804 247.598995 
L 630.398725 247.323416 
L 631.251983 247.199149 
L 632.848402 247.097416 
L 636.454107 246.547304 
L 637.114694 246.474119 
L 643.059978 245.627826 
L 645.014215 245.286602 
L 646.005095 245.285057 
L 649.170409 245.332373 
L 650.271387 245.179346 
L 651.702659 244.863267 
L 654.812924 244.934947 
L 657.702992 244.850612 
L 659.134264 244.830849 
L 659.932474 244.843429 
L 663.070263 244.876717 
L 664.336388 244.793196 
L 665.464891 244.741838 
L 666.428247 244.549441 
L 668.272386 244.105201 
L 668.960498 244.159812 
L 671.355126 244.480766 
L 672.318482 244.560294 
L 672.951545 244.511279 
L 675.153502 244.142993 
L 678.59406 244.240339 
L 682.254813 244.747358 
L 683.355792 244.72736 
L 684.979735 244.794273 
L 686.025665 244.652262 
L 686.989021 244.646232 
L 688.502867 244.641615 
L 690.016712 244.474014 
L 691.117691 244.334827 
L 692.136096 244.380723 
L 693.429746 244.57707 
L 694.393102 244.882993 
L 695.851898 245.321736 
L 697.585939 245.59292 
L 698.136429 245.644209 
L 698.962163 245.713585 
L 700.586106 245.579066 
L 704.412006 244.633702 
L 706.28367 245.038303 
L 707.990187 245.440219 
L 709.421459 245.841749 
L 710.522437 246.051347 
L 711.953709 246.150723 
L 713.109737 246.186441 
L 714.23824 246.116995 
L 715.119023 246.063877 
L 716.550295 246.297471 
L 717.100784 246.339799 
L 718.394434 246.211143 
L 719.633035 246.005486 
L 720.678964 246.010482 
L 728.991352 245.310846 
L 730.450149 245.267399 
L 732.597057 245.397196 
L 733.670511 245.537601 
L 734.551294 245.39638 
L 738.0469 244.564591 
L 739.065306 244.621419 
L 740.799347 244.705352 
L 743.083877 244.663494 
L 744.129807 244.457127 
L 745.616128 244.558712 
L 746.662058 244.719046 
L 747.405218 244.783437 
L 752.277048 245.554455 
L 753.70832 245.708156 
L 755.690081 245.795254 
L 758.139759 245.533662 
L 761.250023 244.620216 
L 763.011589 244.947404 
L 766.644818 245.795058 
L 767.415503 245.989712 
L 768.268761 246.192063 
L 768.929348 246.174408 
L 772.342382 245.630189 
L 773.333262 245.612536 
L 775.259975 245.252842 
L 776.168282 245.186463 
L 776.746296 245.333069 
L 777.682128 245.548682 
L 778.507862 245.530938 
L 779.581316 245.625971 
L 780.324476 245.910274 
L 783.214545 246.613442 
L 786.159662 246.398471 
L 789.159829 245.549867 
L 791.031492 244.992093 
L 791.664555 244.932358 
L 792.627911 244.914189 
L 793.646316 244.9964 
L 796.288665 244.704559 
L 799.261307 244.128486 
L 800.554957 244.294011 
L 802.1789 244.583336 
L 804.793724 244.928302 
L 805.206591 245.135277 
L 805.206591 245.135277 
" clip-path="url(#p43354284f7)" style="fill: none; stroke: #ff0000; stroke-width: 4; stroke-linecap: square"/>
   </g>
   <g id="line2d_32">
    <path d="M 585.038409 264.76 
L 586.799975 263.687497 
L 588.864309 262.709665 
L 591.671805 261.719938 
L 598.167578 259.899942 
L 603.17703 257.953558 
L 606.562539 256.246988 
L 608.324105 255.202259 
L 611.461894 252.745385 
L 613.581278 250.603552 
L 615.177696 248.856121 
L 616.55392 247.403665 
L 618.535681 245.567386 
L 621.233078 243.539255 
L 622.16891 242.795771 
L 623.545133 241.507512 
L 625.636992 239.08914 
L 627.701327 236.174998 
L 631.747423 230.802815 
L 633.123646 228.849169 
L 637.169743 223.291432 
L 639.509322 219.432707 
L 642.867306 212.707869 
L 643.858187 211.238439 
L 647.518941 205.65095 
L 649.142884 202.527477 
L 652.803638 196.19086 
L 653.354127 195.31346 
L 654.289959 193.610928 
L 655.858853 191.502389 
L 656.684587 190.50483 
L 657.427748 189.253856 
L 658.446153 187.336483 
L 659.134264 186.339439 
L 659.767327 185.74352 
L 661.528893 184.270835 
L 662.079382 183.743422 
L 662.602347 183.399871 
L 665.464891 180.960695 
L 666.841114 180.348232 
L 667.198932 180.200375 
L 668.630204 180.405904 
L 669.538511 180.612742 
L 670.116525 180.457372 
L 671.245028 179.959236 
L 671.68542 179.862873 
L 672.538678 180.022245 
L 673.199265 180.282009 
L 673.694705 180.368187 
L 674.410341 180.442229 
L 674.960831 180.437539 
L 675.924187 180.119398 
L 676.915068 179.632003 
L 677.410508 179.654108 
L 678.291291 179.644125 
L 679.474843 179.491047 
L 681.374031 179.026953 
L 681.786898 178.797573 
L 682.640156 178.281209 
L 685.00726 177.335857 
L 686.54863 176.281982 
L 688.33772 176.194722 
L 688.695538 176.326695 
L 689.356125 176.416244 
L 690.62225 176.476483 
L 691.145215 176.491694 
L 692.741634 176.517405 
L 693.622417 176.2141 
L 694.20043 176.014606 
L 694.943591 175.852548 
L 695.549129 175.403863 
L 696.925352 174.00924 
L 697.530891 173.380896 
L 698.301576 173.036494 
L 699.87047 172.786291 
L 700.448484 172.302453 
L 702.072427 170.543135 
L 703.118357 169.763792 
L 703.421126 169.731167 
L 703.833993 169.80796 
L 704.714775 169.859231 
L 705.512985 169.476033 
L 706.008425 169.249749 
L 707.632369 168.957553 
L 708.403054 169.173295 
L 709.696703 170.084128 
L 710.164619 170.368416 
L 710.90778 170.984436 
L 711.430744 171.116531 
L 712.201429 171.111817 
L 712.614296 171.103154 
L 713.082212 170.853509 
L 713.605177 170.649915 
L 714.23824 170.728593 
L 716.109903 171.350383 
L 717.183357 171.364952 
L 718.477007 171.149952 
L 719.330265 171.329587 
L 719.633035 171.365513 
L 720.734013 171.279823 
L 721.697369 171.153968 
L 724.449816 170.297048 
L 725.413172 170.360841 
L 726.211381 170.172518 
L 727.037115 169.806173 
L 727.477507 169.838677 
L 728.220667 170.180418 
L 729.018877 170.540491 
L 729.651939 170.744628 
L 730.202428 171.069698 
L 731.000638 171.3817 
L 731.633701 171.323671 
L 732.294288 171.19134 
L 732.734679 171.132992 
L 733.257644 171.209768 
L 734.221 171.034375 
L 734.606343 170.852349 
L 735.129307 170.6137 
L 736.533055 170.293095 
L 740.579151 169.314581 
L 740.992018 169.160391 
L 743.193975 168.735537 
L 747.29512 166.956679 
L 749.056686 166.377262 
L 749.579651 166.1435 
L 750.432909 165.837477 
L 751.258643 165.6433 
L 751.699034 165.771044 
L 752.194475 165.885622 
L 752.992684 165.619854 
L 754.20376 165.404998 
L 754.946921 165.343339 
L 756.350669 165.112615 
L 757.176402 165.188494 
L 758.662723 164.687235 
L 759.048066 164.655922 
L 759.598555 164.633787 
L 760.12152 164.617532 
L 761.029827 165.070193 
L 762.378526 166.147997 
L 763.727225 167.656978 
L 764.773154 168.494925 
L 765.351168 168.773926 
L 766.176902 168.790331 
L 766.672342 168.476586 
L 767.415503 167.94176 
L 767.718272 167.902132 
L 768.378859 168.013438 
L 768.929348 167.783604 
L 769.61746 167.41923 
L 770.1129 167.252079 
L 770.773487 167.276918 
L 771.846941 167.247725 
L 772.480004 166.610617 
L 772.892871 166.29895 
L 773.553458 165.937489 
L 773.911276 165.82632 
L 774.351668 165.713984 
L 775.039779 165.612445 
L 776.77382 165.767417 
L 780.049231 166.654106 
L 781.480504 167.253487 
L 784.095328 166.76223 
L 787.343214 167.785832 
L 788.086375 168.470936 
L 789.049731 169.282855 
L 789.60022 169.461654 
L 790.260807 169.676986 
L 790.948919 170.267171 
L 792.462764 171.448449 
L 793.040778 171.620743 
L 794.059183 171.687688 
L 795.242735 171.743903 
L 796.316189 171.644699 
L 797.830035 171.15586 
L 800.38981 169.3585 
L 801.518313 169.247245 
L 802.068802 169.162118 
L 803.252354 168.856456 
L 804.711151 168.240967 
L 805.206591 167.748301 
L 805.206591 167.748301 
" clip-path="url(#p43354284f7)" style="fill: none; stroke-dasharray: 4,6.6; stroke-dashoffset: 0; stroke: #0000ff; stroke-width: 4"/>
   </g>
   <g id="line2d_33">
    <path d="M 585.038409 264.76 
L 587.157793 263.438785 
L 589.194603 262.538428 
L 592.304867 261.464378 
L 598.690543 259.842075 
L 604.250484 258.109752 
L 606.287295 257.185193 
L 608.84707 255.88394 
L 609.920524 255.442512 
L 613.140886 254.092053 
L 614.572158 253.170285 
L 616.636493 251.719368 
L 621.893665 248.845704 
L 622.66435 248.344271 
L 624.838783 246.714202 
L 628.169243 244.190345 
L 629.160124 243.524953 
L 630.536347 242.773817 
L 632.986024 241.076726 
L 633.866807 240.511684 
L 638.298246 238.05736 
L 640.059811 236.993612 
L 643.858187 235.49495 
L 645.289459 235.32241 
L 647.436367 235.00601 
L 648.014381 234.954488 
L 652.886211 233.543347 
L 654.565203 233.161288 
L 655.611133 232.78974 
L 657.207552 232.619711 
L 658.253481 232.174752 
L 660.813257 230.967247 
L 661.583941 230.478409 
L 662.464724 230.322249 
L 664.391437 230.095354 
L 666.593394 229.371318 
L 668.189813 228.284822 
L 668.960498 227.92429 
L 671.878091 227.039533 
L 674.603013 226.828591 
L 676.364578 226.597303 
L 676.970116 226.514127 
L 679.750087 226.241043 
L 682.695205 226.595997 
L 683.603512 226.414218 
L 684.429246 225.942104 
L 686.273385 225.211632 
L 687.236741 225.010789 
L 690.12681 223.912147 
L 691.282837 223.969502 
L 692.41134 223.895455 
L 692.989354 223.638976 
L 693.842612 223.115908 
L 695.273885 222.562278 
L 696.374863 222.774663 
L 697.448317 223.189501 
L 699.044736 223.176216 
L 701.879756 222.199765 
L 702.430245 222.114565 
L 703.421126 221.882786 
L 704.49458 221.667842 
L 705.898327 221.180112 
L 706.944257 220.723212 
L 707.549795 220.393343 
L 707.990187 220.437619 
L 708.540676 220.497536 
L 709.86185 220.527426 
L 710.522437 220.576253 
L 711.733514 220.503669 
L 712.201429 220.311547 
L 712.69687 219.976839 
L 714.155666 218.879749 
L 716.357623 218.500939 
L 717.293455 218.676746 
L 717.761371 218.662484 
L 721.201929 218.109328 
L 723.073592 218.4303 
L 723.596557 218.575214 
L 724.257144 218.875676 
L 724.752585 219.029764 
L 726.569199 219.015617 
L 727.56008 218.648775 
L 728.468387 217.836285 
L 729.239072 217.311262 
L 732.074092 215.940645 
L 732.92735 215.864178 
L 733.560413 216.041704 
L 734.110902 216.328759 
L 734.633867 216.571252 
L 735.211881 216.825309 
L 736.725726 217.450652 
L 737.248691 217.682739 
L 737.826705 217.804889 
L 738.404719 217.93735 
L 739.34055 218.252221 
L 740.992018 219.017929 
L 741.542507 219.300402 
L 742.395766 219.315512 
L 745.038114 219.089518 
L 745.891373 219.274849 
L 746.79968 219.60062 
L 747.735512 220.1144 
L 748.946588 220.134027 
L 752.744964 220.400451 
L 753.598222 220.66798 
L 754.616627 220.684623 
L 755.579984 220.733801 
L 756.323144 220.705587 
L 757.699367 220.758979 
L 758.882919 220.885743 
L 759.598555 220.951876 
L 760.286667 221.051358 
L 761.057352 221.114685 
L 762.736344 221.316363 
L 763.231784 221.406124 
L 764.332763 221.082521 
L 765.378693 220.49975 
L 766.369573 220.291979 
L 766.809965 220.109162 
L 767.553125 219.855596 
L 768.846775 219.526719 
L 769.892705 218.809048 
L 770.773487 218.256103 
L 771.516648 218.084398 
L 771.984564 217.971617 
L 773.911276 217.009671 
L 775.837989 215.547381 
L 776.718771 214.726698 
L 777.57203 214.367987 
L 778.645484 214.10618 
L 779.691413 213.568775 
L 780.131805 213.417561 
L 782.498909 213.345517 
L 782.911776 213.499175 
L 783.792558 213.818852 
L 785.223831 213.620471 
L 786.352334 213.229141 
L 787.178067 212.911234 
L 787.701032 212.87123 
L 788.361619 212.834875 
L 790.921394 212.091618 
L 791.637031 211.988294 
L 792.242569 212.11317 
L 792.820582 212.230313 
L 794.059183 212.247854 
L 795.435406 212.021601 
L 798.242902 212.715178 
L 798.683293 212.726465 
L 799.261307 212.824993 
L 802.344047 214.180674 
L 805.124018 214.904423 
L 805.206591 214.932056 
L 805.206591 214.932056 
" clip-path="url(#p43354284f7)" style="fill: none; stroke-dasharray: 4,6.6; stroke-dashoffset: 0; stroke: #ff0000; stroke-width: 4"/>
   </g>
   <g id="patch_8">
    <path d="M 574.03 264.76 
L 816.215 264.76 
" style="fill: none; stroke: #000000; stroke-width: 3; stroke-linejoin: miter; stroke-linecap: square"/>
   </g>
   <g id="text_16">
    <!-- LAL014 -->
    <g transform="translate(650.36625 87.12) scale(0.24 -0.24)">
     <use xlink:href="#DejaVuSans-4c"/>
     <use xlink:href="#DejaVuSans-41" x="57.962891"/>
     <use xlink:href="#DejaVuSans-4c" x="126.371094"/>
     <use xlink:href="#DejaVuSans-30" x="182.083984"/>
     <use xlink:href="#DejaVuSans-31" x="245.707031"/>
     <use xlink:href="#DejaVuSans-34" x="309.330078"/>
    </g>
   </g>
  </g>
  <g id="axes_4">
   <g id="patch_9">
    <path d="M 827.015 264.76 
L 1069.2 264.76 
L 1069.2 93.12 
L 827.015 93.12 
z
" style="fill: #ffffff"/>
   </g>
   <g id="matplotlib.axis_7">
    <g id="xtick_16">
     <g id="line2d_34">
      <g>
       <use xlink:href="#mf9d47f6d57" x="838.023409" y="264.76" style="stroke: #000000; stroke-width: 0.8"/>
      </g>
     </g>
    </g>
    <g id="xtick_17">
     <g id="line2d_35">
      <g>
       <use xlink:href="#mf9d47f6d57" x="893.072336" y="264.76" style="stroke: #000000; stroke-width: 0.8"/>
      </g>
     </g>
    </g>
    <g id="xtick_18">
     <g id="line2d_36">
      <g>
       <use xlink:href="#mf9d47f6d57" x="948.121262" y="264.76" style="stroke: #000000; stroke-width: 0.8"/>
      </g>
     </g>
    </g>
    <g id="xtick_19">
     <g id="line2d_37">
      <g>
       <use xlink:href="#mf9d47f6d57" x="1003.170189" y="264.76" style="stroke: #000000; stroke-width: 0.8"/>
      </g>
     </g>
    </g>
    <g id="xtick_20">
     <g id="line2d_38">
      <g>
       <use xlink:href="#mf9d47f6d57" x="1058.219115" y="264.76" style="stroke: #000000; stroke-width: 0.8"/>
      </g>
     </g>
    </g>
   </g>
   <g id="matplotlib.axis_8"/>
   <g id="line2d_39">
    <path d="M 838.023409 264.76 
L 839.50973 263.875159 
L 840.968527 263.253131 
L 842.785141 262.721609 
L 846.060552 262.022768 
L 854.207794 260.489068 
L 860.153078 259.063816 
L 861.887119 258.358735 
L 870.03436 254.757669 
L 871.080289 254.073888 
L 873.970358 251.701586 
L 877.410916 248.650901 
L 880.741376 246.022587 
L 881.81483 245.086751 
L 883.521347 243.062781 
L 884.952619 241.384926 
L 886.163695 239.946025 
L 887.98031 237.336057 
L 889.356533 234.99348 
L 890.512561 232.82924 
L 895.879831 222.676334 
L 897.916641 218.834182 
L 899.925927 213.817085 
L 903.311436 203.976464 
L 905.155575 196.822633 
L 906.834567 190.064077 
L 908.293364 185.057114 
L 910.082454 180.11165 
L 913.110145 173.572995 
L 914.734088 170.445661 
L 915.91764 168.409297 
L 924.147455 155.985276 
L 925.441104 154.860451 
L 926.211789 154.144383 
L 927.835733 152.133487 
L 928.606418 151.228423 
L 929.955116 149.831419 
L 933.61587 144.622791 
L 934.771898 143.556575 
L 935.900401 142.658554 
L 938.047309 141.546614 
L 938.680371 141.442675 
L 940.909853 141.540373 
L 942.286076 141.894614 
L 943.387055 142.103417 
L 944.130215 142.015432 
L 945.231194 141.586151 
L 947.102857 140.268931 
L 950.873709 136.446361 
L 951.947163 135.707467 
L 953.130715 135.089395 
L 953.928924 134.874218 
L 954.561987 134.723989 
L 957.589678 133.653207 
L 959.874208 132.440867 
L 962.626654 130.374587 
L 964.1405 129.14885 
L 966.122261 127.867196 
L 967.498484 127.0375 
L 968.792134 126.274136 
L 969.50777 125.991278 
L 971.599629 125.572862 
L 973.113475 125.390679 
L 975.700774 124.631441 
L 976.911851 124.282963 
L 978.783514 123.863715 
L 979.801919 123.959397 
L 980.627653 124.203223 
L 983.930589 125.932563 
L 985.114141 126.516975 
L 985.967399 126.809135 
L 987.563818 127.591823 
L 988.802419 128.178569 
L 989.573104 128.614397 
L 991.995257 130.041919 
L 992.57327 130.061252 
L 993.206333 129.93395 
L 995.077997 129.44982 
L 996.234024 129.368547 
L 997.582723 129.191832 
L 999.702106 128.595936 
L 1000.858134 128.090194 
L 1001.546245 127.868585 
L 1002.647224 127.715484 
L 1005.454719 127.842149 
L 1007.656676 127.769689 
L 1010.82199 128.770832 
L 1011.592675 129.296424 
L 1012.721178 130.009782 
L 1013.519387 130.084921 
L 1014.427694 129.994276 
L 1015.253428 129.658269 
L 1016.904896 128.495276 
L 1020.978517 124.554644 
L 1021.721677 124.23196 
L 1022.629984 124.07687 
L 1024.033732 124.020645 
L 1025.107186 124.298081 
L 1028.712891 125.716699 
L 1029.483576 125.627046 
L 1030.80475 125.004443 
L 1032.786511 124.105934 
L 1034.905895 123.951437 
L 1035.9243 123.81768 
L 1038.841893 123.050515 
L 1039.777725 123.247109 
L 1040.961277 123.400268 
L 1043.87887 123.821637 
L 1045.42024 124.383286 
L 1048.117637 125.709253 
L 1049.025945 126.480622 
L 1049.79663 127.558134 
L 1051.998587 130.74597 
L 1053.484908 132.054342 
L 1054.11797 132.28526 
L 1055.108851 132.308666 
L 1056.347452 131.886068 
L 1057.888822 130.916685 
L 1058.191591 130.715546 
L 1058.191591 130.715546 
" clip-path="url(#p6b0afd67b9)" style="fill: none; stroke: #0000ff; stroke-width: 4; stroke-linecap: square"/>
   </g>
   <g id="line2d_40">
    <path d="M 838.023409 264.76 
L 839.50973 263.873726 
L 840.968527 263.243723 
L 843.363155 262.507425 
L 847.078958 261.743123 
L 861.391678 259.324139 
L 867.832403 258.322758 
L 872.731757 257.829414 
L 875.979644 257.624092 
L 879.833069 257.298797 
L 883.466298 256.73789 
L 884.64985 256.774974 
L 887.512394 256.883909 
L 889.053764 256.939426 
L 894.421034 257.285327 
L 896.017453 257.253855 
L 898.46713 257.257198 
L 912.036691 258.110216 
L 914.183599 258.215799 
L 916.908521 258.29492 
L 919.743541 258.274823 
L 921.945498 258.205372 
L 928.028404 258.270039 
L 930.340459 258.334078 
L 938.873043 258.663135 
L 942.396174 258.555408 
L 945.533963 258.509005 
L 949.387388 258.942255 
L 951.947163 259.118723 
L 954.314266 259.050879 
L 958.553034 258.881773 
L 962.489032 259.250254 
L 964.746038 259.396423 
L 967.498484 259.401076 
L 969.838064 259.431948 
L 972.507937 259.293916 
L 989.903397 258.85383 
L 992.242977 258.72797 
L 999.702106 258.856446 
L 1003.225238 259.088135 
L 1011.06971 259.210404 
L 1015.721344 258.883687 
L 1023.538292 259.416862 
L 1029.428527 259.173129 
L 1038.979516 259.622749 
L 1047.264379 259.024663 
L 1049.879203 258.835771 
L 1053.347285 258.585644 
L 1056.787843 258.806366 
L 1058.191591 258.98827 
L 1058.191591 258.98827 
" clip-path="url(#p6b0afd67b9)" style="fill: none; stroke: #ff0000; stroke-width: 4; stroke-linecap: square"/>
   </g>
   <g id="line2d_41">
    <path d="M 838.023409 264.76 
L 839.482206 263.894975 
L 841.216247 263.149455 
L 843.08791 262.558201 
L 845.455014 262.041591 
L 856.905191 259.833042 
L 861.446727 258.541418 
L 864.226698 257.426093 
L 866.291033 256.295782 
L 876.998049 249.212753 
L 878.429321 247.867668 
L 879.612873 246.412561 
L 882.750662 241.858887 
L 883.741543 240.053629 
L 885.503108 236.166065 
L 887.512394 231.040262 
L 889.301484 225.459657 
L 890.595134 220.534964 
L 892.329175 212.769723 
L 893.265007 207.487423 
L 895.219244 194.714728 
L 898.246935 174.681147 
L 900.944332 158.521327 
L 902.403129 150.375267 
L 904.109645 141.893692 
L 905.43082 136.318535 
L 907.21991 129.911684 
L 908.403462 126.363367 
L 909.807209 122.946255 
L 911.596299 118.986867 
L 912.642229 117.17875 
L 914.018452 115.429733 
L 916.027738 113.411861 
L 918.559989 111.342024 
L 920.018785 110.595327 
L 920.872044 110.383347 
L 925.193384 109.733929 
L 929.267005 109.552758 
L 930.423032 109.400889 
L 934.524177 109.001032 
L 940.937377 107.890318 
L 942.891614 107.907277 
L 945.589012 107.908596 
L 947.98364 107.812559 
L 948.919472 107.619768 
L 950.928757 106.923845 
L 952.194883 106.662093 
L 954.094071 106.232688 
L 957.011664 105.544031 
L 958.47046 105.401394 
L 960.094404 105.252159 
L 961.855969 105.317589 
L 965.791968 105.7547 
L 967.22324 105.806376 
L 970.195882 106.124544 
L 976.031068 105.957273 
L 978.26055 105.722667 
L 981.150618 105.584425 
L 985.471959 106.23372 
L 987.839063 106.172824 
L 992.683368 105.589607 
L 994.720179 105.276365 
L 1004.931754 103.982418 
L 1006.060257 103.913151 
L 1009.418242 103.728075 
L 1012.36336 103.5642 
L 1014.014827 103.586772 
L 1015.69382 103.884197 
L 1019.189426 104.697288 
L 1020.372978 104.629116 
L 1021.446432 104.663498 
L 1025.244808 104.627384 
L 1026.896276 104.463116 
L 1028.410122 104.438046 
L 1030.034065 104.568895 
L 1032.291071 104.765126 
L 1033.694819 104.969 
L 1034.905895 105.05376 
L 1038.979516 105.059348 
L 1040.410788 105.226311 
L 1045.062422 106.356403 
L 1046.1634 106.585161 
L 1047.567148 106.691604 
L 1050.78751 106.638806 
L 1052.356405 106.282254 
L 1054.778557 105.847299 
L 1058.191591 105.294097 
L 1058.191591 105.294097 
" clip-path="url(#p6b0afd67b9)" style="fill: none; stroke-dasharray: 4,6.6; stroke-dashoffset: 0; stroke: #0000ff; stroke-width: 4"/>
   </g>
   <g id="line2d_42">
    <path d="M 838.023409 264.76 
L 839.674877 263.760817 
L 841.271296 263.097827 
L 843.445728 262.433077 
L 845.592636 261.959874 
L 850.629613 261.187058 
L 858.116267 259.983223 
L 860.510896 259.408474 
L 863.511062 258.819359 
L 866.7039 258.298953 
L 877.218245 255.684353 
L 879.943167 254.841558 
L 884.952619 253.360298 
L 891.228197 251.427514 
L 893.375105 250.688188 
L 896.898236 249.853588 
L 903.972023 248.746063 
L 911.073335 246.730565 
L 913.550536 245.644638 
L 914.431319 245.023975 
L 915.4222 244.47501 
L 919.826114 242.296909 
L 922.440938 239.838788 
L 924.450224 237.940447 
L 925.441104 237.240875 
L 927.230195 236.13067 
L 929.54225 234.797995 
L 932.735087 233.42881 
L 933.560821 233.349715 
L 936.616037 233.309176 
L 937.276624 233.052371 
L 939.313434 232.048869 
L 940.27679 231.558808 
L 941.295195 230.794308 
L 943.992593 228.611206 
L 946.249599 227.099453 
L 947.708395 225.65055 
L 948.561654 224.923724 
L 949.222241 224.639908 
L 949.77273 224.659371 
L 951.534296 224.77641 
L 952.36003 224.620522 
L 953.10319 224.340851 
L 954.14912 223.782353 
L 954.809707 223.532298 
L 955.635441 223.248946 
L 957.947496 222.071855 
L 960.149453 220.24396 
L 960.920138 219.515227 
L 962.158739 218.600857 
L 963.507437 217.690327 
L 965.048807 216.612453 
L 965.874541 215.666219 
L 969.535295 211.000895 
L 971.04914 209.82708 
L 972.232692 208.870951 
L 974.021782 207.283489 
L 975.095236 206.840118 
L 976.251264 206.637809 
L 977.21462 206.858021 
L 978.040354 207.084245 
L 979.058759 207.24553 
L 979.801919 207.261099 
L 980.517556 207.14116 
L 981.04052 206.726634 
L 982.08645 205.427315 
L 983.022282 204.045646 
L 985.334337 200.545331 
L 985.994924 199.83463 
L 986.738084 199.349675 
L 987.178476 199.289382 
L 988.196881 199.416236 
L 989.105188 199.877233 
L 991.554865 201.514275 
L 992.408124 202.284055 
L 993.481578 203.397615 
L 995.325717 205.597934 
L 996.70194 206.553436 
L 999.812204 208.558072 
L 1001.271001 210.010192 
L 1003.032566 211.26908 
L 1006.170355 213.356184 
L 1006.94104 213.932382 
L 1007.98697 214.474669 
L 1008.895277 214.89283 
L 1010.436647 215.395508 
L 1012.473457 216.264012 
L 1013.712058 216.820276 
L 1014.757988 217.184037 
L 1016.244309 217.50618 
L 1017.152616 217.324415 
L 1017.620532 217.046088 
L 1019.657342 215.533797 
L 1020.785845 214.737889 
L 1021.831775 214.05544 
L 1022.767607 213.090454 
L 1027.556863 206.915478 
L 1028.933086 204.094041 
L 1030.529505 200.292015 
L 1034.63065 192.228349 
L 1035.538958 191.183104 
L 1036.144496 190.858509 
L 1036.942705 190.511207 
L 1037.603292 190.076086 
L 1039.227236 188.796988 
L 1040.658508 187.257437 
L 1041.566815 186.347983 
L 1043.053136 184.555083 
L 1045.200044 182.162901 
L 1046.273498 181.477117 
L 1048.007539 180.435361 
L 1048.558029 180.172063 
L 1049.411287 180.109307 
L 1050.622364 180.334298 
L 1052.356405 181.216 
L 1054.062921 182.987509 
L 1055.439145 184.588643 
L 1057.365857 186.803113 
L 1058.191591 187.823156 
L 1058.191591 187.823156 
" clip-path="url(#p6b0afd67b9)" style="fill: none; stroke-dasharray: 4,6.6; stroke-dashoffset: 0; stroke: #ff0000; stroke-width: 4"/>
   </g>
   <g id="patch_10">
    <path d="M 827.015 264.76 
L 1069.2 264.76 
" style="fill: none; stroke: #000000; stroke-width: 3; stroke-linejoin: miter; stroke-linecap: square"/>
   </g>
   <g id="text_17">
    <!-- LAL018 -->
    <g transform="translate(903.35125 87.12) scale(0.24 -0.24)">
     <use xlink:href="#DejaVuSans-4c"/>
     <use xlink:href="#DejaVuSans-41" x="57.962891"/>
     <use xlink:href="#DejaVuSans-4c" x="126.371094"/>
     <use xlink:href="#DejaVuSans-30" x="182.083984"/>
     <use xlink:href="#DejaVuSans-31" x="245.707031"/>
     <use xlink:href="#DejaVuSans-38" x="309.330078"/>
    </g>
   </g>
  </g>
  <g id="text_18">
   <!--  = 90 -->
   <g transform="translate(471.869531 29.995313) scale(0.3 -0.3)">
    <defs>
     <path id="DejaVuSans-394" d="M 2188 4044 
L 906 525 
L 3472 525 
L 2188 4044 
z
M 50 0 
L 1831 4666 
L 2547 4666 
L 4325 0 
L 50 0 
z
" transform="scale(0.015625)"/>
     <path id="DejaVuSans-3b8" d="M 2953 2219 
L 963 2219 
Q 1009 1284 1225 888 
Q 1494 400 1959 400 
Q 2428 400 2688 891 
Q 2916 1322 2953 2219 
z
M 2944 2750 
Q 2856 3638 2688 3950 
Q 2419 4444 1959 4444 
Q 1481 4444 1228 3956 
Q 1028 3563 969 2750 
L 2944 2750 
z
M 1959 4913 
Q 2709 4913 3138 4250 
Q 3566 3591 3566 2422 
Q 3566 1256 3138 594 
Q 2709 -72 1959 -72 
Q 1206 -72 781 594 
Q 353 1256 353 2422 
Q 353 3591 781 4250 
Q 1206 4913 1959 4913 
z
" transform="scale(0.015625)"/>
     <path id="DejaVuSans-3d" d="M 678 2906 
L 4684 2906 
L 4684 2381 
L 678 2381 
L 678 2906 
z
M 678 1631 
L 4684 1631 
L 4684 1100 
L 678 1100 
L 678 1631 
z
" transform="scale(0.015625)"/>
     <path id="DejaVuSans-39" d="M 703 97 
L 703 672 
Q 941 559 1184 500 
Q 1428 441 1663 441 
Q 2288 441 2617 861 
Q 2947 1281 2994 2138 
Q 2813 1869 2534 1725 
Q 2256 1581 1919 1581 
Q 1219 1581 811 2004 
Q 403 2428 403 3163 
Q 403 3881 828 4315 
Q 1253 4750 1959 4750 
Q 2769 4750 3195 4129 
Q 3622 3509 3622 2328 
Q 3622 1225 3098 567 
Q 2575 -91 1691 -91 
Q 1453 -91 1209 -44 
Q 966 3 703 97 
z
M 1959 2075 
Q 2384 2075 2632 2365 
Q 2881 2656 2881 3163 
Q 2881 3666 2632 3958 
Q 2384 4250 1959 4250 
Q 1534 4250 1286 3958 
Q 1038 3666 1038 3163 
Q 1038 2656 1286 2365 
Q 1534 2075 1959 2075 
z
" transform="scale(0.015625)"/>
     <path id="DejaVuSans-b0" d="M 1600 4347 
Q 1350 4347 1178 4173 
Q 1006 4000 1006 3750 
Q 1006 3503 1178 3333 
Q 1350 3163 1600 3163 
Q 1850 3163 2022 3333 
Q 2194 3503 2194 3750 
Q 2194 3997 2020 4172 
Q 1847 4347 1600 4347 
z
M 1600 4750 
Q 1800 4750 1984 4673 
Q 2169 4597 2303 4453 
Q 2447 4313 2519 4134 
Q 2591 3956 2591 3750 
Q 2591 3338 2302 3052 
Q 2013 2766 1594 2766 
Q 1172 2766 890 3047 
Q 609 3328 609 3750 
Q 609 4169 896 4459 
Q 1184 4750 1600 4750 
z
" transform="scale(0.015625)"/>
    </defs>
    <use xlink:href="#DejaVuSans-394"/>
    <use xlink:href="#DejaVuSans-3b8" x="68.408203"/>
    <use xlink:href="#DejaVuSans-20" x="129.589844"/>
    <use xlink:href="#DejaVuSans-3d" x="161.376953"/>
    <use xlink:href="#DejaVuSans-20" x="245.166016"/>
    <use xlink:href="#DejaVuSans-39" x="276.953125"/>
    <use xlink:href="#DejaVuSans-30" x="340.576172"/>
    <use xlink:href="#DejaVuSans-b0" x="404.199219"/>
   </g>
  </g>
  <g id="legend_1">
   <g id="line2d_43">
    <path style="fill: none; stroke: #0000ff; stroke-width: 4; stroke-linecap: square"/>
   </g>
   <g id="text_19">
    <!-- Full model L -->
    <g transform="translate(505.4825 -9.4425) scale(0.16 -0.16)">
     <defs>
      <path id="DejaVuSans-75" d="M 544 1381 
L 544 3500 
L 1119 3500 
L 1119 1403 
Q 1119 906 1312 657 
Q 1506 409 1894 409 
Q 2359 409 2629 706 
Q 2900 1003 2900 1516 
L 2900 3500 
L 3475 3500 
L 3475 0 
L 2900 0 
L 2900 538 
Q 2691 219 2414 64 
Q 2138 -91 1772 -91 
Q 1169 -91 856 284 
Q 544 659 544 1381 
z
M 1991 3584 
L 1991 3584 
z
" transform="scale(0.015625)"/>
      <path id="DejaVuSans-6c" d="M 603 4863 
L 1178 4863 
L 1178 0 
L 603 0 
L 603 4863 
z
" transform="scale(0.015625)"/>
      <path id="DejaVuSans-6f" d="M 1959 3097 
Q 1497 3097 1228 2736 
Q 959 2375 959 1747 
Q 959 1119 1226 758 
Q 1494 397 1959 397 
Q 2419 397 2687 759 
Q 2956 1122 2956 1747 
Q 2956 2369 2687 2733 
Q 2419 3097 1959 3097 
z
M 1959 3584 
Q 2709 3584 3137 3096 
Q 3566 2609 3566 1747 
Q 3566 888 3137 398 
Q 2709 -91 1959 -91 
Q 1206 -91 779 398 
Q 353 888 353 1747 
Q 353 2609 779 3096 
Q 1206 3584 1959 3584 
z
" transform="scale(0.015625)"/>
      <path id="DejaVuSans-64" d="M 2906 2969 
L 2906 4863 
L 3481 4863 
L 3481 0 
L 2906 0 
L 2906 525 
Q 2725 213 2448 61 
Q 2172 -91 1784 -91 
Q 1150 -91 751 415 
Q 353 922 353 1747 
Q 353 2572 751 3078 
Q 1150 3584 1784 3584 
Q 2172 3584 2448 3432 
Q 2725 3281 2906 2969 
z
M 947 1747 
Q 947 1113 1208 752 
Q 1469 391 1925 391 
Q 2381 391 2643 752 
Q 2906 1113 2906 1747 
Q 2906 2381 2643 2742 
Q 2381 3103 1925 3103 
Q 1469 3103 1208 2742 
Q 947 2381 947 1747 
z
" transform="scale(0.015625)"/>
     </defs>
     <use xlink:href="#DejaVuSans-46"/>
     <use xlink:href="#DejaVuSans-75" x="52.019531"/>
     <use xlink:href="#DejaVuSans-6c" x="115.398438"/>
     <use xlink:href="#DejaVuSans-6c" x="143.181641"/>
     <use xlink:href="#DejaVuSans-20" x="170.964844"/>
     <use xlink:href="#DejaVuSans-6d" x="202.751953"/>
     <use xlink:href="#DejaVuSans-6f" x="300.164062"/>
     <use xlink:href="#DejaVuSans-64" x="361.345703"/>
     <use xlink:href="#DejaVuSans-65" x="424.822266"/>
     <use xlink:href="#DejaVuSans-6c" x="486.345703"/>
     <use xlink:href="#DejaVuSans-20" x="514.128906"/>
     <use xlink:href="#DejaVuSans-4c" x="545.916016"/>
    </g>
   </g>
   <g id="line2d_44">
    <path style="fill: none; stroke: #ff0000; stroke-width: 4; stroke-linecap: square"/>
   </g>
   <g id="text_20">
    <!-- Full model R -->
    <g transform="translate(678.5425 -9.4425) scale(0.16 -0.16)">
     <defs>
      <path id="DejaVuSans-52" d="M 2841 2188 
Q 3044 2119 3236 1894 
Q 3428 1669 3622 1275 
L 4263 0 
L 3584 0 
L 2988 1197 
Q 2756 1666 2539 1819 
Q 2322 1972 1947 1972 
L 1259 1972 
L 1259 0 
L 628 0 
L 628 4666 
L 2053 4666 
Q 2853 4666 3247 4331 
Q 3641 3997 3641 3322 
Q 3641 2881 3436 2590 
Q 3231 2300 2841 2188 
z
M 1259 4147 
L 1259 2491 
L 2053 2491 
Q 2509 2491 2742 2702 
Q 2975 2913 2975 3322 
Q 2975 3731 2742 3939 
Q 2509 4147 2053 4147 
L 1259 4147 
z
" transform="scale(0.015625)"/>
     </defs>
     <use xlink:href="#DejaVuSans-46"/>
     <use xlink:href="#DejaVuSans-75" x="52.019531"/>
     <use xlink:href="#DejaVuSans-6c" x="115.398438"/>
     <use xlink:href="#DejaVuSans-6c" x="143.181641"/>
     <use xlink:href="#DejaVuSans-20" x="170.964844"/>
     <use xlink:href="#DejaVuSans-6d" x="202.751953"/>
     <use xlink:href="#DejaVuSans-6f" x="300.164062"/>
     <use xlink:href="#DejaVuSans-64" x="361.345703"/>
     <use xlink:href="#DejaVuSans-65" x="424.822266"/>
     <use xlink:href="#DejaVuSans-6c" x="486.345703"/>
     <use xlink:href="#DejaVuSans-20" x="514.128906"/>
     <use xlink:href="#DejaVuSans-52" x="545.916016"/>
    </g>
   </g>
   <g id="line2d_45">
    <path style="fill: none; stroke-dasharray: 4,6.6; stroke-dashoffset: 0; stroke: #0000ff; stroke-width: 4"/>
   </g>
   <g id="text_21">
    <!-- - 121 output L -->
    <g transform="translate(853.805 -9.4425) scale(0.16 -0.16)">
     <defs>
      <path id="DejaVuSans-2d" d="M 313 2009 
L 1997 2009 
L 1997 1497 
L 313 1497 
L 313 2009 
z
" transform="scale(0.015625)"/>
      <path id="DejaVuSans-70" d="M 1159 525 
L 1159 -1331 
L 581 -1331 
L 581 3500 
L 1159 3500 
L 1159 2969 
Q 1341 3281 1617 3432 
Q 1894 3584 2278 3584 
Q 2916 3584 3314 3078 
Q 3713 2572 3713 1747 
Q 3713 922 3314 415 
Q 2916 -91 2278 -91 
Q 1894 -91 1617 61 
Q 1341 213 1159 525 
z
M 3116 1747 
Q 3116 2381 2855 2742 
Q 2594 3103 2138 3103 
Q 1681 3103 1420 2742 
Q 1159 2381 1159 1747 
Q 1159 1113 1420 752 
Q 1681 391 2138 391 
Q 2594 391 2855 752 
Q 3116 1113 3116 1747 
z
" transform="scale(0.015625)"/>
     </defs>
     <use xlink:href="#DejaVuSans-2d"/>
     <use xlink:href="#DejaVuSans-20" x="36.083984"/>
     <use xlink:href="#DejaVuSans-31" x="67.871094"/>
     <use xlink:href="#DejaVuSans-32" x="131.494141"/>
     <use xlink:href="#DejaVuSans-31" x="195.117188"/>
     <use xlink:href="#DejaVuSans-20" x="258.740234"/>
     <use xlink:href="#DejaVuSans-6f" x="290.527344"/>
     <use xlink:href="#DejaVuSans-75" x="351.708984"/>
     <use xlink:href="#DejaVuSans-74" x="415.087891"/>
     <use xlink:href="#DejaVuSans-70" x="454.296875"/>
     <use xlink:href="#DejaVuSans-75" x="517.773438"/>
     <use xlink:href="#DejaVuSans-74" x="581.152344"/>
     <use xlink:href="#DejaVuSans-20" x="620.361328"/>
     <use xlink:href="#DejaVuSans-4c" x="652.148438"/>
    </g>
   </g>
   <g id="line2d_46">
    <path style="fill: none; stroke-dasharray: 4,6.6; stroke-dashoffset: 0; stroke: #ff0000; stroke-width: 4"/>
   </g>
   <g id="text_22">
    <!-- - 121 output R -->
    <g transform="translate(1043.86 -9.4425) scale(0.16 -0.16)">
     <use xlink:href="#DejaVuSans-2d"/>
     <use xlink:href="#DejaVuSans-20" x="36.083984"/>
     <use xlink:href="#DejaVuSans-31" x="67.871094"/>
     <use xlink:href="#DejaVuSans-32" x="131.494141"/>
     <use xlink:href="#DejaVuSans-31" x="195.117188"/>
     <use xlink:href="#DejaVuSans-20" x="258.740234"/>
     <use xlink:href="#DejaVuSans-6f" x="290.527344"/>
     <use xlink:href="#DejaVuSans-75" x="351.708984"/>
     <use xlink:href="#DejaVuSans-74" x="415.087891"/>
     <use xlink:href="#DejaVuSans-70" x="454.296875"/>
     <use xlink:href="#DejaVuSans-75" x="517.773438"/>
     <use xlink:href="#DejaVuSans-74" x="581.152344"/>
     <use xlink:href="#DejaVuSans-20" x="620.361328"/>
     <use xlink:href="#DejaVuSans-52" x="652.148438"/>
    </g>
   </g>
  </g>
 </g>
 <defs>
  <clipPath id="p22fcf1ac79">
   <rect x="68.06" y="93.12" width="242.185" height="171.64"/>
  </clipPath>
  <clipPath id="p3c9b3c0717">
   <rect x="321.045" y="93.12" width="242.185" height="171.64"/>
  </clipPath>
  <clipPath id="p43354284f7">
   <rect x="574.03" y="93.12" width="242.185" height="171.64"/>
  </clipPath>
  <clipPath id="p6b0afd67b9">
   <rect x="827.015" y="93.12" width="242.185" height="171.64"/>
  </clipPath>
 </defs>
</svg>
