<?xml version="1.0" encoding="utf-8" standalone="no"?>
<!DOCTYPE svg PUBLIC "-//W3C//DTD SVG 1.1//EN"
  "http://www.w3.org/Graphics/SVG/1.1/DTD/svg11.dtd">
<svg xmlns:xlink="http://www.w3.org/1999/xlink" width="1080pt" height="360pt" viewBox="0 0 1080 360" xmlns="http://www.w3.org/2000/svg" version="1.1">
 <metadata>
  <rdf:RDF xmlns:dc="http://purl.org/dc/elements/1.1/" xmlns:cc="http://creativecommons.org/ns#" xmlns:rdf="http://www.w3.org/1999/02/22-rdf-syntax-ns#">
   <cc:Work>
    <dc:type rdf:resource="http://purl.org/dc/dcmitype/StillImage"/>
    <dc:date>2025-06-03T14:30:29.986044</dc:date>
    <dc:format>image/svg+xml</dc:format>
    <dc:creator>
     <cc:Agent>
      <dc:title>Matplotlib v3.7.1, https://matplotlib.org/</dc:title>
     </cc:Agent>
    </dc:creator>
   </cc:Work>
  </rdf:RDF>
 </metadata>
 <defs>
  <style type="text/css">*{stroke-linejoin: round; stroke-linecap: butt}</style>
 </defs>
 <g id="figure_1">
  <g id="patch_1">
   <path d="M 0 360 
L 1080 360 
L 1080 0 
L 0 0 
z
" style="fill: #ffffff"/>
  </g>
  <g id="axes_1">
   <g id="patch_2">
    <path d="M 71.56 261.26 
L 312.87 261.26 
L 312.87 93.12 
L 71.56 93.12 
z
" style="fill: #ffffff"/>
   </g>
   <g id="matplotlib.axis_1">
    <g id="xtick_1">
     <g id="line2d_1">
      <defs>
       <path id="mb8f06a7104" d="M 0 0 
L 0 7 
" style="stroke: #000000; stroke-width: 3"/>
      </defs>
      <g>
       <use xlink:href="#mb8f06a7104" x="82.528636" y="261.26" style="stroke: #000000; stroke-width: 3"/>
      </g>
     </g>
     <g id="text_1">
      <!-- 0 -->
      <g transform="translate(77.438636 283.9175) scale(0.16 -0.16)">
       <defs>
        <path id="DejaVuSans-30" d="M 2034 4250 
Q 1547 4250 1301 3770 
Q 1056 3291 1056 2328 
Q 1056 1369 1301 889 
Q 1547 409 2034 409 
Q 2525 409 2770 889 
Q 3016 1369 3016 2328 
Q 3016 3291 2770 3770 
Q 2525 4250 2034 4250 
z
M 2034 4750 
Q 2819 4750 3233 4129 
Q 3647 3509 3647 2328 
Q 3647 1150 3233 529 
Q 2819 -91 2034 -91 
Q 1250 -91 836 529 
Q 422 1150 422 2328 
Q 422 3509 836 4129 
Q 1250 4750 2034 4750 
z
" transform="scale(0.015625)"/>
       </defs>
       <use xlink:href="#DejaVuSans-30"/>
      </g>
     </g>
    </g>
    <g id="xtick_2">
     <g id="line2d_2">
      <g>
       <use xlink:href="#mb8f06a7104" x="137.378674" y="261.26" style="stroke: #000000; stroke-width: 3"/>
      </g>
     </g>
     <g id="text_2">
      <!-- 200 -->
      <g transform="translate(122.108674 283.9175) scale(0.16 -0.16)">
       <defs>
        <path id="DejaVuSans-32" d="M 1228 531 
L 3431 531 
L 3431 0 
L 469 0 
L 469 531 
Q 828 903 1448 1529 
Q 2069 2156 2228 2338 
Q 2531 2678 2651 2914 
Q 2772 3150 2772 3378 
Q 2772 3750 2511 3984 
Q 2250 4219 1831 4219 
Q 1534 4219 1204 4116 
Q 875 4013 500 3803 
L 500 4441 
Q 881 4594 1212 4672 
Q 1544 4750 1819 4750 
Q 2544 4750 2975 4387 
Q 3406 4025 3406 3419 
Q 3406 3131 3298 2873 
Q 3191 2616 2906 2266 
Q 2828 2175 2409 1742 
Q 1991 1309 1228 531 
z
" transform="scale(0.015625)"/>
       </defs>
       <use xlink:href="#DejaVuSans-32"/>
       <use xlink:href="#DejaVuSans-30" x="63.623047"/>
       <use xlink:href="#DejaVuSans-30" x="127.246094"/>
      </g>
     </g>
    </g>
    <g id="xtick_3">
     <g id="line2d_3">
      <g>
       <use xlink:href="#mb8f06a7104" x="192.228713" y="261.26" style="stroke: #000000; stroke-width: 3"/>
      </g>
     </g>
     <g id="text_3">
      <!-- 400 -->
      <g transform="translate(176.958713 283.9175) scale(0.16 -0.16)">
       <defs>
        <path id="DejaVuSans-34" d="M 2419 4116 
L 825 1625 
L 2419 1625 
L 2419 4116 
z
M 2253 4666 
L 3047 4666 
L 3047 1625 
L 3713 1625 
L 3713 1100 
L 3047 1100 
L 3047 0 
L 2419 0 
L 2419 1100 
L 313 1100 
L 313 1709 
L 2253 4666 
z
" transform="scale(0.015625)"/>
       </defs>
       <use xlink:href="#DejaVuSans-34"/>
       <use xlink:href="#DejaVuSans-30" x="63.623047"/>
       <use xlink:href="#DejaVuSans-30" x="127.246094"/>
      </g>
     </g>
    </g>
    <g id="xtick_4">
     <g id="line2d_4">
      <g>
       <use xlink:href="#mb8f06a7104" x="247.078751" y="261.26" style="stroke: #000000; stroke-width: 3"/>
      </g>
     </g>
     <g id="text_4">
      <!-- 600 -->
      <g transform="translate(231.808751 283.9175) scale(0.16 -0.16)">
       <defs>
        <path id="DejaVuSans-36" d="M 2113 2584 
Q 1688 2584 1439 2293 
Q 1191 2003 1191 1497 
Q 1191 994 1439 701 
Q 1688 409 2113 409 
Q 2538 409 2786 701 
Q 3034 994 3034 1497 
Q 3034 2003 2786 2293 
Q 2538 2584 2113 2584 
z
M 3366 4563 
L 3366 3988 
Q 3128 4100 2886 4159 
Q 2644 4219 2406 4219 
Q 1781 4219 1451 3797 
Q 1122 3375 1075 2522 
Q 1259 2794 1537 2939 
Q 1816 3084 2150 3084 
Q 2853 3084 3261 2657 
Q 3669 2231 3669 1497 
Q 3669 778 3244 343 
Q 2819 -91 2113 -91 
Q 1303 -91 875 529 
Q 447 1150 447 2328 
Q 447 3434 972 4092 
Q 1497 4750 2381 4750 
Q 2619 4750 2861 4703 
Q 3103 4656 3366 4563 
z
" transform="scale(0.015625)"/>
       </defs>
       <use xlink:href="#DejaVuSans-36"/>
       <use xlink:href="#DejaVuSans-30" x="63.623047"/>
       <use xlink:href="#DejaVuSans-30" x="127.246094"/>
      </g>
     </g>
    </g>
    <g id="xtick_5">
     <g id="line2d_5">
      <g>
       <use xlink:href="#mb8f06a7104" x="301.928789" y="261.26" style="stroke: #000000; stroke-width: 3"/>
      </g>
     </g>
     <g id="text_5">
      <!-- 800 -->
      <g transform="translate(286.658789 283.9175) scale(0.16 -0.16)">
       <defs>
        <path id="DejaVuSans-38" d="M 2034 2216 
Q 1584 2216 1326 1975 
Q 1069 1734 1069 1313 
Q 1069 891 1326 650 
Q 1584 409 2034 409 
Q 2484 409 2743 651 
Q 3003 894 3003 1313 
Q 3003 1734 2745 1975 
Q 2488 2216 2034 2216 
z
M 1403 2484 
Q 997 2584 770 2862 
Q 544 3141 544 3541 
Q 544 4100 942 4425 
Q 1341 4750 2034 4750 
Q 2731 4750 3128 4425 
Q 3525 4100 3525 3541 
Q 3525 3141 3298 2862 
Q 3072 2584 2669 2484 
Q 3125 2378 3379 2068 
Q 3634 1759 3634 1313 
Q 3634 634 3220 271 
Q 2806 -91 2034 -91 
Q 1263 -91 848 271 
Q 434 634 434 1313 
Q 434 1759 690 2068 
Q 947 2378 1403 2484 
z
M 1172 3481 
Q 1172 3119 1398 2916 
Q 1625 2713 2034 2713 
Q 2441 2713 2670 2916 
Q 2900 3119 2900 3481 
Q 2900 3844 2670 4047 
Q 2441 4250 2034 4250 
Q 1625 4250 1398 4047 
Q 1172 3844 1172 3481 
z
" transform="scale(0.015625)"/>
       </defs>
       <use xlink:href="#DejaVuSans-38"/>
       <use xlink:href="#DejaVuSans-30" x="63.623047"/>
       <use xlink:href="#DejaVuSans-30" x="127.246094"/>
      </g>
     </g>
    </g>
    <g id="text_6">
     <!-- Time (ms) -->
     <g transform="translate(136.776719 307.961563) scale(0.22 -0.22)">
      <defs>
       <path id="DejaVuSans-54" d="M -19 4666 
L 3928 4666 
L 3928 4134 
L 2272 4134 
L 2272 0 
L 1638 0 
L 1638 4134 
L -19 4134 
L -19 4666 
z
" transform="scale(0.015625)"/>
       <path id="DejaVuSans-69" d="M 603 3500 
L 1178 3500 
L 1178 0 
L 603 0 
L 603 3500 
z
M 603 4863 
L 1178 4863 
L 1178 4134 
L 603 4134 
L 603 4863 
z
" transform="scale(0.015625)"/>
       <path id="DejaVuSans-6d" d="M 3328 2828 
Q 3544 3216 3844 3400 
Q 4144 3584 4550 3584 
Q 5097 3584 5394 3201 
Q 5691 2819 5691 2113 
L 5691 0 
L 5113 0 
L 5113 2094 
Q 5113 2597 4934 2840 
Q 4756 3084 4391 3084 
Q 3944 3084 3684 2787 
Q 3425 2491 3425 1978 
L 3425 0 
L 2847 0 
L 2847 2094 
Q 2847 2600 2669 2842 
Q 2491 3084 2119 3084 
Q 1678 3084 1418 2786 
Q 1159 2488 1159 1978 
L 1159 0 
L 581 0 
L 581 3500 
L 1159 3500 
L 1159 2956 
Q 1356 3278 1631 3431 
Q 1906 3584 2284 3584 
Q 2666 3584 2933 3390 
Q 3200 3197 3328 2828 
z
" transform="scale(0.015625)"/>
       <path id="DejaVuSans-65" d="M 3597 1894 
L 3597 1613 
L 953 1613 
Q 991 1019 1311 708 
Q 1631 397 2203 397 
Q 2534 397 2845 478 
Q 3156 559 3463 722 
L 3463 178 
Q 3153 47 2828 -22 
Q 2503 -91 2169 -91 
Q 1331 -91 842 396 
Q 353 884 353 1716 
Q 353 2575 817 3079 
Q 1281 3584 2069 3584 
Q 2775 3584 3186 3129 
Q 3597 2675 3597 1894 
z
M 3022 2063 
Q 3016 2534 2758 2815 
Q 2500 3097 2075 3097 
Q 1594 3097 1305 2825 
Q 1016 2553 972 2059 
L 3022 2063 
z
" transform="scale(0.015625)"/>
       <path id="DejaVuSans-20" transform="scale(0.015625)"/>
       <path id="DejaVuSans-28" d="M 1984 4856 
Q 1566 4138 1362 3434 
Q 1159 2731 1159 2009 
Q 1159 1288 1364 580 
Q 1569 -128 1984 -844 
L 1484 -844 
Q 1016 -109 783 600 
Q 550 1309 550 2009 
Q 550 2706 781 3412 
Q 1013 4119 1484 4856 
L 1984 4856 
z
" transform="scale(0.015625)"/>
       <path id="DejaVuSans-73" d="M 2834 3397 
L 2834 2853 
Q 2591 2978 2328 3040 
Q 2066 3103 1784 3103 
Q 1356 3103 1142 2972 
Q 928 2841 928 2578 
Q 928 2378 1081 2264 
Q 1234 2150 1697 2047 
L 1894 2003 
Q 2506 1872 2764 1633 
Q 3022 1394 3022 966 
Q 3022 478 2636 193 
Q 2250 -91 1575 -91 
Q 1294 -91 989 -36 
Q 684 19 347 128 
L 347 722 
Q 666 556 975 473 
Q 1284 391 1588 391 
Q 1994 391 2212 530 
Q 2431 669 2431 922 
Q 2431 1156 2273 1281 
Q 2116 1406 1581 1522 
L 1381 1569 
Q 847 1681 609 1914 
Q 372 2147 372 2553 
Q 372 3047 722 3315 
Q 1072 3584 1716 3584 
Q 2034 3584 2315 3537 
Q 2597 3491 2834 3397 
z
" transform="scale(0.015625)"/>
       <path id="DejaVuSans-29" d="M 513 4856 
L 1013 4856 
Q 1481 4119 1714 3412 
Q 1947 2706 1947 2009 
Q 1947 1309 1714 600 
Q 1481 -109 1013 -844 
L 513 -844 
Q 928 -128 1133 580 
Q 1338 1288 1338 2009 
Q 1338 2731 1133 3434 
Q 928 4138 513 4856 
z
" transform="scale(0.015625)"/>
      </defs>
      <use xlink:href="#DejaVuSans-54"/>
      <use xlink:href="#DejaVuSans-69" x="57.958984"/>
      <use xlink:href="#DejaVuSans-6d" x="85.742188"/>
      <use xlink:href="#DejaVuSans-65" x="183.154297"/>
      <use xlink:href="#DejaVuSans-20" x="244.677734"/>
      <use xlink:href="#DejaVuSans-28" x="276.464844"/>
      <use xlink:href="#DejaVuSans-6d" x="315.478516"/>
      <use xlink:href="#DejaVuSans-73" x="412.890625"/>
      <use xlink:href="#DejaVuSans-29" x="464.990234"/>
     </g>
    </g>
   </g>
   <g id="matplotlib.axis_2">
    <g id="ytick_1">
     <g id="line2d_6">
      <defs>
       <path id="mdc8039b5d9" d="M 0 0 
L -7 0 
" style="stroke: #000000; stroke-width: 3"/>
      </defs>
      <g>
       <use xlink:href="#mdc8039b5d9" x="71.56" y="261.26" style="stroke: #000000; stroke-width: 3"/>
      </g>
     </g>
     <g id="text_7">
      <!-- 0.0 -->
      <g transform="translate(35.615 267.33875) scale(0.16 -0.16)">
       <defs>
        <path id="DejaVuSans-2e" d="M 684 794 
L 1344 794 
L 1344 0 
L 684 0 
L 684 794 
z
" transform="scale(0.015625)"/>
       </defs>
       <use xlink:href="#DejaVuSans-30"/>
       <use xlink:href="#DejaVuSans-2e" x="63.623047"/>
       <use xlink:href="#DejaVuSans-30" x="95.410156"/>
      </g>
     </g>
    </g>
    <g id="ytick_2">
     <g id="line2d_7">
      <g>
       <use xlink:href="#mdc8039b5d9" x="71.56" y="227.632" style="stroke: #000000; stroke-width: 3"/>
      </g>
     </g>
     <g id="text_8">
      <!-- 0.2 -->
      <g transform="translate(35.615 233.71075) scale(0.16 -0.16)">
       <use xlink:href="#DejaVuSans-30"/>
       <use xlink:href="#DejaVuSans-2e" x="63.623047"/>
       <use xlink:href="#DejaVuSans-32" x="95.410156"/>
      </g>
     </g>
    </g>
    <g id="ytick_3">
     <g id="line2d_8">
      <g>
       <use xlink:href="#mdc8039b5d9" x="71.56" y="194.004" style="stroke: #000000; stroke-width: 3"/>
      </g>
     </g>
     <g id="text_9">
      <!-- 0.4 -->
      <g transform="translate(35.615 200.08275) scale(0.16 -0.16)">
       <use xlink:href="#DejaVuSans-30"/>
       <use xlink:href="#DejaVuSans-2e" x="63.623047"/>
       <use xlink:href="#DejaVuSans-34" x="95.410156"/>
      </g>
     </g>
    </g>
    <g id="ytick_4">
     <g id="line2d_9">
      <g>
       <use xlink:href="#mdc8039b5d9" x="71.56" y="160.376" style="stroke: #000000; stroke-width: 3"/>
      </g>
     </g>
     <g id="text_10">
      <!-- 0.6 -->
      <g transform="translate(35.615 166.45475) scale(0.16 -0.16)">
       <use xlink:href="#DejaVuSans-30"/>
       <use xlink:href="#DejaVuSans-2e" x="63.623047"/>
       <use xlink:href="#DejaVuSans-36" x="95.410156"/>
      </g>
     </g>
    </g>
    <g id="ytick_5">
     <g id="line2d_10">
      <g>
       <use xlink:href="#mdc8039b5d9" x="71.56" y="126.748" style="stroke: #000000; stroke-width: 3"/>
      </g>
     </g>
     <g id="text_11">
      <!-- 0.8 -->
      <g transform="translate(35.615 132.82675) scale(0.16 -0.16)">
       <use xlink:href="#DejaVuSans-30"/>
       <use xlink:href="#DejaVuSans-2e" x="63.623047"/>
       <use xlink:href="#DejaVuSans-38" x="95.410156"/>
      </g>
     </g>
    </g>
    <g id="ytick_6">
     <g id="line2d_11">
      <g>
       <use xlink:href="#mdc8039b5d9" x="71.56" y="93.12" style="stroke: #000000; stroke-width: 3"/>
      </g>
     </g>
     <g id="text_12">
      <!-- 1.0 -->
      <g transform="translate(35.615 99.19875) scale(0.16 -0.16)">
       <defs>
        <path id="DejaVuSans-31" d="M 794 531 
L 1825 531 
L 1825 4091 
L 703 3866 
L 703 4441 
L 1819 4666 
L 2450 4666 
L 2450 531 
L 3481 531 
L 3481 0 
L 794 0 
L 794 531 
z
" transform="scale(0.015625)"/>
       </defs>
       <use xlink:href="#DejaVuSans-31"/>
       <use xlink:href="#DejaVuSans-2e" x="63.623047"/>
       <use xlink:href="#DejaVuSans-30" x="95.410156"/>
      </g>
     </g>
    </g>
    <g id="text_13">
     <!-- Firing rate -->
     <g transform="translate(27.039687 233.147344) rotate(-90) scale(0.22 -0.22)">
      <defs>
       <path id="DejaVuSans-46" d="M 628 4666 
L 3309 4666 
L 3309 4134 
L 1259 4134 
L 1259 2759 
L 3109 2759 
L 3109 2228 
L 1259 2228 
L 1259 0 
L 628 0 
L 628 4666 
z
" transform="scale(0.015625)"/>
       <path id="DejaVuSans-72" d="M 2631 2963 
Q 2534 3019 2420 3045 
Q 2306 3072 2169 3072 
Q 1681 3072 1420 2755 
Q 1159 2438 1159 1844 
L 1159 0 
L 581 0 
L 581 3500 
L 1159 3500 
L 1159 2956 
Q 1341 3275 1631 3429 
Q 1922 3584 2338 3584 
Q 2397 3584 2469 3576 
Q 2541 3569 2628 3553 
L 2631 2963 
z
" transform="scale(0.015625)"/>
       <path id="DejaVuSans-6e" d="M 3513 2113 
L 3513 0 
L 2938 0 
L 2938 2094 
Q 2938 2591 2744 2837 
Q 2550 3084 2163 3084 
Q 1697 3084 1428 2787 
Q 1159 2491 1159 1978 
L 1159 0 
L 581 0 
L 581 3500 
L 1159 3500 
L 1159 2956 
Q 1366 3272 1645 3428 
Q 1925 3584 2291 3584 
Q 2894 3584 3203 3211 
Q 3513 2838 3513 2113 
z
" transform="scale(0.015625)"/>
       <path id="DejaVuSans-67" d="M 2906 1791 
Q 2906 2416 2648 2759 
Q 2391 3103 1925 3103 
Q 1463 3103 1205 2759 
Q 947 2416 947 1791 
Q 947 1169 1205 825 
Q 1463 481 1925 481 
Q 2391 481 2648 825 
Q 2906 1169 2906 1791 
z
M 3481 434 
Q 3481 -459 3084 -895 
Q 2688 -1331 1869 -1331 
Q 1566 -1331 1297 -1286 
Q 1028 -1241 775 -1147 
L 775 -588 
Q 1028 -725 1275 -790 
Q 1522 -856 1778 -856 
Q 2344 -856 2625 -561 
Q 2906 -266 2906 331 
L 2906 616 
Q 2728 306 2450 153 
Q 2172 0 1784 0 
Q 1141 0 747 490 
Q 353 981 353 1791 
Q 353 2603 747 3093 
Q 1141 3584 1784 3584 
Q 2172 3584 2450 3431 
Q 2728 3278 2906 2969 
L 2906 3500 
L 3481 3500 
L 3481 434 
z
" transform="scale(0.015625)"/>
       <path id="DejaVuSans-61" d="M 2194 1759 
Q 1497 1759 1228 1600 
Q 959 1441 959 1056 
Q 959 750 1161 570 
Q 1363 391 1709 391 
Q 2188 391 2477 730 
Q 2766 1069 2766 1631 
L 2766 1759 
L 2194 1759 
z
M 3341 1997 
L 3341 0 
L 2766 0 
L 2766 531 
Q 2569 213 2275 61 
Q 1981 -91 1556 -91 
Q 1019 -91 701 211 
Q 384 513 384 1019 
Q 384 1609 779 1909 
Q 1175 2209 1959 2209 
L 2766 2209 
L 2766 2266 
Q 2766 2663 2505 2880 
Q 2244 3097 1772 3097 
Q 1472 3097 1187 3025 
Q 903 2953 641 2809 
L 641 3341 
Q 956 3463 1253 3523 
Q 1550 3584 1831 3584 
Q 2591 3584 2966 3190 
Q 3341 2797 3341 1997 
z
" transform="scale(0.015625)"/>
       <path id="DejaVuSans-74" d="M 1172 4494 
L 1172 3500 
L 2356 3500 
L 2356 3053 
L 1172 3053 
L 1172 1153 
Q 1172 725 1289 603 
Q 1406 481 1766 481 
L 2356 481 
L 2356 0 
L 1766 0 
Q 1100 0 847 248 
Q 594 497 594 1153 
L 594 3053 
L 172 3053 
L 172 3500 
L 594 3500 
L 594 4494 
L 1172 4494 
z
" transform="scale(0.015625)"/>
      </defs>
      <use xlink:href="#DejaVuSans-46"/>
      <use xlink:href="#DejaVuSans-69" x="50.269531"/>
      <use xlink:href="#DejaVuSans-72" x="78.052734"/>
      <use xlink:href="#DejaVuSans-69" x="119.166016"/>
      <use xlink:href="#DejaVuSans-6e" x="146.949219"/>
      <use xlink:href="#DejaVuSans-67" x="210.328125"/>
      <use xlink:href="#DejaVuSans-20" x="273.804688"/>
      <use xlink:href="#DejaVuSans-72" x="305.591797"/>
      <use xlink:href="#DejaVuSans-61" x="346.705078"/>
      <use xlink:href="#DejaVuSans-74" x="407.984375"/>
      <use xlink:href="#DejaVuSans-65" x="447.193359"/>
     </g>
    </g>
   </g>
   <g id="line2d_12">
    <path d="M 82.528636 261.26 
L 84.420963 260.601224 
L 86.368139 260.151359 
L 89.905966 259.593864 
L 98.435147 258.430418 
L 104.413802 257.271972 
L 106.169003 256.679601 
L 111.324906 254.571394 
L 114.725609 252.841279 
L 115.904885 251.923841 
L 117.797211 250.156189 
L 118.949062 248.874885 
L 121.828689 245.351818 
L 125.558491 240.465133 
L 126.381242 239.089014 
L 127.450818 236.935418 
L 130.57727 229.92825 
L 131.893671 226.410862 
L 133.456897 221.311502 
L 134.691023 216.737307 
L 136.857599 207.531362 
L 139.462976 196.433228 
L 141.821528 186.864794 
L 143.247629 180.140743 
L 146.867731 160.838437 
L 148.513232 151.195327 
L 151.310584 134.628003 
L 152.59956 128.50836 
L 153.861111 123.620578 
L 154.930687 120.235482 
L 156.192237 116.940307 
L 157.426363 114.276464 
L 159.291265 110.996436 
L 160.552816 109.241783 
L 161.924066 107.640085 
L 164.310043 105.206124 
L 166.120094 103.628771 
L 167.765596 102.411294 
L 169.273972 101.586541 
L 173.469999 99.773962 
L 175.718851 98.838636 
L 177.693452 98.077717 
L 179.860029 97.505512 
L 182.191156 97.122975 
L 184.275457 96.982941 
L 187.319634 97.016048 
L 189.26681 96.96 
L 192.201287 96.601528 
L 197.110366 95.935062 
L 203.52782 95.487039 
L 215.320579 94.689837 
L 228.594288 94.632135 
L 239.344895 95.00453 
L 244.994449 94.856308 
L 248.696827 94.810227 
L 254.894881 94.911655 
L 259.090909 95.02838 
L 262.711011 94.791079 
L 266.879614 94.517027 
L 270.746542 94.524213 
L 274.83287 94.534829 
L 282.621575 94.404809 
L 291.342731 94.531033 
L 294.249783 94.788342 
L 297.952161 95.209903 
L 300.365563 95.236537 
L 301.901364 95.162437 
L 301.901364 95.162437 
" clip-path="url(#p613f989476)" style="fill: none; stroke: #0000ff; stroke-width: 4; stroke-linecap: square"/>
   </g>
   <g id="line2d_13">
    <path d="M 82.528636 261.26 
L 84.448388 260.590687 
L 86.587539 260.088555 
L 90.043092 259.520175 
L 95.802346 258.872942 
L 98.654548 258.522601 
L 102.466625 257.947802 
L 108.253304 256.904456 
L 113.354358 256.035063 
L 121.197913 254.853218 
L 123.74844 254.442546 
L 128.575243 253.300133 
L 134.855573 252.986024 
L 140.669677 252.841747 
L 143.000803 252.738101 
L 145.469055 252.839434 
L 147.745332 252.882814 
L 149.363408 252.855591 
L 155.780862 253.054144 
L 159.15414 253.195625 
L 161.238441 253.203408 
L 163.788968 253.164343 
L 166.284645 253.000831 
L 172.098749 253.016946 
L 173.96365 252.997411 
L 178.433928 253.32689 
L 180.024579 253.377427 
L 183.370431 253.413119 
L 189.431361 253.225744 
L 192.365838 253.539094 
L 196.013365 253.963379 
L 198.042817 253.966045 
L 202.951895 253.688645 
L 206.462297 254.075827 
L 208.738574 254.300975 
L 211.151976 254.387042 
L 213.483102 254.435044 
L 215.594829 254.412988 
L 217.18548 254.34673 
L 220.421632 254.204609 
L 223.410959 254.088025 
L 233.640491 253.770111 
L 235.916768 253.584095 
L 244.226549 253.584411 
L 248.641977 253.920625 
L 252.508904 254.17223 
L 255.333681 254.107945 
L 260.105635 253.749501 
L 262.656161 253.993469 
L 266.715064 254.321483 
L 276.258971 254.167937 
L 278.041597 254.386079 
L 281.524574 254.641611 
L 283.992826 254.519756 
L 290.547406 253.901376 
L 293.728708 253.64405 
L 297.01971 253.33428 
L 299.021737 253.424014 
L 301.901364 253.688109 
L 301.901364 253.688109 
" clip-path="url(#p613f989476)" style="fill: none; stroke: #ff0000; stroke-width: 4; stroke-linecap: square"/>
   </g>
   <g id="line2d_14">
    <path d="M 82.528636 261.26 
L 84.393538 260.61414 
L 86.806939 260.034671 
L 89.905966 259.54257 
L 100.683999 258.029352 
L 105.647927 256.89181 
L 108.554979 255.873032 
L 110.474731 254.93561 
L 112.367057 253.708846 
L 114.149683 252.438005 
L 119.333012 248.295662 
L 121.143063 246.46205 
L 122.212639 245.0951 
L 123.30964 243.396734 
L 124.46149 241.127588 
L 125.750466 238.22036 
L 127.012017 234.841123 
L 127.889618 232.122558 
L 128.931769 228.243812 
L 130.220744 222.558952 
L 131.67427 215.205557 
L 133.264922 205.450198 
L 134.608748 195.703177 
L 136.199399 182.321409 
L 137.6255 168.555381 
L 140.477702 140.227164 
L 141.848953 129.031361 
L 142.973378 121.479432 
L 144.097804 115.349685 
L 145.249655 110.246359 
L 146.291806 106.558361 
L 147.333956 103.63967 
L 148.430957 101.228868 
L 149.445683 99.511525 
L 150.515259 98.12677 
L 151.667109 96.985093 
L 152.846385 96.124097 
L 154.190211 95.419585 
L 155.835712 94.807624 
L 157.645764 94.378802 
L 160.03174 94.047249 
L 163.651843 93.787448 
L 169.027146 93.668292 
L 188.855435 93.558998 
L 267.45554 93.422683 
L 301.901364 93.428582 
L 301.901364 93.428582 
" clip-path="url(#p613f989476)" style="fill: none; stroke-dasharray: 4,6.6; stroke-dashoffset: 0; stroke: #0000ff; stroke-width: 4"/>
   </g>
   <g id="line2d_15">
    <path d="M 82.528636 261.26 
L 84.585513 260.535801 
L 86.998914 259.981415 
L 90.399617 259.445977 
L 101.72615 258.102953 
L 104.962302 257.484864 
L 109.04863 256.764348 
L 111.324906 256.297193 
L 113.491483 255.664871 
L 119.908937 253.785366 
L 124.13239 251.95021 
L 129.836794 248.954312 
L 132.990671 247.08707 
L 134.828148 245.924157 
L 136.199399 244.855411 
L 137.488375 243.896424 
L 141.053627 241.46884 
L 144.564029 239.79056 
L 145.88043 239.342686 
L 147.855032 238.410906 
L 148.760057 237.897012 
L 149.966758 237.262033 
L 151.968785 236.083883 
L 153.20291 235.269246 
L 154.245061 234.694527 
L 155.890562 233.457293 
L 157.371513 232.101854 
L 158.331389 230.946428 
L 159.620365 229.352603 
L 161.704666 227.22225 
L 163.926093 224.713569 
L 165.297344 222.310128 
L 167.601045 217.608333 
L 169.301397 214.396604 
L 171.138873 211.618043 
L 174.265325 207.406531 
L 177.062677 204.478696 
L 177.583752 204.224437 
L 179.585779 203.782802 
L 180.271404 203.604627 
L 181.039305 203.316212 
L 181.50553 202.888622 
L 182.849356 201.455139 
L 183.864082 200.289122 
L 184.631982 199.271974 
L 185.811258 197.254313 
L 187.785859 193.641033 
L 190.226686 189.885263 
L 193.325713 183.777295 
L 193.819364 183.387493 
L 194.888939 182.816888 
L 196.47959 182.048245 
L 197.220066 181.449387 
L 198.097667 180.472537 
L 199.331792 179.21224 
L 201.690344 176.484646 
L 202.81477 174.811754 
L 203.774646 173.18132 
L 206.215472 168.698576 
L 207.477023 166.882612 
L 209.149949 164.641547 
L 209.890425 163.215995 
L 211.563351 159.126285 
L 213.428252 154.824806 
L 214.497828 152.924685 
L 218.364756 146.842054 
L 219.461756 145.79699 
L 220.311932 145.26645 
L 220.970132 145.124716 
L 223.630359 145.463229 
L 224.535385 145.313801 
L 225.00161 144.942398 
L 225.769511 143.934248 
L 226.893937 142.009976 
L 228.758838 138.115062 
L 229.938114 135.829608 
L 230.788289 134.630115 
L 231.473915 134.065161 
L 232.10469 133.764982 
L 232.735466 133.70524 
L 233.777616 133.973515 
L 234.408392 134.360763 
L 235.807068 135.421506 
L 237.342869 137.313495 
L 238.165619 138.785861 
L 239.37232 140.792161 
L 240.716146 142.568169 
L 241.730872 143.638022 
L 242.773023 144.783918 
L 243.842598 146.157864 
L 246.0366 149.545967 
L 247.764376 151.711739 
L 249.848678 154.321276 
L 250.945678 155.894027 
L 252.728305 157.817333 
L 253.989855 158.843175 
L 257.116308 161.520502 
L 258.816659 162.934607 
L 259.447434 163.382942 
L 260.40731 164.007328 
L 260.818685 164.097723 
L 261.394611 163.941445 
L 262.025386 163.482802 
L 264.054837 161.301245 
L 265.947164 158.810497 
L 266.715064 157.327042 
L 270.417442 148.93463 
L 271.487018 146.095784 
L 273.050244 141.124847 
L 275.10712 134.428654 
L 277.493097 127.68278 
L 278.617522 125.189072 
L 279.604823 123.510659 
L 280.564699 122.415453 
L 281.9908 120.994473 
L 285.610902 117.436337 
L 288.545379 114.558751 
L 289.669805 113.756545 
L 291.891232 112.502716 
L 292.741407 112.167583 
L 293.920683 111.953024 
L 294.962834 112.004943 
L 296.52606 112.373393 
L 297.787611 113.081227 
L 299.789637 114.739688 
L 301.901364 116.895401 
L 301.901364 116.895401 
" clip-path="url(#p613f989476)" style="fill: none; stroke-dasharray: 4,6.6; stroke-dashoffset: 0; stroke: #ff0000; stroke-width: 4"/>
   </g>
   <g id="patch_3">
    <path d="M 71.56 261.26 
L 71.56 93.12 
" style="fill: none; stroke: #000000; stroke-width: 3; stroke-linejoin: miter; stroke-linecap: square"/>
   </g>
   <g id="patch_4">
    <path d="M 71.56 261.26 
L 312.87 261.26 
" style="fill: none; stroke: #000000; stroke-width: 3; stroke-linejoin: miter; stroke-linecap: square"/>
   </g>
   <g id="text_14">
    <!-- DNa02 -->
    <g transform="translate(151.37375 87.12) scale(0.24 -0.24)">
     <defs>
      <path id="DejaVuSans-44" d="M 1259 4147 
L 1259 519 
L 2022 519 
Q 2988 519 3436 956 
Q 3884 1394 3884 2338 
Q 3884 3275 3436 3711 
Q 2988 4147 2022 4147 
L 1259 4147 
z
M 628 4666 
L 1925 4666 
Q 3281 4666 3915 4102 
Q 4550 3538 4550 2338 
Q 4550 1131 3912 565 
Q 3275 0 1925 0 
L 628 0 
L 628 4666 
z
" transform="scale(0.015625)"/>
      <path id="DejaVuSans-4e" d="M 628 4666 
L 1478 4666 
L 3547 763 
L 3547 4666 
L 4159 4666 
L 4159 0 
L 3309 0 
L 1241 3903 
L 1241 0 
L 628 0 
L 628 4666 
z
" transform="scale(0.015625)"/>
     </defs>
     <use xlink:href="#DejaVuSans-44"/>
     <use xlink:href="#DejaVuSans-4e" x="77.001953"/>
     <use xlink:href="#DejaVuSans-61" x="151.806641"/>
     <use xlink:href="#DejaVuSans-30" x="213.085938"/>
     <use xlink:href="#DejaVuSans-32" x="276.708984"/>
    </g>
   </g>
  </g>
  <g id="axes_2">
   <g id="patch_5">
    <path d="M 323.67 261.26 
L 564.98 261.26 
L 564.98 93.12 
L 323.67 93.12 
z
" style="fill: #ffffff"/>
   </g>
   <g id="matplotlib.axis_3">
    <g id="xtick_6">
     <g id="line2d_16">
      <g>
       <use xlink:href="#mb8f06a7104" x="334.638636" y="261.26" style="stroke: #000000; stroke-width: 3"/>
      </g>
     </g>
    </g>
    <g id="xtick_7">
     <g id="line2d_17">
      <g>
       <use xlink:href="#mb8f06a7104" x="389.488674" y="261.26" style="stroke: #000000; stroke-width: 3"/>
      </g>
     </g>
    </g>
    <g id="xtick_8">
     <g id="line2d_18">
      <g>
       <use xlink:href="#mb8f06a7104" x="444.338713" y="261.26" style="stroke: #000000; stroke-width: 3"/>
      </g>
     </g>
    </g>
    <g id="xtick_9">
     <g id="line2d_19">
      <g>
       <use xlink:href="#mb8f06a7104" x="499.188751" y="261.26" style="stroke: #000000; stroke-width: 3"/>
      </g>
     </g>
    </g>
    <g id="xtick_10">
     <g id="line2d_20">
      <g>
       <use xlink:href="#mb8f06a7104" x="554.038789" y="261.26" style="stroke: #000000; stroke-width: 3"/>
      </g>
     </g>
    </g>
   </g>
   <g id="matplotlib.axis_4"/>
   <g id="line2d_21">
    <path d="M 334.638636 261.26 
L 337.490838 259.471372 
L 339.602565 258.487097 
L 343.359792 256.661133 
L 349.640122 252.763808 
L 353.61675 249.481253 
L 354.302375 248.857638 
L 355.838176 247.067124 
L 357.456252 244.490186 
L 359.650254 240.636961 
L 362.063655 237.257143 
L 364.449632 233.922917 
L 366.040283 231.739708 
L 367.027584 230.202948 
L 369.24901 225.417423 
L 371.223612 221.956039 
L 373.225638 219.36432 
L 374.404914 218.181392 
L 378.025016 215.101987 
L 380.548118 211.248927 
L 381.096619 210.882844 
L 382.083919 210.463361 
L 383.18092 209.450468 
L 384.195646 208.293615 
L 385.210371 207.066309 
L 385.978272 206.339674 
L 386.499347 205.810899 
L 387.130123 205.086145 
L 388.281974 204.107548 
L 388.720774 203.978823 
L 389.049874 203.819701 
L 389.598375 203.629408 
L 390.421125 203.46415 
L 391.243876 203.287013 
L 391.737526 203.450138 
L 392.148901 203.384292 
L 392.532852 203.157862 
L 394.068653 202.105633 
L 394.397753 201.702852 
L 395.851279 200.207055 
L 396.372354 199.785222 
L 396.83858 199.470224 
L 397.71618 199.238375 
L 398.04528 199.055316 
L 398.785756 198.590503 
L 399.087431 198.405627 
L 399.608506 197.844562 
L 400.074732 197.218634 
L 400.513532 196.642413 
L 402.241308 194.442184 
L 402.817234 194.40766 
L 403.201184 194.378938 
L 403.886809 194.369274 
L 405.943686 194.428221 
L 406.437336 194.456953 
L 406.793861 194.523194 
L 408.137687 194.391274 
L 409.399238 194.039697 
L 409.810614 193.986499 
L 410.880189 193.408106 
L 411.456115 193.238139 
L 412.41599 193.27683 
L 412.827366 193.261163 
L 413.540416 193.201162 
L 414.226042 193.036011 
L 414.829392 192.81338 
L 415.158492 192.654389 
L 416.886268 191.834672 
L 418.065544 191.516786 
L 418.888295 191.100393 
L 419.68362 191.179812 
L 420.917746 191.437947 
L 421.274271 191.578346 
L 422.069597 191.602925 
L 422.974623 190.946269 
L 423.687673 190.398506 
L 424.153898 189.990411 
L 424.510424 189.791623 
L 424.976649 189.780938 
L 425.63485 189.906254 
L 425.881675 189.796039 
L 428.624177 187.552107 
L 429.090402 187.71151 
L 429.968003 188.055019 
L 430.598778 188.284876 
L 431.256978 188.365554 
L 432.079729 188.372895 
L 432.875055 188.493652 
L 433.862355 188.389948 
L 434.685106 188.710405 
L 435.562706 188.982144 
L 436.083782 189.089482 
L 437.427608 189.496298 
L 438.881134 189.804192 
L 439.758734 189.394837 
L 442.117286 187.58028 
L 442.912612 187.228877 
L 443.132012 187.067092 
L 444.009612 186.182652 
L 444.612963 186.115809 
L 445.984214 185.830146 
L 446.423014 185.647556 
L 446.834389 185.621858 
L 448.233065 185.886533 
L 449.165516 186.023924 
L 449.905991 186.194796 
L 450.454492 186.408922 
L 452.730768 185.76475 
L 453.498669 185.264619 
L 454.047169 185.101443 
L 454.513395 185.065976 
L 455.445845 184.80297 
L 455.857221 184.66157 
L 458.819123 183.416958 
L 459.395048 183.117445 
L 460.245224 183.07299 
L 461.80845 182.830034 
L 462.13755 182.791572 
L 462.8506 182.817523 
L 463.344251 182.519129 
L 464.660652 182.10563 
L 465.291427 182.103583 
L 465.977053 182.457883 
L 466.251303 182.486518 
L 466.964353 182.39535 
L 468.527579 182.946835 
L 468.774404 182.793484 
L 469.487455 182.31023 
L 471.516906 181.501294 
L 471.928282 181.568768 
L 472.586482 181.451087 
L 473.326958 181.18122 
L 473.683483 181.120614 
L 474.533658 181.02212 
L 474.999884 181.310933 
L 476.371135 182.345539 
L 477.27616 183.13779 
L 477.769811 183.377033 
L 478.290886 183.721324 
L 480.238062 184.677972 
L 480.841413 184.754045 
L 481.197938 184.617064 
L 481.554463 184.465975 
L 482.404639 184.561169 
L 483.50164 185.060666 
L 483.803315 185.203769 
L 484.26954 185.289939 
L 484.516365 185.320271 
L 484.955166 185.263285 
L 485.284266 185.373904 
L 485.668216 185.636919 
L 487.094317 186.423528 
L 487.587968 186.390635 
L 488.355868 185.893901 
L 490.193344 183.96921 
L 492.798721 184.353772 
L 494.937873 183.814236 
L 495.678348 183.402003 
L 496.528524 183.183173 
L 497.049599 182.911594 
L 497.323849 182.965342 
L 497.98205 183.224431 
L 498.503125 183.52674 
L 499.654976 184.483018 
L 499.956651 184.547631 
L 501.053652 184.325838 
L 502.699153 184.004192 
L 504.015554 184.457986 
L 505.167405 184.934078 
L 505.990155 185.111388 
L 506.922606 185.581021 
L 507.306556 185.919065 
L 507.992182 186.495399 
L 508.376132 186.554144 
L 508.787507 186.35137 
L 510.515283 184.73364 
L 511.036359 184.233786 
L 512.18821 183.216473 
L 512.57216 182.804593 
L 513.367485 181.915926 
L 514.107961 181.380029 
L 514.464486 181.275004 
L 514.793586 181.003678 
L 515.588912 180.26661 
L 516.631063 179.878407 
L 516.932738 179.915315 
L 517.563513 180.547891 
L 518.578239 181.489579 
L 519.538115 181.959043 
L 520.086615 182.123688 
L 520.525415 182.392081 
L 521.649841 183.297632 
L 522.225767 183.625872 
L 522.691992 183.700102 
L 523.871268 184.162531 
L 524.392343 184.019299 
L 525.407069 182.909985 
L 526.120119 181.948952 
L 527.21712 181.140568 
L 528.149571 180.730777 
L 528.752921 181.030373 
L 529.685372 181.680164 
L 531.193748 182.340913 
L 531.550273 182.272941 
L 533.634574 181.087045 
L 534.3202 181.183593 
L 534.6493 181.397512 
L 535.856001 182.176753 
L 536.459351 182.21109 
L 537.007852 182.204995 
L 537.474077 182.217131 
L 537.803177 182.173285 
L 538.269403 182.216677 
L 538.735628 182.299011 
L 540.353704 182.653711 
L 541.505555 183.258347 
L 543.205906 184.013078 
L 544.851407 185.532314 
L 545.399908 186.541868 
L 546.469483 188.121685 
L 546.826009 188.369477 
L 547.401934 188.475689 
L 547.676184 188.232827 
L 548.19726 187.879836 
L 549.486235 187.363007 
L 553.188613 184.043097 
L 553.874239 183.759824 
L 554.011364 183.755312 
L 554.011364 183.755312 
" clip-path="url(#pfe316b5c51)" style="fill: none; stroke: #0000ff; stroke-width: 4; stroke-linecap: square"/>
   </g>
   <g id="line2d_22">
    <path d="M 334.638636 261.26 
L 337.655388 259.360521 
L 347.254145 254.572949 
L 349.119046 253.619838 
L 351.916398 251.71237 
L 358.937203 245.617779 
L 360.500429 244.264254 
L 363.188081 242.279807 
L 364.312507 241.452811 
L 366.479083 240.216661 
L 367.438959 239.772045 
L 368.42626 239.100403 
L 369.989486 237.948249 
L 370.921937 237.550847 
L 371.799537 237.200621 
L 372.649713 236.665248 
L 373.362763 236.435933 
L 374.651739 236.057245 
L 375.36479 235.495404 
L 377.311966 233.607178 
L 378.271842 232.940734 
L 379.204292 232.168917 
L 379.917343 231.972955 
L 380.356143 231.985632 
L 382.056494 232.410765 
L 382.85182 232.481545 
L 383.318045 232.549932 
L 383.701995 232.460429 
L 384.524746 232.183562 
L 387.952873 232.342212 
L 388.638499 232.433755 
L 389.68065 232.381816 
L 390.3937 232.282684 
L 390.99705 232.227852 
L 391.545551 232.126252 
L 392.944227 231.558455 
L 393.766977 231.506226 
L 395.055953 231.614316 
L 396.098104 231.877813 
L 397.00313 232.120339 
L 398.868031 232.39035 
L 399.608506 232.256623 
L 400.787782 231.85928 
L 401.418558 232.062637 
L 402.131608 232.277129 
L 403.612559 232.543349 
L 406.574461 232.508673 
L 407.205237 232.678241 
L 407.836012 232.737044 
L 409.371813 232.723662 
L 411.81264 233.192385 
L 413.677541 232.939833 
L 414.308317 232.978871 
L 415.158492 232.898889 
L 415.679568 232.711973 
L 417.023394 232.192887 
L 417.955844 232.212621 
L 421.219421 233.129867 
L 421.603372 233.163957 
L 422.042172 233.121319 
L 425.004074 232.496488 
L 428.185376 233.254548 
L 429.035552 233.664257 
L 430.379378 234.026665 
L 431.119853 234.144201 
L 432.628229 233.963104 
L 433.368705 234.139076 
L 433.752655 234.154131 
L 434.21888 234.018994 
L 434.767381 233.860457 
L 435.315881 233.696272 
L 436.028932 233.636375 
L 436.577432 233.673117 
L 438.771434 233.428359 
L 439.978134 233.000003 
L 441.32196 233.190673 
L 442.446386 233.637954 
L 443.104587 233.983479 
L 444.119312 234.678966 
L 445.929364 235.507089 
L 446.587564 235.603892 
L 447.300615 235.618302 
L 447.87654 235.701481 
L 448.617015 235.611555 
L 449.823716 235.29776 
L 451.990293 234.101777 
L 453.416394 233.838725 
L 454.102019 234.143629 
L 456.131471 235.128503 
L 456.954221 235.514223 
L 458.078647 236.059226 
L 458.572297 236.306548 
L 459.340198 236.571727 
L 460.437199 236.673085 
L 461.8633 236.62508 
L 462.603775 236.669068 
L 463.207126 236.552702 
L 464.057301 236.368688 
L 464.742927 236.493202 
L 465.949628 236.807146 
L 467.211178 236.587608 
L 467.896804 236.209746 
L 468.527579 236.00598 
L 469.158355 236.107913 
L 469.597155 236.114677 
L 471.544331 235.87052 
L 472.531632 235.732683 
L 473.573783 235.525837 
L 476.45341 235.510442 
L 477.495561 235.27109 
L 478.839386 235.311178 
L 479.716987 235.226989 
L 480.567163 235.287245 
L 481.472188 235.351507 
L 482.706314 235.66597 
L 483.28224 235.528818 
L 485.421391 234.485819 
L 486.436117 234.068889 
L 487.615393 234.011201 
L 489.425444 234.302779 
L 491.729145 234.523673 
L 492.524471 234.178198 
L 493.045546 234.05108 
L 493.511772 234.115956 
L 494.499072 234.309477 
L 495.102423 234.477334 
L 496.144573 234.839671 
L 496.747924 234.94401 
L 498.4757 235.421936 
L 499.408151 235.599142 
L 500.587427 235.782502 
L 502.095803 236.141413 
L 504.810879 236.094439 
L 505.41423 236.012188 
L 505.96273 235.986921 
L 507.279131 235.422327 
L 509.500558 234.057914 
L 510.021633 233.965312 
L 511.228334 234.373355 
L 513.915986 235.704085 
L 514.821011 236.240163 
L 516.685913 236.933792 
L 517.371538 237.129835 
L 517.837764 237.052278 
L 519.812365 236.199792 
L 520.44314 236.005451 
L 521.265891 236.01267 
L 521.896666 236.021071 
L 523.240492 235.698012 
L 524.639168 235.215773 
L 525.160244 235.280219 
L 527.10742 236.08791 
L 527.902746 236.121588 
L 528.506096 236.307888 
L 531.056623 237.548137 
L 531.989073 237.775053 
L 533.223199 237.578039 
L 534.237925 237.453984 
L 534.841275 237.260079 
L 536.459351 236.261608 
L 537.336952 235.946168 
L 538.406528 235.565451 
L 539.366403 235.10869 
L 539.942329 234.84497 
L 540.87478 234.800229 
L 541.670105 234.971702 
L 542.629981 235.100137 
L 544.494882 234.839137 
L 546.469483 233.838524 
L 547.319659 233.419008 
L 547.895584 233.297884 
L 548.444085 233.448116 
L 552.036762 234.482671 
L 552.557838 234.556947 
L 553.106338 234.772264 
L 553.791963 235.274766 
L 554.011364 235.488269 
L 554.011364 235.488269 
" clip-path="url(#pfe316b5c51)" style="fill: none; stroke: #ff0000; stroke-width: 4; stroke-linecap: square"/>
   </g>
   <g id="line2d_23">
    <path d="M 334.638636 261.26 
L 337.874789 259.213574 
L 340.096215 257.945884 
L 341.659441 257.220389 
L 343.743743 256.2951 
L 347.22672 254.371768 
L 351.175923 251.523407 
L 353.177949 249.513211 
L 354.850875 247.798898 
L 357.757927 244.285698 
L 359.074328 242.368816 
L 359.787379 241.162246 
L 362.529881 236.035493 
L 364.806157 231.246646 
L 367.548659 226.690769 
L 370.154036 223.691961 
L 370.839661 223.000144 
L 371.497862 222.166589 
L 373.828989 218.647458 
L 374.569464 217.414272 
L 375.36479 215.811435 
L 377.449091 211.89632 
L 378.134717 210.841726 
L 379.094592 209.49027 
L 379.533393 208.950637 
L 380.136743 207.928125 
L 381.425719 205.560295 
L 382.330744 204.200582 
L 386.307372 199.067786 
L 387.596348 197.030018 
L 388.419099 195.740947 
L 389.104724 194.42589 
L 390.366275 191.652117 
L 391.710101 189.413788 
L 392.094051 189.047945 
L 393.602427 187.662907 
L 394.891403 186.30996 
L 395.302778 186.010217 
L 396.043254 185.217151 
L 396.89343 183.868194 
L 397.963005 182.001927 
L 398.484081 181.303342 
L 400.211857 178.723495 
L 401.034607 177.550033 
L 401.857358 176.781899 
L 402.488133 176.259693 
L 403.064059 175.338898 
L 404.49016 173.528449 
L 405.751711 172.694862 
L 406.629311 171.49135 
L 407.369787 170.171409 
L 407.945712 169.234727 
L 408.576488 168.63281 
L 408.987863 168.457876 
L 409.563788 168.399851 
L 410.688214 167.925081 
L 411.401265 167.381148 
L 411.81264 167.295674 
L 412.854791 166.531693 
L 413.156466 166.297146 
L 414.801967 165.380579 
L 416.721718 165.257859 
L 418.42207 166.037027 
L 419.24482 166.0533 
L 420.204696 165.447849 
L 421.082296 165.236829 
L 422.151872 165.645673 
L 422.782648 165.962214 
L 424.236174 166.050578 
L 425.196049 165.585923 
L 426.046225 164.974213 
L 426.649575 165.035263 
L 428.130526 165.049003 
L 429.145252 164.773855 
L 429.968003 164.612016 
L 430.406803 164.422372 
L 430.900453 164.229827 
L 432.299129 163.499715 
L 432.628229 163.336405 
L 433.039605 163.260538 
L 433.61553 163.238985 
L 434.05433 162.967239 
L 434.630256 162.521076 
L 435.343306 161.925106 
L 436.220907 161.943778 
L 437.208208 162.106693 
L 437.729283 162.25445 
L 438.195508 162.515702 
L 438.990834 162.521968 
L 439.457059 162.584526 
L 440.252385 162.667608 
L 442.556086 162.501947 
L 443.488537 162.12916 
L 444.119312 162.002462 
L 444.558113 161.638486 
L 445.545413 160.520907 
L 446.669839 159.264495 
L 447.163489 159.083901 
L 447.65714 159.074515 
L 448.068515 159.164078 
L 449.165516 159.006379 
L 449.631741 158.571961 
L 450.262517 157.908227 
L 451.990293 156.219716 
L 452.456518 156.089179 
L 453.142144 156.501335 
L 453.608369 156.710181 
L 454.019744 156.641534 
L 454.787645 156.256668 
L 455.226445 156.157443 
L 455.829795 156.068201 
L 456.241171 156.026011 
L 457.447872 156.320253 
L 457.749547 156.665005 
L 458.215772 157.169334 
L 459.395048 157.900612 
L 459.943548 158.441061 
L 460.300074 158.605475 
L 460.574324 158.582559 
L 461.205099 158.414124 
L 461.6439 158.412152 
L 461.91815 158.256994 
L 462.658625 157.731004 
L 463.207126 157.763725 
L 463.755626 158.10397 
L 464.084726 158.262211 
L 465.401127 158.617516 
L 465.894777 158.566759 
L 466.251303 158.589732 
L 467.403154 158.200467 
L 468.801829 158.475756 
L 469.24063 158.413707 
L 470.995831 158.088696 
L 472.723607 157.282539 
L 473.244683 157.194788 
L 473.683483 157.253705 
L 474.177133 157.349041 
L 475.328984 157.054051 
L 476.014609 156.661667 
L 476.480835 156.70598 
L 477.029335 157.052504 
L 477.797236 157.593773 
L 478.126336 157.739893 
L 478.949087 158.052833 
L 479.936387 158.55047 
L 480.347763 158.465653 
L 481.088238 158.296957 
L 481.965839 158.08141 
L 482.843439 158.029073 
L 484.37924 157.266554 
L 484.790616 157.16386 
L 485.174566 157.105438 
L 485.531091 157.059875 
L 486.079591 157.047465 
L 486.408692 156.97305 
L 486.874917 156.885842 
L 487.368567 156.781336 
L 487.697668 156.720403 
L 489.480294 156.262879 
L 489.864244 156.018906 
L 490.522445 155.975222 
L 490.906395 155.953576 
L 492.140521 155.78421 
L 493.456922 155.26213 
L 494.115122 155.067853 
L 495.047573 154.422386 
L 495.623498 154.187873 
L 496.281699 154.103054 
L 497.844925 153.72315 
L 498.4757 153.345363 
L 499.0242 153.171904 
L 499.408151 153.045196 
L 500.340601 152.937352 
L 500.724552 153.154885 
L 501.190777 153.335794 
L 501.766702 153.129756 
L 502.699153 152.97977 
L 503.165378 153.021748 
L 503.878429 153.048301 
L 504.234954 152.978133 
L 504.728604 152.800935 
L 505.222255 152.755524 
L 506.319256 152.82075 
L 506.730631 152.727089 
L 507.169431 152.577311 
L 507.827632 152.228469 
L 509.336008 152.399581 
L 509.857083 152.774602 
L 510.597559 153.37001 
L 511.063784 153.884755 
L 512.544735 155.840354 
L 513.970836 156.874667 
L 514.382211 156.928658 
L 515.095262 156.713894 
L 515.506637 156.302027 
L 516.411663 155.320728 
L 516.685913 155.311317 
L 517.289263 155.446954 
L 517.618363 155.318162 
L 518.715364 154.673621 
L 519.154164 154.614066 
L 520.27859 154.851936 
L 520.66254 154.84306 
L 521.046491 154.469979 
L 521.732116 153.719923 
L 522.966242 153.312947 
L 523.761568 153.302224 
L 524.803718 153.341489 
L 525.434494 153.555458 
L 526.750895 154.10087 
L 527.27197 154.133386 
L 528.560946 154.382115 
L 529.630522 154.985705 
L 530.124172 155.182807 
L 530.425847 155.084986 
L 531.413148 154.600999 
L 532.976374 154.341809 
L 534.759 154.969131 
L 535.609176 155.176361 
L 536.157676 155.450843 
L 536.514201 155.789959 
L 538.022578 157.148639 
L 538.598503 157.209225 
L 539.092153 157.296626 
L 540.052029 158.126751 
L 540.545679 158.484796 
L 541.724955 159.059795 
L 545.948408 158.172751 
L 547.511634 157.023298 
L 548.63606 155.979272 
L 549.07486 155.808154 
L 549.842761 155.774879 
L 550.775211 155.843244 
L 551.131737 155.848326 
L 551.515687 155.757891 
L 551.981912 155.620187 
L 553.243463 155.286931 
L 554.011364 154.508227 
L 554.011364 154.508227 
" clip-path="url(#pfe316b5c51)" style="fill: none; stroke-dasharray: 4,6.6; stroke-dashoffset: 0; stroke: #0000ff; stroke-width: 4"/>
   </g>
   <g id="line2d_24">
    <path d="M 334.638636 261.26 
L 338.642689 258.696616 
L 342.345067 256.751113 
L 344.813318 255.643858 
L 348.625396 253.697734 
L 353.7813 250.386094 
L 355.536501 248.748528 
L 357.565952 246.45608 
L 358.388703 245.633965 
L 358.992053 245.118332 
L 361.92653 243.023627 
L 363.380056 241.310704 
L 364.230232 240.093806 
L 365.574058 238.155297 
L 366.890459 236.878117 
L 369.002185 235.007725 
L 371.333312 232.677116 
L 371.881812 232.093323 
L 374.295214 228.995435 
L 374.871139 228.486875 
L 375.501915 227.830112 
L 377.668491 225.109933 
L 378.683217 224.298335 
L 379.615668 223.766672 
L 380.740093 222.721812 
L 382.111344 221.41452 
L 382.90667 220.597351 
L 383.67457 220.108619 
L 384.497321 219.814871 
L 385.128096 219.551793 
L 387.514073 217.691602 
L 388.089998 217.113393 
L 388.775624 216.481068 
L 389.461249 216.254809 
L 390.969625 215.676617 
L 391.572976 215.337319 
L 392.779677 214.81592 
L 393.081352 214.859717 
L 393.684702 214.997564 
L 394.205778 214.985138 
L 395.631879 214.543776 
L 396.756304 214.699535 
L 397.16768 214.766133 
L 397.60648 214.614714 
L 398.346956 214.213866 
L 398.895456 213.958002 
L 400.431257 213.456043 
L 401.034607 213.092637 
L 401.610533 212.963143 
L 402.844659 212.741606 
L 403.283459 212.742754 
L 403.694834 212.661333 
L 404.078785 212.369832 
L 404.682135 212.009654 
L 405.03866 211.954102 
L 405.916261 212.078243 
L 406.739011 211.738805 
L 411.26414 208.817167 
L 412.553115 208.964824 
L 413.266166 209.02543 
L 414.061491 208.812953 
L 414.939092 208.563465 
L 415.844118 208.116124 
L 417.544469 206.578329 
L 418.449495 206.219417 
L 418.97057 206.025983 
L 419.711045 205.606195 
L 421.466247 205.522929 
L 422.288997 205.679052 
L 423.002048 205.67721 
L 423.495698 205.659364 
L 424.236174 205.459709 
L 424.702399 205.3335 
L 425.525149 205.352249 
L 427.554601 204.99031 
L 428.048251 204.902434 
L 428.459626 204.901331 
L 428.843577 204.923449 
L 429.584052 205.198137 
L 430.077703 205.446954 
L 431.339253 205.645079 
L 432.271704 205.498482 
L 432.600804 205.432902 
L 432.90248 205.32153 
L 433.368705 204.928101 
L 434.05433 204.379187 
L 434.739956 203.987252 
L 435.315881 203.793752 
L 436.522582 203.611118 
L 437.125933 203.252539 
L 438.003533 202.775139 
L 438.332633 202.689187 
L 438.826284 202.542439 
L 439.374784 202.45017 
L 441.404235 202.822288 
L 441.897886 202.652782 
L 442.336686 202.252609 
L 442.885187 201.809458 
L 444.366138 201.145831 
L 445.243738 201.514071 
L 446.642414 202.603451 
L 448.04109 202.626115 
L 449.796291 201.603155 
L 450.646467 201.133575 
L 451.222392 201.193047 
L 451.633768 201.090245 
L 452.401668 200.837257 
L 453.087294 200.8658 
L 453.553519 200.707516 
L 455.500695 199.994248 
L 456.926796 199.318982 
L 457.776972 199.673399 
L 458.380322 199.760829 
L 460.437199 199.954356 
L 461.424499 199.542569 
L 461.91815 198.985957 
L 463.01515 197.772368 
L 463.316826 197.666059 
L 464.331551 197.584773 
L 466.086753 198.10441 
L 466.498128 198.290551 
L 466.854653 198.280626 
L 467.266028 198.24718 
L 467.979079 198.137805 
L 468.96638 197.746525 
L 469.24063 197.653789 
L 469.597155 197.572676 
L 470.282781 197.704601 
L 471.297506 198.094674 
L 473.080132 198.823283 
L 473.518933 199.127956 
L 473.957733 199.179528 
L 474.314258 199.213958 
L 474.698209 199.265781 
L 476.50826 198.369146 
L 477.084185 197.621873 
L 477.687536 196.836011 
L 478.208611 196.377192 
L 478.729686 195.98735 
L 479.442737 195.482552 
L 479.826687 195.357201 
L 480.402613 195.211332 
L 481.143088 194.981828 
L 481.910989 195.110503 
L 482.432064 195.409839 
L 483.28224 196.209394 
L 483.77589 196.526471 
L 484.132415 196.790115 
L 485.010016 197.419407 
L 486.518392 198.096305 
L 486.929767 198.084858 
L 487.560543 198.194802 
L 488.054193 198.40051 
L 489.644844 199.153938 
L 490.412744 199.734685 
L 490.796695 199.738542 
L 491.454895 199.538677 
L 492.606746 199.18015 
L 493.648897 199.001789 
L 494.444222 199.115201 
L 494.992723 199.360477 
L 495.650923 199.623414 
L 496.062298 199.994185 
L 496.555949 200.392681 
L 496.857624 200.375729 
L 497.460974 200.234675 
L 498.1466 200.135238 
L 500.011501 199.87347 
L 501.108502 199.935155 
L 501.465027 200.049521 
L 502.863703 200.645301 
L 503.988129 200.589272 
L 504.344654 200.589939 
L 504.97543 200.598972 
L 506.209555 200.456379 
L 507.114581 200.610159 
L 507.663081 200.635286 
L 508.430982 200.637279 
L 508.869782 200.669555 
L 511.913959 201.198694 
L 512.24306 201.189401 
L 513.23036 200.713537 
L 514.437061 199.764619 
L 515.259812 199.615213 
L 515.588912 199.478319 
L 516.466513 199.042969 
L 517.700638 198.783951 
L 518.139439 198.486563 
L 519.56554 197.266554 
L 520.031765 197.180491 
L 520.964216 197.165992 
L 522.472592 196.556091 
L 522.746842 196.428778 
L 523.926118 195.426297 
L 524.474618 195.008609 
L 524.776293 194.751041 
L 525.352219 194.080813 
L 525.928144 193.769708 
L 526.366944 193.702155 
L 527.16227 193.75813 
L 527.76562 193.626083 
L 529.054596 193.088786 
L 529.356272 193.08248 
L 529.822497 193.112659 
L 531.632548 193.69648 
L 532.619849 194.373254 
L 533.387749 194.20725 
L 534.183075 193.997354 
L 534.92355 193.721872 
L 535.664026 193.196809 
L 536.459351 192.980825 
L 537.364377 192.975102 
L 538.543653 192.562082 
L 540.655379 192.231261 
L 542.438006 192.750175 
L 543.507581 192.561893 
L 544.193207 192.316805 
L 544.933682 192.581601 
L 545.509608 192.815291 
L 545.920983 192.884713 
L 546.579183 193.186597 
L 547.347084 193.38325 
L 547.950434 193.383749 
L 548.334385 193.629891 
L 549.047435 194.108266 
L 549.568511 194.261091 
L 549.815336 194.314616 
L 550.747786 194.874188 
L 551.981912 195.08486 
L 552.448138 195.251031 
L 553.106338 195.367694 
L 554.011364 195.637382 
L 554.011364 195.637382 
" clip-path="url(#pfe316b5c51)" style="fill: none; stroke-dasharray: 4,6.6; stroke-dashoffset: 0; stroke: #ff0000; stroke-width: 4"/>
   </g>
   <g id="patch_6">
    <path d="M 323.67 261.26 
L 564.98 261.26 
" style="fill: none; stroke: #000000; stroke-width: 3; stroke-linejoin: miter; stroke-linecap: square"/>
   </g>
   <g id="text_15">
    <!-- LAL010 -->
    <g transform="translate(399.56875 87.12) scale(0.24 -0.24)">
     <defs>
      <path id="DejaVuSans-4c" d="M 628 4666 
L 1259 4666 
L 1259 531 
L 3531 531 
L 3531 0 
L 628 0 
L 628 4666 
z
" transform="scale(0.015625)"/>
      <path id="DejaVuSans-41" d="M 2188 4044 
L 1331 1722 
L 3047 1722 
L 2188 4044 
z
M 1831 4666 
L 2547 4666 
L 4325 0 
L 3669 0 
L 3244 1197 
L 1141 1197 
L 716 0 
L 50 0 
L 1831 4666 
z
" transform="scale(0.015625)"/>
     </defs>
     <use xlink:href="#DejaVuSans-4c"/>
     <use xlink:href="#DejaVuSans-41" x="57.962891"/>
     <use xlink:href="#DejaVuSans-4c" x="126.371094"/>
     <use xlink:href="#DejaVuSans-30" x="182.083984"/>
     <use xlink:href="#DejaVuSans-31" x="245.707031"/>
     <use xlink:href="#DejaVuSans-30" x="309.330078"/>
    </g>
   </g>
  </g>
  <g id="axes_3">
   <g id="patch_7">
    <path d="M 575.78 261.26 
L 817.09 261.26 
L 817.09 93.12 
L 575.78 93.12 
z
" style="fill: #ffffff"/>
   </g>
   <g id="matplotlib.axis_5">
    <g id="xtick_11">
     <g id="line2d_25">
      <g>
       <use xlink:href="#mb8f06a7104" x="586.748636" y="261.26" style="stroke: #000000; stroke-width: 3"/>
      </g>
     </g>
    </g>
    <g id="xtick_12">
     <g id="line2d_26">
      <g>
       <use xlink:href="#mb8f06a7104" x="641.598674" y="261.26" style="stroke: #000000; stroke-width: 3"/>
      </g>
     </g>
    </g>
    <g id="xtick_13">
     <g id="line2d_27">
      <g>
       <use xlink:href="#mb8f06a7104" x="696.448713" y="261.26" style="stroke: #000000; stroke-width: 3"/>
      </g>
     </g>
    </g>
    <g id="xtick_14">
     <g id="line2d_28">
      <g>
       <use xlink:href="#mb8f06a7104" x="751.298751" y="261.26" style="stroke: #000000; stroke-width: 3"/>
      </g>
     </g>
    </g>
    <g id="xtick_15">
     <g id="line2d_29">
      <g>
       <use xlink:href="#mb8f06a7104" x="806.148789" y="261.26" style="stroke: #000000; stroke-width: 3"/>
      </g>
     </g>
    </g>
   </g>
   <g id="matplotlib.axis_6"/>
   <g id="line2d_30">
    <path d="M 586.748636 261.26 
L 588.586113 260.152175 
L 590.012214 259.526107 
L 591.931965 258.899573 
L 597.691219 257.23618 
L 602.051797 255.826136 
L 605.479924 254.50293 
L 607.04315 253.843862 
L 608.222426 253.153549 
L 609.813077 251.976666 
L 613.405755 249.241874 
L 615.188381 247.917908 
L 618.424533 245.484479 
L 619.027884 244.946868 
L 624.841988 238.457419 
L 626.953714 236.686723 
L 630.491542 233.880843 
L 632.767818 231.283375 
L 633.782544 230.620053 
L 634.605295 229.94839 
L 637.402647 227.200973 
L 640.145148 224.370746 
L 642.256875 222.924581 
L 643.874951 222.256269 
L 644.423451 222.008629 
L 646.260928 220.665336 
L 649.05828 217.882417 
L 650.539231 216.756492 
L 651.773356 215.597206 
L 654.515858 211.934791 
L 655.832259 211.118583 
L 658.574761 210.014722 
L 659.040987 209.892471 
L 660.960738 209.121155 
L 661.481813 208.965335 
L 662.194864 208.673219 
L 663.70324 207.856381 
L 666.445742 206.913724 
L 668.831718 205.443399 
L 670.120694 204.857627 
L 671.217695 204.235577 
L 672.534096 204.016446 
L 674.481272 203.964454 
L 676.126773 202.79474 
L 676.784974 202.380435 
L 677.470599 202.256702 
L 677.96425 202.095185 
L 678.485325 201.583675 
L 679.472626 200.771396 
L 680.103401 200.126012 
L 680.679327 199.649041 
L 681.282677 199.544326 
L 682.708778 199.524787 
L 683.613804 199.442003 
L 683.997754 199.43008 
L 686.657981 199.431681 
L 687.535581 199.658441 
L 688.468032 199.815937 
L 690.168383 200.304569 
L 691.183109 200.480238 
L 691.786459 200.340755 
L 693.48681 199.338067 
L 694.199861 198.86974 
L 695.488837 198.011342 
L 696.284162 197.359046 
L 697.216613 197.125435 
L 697.874813 196.88813 
L 698.697564 196.496189 
L 699.43804 196.408207 
L 699.794565 196.419526 
L 700.48019 196.386423 
L 701.632041 196.408846 
L 702.153116 196.508089 
L 702.564492 196.560745 
L 704.566518 195.995918 
L 706.458844 195.077421 
L 707.007345 194.83379 
L 707.665545 194.645111 
L 708.104346 194.462675 
L 709.996672 193.670457 
L 711.093673 193.074598 
L 711.806723 192.804799 
L 712.574624 192.669482 
L 713.671624 192.406877 
L 714.494375 192.260293 
L 715.042875 192.169627 
L 715.536526 191.914733 
L 716.222151 191.6188 
L 716.880352 191.473408 
L 717.346577 191.42689 
L 718.525853 191.643515 
L 719.046928 191.589282 
L 720.747279 191.990913 
L 723.654331 190.822308 
L 724.367382 190.735913 
L 725.711208 190.219962 
L 726.533958 189.955992 
L 726.945334 189.995024 
L 728.50856 190.628707 
L 731.360762 192.223862 
L 731.909262 192.546837 
L 732.869138 192.901799 
L 733.390213 192.885418 
L 733.938714 192.912465 
L 735.063139 193.228441 
L 735.61164 193.498237 
L 735.968165 193.637938 
L 737.503966 193.89743 
L 739.094617 194.748326 
L 739.780243 194.87066 
L 740.438443 194.718094 
L 741.508019 193.972548 
L 742.221069 193.400726 
L 743.70202 193.379074 
L 744.277946 193.428648 
L 744.963571 193.319396 
L 746.170272 193.057956 
L 746.801047 192.933116 
L 747.678648 192.391895 
L 749.406424 191.722053 
L 750.777675 192.072488 
L 751.984376 192.744986 
L 752.478026 192.748616 
L 755.522204 192.803538 
L 757.52423 193.615797 
L 758.209855 193.816332 
L 760.019907 194.860174 
L 760.486132 195.005998 
L 761.007207 194.889729 
L 761.555708 194.52449 
L 763.118934 193.582125 
L 765.148385 191.881366 
L 766.245386 191.002505 
L 766.766461 190.683898 
L 768.603938 189.242018 
L 769.152438 189.114866 
L 769.755788 189.375288 
L 771.67554 190.055305 
L 772.470865 190.212903 
L 773.019366 190.61897 
L 774.088941 191.223452 
L 774.500317 191.338059 
L 774.993967 191.533381 
L 775.981268 191.928965 
L 776.557193 191.871976 
L 777.242819 191.482135 
L 777.818744 190.851699 
L 778.394669 190.38259 
L 780.122446 189.26055 
L 780.670946 189.246638 
L 781.109746 189.432787 
L 781.987347 189.718128 
L 782.371297 189.842482 
L 783.276323 190.214291 
L 783.797398 190.188855 
L 784.510449 189.919425 
L 785.717149 189.529045 
L 786.238225 189.539075 
L 786.786725 189.721095 
L 787.993426 190.206253 
L 788.596776 190.236743 
L 789.693777 190.234937 
L 790.351978 190.216181 
L 791.202153 190.340661 
L 792.600829 190.549504 
L 794.19148 191.085812 
L 794.959381 191.363852 
L 796.522607 192.516206 
L 797.263082 193.492304 
L 798.661758 195.499629 
L 799.265109 195.97674 
L 799.649059 196.108358 
L 800.41696 196.025586 
L 801.376835 196.049789 
L 801.925336 195.860512 
L 802.857786 195.297534 
L 804.283887 194.264348 
L 805.216338 193.562841 
L 806.011664 193.153353 
L 806.121364 193.126248 
L 806.121364 193.126248 
" clip-path="url(#p05fabb73b6)" style="fill: none; stroke: #0000ff; stroke-width: 4; stroke-linecap: square"/>
   </g>
   <g id="line2d_31">
    <path d="M 586.748636 261.26 
L 588.640963 260.117011 
L 590.204189 259.433615 
L 592.50789 258.600996 
L 595.552067 257.710682 
L 600.269171 256.605759 
L 601.750122 256.167194 
L 607.591651 254.074013 
L 612.966955 251.785425 
L 615.791732 250.648025 
L 616.916157 250.23505 
L 621.605836 248.459524 
L 623.361037 247.888465 
L 624.128937 247.592938 
L 625.253363 247.205668 
L 627.447365 246.504095 
L 631.286867 244.393038 
L 632.246743 244.105268 
L 633.096919 244.076652 
L 633.700269 244.049609 
L 636.168521 243.696771 
L 636.881571 243.57972 
L 638.801322 243.318585 
L 639.678923 243.245538 
L 641.050174 243.148745 
L 643.682976 242.764521 
L 645.191352 242.364328 
L 646.590028 242.177925 
L 648.592054 242.22192 
L 649.99073 242.247217 
L 651.526531 242.142424 
L 653.364008 241.78861 
L 654.461008 241.845527 
L 657.861711 241.717953 
L 658.876436 241.73652 
L 660.494513 241.748427 
L 661.289838 241.745907 
L 664.52599 241.778008 
L 665.540716 241.695621 
L 667.049092 241.629913 
L 667.899268 241.445668 
L 669.462494 241.056842 
L 670.148119 241.059329 
L 674.234447 241.447937 
L 677.168924 241.046506 
L 680.405076 241.277309 
L 681.172977 241.425833 
L 683.531529 241.668778 
L 684.573679 241.627527 
L 685.478705 241.746318 
L 686.027205 241.751396 
L 688.166357 241.535521 
L 688.934257 241.540778 
L 691.539634 241.342877 
L 692.55436 241.247296 
L 693.706211 241.358051 
L 694.501536 241.459252 
L 695.269437 241.630256 
L 697.271463 242.246046 
L 698.752414 242.500903 
L 699.465465 242.539808 
L 700.452765 242.599374 
L 701.878866 242.470194 
L 705.690944 241.544108 
L 707.58327 241.94864 
L 709.228771 242.328839 
L 710.600022 242.707776 
L 712.080973 242.968614 
L 713.616774 243.019288 
L 714.4121 243.066189 
L 715.701076 242.965672 
L 716.578676 242.971184 
L 719.184053 243.16838 
L 721.29578 242.92486 
L 721.89913 242.892814 
L 730.208911 242.208691 
L 734.185539 242.394438 
L 735.008289 242.415851 
L 736.352115 242.118191 
L 738.162166 241.586335 
L 739.094617 241.480653 
L 740.657843 241.576464 
L 744.195671 241.582009 
L 745.210396 241.370848 
L 746.773622 241.47204 
L 750.229175 241.91493 
L 751.682701 242.12499 
L 752.697427 242.274838 
L 754.726878 242.590407 
L 756.97573 242.658193 
L 757.74363 242.657351 
L 758.648656 242.573943 
L 759.773081 242.244603 
L 762.378458 241.537194 
L 765.17581 242.09255 
L 766.409936 242.451528 
L 767.314962 242.652607 
L 768.329687 242.816493 
L 769.125013 243.040776 
L 769.838063 243.072168 
L 771.40129 242.746679 
L 773.019366 242.51012 
L 774.555167 242.479407 
L 776.200668 242.168248 
L 777.023418 242.074745 
L 777.846169 242.259144 
L 778.641495 242.432451 
L 779.38197 242.432895 
L 780.286996 242.45285 
L 780.972621 242.660598 
L 781.877647 242.952045 
L 784.071648 243.481161 
L 785.250924 243.458136 
L 787.307801 243.212885 
L 788.541926 242.801771 
L 790.077728 242.454703 
L 791.558679 242.026816 
L 792.299154 241.858081 
L 793.780105 241.849673 
L 795.096506 241.86458 
L 797.180807 241.627144 
L 799.731334 241.062906 
L 800.36211 241.071991 
L 803.872512 241.542683 
L 805.518013 241.753504 
L 806.121364 242.035455 
L 806.121364 242.035455 
" clip-path="url(#p05fabb73b6)" style="fill: none; stroke: #ff0000; stroke-width: 4; stroke-linecap: square"/>
   </g>
   <g id="line2d_32">
    <path d="M 586.748636 261.26 
L 588.503838 260.209367 
L 590.588139 259.240823 
L 593.275791 258.303874 
L 600.433721 256.289443 
L 603.203648 255.342043 
L 609.840502 251.978709 
L 613.26863 249.319272 
L 614.639881 248.022197 
L 619.137584 243.285856 
L 620.31686 242.304622 
L 623.059362 240.306946 
L 623.964387 239.547843 
L 626.185814 237.308358 
L 627.63934 235.499516 
L 638.417372 221.077616 
L 641.434124 215.974605 
L 643.216751 212.223516 
L 644.368601 210.269291 
L 645.355902 208.829824 
L 649.00343 203.356274 
L 650.621506 200.296493 
L 654.269033 194.089089 
L 654.817534 193.22958 
L 655.749984 191.561765 
L 657.31321 189.496223 
L 658.135961 188.519005 
L 658.876436 187.293541 
L 659.891162 185.415266 
L 660.576788 184.438553 
L 661.207563 183.854786 
L 662.962764 182.412131 
L 663.511265 181.895473 
L 664.03234 181.558928 
L 666.884542 179.16949 
L 668.255793 178.569516 
L 668.612318 178.424674 
L 670.038419 178.626012 
L 670.97087 178.826143 
L 671.437095 178.721271 
L 672.835771 178.099034 
L 673.356846 178.120904 
L 674.234447 178.335337 
L 674.947498 178.579677 
L 676.510724 178.623473 
L 676.922099 178.525488 
L 677.635149 178.155231 
L 678.29335 177.867892 
L 678.787 177.889546 
L 679.664601 177.879767 
L 680.871302 177.724816 
L 681.694052 177.64979 
L 682.215128 177.444338 
L 682.736203 177.275179 
L 683.147578 177.050477 
L 683.997754 176.544643 
L 686.356306 175.618568 
L 687.892107 174.586183 
L 689.702158 174.502607 
L 691.073409 174.697739 
L 691.704184 174.749559 
L 692.38981 174.79532 
L 694.693511 174.641767 
L 695.516262 174.324259 
L 696.256737 174.165506 
L 696.860088 173.725971 
L 698.231339 172.359785 
L 698.834689 171.744254 
L 699.60259 171.406876 
L 701.165816 171.161775 
L 701.741741 170.687803 
L 703.387242 168.940628 
L 704.374543 168.212888 
L 704.703643 168.168949 
L 705.142444 168.248869 
L 705.992619 168.294402 
L 706.787945 167.919017 
L 707.281595 167.697347 
L 708.927096 167.415172 
L 709.585297 167.569689 
L 709.941822 167.898786 
L 710.572597 168.338238 
L 711.505048 168.879823 
L 712.190673 169.409056 
L 712.684324 169.526064 
L 713.452224 169.521446 
L 713.891025 169.50482 
L 715.234851 169.067162 
L 715.755926 169.276522 
L 716.304426 169.497523 
L 718.608128 169.735218 
L 719.376028 169.516462 
L 721.432905 169.715373 
L 723.133256 169.489807 
L 724.449657 168.924382 
L 724.943307 168.799922 
L 725.793483 168.750288 
L 726.396833 168.791098 
L 727.466409 168.569546 
L 728.23431 168.242425 
L 728.67311 168.274267 
L 729.413585 168.609039 
L 730.236336 168.96588 
L 731.113937 169.304339 
L 731.964112 169.737065 
L 732.348062 169.776323 
L 733.637038 169.550746 
L 733.911289 169.542188 
L 734.432364 169.617399 
L 735.39224 169.445583 
L 735.77619 169.267269 
L 736.297265 169.033486 
L 737.723366 168.713599 
L 741.727419 167.760858 
L 742.138794 167.609812 
L 744.360221 167.181123 
L 746.005722 166.520876 
L 746.389672 166.317127 
L 747.678648 165.587763 
L 749.98235 165.009653 
L 750.75025 164.639359 
L 751.819826 164.273235 
L 752.340901 164.161599 
L 752.889402 164.323179 
L 753.273352 164.409355 
L 755.385078 163.93551 
L 755.933579 163.918581 
L 756.399804 163.822498 
L 757.606505 163.669536 
L 758.922906 163.582729 
L 759.416556 163.401352 
L 759.882782 163.194672 
L 761.391158 163.21896 
L 761.967083 163.502483 
L 763.585159 164.818303 
L 765.148385 166.449231 
L 766.245386 167.189443 
L 766.903586 167.243415 
L 767.452087 167.144553 
L 768.741063 166.367668 
L 769.399263 166.488577 
L 769.783213 166.348522 
L 771.209314 165.734891 
L 772.086915 165.788405 
L 772.854816 165.756476 
L 773.458166 165.17616 
L 773.896966 164.824167 
L 774.719717 164.431689 
L 775.844143 164.165532 
L 776.804018 164.079962 
L 777.462219 164.174657 
L 781.438847 165.342224 
L 782.124472 165.7204 
L 782.535847 165.729915 
L 784.428174 165.273126 
L 785.415474 165.35959 
L 786.1011 165.548922 
L 787.499776 165.891957 
L 788.404801 166.331267 
L 790.160003 167.794146 
L 791.613529 168.402001 
L 793.780105 169.991735 
L 794.35603 170.057896 
L 795.123931 170.099621 
L 796.138657 170.142853 
L 797.756733 169.988909 
L 798.332658 169.761602 
L 799.045709 169.382923 
L 801.34941 167.798623 
L 802.144736 167.689007 
L 802.665811 167.693606 
L 803.680537 167.479651 
L 805.627713 166.709137 
L 806.121364 166.226517 
L 806.121364 166.226517 
" clip-path="url(#p05fabb73b6)" style="fill: none; stroke-dasharray: 4,6.6; stroke-dashoffset: 0; stroke: #0000ff; stroke-width: 4"/>
   </g>
   <g id="line2d_33">
    <path d="M 586.748636 261.26 
L 588.887788 259.952184 
L 590.807539 259.11477 
L 593.906566 258.051232 
L 600.680546 256.347562 
L 606.028425 254.69126 
L 608.332126 253.635694 
L 611.458579 252.162415 
L 614.585031 250.901653 
L 616.833882 249.400649 
L 617.848608 248.703512 
L 619.631234 247.729006 
L 623.882112 245.439126 
L 625.884139 243.969722 
L 626.953714 243.25536 
L 627.80389 242.650689 
L 629.284841 241.460979 
L 630.601242 240.510083 
L 632.740393 239.291118 
L 634.166494 238.345313 
L 635.51032 237.447441 
L 636.607321 236.935183 
L 637.841447 236.354033 
L 639.486948 235.369869 
L 640.967899 234.319678 
L 645.136502 232.590771 
L 646.315778 232.523842 
L 647.988704 232.148644 
L 649.11313 232.120657 
L 649.963305 231.937367 
L 653.034907 230.949958 
L 653.802808 230.745201 
L 654.680409 230.578217 
L 655.448309 230.460121 
L 656.16136 230.243213 
L 657.03896 229.943571 
L 658.849011 229.714947 
L 661.838338 228.404246 
L 662.469114 227.989734 
L 663.182164 227.628945 
L 663.895215 227.524487 
L 665.814966 227.302219 
L 668.008968 226.592947 
L 669.599619 225.528606 
L 670.394944 225.166201 
L 671.19027 224.87694 
L 671.958171 224.566443 
L 678.84185 223.768928 
L 679.582326 223.635378 
L 680.130826 223.53339 
L 684.299429 223.820854 
L 685.72553 223.262802 
L 686.932231 222.714267 
L 687.645281 222.51543 
L 688.577732 222.321336 
L 691.457359 221.245097 
L 692.636635 221.302098 
L 693.953036 221.164901 
L 694.528961 220.817801 
L 695.790512 220.163408 
L 696.777813 219.916136 
L 697.326313 219.987896 
L 697.902239 220.26214 
L 698.450739 220.505624 
L 699.410615 220.599129 
L 700.31564 220.533728 
L 703.496942 219.540438 
L 704.182568 219.327292 
L 706.513694 218.780496 
L 709.091646 217.79584 
L 710.325772 217.945657 
L 712.629474 217.943096 
L 713.452224 217.717918 
L 713.945875 217.390036 
L 715.399401 216.315317 
L 717.593402 215.944232 
L 718.553278 216.121834 
L 718.964653 216.108871 
L 719.650279 216.057169 
L 720.116504 215.969565 
L 721.762005 215.525167 
L 722.447631 215.566858 
L 723.270381 215.695172 
L 725.135282 216.139503 
L 725.958033 216.462273 
L 727.795509 216.4415 
L 728.865085 216.003527 
L 731.004236 214.413129 
L 732.073812 213.896205 
L 732.814288 213.585521 
L 733.445063 213.392945 
L 734.185539 213.37352 
L 735.117989 213.706119 
L 735.803615 214.053894 
L 736.406965 214.316059 
L 738.792942 215.2561 
L 739.505992 215.374578 
L 741.809694 216.252362 
L 742.71472 216.731221 
L 743.42777 216.758557 
L 746.033147 216.51849 
L 746.581647 216.579066 
L 747.212423 216.742125 
L 747.980323 217.058935 
L 748.830499 217.521916 
L 750.119475 217.546201 
L 752.340901 217.569943 
L 753.712152 217.760751 
L 755.193103 218.072332 
L 756.564354 218.109794 
L 757.167705 218.132506 
L 758.209855 218.106597 
L 761.171757 218.402291 
L 761.802533 218.483961 
L 762.323608 218.526026 
L 764.928985 218.694972 
L 765.724311 218.288465 
L 766.793886 217.8023 
L 769.042738 217.221957 
L 769.536388 217.130139 
L 770.605964 216.503548 
L 771.922365 215.660557 
L 772.60799 215.532685 
L 773.101641 215.387792 
L 773.951816 214.911107 
L 774.664867 214.647884 
L 775.432767 214.161173 
L 775.953843 213.725981 
L 777.763894 212.231917 
L 778.72377 211.872672 
L 779.957895 211.502099 
L 781.905072 210.844224 
L 783.577998 210.912883 
L 784.263623 211.227082 
L 784.812124 211.355908 
L 785.607449 211.250042 
L 787.554626 210.693135 
L 788.596776 210.419919 
L 789.364677 210.387067 
L 792.381429 209.570555 
L 792.875079 209.605494 
L 793.834955 209.808153 
L 795.315906 209.808305 
L 796.604882 209.644296 
L 798.414933 210.072411 
L 799.045709 210.245188 
L 800.718635 210.665131 
L 801.541385 211.02713 
L 802.199586 211.262368 
L 803.296587 211.717994 
L 806.121364 212.448123 
L 806.121364 212.448123 
" clip-path="url(#p05fabb73b6)" style="fill: none; stroke-dasharray: 4,6.6; stroke-dashoffset: 0; stroke: #ff0000; stroke-width: 4"/>
   </g>
   <g id="patch_8">
    <path d="M 575.78 261.26 
L 817.09 261.26 
" style="fill: none; stroke: #000000; stroke-width: 3; stroke-linejoin: miter; stroke-linecap: square"/>
   </g>
   <g id="text_16">
    <!-- LAL014 -->
    <g transform="translate(651.67875 87.12) scale(0.24 -0.24)">
     <use xlink:href="#DejaVuSans-4c"/>
     <use xlink:href="#DejaVuSans-41" x="57.962891"/>
     <use xlink:href="#DejaVuSans-4c" x="126.371094"/>
     <use xlink:href="#DejaVuSans-30" x="182.083984"/>
     <use xlink:href="#DejaVuSans-31" x="245.707031"/>
     <use xlink:href="#DejaVuSans-34" x="309.330078"/>
    </g>
   </g>
  </g>
  <g id="axes_4">
   <g id="patch_9">
    <path d="M 827.89 261.26 
L 1069.2 261.26 
L 1069.2 93.12 
L 827.89 93.12 
z
" style="fill: #ffffff"/>
   </g>
   <g id="matplotlib.axis_7">
    <g id="xtick_16">
     <g id="line2d_34">
      <g>
       <use xlink:href="#mb8f06a7104" x="838.858636" y="261.26" style="stroke: #000000; stroke-width: 3"/>
      </g>
     </g>
    </g>
    <g id="xtick_17">
     <g id="line2d_35">
      <g>
       <use xlink:href="#mb8f06a7104" x="893.708674" y="261.26" style="stroke: #000000; stroke-width: 3"/>
      </g>
     </g>
    </g>
    <g id="xtick_18">
     <g id="line2d_36">
      <g>
       <use xlink:href="#mb8f06a7104" x="948.558713" y="261.26" style="stroke: #000000; stroke-width: 3"/>
      </g>
     </g>
    </g>
    <g id="xtick_19">
     <g id="line2d_37">
      <g>
       <use xlink:href="#mb8f06a7104" x="1003.408751" y="261.26" style="stroke: #000000; stroke-width: 3"/>
      </g>
     </g>
    </g>
    <g id="xtick_20">
     <g id="line2d_38">
      <g>
       <use xlink:href="#mb8f06a7104" x="1058.258789" y="261.26" style="stroke: #000000; stroke-width: 3"/>
      </g>
     </g>
    </g>
   </g>
   <g id="matplotlib.axis_8"/>
   <g id="line2d_39">
    <path d="M 838.858636 261.26 
L 840.339587 260.393202 
L 841.820538 259.774221 
L 843.603165 259.263175 
L 846.921592 258.56911 
L 854.436047 257.199673 
L 860.853502 255.698451 
L 862.636128 254.989266 
L 870.753934 251.461632 
L 871.796084 250.791794 
L 874.675711 248.467867 
L 878.131264 245.456948 
L 881.120591 243.132722 
L 882.464417 242.016693 
L 884.000218 240.249502 
L 885.865119 238.098237 
L 886.989545 236.740867 
L 888.580196 234.477425 
L 889.649772 232.699764 
L 891.596948 229.125224 
L 894.0652 224.254124 
L 896.176926 220.573462 
L 897.795002 217.778838 
L 899.029128 215.14048 
L 900.071279 212.582491 
L 901.853905 207.858473 
L 903.362281 203.52423 
L 904.239882 200.566736 
L 905.391733 196.204031 
L 907.997109 186.045317 
L 909.916861 180.223887 
L 911.260687 176.947844 
L 913.317563 172.567027 
L 915.374439 168.71232 
L 916.30689 167.128021 
L 917.678141 165.122369 
L 919.104242 163.038229 
L 920.064118 161.444725 
L 923.163145 156.64658 
L 924.589246 154.790447 
L 925.466846 154.003633 
L 927.331748 152.195178 
L 929.662874 149.580039 
L 930.3485 148.823936 
L 932.185976 146.104881 
L 933.173277 144.600929 
L 934.270278 143.405527 
L 936.080329 141.843259 
L 938.027505 140.713555 
L 938.987381 140.475228 
L 940.166657 140.406327 
L 941.428208 140.562917 
L 944.33526 141.076897 
L 944.93861 140.902199 
L 945.980761 140.422031 
L 947.269737 139.595875 
L 947.982787 138.797231 
L 948.887813 137.874213 
L 950.560739 136.22095 
L 951.383489 135.497655 
L 953.001566 134.475862 
L 954.153416 134.038992 
L 955.277842 133.773205 
L 957.279869 133.185534 
L 958.431719 132.649192 
L 959.172195 132.261146 
L 962.024397 130.445225 
L 963.944148 128.825274 
L 966.79635 127.00892 
L 967.701376 126.448037 
L 969.292027 125.528226 
L 970.059927 125.282389 
L 972.253929 124.920566 
L 972.939554 124.869325 
L 975.188406 124.218241 
L 975.928882 124.01066 
L 977.025882 123.720678 
L 978.122883 123.412132 
L 979.137609 123.236421 
L 980.152334 123.33491 
L 980.920235 123.557639 
L 983.361062 124.723412 
L 985.939013 125.996029 
L 987.227989 126.53207 
L 990.354442 128.217762 
L 991.835393 129.148795 
L 992.603293 129.317697 
L 993.261494 129.245647 
L 993.892269 128.998366 
L 994.605319 128.792367 
L 999.486973 128.059719 
L 1002.723125 126.994767 
L 1003.984676 127.162769 
L 1005.081677 127.162618 
L 1008.317829 127.152784 
L 1009.497105 127.474287 
L 1011.252306 128.15882 
L 1012.212182 128.881259 
L 1012.925232 129.257543 
L 1013.747983 129.331674 
L 1014.570733 129.256214 
L 1015.393484 128.943898 
L 1016.819585 128.03224 
L 1019.397537 125.560486 
L 1020.686513 124.299142 
L 1021.426988 123.76727 
L 1022.194889 123.535495 
L 1023.56614 123.405728 
L 1024.745415 123.471082 
L 1026.061816 123.965231 
L 1028.749468 125.045638 
L 1029.462519 125.015414 
L 1030.285269 124.672137 
L 1031.848495 123.883992 
L 1032.671246 123.533787 
L 1033.466571 123.408221 
L 1036.702724 122.969833 
L 1038.512775 122.438174 
L 1039.14355 122.469005 
L 1041.392402 122.816155 
L 1043.970354 123.195584 
L 1045.53358 123.757865 
L 1048.248657 125.08308 
L 1049.098832 125.800348 
L 1049.866733 126.855888 
L 1052.060734 129.978719 
L 1053.541685 131.260412 
L 1054.172461 131.486621 
L 1055.159762 131.50955 
L 1056.393887 131.09557 
L 1057.957113 130.125212 
L 1058.231364 129.948915 
L 1058.231364 129.948915 
" clip-path="url(#p14c117824a)" style="fill: none; stroke: #0000ff; stroke-width: 4; stroke-linecap: square"/>
   </g>
   <g id="line2d_40">
    <path d="M 838.858636 261.26 
L 840.367012 260.377912 
L 841.820538 259.765056 
L 844.34364 259.014934 
L 847.963743 258.291982 
L 860.250151 256.285165 
L 863.897679 255.626213 
L 872.563985 254.572332 
L 875.443612 254.359202 
L 878.295814 254.224048 
L 879.96874 254.048542 
L 884.329318 253.393612 
L 886.166794 253.471755 
L 892.337423 253.794365 
L 894.641125 253.927815 
L 901.38768 254.118781 
L 904.651257 254.283699 
L 906.296758 254.415206 
L 909.121535 254.611849 
L 920.365793 254.90021 
L 922.69692 254.846458 
L 927.852823 254.925091 
L 930.0194 254.915379 
L 934.681653 255.257476 
L 936.903079 255.296749 
L 941.949283 255.220986 
L 946.392136 255.1619 
L 948.640988 255.421603 
L 952.31594 255.732429 
L 954.564792 255.678576 
L 958.98022 255.503402 
L 962.874572 255.862606 
L 965.150849 256.006911 
L 968.469276 256.001799 
L 973.049255 255.90363 
L 989.504266 255.543105 
L 992.603293 255.350984 
L 999.514398 255.441181 
L 1004.149226 255.72478 
L 1011.691106 255.782826 
L 1015.448334 255.481615 
L 1018.053711 255.683184 
L 1022.057764 256.077695 
L 1024.690565 255.973218 
L 1030.394969 255.84667 
L 1037.168949 256.253729 
L 1039.774326 256.161367 
L 1045.53358 255.664578 
L 1050.278108 255.419177 
L 1053.102885 255.206898 
L 1055.955087 255.371187 
L 1058.231364 255.605965 
L 1058.231364 255.605965 
" clip-path="url(#p14c117824a)" style="fill: none; stroke: #ff0000; stroke-width: 4; stroke-linecap: square"/>
   </g>
   <g id="line2d_41">
    <path d="M 838.858636 261.26 
L 840.312162 260.412614 
L 842.067364 259.67207 
L 843.95969 259.088716 
L 846.208541 258.607145 
L 858.686925 256.179811 
L 861.813377 255.300976 
L 863.952529 254.527314 
L 866.283655 253.407754 
L 867.846881 252.427153 
L 873.825536 248.581332 
L 876.485762 246.910138 
L 878.131264 245.639591 
L 879.58479 244.186333 
L 880.901191 242.498666 
L 882.875792 239.672027 
L 884.493868 236.891661 
L 885.947394 233.740213 
L 887.757445 229.365799 
L 889.018996 225.720998 
L 890.280547 221.615437 
L 891.542098 216.701055 
L 893.132749 209.50374 
L 894.12005 203.823056 
L 895.710701 193.567284 
L 898.727453 173.876908 
L 900.647204 162.528494 
L 903.417131 147.10275 
L 905.474008 137.585977 
L 906.927534 132.180202 
L 908.298785 127.615184 
L 909.450635 124.511871 
L 912.056012 118.673981 
L 913.180438 116.726514 
L 914.524264 115.032352 
L 916.937666 112.670058 
L 918.391192 111.441288 
L 919.460767 110.769198 
L 920.749743 110.17362 
L 922.285544 109.897102 
L 924.150446 109.636625 
L 925.549122 109.400006 
L 927.194623 109.389276 
L 930.046825 109.160304 
L 931.1164 109.05411 
L 934.379978 108.768256 
L 938.740556 107.98767 
L 940.660307 107.640437 
L 942.634908 107.608102 
L 948.750688 107.46417 
L 949.957388 107.138369 
L 952.37079 106.427922 
L 954.290541 106.022408 
L 957.855794 105.268619 
L 961.969547 105.027981 
L 965.315399 105.451802 
L 972.171654 105.817363 
L 975.572356 105.802598 
L 980.50886 105.251712 
L 981.49616 105.334988 
L 986.377814 106.011895 
L 987.584515 105.987164 
L 1002.20205 104.0435 
L 1004.313776 103.764792 
L 1010.155305 103.506202 
L 1011.581406 103.40967 
L 1012.678407 103.344563 
L 1014.186783 103.37 
L 1016.024259 103.702363 
L 1018.849036 104.40655 
L 1020.055737 104.427187 
L 1021.344713 104.4201 
L 1022.606264 104.392528 
L 1024.11464 104.412902 
L 1025.568166 104.365657 
L 1026.857142 104.245935 
L 1028.831743 104.210484 
L 1030.312694 104.351835 
L 1034.892672 104.813169 
L 1039.911451 104.891427 
L 1041.721502 105.282956 
L 1043.010478 105.540127 
L 1044.272029 105.852922 
L 1045.86268 106.253768 
L 1047.261356 106.394457 
L 1049.729608 106.461801 
L 1051.347684 106.276171 
L 1058.231364 105.045849 
L 1058.231364 105.045849 
" clip-path="url(#p14c117824a)" style="fill: none; stroke-dasharray: 4,6.6; stroke-dashoffset: 0; stroke: #0000ff; stroke-width: 4"/>
   </g>
   <g id="line2d_42">
    <path d="M 838.858636 261.26 
L 840.504138 260.281192 
L 842.122214 259.622033 
L 844.34364 258.958649 
L 846.619917 258.479613 
L 854.902272 257.237204 
L 859.262851 256.505274 
L 865.26893 255.313475 
L 867.353231 254.949364 
L 876.321212 252.859019 
L 879.173414 251.999214 
L 886.96212 249.64285 
L 888.854446 249.130367 
L 891.404973 248.383248 
L 895.381601 247.162142 
L 897.877277 246.606839 
L 899.577629 246.300704 
L 900.784329 246.136833 
L 902.923481 245.876558 
L 907.613159 244.8456 
L 908.81986 244.440912 
L 910.026561 244.146633 
L 911.836612 243.527801 
L 913.728938 242.739145 
L 914.990489 241.926423 
L 915.97779 241.388652 
L 920.365793 239.254965 
L 922.97117 236.84697 
L 924.973196 234.987339 
L 925.987922 234.283274 
L 927.688273 233.247551 
L 930.375925 231.758181 
L 933.282977 230.555256 
L 934.105727 230.492246 
L 936.957929 230.474806 
L 937.61613 230.273825 
L 941.318507 228.322475 
L 942.991434 226.908542 
L 943.814184 226.234436 
L 946.940636 224.134773 
L 948.970088 222.25248 
L 949.683138 221.953458 
L 950.286489 221.98841 
L 952.398215 222.027616 
L 953.796891 221.540855 
L 955.305267 220.856714 
L 955.963468 220.630952 
L 958.267169 219.505945 
L 960.625721 217.555923 
L 961.229071 216.991772 
L 962.874572 215.794837 
L 963.861873 215.165685 
L 965.233124 214.263788 
L 966.02845 213.458298 
L 969.538852 208.937095 
L 970.471303 208.150072 
L 972.692729 206.400673 
L 974.44793 204.913558 
L 975.380381 204.535424 
L 976.559657 204.321508 
L 977.382408 204.477528 
L 978.287433 204.73929 
L 979.603834 204.949 
L 980.207184 204.930969 
L 980.865385 204.801232 
L 981.359035 204.410022 
L 982.401186 203.137199 
L 983.333637 201.783704 
L 985.664763 198.318504 
L 986.350389 197.613587 
L 987.063439 197.17313 
L 987.50224 197.124988 
L 988.37984 197.209563 
L 989.476841 197.750633 
L 992.137068 199.560581 
L 994.248794 201.801332 
L 995.126395 202.878082 
L 996.223396 203.766846 
L 998.115722 204.82851 
L 998.746497 205.207976 
L 1003.381326 208.9226 
L 1004.615451 209.670855 
L 1008.235554 212.009015 
L 1011.362006 213.205483 
L 1015.228934 214.701876 
L 1016.984135 214.923864 
L 1017.50521 214.714884 
L 1018.684486 213.837873 
L 1022.469139 211.162629 
L 1023.209614 210.304264 
L 1027.433067 205.046255 
L 1028.365518 203.313189 
L 1029.380244 201.087122 
L 1031.16287 197.093191 
L 1034.097347 191.214462 
L 1035.166923 189.697389 
L 1035.879973 189.036299 
L 1036.483324 188.787811 
L 1037.498049 188.262339 
L 1039.335526 186.845989 
L 1040.761627 185.337832 
L 1041.694077 184.411087 
L 1043.257303 182.56042 
L 1045.451305 180.229913 
L 1046.328905 179.688545 
L 1047.672731 178.921628 
L 1048.495482 178.433633 
L 1049.345657 178.327649 
L 1050.524933 178.481107 
L 1052.69151 179.689981 
L 1054.638686 181.796219 
L 1055.543712 182.782599 
L 1057.271488 184.739793 
L 1058.231364 185.892015 
L 1058.231364 185.892015 
" clip-path="url(#p14c117824a)" style="fill: none; stroke-dasharray: 4,6.6; stroke-dashoffset: 0; stroke: #ff0000; stroke-width: 4"/>
   </g>
   <g id="patch_10">
    <path d="M 827.89 261.26 
L 1069.2 261.26 
" style="fill: none; stroke: #000000; stroke-width: 3; stroke-linejoin: miter; stroke-linecap: square"/>
   </g>
   <g id="text_17">
    <!-- LAL018 -->
    <g transform="translate(903.78875 87.12) scale(0.24 -0.24)">
     <use xlink:href="#DejaVuSans-4c"/>
     <use xlink:href="#DejaVuSans-41" x="57.962891"/>
     <use xlink:href="#DejaVuSans-4c" x="126.371094"/>
     <use xlink:href="#DejaVuSans-30" x="182.083984"/>
     <use xlink:href="#DejaVuSans-31" x="245.707031"/>
     <use xlink:href="#DejaVuSans-38" x="309.330078"/>
    </g>
   </g>
  </g>
  <g id="text_18">
   <!--  = 90 -->
   <g transform="translate(471.869531 29.995313) scale(0.3 -0.3)">
    <defs>
     <path id="DejaVuSans-394" d="M 2188 4044 
L 906 525 
L 3472 525 
L 2188 4044 
z
M 50 0 
L 1831 4666 
L 2547 4666 
L 4325 0 
L 50 0 
z
" transform="scale(0.015625)"/>
     <path id="DejaVuSans-3b8" d="M 2953 2219 
L 963 2219 
Q 1009 1284 1225 888 
Q 1494 400 1959 400 
Q 2428 400 2688 891 
Q 2916 1322 2953 2219 
z
M 2944 2750 
Q 2856 3638 2688 3950 
Q 2419 4444 1959 4444 
Q 1481 4444 1228 3956 
Q 1028 3563 969 2750 
L 2944 2750 
z
M 1959 4913 
Q 2709 4913 3138 4250 
Q 3566 3591 3566 2422 
Q 3566 1256 3138 594 
Q 2709 -72 1959 -72 
Q 1206 -72 781 594 
Q 353 1256 353 2422 
Q 353 3591 781 4250 
Q 1206 4913 1959 4913 
z
" transform="scale(0.015625)"/>
     <path id="DejaVuSans-3d" d="M 678 2906 
L 4684 2906 
L 4684 2381 
L 678 2381 
L 678 2906 
z
M 678 1631 
L 4684 1631 
L 4684 1100 
L 678 1100 
L 678 1631 
z
" transform="scale(0.015625)"/>
     <path id="DejaVuSans-39" d="M 703 97 
L 703 672 
Q 941 559 1184 500 
Q 1428 441 1663 441 
Q 2288 441 2617 861 
Q 2947 1281 2994 2138 
Q 2813 1869 2534 1725 
Q 2256 1581 1919 1581 
Q 1219 1581 811 2004 
Q 403 2428 403 3163 
Q 403 3881 828 4315 
Q 1253 4750 1959 4750 
Q 2769 4750 3195 4129 
Q 3622 3509 3622 2328 
Q 3622 1225 3098 567 
Q 2575 -91 1691 -91 
Q 1453 -91 1209 -44 
Q 966 3 703 97 
z
M 1959 2075 
Q 2384 2075 2632 2365 
Q 2881 2656 2881 3163 
Q 2881 3666 2632 3958 
Q 2384 4250 1959 4250 
Q 1534 4250 1286 3958 
Q 1038 3666 1038 3163 
Q 1038 2656 1286 2365 
Q 1534 2075 1959 2075 
z
" transform="scale(0.015625)"/>
     <path id="DejaVuSans-b0" d="M 1600 4347 
Q 1350 4347 1178 4173 
Q 1006 4000 1006 3750 
Q 1006 3503 1178 3333 
Q 1350 3163 1600 3163 
Q 1850 3163 2022 3333 
Q 2194 3503 2194 3750 
Q 2194 3997 2020 4172 
Q 1847 4347 1600 4347 
z
M 1600 4750 
Q 1800 4750 1984 4673 
Q 2169 4597 2303 4453 
Q 2447 4313 2519 4134 
Q 2591 3956 2591 3750 
Q 2591 3338 2302 3052 
Q 2013 2766 1594 2766 
Q 1172 2766 890 3047 
Q 609 3328 609 3750 
Q 609 4169 896 4459 
Q 1184 4750 1600 4750 
z
" transform="scale(0.015625)"/>
    </defs>
    <use xlink:href="#DejaVuSans-394"/>
    <use xlink:href="#DejaVuSans-3b8" x="68.408203"/>
    <use xlink:href="#DejaVuSans-20" x="129.589844"/>
    <use xlink:href="#DejaVuSans-3d" x="161.376953"/>
    <use xlink:href="#DejaVuSans-20" x="245.166016"/>
    <use xlink:href="#DejaVuSans-39" x="276.953125"/>
    <use xlink:href="#DejaVuSans-30" x="340.576172"/>
    <use xlink:href="#DejaVuSans-b0" x="404.199219"/>
   </g>
  </g>
  <g id="legend_1">
   <g id="line2d_43">
    <path d="M 894.5425 143.5875 
L 910.5425 143.5875 
L 926.5425 143.5875 
" style="fill: none; stroke: #0000ff; stroke-width: 4; stroke-linecap: square"/>
   </g>
   <g id="text_19">
    <!-- Full model L -->
    <g transform="translate(939.3425 149.1875) scale(0.16 -0.16)">
     <defs>
      <path id="DejaVuSans-75" d="M 544 1381 
L 544 3500 
L 1119 3500 
L 1119 1403 
Q 1119 906 1312 657 
Q 1506 409 1894 409 
Q 2359 409 2629 706 
Q 2900 1003 2900 1516 
L 2900 3500 
L 3475 3500 
L 3475 0 
L 2900 0 
L 2900 538 
Q 2691 219 2414 64 
Q 2138 -91 1772 -91 
Q 1169 -91 856 284 
Q 544 659 544 1381 
z
M 1991 3584 
L 1991 3584 
z
" transform="scale(0.015625)"/>
      <path id="DejaVuSans-6c" d="M 603 4863 
L 1178 4863 
L 1178 0 
L 603 0 
L 603 4863 
z
" transform="scale(0.015625)"/>
      <path id="DejaVuSans-6f" d="M 1959 3097 
Q 1497 3097 1228 2736 
Q 959 2375 959 1747 
Q 959 1119 1226 758 
Q 1494 397 1959 397 
Q 2419 397 2687 759 
Q 2956 1122 2956 1747 
Q 2956 2369 2687 2733 
Q 2419 3097 1959 3097 
z
M 1959 3584 
Q 2709 3584 3137 3096 
Q 3566 2609 3566 1747 
Q 3566 888 3137 398 
Q 2709 -91 1959 -91 
Q 1206 -91 779 398 
Q 353 888 353 1747 
Q 353 2609 779 3096 
Q 1206 3584 1959 3584 
z
" transform="scale(0.015625)"/>
      <path id="DejaVuSans-64" d="M 2906 2969 
L 2906 4863 
L 3481 4863 
L 3481 0 
L 2906 0 
L 2906 525 
Q 2725 213 2448 61 
Q 2172 -91 1784 -91 
Q 1150 -91 751 415 
Q 353 922 353 1747 
Q 353 2572 751 3078 
Q 1150 3584 1784 3584 
Q 2172 3584 2448 3432 
Q 2725 3281 2906 2969 
z
M 947 1747 
Q 947 1113 1208 752 
Q 1469 391 1925 391 
Q 2381 391 2643 752 
Q 2906 1113 2906 1747 
Q 2906 2381 2643 2742 
Q 2381 3103 1925 3103 
Q 1469 3103 1208 2742 
Q 947 2381 947 1747 
z
" transform="scale(0.015625)"/>
     </defs>
     <use xlink:href="#DejaVuSans-46"/>
     <use xlink:href="#DejaVuSans-75" x="52.019531"/>
     <use xlink:href="#DejaVuSans-6c" x="115.398438"/>
     <use xlink:href="#DejaVuSans-6c" x="143.181641"/>
     <use xlink:href="#DejaVuSans-20" x="170.964844"/>
     <use xlink:href="#DejaVuSans-6d" x="202.751953"/>
     <use xlink:href="#DejaVuSans-6f" x="300.164062"/>
     <use xlink:href="#DejaVuSans-64" x="361.345703"/>
     <use xlink:href="#DejaVuSans-65" x="424.822266"/>
     <use xlink:href="#DejaVuSans-6c" x="486.345703"/>
     <use xlink:href="#DejaVuSans-20" x="514.128906"/>
     <use xlink:href="#DejaVuSans-4c" x="545.916016"/>
    </g>
   </g>
   <g id="line2d_44">
    <path d="M 894.5425 167.0725 
L 910.5425 167.0725 
L 926.5425 167.0725 
" style="fill: none; stroke: #ff0000; stroke-width: 4; stroke-linecap: square"/>
   </g>
   <g id="text_20">
    <!-- Full model R -->
    <g transform="translate(939.3425 172.6725) scale(0.16 -0.16)">
     <defs>
      <path id="DejaVuSans-52" d="M 2841 2188 
Q 3044 2119 3236 1894 
Q 3428 1669 3622 1275 
L 4263 0 
L 3584 0 
L 2988 1197 
Q 2756 1666 2539 1819 
Q 2322 1972 1947 1972 
L 1259 1972 
L 1259 0 
L 628 0 
L 628 4666 
L 2053 4666 
Q 2853 4666 3247 4331 
Q 3641 3997 3641 3322 
Q 3641 2881 3436 2590 
Q 3231 2300 2841 2188 
z
M 1259 4147 
L 1259 2491 
L 2053 2491 
Q 2509 2491 2742 2702 
Q 2975 2913 2975 3322 
Q 2975 3731 2742 3939 
Q 2509 4147 2053 4147 
L 1259 4147 
z
" transform="scale(0.015625)"/>
     </defs>
     <use xlink:href="#DejaVuSans-46"/>
     <use xlink:href="#DejaVuSans-75" x="52.019531"/>
     <use xlink:href="#DejaVuSans-6c" x="115.398438"/>
     <use xlink:href="#DejaVuSans-6c" x="143.181641"/>
     <use xlink:href="#DejaVuSans-20" x="170.964844"/>
     <use xlink:href="#DejaVuSans-6d" x="202.751953"/>
     <use xlink:href="#DejaVuSans-6f" x="300.164062"/>
     <use xlink:href="#DejaVuSans-64" x="361.345703"/>
     <use xlink:href="#DejaVuSans-65" x="424.822266"/>
     <use xlink:href="#DejaVuSans-6c" x="486.345703"/>
     <use xlink:href="#DejaVuSans-20" x="514.128906"/>
     <use xlink:href="#DejaVuSans-52" x="545.916016"/>
    </g>
   </g>
   <g id="line2d_45">
    <path d="M 894.5425 190.5575 
L 910.5425 190.5575 
L 926.5425 190.5575 
" style="fill: none; stroke-dasharray: 4,6.6; stroke-dashoffset: 0; stroke: #0000ff; stroke-width: 4"/>
   </g>
   <g id="text_21">
    <!-- - 121 output L -->
    <g transform="translate(939.3425 196.1575) scale(0.16 -0.16)">
     <defs>
      <path id="DejaVuSans-2d" d="M 313 2009 
L 1997 2009 
L 1997 1497 
L 313 1497 
L 313 2009 
z
" transform="scale(0.015625)"/>
      <path id="DejaVuSans-70" d="M 1159 525 
L 1159 -1331 
L 581 -1331 
L 581 3500 
L 1159 3500 
L 1159 2969 
Q 1341 3281 1617 3432 
Q 1894 3584 2278 3584 
Q 2916 3584 3314 3078 
Q 3713 2572 3713 1747 
Q 3713 922 3314 415 
Q 2916 -91 2278 -91 
Q 1894 -91 1617 61 
Q 1341 213 1159 525 
z
M 3116 1747 
Q 3116 2381 2855 2742 
Q 2594 3103 2138 3103 
Q 1681 3103 1420 2742 
Q 1159 2381 1159 1747 
Q 1159 1113 1420 752 
Q 1681 391 2138 391 
Q 2594 391 2855 752 
Q 3116 1113 3116 1747 
z
" transform="scale(0.015625)"/>
     </defs>
     <use xlink:href="#DejaVuSans-2d"/>
     <use xlink:href="#DejaVuSans-20" x="36.083984"/>
     <use xlink:href="#DejaVuSans-31" x="67.871094"/>
     <use xlink:href="#DejaVuSans-32" x="131.494141"/>
     <use xlink:href="#DejaVuSans-31" x="195.117188"/>
     <use xlink:href="#DejaVuSans-20" x="258.740234"/>
     <use xlink:href="#DejaVuSans-6f" x="290.527344"/>
     <use xlink:href="#DejaVuSans-75" x="351.708984"/>
     <use xlink:href="#DejaVuSans-74" x="415.087891"/>
     <use xlink:href="#DejaVuSans-70" x="454.296875"/>
     <use xlink:href="#DejaVuSans-75" x="517.773438"/>
     <use xlink:href="#DejaVuSans-74" x="581.152344"/>
     <use xlink:href="#DejaVuSans-20" x="620.361328"/>
     <use xlink:href="#DejaVuSans-4c" x="652.148438"/>
    </g>
   </g>
   <g id="line2d_46">
    <path d="M 894.5425 214.0425 
L 910.5425 214.0425 
L 926.5425 214.0425 
" style="fill: none; stroke-dasharray: 4,6.6; stroke-dashoffset: 0; stroke: #ff0000; stroke-width: 4"/>
   </g>
   <g id="text_22">
    <!-- - 121 output R -->
    <g transform="translate(939.3425 219.6425) scale(0.16 -0.16)">
     <use xlink:href="#DejaVuSans-2d"/>
     <use xlink:href="#DejaVuSans-20" x="36.083984"/>
     <use xlink:href="#DejaVuSans-31" x="67.871094"/>
     <use xlink:href="#DejaVuSans-32" x="131.494141"/>
     <use xlink:href="#DejaVuSans-31" x="195.117188"/>
     <use xlink:href="#DejaVuSans-20" x="258.740234"/>
     <use xlink:href="#DejaVuSans-6f" x="290.527344"/>
     <use xlink:href="#DejaVuSans-75" x="351.708984"/>
     <use xlink:href="#DejaVuSans-74" x="415.087891"/>
     <use xlink:href="#DejaVuSans-70" x="454.296875"/>
     <use xlink:href="#DejaVuSans-75" x="517.773438"/>
     <use xlink:href="#DejaVuSans-74" x="581.152344"/>
     <use xlink:href="#DejaVuSans-20" x="620.361328"/>
     <use xlink:href="#DejaVuSans-52" x="652.148438"/>
    </g>
   </g>
  </g>
 </g>
 <defs>
  <clipPath id="p613f989476">
   <rect x="71.56" y="93.12" width="241.31" height="168.14"/>
  </clipPath>
  <clipPath id="pfe316b5c51">
   <rect x="323.67" y="93.12" width="241.31" height="168.14"/>
  </clipPath>
  <clipPath id="p05fabb73b6">
   <rect x="575.78" y="93.12" width="241.31" height="168.14"/>
  </clipPath>
  <clipPath id="p14c117824a">
   <rect x="827.89" y="93.12" width="241.31" height="168.14"/>
  </clipPath>
 </defs>
</svg>
