<?xml version="1.0" encoding="utf-8" standalone="no"?>
<!DOCTYPE svg PUBLIC "-//W3C//DTD SVG 1.1//EN"
  "http://www.w3.org/Graphics/SVG/1.1/DTD/svg11.dtd">
<svg xmlns:xlink="http://www.w3.org/1999/xlink" width="1080pt" height="360pt" viewBox="0 0 1080 360" xmlns="http://www.w3.org/2000/svg" version="1.1">
 <metadata>
  <rdf:RDF xmlns:dc="http://purl.org/dc/elements/1.1/" xmlns:cc="http://creativecommons.org/ns#" xmlns:rdf="http://www.w3.org/1999/02/22-rdf-syntax-ns#">
   <cc:Work>
    <dc:type rdf:resource="http://purl.org/dc/dcmitype/StillImage"/>
    <dc:date>2025-06-03T14:29:10.916899</dc:date>
    <dc:format>image/svg+xml</dc:format>
    <dc:creator>
     <cc:Agent>
      <dc:title>Matplotlib v3.7.1, https://matplotlib.org/</dc:title>
     </cc:Agent>
    </dc:creator>
   </cc:Work>
  </rdf:RDF>
 </metadata>
 <defs>
  <style type="text/css">*{stroke-linejoin: round; stroke-linecap: butt}</style>
 </defs>
 <g id="figure_1">
  <g id="patch_1">
   <path d="M 0 360 
L 1080 360 
L 1080 0 
L 0 0 
z
" style="fill: #ffffff"/>
  </g>
  <g id="axes_1">
   <g id="patch_2">
    <path d="M 71.56 261.26 
L 312.87 261.26 
L 312.87 93.12 
L 71.56 93.12 
z
" style="fill: #ffffff"/>
   </g>
   <g id="matplotlib.axis_1">
    <g id="xtick_1">
     <g id="line2d_1">
      <defs>
       <path id="mcf791f9735" d="M 0 0 
L 0 7 
" style="stroke: #000000; stroke-width: 3"/>
      </defs>
      <g>
       <use xlink:href="#mcf791f9735" x="82.528636" y="261.26" style="stroke: #000000; stroke-width: 3"/>
      </g>
     </g>
     <g id="text_1">
      <!-- 0 -->
      <g transform="translate(77.438636 283.9175) scale(0.16 -0.16)">
       <defs>
        <path id="DejaVuSans-30" d="M 2034 4250 
Q 1547 4250 1301 3770 
Q 1056 3291 1056 2328 
Q 1056 1369 1301 889 
Q 1547 409 2034 409 
Q 2525 409 2770 889 
Q 3016 1369 3016 2328 
Q 3016 3291 2770 3770 
Q 2525 4250 2034 4250 
z
M 2034 4750 
Q 2819 4750 3233 4129 
Q 3647 3509 3647 2328 
Q 3647 1150 3233 529 
Q 2819 -91 2034 -91 
Q 1250 -91 836 529 
Q 422 1150 422 2328 
Q 422 3509 836 4129 
Q 1250 4750 2034 4750 
z
" transform="scale(0.015625)"/>
       </defs>
       <use xlink:href="#DejaVuSans-30"/>
      </g>
     </g>
    </g>
    <g id="xtick_2">
     <g id="line2d_2">
      <g>
       <use xlink:href="#mcf791f9735" x="137.378674" y="261.26" style="stroke: #000000; stroke-width: 3"/>
      </g>
     </g>
     <g id="text_2">
      <!-- 200 -->
      <g transform="translate(122.108674 283.9175) scale(0.16 -0.16)">
       <defs>
        <path id="DejaVuSans-32" d="M 1228 531 
L 3431 531 
L 3431 0 
L 469 0 
L 469 531 
Q 828 903 1448 1529 
Q 2069 2156 2228 2338 
Q 2531 2678 2651 2914 
Q 2772 3150 2772 3378 
Q 2772 3750 2511 3984 
Q 2250 4219 1831 4219 
Q 1534 4219 1204 4116 
Q 875 4013 500 3803 
L 500 4441 
Q 881 4594 1212 4672 
Q 1544 4750 1819 4750 
Q 2544 4750 2975 4387 
Q 3406 4025 3406 3419 
Q 3406 3131 3298 2873 
Q 3191 2616 2906 2266 
Q 2828 2175 2409 1742 
Q 1991 1309 1228 531 
z
" transform="scale(0.015625)"/>
       </defs>
       <use xlink:href="#DejaVuSans-32"/>
       <use xlink:href="#DejaVuSans-30" x="63.623047"/>
       <use xlink:href="#DejaVuSans-30" x="127.246094"/>
      </g>
     </g>
    </g>
    <g id="xtick_3">
     <g id="line2d_3">
      <g>
       <use xlink:href="#mcf791f9735" x="192.228713" y="261.26" style="stroke: #000000; stroke-width: 3"/>
      </g>
     </g>
     <g id="text_3">
      <!-- 400 -->
      <g transform="translate(176.958713 283.9175) scale(0.16 -0.16)">
       <defs>
        <path id="DejaVuSans-34" d="M 2419 4116 
L 825 1625 
L 2419 1625 
L 2419 4116 
z
M 2253 4666 
L 3047 4666 
L 3047 1625 
L 3713 1625 
L 3713 1100 
L 3047 1100 
L 3047 0 
L 2419 0 
L 2419 1100 
L 313 1100 
L 313 1709 
L 2253 4666 
z
" transform="scale(0.015625)"/>
       </defs>
       <use xlink:href="#DejaVuSans-34"/>
       <use xlink:href="#DejaVuSans-30" x="63.623047"/>
       <use xlink:href="#DejaVuSans-30" x="127.246094"/>
      </g>
     </g>
    </g>
    <g id="xtick_4">
     <g id="line2d_4">
      <g>
       <use xlink:href="#mcf791f9735" x="247.078751" y="261.26" style="stroke: #000000; stroke-width: 3"/>
      </g>
     </g>
     <g id="text_4">
      <!-- 600 -->
      <g transform="translate(231.808751 283.9175) scale(0.16 -0.16)">
       <defs>
        <path id="DejaVuSans-36" d="M 2113 2584 
Q 1688 2584 1439 2293 
Q 1191 2003 1191 1497 
Q 1191 994 1439 701 
Q 1688 409 2113 409 
Q 2538 409 2786 701 
Q 3034 994 3034 1497 
Q 3034 2003 2786 2293 
Q 2538 2584 2113 2584 
z
M 3366 4563 
L 3366 3988 
Q 3128 4100 2886 4159 
Q 2644 4219 2406 4219 
Q 1781 4219 1451 3797 
Q 1122 3375 1075 2522 
Q 1259 2794 1537 2939 
Q 1816 3084 2150 3084 
Q 2853 3084 3261 2657 
Q 3669 2231 3669 1497 
Q 3669 778 3244 343 
Q 2819 -91 2113 -91 
Q 1303 -91 875 529 
Q 447 1150 447 2328 
Q 447 3434 972 4092 
Q 1497 4750 2381 4750 
Q 2619 4750 2861 4703 
Q 3103 4656 3366 4563 
z
" transform="scale(0.015625)"/>
       </defs>
       <use xlink:href="#DejaVuSans-36"/>
       <use xlink:href="#DejaVuSans-30" x="63.623047"/>
       <use xlink:href="#DejaVuSans-30" x="127.246094"/>
      </g>
     </g>
    </g>
    <g id="xtick_5">
     <g id="line2d_5">
      <g>
       <use xlink:href="#mcf791f9735" x="301.928789" y="261.26" style="stroke: #000000; stroke-width: 3"/>
      </g>
     </g>
     <g id="text_5">
      <!-- 800 -->
      <g transform="translate(286.658789 283.9175) scale(0.16 -0.16)">
       <defs>
        <path id="DejaVuSans-38" d="M 2034 2216 
Q 1584 2216 1326 1975 
Q 1069 1734 1069 1313 
Q 1069 891 1326 650 
Q 1584 409 2034 409 
Q 2484 409 2743 651 
Q 3003 894 3003 1313 
Q 3003 1734 2745 1975 
Q 2488 2216 2034 2216 
z
M 1403 2484 
Q 997 2584 770 2862 
Q 544 3141 544 3541 
Q 544 4100 942 4425 
Q 1341 4750 2034 4750 
Q 2731 4750 3128 4425 
Q 3525 4100 3525 3541 
Q 3525 3141 3298 2862 
Q 3072 2584 2669 2484 
Q 3125 2378 3379 2068 
Q 3634 1759 3634 1313 
Q 3634 634 3220 271 
Q 2806 -91 2034 -91 
Q 1263 -91 848 271 
Q 434 634 434 1313 
Q 434 1759 690 2068 
Q 947 2378 1403 2484 
z
M 1172 3481 
Q 1172 3119 1398 2916 
Q 1625 2713 2034 2713 
Q 2441 2713 2670 2916 
Q 2900 3119 2900 3481 
Q 2900 3844 2670 4047 
Q 2441 4250 2034 4250 
Q 1625 4250 1398 4047 
Q 1172 3844 1172 3481 
z
" transform="scale(0.015625)"/>
       </defs>
       <use xlink:href="#DejaVuSans-38"/>
       <use xlink:href="#DejaVuSans-30" x="63.623047"/>
       <use xlink:href="#DejaVuSans-30" x="127.246094"/>
      </g>
     </g>
    </g>
    <g id="text_6">
     <!-- Time (ms) -->
     <g transform="translate(136.776719 307.961563) scale(0.22 -0.22)">
      <defs>
       <path id="DejaVuSans-54" d="M -19 4666 
L 3928 4666 
L 3928 4134 
L 2272 4134 
L 2272 0 
L 1638 0 
L 1638 4134 
L -19 4134 
L -19 4666 
z
" transform="scale(0.015625)"/>
       <path id="DejaVuSans-69" d="M 603 3500 
L 1178 3500 
L 1178 0 
L 603 0 
L 603 3500 
z
M 603 4863 
L 1178 4863 
L 1178 4134 
L 603 4134 
L 603 4863 
z
" transform="scale(0.015625)"/>
       <path id="DejaVuSans-6d" d="M 3328 2828 
Q 3544 3216 3844 3400 
Q 4144 3584 4550 3584 
Q 5097 3584 5394 3201 
Q 5691 2819 5691 2113 
L 5691 0 
L 5113 0 
L 5113 2094 
Q 5113 2597 4934 2840 
Q 4756 3084 4391 3084 
Q 3944 3084 3684 2787 
Q 3425 2491 3425 1978 
L 3425 0 
L 2847 0 
L 2847 2094 
Q 2847 2600 2669 2842 
Q 2491 3084 2119 3084 
Q 1678 3084 1418 2786 
Q 1159 2488 1159 1978 
L 1159 0 
L 581 0 
L 581 3500 
L 1159 3500 
L 1159 2956 
Q 1356 3278 1631 3431 
Q 1906 3584 2284 3584 
Q 2666 3584 2933 3390 
Q 3200 3197 3328 2828 
z
" transform="scale(0.015625)"/>
       <path id="DejaVuSans-65" d="M 3597 1894 
L 3597 1613 
L 953 1613 
Q 991 1019 1311 708 
Q 1631 397 2203 397 
Q 2534 397 2845 478 
Q 3156 559 3463 722 
L 3463 178 
Q 3153 47 2828 -22 
Q 2503 -91 2169 -91 
Q 1331 -91 842 396 
Q 353 884 353 1716 
Q 353 2575 817 3079 
Q 1281 3584 2069 3584 
Q 2775 3584 3186 3129 
Q 3597 2675 3597 1894 
z
M 3022 2063 
Q 3016 2534 2758 2815 
Q 2500 3097 2075 3097 
Q 1594 3097 1305 2825 
Q 1016 2553 972 2059 
L 3022 2063 
z
" transform="scale(0.015625)"/>
       <path id="DejaVuSans-20" transform="scale(0.015625)"/>
       <path id="DejaVuSans-28" d="M 1984 4856 
Q 1566 4138 1362 3434 
Q 1159 2731 1159 2009 
Q 1159 1288 1364 580 
Q 1569 -128 1984 -844 
L 1484 -844 
Q 1016 -109 783 600 
Q 550 1309 550 2009 
Q 550 2706 781 3412 
Q 1013 4119 1484 4856 
L 1984 4856 
z
" transform="scale(0.015625)"/>
       <path id="DejaVuSans-73" d="M 2834 3397 
L 2834 2853 
Q 2591 2978 2328 3040 
Q 2066 3103 1784 3103 
Q 1356 3103 1142 2972 
Q 928 2841 928 2578 
Q 928 2378 1081 2264 
Q 1234 2150 1697 2047 
L 1894 2003 
Q 2506 1872 2764 1633 
Q 3022 1394 3022 966 
Q 3022 478 2636 193 
Q 2250 -91 1575 -91 
Q 1294 -91 989 -36 
Q 684 19 347 128 
L 347 722 
Q 666 556 975 473 
Q 1284 391 1588 391 
Q 1994 391 2212 530 
Q 2431 669 2431 922 
Q 2431 1156 2273 1281 
Q 2116 1406 1581 1522 
L 1381 1569 
Q 847 1681 609 1914 
Q 372 2147 372 2553 
Q 372 3047 722 3315 
Q 1072 3584 1716 3584 
Q 2034 3584 2315 3537 
Q 2597 3491 2834 3397 
z
" transform="scale(0.015625)"/>
       <path id="DejaVuSans-29" d="M 513 4856 
L 1013 4856 
Q 1481 4119 1714 3412 
Q 1947 2706 1947 2009 
Q 1947 1309 1714 600 
Q 1481 -109 1013 -844 
L 513 -844 
Q 928 -128 1133 580 
Q 1338 1288 1338 2009 
Q 1338 2731 1133 3434 
Q 928 4138 513 4856 
z
" transform="scale(0.015625)"/>
      </defs>
      <use xlink:href="#DejaVuSans-54"/>
      <use xlink:href="#DejaVuSans-69" x="57.958984"/>
      <use xlink:href="#DejaVuSans-6d" x="85.742188"/>
      <use xlink:href="#DejaVuSans-65" x="183.154297"/>
      <use xlink:href="#DejaVuSans-20" x="244.677734"/>
      <use xlink:href="#DejaVuSans-28" x="276.464844"/>
      <use xlink:href="#DejaVuSans-6d" x="315.478516"/>
      <use xlink:href="#DejaVuSans-73" x="412.890625"/>
      <use xlink:href="#DejaVuSans-29" x="464.990234"/>
     </g>
    </g>
   </g>
   <g id="matplotlib.axis_2">
    <g id="ytick_1">
     <g id="line2d_6">
      <defs>
       <path id="mcaf5809366" d="M 0 0 
L -7 0 
" style="stroke: #000000; stroke-width: 3"/>
      </defs>
      <g>
       <use xlink:href="#mcaf5809366" x="71.56" y="261.26" style="stroke: #000000; stroke-width: 3"/>
      </g>
     </g>
     <g id="text_7">
      <!-- 0.0 -->
      <g transform="translate(35.615 267.33875) scale(0.16 -0.16)">
       <defs>
        <path id="DejaVuSans-2e" d="M 684 794 
L 1344 794 
L 1344 0 
L 684 0 
L 684 794 
z
" transform="scale(0.015625)"/>
       </defs>
       <use xlink:href="#DejaVuSans-30"/>
       <use xlink:href="#DejaVuSans-2e" x="63.623047"/>
       <use xlink:href="#DejaVuSans-30" x="95.410156"/>
      </g>
     </g>
    </g>
    <g id="ytick_2">
     <g id="line2d_7">
      <g>
       <use xlink:href="#mcaf5809366" x="71.56" y="227.632" style="stroke: #000000; stroke-width: 3"/>
      </g>
     </g>
     <g id="text_8">
      <!-- 0.2 -->
      <g transform="translate(35.615 233.71075) scale(0.16 -0.16)">
       <use xlink:href="#DejaVuSans-30"/>
       <use xlink:href="#DejaVuSans-2e" x="63.623047"/>
       <use xlink:href="#DejaVuSans-32" x="95.410156"/>
      </g>
     </g>
    </g>
    <g id="ytick_3">
     <g id="line2d_8">
      <g>
       <use xlink:href="#mcaf5809366" x="71.56" y="194.004" style="stroke: #000000; stroke-width: 3"/>
      </g>
     </g>
     <g id="text_9">
      <!-- 0.4 -->
      <g transform="translate(35.615 200.08275) scale(0.16 -0.16)">
       <use xlink:href="#DejaVuSans-30"/>
       <use xlink:href="#DejaVuSans-2e" x="63.623047"/>
       <use xlink:href="#DejaVuSans-34" x="95.410156"/>
      </g>
     </g>
    </g>
    <g id="ytick_4">
     <g id="line2d_9">
      <g>
       <use xlink:href="#mcaf5809366" x="71.56" y="160.376" style="stroke: #000000; stroke-width: 3"/>
      </g>
     </g>
     <g id="text_10">
      <!-- 0.6 -->
      <g transform="translate(35.615 166.45475) scale(0.16 -0.16)">
       <use xlink:href="#DejaVuSans-30"/>
       <use xlink:href="#DejaVuSans-2e" x="63.623047"/>
       <use xlink:href="#DejaVuSans-36" x="95.410156"/>
      </g>
     </g>
    </g>
    <g id="ytick_5">
     <g id="line2d_10">
      <g>
       <use xlink:href="#mcaf5809366" x="71.56" y="126.748" style="stroke: #000000; stroke-width: 3"/>
      </g>
     </g>
     <g id="text_11">
      <!-- 0.8 -->
      <g transform="translate(35.615 132.82675) scale(0.16 -0.16)">
       <use xlink:href="#DejaVuSans-30"/>
       <use xlink:href="#DejaVuSans-2e" x="63.623047"/>
       <use xlink:href="#DejaVuSans-38" x="95.410156"/>
      </g>
     </g>
    </g>
    <g id="ytick_6">
     <g id="line2d_11">
      <g>
       <use xlink:href="#mcaf5809366" x="71.56" y="93.12" style="stroke: #000000; stroke-width: 3"/>
      </g>
     </g>
     <g id="text_12">
      <!-- 1.0 -->
      <g transform="translate(35.615 99.19875) scale(0.16 -0.16)">
       <defs>
        <path id="DejaVuSans-31" d="M 794 531 
L 1825 531 
L 1825 4091 
L 703 3866 
L 703 4441 
L 1819 4666 
L 2450 4666 
L 2450 531 
L 3481 531 
L 3481 0 
L 794 0 
L 794 531 
z
" transform="scale(0.015625)"/>
       </defs>
       <use xlink:href="#DejaVuSans-31"/>
       <use xlink:href="#DejaVuSans-2e" x="63.623047"/>
       <use xlink:href="#DejaVuSans-30" x="95.410156"/>
      </g>
     </g>
    </g>
    <g id="text_13">
     <!-- Firing rate -->
     <g transform="translate(27.039687 233.147344) rotate(-90) scale(0.22 -0.22)">
      <defs>
       <path id="DejaVuSans-46" d="M 628 4666 
L 3309 4666 
L 3309 4134 
L 1259 4134 
L 1259 2759 
L 3109 2759 
L 3109 2228 
L 1259 2228 
L 1259 0 
L 628 0 
L 628 4666 
z
" transform="scale(0.015625)"/>
       <path id="DejaVuSans-72" d="M 2631 2963 
Q 2534 3019 2420 3045 
Q 2306 3072 2169 3072 
Q 1681 3072 1420 2755 
Q 1159 2438 1159 1844 
L 1159 0 
L 581 0 
L 581 3500 
L 1159 3500 
L 1159 2956 
Q 1341 3275 1631 3429 
Q 1922 3584 2338 3584 
Q 2397 3584 2469 3576 
Q 2541 3569 2628 3553 
L 2631 2963 
z
" transform="scale(0.015625)"/>
       <path id="DejaVuSans-6e" d="M 3513 2113 
L 3513 0 
L 2938 0 
L 2938 2094 
Q 2938 2591 2744 2837 
Q 2550 3084 2163 3084 
Q 1697 3084 1428 2787 
Q 1159 2491 1159 1978 
L 1159 0 
L 581 0 
L 581 3500 
L 1159 3500 
L 1159 2956 
Q 1366 3272 1645 3428 
Q 1925 3584 2291 3584 
Q 2894 3584 3203 3211 
Q 3513 2838 3513 2113 
z
" transform="scale(0.015625)"/>
       <path id="DejaVuSans-67" d="M 2906 1791 
Q 2906 2416 2648 2759 
Q 2391 3103 1925 3103 
Q 1463 3103 1205 2759 
Q 947 2416 947 1791 
Q 947 1169 1205 825 
Q 1463 481 1925 481 
Q 2391 481 2648 825 
Q 2906 1169 2906 1791 
z
M 3481 434 
Q 3481 -459 3084 -895 
Q 2688 -1331 1869 -1331 
Q 1566 -1331 1297 -1286 
Q 1028 -1241 775 -1147 
L 775 -588 
Q 1028 -725 1275 -790 
Q 1522 -856 1778 -856 
Q 2344 -856 2625 -561 
Q 2906 -266 2906 331 
L 2906 616 
Q 2728 306 2450 153 
Q 2172 0 1784 0 
Q 1141 0 747 490 
Q 353 981 353 1791 
Q 353 2603 747 3093 
Q 1141 3584 1784 3584 
Q 2172 3584 2450 3431 
Q 2728 3278 2906 2969 
L 2906 3500 
L 3481 3500 
L 3481 434 
z
" transform="scale(0.015625)"/>
       <path id="DejaVuSans-61" d="M 2194 1759 
Q 1497 1759 1228 1600 
Q 959 1441 959 1056 
Q 959 750 1161 570 
Q 1363 391 1709 391 
Q 2188 391 2477 730 
Q 2766 1069 2766 1631 
L 2766 1759 
L 2194 1759 
z
M 3341 1997 
L 3341 0 
L 2766 0 
L 2766 531 
Q 2569 213 2275 61 
Q 1981 -91 1556 -91 
Q 1019 -91 701 211 
Q 384 513 384 1019 
Q 384 1609 779 1909 
Q 1175 2209 1959 2209 
L 2766 2209 
L 2766 2266 
Q 2766 2663 2505 2880 
Q 2244 3097 1772 3097 
Q 1472 3097 1187 3025 
Q 903 2953 641 2809 
L 641 3341 
Q 956 3463 1253 3523 
Q 1550 3584 1831 3584 
Q 2591 3584 2966 3190 
Q 3341 2797 3341 1997 
z
" transform="scale(0.015625)"/>
       <path id="DejaVuSans-74" d="M 1172 4494 
L 1172 3500 
L 2356 3500 
L 2356 3053 
L 1172 3053 
L 1172 1153 
Q 1172 725 1289 603 
Q 1406 481 1766 481 
L 2356 481 
L 2356 0 
L 1766 0 
Q 1100 0 847 248 
Q 594 497 594 1153 
L 594 3053 
L 172 3053 
L 172 3500 
L 594 3500 
L 594 4494 
L 1172 4494 
z
" transform="scale(0.015625)"/>
      </defs>
      <use xlink:href="#DejaVuSans-46"/>
      <use xlink:href="#DejaVuSans-69" x="50.269531"/>
      <use xlink:href="#DejaVuSans-72" x="78.052734"/>
      <use xlink:href="#DejaVuSans-69" x="119.166016"/>
      <use xlink:href="#DejaVuSans-6e" x="146.949219"/>
      <use xlink:href="#DejaVuSans-67" x="210.328125"/>
      <use xlink:href="#DejaVuSans-20" x="273.804688"/>
      <use xlink:href="#DejaVuSans-72" x="305.591797"/>
      <use xlink:href="#DejaVuSans-61" x="346.705078"/>
      <use xlink:href="#DejaVuSans-74" x="407.984375"/>
      <use xlink:href="#DejaVuSans-65" x="447.193359"/>
     </g>
    </g>
   </g>
   <g id="line2d_12">
    <path d="M 82.528636 261.26 
L 84.420963 260.601158 
L 86.971489 259.990899 
L 90.673867 259.40923 
L 100.080649 258.001976 
L 102.027825 257.513737 
L 106.909478 256.050059 
L 110.145631 254.694155 
L 117.495536 250.898259 
L 119.141037 249.587487 
L 121.691564 247.191038 
L 123.85814 244.988687 
L 127.752493 241.593948 
L 130.248169 239.590825 
L 132.003371 237.516503 
L 133.292347 235.456048 
L 136.775324 229.579973 
L 139.462976 225.81377 
L 141.327877 222.673298 
L 144.207504 217.620929 
L 145.16738 216.386959 
L 146.09983 215.642581 
L 147.635632 214.657773 
L 150.213583 211.871076 
L 151.173459 210.902768 
L 152.297885 210.344346 
L 153.340036 210.046103 
L 154.519311 210.125849 
L 155.342062 210.503776 
L 156.109962 210.807249 
L 156.713313 211.164571 
L 158.495939 212.215256 
L 159.92204 212.763025 
L 161.019041 212.649174 
L 161.951491 212.671162 
L 162.993642 212.862954 
L 163.542143 212.853364 
L 164.447168 212.611628 
L 165.269919 211.987093 
L 166.092669 210.952202 
L 167.162245 209.111696 
L 168.314096 207.086952 
L 169.932172 204.902347 
L 172.702099 200.983237 
L 173.826525 199.039995 
L 176.020526 194.959251 
L 176.898127 194.237347 
L 178.790453 193.269078 
L 180.710205 192.761052 
L 182.05403 192.075716 
L 183.534981 190.937173 
L 183.973782 190.813117 
L 185.317608 190.459371 
L 187.292209 188.933589 
L 188.22466 187.654737 
L 188.965135 186.243315 
L 191.241412 182.007551 
L 191.927037 181.144067 
L 192.502963 180.711555 
L 193.024038 180.583731 
L 194.038764 180.650441 
L 195.49229 181.269522 
L 199.030117 183.944307 
L 200.127118 184.559251 
L 201.827469 185.46986 
L 202.458245 185.501229 
L 203.856921 185.812694 
L 204.542546 185.944246 
L 206.023497 185.676994 
L 206.846248 185.007845 
L 208.272349 183.615754 
L 210.548625 182.044001 
L 211.371376 181.456278 
L 211.837601 181.417334 
L 212.248976 181.605817 
L 212.715202 182.013239 
L 213.263702 182.829296 
L 214.580103 185.471773 
L 215.512554 187.316564 
L 218.227631 192.687599 
L 219.132656 194.257112 
L 220.558757 196.348654 
L 222.259108 197.882127 
L 222.835034 198.081693 
L 223.328684 198.093988 
L 224.041735 197.835483 
L 224.45311 197.528617 
L 225.22101 197.030114 
L 226.098611 196.339741 
L 226.784236 195.565034 
L 227.661837 194.19774 
L 228.786263 192.523199 
L 229.581588 191.89307 
L 230.568889 191.277937 
L 231.419065 190.828089 
L 231.912715 190.773442 
L 232.570916 190.972637 
L 233.722766 191.746563 
L 235.231142 193.055054 
L 236.191018 193.749896 
L 239.20777 195.234383 
L 239.70142 195.247575 
L 240.085371 195.049504 
L 240.935546 194.197612 
L 243.403798 191.632824 
L 245.350974 190.654817 
L 246.74965 190.242957 
L 247.243301 189.812919 
L 247.791801 189.044378 
L 248.724252 187.237782 
L 249.409877 185.523621 
L 250.342328 183.25477 
L 251.357054 181.44631 
L 252.097529 180.476627 
L 253.35908 179.372805 
L 255.553081 177.711715 
L 256.320982 177.27402 
L 257.143733 177.096914 
L 257.747083 177.03817 
L 259.392584 177.225441 
L 260.13306 176.907246 
L 260.654135 176.474172 
L 262.135086 174.930649 
L 262.793286 174.507295 
L 263.478912 174.322707 
L 265.316388 174.047788 
L 266.468239 174.266517 
L 267.51039 174.43699 
L 267.921765 174.749307 
L 268.717091 175.61014 
L 270.362592 178.112432 
L 273.708444 185.281075 
L 278.425547 196.659861 
L 279.522548 198.876403 
L 280.729249 200.652262 
L 281.634275 201.618496 
L 282.8684 202.660616 
L 284.404201 203.142352 
L 285.034977 202.937298 
L 285.748027 202.737378 
L 288.92933 202.714878 
L 289.450405 203.063924 
L 292.302607 205.092112 
L 293.125358 205.65059 
L 294.222358 206.47082 
L 295.895284 207.105062 
L 296.47121 207.164959 
L 297.34881 207.202765 
L 298.308686 207.239424 
L 299.378262 207.293951 
L 300.968913 207.684632 
L 301.901364 207.977069 
L 301.901364 207.977069 
" clip-path="url(#p5b8e3f1871)" style="fill: none; stroke: #0000ff; stroke-width: 4; stroke-linecap: square"/>
   </g>
   <g id="line2d_13">
    <path d="M 82.528636 261.26 
L 84.585513 260.534216 
L 86.889214 259.973097 
L 90.564167 259.352255 
L 101.50675 257.804257 
L 109.81653 255.968667 
L 114.314233 254.304367 
L 120.813963 251.863503 
L 122.130364 251.38525 
L 123.69359 250.87149 
L 126.984592 249.825922 
L 129.836794 248.983388 
L 131.208045 248.845532 
L 134.608748 248.83219 
L 136.473649 248.942622 
L 140.038901 249.042888 
L 142.123203 249.025198 
L 149.144008 248.870849 
L 151.776809 249.302788 
L 152.846385 249.434045 
L 154.738711 249.333115 
L 157.837739 249.072581 
L 160.525391 249.291887 
L 161.732091 249.584957 
L 163.267892 249.841659 
L 168.890021 250.822204 
L 172.016473 251.435039 
L 178.735603 252.116237 
L 182.739656 252.137574 
L 185.153058 252.172449 
L 187.676159 252.288946 
L 190.967162 252.56818 
L 192.886913 252.548222 
L 196.863541 252.282778 
L 201.800044 252.450234 
L 204.323146 252.564583 
L 207.175348 252.677883 
L 211.481076 252.690937 
L 213.702502 252.441983 
L 218.200206 252.125355 
L 219.900557 252.085637 
L 221.408933 252.04638 
L 223.932035 252.323846 
L 226.893937 252.599661 
L 228.703988 252.663319 
L 232.022415 252.4207 
L 233.805041 252.239691 
L 237.809094 252.023618 
L 239.728845 252.245646 
L 241.566322 252.580138 
L 243.403798 252.77027 
L 246.228575 252.96022 
L 248.724252 253.145125 
L 255.909607 253.334098 
L 259.063484 253.303677 
L 262.409336 253.301764 
L 266.413389 252.956994 
L 268.470265 252.786392 
L 274.695745 252.071243 
L 276.725196 252.167338 
L 278.014172 252.09443 
L 280.016198 251.923512 
L 282.4296 251.964627 
L 289.25843 252.028953 
L 292.000932 252.077987 
L 294.743434 252.095379 
L 301.901364 251.886688 
L 301.901364 251.886688 
" clip-path="url(#p5b8e3f1871)" style="fill: none; stroke: #ff0000; stroke-width: 4; stroke-linecap: square"/>
   </g>
   <g id="line2d_14">
    <path d="M 82.528636 261.26 
L 84.448388 260.592118 
L 86.971489 259.975199 
L 89.522016 259.562 
L 95.994321 258.629693 
L 102.3295 257.31651 
L 106.607803 256.01027 
L 111.571732 253.89256 
L 114.259383 252.076699 
L 115.712909 250.929851 
L 117.714936 248.953152 
L 118.811937 247.579893 
L 120.018637 245.705528 
L 121.170488 243.573711 
L 123.47419 238.738111 
L 124.790591 235.418067 
L 125.860166 232.106036 
L 127.368542 226.078733 
L 128.794643 219.226458 
L 129.864219 212.957777 
L 131.098345 204.442142 
L 132.551871 192.834269 
L 134.169947 178.24856 
L 138.475675 139.361013 
L 139.654951 131.279081 
L 140.943927 123.973935 
L 142.342603 117.296971 
L 143.576729 112.392549 
L 144.78343 108.503858 
L 145.907855 105.558004 
L 147.087131 103.067257 
L 148.321257 100.958852 
L 149.582808 99.233926 
L 150.789509 97.960586 
L 152.05106 96.942988 
L 153.586861 96.008339 
L 155.177512 95.29234 
L 156.823013 94.800286 
L 159.071864 94.410408 
L 161.759516 94.176372 
L 169.740197 93.819319 
L 179.914879 93.618718 
L 189.349086 93.648592 
L 200.812743 93.643965 
L 274.586045 93.461643 
L 290.931356 93.496294 
L 301.901364 93.468596 
L 301.901364 93.468596 
" clip-path="url(#p5b8e3f1871)" style="fill: none; stroke-dasharray: 4,6.6; stroke-dashoffset: 0; stroke: #0000ff; stroke-width: 4"/>
   </g>
   <g id="line2d_15">
    <path d="M 82.528636 261.26 
L 84.558088 260.546236 
L 86.916639 259.975469 
L 89.659141 259.554213 
L 102.082675 257.834329 
L 104.633202 257.291397 
L 107.540254 256.351799 
L 116.892185 252.327321 
L 120.594563 250.352625 
L 122.953114 248.813518 
L 124.516341 247.439931 
L 126.600642 245.183097 
L 129.370569 241.963132 
L 130.604695 240.386137 
L 132.743846 237.001464 
L 133.813422 234.884978 
L 135.102398 231.923147 
L 137.762625 224.952114 
L 141.821528 213.079787 
L 143.960679 206.781171 
L 146.236956 200.732094 
L 147.141981 198.305652 
L 150.295858 190.338102 
L 152.846385 183.129664 
L 153.641711 180.773342 
L 154.820987 176.686418 
L 156.274513 170.993141 
L 157.673189 164.678587 
L 160.30599 151.447554 
L 163.295317 135.358747 
L 165.023094 127.266877 
L 166.53147 121.345418 
L 168.094696 115.973567 
L 169.136846 113.153411 
L 170.343547 110.575943 
L 171.413123 108.791465 
L 172.839224 106.834464 
L 174.045925 105.444686 
L 176.020526 103.474055 
L 177.967703 101.834782 
L 182.410556 98.629058 
L 183.726957 97.922543 
L 185.564433 97.236237 
L 187.456759 96.738906 
L 190.528361 96.107243 
L 196.42474 95.24101 
L 200.209393 94.906069 
L 204.076321 94.758787 
L 207.860973 94.850992 
L 210.8503 95.153692 
L 219.461756 96.089078 
L 221.271808 96.095513 
L 230.596314 95.772001 
L 238.98837 95.221661 
L 245.488099 95.412382 
L 251.274778 95.662599 
L 268.196015 95.098826 
L 273.461619 95.130032 
L 284.129951 94.763089 
L 291.233031 94.904217 
L 301.901364 94.825078 
L 301.901364 94.825078 
" clip-path="url(#p5b8e3f1871)" style="fill: none; stroke-dasharray: 4,6.6; stroke-dashoffset: 0; stroke: #ff0000; stroke-width: 4"/>
   </g>
   <g id="patch_3">
    <path d="M 71.56 261.26 
L 71.56 93.12 
" style="fill: none; stroke: #000000; stroke-width: 3; stroke-linejoin: miter; stroke-linecap: square"/>
   </g>
   <g id="patch_4">
    <path d="M 71.56 261.26 
L 312.87 261.26 
" style="fill: none; stroke: #000000; stroke-width: 3; stroke-linejoin: miter; stroke-linecap: square"/>
   </g>
   <g id="text_14">
    <!-- DNa02 -->
    <g transform="translate(151.37375 87.12) scale(0.24 -0.24)">
     <defs>
      <path id="DejaVuSans-44" d="M 1259 4147 
L 1259 519 
L 2022 519 
Q 2988 519 3436 956 
Q 3884 1394 3884 2338 
Q 3884 3275 3436 3711 
Q 2988 4147 2022 4147 
L 1259 4147 
z
M 628 4666 
L 1925 4666 
Q 3281 4666 3915 4102 
Q 4550 3538 4550 2338 
Q 4550 1131 3912 565 
Q 3275 0 1925 0 
L 628 0 
L 628 4666 
z
" transform="scale(0.015625)"/>
      <path id="DejaVuSans-4e" d="M 628 4666 
L 1478 4666 
L 3547 763 
L 3547 4666 
L 4159 4666 
L 4159 0 
L 3309 0 
L 1241 3903 
L 1241 0 
L 628 0 
L 628 4666 
z
" transform="scale(0.015625)"/>
     </defs>
     <use xlink:href="#DejaVuSans-44"/>
     <use xlink:href="#DejaVuSans-4e" x="77.001953"/>
     <use xlink:href="#DejaVuSans-61" x="151.806641"/>
     <use xlink:href="#DejaVuSans-30" x="213.085938"/>
     <use xlink:href="#DejaVuSans-32" x="276.708984"/>
    </g>
   </g>
  </g>
  <g id="axes_2">
   <g id="patch_5">
    <path d="M 323.67 261.26 
L 564.98 261.26 
L 564.98 93.12 
L 323.67 93.12 
z
" style="fill: #ffffff"/>
   </g>
   <g id="matplotlib.axis_3">
    <g id="xtick_6">
     <g id="line2d_16">
      <g>
       <use xlink:href="#mcf791f9735" x="334.638636" y="261.26" style="stroke: #000000; stroke-width: 3"/>
      </g>
     </g>
    </g>
    <g id="xtick_7">
     <g id="line2d_17">
      <g>
       <use xlink:href="#mcf791f9735" x="389.488674" y="261.26" style="stroke: #000000; stroke-width: 3"/>
      </g>
     </g>
    </g>
    <g id="xtick_8">
     <g id="line2d_18">
      <g>
       <use xlink:href="#mcf791f9735" x="444.338713" y="261.26" style="stroke: #000000; stroke-width: 3"/>
      </g>
     </g>
    </g>
    <g id="xtick_9">
     <g id="line2d_19">
      <g>
       <use xlink:href="#mcf791f9735" x="499.188751" y="261.26" style="stroke: #000000; stroke-width: 3"/>
      </g>
     </g>
    </g>
    <g id="xtick_10">
     <g id="line2d_20">
      <g>
       <use xlink:href="#mcf791f9735" x="554.038789" y="261.26" style="stroke: #000000; stroke-width: 3"/>
      </g>
     </g>
    </g>
   </g>
   <g id="matplotlib.axis_4"/>
   <g id="line2d_21">
    <path d="M 334.638636 261.26 
L 338.697539 258.65669 
L 346.486245 254.238084 
L 347.939771 253.1265 
L 348.680246 252.549283 
L 352.135799 249.911275 
L 352.931124 248.898477 
L 355.097701 245.8827 
L 358.333853 241.723226 
L 361.04893 237.429859 
L 361.734555 236.309424 
L 363.133231 233.84801 
L 364.751307 231.513634 
L 366.725909 229.66654 
L 367.246984 229.260597 
L 367.740634 228.911874 
L 368.398835 228.385989 
L 369.057035 227.286124 
L 370.675111 224.4383 
L 372.402888 221.852385 
L 372.759413 221.47989 
L 373.280488 220.821869 
L 374.624314 219.063074 
L 375.117964 218.727366 
L 378.326692 217.267344 
L 381.919369 216.058786 
L 386.718748 210.842898 
L 387.788323 210.779046 
L 388.199699 210.764187 
L 388.528799 210.82277 
L 389.022449 210.93076 
L 389.9549 210.912358 
L 390.77765 210.592608 
L 391.216451 210.258128 
L 392.011776 209.713642 
L 392.971652 209.267401 
L 393.684702 208.866695 
L 393.986378 208.654715 
L 394.562303 208.317772 
L 395.138228 208.363065 
L 396.235229 208.532194 
L 396.89343 208.673934 
L 397.579055 209.049166 
L 398.758331 209.868731 
L 399.197131 209.929791 
L 399.498806 209.683764 
L 399.910182 209.333976 
L 400.348982 209.056347 
L 401.034607 208.635987 
L 401.555683 208.482764 
L 403.064059 208.249921 
L 403.585134 208.65034 
L 404.298185 209.102264 
L 405.751711 209.820714 
L 406.108236 209.961168 
L 407.068112 210.414062 
L 407.589187 210.651055 
L 408.549063 210.689061 
L 409.097563 210.894503 
L 409.563788 210.985771 
L 411.31899 211.015584 
L 411.785215 210.964592 
L 412.799941 210.349439 
L 413.211316 210.235965 
L 413.485566 210.26554 
L 414.171192 210.427493 
L 414.801967 210.646858 
L 415.213342 210.793486 
L 416.282918 210.449163 
L 416.968544 209.886168 
L 417.681594 209.19577 
L 419.491645 207.466112 
L 419.957871 207.354337 
L 420.424096 207.493524 
L 421.685647 208.014777 
L 422.124447 208.056613 
L 422.864923 207.93215 
L 423.907073 207.720539 
L 424.839524 207.649056 
L 425.96395 207.016669 
L 426.704425 206.5586 
L 427.335201 206.477211 
L 427.664301 206.56828 
L 428.103101 206.979413 
L 428.679027 207.517397 
L 429.282377 207.916212 
L 430.324528 208.032445 
L 432.710504 207.87139 
L 434.191455 207.319332 
L 434.657681 207.095899 
L 435.261031 207.015699 
L 435.727257 207.12629 
L 436.988807 207.86742 
L 437.317908 207.833752 
L 437.811558 207.622925 
L 438.744009 207.276525 
L 439.895859 206.396438 
L 440.82831 205.652317 
L 441.26711 205.322157 
L 441.733336 205.23478 
L 443.022312 205.286053 
L 444.174162 206.032233 
L 445.709963 207.35871 
L 446.669839 207.581415 
L 448.233065 207.911319 
L 448.699291 207.942148 
L 449.576891 207.884644 
L 450.235092 207.98986 
L 450.728742 207.942309 
L 451.057842 207.897833 
L 451.578918 207.767697 
L 453.992319 207.826179 
L 454.59567 207.550985 
L 455.116745 207.672063 
L 455.63782 207.702226 
L 455.857221 207.774649 
L 456.323446 207.945216 
L 456.789671 207.893304 
L 457.338172 207.801112 
L 457.831822 207.7061 
L 458.298047 207.348462 
L 459.559598 206.440398 
L 459.943548 206.411764 
L 460.327499 206.586276 
L 460.903424 206.804616 
L 461.479349 206.859021 
L 461.7536 206.858236 
L 462.13755 206.864553 
L 463.152276 206.617144 
L 463.591076 206.817323 
L 464.468676 207.844146 
L 466.114178 209.870985 
L 467.183753 210.360121 
L 468.692129 210.068219 
L 469.103505 210.203741 
L 470.145655 210.454794 
L 470.803856 210.480012 
L 471.407206 210.410875 
L 472.504207 210.374596 
L 473.299533 210.127378 
L 474.396533 209.859345 
L 475.164434 209.405266 
L 476.974485 208.230657 
L 477.687536 208.277233 
L 478.619986 208.024085 
L 480.046087 207.037585 
L 480.512313 206.995617 
L 480.896263 207.193667 
L 481.828714 207.978467 
L 482.678889 208.292887 
L 483.474215 208.325717 
L 484.132415 208.663561 
L 486.079591 209.767105 
L 486.573242 209.84285 
L 486.984617 209.802507 
L 487.862218 209.805355 
L 489.151194 209.21707 
L 489.891669 209.249666 
L 490.851545 209.447546 
L 491.345195 209.398202 
L 491.975971 208.921116 
L 493.374647 207.539916 
L 494.608772 207.358193 
L 495.102423 207.426093 
L 495.788048 207.99353 
L 496.171998 208.226594 
L 496.446249 208.22089 
L 497.323849 208.245139 
L 497.9272 208.401156 
L 498.64025 208.419909 
L 498.887075 208.344975 
L 499.764676 207.299351 
L 500.450301 206.367637 
L 501.492452 205.254526 
L 501.821552 205.002871 
L 502.150653 204.975166 
L 502.754003 205.267868 
L 503.768729 205.939223 
L 504.646329 206.400029 
L 505.52393 206.73818 
L 506.785481 206.606203 
L 507.196856 206.653658 
L 508.348707 206.658551 
L 508.897207 206.984306 
L 510.350733 207.237786 
L 511.091209 207.372148 
L 511.557434 207.096895 
L 512.84641 206.043241 
L 513.257785 205.670609 
L 513.669161 205.634214 
L 514.299936 205.752445 
L 515.369512 206.371124 
L 515.753462 206.561933 
L 517.179563 206.715092 
L 518.358839 206.984491 
L 519.044464 206.858525 
L 519.428415 206.8622 
L 519.73009 206.996945 
L 520.27859 207.480963 
L 521.622416 208.401676 
L 522.253192 208.588383 
L 523.459892 209.312273 
L 523.898693 209.294275 
L 524.474618 209.486145 
L 526.312094 210.383141 
L 527.025145 210.57696 
L 527.738195 210.587895 
L 528.286696 210.830366 
L 530.069322 211.709266 
L 530.809798 211.745811 
L 531.248598 211.684404 
L 532.208474 211.365967 
L 532.619849 211.235416 
L 534.04595 210.899377 
L 534.457325 210.994816 
L 534.81385 210.765463 
L 535.499476 210.430997 
L 535.883426 210.441998 
L 536.239951 210.36227 
L 536.898152 209.949804 
L 537.446652 209.697911 
L 537.885452 209.771443 
L 538.379103 209.945517 
L 538.763053 209.987865 
L 539.393828 210.188146 
L 539.997179 210.354624 
L 540.655379 210.337914 
L 541.121605 210.578623 
L 542.273455 211.645045 
L 542.657406 211.762555 
L 544.494882 211.589912 
L 546.167808 211.919553 
L 547.429359 211.505533 
L 548.63606 211.135329 
L 549.211985 210.983816 
L 551.515687 211.152255 
L 552.969213 211.573107 
L 553.599988 211.722138 
L 554.011364 211.657793 
L 554.011364 211.657793 
" clip-path="url(#pc635481e6b)" style="fill: none; stroke: #0000ff; stroke-width: 4; stroke-linecap: square"/>
   </g>
   <g id="line2d_22">
    <path d="M 334.638636 261.26 
L 340.28819 257.587389 
L 342.646742 256.238836 
L 345.224694 254.887137 
L 347.034745 253.808155 
L 348.104321 253.246188 
L 349.448147 252.385453 
L 353.123099 249.314601 
L 354.631475 247.711976 
L 355.783326 246.5343 
L 356.331826 246.00868 
L 357.977328 244.77196 
L 358.690378 244.069771 
L 360.88438 241.502952 
L 364.038257 237.119476 
L 365.820883 234.707917 
L 367.384109 232.734127 
L 368.947335 231.120291 
L 369.852361 230.652369 
L 370.757386 229.914274 
L 371.552712 229.30357 
L 373.554738 228.304245 
L 374.459764 227.455292 
L 375.063114 227.095982 
L 377.586216 226.418734 
L 378.052441 226.102973 
L 378.930042 225.296742 
L 379.780218 224.848881 
L 380.493268 224.46747 
L 380.877218 224.500942 
L 384.415046 225.317777 
L 385.210371 225.386014 
L 387.568923 225.950591 
L 388.912749 225.85468 
L 389.653225 225.707489 
L 390.1743 225.651978 
L 390.77765 225.670379 
L 392.478002 226.232289 
L 393.081352 226.181727 
L 393.849252 225.943542 
L 394.178353 225.875135 
L 396.015829 225.635728 
L 398.15498 225.758172 
L 398.922881 225.704851 
L 399.389106 225.793837 
L 400.486107 226.010004 
L 401.336283 226.286916 
L 402.021908 226.53665 
L 402.542983 226.757958 
L 404.517585 227.70476 
L 405.14836 227.420101 
L 406.217936 226.898573 
L 406.958412 226.551694 
L 407.973137 226.142097 
L 409.426663 226.127503 
L 413.129041 227.848324 
L 413.979216 228.52032 
L 414.335742 228.57111 
L 416.858843 228.64071 
L 417.709019 228.956964 
L 420.506371 230.151231 
L 421.274271 230.540536 
L 422.919773 231.060501 
L 424.318449 231.099521 
L 424.866949 231.107273 
L 425.662275 231.266045 
L 426.95125 231.821011 
L 428.185376 231.862462 
L 429.501777 232.054218 
L 430.735903 231.779494 
L 431.750629 231.549713 
L 432.820205 231.60832 
L 433.259005 231.595892 
L 434.739956 231.538333 
L 435.507856 231.681626 
L 436.879107 231.636612 
L 438.826284 232.009458 
L 440.11526 232.455629 
L 440.746035 232.643369 
L 441.349385 232.6114 
L 442.528661 232.876976 
L 443.954762 232.736597 
L 445.188888 232.248661 
L 446.203614 231.745887 
L 446.779539 231.638979 
L 448.58959 231.615404 
L 449.192941 231.858563 
L 450.454492 232.376973 
L 452.319393 232.575765 
L 452.785618 232.469068 
L 454.842495 232.391266 
L 455.857221 232.688101 
L 456.981646 232.968522 
L 457.393022 233.085376 
L 458.352897 233.025964 
L 459.477323 233.059714 
L 459.916123 233.025182 
L 460.437199 232.964665 
L 463.01515 232.95694 
L 464.331551 232.571323 
L 466.196453 231.64162 
L 466.882078 231.39429 
L 467.622554 231.262282 
L 469.40518 231.490446 
L 471.105531 231.924353 
L 471.708882 231.778066 
L 472.586482 231.45998 
L 473.052707 231.45358 
L 473.656058 231.749039 
L 474.780484 232.318678 
L 476.974485 233.132392 
L 480.183212 233.230966 
L 480.676863 233.132041 
L 483.364515 232.154509 
L 483.99529 232.028943 
L 484.37924 231.813827 
L 485.147141 231.53611 
L 486.710367 231.433307 
L 487.917068 231.214527 
L 488.547843 231.289723 
L 489.096344 231.445112 
L 489.836819 231.805282 
L 493.264946 233.684758 
L 493.676322 233.902955 
L 494.526497 234.028307 
L 494.910448 233.93319 
L 496.693074 233.595427 
L 498.174025 233.921228 
L 498.996775 234.147409 
L 499.764676 234.193693 
L 500.532577 234.276245 
L 501.739277 234.388306 
L 502.370053 234.492792 
L 503.000828 234.327283 
L 503.631604 234.227454 
L 504.289804 234.394306 
L 505.13998 234.638 
L 506.045005 234.559748 
L 507.196856 234.297872 
L 508.760082 233.812442 
L 509.555408 233.752005 
L 510.350733 234.032072 
L 510.899234 234.131378 
L 511.721984 234.276307 
L 512.270485 234.318208 
L 513.724011 234.203125 
L 514.629036 233.870326 
L 515.506637 233.445101 
L 516.219687 233.262878 
L 517.481238 233.114046 
L 518.413689 232.888461 
L 519.812365 232.925174 
L 520.360865 232.658401 
L 520.827091 232.450615 
L 522.856542 232.092178 
L 523.350192 231.917502 
L 526.092694 231.180122 
L 526.55892 231.242392 
L 527.134845 231.489911 
L 528.094721 232.045891 
L 529.191721 232.266374 
L 529.630522 232.087939 
L 530.261297 231.6687 
L 531.001773 231.330628 
L 531.797098 231.210841 
L 532.181048 231.366423 
L 532.866674 231.775873 
L 533.387749 231.791199 
L 534.073375 231.815617 
L 537.090127 231.797225 
L 538.077428 231.725604 
L 538.763053 231.964763 
L 539.750354 232.200957 
L 540.408554 232.132547 
L 542.13633 231.956644 
L 543.233331 231.999641 
L 543.535006 232.000832 
L 545.564458 232.332322 
L 546.496908 232.070724 
L 547.045409 231.970111 
L 549.321685 231.358444 
L 549.787911 231.395875 
L 550.391261 231.514181 
L 550.939762 231.559116 
L 551.488262 231.55615 
L 553.353163 231.753383 
L 554.011364 231.677291 
L 554.011364 231.677291 
" clip-path="url(#pc635481e6b)" style="fill: none; stroke: #ff0000; stroke-width: 4; stroke-linecap: square"/>
   </g>
   <g id="line2d_23">
    <path d="M 334.638636 261.26 
L 339.438015 258.158988 
L 341.193216 257.285972 
L 342.893567 256.492052 
L 345.334394 255.055115 
L 348.186596 252.837896 
L 350.298322 250.833169 
L 351.806698 249.316432 
L 352.492324 248.674755 
L 353.507049 247.589167 
L 354.2201 246.599214 
L 355.317101 245.109247 
L 356.496377 243.622438 
L 358.251578 241.047602 
L 360.99408 236.87729 
L 362.310481 234.952357 
L 363.489756 232.855125 
L 365.766033 228.258424 
L 367.109859 226.23409 
L 370.839661 219.139398 
L 373.362763 213.672319 
L 374.350064 212.199843 
L 375.282515 211.076691 
L 375.85844 210.394126 
L 377.531366 207.759505 
L 377.970166 206.803478 
L 378.518667 205.593881 
L 379.313992 204.237593 
L 380.246443 202.781702 
L 380.932068 201.880179 
L 381.507994 200.818579 
L 382.68727 198.631355 
L 386.526772 192.792931 
L 387.733473 191.349312 
L 388.089998 190.976852 
L 389.653225 188.757529 
L 390.284 188.313779 
L 390.7228 188.371975 
L 391.518126 188.610494 
L 392.094051 188.582828 
L 392.423151 188.387623 
L 393.273327 187.744737 
L 394.123503 186.594049 
L 394.809128 185.500243 
L 397.524205 182.893352 
L 399.005156 181.612026 
L 400.732932 179.066377 
L 401.528258 177.81238 
L 402.104183 177.131246 
L 402.515558 176.807499 
L 403.448009 175.831473 
L 404.10621 175.374351 
L 404.901535 174.589942 
L 406.629311 171.52931 
L 407.506912 170.693695 
L 407.863437 170.529906 
L 408.247387 170.546489 
L 408.987863 170.898246 
L 409.426663 171.275751 
L 409.783189 171.464677 
L 410.167139 171.332253 
L 410.715639 171.116399 
L 411.26414 171.177071 
L 411.92234 171.218336 
L 412.333715 171.401649 
L 412.827366 171.649494 
L 414.993942 171.180149 
L 415.432742 170.754203 
L 418.120394 167.643829 
L 418.668895 167.208992 
L 419.107695 167.116666 
L 419.57392 166.974639 
L 420.067571 166.820522 
L 420.561221 166.893238 
L 421.082296 166.931251 
L 422.672947 165.940177 
L 423.166598 165.563901 
L 424.263599 164.918418 
L 424.510424 164.785543 
L 424.949224 164.538004 
L 426.18335 164.038044 
L 426.62215 163.926672 
L 427.252926 163.955621 
L 429.227527 163.900672 
L 432.216854 162.91163 
L 432.655654 162.773599 
L 433.39613 162.681566 
L 433.697805 162.845865 
L 434.301156 163.526415 
L 434.822231 164.093529 
L 435.288456 164.333888 
L 435.699832 164.323072 
L 436.083782 164.35958 
L 437.016232 164.498897 
L 437.647008 164.540608 
L 438.469758 164.921379 
L 440.526635 166.341282 
L 441.678486 166.224544 
L 442.610936 166.061939 
L 443.351412 165.897319 
L 443.982187 165.737666 
L 444.283862 165.593727 
L 444.612963 165.507844 
L 445.326013 165.596437 
L 445.901939 165.660701 
L 446.560139 165.438839 
L 447.053789 165.276811 
L 449.192941 164.235408 
L 449.714016 163.798141 
L 450.372217 163.617289 
L 451.249817 163.87606 
L 452.291968 164.314886 
L 453.251844 164.215239 
L 453.910044 163.587728 
L 454.54082 163.069003 
L 455.63782 162.280064 
L 456.049196 162.048533 
L 457.722122 160.805487 
L 458.270622 160.580496 
L 458.791698 160.281466 
L 459.998398 159.550247 
L 461.534199 158.244329 
L 461.8633 158.212931 
L 462.1924 158.248911 
L 462.768325 158.307925 
L 464.167001 158.362769 
L 464.605802 158.435243 
L 465.401127 158.673683 
L 466.361003 158.519156 
L 467.320878 157.879652 
L 468.088779 157.424243 
L 468.582429 157.436831 
L 469.213205 157.650631 
L 469.62458 157.688856 
L 470.090805 157.69632 
L 471.516906 158.528416 
L 472.696182 159.303118 
L 473.052707 159.363337 
L 473.381808 159.272978 
L 474.506233 158.798063 
L 475.383834 158.159361 
L 475.712934 158.151545 
L 476.06946 158.184268 
L 476.316285 158.229224 
L 477.632686 158.67855 
L 478.400586 158.569079 
L 478.784536 158.488695 
L 479.689562 158.687438 
L 480.375188 158.712772 
L 481.527038 159.291572 
L 482.459489 159.905128 
L 482.788589 159.901519 
L 483.145114 159.7827 
L 484.845466 158.968732 
L 485.229416 158.875333 
L 487.341142 157.752939 
L 487.834793 157.72103 
L 488.684968 157.592521 
L 491.64687 158.267325 
L 492.332496 158.614522 
L 493.319797 158.858603 
L 493.758597 158.962813 
L 494.224822 158.983078 
L 494.636197 158.973963 
L 495.925173 158.315765 
L 496.830199 157.793649 
L 497.680375 157.888479 
L 498.366 157.995585 
L 499.271026 157.792657 
L 499.737251 157.759423 
L 501.382752 158.030759 
L 502.205503 158.321778 
L 502.671728 158.3274 
L 504.125254 158.592386 
L 504.838305 158.848891 
L 505.30453 159.018645 
L 505.68848 159.33132 
L 506.07243 159.591351 
L 506.428956 159.646549 
L 507.004881 159.578229 
L 507.333981 159.677677 
L 507.580806 159.722074 
L 509.719958 158.583991 
L 510.268458 158.152894 
L 511.612284 157.822513 
L 512.023659 157.659067 
L 512.983535 157.480539 
L 513.39491 157.414424 
L 513.778861 157.305737 
L 515.204962 156.726665 
L 516.658488 155.737819 
L 517.015013 155.905951 
L 517.645788 156.212355 
L 518.852489 156.868041 
L 520.251165 156.99274 
L 520.635115 156.961012 
L 521.841816 157.267095 
L 522.774267 157.65336 
L 523.926118 158.005183 
L 524.310068 157.854379 
L 524.831143 157.742889 
L 526.065269 157.946966 
L 526.83317 158.676296 
L 527.54622 159.500565 
L 528.588371 160.476001 
L 528.917471 160.518169 
L 529.191721 160.398814 
L 529.712797 160.23474 
L 530.370997 160.28221 
L 531.166323 160.454177 
L 531.632548 160.287918 
L 533.497449 160.502369 
L 533.853975 160.293424 
L 534.457325 159.932548 
L 535.060675 159.725366 
L 536.678752 159.847524 
L 537.227252 159.540373 
L 538.406528 159.2603 
L 538.927603 159.383094 
L 539.914904 159.671159 
L 540.682804 159.556019 
L 541.011905 159.532029 
L 542.438006 159.248138 
L 542.767106 159.295622 
L 543.425306 159.467356 
L 544.522307 159.591514 
L 544.933682 159.657176 
L 546.058108 159.654509 
L 546.661459 159.270035 
L 547.017984 159.140732 
L 547.758459 159.251707 
L 548.279535 159.336137 
L 549.047435 159.328737 
L 549.815336 158.681359 
L 550.830061 157.694294 
L 551.460837 157.391734 
L 553.024063 157.045264 
L 554.011364 157.148378 
L 554.011364 157.148378 
" clip-path="url(#pc635481e6b)" style="fill: none; stroke-dasharray: 4,6.6; stroke-dashoffset: 0; stroke: #0000ff; stroke-width: 4"/>
   </g>
   <g id="line2d_24">
    <path d="M 334.638636 261.26 
L 339.46544 258.141203 
L 347.22672 254.265082 
L 349.749822 252.553591 
L 351.724423 251.01137 
L 355.152551 247.944297 
L 356.194701 246.688473 
L 358.854928 242.584335 
L 361.04893 238.435792 
L 367.960034 229.39875 
L 368.64566 228.49553 
L 369.660386 227.303789 
L 370.537986 226.443362 
L 373.883839 222.266651 
L 374.651739 221.397075 
L 377.887891 216.74984 
L 380.328718 214.134506 
L 381.316019 213.523449 
L 382.330744 212.564506 
L 383.537445 210.981506 
L 384.250496 210.162099 
L 387.952873 205.481995 
L 388.473949 205.194202 
L 388.803049 204.951179 
L 389.488674 204.357555 
L 390.695375 203.757281 
L 391.682676 203.155441 
L 392.231176 202.93192 
L 395.001103 201.640508 
L 395.741579 201.400911 
L 396.098104 201.40597 
L 396.674029 201.506498 
L 397.030555 201.416298 
L 398.319531 200.578764 
L 398.676056 200.366099 
L 399.032581 200.398262 
L 399.910182 200.496405 
L 400.650657 200.278396 
L 401.007182 200.119001 
L 401.473408 199.819539 
L 403.557709 198.07964 
L 403.914234 198.143076 
L 404.92896 198.366841 
L 405.20321 198.224885 
L 406.163086 197.094275 
L 406.629311 196.56798 
L 408.960438 194.473854 
L 409.947739 193.756677 
L 410.907614 193.21121 
L 411.31899 192.930365 
L 412.36114 191.873927 
L 412.909641 191.260608 
L 415.487592 189.24496 
L 416.365193 188.544455 
L 416.831418 188.209253 
L 418.723745 187.143862 
L 419.957871 185.95647 
L 420.506371 185.902579 
L 421.054871 186.204933 
L 421.795347 186.706944 
L 422.371272 186.638417 
L 422.672947 186.715044 
L 423.303723 186.857912 
L 423.797373 186.77965 
L 424.866949 186.171472 
L 425.360599 185.866789 
L 425.717125 185.767415 
L 426.2382 185.663482 
L 427.527176 184.749573 
L 427.965976 184.400201 
L 430.818178 182.84632 
L 432.90248 180.485205 
L 434.273731 179.387501 
L 434.822231 178.992685 
L 435.123906 179.034185 
L 435.562706 179.313545 
L 436.001507 179.654443 
L 436.522582 179.987816 
L 437.098507 180.108895 
L 438.195508 179.90435 
L 438.853709 180.10475 
L 439.374784 180.028663 
L 439.813584 179.733874 
L 440.88316 178.916328 
L 442.775486 178.589995 
L 443.461112 178.258235 
L 443.735362 178.104499 
L 445.326013 176.602377 
L 445.764813 176.462317 
L 448.013665 176.065091 
L 448.53474 175.708983 
L 449.000966 175.530638 
L 449.412341 175.418402 
L 450.289942 175.099449 
L 450.756167 174.996607 
L 451.140117 175.063161 
L 451.880593 175.155921 
L 452.648493 175.065091 
L 452.977594 175.049164 
L 453.635794 175.070209 
L 454.129444 175.025848 
L 455.226445 175.408837 
L 456.158896 176.039663 
L 456.899371 176.315785 
L 457.393022 176.476279 
L 458.188347 176.616942 
L 458.819123 176.846528 
L 459.093373 176.81709 
L 459.477323 177.096214 
L 461.205099 178.845151 
L 461.890725 179.40626 
L 463.124851 180.308381 
L 463.453951 180.360487 
L 463.865326 180.157181 
L 464.605802 179.832468 
L 465.126877 179.858633 
L 465.455977 179.890445 
L 465.812502 179.855482 
L 466.498128 180.256191 
L 467.211178 180.707033 
L 467.677404 180.922456 
L 468.500154 181.255055 
L 468.91153 181.225458 
L 469.84398 181.133504 
L 471.105531 180.98369 
L 471.736307 180.8015 
L 472.696182 179.946242 
L 473.272108 179.466902 
L 473.957733 179.35686 
L 474.451383 179.363304 
L 474.753059 179.291299 
L 475.191859 179.246068 
L 475.575809 179.325021 
L 476.17916 179.534373 
L 476.72766 179.714599 
L 477.27616 179.790623 
L 477.906936 179.597959 
L 478.236036 179.603754 
L 478.702261 179.638603 
L 480.402613 179.190034 
L 481.527038 178.591928 
L 483.22739 177.837213 
L 485.147141 176.12172 
L 485.613366 176.154654 
L 485.997316 176.090237 
L 486.682942 175.944094 
L 486.902342 176.141177 
L 487.204017 176.310503 
L 488.739818 176.977849 
L 489.617419 177.627329 
L 491.838845 178.695494 
L 492.140521 178.585682 
L 492.689021 178.507339 
L 493.210096 178.389567 
L 494.526497 178.171234 
L 494.828173 178.336709 
L 496.034873 179.246016 
L 497.98205 179.737678 
L 498.941925 180.584053 
L 499.325876 180.731917 
L 500.560002 180.726712 
L 500.834252 180.417673 
L 502.040953 178.836676 
L 502.562028 178.604785 
L 502.973403 178.395792 
L 503.851004 178.080316 
L 505.24968 177.666786 
L 507.224281 177.97941 
L 507.690506 178.039253 
L 508.129307 178.105373 
L 509.418283 177.683003 
L 509.692533 177.664687 
L 510.515283 178.024706 
L 510.816959 178.058669 
L 512.160785 177.527652 
L 512.62701 176.965532 
L 513.586886 175.82009 
L 514.025686 175.619059 
L 514.738736 175.500553 
L 515.369512 175.712981 
L 515.972862 176.079954 
L 516.631063 176.397223 
L 517.563513 176.943761 
L 518.221714 177.482328 
L 518.770214 177.529503 
L 519.647815 177.585822 
L 520.11404 177.771393 
L 520.525415 177.951089 
L 521.457866 177.755757 
L 521.896666 177.705072 
L 522.362892 177.677108 
L 523.405042 177.994158 
L 524.118093 177.847129 
L 524.584318 177.451196 
L 525.544194 176.440505 
L 526.229819 175.723446 
L 527.518795 174.665344 
L 527.738195 174.656109 
L 528.533521 175.037294 
L 529.054596 175.285491 
L 529.740222 175.011423 
L 530.370997 174.933593 
L 531.385723 174.536429 
L 532.208474 174.547043 
L 533.744275 175.330024 
L 534.512175 175.928816 
L 535.088101 176.375285 
L 535.910851 177.039278 
L 536.541627 177.20643 
L 537.364377 177.071368 
L 537.940302 176.97657 
L 538.406528 177.181289 
L 538.872753 177.347886 
L 539.530954 177.285525 
L 540.463404 177.031114 
L 541.75238 176.886848 
L 542.876806 176.281599 
L 544.412607 175.846631 
L 545.262783 176.106656 
L 546.359783 176.904088 
L 547.292234 177.239966 
L 548.060135 177.35958 
L 548.36181 177.309538 
L 549.02001 176.637478 
L 549.842761 175.866268 
L 550.802636 175.369958 
L 551.405987 175.337211 
L 551.817362 175.295041 
L 552.557838 175.180207 
L 552.969213 175.2159 
L 554.011364 175.525312 
L 554.011364 175.525312 
" clip-path="url(#pc635481e6b)" style="fill: none; stroke-dasharray: 4,6.6; stroke-dashoffset: 0; stroke: #ff0000; stroke-width: 4"/>
   </g>
   <g id="patch_6">
    <path d="M 323.67 261.26 
L 564.98 261.26 
" style="fill: none; stroke: #000000; stroke-width: 3; stroke-linejoin: miter; stroke-linecap: square"/>
   </g>
   <g id="text_15">
    <!-- LAL010 -->
    <g transform="translate(399.56875 87.12) scale(0.24 -0.24)">
     <defs>
      <path id="DejaVuSans-4c" d="M 628 4666 
L 1259 4666 
L 1259 531 
L 3531 531 
L 3531 0 
L 628 0 
L 628 4666 
z
" transform="scale(0.015625)"/>
      <path id="DejaVuSans-41" d="M 2188 4044 
L 1331 1722 
L 3047 1722 
L 2188 4044 
z
M 1831 4666 
L 2547 4666 
L 4325 0 
L 3669 0 
L 3244 1197 
L 1141 1197 
L 716 0 
L 50 0 
L 1831 4666 
z
" transform="scale(0.015625)"/>
     </defs>
     <use xlink:href="#DejaVuSans-4c"/>
     <use xlink:href="#DejaVuSans-41" x="57.962891"/>
     <use xlink:href="#DejaVuSans-4c" x="126.371094"/>
     <use xlink:href="#DejaVuSans-30" x="182.083984"/>
     <use xlink:href="#DejaVuSans-31" x="245.707031"/>
     <use xlink:href="#DejaVuSans-30" x="309.330078"/>
    </g>
   </g>
  </g>
  <g id="axes_3">
   <g id="patch_7">
    <path d="M 575.78 261.26 
L 817.09 261.26 
L 817.09 93.12 
L 575.78 93.12 
z
" style="fill: #ffffff"/>
   </g>
   <g id="matplotlib.axis_5">
    <g id="xtick_11">
     <g id="line2d_25">
      <g>
       <use xlink:href="#mcf791f9735" x="586.748636" y="261.26" style="stroke: #000000; stroke-width: 3"/>
      </g>
     </g>
    </g>
    <g id="xtick_12">
     <g id="line2d_26">
      <g>
       <use xlink:href="#mcf791f9735" x="641.598674" y="261.26" style="stroke: #000000; stroke-width: 3"/>
      </g>
     </g>
    </g>
    <g id="xtick_13">
     <g id="line2d_27">
      <g>
       <use xlink:href="#mcf791f9735" x="696.448713" y="261.26" style="stroke: #000000; stroke-width: 3"/>
      </g>
     </g>
    </g>
    <g id="xtick_14">
     <g id="line2d_28">
      <g>
       <use xlink:href="#mcf791f9735" x="751.298751" y="261.26" style="stroke: #000000; stroke-width: 3"/>
      </g>
     </g>
    </g>
    <g id="xtick_15">
     <g id="line2d_29">
      <g>
       <use xlink:href="#mcf791f9735" x="806.148789" y="261.26" style="stroke: #000000; stroke-width: 3"/>
      </g>
     </g>
    </g>
   </g>
   <g id="matplotlib.axis_6"/>
   <g id="line2d_30">
    <path d="M 586.748636 261.26 
L 588.613538 260.133914 
L 590.944664 259.065341 
L 593.467766 258.235271 
L 601.530722 255.586972 
L 604.958849 254.238961 
L 609.346852 251.569207 
L 610.498703 250.842916 
L 615.901432 246.383368 
L 616.696757 245.774518 
L 619.494109 244.096493 
L 620.892785 243.198133 
L 624.430613 239.610218 
L 625.445338 238.666685 
L 627.090839 237.119244 
L 628.07814 236.537713 
L 632.466143 234.301811 
L 634.029369 233.612598 
L 636.470196 231.519169 
L 638.609347 229.390554 
L 639.294973 228.990184 
L 640.309699 228.607489 
L 640.830774 228.501197 
L 642.092325 228.143668 
L 643.0522 227.632965 
L 647.028828 225.007713 
L 648.646904 224.556231 
L 649.469655 224.50971 
L 651.197431 224.721087 
L 651.499106 224.597132 
L 653.281733 223.580167 
L 655.036934 222.872292 
L 655.585434 222.933366 
L 656.76471 223.119177 
L 657.340635 223.187267 
L 659.754037 223.689406 
L 661.262413 223.719713 
L 662.715939 223.655577 
L 664.30659 223.376078 
L 665.513291 223.077048 
L 666.637717 223.145462 
L 667.789568 223.157656 
L 668.859143 222.742643 
L 670.010994 221.962506 
L 672.287271 220.41398 
L 672.780921 220.40127 
L 674.426422 220.291456 
L 676.483299 219.719176 
L 677.031799 219.567697 
L 677.552874 219.323845 
L 678.84185 218.57198 
L 679.692026 218.399865 
L 680.213101 218.615189 
L 680.953577 218.974773 
L 681.995727 219.22264 
L 682.708778 219.279869 
L 683.229853 219.29443 
L 683.641229 219.287686 
L 684.738229 219.160182 
L 685.50613 218.976739 
L 686.603131 218.543585 
L 687.590431 218.32244 
L 688.084082 218.412931 
L 689.126232 218.65275 
L 689.537608 218.581658 
L 690.086108 218.468105 
L 691.073409 218.169334 
L 694.007886 216.556483 
L 695.763087 216.424407 
L 696.366437 216.644312 
L 697.792538 217.384707 
L 700.48019 217.802099 
L 701.412641 217.784778 
L 705.581244 217.87939 
L 706.212019 217.717257 
L 706.733095 217.54208 
L 707.939795 217.551072 
L 708.652846 217.652371 
L 710.051522 217.511815 
L 711.038823 216.993486 
L 711.806723 216.648469 
L 712.492349 216.683437 
L 713.287674 216.769225 
L 714.329825 216.686379 
L 715.042875 216.489938 
L 715.399401 216.486862 
L 715.975326 216.700532 
L 716.688377 217.242247 
L 718.471003 218.708463 
L 719.211478 219.048656 
L 722.036255 219.501863 
L 722.804156 219.68516 
L 724.038282 219.792026 
L 724.559357 219.787069 
L 726.259708 219.574237 
L 726.863059 219.420346 
L 727.877784 218.978819 
L 728.919935 218.518615 
L 729.413585 218.512262 
L 730.373461 218.37793 
L 730.894536 218.169309 
L 732.375487 217.403395 
L 732.896563 217.349096 
L 733.362788 217.552598 
L 733.911289 217.729947 
L 735.44709 217.857038 
L 735.968165 217.954827 
L 739.176892 218.962385 
L 739.972218 219.002042 
L 741.727419 218.648865 
L 743.48262 218.72641 
L 744.140821 218.415298 
L 745.539497 217.523956 
L 746.581647 217.327439 
L 747.514098 217.396339 
L 748.391699 217.67412 
L 749.324149 217.657538 
L 751.271326 217.695463 
L 751.984376 217.123089 
L 753.821852 215.593493 
L 754.342928 215.441852 
L 755.001128 215.533214 
L 758.155005 216.045257 
L 758.813206 215.969721 
L 759.910207 215.930633 
L 760.376432 215.91283 
L 761.171757 216.154257 
L 761.829958 216.200306 
L 763.091509 216.504985 
L 763.475459 216.44848 
L 764.73701 215.908572 
L 765.532335 215.464595 
L 766.382511 215.449979 
L 767.205262 215.649997 
L 768.028012 215.829709 
L 768.686213 215.85973 
L 769.481538 215.964228 
L 770.167164 216.06294 
L 771.94979 216.139828 
L 772.909666 216.695412 
L 773.622716 217.009238 
L 774.527742 217.266191 
L 775.240792 217.677511 
L 775.761868 217.750284 
L 776.447493 217.901698 
L 779.10772 218.88981 
L 779.93047 219.035894 
L 782.371297 220.177837 
L 784.373324 220.201722 
L 787.115825 219.919407 
L 787.856301 219.726867 
L 788.349951 219.659864 
L 789.063002 219.307961 
L 789.501802 219.126862 
L 790.077728 219.123643 
L 791.065028 219.160218 
L 793.286455 219.419631 
L 794.657706 220.157973 
L 795.343331 220.18152 
L 796.138657 220.19419 
L 797.647033 220.566153 
L 798.195533 220.683571 
L 798.853734 220.60287 
L 800.80091 220.355122 
L 801.34941 220.256727 
L 804.201612 220.32996 
L 805.956814 220.743009 
L 806.121364 220.734939 
L 806.121364 220.734939 
" clip-path="url(#pb9b82ec5f5)" style="fill: none; stroke: #0000ff; stroke-width: 4; stroke-linecap: square"/>
   </g>
   <g id="line2d_31">
    <path d="M 586.748636 261.26 
L 588.970063 259.894823 
L 590.917239 258.99512 
L 594.098541 257.861422 
L 599.912646 256.240969 
L 601.695272 255.711687 
L 605.397649 254.275234 
L 608.140151 252.962185 
L 612.034504 251.200471 
L 614.530181 249.583695 
L 619.027884 246.389015 
L 620.783085 245.137288 
L 621.633261 244.749667 
L 623.031937 243.966143 
L 623.964387 243.490507 
L 625.856714 242.588719 
L 627.255389 241.763537 
L 628.544365 241.371207 
L 629.751066 240.929265 
L 630.436692 240.508144 
L 631.067467 240.128457 
L 633.261469 239.275104 
L 634.001944 239.175847 
L 634.79727 239.126692 
L 641.269574 238.538436 
L 642.531125 238.291792 
L 643.134476 238.288622 
L 644.560576 238.301154 
L 648.811454 237.322299 
L 650.182705 237.129394 
L 651.663656 236.97325 
L 653.391433 236.999984 
L 656.901835 237.376511 
L 661.234988 236.179663 
L 662.002889 236.230411 
L 665.074491 236.740398 
L 666.253767 237.200807 
L 667.789568 237.231912 
L 669.105969 237.250783 
L 672.122721 237.773116 
L 674.947498 238.353341 
L 676.976949 238.339268 
L 677.991675 238.448756 
L 679.445201 238.687069 
L 682.132853 238.879152 
L 684.628529 238.659596 
L 686.05463 238.550218 
L 686.877381 238.534558 
L 687.782406 238.552229 
L 689.043957 238.474812 
L 689.921558 238.501129 
L 690.689459 238.62667 
L 692.88346 239.000833 
L 693.623936 238.983641 
L 695.269437 239.071796 
L 696.613263 238.902874 
L 697.518288 238.658489 
L 699.218639 238.331637 
L 700.013965 238.241695 
L 700.64474 238.215481 
L 701.467491 238.375292 
L 702.427367 238.607714 
L 703.798618 238.699146 
L 704.456818 238.700065 
L 705.389269 238.573982 
L 707.19932 238.521769 
L 709.585297 238.836851 
L 715.536526 238.703297 
L 718.662978 237.895386 
L 719.842254 237.711525 
L 721.13123 237.728616 
L 722.694456 238.01323 
L 723.270381 238.023529 
L 724.367382 237.815599 
L 725.244982 237.745992 
L 726.451683 238.070528 
L 729.44101 238.745876 
L 730.538011 238.863898 
L 731.443037 238.961101 
L 732.485188 238.87105 
L 733.390213 238.617505 
L 734.871164 238.267785 
L 736.48924 237.985345 
L 737.421691 237.793478 
L 738.491267 237.761013 
L 739.670543 237.52312 
L 741.699994 237.686736 
L 742.358194 237.843438 
L 742.961545 238.022846 
L 746.225122 239.076297 
L 746.938173 239.109054 
L 748.830499 238.950254 
L 753.575027 239.552538 
L 754.973703 239.588015 
L 755.906154 239.515618 
L 758.401831 239.686924 
L 759.663381 239.460248 
L 760.897507 239.256195 
L 761.939658 239.2688 
L 764.73701 239.601413 
L 766.327661 239.493037 
L 767.369812 239.163947 
L 768.466812 238.951959 
L 769.892913 238.756139 
L 770.688239 238.678952 
L 771.73039 238.654615 
L 772.27889 238.551312 
L 773.348466 238.280163 
L 774.445467 238.160624 
L 774.966542 238.030335 
L 775.789293 237.831367 
L 778.72377 237.322001 
L 779.409395 237.47663 
L 780.945196 237.889212 
L 781.603397 237.858183 
L 782.480997 237.573393 
L 783.248898 237.373843 
L 784.016798 237.315398 
L 784.483024 237.463003 
L 785.141224 237.62657 
L 787.307801 237.675106 
L 790.598803 237.500415 
L 791.997479 237.681732 
L 793.341305 237.54383 
L 794.383455 237.527854 
L 798.003558 237.815004 
L 799.319959 237.688355 
L 801.267135 237.336392 
L 806.121364 237.540175 
L 806.121364 237.540175 
" clip-path="url(#pb9b82ec5f5)" style="fill: none; stroke: #ff0000; stroke-width: 4; stroke-linecap: square"/>
   </g>
   <g id="line2d_32">
    <path d="M 586.748636 261.26 
L 588.640963 260.116726 
L 590.944664 259.025887 
L 592.782141 258.370592 
L 595.771468 257.564073 
L 597.910619 256.860858 
L 600.570846 255.829873 
L 604.876574 253.894236 
L 606.49465 252.977982 
L 611.102053 249.902553 
L 612.473304 248.873902 
L 614.968981 246.984745 
L 616.011132 245.908783 
L 616.943582 244.941201 
L 618.534233 243.43495 
L 619.494109 242.464868 
L 622.812536 238.636313 
L 624.128937 236.683044 
L 626.021264 234.090995 
L 629.751066 229.529635 
L 635.40062 220.60805 
L 637.265521 217.610741 
L 639.788623 213.556163 
L 640.583949 212.34694 
L 642.421425 209.578621 
L 642.99735 209.247204 
L 644.697702 208.168897 
L 645.328477 207.565756 
L 646.590028 205.715563 
L 647.769304 204.114325 
L 649.140555 202.430328 
L 649.93588 201.560125 
L 650.374681 201.052175 
L 651.828207 199.057884 
L 653.144607 196.884534 
L 654.241608 195.181316 
L 654.872384 194.333315 
L 655.996809 192.93543 
L 657.011535 191.695811 
L 659.260387 187.709786 
L 659.836312 187.050361 
L 660.384812 186.700817 
L 661.152713 186.589076 
L 661.838338 186.683001 
L 662.249714 186.483222 
L 662.990189 186.152513 
L 663.620965 185.977996 
L 664.279165 185.910911 
L 665.239041 186.018473 
L 666.665142 185.78918 
L 667.103942 185.632847 
L 667.570167 185.285363 
L 670.888595 181.873088 
L 672.479246 181.193568 
L 673.356846 180.974411 
L 673.932772 180.713375 
L 674.618397 180.218193 
L 675.578273 179.520111 
L 678.375625 177.864744 
L 679.1161 177.675904 
L 679.719451 177.602004 
L 680.377651 177.564225 
L 681.172977 177.448625 
L 685.094755 176.240929 
L 685.89008 176.298571 
L 687.617856 177.374123 
L 688.358332 177.471302 
L 689.318208 177.572118 
L 689.757008 177.654208 
L 690.662033 178.047288 
L 693.10286 179.533925 
L 693.980461 179.606236 
L 694.666086 179.61645 
L 695.324287 179.590876 
L 697.134338 179.274296 
L 698.286189 179.261617 
L 698.807264 179.212994 
L 699.71229 178.950945 
L 700.288215 178.73335 
L 701.440066 178.173571 
L 701.933716 177.883506 
L 703.222692 177.696391 
L 705.087594 178.00148 
L 705.608669 177.754399 
L 707.52842 176.358369 
L 708.351171 175.882901 
L 709.640147 174.858028 
L 710.654872 174.341915 
L 712.821449 172.638137 
L 713.7539 171.883354 
L 714.110425 171.823764 
L 716.331851 171.568069 
L 717.154602 171.713829 
L 718.388728 171.673946 
L 719.211478 171.264307 
L 720.390754 170.646756 
L 722.475056 170.723855 
L 723.270381 170.962772 
L 724.312532 171.563115 
L 725.464383 171.874244 
L 726.588808 171.63167 
L 727.548684 171.107764 
L 728.042334 171.093423 
L 729.523285 171.306338 
L 730.044361 171.331342 
L 730.976811 171.220717 
L 731.525312 171.390005 
L 732.786863 171.526229 
L 735.008289 172.519074 
L 735.858465 172.338946 
L 737.860491 171.474553 
L 739.478567 170.637517 
L 740.054493 170.502967 
L 740.932093 170.371457 
L 742.248494 170.463512 
L 742.82442 170.497404 
L 746.471947 171.606504 
L 747.267273 171.500879 
L 748.117448 171.186995 
L 749.296724 170.730737 
L 753.767002 170.684215 
L 755.385078 170.869279 
L 755.878729 170.946952 
L 756.728904 171.237794 
L 757.606505 171.516949 
L 758.401831 171.945338 
L 760.321582 172.084271 
L 763.064084 171.087396 
L 763.475459 170.984234 
L 765.39521 170.375823 
L 766.409936 170.147287 
L 767.287537 169.666911 
L 768.713638 168.679382 
L 769.152438 168.737596 
L 770.057464 169.054213 
L 771.291589 169.401844 
L 772.361165 169.451074 
L 772.827391 169.436719 
L 773.732416 169.579924 
L 776.036118 170.40433 
L 776.502343 170.314665 
L 776.995993 170.299864 
L 778.339819 170.573872 
L 779.683645 171.765007 
L 780.862921 172.767386 
L 781.301721 172.788972 
L 781.905072 172.796646 
L 783.577998 173.148205 
L 783.934523 173.186886 
L 785.909125 173.386046 
L 786.841575 172.991414 
L 787.307801 172.910585 
L 788.048276 172.985243 
L 788.788752 172.91271 
L 789.501802 172.598173 
L 790.324553 172.352466 
L 791.202153 172.460768 
L 792.079754 172.60768 
L 792.792804 172.542258 
L 793.20418 172.510066 
L 795.069081 172.38044 
L 795.535306 172.421743 
L 796.687157 172.51995 
L 797.125957 172.55478 
L 798.195533 172.585513 
L 798.771459 172.325224 
L 799.210259 172.2176 
L 801.376835 172.132867 
L 801.788211 171.852323 
L 802.610961 171.172399 
L 803.186887 170.79801 
L 805.408313 170.077612 
L 806.121364 170.080117 
L 806.121364 170.080117 
" clip-path="url(#pb9b82ec5f5)" style="fill: none; stroke-dasharray: 4,6.6; stroke-dashoffset: 0; stroke: #0000ff; stroke-width: 4"/>
   </g>
   <g id="line2d_33">
    <path d="M 586.748636 261.26 
L 588.915213 259.934086 
L 590.889814 259.015699 
L 592.61759 258.464109 
L 600.707971 256.176491 
L 605.068549 254.571915 
L 608.578952 252.897166 
L 611.321453 250.888111 
L 613.15893 249.24268 
L 620.892785 243.642341 
L 621.852661 242.973246 
L 622.785111 242.350466 
L 624.019237 241.27703 
L 625.966414 239.721525 
L 627.36509 238.524968 
L 629.367116 236.41023 
L 630.930342 234.921114 
L 634.824695 231.887761 
L 635.757145 230.992622 
L 636.442771 230.307872 
L 639.980598 226.526073 
L 641.763225 225.093086 
L 645.657577 222.736951 
L 648.235529 221.579855 
L 648.976005 221.441768 
L 650.073005 220.902556 
L 650.978031 220.430404 
L 652.513832 220.133134 
L 653.501133 219.733315 
L 654.735259 218.859503 
L 655.448309 218.373195 
L 655.969384 218.212897 
L 657.20351 218.094874 
L 657.889136 217.573896 
L 661.152713 214.815343 
L 663.950065 212.649626 
L 664.47114 212.078731 
L 665.403591 211.082791 
L 669.435069 207.575984 
L 670.230394 206.984469 
L 671.24512 206.014077 
L 672.095296 205.192285 
L 672.671221 204.92411 
L 675.523423 204.792291 
L 676.894674 204.193521 
L 677.552874 203.800185 
L 679.280651 203.056855 
L 680.542201 202.254028 
L 682.708778 200.988296 
L 683.476679 200.154137 
L 684.930205 198.628527 
L 687.151631 196.715309 
L 687.617856 196.72362 
L 688.111507 196.818338 
L 688.742282 196.903741 
L 690.936284 196.65093 
L 691.731609 196.474643 
L 693.459385 195.615393 
L 694.391836 195.504178 
L 695.406562 195.049779 
L 696.064762 194.632182 
L 697.134338 193.603865 
L 698.341039 192.982609 
L 699.081514 192.857949 
L 699.465465 192.787781 
L 700.617315 192.186424 
L 701.165816 191.951971 
L 701.604616 191.760766 
L 702.537067 191.372867 
L 703.880893 191.150264 
L 704.676218 191.032289 
L 705.169869 190.950059 
L 705.581244 190.907969 
L 706.59597 190.834857 
L 707.08962 190.894328 
L 707.69297 191.186898 
L 708.433446 191.490473 
L 710.572597 192.183569 
L 710.956548 192.257249 
L 711.285648 192.300947 
L 711.806723 192.651085 
L 713.095699 193.700728 
L 714.3024 194.719253 
L 715.563951 195.564864 
L 716.194726 195.587426 
L 718.224178 195.976126 
L 720.747279 197.23534 
L 722.22823 197.358782 
L 723.626906 197.326764 
L 724.010857 197.1945 
L 724.888457 196.642038 
L 725.519233 196.291379 
L 727.466409 195.957163 
L 729.742686 196.072972 
L 730.318611 195.971352 
L 731.305912 195.892704 
L 732.210937 195.723244 
L 734.596914 194.895919 
L 735.66649 194.261886 
L 737.558816 192.812918 
L 738.052466 192.645422 
L 738.930067 192.322561 
L 739.368867 192.40354 
L 740.877243 192.686277 
L 742.138794 193.280811 
L 742.687295 193.573232 
L 744.085971 194.100441 
L 744.634471 194.093526 
L 745.374946 194.152702 
L 746.499372 194.08132 
L 746.910748 194.209334 
L 748.473974 195.071451 
L 749.132174 195.2464 
L 750.53085 195.792749 
L 751.792401 196.442432 
L 752.807127 196.520844 
L 753.273352 196.081264 
L 754.205803 195.275791 
L 754.781728 195.042881 
L 756.344954 194.407279 
L 757.90818 193.958311 
L 761.007207 194.014949 
L 762.159058 193.864113 
L 762.844684 194.071158 
L 763.831984 193.905528 
L 764.270785 193.68682 
L 764.79186 193.220464 
L 765.834011 192.2758 
L 766.821311 191.871495 
L 767.369812 191.853469 
L 767.863462 191.967544 
L 768.933038 192.239391 
L 769.700938 192.565655 
L 770.331714 192.956322 
L 771.099614 193.062948 
L 772.032065 193.209224 
L 773.046791 193.515818 
L 773.458166 193.441281 
L 774.006666 193.425653 
L 774.582592 193.476128 
L 776.173243 193.697072 
L 776.776593 193.378386 
L 779.76592 191.048936 
L 780.533821 191.089862 
L 781.164596 191.239897 
L 781.932497 190.992933 
L 782.343872 190.953942 
L 783.852248 190.45041 
L 784.208773 190.46187 
L 785.388049 190.729258 
L 786.15595 191.115019 
L 788.624201 192.414523 
L 789.803477 192.367128 
L 790.187428 192.432535 
L 791.229578 192.777529 
L 792.381429 192.718419 
L 793.341305 192.73003 
L 793.834955 192.680709 
L 795.480456 192.057649 
L 797.125957 191.83229 
L 797.756733 192.147309 
L 798.305233 192.437748 
L 800.25241 192.918468 
L 800.554085 192.844156 
L 801.651086 192.080312 
L 802.254436 191.753894 
L 803.104612 191.415256 
L 803.515987 191.369641 
L 804.037062 191.261558 
L 804.777538 191.136284 
L 806.121364 191.263244 
L 806.121364 191.263244 
" clip-path="url(#pb9b82ec5f5)" style="fill: none; stroke-dasharray: 4,6.6; stroke-dashoffset: 0; stroke: #ff0000; stroke-width: 4"/>
   </g>
   <g id="patch_8">
    <path d="M 575.78 261.26 
L 817.09 261.26 
" style="fill: none; stroke: #000000; stroke-width: 3; stroke-linejoin: miter; stroke-linecap: square"/>
   </g>
   <g id="text_16">
    <!-- LAL014 -->
    <g transform="translate(651.67875 87.12) scale(0.24 -0.24)">
     <use xlink:href="#DejaVuSans-4c"/>
     <use xlink:href="#DejaVuSans-41" x="57.962891"/>
     <use xlink:href="#DejaVuSans-4c" x="126.371094"/>
     <use xlink:href="#DejaVuSans-30" x="182.083984"/>
     <use xlink:href="#DejaVuSans-31" x="245.707031"/>
     <use xlink:href="#DejaVuSans-34" x="309.330078"/>
    </g>
   </g>
  </g>
  <g id="axes_4">
   <g id="patch_9">
    <path d="M 827.89 261.26 
L 1069.2 261.26 
L 1069.2 93.12 
L 827.89 93.12 
z
" style="fill: #ffffff"/>
   </g>
   <g id="matplotlib.axis_7">
    <g id="xtick_16">
     <g id="line2d_34">
      <g>
       <use xlink:href="#mcf791f9735" x="838.858636" y="261.26" style="stroke: #000000; stroke-width: 3"/>
      </g>
     </g>
    </g>
    <g id="xtick_17">
     <g id="line2d_35">
      <g>
       <use xlink:href="#mcf791f9735" x="893.708674" y="261.26" style="stroke: #000000; stroke-width: 3"/>
      </g>
     </g>
    </g>
    <g id="xtick_18">
     <g id="line2d_36">
      <g>
       <use xlink:href="#mcf791f9735" x="948.558713" y="261.26" style="stroke: #000000; stroke-width: 3"/>
      </g>
     </g>
    </g>
    <g id="xtick_19">
     <g id="line2d_37">
      <g>
       <use xlink:href="#mcf791f9735" x="1003.408751" y="261.26" style="stroke: #000000; stroke-width: 3"/>
      </g>
     </g>
    </g>
    <g id="xtick_20">
     <g id="line2d_38">
      <g>
       <use xlink:href="#mcf791f9735" x="1058.258789" y="261.26" style="stroke: #000000; stroke-width: 3"/>
      </g>
     </g>
    </g>
   </g>
   <g id="matplotlib.axis_8"/>
   <g id="line2d_39">
    <path d="M 838.858636 261.26 
L 840.339587 260.392122 
L 841.930238 259.712862 
L 843.877415 259.096826 
L 846.126266 258.598796 
L 856.794599 256.505835 
L 861.895652 254.911497 
L 863.513728 254.300045 
L 866.530481 253.047329 
L 869.355258 251.744253 
L 870.973334 251.204323 
L 873.277035 250.472918 
L 875.525887 249.199275 
L 880.846341 246.07887 
L 883.314592 245.057951 
L 885.673144 244.37691 
L 886.413619 244.053484 
L 888.196246 242.970376 
L 890.637072 240.796981 
L 891.542098 240.055379 
L 893.297299 238.99893 
L 895.299326 237.989974 
L 898.425778 235.712441 
L 899.193678 235.167926 
L 900.784329 234.391409 
L 901.88133 234.12035 
L 903.225156 234.150922 
L 903.773656 234.036504 
L 907.421184 232.634524 
L 909.231235 232.53598 
L 910.245961 232.747986 
L 911.150987 233.013698 
L 914.250014 234.242999 
L 915.97779 234.680518 
L 917.102216 234.581089 
L 918.062091 234.545222 
L 920.530343 234.590857 
L 921.380519 234.297617 
L 922.175844 233.821605 
L 923.13572 233.049791 
L 924.506971 231.945813 
L 929.525749 229.238988 
L 930.650175 228.232552 
L 931.692326 227.308063 
L 932.240826 227.039455 
L 933.200702 226.886731 
L 935.559253 226.700725 
L 937.06763 226.583795 
L 938.521156 226.239805 
L 939.837556 225.826851 
L 940.331207 225.833217 
L 941.537908 225.830794 
L 943.512509 225.076495 
L 944.746635 224.150029 
L 947.845662 221.620913 
L 948.558713 221.477579 
L 949.381463 221.602812 
L 952.15139 222.63268 
L 953.220966 223.134554 
L 955.798918 223.892599 
L 958.459144 224.445861 
L 959.52872 224.526235 
L 961.448471 224.550735 
L 962.326072 224.371476 
L 963.340798 223.825635 
L 964.328098 223.298928 
L 967.23515 222.515141 
L 967.838501 222.458739 
L 968.469276 222.678079 
L 969.100052 223.126611 
L 970.169628 224.296656 
L 972.007104 226.142336 
L 974.859306 228.465196 
L 976.888757 229.576961 
L 978.808509 230.034241 
L 979.658684 229.906158 
L 980.700835 229.442376 
L 981.38646 229.127458 
L 982.620586 228.612039 
L 983.333637 228.1205 
L 985.006563 226.893734 
L 985.609913 226.788538 
L 988.21529 226.620999 
L 989.120316 226.961479 
L 991.451442 228.033308 
L 992.466168 228.382557 
L 995.455495 228.952874 
L 996.08627 228.869959 
L 996.717046 228.512379 
L 999.185298 226.959933 
L 999.706373 226.842779 
L 1001.351874 226.613111 
L 1002.887675 226.433913 
L 1003.299051 226.288085 
L 1003.929826 225.829994 
L 1005.273652 224.357063 
L 1007.001428 222.394076 
L 1008.016154 221.895814 
L 1009.442255 221.538511 
L 1010.210155 221.333015 
L 1011.087756 221.056036 
L 1012.897807 220.799488 
L 1013.638283 220.772889 
L 1014.488458 220.865941 
L 1015.695159 220.922389 
L 1016.57276 220.591734 
L 1017.203535 220.152733 
L 1017.889161 219.715892 
L 1018.766761 219.397268 
L 1019.562087 219.374411 
L 1020.384837 219.410316 
L 1021.975488 219.624188 
L 1024.27919 220.140134 
L 1025.019666 220.669147 
L 1028.776893 224.146082 
L 1034.069922 229.649903 
L 1035.578298 230.929981 
L 1036.757574 231.585666 
L 1037.909425 231.938468 
L 1039.582351 232.270889 
L 1041.035877 232.255065 
L 1042.215153 232.065016 
L 1045.341605 232.198531 
L 1048.303507 233.22983 
L 1051.100859 233.80966 
L 1057.682863 234.160569 
L 1058.231364 234.203642 
L 1058.231364 234.203642 
" clip-path="url(#p8b3b3eadfb)" style="fill: none; stroke: #0000ff; stroke-width: 4; stroke-linecap: square"/>
   </g>
   <g id="line2d_40">
    <path d="M 838.858636 261.26 
L 840.449287 260.318209 
L 842.039939 259.622608 
L 844.01454 259.001302 
L 847.195842 258.283051 
L 859.619376 256.004039 
L 861.648827 255.608634 
L 864.501029 255.016775 
L 868.175982 253.980754 
L 873.551285 252.278702 
L 876.540613 251.715754 
L 883.945368 250.680239 
L 885.536019 250.496857 
L 887.483195 250.550819 
L 891.185573 251.059036 
L 893.023049 251.288131 
L 895.244476 251.435536 
L 898.014402 251.749242 
L 901.305405 251.917024 
L 905.364308 252.132551 
L 907.887409 252.573965 
L 909.14896 252.733066 
L 911.342962 252.655873 
L 913.427263 252.558334 
L 915.100189 252.659245 
L 917.787841 253.032121 
L 919.186517 253.232232 
L 922.614645 253.608714 
L 928.730424 254.527298 
L 934.434828 254.954322 
L 943.347959 255.086747 
L 950.094514 255.297302 
L 952.974141 255.199649 
L 969.100052 255.469565 
L 973.18638 255.133704 
L 979.686109 255.249284 
L 982.181786 255.41815 
L 986.021289 255.48193 
L 994.056819 255.145957 
L 997.512371 255.511439 
L 999.020748 255.659318 
L 1013.309182 255.953131 
L 1016.024259 255.977814 
L 1019.452387 255.915749 
L 1026.308641 255.561714 
L 1028.146118 255.414258 
L 1031.080595 255.216832 
L 1034.974947 255.155527 
L 1036.784999 255.113694 
L 1039.335526 255.146701 
L 1051.046009 255.195112 
L 1058.231364 255.045531 
L 1058.231364 255.045531 
" clip-path="url(#p8b3b3eadfb)" style="fill: none; stroke: #ff0000; stroke-width: 4; stroke-linecap: square"/>
   </g>
   <g id="line2d_41">
    <path d="M 838.858636 261.26 
L 840.367012 260.377347 
L 842.204489 259.597355 
L 844.39849 258.93141 
L 846.866742 258.440615 
L 853.476172 257.068123 
L 860.113026 255.256301 
L 865.92713 253.189044 
L 867.545206 252.489396 
L 869.903758 251.091135 
L 872.180034 249.708973 
L 875.169362 247.27431 
L 876.760013 245.50109 
L 878.926589 242.780152 
L 881.915916 238.691004 
L 882.848367 236.862725 
L 884.713268 232.732338 
L 885.618294 230.378599 
L 886.85242 226.550633 
L 888.251096 221.570579 
L 890.061147 214.031886 
L 892.090598 204.409521 
L 893.132749 198.927124 
L 895.271901 187.64604 
L 902.073305 157.58692 
L 907.009809 138.940049 
L 908.353635 135.001097 
L 911.534937 126.530957 
L 912.494812 124.70641 
L 913.372413 123.556632 
L 915.264739 121.791181 
L 916.41659 121.073316 
L 918.116941 120.519733 
L 919.954418 119.869757 
L 921.819319 118.665766 
L 923.95847 117.377993 
L 925.137746 116.951376 
L 926.234747 116.427832 
L 930.73245 113.974083 
L 932.158551 113.591834 
L 937.040205 112.896805 
L 938.082355 112.957827 
L 940.770007 113.64185 
L 943.731909 114.063704 
L 945.020885 114.491396 
L 947.571412 114.893747 
L 949.573438 115.103125 
L 950.423614 115.183839 
L 952.398215 115.069269 
L 956.265143 114.704 
L 957.773519 114.601994 
L 959.556145 113.984755 
L 961.037096 113.313031 
L 963.423073 112.221546 
L 964.547499 111.641914 
L 966.659225 110.545198 
L 967.920776 110.116304 
L 968.962927 109.882538 
L 971.294053 109.530416 
L 973.104105 109.117836 
L 975.654631 109.093332 
L 978.918209 109.509509 
L 981.304185 109.48476 
L 984.074112 109.534456 
L 985.527638 109.670178 
L 986.514939 109.928067 
L 987.968465 110.120002 
L 990.601267 110.15827 
L 992.191918 109.96535 
L 994.001969 109.742067 
L 996.387946 109.587004 
L 1000.062898 109.5682 
L 1002.777975 109.24077 
L 1005.602752 109.000784 
L 1009.716505 109.593977 
L 1010.895781 109.833012 
L 1012.650982 109.906447 
L 1018.108561 109.412798 
L 1019.452387 109.346744 
L 1021.865788 108.965643 
L 1026.308641 108.970041 
L 1027.652467 109.09441 
L 1030.065869 109.271069 
L 1030.94347 109.546074 
L 1033.768247 110.628961 
L 1038.238525 111.207655 
L 1039.829176 111.040804 
L 1041.447252 110.813185 
L 1043.504128 110.570506 
L 1045.231905 110.500717 
L 1047.343631 110.462785 
L 1049.619908 110.606626 
L 1050.799183 110.518015 
L 1051.759059 110.413933 
L 1054.282161 110.208368 
L 1056.668138 109.802088 
L 1058.231364 109.663994 
L 1058.231364 109.663994 
" clip-path="url(#p8b3b3eadfb)" style="fill: none; stroke-dasharray: 4,6.6; stroke-dashoffset: 0; stroke: #0000ff; stroke-width: 4"/>
   </g>
   <g id="line2d_42">
    <path d="M 838.858636 261.26 
L 840.449287 260.318915 
L 842.177064 259.577327 
L 843.90484 259.055055 
L 846.729617 258.48291 
L 854.436047 257.194554 
L 859.399976 256.227154 
L 861.402002 255.678921 
L 863.596004 254.914927 
L 865.899705 253.972052 
L 872.289735 251.757978 
L 878.981439 249.514708 
L 880.489815 248.764334 
L 883.917943 246.744573 
L 886.002244 245.655174 
L 886.989545 245.053077 
L 890.033722 242.749319 
L 893.653824 238.958952 
L 895.875251 236.477411 
L 897.932127 233.962503 
L 899.742179 231.894409 
L 900.948879 230.828788 
L 901.99103 229.826149 
L 903.828506 227.977784 
L 905.501433 226.573198 
L 906.516158 225.492196 
L 908.54561 223.174222 
L 909.42321 222.304429 
L 910.520211 220.761456 
L 912.357687 217.680242 
L 913.619238 214.920243 
L 915.456715 210.099117 
L 916.69084 206.228234 
L 919.515617 196.011097 
L 921.545069 189.05397 
L 923.437395 182.989278 
L 924.698946 178.887372 
L 925.576547 176.733282 
L 927.222048 173.502072 
L 931.664901 166.111611 
L 933.365252 162.902545 
L 935.285003 159.351051 
L 940.056957 148.947976 
L 942.086408 146.453113 
L 942.854309 145.71758 
L 943.759334 144.81045 
L 944.66436 143.558768 
L 945.514535 142.524275 
L 948.970088 139.16564 
L 950.341339 137.637113 
L 951.356064 136.767236 
L 954.263116 134.571281 
L 957.170168 133.064501 
L 958.541419 132.613305 
L 959.501295 132.602706 
L 960.790271 133.003619 
L 962.682597 133.894187 
L 964.355523 135.068727 
L 965.507374 136.428324 
L 967.591676 139.01355 
L 968.222451 139.462215 
L 969.840527 140.382355 
L 970.443878 140.790659 
L 971.787704 142.055521 
L 973.323505 143.545336 
L 974.694756 144.341178 
L 975.599781 144.64606 
L 976.120857 144.649811 
L 976.861332 144.379971 
L 977.766358 143.867422 
L 980.124909 143.261367 
L 981.55101 143.294787 
L 984.320937 142.694616 
L 985.335663 142.189479 
L 987.282839 140.907656 
L 988.516965 139.771774 
L 989.613966 138.766817 
L 991.177192 137.871315 
L 992.850118 137.504122 
L 993.727719 137.602946 
L 994.71502 137.830066 
L 996.250821 138.230909 
L 999.130448 138.308999 
L 1000.693674 139.188757 
L 1002.942525 140.75722 
L 1003.874976 141.497844 
L 1004.999402 142.107357 
L 1005.630177 141.949047 
L 1006.480353 141.522068 
L 1009.003454 140.018297 
L 1009.90848 139.460892 
L 1011.005481 138.952088 
L 1014.104508 137.999881 
L 1014.598158 138.08625 
L 1015.503184 138.14603 
L 1016.79216 137.87446 
L 1017.971436 137.049526 
L 1019.095861 136.472732 
L 1020.000887 136.34987 
L 1021.235013 136.519343 
L 1021.920638 136.73054 
L 1022.798239 136.999182 
L 1024.27919 137.26354 
L 1025.156791 137.537119 
L 1025.814991 137.560348 
L 1027.405642 137.719105 
L 1028.228393 137.764706 
L 1028.941443 137.562811 
L 1030.202994 136.798692 
L 1031.299995 135.811012 
L 1032.424421 134.77856 
L 1034.042497 133.810645 
L 1034.728122 133.432881 
L 1035.715423 132.86654 
L 1036.538174 132.576967 
L 1037.470624 132.496488 
L 1038.073975 132.576682 
L 1039.225825 133.080854 
L 1041.173002 134.170507 
L 1041.886052 134.388045 
L 1042.708803 134.725249 
L 1043.641254 135.04254 
L 1044.628554 135.136113 
L 1047.041956 135.06661 
L 1049.757033 134.580954 
L 1051.484809 135.091173 
L 1052.85606 135.357953 
L 1053.45941 135.154677 
L 1055.680837 134.536355 
L 1058.231364 134.351638 
L 1058.231364 134.351638 
" clip-path="url(#p8b3b3eadfb)" style="fill: none; stroke-dasharray: 4,6.6; stroke-dashoffset: 0; stroke: #ff0000; stroke-width: 4"/>
   </g>
   <g id="patch_10">
    <path d="M 827.89 261.26 
L 1069.2 261.26 
" style="fill: none; stroke: #000000; stroke-width: 3; stroke-linejoin: miter; stroke-linecap: square"/>
   </g>
   <g id="text_17">
    <!-- LAL018 -->
    <g transform="translate(903.78875 87.12) scale(0.24 -0.24)">
     <use xlink:href="#DejaVuSans-4c"/>
     <use xlink:href="#DejaVuSans-41" x="57.962891"/>
     <use xlink:href="#DejaVuSans-4c" x="126.371094"/>
     <use xlink:href="#DejaVuSans-30" x="182.083984"/>
     <use xlink:href="#DejaVuSans-31" x="245.707031"/>
     <use xlink:href="#DejaVuSans-38" x="309.330078"/>
    </g>
   </g>
  </g>
  <g id="text_18">
   <!--  = 30 -->
   <g transform="translate(471.869531 29.995313) scale(0.3 -0.3)">
    <defs>
     <path id="DejaVuSans-394" d="M 2188 4044 
L 906 525 
L 3472 525 
L 2188 4044 
z
M 50 0 
L 1831 4666 
L 2547 4666 
L 4325 0 
L 50 0 
z
" transform="scale(0.015625)"/>
     <path id="DejaVuSans-3b8" d="M 2953 2219 
L 963 2219 
Q 1009 1284 1225 888 
Q 1494 400 1959 400 
Q 2428 400 2688 891 
Q 2916 1322 2953 2219 
z
M 2944 2750 
Q 2856 3638 2688 3950 
Q 2419 4444 1959 4444 
Q 1481 4444 1228 3956 
Q 1028 3563 969 2750 
L 2944 2750 
z
M 1959 4913 
Q 2709 4913 3138 4250 
Q 3566 3591 3566 2422 
Q 3566 1256 3138 594 
Q 2709 -72 1959 -72 
Q 1206 -72 781 594 
Q 353 1256 353 2422 
Q 353 3591 781 4250 
Q 1206 4913 1959 4913 
z
" transform="scale(0.015625)"/>
     <path id="DejaVuSans-3d" d="M 678 2906 
L 4684 2906 
L 4684 2381 
L 678 2381 
L 678 2906 
z
M 678 1631 
L 4684 1631 
L 4684 1100 
L 678 1100 
L 678 1631 
z
" transform="scale(0.015625)"/>
     <path id="DejaVuSans-33" d="M 2597 2516 
Q 3050 2419 3304 2112 
Q 3559 1806 3559 1356 
Q 3559 666 3084 287 
Q 2609 -91 1734 -91 
Q 1441 -91 1130 -33 
Q 819 25 488 141 
L 488 750 
Q 750 597 1062 519 
Q 1375 441 1716 441 
Q 2309 441 2620 675 
Q 2931 909 2931 1356 
Q 2931 1769 2642 2001 
Q 2353 2234 1838 2234 
L 1294 2234 
L 1294 2753 
L 1863 2753 
Q 2328 2753 2575 2939 
Q 2822 3125 2822 3475 
Q 2822 3834 2567 4026 
Q 2313 4219 1838 4219 
Q 1578 4219 1281 4162 
Q 984 4106 628 3988 
L 628 4550 
Q 988 4650 1302 4700 
Q 1616 4750 1894 4750 
Q 2613 4750 3031 4423 
Q 3450 4097 3450 3541 
Q 3450 3153 3228 2886 
Q 3006 2619 2597 2516 
z
" transform="scale(0.015625)"/>
     <path id="DejaVuSans-b0" d="M 1600 4347 
Q 1350 4347 1178 4173 
Q 1006 4000 1006 3750 
Q 1006 3503 1178 3333 
Q 1350 3163 1600 3163 
Q 1850 3163 2022 3333 
Q 2194 3503 2194 3750 
Q 2194 3997 2020 4172 
Q 1847 4347 1600 4347 
z
M 1600 4750 
Q 1800 4750 1984 4673 
Q 2169 4597 2303 4453 
Q 2447 4313 2519 4134 
Q 2591 3956 2591 3750 
Q 2591 3338 2302 3052 
Q 2013 2766 1594 2766 
Q 1172 2766 890 3047 
Q 609 3328 609 3750 
Q 609 4169 896 4459 
Q 1184 4750 1600 4750 
z
" transform="scale(0.015625)"/>
    </defs>
    <use xlink:href="#DejaVuSans-394"/>
    <use xlink:href="#DejaVuSans-3b8" x="68.408203"/>
    <use xlink:href="#DejaVuSans-20" x="129.589844"/>
    <use xlink:href="#DejaVuSans-3d" x="161.376953"/>
    <use xlink:href="#DejaVuSans-20" x="245.166016"/>
    <use xlink:href="#DejaVuSans-33" x="276.953125"/>
    <use xlink:href="#DejaVuSans-30" x="340.576172"/>
    <use xlink:href="#DejaVuSans-b0" x="404.199219"/>
   </g>
  </g>
  <g id="legend_1">
   <g id="line2d_43">
    <path d="M 894.5425 143.5875 
L 910.5425 143.5875 
L 926.5425 143.5875 
" style="fill: none; stroke: #0000ff; stroke-width: 4; stroke-linecap: square"/>
   </g>
   <g id="text_19">
    <!-- Full model L -->
    <g transform="translate(939.3425 149.1875) scale(0.16 -0.16)">
     <defs>
      <path id="DejaVuSans-75" d="M 544 1381 
L 544 3500 
L 1119 3500 
L 1119 1403 
Q 1119 906 1312 657 
Q 1506 409 1894 409 
Q 2359 409 2629 706 
Q 2900 1003 2900 1516 
L 2900 3500 
L 3475 3500 
L 3475 0 
L 2900 0 
L 2900 538 
Q 2691 219 2414 64 
Q 2138 -91 1772 -91 
Q 1169 -91 856 284 
Q 544 659 544 1381 
z
M 1991 3584 
L 1991 3584 
z
" transform="scale(0.015625)"/>
      <path id="DejaVuSans-6c" d="M 603 4863 
L 1178 4863 
L 1178 0 
L 603 0 
L 603 4863 
z
" transform="scale(0.015625)"/>
      <path id="DejaVuSans-6f" d="M 1959 3097 
Q 1497 3097 1228 2736 
Q 959 2375 959 1747 
Q 959 1119 1226 758 
Q 1494 397 1959 397 
Q 2419 397 2687 759 
Q 2956 1122 2956 1747 
Q 2956 2369 2687 2733 
Q 2419 3097 1959 3097 
z
M 1959 3584 
Q 2709 3584 3137 3096 
Q 3566 2609 3566 1747 
Q 3566 888 3137 398 
Q 2709 -91 1959 -91 
Q 1206 -91 779 398 
Q 353 888 353 1747 
Q 353 2609 779 3096 
Q 1206 3584 1959 3584 
z
" transform="scale(0.015625)"/>
      <path id="DejaVuSans-64" d="M 2906 2969 
L 2906 4863 
L 3481 4863 
L 3481 0 
L 2906 0 
L 2906 525 
Q 2725 213 2448 61 
Q 2172 -91 1784 -91 
Q 1150 -91 751 415 
Q 353 922 353 1747 
Q 353 2572 751 3078 
Q 1150 3584 1784 3584 
Q 2172 3584 2448 3432 
Q 2725 3281 2906 2969 
z
M 947 1747 
Q 947 1113 1208 752 
Q 1469 391 1925 391 
Q 2381 391 2643 752 
Q 2906 1113 2906 1747 
Q 2906 2381 2643 2742 
Q 2381 3103 1925 3103 
Q 1469 3103 1208 2742 
Q 947 2381 947 1747 
z
" transform="scale(0.015625)"/>
     </defs>
     <use xlink:href="#DejaVuSans-46"/>
     <use xlink:href="#DejaVuSans-75" x="52.019531"/>
     <use xlink:href="#DejaVuSans-6c" x="115.398438"/>
     <use xlink:href="#DejaVuSans-6c" x="143.181641"/>
     <use xlink:href="#DejaVuSans-20" x="170.964844"/>
     <use xlink:href="#DejaVuSans-6d" x="202.751953"/>
     <use xlink:href="#DejaVuSans-6f" x="300.164062"/>
     <use xlink:href="#DejaVuSans-64" x="361.345703"/>
     <use xlink:href="#DejaVuSans-65" x="424.822266"/>
     <use xlink:href="#DejaVuSans-6c" x="486.345703"/>
     <use xlink:href="#DejaVuSans-20" x="514.128906"/>
     <use xlink:href="#DejaVuSans-4c" x="545.916016"/>
    </g>
   </g>
   <g id="line2d_44">
    <path d="M 894.5425 167.0725 
L 910.5425 167.0725 
L 926.5425 167.0725 
" style="fill: none; stroke: #ff0000; stroke-width: 4; stroke-linecap: square"/>
   </g>
   <g id="text_20">
    <!-- Full model R -->
    <g transform="translate(939.3425 172.6725) scale(0.16 -0.16)">
     <defs>
      <path id="DejaVuSans-52" d="M 2841 2188 
Q 3044 2119 3236 1894 
Q 3428 1669 3622 1275 
L 4263 0 
L 3584 0 
L 2988 1197 
Q 2756 1666 2539 1819 
Q 2322 1972 1947 1972 
L 1259 1972 
L 1259 0 
L 628 0 
L 628 4666 
L 2053 4666 
Q 2853 4666 3247 4331 
Q 3641 3997 3641 3322 
Q 3641 2881 3436 2590 
Q 3231 2300 2841 2188 
z
M 1259 4147 
L 1259 2491 
L 2053 2491 
Q 2509 2491 2742 2702 
Q 2975 2913 2975 3322 
Q 2975 3731 2742 3939 
Q 2509 4147 2053 4147 
L 1259 4147 
z
" transform="scale(0.015625)"/>
     </defs>
     <use xlink:href="#DejaVuSans-46"/>
     <use xlink:href="#DejaVuSans-75" x="52.019531"/>
     <use xlink:href="#DejaVuSans-6c" x="115.398438"/>
     <use xlink:href="#DejaVuSans-6c" x="143.181641"/>
     <use xlink:href="#DejaVuSans-20" x="170.964844"/>
     <use xlink:href="#DejaVuSans-6d" x="202.751953"/>
     <use xlink:href="#DejaVuSans-6f" x="300.164062"/>
     <use xlink:href="#DejaVuSans-64" x="361.345703"/>
     <use xlink:href="#DejaVuSans-65" x="424.822266"/>
     <use xlink:href="#DejaVuSans-6c" x="486.345703"/>
     <use xlink:href="#DejaVuSans-20" x="514.128906"/>
     <use xlink:href="#DejaVuSans-52" x="545.916016"/>
    </g>
   </g>
   <g id="line2d_45">
    <path d="M 894.5425 190.5575 
L 910.5425 190.5575 
L 926.5425 190.5575 
" style="fill: none; stroke-dasharray: 4,6.6; stroke-dashoffset: 0; stroke: #0000ff; stroke-width: 4"/>
   </g>
   <g id="text_21">
    <!-- - 121 output L -->
    <g transform="translate(939.3425 196.1575) scale(0.16 -0.16)">
     <defs>
      <path id="DejaVuSans-2d" d="M 313 2009 
L 1997 2009 
L 1997 1497 
L 313 1497 
L 313 2009 
z
" transform="scale(0.015625)"/>
      <path id="DejaVuSans-70" d="M 1159 525 
L 1159 -1331 
L 581 -1331 
L 581 3500 
L 1159 3500 
L 1159 2969 
Q 1341 3281 1617 3432 
Q 1894 3584 2278 3584 
Q 2916 3584 3314 3078 
Q 3713 2572 3713 1747 
Q 3713 922 3314 415 
Q 2916 -91 2278 -91 
Q 1894 -91 1617 61 
Q 1341 213 1159 525 
z
M 3116 1747 
Q 3116 2381 2855 2742 
Q 2594 3103 2138 3103 
Q 1681 3103 1420 2742 
Q 1159 2381 1159 1747 
Q 1159 1113 1420 752 
Q 1681 391 2138 391 
Q 2594 391 2855 752 
Q 3116 1113 3116 1747 
z
" transform="scale(0.015625)"/>
     </defs>
     <use xlink:href="#DejaVuSans-2d"/>
     <use xlink:href="#DejaVuSans-20" x="36.083984"/>
     <use xlink:href="#DejaVuSans-31" x="67.871094"/>
     <use xlink:href="#DejaVuSans-32" x="131.494141"/>
     <use xlink:href="#DejaVuSans-31" x="195.117188"/>
     <use xlink:href="#DejaVuSans-20" x="258.740234"/>
     <use xlink:href="#DejaVuSans-6f" x="290.527344"/>
     <use xlink:href="#DejaVuSans-75" x="351.708984"/>
     <use xlink:href="#DejaVuSans-74" x="415.087891"/>
     <use xlink:href="#DejaVuSans-70" x="454.296875"/>
     <use xlink:href="#DejaVuSans-75" x="517.773438"/>
     <use xlink:href="#DejaVuSans-74" x="581.152344"/>
     <use xlink:href="#DejaVuSans-20" x="620.361328"/>
     <use xlink:href="#DejaVuSans-4c" x="652.148438"/>
    </g>
   </g>
   <g id="line2d_46">
    <path d="M 894.5425 214.0425 
L 910.5425 214.0425 
L 926.5425 214.0425 
" style="fill: none; stroke-dasharray: 4,6.6; stroke-dashoffset: 0; stroke: #ff0000; stroke-width: 4"/>
   </g>
   <g id="text_22">
    <!-- - 121 output R -->
    <g transform="translate(939.3425 219.6425) scale(0.16 -0.16)">
     <use xlink:href="#DejaVuSans-2d"/>
     <use xlink:href="#DejaVuSans-20" x="36.083984"/>
     <use xlink:href="#DejaVuSans-31" x="67.871094"/>
     <use xlink:href="#DejaVuSans-32" x="131.494141"/>
     <use xlink:href="#DejaVuSans-31" x="195.117188"/>
     <use xlink:href="#DejaVuSans-20" x="258.740234"/>
     <use xlink:href="#DejaVuSans-6f" x="290.527344"/>
     <use xlink:href="#DejaVuSans-75" x="351.708984"/>
     <use xlink:href="#DejaVuSans-74" x="415.087891"/>
     <use xlink:href="#DejaVuSans-70" x="454.296875"/>
     <use xlink:href="#DejaVuSans-75" x="517.773438"/>
     <use xlink:href="#DejaVuSans-74" x="581.152344"/>
     <use xlink:href="#DejaVuSans-20" x="620.361328"/>
     <use xlink:href="#DejaVuSans-52" x="652.148438"/>
    </g>
   </g>
  </g>
 </g>
 <defs>
  <clipPath id="p5b8e3f1871">
   <rect x="71.56" y="93.12" width="241.31" height="168.14"/>
  </clipPath>
  <clipPath id="pc635481e6b">
   <rect x="323.67" y="93.12" width="241.31" height="168.14"/>
  </clipPath>
  <clipPath id="pb9b82ec5f5">
   <rect x="575.78" y="93.12" width="241.31" height="168.14"/>
  </clipPath>
  <clipPath id="p8b3b3eadfb">
   <rect x="827.89" y="93.12" width="241.31" height="168.14"/>
  </clipPath>
 </defs>
</svg>
